<svg xmlns="http://www.w3.org/2000/svg" version="1.1" xmlns:xlink="http://www.w3.org/1999/xlink" xmlns:svgjs="http://svgjs.com/svgjs" width="1000" height="1000"><rect width="1000" height="1000" rx="200" ry="200" fill="#04267c"></rect><g transform="matrix(62.5,0,0,62.5,0.0000013746321201324463,156.25076246261597)"><svg xmlns="http://www.w3.org/2000/svg" version="1.1" xmlns:xlink="http://www.w3.org/1999/xlink" xmlns:svgjs="http://svgjs.com/svgjs" width="16" height="11"><svg width="16" height="11" viewBox="0 0 16 11" fill="none" xmlns="http://www.w3.org/2000/svg">
<path d="M11.4079 3.32687H13.1561C13.3043 3.32687 13.4245 3.43984 13.4245 3.57913V4.48421L15.352 2.6728L13.4245 0.8614V1.76648C13.4245 1.90577 13.3043 2.01874 13.1561 2.01874C13.1481 2.01874 13.1403 2.01838 13.1325 2.01776L7.9332 2.01794C6.92497 2.03451 6.01451 2.4303 5.35634 3.06C4.70015 3.68784 4.2954 4.54915 4.2954 5.50004C4.2954 5.82433 4.34169 6.13639 4.42834 6.43082C4.51838 6.73668 4.65178 7.02579 4.82196 7.29187C4.89785 7.41104 4.85646 7.56547 4.72966 7.6368C4.68657 7.66099 4.63915 7.67251 4.59229 7.67251V7.6733H2.84405C2.69585 7.6733 2.57564 7.56033 2.57564 7.42105V6.51597L0.648176 8.32737L2.57564 10.1388V9.23369C2.57564 9.09441 2.69585 8.98144 2.84405 8.98144C2.85207 8.98144 2.85989 8.9818 2.86772 8.98242L8.07132 8.98215C9.07852 8.96452 9.98794 8.56846 10.6454 7.93876C11.3006 7.31109 11.7048 6.45031 11.7048 5.50022C11.7048 5.17593 11.6585 4.86387 11.5719 4.56953C11.4818 4.26367 11.3484 3.97456 11.1782 3.70849C11.1023 3.58932 11.1437 3.43488 11.2705 3.36355C11.3136 3.33937 11.361 3.32785 11.4079 3.32785V3.32705V3.32687ZM12.8876 3.83147H11.8523C11.9474 4.02489 12.0264 4.22664 12.0878 4.4353C12.1881 4.77607 12.2416 5.13323 12.2416 5.50004C12.2416 6.58641 11.7783 7.57185 11.027 8.2914C10.2752 9.01148 9.23399 9.46442 8.07962 9.48462L3.11247 9.48488V10.7477C3.11247 10.8123 3.08626 10.8768 3.03384 10.9261C2.929 11.0246 2.75901 11.0246 2.65417 10.9261L0.0786296 8.50564C-0.0262099 8.40712 -0.0262099 8.24736 0.0786296 8.14884L2.65304 5.72944C2.70169 5.68319 2.76929 5.65448 2.84396 5.65448C2.99217 5.65448 3.11238 5.76745 3.11238 5.90673V7.16853H4.14767C4.05263 6.97511 3.97363 6.77336 3.91225 6.5647C3.81193 6.22393 3.75838 5.86677 3.75838 5.49996C3.75838 4.41279 4.22234 3.42682 4.9745 2.70709C5.72724 1.98693 6.7695 1.53425 7.92472 1.51529L12.8875 1.51511V0.252253C12.8875 0.187662 12.9137 0.123158 12.9662 0.0738951C13.071 -0.0246317 13.241 -0.0246317 13.3458 0.0738951L15.9214 2.49436C16.0262 2.59288 16.0262 2.75264 15.9214 2.85116L13.347 5.27056C13.2983 5.31681 13.2307 5.34552 13.156 5.34552C13.0078 5.34552 12.8876 5.23255 12.8876 5.09327V3.83138V3.83147Z" fill="#F6F6F6"></path>
<path d="M6.55579 6.71083C6.72479 6.86628 6.72855 7.12183 6.56415 7.28164C6.39985 7.44144 6.12958 7.44499 5.96058 7.28954C5.93841 7.26929 5.91661 7.24859 5.89529 7.22781C5.37138 6.7158 5.10938 6.06141 5.10938 5.40737C5.10938 4.75333 5.37138 4.09894 5.89529 3.58693C5.91661 3.56615 5.93841 3.54545 5.96058 3.5252C6.52517 3.0084 7.26261 2.75 7.99826 2.75C8.73401 2.75 9.47136 3.0084 10.0359 3.5252C10.0581 3.54545 10.0799 3.56615 10.1012 3.58693C10.6251 4.09894 10.8872 4.75333 10.8872 5.40737C10.8872 6.06141 10.6251 6.7158 10.1012 7.22781C10.0799 7.24868 10.0581 7.26929 10.0359 7.28954C9.86695 7.44499 9.59677 7.44144 9.43237 7.28164C9.26807 7.12183 9.27173 6.86628 9.44074 6.71083C9.45727 6.69564 9.47352 6.68027 9.4893 6.6649C9.85051 6.3119 10.0311 5.85977 10.0311 5.40737C10.0311 4.95488 9.85041 4.50275 9.4893 4.14984C9.47352 4.13438 9.45727 4.11901 9.44074 4.10391C9.15299 3.84054 8.79893 3.67274 8.42617 3.60053V5.40737C8.42617 5.63095 8.23453 5.81216 7.99817 5.81216C7.76181 5.81216 7.57017 5.63095 7.57017 5.40737V3.60053C7.19741 3.67274 6.84335 3.84054 6.5556 4.10391C6.53907 4.1191 6.52282 4.13447 6.50704 4.14984C6.14583 4.50284 5.96528 4.95497 5.96528 5.40737C5.96528 5.85986 6.14583 6.31199 6.50704 6.6649C6.52282 6.68036 6.53907 6.69564 6.5556 6.71083H6.55579Z" fill="#F6F6F6"></path>
</svg></svg></g></svg>