<svg width="678" height="1334" viewBox="0 0 678 1334" fill="none" xmlns="http://www.w3.org/2000/svg">
<g clip-path="url(#clip0_275_380)">
<rect width="678" height="1334" fill="#001447"/>
<g clip-path="url(#clip1_275_380)" filter="url(#filter0_d_275_380)">
<rect width="680" height="1334" transform="translate(-1)" fill="#001447"/>
<path d="M629.02 111.02C674.495 65.5445 674.495 -8.18518 629.02 -53.6603C583.545 -99.1354 509.815 -99.1354 464.34 -53.6603C418.865 -8.18516 418.865 65.5445 464.34 111.02C509.815 156.495 583.545 156.495 629.02 111.02Z" fill="url(#paint0_radial_275_380)" fill-opacity="0.3"/>
<path d="M74.6195 1027.21L-38.786 1140.62C-38.6096 1140.8 -38.4528 1140.99 -38.2764 1141.17C-38.1 1141.35 -37.904 1141.5 -37.7276 1141.68L75.678 1028.27C75.5016 1028.1 75.3448 1027.9 75.1684 1027.72C74.992 1027.55 74.7959 1027.39 74.6195 1027.21Z" fill="#FF9149"/>
<path d="M-13.5805 1157.97C-13.0905 1158.18 -12.6005 1158.4 -12.0909 1158.61L92.6319 1053.89C92.4359 1053.4 92.2008 1052.91 91.9852 1052.4L-13.5805 1157.97Z" fill="#FF9149"/>
<path d="M-33.2588 1145.72C-32.8668 1146.05 -32.4943 1146.38 -32.1023 1146.7L80.7152 1033.88C80.4016 1033.49 80.0684 1033.11 79.7352 1032.72L-33.2588 1145.72Z" fill="#FF9149"/>
<path d="M-27.2415 1150.34C-26.8299 1150.64 -26.4183 1150.93 -25.9871 1151.22L85.2233 1040.01C84.9489 1039.58 84.6353 1039.17 84.3413 1038.76L-27.2611 1150.36L-27.2415 1150.34Z" fill="#FF9149"/>
<path d="M-5.85804 1160.87C-5.32884 1161.04 -4.78002 1161.22 -4.25082 1161.38L95.376 1061.75C95.2192 1061.2 95.0428 1060.67 94.8664 1060.14L-5.85804 1160.87Z" fill="#FF9149"/>
<path d="M-20.6951 1154.44C-20.2443 1154.69 -19.7936 1154.95 -19.3232 1155.2L89.2216 1046.66C88.9668 1046.21 88.712 1045.76 88.4572 1045.29L-20.6951 1154.44Z" fill="#FF9149"/>
<path d="M14.526 1004.32C13.7616 1004.36 12.9972 1004.42 12.2328 1004.48L-61.4828 1078.19C-61.5416 1078.96 -61.6004 1079.72 -61.6396 1080.49L14.5456 1004.3L14.526 1004.32Z" fill="#FF9149"/>
<path d="M98.512 1079.9C98.4728 1079.23 98.4141 1078.57 98.3749 1077.92L11.9388 1164.36C12.6052 1164.41 13.2521 1164.45 13.9185 1164.49L98.512 1079.9Z" fill="#FF9149"/>
<path d="M-59.5229 1065.59C-59.7385 1066.49 -59.9345 1067.41 -60.1109 1068.32L2.33482 1005.87C1.43322 1006.05 0.512 1006.24 -0.3896 1006.46L-59.5229 1065.59Z" fill="#FF9149"/>
<path d="M2.58959 1163.06C3.17759 1163.18 3.78528 1163.28 4.39288 1163.4L97.3949 1070.39C97.2969 1069.79 97.1792 1069.2 97.0616 1068.59L2.58959 1163.06Z" fill="#FF9149"/>
<path d="M-53.4468 1048.89C-54.0936 1050.19 -54.7012 1051.52 -55.2696 1052.83L-13.1492 1010.71C-14.482 1011.28 -15.7952 1011.89 -17.0888 1012.53L-53.4468 1048.89Z" fill="#FF9149"/>
<path d="M-61.6199 1088.97C-61.5807 1089.64 -61.5221 1090.31 -61.4829 1090.95L24.9532 1004.52C24.2868 1004.46 23.6204 1004.42 22.9736 1004.38L-61.6199 1088.97Z" fill="#FF9149"/>
<path d="M-60.5028 1098.5C-60.4048 1099.11 -60.2871 1099.7 -60.1695 1100.3L34.3025 1005.83C33.7145 1005.71 33.1068 1005.62 32.4992 1005.5L-60.5028 1098.5Z" fill="#FF9149"/>
<path d="M34.5572 1163C35.4588 1162.83 36.38 1162.63 37.2816 1162.42L96.4149 1103.28C96.6305 1102.38 96.8265 1101.48 97.0029 1100.56L34.5572 1163Z" fill="#FF9149"/>
<path d="M-43.8233 1134.99C-43.5097 1135.39 -43.1765 1135.76 -42.8433 1136.15L70.1508 1023.16C69.7588 1022.82 69.3863 1022.49 68.9943 1022.18L-43.8233 1134.99Z" fill="#FF9149"/>
<path d="M22.3857 1164.53C23.1501 1164.49 23.9144 1164.43 24.6788 1164.38L98.3944 1090.66C98.4532 1089.9 98.512 1089.13 98.5512 1088.37L22.366 1164.55L22.3857 1164.53Z" fill="#FF9149"/>
<path d="M90.3388 1119.98C90.9856 1118.69 91.5932 1117.35 92.1616 1116.04L50.0412 1158.16C51.374 1157.59 52.6872 1156.99 53.9808 1156.34L90.3388 1119.98Z" fill="#FF9149"/>
<path d="M-48.3312 1128.88C-48.0568 1129.31 -47.7431 1129.72 -47.4491 1130.13L64.1533 1018.53C63.7417 1018.24 63.33 1017.94 62.8988 1017.65L-48.3116 1128.86L-48.3312 1128.88Z" fill="#FF9149"/>
<path d="M-52.31 1122.22C-52.0748 1122.67 -51.8005 1123.12 -51.5457 1123.59L57.6068 1014.44C57.156 1014.18 56.7052 1013.93 56.2348 1013.67L-52.31 1122.22Z" fill="#FF9149"/>
<path d="M-58.4841 1107.12C-58.3273 1107.67 -58.1508 1108.2 -57.9744 1108.73L42.75 1008.01C42.2208 1007.83 41.672 1007.65 41.1428 1007.5L-58.4841 1107.12Z" fill="#FF9149"/>
<path d="M-55.7205 1114.98C-55.5245 1115.47 -55.2893 1115.96 -55.0737 1116.47L50.4919 1010.91C50.0019 1010.69 49.512 1010.48 49.0024 1010.26L-55.7205 1114.98Z" fill="#FF9149"/>
</g>
</g>
<defs>
<filter id="filter0_d_275_380" x="-31" y="-26" width="740" height="1394" filterUnits="userSpaceOnUse" color-interpolation-filters="sRGB">
<feFlood flood-opacity="0" result="BackgroundImageFix"/>
<feColorMatrix in="SourceAlpha" type="matrix" values="0 0 0 0 0 0 0 0 0 0 0 0 0 0 0 0 0 0 127 0" result="hardAlpha"/>
<feOffset dy="4"/>
<feGaussianBlur stdDeviation="15"/>
<feComposite in2="hardAlpha" operator="out"/>
<feColorMatrix type="matrix" values="0 0 0 0 0.0862745 0 0 0 0 0.498039 0 0 0 0 0.988235 0 0 0 1 0"/>
<feBlend mode="normal" in2="BackgroundImageFix" result="effect1_dropShadow_275_380"/>
<feBlend mode="normal" in="SourceGraphic" in2="effect1_dropShadow_275_380" result="shape"/>
</filter>
<radialGradient id="paint0_radial_275_380" cx="0" cy="0" r="1" gradientUnits="userSpaceOnUse" gradientTransform="translate(279.331 222.713) rotate(-180) scale(801.052)">
<stop stop-color="#5BC7CE"/>
<stop offset="0.11" stop-color="#4198C0"/>
<stop offset="0.23" stop-color="#296BB3"/>
<stop offset="0.34" stop-color="#184AAA"/>
<stop offset="0.43" stop-color="#0D37A5"/>
<stop offset="0.49" stop-color="#0A30A3"/>
<stop offset="1" stop-color="#00152A"/>
</radialGradient>
<clipPath id="clip0_275_380">
<rect width="678" height="1334" fill="white"/>
</clipPath>
<clipPath id="clip1_275_380">
<rect width="680" height="1334" fill="white" transform="translate(-1)"/>
</clipPath>
</defs>
</svg>
