<svg width="1920" height="477" viewBox="0 0 1920 477" fill="none" xmlns="http://www.w3.org/2000/svg">
<g clip-path="url(#clip0_271_1910)">
<rect width="1920" height="477" fill="url(#paint0_linear_271_1910)"/>
<rect y="-685" width="1920" height="688" fill="url(#paint1_linear_271_1910)"/>
<g opacity="0.6">
<path d="M262.23 57.1172L247.341 61.5069" stroke="#179F0C" stroke-opacity="0.6" stroke-width="8.4" stroke-linecap="round"/>
<path d="M184.925 -7.48438L175.991 -4.85055" stroke="#179F0C" stroke-opacity="0.6" stroke-width="8.4" stroke-linecap="round"/>
<path d="M233.828 26.6484L229.574 27.9026" stroke="#179F0C" stroke-opacity="0.6" stroke-width="8.4" stroke-linecap="round"/>
<path d="M308.273 4.70312L257.65 19.6281" stroke="#1E6AC6" stroke-opacity="0.6" stroke-width="8.4" stroke-linecap="round"/>
<path d="M339.653 34.2891L289.03 49.2141" stroke="#1E6AC6" stroke-opacity="0.6" stroke-width="8.4" stroke-linecap="round"/>
<path d="M342.413 21.4934C348.262 24.634 350.532 31.9628 347.482 37.863C344.436 43.7625 337.222 46.0004 331.373 42.8598C330.607 42.4518 329.848 42.0281 329.1 41.5981C310.712 30.9952 298.135 14.223 292.583 -4.60927C287.031 -23.4415 288.497 -44.3542 298.192 -63.2364C298.587 -64.0034 298.995 -64.7715 299.417 -65.5298C310.161 -84.8715 327.731 -98.1387 347.447 -103.951C367.166 -109.765 389.12 -108.151 408.639 -97.7312C409.405 -97.3232 410.165 -96.8995 410.913 -96.4695C429.3 -85.8667 441.877 -69.0944 447.429 -50.2622C452.982 -31.4299 451.515 -10.5173 441.821 8.36491C441.426 9.13446 441.017 9.90006 440.595 10.6584C437.385 16.4697 430.114 18.5022 424.352 15.1999C418.592 11.8968 416.52 4.50942 419.73 -1.30189C420.044 -1.86989 420.349 -2.44078 420.642 -3.00796C427.326 -16.0263 428.326 -30.4715 424.486 -43.4978C420.645 -56.5267 411.965 -68.1179 399.291 -75.4263C398.737 -75.7466 398.171 -76.0607 397.6 -76.3649C387.652 -81.6748 376.739 -83.7086 366.135 -82.8427L381.474 -30.8168C383.372 -24.3791 379.774 -17.6472 373.44 -15.7796C367.105 -13.912 360.431 -17.6155 358.533 -24.0532L343.194 -76.0791C333.817 -71.0543 325.753 -63.4252 320.277 -53.5681C319.963 -53.0001 319.658 -52.4292 319.365 -51.862C312.681 -38.8437 311.681 -24.3984 315.521 -11.3721C319.363 1.65671 328.04 13.2487 340.716 20.5563C341.27 20.8766 341.836 21.1882 342.408 21.4949L342.413 21.4934Z" fill="#1E6AC6" fill-opacity="0.9"/>
</g>
<g clip-path="url(#clip1_271_1910)" filter="url(#filter0_d_271_1910)">
<rect width="1920" height="477" fill="#001447"/>
<path opacity="0.36" d="M1970.71 243.383C1987.1 259.893 1987.1 286.662 1970.71 303.153L1635.65 640.617C1619.26 657.128 1592.68 657.128 1576.29 640.617C1559.9 624.107 1559.9 597.338 1576.29 580.847L1911.35 243.383C1927.74 226.872 1954.32 226.872 1970.69 243.383H1970.71Z" fill="url(#paint2_radial_271_1910)"/>
<path d="M1159.62 420.214L1046.21 533.62C1046.39 533.797 1046.55 533.993 1046.72 534.169C1046.9 534.345 1047.1 534.502 1047.27 534.678L1160.68 421.273C1160.5 421.096 1160.34 420.9 1160.17 420.724C1159.99 420.548 1159.8 420.391 1159.62 420.214Z" fill="#FF9149"/>
<path d="M1071.42 550.966C1071.91 551.182 1072.4 551.397 1072.91 551.613L1177.63 446.89C1177.44 446.4 1177.2 445.91 1176.99 445.401L1071.42 550.966Z" fill="#FF9149"/>
<path d="M1051.74 538.716C1052.13 539.049 1052.51 539.382 1052.9 539.696L1165.72 426.878C1165.4 426.486 1165.07 426.114 1164.74 425.722L1051.74 538.716Z" fill="#FF9149"/>
<path d="M1057.76 543.342C1058.17 543.636 1058.58 543.93 1059.01 544.224L1170.22 433.013C1169.95 432.582 1169.64 432.17 1169.34 431.759L1057.74 543.361L1057.76 543.342Z" fill="#FF9149"/>
<path d="M1079.14 553.867C1079.67 554.043 1080.22 554.22 1080.75 554.377L1180.38 454.75C1180.22 454.201 1180.04 453.672 1179.87 453.142L1079.14 553.867Z" fill="#FF9149"/>
<path d="M1064.3 547.438C1064.76 547.693 1065.21 547.948 1065.68 548.202L1174.22 439.658C1173.97 439.207 1173.71 438.756 1173.46 438.286L1064.3 547.438Z" fill="#FF9149"/>
<path d="M1099.53 397.322C1098.76 397.361 1098 397.42 1097.23 397.478L1023.52 471.194C1023.46 471.959 1023.4 472.723 1023.36 473.487L1099.55 397.302L1099.53 397.322Z" fill="#FF9149"/>
<path d="M1183.51 472.899C1183.47 472.233 1183.41 471.566 1183.37 470.92L1096.94 557.356C1097.61 557.414 1098.25 557.454 1098.92 557.493L1183.51 472.899Z" fill="#FF9149"/>
<path d="M1025.48 458.591C1025.26 459.493 1025.07 460.414 1024.89 461.316L1087.33 398.87C1086.43 399.047 1085.51 399.243 1084.61 399.458L1025.48 458.591Z" fill="#FF9149"/>
<path d="M1087.59 556.062C1088.18 556.18 1088.79 556.278 1089.39 556.395L1182.39 463.393C1182.3 462.786 1182.18 462.198 1182.06 461.59L1087.59 556.062Z" fill="#FF9149"/>
<path d="M1031.55 441.892C1030.91 443.186 1030.3 444.519 1029.73 445.832L1071.85 403.711C1070.52 404.28 1069.2 404.887 1067.91 405.534L1031.55 441.892Z" fill="#FF9149"/>
<path d="M1023.38 481.974C1023.42 482.641 1023.48 483.307 1023.52 483.954L1109.95 397.518C1109.29 397.459 1108.62 397.42 1107.97 397.381L1023.38 481.974Z" fill="#FF9149"/>
<path d="M1024.5 491.5C1024.6 492.107 1024.71 492.695 1024.83 493.303L1119.3 398.831C1118.71 398.713 1118.11 398.615 1117.5 398.498L1024.5 491.5Z" fill="#FF9149"/>
<path d="M1119.56 556.003C1120.46 555.827 1121.38 555.631 1122.28 555.415L1181.41 496.282C1181.63 495.38 1181.83 494.479 1182 493.558L1119.56 556.003Z" fill="#FF9149"/>
<path d="M1041.18 527.995C1041.49 528.387 1041.82 528.759 1042.16 529.151L1155.15 416.157C1154.76 415.824 1154.39 415.491 1153.99 415.177L1041.18 527.995Z" fill="#FF9149"/>
<path d="M1107.39 557.532C1108.15 557.493 1108.91 557.434 1109.68 557.375L1183.39 483.66C1183.45 482.895 1183.51 482.131 1183.55 481.367L1107.37 557.552L1107.39 557.532Z" fill="#FF9149"/>
<path d="M1175.34 512.981C1175.99 511.688 1176.59 510.355 1177.16 509.042L1135.04 551.162C1136.37 550.594 1137.69 549.986 1138.98 549.339L1175.34 512.981Z" fill="#FF9149"/>
<path d="M1036.67 521.88C1036.94 522.311 1037.26 522.722 1037.55 523.134L1149.15 411.532C1148.74 411.238 1148.33 410.944 1147.9 410.65L1036.69 521.86L1036.67 521.88Z" fill="#FF9149"/>
<path d="M1032.69 515.216C1032.93 515.666 1033.2 516.117 1033.45 516.588L1142.61 407.435C1142.16 407.18 1141.71 406.926 1141.23 406.671L1032.69 515.216Z" fill="#FF9149"/>
<path d="M1026.52 500.124C1026.67 500.673 1026.85 501.202 1027.03 501.731L1127.75 401.007C1127.22 400.83 1126.67 400.654 1126.14 400.497L1026.52 500.124Z" fill="#FF9149"/>
<path d="M1029.28 507.983C1029.48 508.473 1029.71 508.963 1029.93 509.473L1135.49 403.907C1135 403.692 1134.51 403.476 1134 403.261L1029.28 507.983Z" fill="#FF9149"/>
<path d="M1371.02 128.02C1416.49 82.5446 1416.49 8.81485 1371.02 -36.6603C1325.54 -82.1353 1251.82 -82.1354 1206.34 -36.6603C1160.86 8.81484 1160.86 82.5445 1206.34 128.02C1251.82 173.495 1325.54 173.495 1371.02 128.02Z" fill="url(#paint3_radial_271_1910)" fill-opacity="0.3"/>
</g>
</g>
<defs>
<filter id="filter0_d_271_1910" x="-30" y="-26" width="1980" height="537" filterUnits="userSpaceOnUse" color-interpolation-filters="sRGB">
<feFlood flood-opacity="0" result="BackgroundImageFix"/>
<feColorMatrix in="SourceAlpha" type="matrix" values="0 0 0 0 0 0 0 0 0 0 0 0 0 0 0 0 0 0 127 0" result="hardAlpha"/>
<feOffset dy="4"/>
<feGaussianBlur stdDeviation="15"/>
<feComposite in2="hardAlpha" operator="out"/>
<feColorMatrix type="matrix" values="0 0 0 0 0.0862745 0 0 0 0 0.498039 0 0 0 0 0.988235 0 0 0 1 0"/>
<feBlend mode="normal" in2="BackgroundImageFix" result="effect1_dropShadow_271_1910"/>
<feBlend mode="normal" in="SourceGraphic" in2="effect1_dropShadow_271_1910" result="shape"/>
</filter>
<linearGradient id="paint0_linear_271_1910" x1="960" y1="0" x2="960" y2="477" gradientUnits="userSpaceOnUse">
<stop offset="0.729167" stop-color="#01164E"/>
<stop offset="1" stop-color="#092E9C"/>
</linearGradient>
<linearGradient id="paint1_linear_271_1910" x1="-15.5" y1="-669.916" x2="1786.65" y2="199.532" gradientUnits="userSpaceOnUse">
<stop stop-color="#0A30A3"/>
<stop offset="0.563541" stop-color="#001447"/>
</linearGradient>
<radialGradient id="paint2_radial_271_1910" cx="0" cy="0" r="1" gradientUnits="userSpaceOnUse" gradientTransform="translate(1488.07 698.333) rotate(-134.78) scale(1266.56 1266.53)">
<stop stop-color="#5BC7CE"/>
<stop offset="0.11" stop-color="#4198C0"/>
<stop offset="0.23" stop-color="#296BB3"/>
<stop offset="0.34" stop-color="#184AAA"/>
<stop offset="0.43" stop-color="#0D37A5"/>
<stop offset="0.49" stop-color="#0A30A3"/>
<stop offset="1" stop-color="#00152A"/>
</radialGradient>
<radialGradient id="paint3_radial_271_1910" cx="0" cy="0" r="1" gradientUnits="userSpaceOnUse" gradientTransform="translate(1021.33 239.713) rotate(-180) scale(801.052)">
<stop stop-color="#5BC7CE"/>
<stop offset="0.11" stop-color="#4198C0"/>
<stop offset="0.23" stop-color="#296BB3"/>
<stop offset="0.34" stop-color="#184AAA"/>
<stop offset="0.43" stop-color="#0D37A5"/>
<stop offset="0.49" stop-color="#0A30A3"/>
<stop offset="1" stop-color="#00152A"/>
</radialGradient>
<clipPath id="clip0_271_1910">
<rect width="1920" height="477" fill="white"/>
</clipPath>
<clipPath id="clip1_271_1910">
<rect width="1920" height="477" fill="white"/>
</clipPath>
</defs>
</svg>
