<svg width="428" height="1324" viewBox="0 0 428 1324" fill="none" xmlns="http://www.w3.org/2000/svg">
<g clip-path="url(#clip0_276_1279)">
<rect width="428" height="1324" fill="#001447"/>
<path d="M10.4941 28.4062L-0.0644688 31.5192" stroke="#179F0C" stroke-opacity="0.6" stroke-width="8.4" stroke-linecap="round"/>
<path d="M43.1465 -8.76172L7.24721 1.82235" stroke="#1E6AC6" stroke-opacity="0.6" stroke-width="8.4" stroke-linecap="round"/>
<path d="M65.3984 12.2188L29.4992 22.8028" stroke="#1E6AC6" stroke-opacity="0.6" stroke-width="8.4" stroke-linecap="round"/>
<path d="M67.356 3.14692C71.5037 5.37407 73.1136 10.5713 70.9512 14.7554C68.7905 18.9391 63.6753 20.5261 59.5276 18.2989C58.9843 18.0096 58.4455 17.7091 57.915 17.4042C44.8755 9.88515 35.9565 -2.00891 32.0191 -15.3638C28.0818 -28.7187 29.1217 -43.5489 35.9966 -56.9393C36.2768 -57.4832 36.5664 -58.0279 36.8658 -58.5657C44.4849 -72.2819 56.9447 -81.6903 70.9263 -85.8124C84.9095 -89.935 100.479 -88.7903 114.32 -81.4013C114.864 -81.112 115.402 -80.8115 115.933 -80.5066C128.972 -72.9876 137.891 -61.0935 141.829 -47.7386C145.766 -34.3837 144.726 -19.5535 137.851 -6.16316C137.572 -5.61743 137.281 -5.0745 136.982 -4.53673C134.706 -0.415644 129.55 1.02568 125.463 -1.31614C121.378 -3.65849 119.91 -8.89728 122.186 -13.0184C122.409 -13.4212 122.625 -13.826 122.832 -14.2282C127.572 -23.4602 128.282 -33.7041 125.558 -42.9417C122.834 -52.1811 116.679 -60.401 107.691 -65.5837C107.298 -65.8109 106.897 -66.0336 106.492 -66.2493C99.4376 -70.0149 91.6983 -71.4572 84.179 -70.8431L95.0564 -33.9489C96.4024 -29.3836 93.8511 -24.6096 89.359 -23.2853C84.8669 -21.9609 80.1338 -24.5872 78.7878 -29.1525L67.9104 -66.0467C61.2607 -62.4834 55.5416 -57.0732 51.6585 -50.083C51.4357 -49.6802 51.2193 -49.2753 51.0119 -48.8731C46.2721 -39.6412 45.5625 -29.3973 48.286 -20.1597C51.01 -10.9203 57.1634 -2.69983 66.1529 2.48239C66.5459 2.70955 66.9467 2.93045 67.3524 3.14797L67.356 3.14692Z" fill="#1E6AC6" fill-opacity="0.9"/>
<g clip-path="url(#clip1_276_1279)" filter="url(#filter0_d_276_1279)">
<rect width="428" height="1324" fill="#001447"/>
<path d="M56.6195 982.214L-56.786 1095.62C-56.6096 1095.8 -56.4528 1095.99 -56.2764 1096.17C-56.1 1096.35 -55.904 1096.5 -55.7276 1096.68L57.678 983.273C57.5016 983.096 57.3448 982.9 57.1684 982.724C56.992 982.548 56.7959 982.391 56.6195 982.214Z" fill="#FF9149"/>
<path d="M-31.5805 1112.97C-31.0905 1113.18 -30.6005 1113.4 -30.0909 1113.61L74.6319 1008.89C74.4359 1008.4 74.2008 1007.91 73.9852 1007.4L-31.5805 1112.97Z" fill="#FF9149"/>
<path d="M-51.2588 1100.72C-50.8668 1101.05 -50.4943 1101.38 -50.1023 1101.7L62.7152 988.878C62.4016 988.486 62.0684 988.114 61.7352 987.722L-51.2588 1100.72Z" fill="#FF9149"/>
<path d="M-45.2415 1105.34C-44.8299 1105.64 -44.4183 1105.93 -43.9871 1106.22L67.2233 995.013C66.9489 994.582 66.6353 994.17 66.3413 993.759L-45.2611 1105.36L-45.2415 1105.34Z" fill="#FF9149"/>
<path d="M-23.858 1115.87C-23.3288 1116.04 -22.78 1116.22 -22.2508 1116.38L77.376 1016.75C77.2192 1016.2 77.0428 1015.67 76.8664 1015.14L-23.858 1115.87Z" fill="#FF9149"/>
<path d="M-38.6951 1109.44C-38.2443 1109.69 -37.7936 1109.95 -37.3232 1110.2L71.2216 1001.66C70.9668 1001.21 70.712 1000.76 70.4572 1000.29L-38.6951 1109.44Z" fill="#FF9149"/>
<path d="M-3.47398 959.322C-4.23838 959.361 -5.00276 959.42 -5.76716 959.478L-79.4828 1033.19C-79.5416 1033.96 -79.6004 1034.72 -79.6396 1035.49L-3.45437 959.302L-3.47398 959.322Z" fill="#FF9149"/>
<path d="M80.512 1034.9C80.4728 1034.23 80.4141 1033.57 80.3749 1032.92L-6.06116 1119.36C-5.39476 1119.41 -4.74794 1119.45 -4.08154 1119.49L80.512 1034.9Z" fill="#FF9149"/>
<path d="M-77.5229 1020.59C-77.7385 1021.49 -77.9345 1022.41 -78.1109 1023.32L-15.6652 960.87C-16.5668 961.047 -17.488 961.243 -18.3896 961.458L-77.5229 1020.59Z" fill="#FF9149"/>
<path d="M-15.4104 1118.06C-14.8224 1118.18 -14.2147 1118.28 -13.6071 1118.4L79.3949 1025.39C79.2969 1024.79 79.1792 1024.2 79.0616 1023.59L-15.4104 1118.06Z" fill="#FF9149"/>
<path d="M-71.4468 1003.89C-72.0936 1005.19 -72.7012 1006.52 -73.2696 1007.83L-31.1492 965.711C-32.482 966.28 -33.7952 966.887 -35.0888 967.534L-71.4468 1003.89Z" fill="#FF9149"/>
<path d="M-79.6199 1043.97C-79.5807 1044.64 -79.5221 1045.31 -79.4829 1045.95L6.95321 959.518C6.28681 959.459 5.6204 959.42 4.9736 959.381L-79.6199 1043.97Z" fill="#FF9149"/>
<path d="M-78.5028 1053.5C-78.4048 1054.11 -78.2871 1054.7 -78.1695 1055.3L16.3025 960.831C15.7145 960.713 15.1068 960.615 14.4992 960.498L-78.5028 1053.5Z" fill="#FF9149"/>
<path d="M16.5572 1118C17.4588 1117.83 18.38 1117.63 19.2816 1117.42L78.4149 1058.28C78.6305 1057.38 78.8265 1056.48 79.0029 1055.56L16.5572 1118Z" fill="#FF9149"/>
<path d="M-61.8233 1089.99C-61.5097 1090.39 -61.1765 1090.76 -60.8433 1091.15L52.1508 978.157C51.7588 977.824 51.3863 977.491 50.9943 977.177L-61.8233 1089.99Z" fill="#FF9149"/>
<path d="M4.38565 1119.53C5.15005 1119.49 5.91441 1119.43 6.67881 1119.38L80.3944 1045.66C80.4532 1044.9 80.512 1044.13 80.5512 1043.37L4.36603 1119.55L4.38565 1119.53Z" fill="#FF9149"/>
<path d="M72.3388 1074.98C72.9856 1073.69 73.5932 1072.35 74.1616 1071.04L32.0412 1113.16C33.374 1112.59 34.6872 1111.99 35.9808 1111.34L72.3388 1074.98Z" fill="#FF9149"/>
<path d="M-66.3312 1083.88C-66.0568 1084.31 -65.7431 1084.72 -65.4491 1085.13L46.1533 973.532C45.7417 973.238 45.33 972.944 44.8988 972.65L-66.3116 1083.86L-66.3312 1083.88Z" fill="#FF9149"/>
<path d="M-70.31 1077.22C-70.0748 1077.67 -69.8005 1078.12 -69.5457 1078.59L39.6068 969.435C39.156 969.18 38.7052 968.926 38.2348 968.671L-70.31 1077.22Z" fill="#FF9149"/>
<path d="M-76.4841 1062.12C-76.3273 1062.67 -76.1508 1063.2 -75.9744 1063.73L24.75 963.007C24.2208 962.83 23.672 962.654 23.1428 962.497L-76.4841 1062.12Z" fill="#FF9149"/>
<path d="M-73.7205 1069.98C-73.5245 1070.47 -73.2893 1070.96 -73.0737 1071.47L32.4919 965.907C32.0019 965.692 31.512 965.476 31.0024 965.261L-73.7205 1069.98Z" fill="#FF9149"/>
<path d="M518.02 111.02C563.495 65.5446 563.495 -8.18515 518.02 -53.6603C472.545 -99.1353 398.815 -99.1354 353.34 -53.6603C307.865 -8.18516 307.865 65.5445 353.34 111.02C398.815 156.495 472.545 156.495 518.02 111.02Z" fill="url(#paint0_radial_276_1279)" fill-opacity="0.3"/>
</g>
</g>
<defs>
<filter id="filter0_d_276_1279" x="-30" y="-26" width="488" height="1384" filterUnits="userSpaceOnUse" color-interpolation-filters="sRGB">
<feFlood flood-opacity="0" result="BackgroundImageFix"/>
<feColorMatrix in="SourceAlpha" type="matrix" values="0 0 0 0 0 0 0 0 0 0 0 0 0 0 0 0 0 0 127 0" result="hardAlpha"/>
<feOffset dy="4"/>
<feGaussianBlur stdDeviation="15"/>
<feComposite in2="hardAlpha" operator="out"/>
<feColorMatrix type="matrix" values="0 0 0 0 0.0862745 0 0 0 0 0.498039 0 0 0 0 0.988235 0 0 0 1 0"/>
<feBlend mode="normal" in2="BackgroundImageFix" result="effect1_dropShadow_276_1279"/>
<feBlend mode="normal" in="SourceGraphic" in2="effect1_dropShadow_276_1279" result="shape"/>
</filter>
<radialGradient id="paint0_radial_276_1279" cx="0" cy="0" r="1" gradientUnits="userSpaceOnUse" gradientTransform="translate(168.331 222.713) rotate(-180) scale(801.052)">
<stop stop-color="#5BC7CE"/>
<stop offset="0.11" stop-color="#4198C0"/>
<stop offset="0.23" stop-color="#296BB3"/>
<stop offset="0.34" stop-color="#184AAA"/>
<stop offset="0.43" stop-color="#0D37A5"/>
<stop offset="0.49" stop-color="#0A30A3"/>
<stop offset="1" stop-color="#00152A"/>
</radialGradient>
<clipPath id="clip0_276_1279">
<rect width="428" height="1324" fill="white"/>
</clipPath>
<clipPath id="clip1_276_1279">
<rect width="428" height="1324" fill="white"/>
</clipPath>
</defs>
</svg>
