<svg width="968" height="770" viewBox="0 0 968 770" fill="none" xmlns="http://www.w3.org/2000/svg">
<g clip-path="url(#clip0_273_5198)">
<rect width="968" height="770" fill="#001447"/>
<g clip-path="url(#clip1_273_5198)" filter="url(#filter0_d_273_5198)">
<rect width="968" height="1097" transform="translate(0 -2)" fill="#001447"/>
<path d="M80.6195 769.214L-32.786 882.62C-32.6096 882.797 -32.4528 882.993 -32.2764 883.169C-32.1 883.345 -31.904 883.502 -31.7276 883.678L81.678 770.273C81.5016 770.096 81.3448 769.9 81.1684 769.724C80.992 769.548 80.7959 769.391 80.6195 769.214Z" fill="#FF9149"/>
<path d="M-7.58048 899.966C-7.09048 900.182 -6.60046 900.397 -6.09086 900.613L98.6319 795.89C98.4359 795.4 98.2008 794.91 97.9852 794.401L-7.58048 899.966Z" fill="#FF9149"/>
<path d="M-27.2588 887.716C-26.8668 888.049 -26.4943 888.382 -26.1023 888.696L86.7152 775.878C86.4016 775.486 86.0684 775.114 85.7352 774.722L-27.2588 887.716Z" fill="#FF9149"/>
<path d="M-21.2415 892.342C-20.8299 892.636 -20.4183 892.93 -19.9871 893.224L91.2233 782.013C90.9489 781.582 90.6353 781.17 90.3413 780.759L-21.2611 892.361L-21.2415 892.342Z" fill="#FF9149"/>
<path d="M0.141964 902.867C0.671164 903.043 1.21998 903.22 1.74918 903.377L101.376 803.75C101.219 803.201 101.043 802.672 100.866 802.142L0.141964 902.867Z" fill="#FF9149"/>
<path d="M-14.6951 896.438C-14.2443 896.693 -13.7936 896.948 -13.3232 897.202L95.2216 788.658C94.9668 788.207 94.712 787.756 94.4572 787.286L-14.6951 896.438Z" fill="#FF9149"/>
<path d="M20.526 746.322C19.7616 746.361 18.9972 746.42 18.2328 746.478L-55.4828 820.194C-55.5416 820.959 -55.6004 821.723 -55.6396 822.487L20.5456 746.302L20.526 746.322Z" fill="#FF9149"/>
<path d="M104.512 821.899C104.473 821.233 104.414 820.566 104.375 819.92L17.9388 906.356C18.6052 906.414 19.2521 906.454 19.9185 906.493L104.512 821.899Z" fill="#FF9149"/>
<path d="M-53.5229 807.591C-53.7385 808.493 -53.9345 809.414 -54.1109 810.316L8.33482 747.87C7.43322 748.047 6.512 748.243 5.6104 748.458L-53.5229 807.591Z" fill="#FF9149"/>
<path d="M8.58959 905.062C9.17759 905.18 9.78528 905.278 10.3929 905.395L103.395 812.393C103.297 811.786 103.179 811.198 103.062 810.59L8.58959 905.062Z" fill="#FF9149"/>
<path d="M-47.4468 790.892C-48.0936 792.186 -48.7012 793.519 -49.2696 794.832L-7.14918 752.711C-8.48198 753.28 -9.7952 753.887 -11.0888 754.534L-47.4468 790.892Z" fill="#FF9149"/>
<path d="M-55.6199 830.974C-55.5807 831.641 -55.5221 832.307 -55.4829 832.954L30.9532 746.518C30.2868 746.459 29.6204 746.42 28.9736 746.381L-55.6199 830.974Z" fill="#FF9149"/>
<path d="M-54.5028 840.5C-54.4048 841.107 -54.2871 841.695 -54.1695 842.303L40.3025 747.831C39.7145 747.713 39.1068 747.615 38.4992 747.498L-54.5028 840.5Z" fill="#FF9149"/>
<path d="M40.5572 905.003C41.4588 904.827 42.38 904.631 43.2816 904.415L102.415 845.282C102.631 844.38 102.826 843.479 103.003 842.558L40.5572 905.003Z" fill="#FF9149"/>
<path d="M-37.8233 876.995C-37.5097 877.387 -37.1765 877.759 -36.8433 878.151L76.1508 765.157C75.7588 764.824 75.3863 764.491 74.9943 764.177L-37.8233 876.995Z" fill="#FF9149"/>
<path d="M28.3857 906.532C29.1501 906.493 29.9144 906.434 30.6788 906.375L104.394 832.66C104.453 831.895 104.512 831.131 104.551 830.367L28.366 906.552L28.3857 906.532Z" fill="#FF9149"/>
<path d="M96.3388 861.981C96.9856 860.688 97.5932 859.355 98.1616 858.042L56.0412 900.162C57.374 899.594 58.6872 898.986 59.9808 898.339L96.3388 861.981Z" fill="#FF9149"/>
<path d="M-42.3312 870.88C-42.0568 871.311 -41.7431 871.722 -41.4491 872.134L70.1533 760.532C69.7417 760.238 69.33 759.944 68.8988 759.65L-42.3116 870.86L-42.3312 870.88Z" fill="#FF9149"/>
<path d="M-46.31 864.216C-46.0748 864.666 -45.8005 865.117 -45.5457 865.588L63.6068 756.435C63.156 756.18 62.7052 755.926 62.2348 755.671L-46.31 864.216Z" fill="#FF9149"/>
<path d="M-52.4841 849.124C-52.3273 849.673 -52.1508 850.202 -51.9744 850.731L48.75 750.007C48.2208 749.83 47.672 749.654 47.1428 749.497L-52.4841 849.124Z" fill="#FF9149"/>
<path d="M-49.7205 856.983C-49.5245 857.473 -49.2893 857.963 -49.0737 858.473L56.4919 752.907C56.0019 752.692 55.512 752.476 55.0024 752.261L-49.7205 856.983Z" fill="#FF9149"/>
<path d="M840.02 109.02C885.495 63.5445 885.495 -10.1852 840.02 -55.6603C794.545 -101.135 720.815 -101.135 675.34 -55.6603C629.865 -10.1852 629.865 63.5445 675.34 109.02C720.815 154.495 794.545 154.495 840.02 109.02Z" fill="url(#paint0_radial_273_5198)" fill-opacity="0.3"/>
</g>
</g>
<defs>
<filter id="filter0_d_273_5198" x="-30" y="-28" width="1028" height="1157" filterUnits="userSpaceOnUse" color-interpolation-filters="sRGB">
<feFlood flood-opacity="0" result="BackgroundImageFix"/>
<feColorMatrix in="SourceAlpha" type="matrix" values="0 0 0 0 0 0 0 0 0 0 0 0 0 0 0 0 0 0 127 0" result="hardAlpha"/>
<feOffset dy="4"/>
<feGaussianBlur stdDeviation="15"/>
<feComposite in2="hardAlpha" operator="out"/>
<feColorMatrix type="matrix" values="0 0 0 0 0.0862745 0 0 0 0 0.498039 0 0 0 0 0.988235 0 0 0 1 0"/>
<feBlend mode="normal" in2="BackgroundImageFix" result="effect1_dropShadow_273_5198"/>
<feBlend mode="normal" in="SourceGraphic" in2="effect1_dropShadow_273_5198" result="shape"/>
</filter>
<radialGradient id="paint0_radial_273_5198" cx="0" cy="0" r="1" gradientUnits="userSpaceOnUse" gradientTransform="translate(490.331 220.713) rotate(-180) scale(801.052)">
<stop stop-color="#5BC7CE"/>
<stop offset="0.11" stop-color="#4198C0"/>
<stop offset="0.23" stop-color="#296BB3"/>
<stop offset="0.34" stop-color="#184AAA"/>
<stop offset="0.43" stop-color="#0D37A5"/>
<stop offset="0.49" stop-color="#0A30A3"/>
<stop offset="1" stop-color="#00152A"/>
</radialGradient>
<clipPath id="clip0_273_5198">
<rect width="968" height="770" fill="white"/>
</clipPath>
<clipPath id="clip1_273_5198">
<rect width="968" height="1097" fill="white" transform="translate(0 -2)"/>
</clipPath>
</defs>
</svg>
