<svg width="1440" height="475" viewBox="0 0 1440 475" fill="none" xmlns="http://www.w3.org/2000/svg">
<g clip-path="url(#clip0_273_3286)">
<rect width="1440" height="475" fill="#001447"/>
<rect x="-1" y="-687" width="1441" height="688" fill="url(#paint0_linear_273_3286)"/>
<g opacity="0.6">
<path d="M119.246 37.6445L108.425 40.8348" stroke="#179F0C" stroke-opacity="0.6" stroke-width="8.4" stroke-linecap="round"/>
<path d="M98.604 15.5039L95.5123 16.4154" stroke="#179F0C" stroke-opacity="0.6" stroke-width="8.4" stroke-linecap="round"/>
<path d="M152.708 -0.449219L115.918 10.3977" stroke="#1E6AC6" stroke-opacity="0.6" stroke-width="8.4" stroke-linecap="round"/>
<path d="M175.514 21.0547L138.723 31.9016" stroke="#1E6AC6" stroke-opacity="0.6" stroke-width="8.4" stroke-linecap="round"/>
<path d="M177.52 11.7591C181.77 14.0416 183.42 19.3679 181.204 23.656C178.99 27.9435 173.748 29.5699 169.497 27.2874C168.94 26.9909 168.388 26.683 167.844 26.3705C154.481 18.6647 145.34 6.4752 141.305 -7.2114C137.27 -20.898 138.336 -36.0966 145.381 -49.8195C145.669 -50.3769 145.965 -50.9352 146.272 -51.4863C154.081 -65.5432 166.85 -75.1853 181.179 -79.4098C195.509 -83.6348 211.465 -82.4617 225.65 -74.8891C226.207 -74.5926 226.759 -74.2847 227.303 -73.9722C240.666 -66.2664 249.807 -54.0769 253.842 -40.3903C257.877 -26.7037 256.811 -11.5051 249.766 2.21778C249.479 2.77706 249.182 3.33347 248.875 3.8846C246.542 8.10805 241.258 9.58517 237.07 7.18518C232.884 4.78465 231.379 -0.584258 233.711 -4.80771C233.94 -5.22051 234.161 -5.63541 234.374 -6.04762C239.231 -15.5089 239.959 -26.0072 237.168 -35.4742C234.376 -44.9431 228.068 -53.3672 218.857 -58.6787C218.454 -58.9115 218.043 -59.1397 217.628 -59.3608C210.398 -63.2199 202.467 -64.698 194.761 -64.0687L205.908 -26.2581C207.288 -21.5794 204.673 -16.6869 200.069 -15.3296C195.466 -13.9723 190.615 -16.6638 189.235 -21.3425L178.088 -59.1531C171.273 -55.5013 165.412 -49.9567 161.432 -42.7929C161.204 -42.3801 160.982 -41.9652 160.77 -41.553C155.912 -32.0918 155.185 -21.5935 157.976 -12.1264C160.768 -2.65751 167.074 5.76713 176.287 11.0781C176.689 11.3109 177.1 11.5373 177.516 11.7602L177.52 11.7591Z" fill="#1E6AC6" fill-opacity="0.9"/>
</g>
<g clip-path="url(#clip1_273_3286)" filter="url(#filter0_d_273_3286)">
<rect width="1440" height="477" transform="translate(0 1)" fill="#001447"/>
<path opacity="0.36" d="M1757.93 244.383C1774.33 260.893 1774.33 287.662 1757.93 304.153L1422.63 641.617C1406.23 658.128 1379.64 658.128 1363.24 641.617C1346.84 625.107 1346.84 598.338 1363.24 581.847L1698.53 244.383C1714.93 227.872 1741.53 227.872 1757.91 244.383H1757.93Z" fill="url(#paint1_radial_273_3286)"/>
<path d="M946.277 421.214L832.792 534.62C832.969 534.797 833.126 534.993 833.302 535.169C833.479 535.345 833.675 535.502 833.852 535.678L947.336 422.273C947.16 422.096 947.003 421.9 946.826 421.724C946.65 421.548 946.453 421.391 946.277 421.214Z" fill="#FF9149"/>
<path d="M858.016 551.966C858.506 552.182 858.996 552.397 859.506 552.613L964.302 447.89C964.106 447.4 963.87 446.91 963.655 446.401L858.016 551.966Z" fill="#FF9149"/>
<path d="M838.324 539.716C838.716 540.049 839.089 540.382 839.481 540.696L952.377 427.878C952.063 427.486 951.73 427.114 951.396 426.722L838.324 539.716Z" fill="#FF9149"/>
<path d="M844.345 544.342C844.757 544.636 845.169 544.93 845.6 545.224L956.888 434.013C956.613 433.582 956.3 433.17 956.005 432.759L844.325 544.361L844.345 544.342Z" fill="#FF9149"/>
<path d="M865.743 554.867C866.273 555.043 866.822 555.22 867.352 555.377L967.048 455.75C966.891 455.201 966.714 454.672 966.538 454.142L865.743 554.867Z" fill="#FF9149"/>
<path d="M850.896 548.438C851.347 548.693 851.798 548.948 852.269 549.202L960.889 440.658C960.634 440.207 960.379 439.756 960.124 439.286L850.896 548.438Z" fill="#FF9149"/>
<path d="M886.142 398.322C885.377 398.361 884.612 398.42 883.847 398.478L810.08 472.194C810.021 472.959 809.962 473.723 809.923 474.487L886.161 398.302L886.142 398.322Z" fill="#FF9149"/>
<path d="M970.186 473.899C970.147 473.233 970.088 472.566 970.049 471.92L883.553 558.356C884.219 558.414 884.867 558.454 885.534 558.493L970.186 473.899Z" fill="#FF9149"/>
<path d="M812.041 459.591C811.825 460.493 811.629 461.414 811.453 462.316L873.942 399.87C873.04 400.047 872.118 400.243 871.216 400.458L812.041 459.591Z" fill="#FF9149"/>
<path d="M874.197 557.062C874.785 557.18 875.393 557.278 876.001 557.395L969.068 464.393C968.97 463.786 968.852 463.198 968.734 462.59L874.197 557.062Z" fill="#FF9149"/>
<path d="M818.122 442.892C817.474 444.186 816.866 445.519 816.297 446.832L858.447 404.711C857.113 405.28 855.799 405.887 854.505 406.534L818.122 442.892Z" fill="#FF9149"/>
<path d="M809.943 482.974C809.982 483.641 810.041 484.307 810.08 484.954L896.576 398.518C895.909 398.459 895.242 398.42 894.595 398.381L809.943 482.974Z" fill="#FF9149"/>
<path d="M811.061 492.5C811.159 493.107 811.276 493.695 811.394 494.303L905.932 399.831C905.343 399.713 904.735 399.615 904.127 399.498L811.061 492.5Z" fill="#FF9149"/>
<path d="M906.187 557.003C907.089 556.827 908.011 556.631 908.913 556.415L968.087 497.282C968.303 496.38 968.499 495.479 968.676 494.558L906.187 557.003Z" fill="#FF9149"/>
<path d="M827.752 528.995C828.066 529.387 828.399 529.759 828.732 530.151L941.805 417.157C941.413 416.824 941.04 416.491 940.648 416.177L827.752 528.995Z" fill="#FF9149"/>
<path d="M894.007 558.532C894.772 558.493 895.536 558.434 896.301 558.375L970.068 484.66C970.127 483.895 970.186 483.131 970.225 482.367L893.987 558.552L894.007 558.532Z" fill="#FF9149"/>
<path d="M962.007 513.981C962.654 512.688 963.262 511.355 963.831 510.042L921.681 552.162C923.015 551.594 924.329 550.986 925.624 550.339L962.007 513.981Z" fill="#FF9149"/>
<path d="M823.241 522.88C823.515 523.311 823.829 523.722 824.123 524.134L935.803 412.532C935.391 412.238 934.979 411.944 934.548 411.65L823.26 522.86L823.241 522.88Z" fill="#FF9149"/>
<path d="M819.259 516.216C819.494 516.666 819.769 517.117 820.024 517.588L929.252 408.435C928.801 408.18 928.35 407.926 927.879 407.671L819.259 516.216Z" fill="#FF9149"/>
<path d="M813.081 501.124C813.238 501.673 813.414 502.202 813.591 502.731L914.385 402.007C913.856 401.83 913.306 401.654 912.777 401.497L813.081 501.124Z" fill="#FF9149"/>
<path d="M815.846 508.983C816.042 509.473 816.278 509.963 816.494 510.473L922.132 404.907C921.642 404.692 921.152 404.476 920.642 404.261L815.846 508.983Z" fill="#FF9149"/>
<path d="M1157.82 129.02C1203.33 83.5446 1203.33 9.81484 1157.82 -35.6603C1112.32 -81.1354 1038.54 -81.1354 993.029 -35.6603C947.523 9.81484 947.523 83.5445 993.029 129.02C1038.54 174.495 1112.32 174.495 1157.82 129.02Z" fill="url(#paint2_radial_273_3286)" fill-opacity="0.3"/>
</g>
</g>
<defs>
<filter id="filter0_d_273_3286" x="-30" y="-25" width="1500" height="537" filterUnits="userSpaceOnUse" color-interpolation-filters="sRGB">
<feFlood flood-opacity="0" result="BackgroundImageFix"/>
<feColorMatrix in="SourceAlpha" type="matrix" values="0 0 0 0 0 0 0 0 0 0 0 0 0 0 0 0 0 0 127 0" result="hardAlpha"/>
<feOffset dy="4"/>
<feGaussianBlur stdDeviation="15"/>
<feComposite in2="hardAlpha" operator="out"/>
<feColorMatrix type="matrix" values="0 0 0 0 0.0862745 0 0 0 0 0.498039 0 0 0 0 0.988235 0 0 0 1 0"/>
<feBlend mode="normal" in2="BackgroundImageFix" result="effect1_dropShadow_273_3286"/>
<feBlend mode="normal" in="SourceGraphic" in2="effect1_dropShadow_273_3286" result="shape"/>
</filter>
<linearGradient id="paint0_linear_273_3286" x1="-12.6331" y1="-671.916" x2="1461.47" y2="-138.16" gradientUnits="userSpaceOnUse">
<stop stop-color="#0A30A3"/>
<stop offset="0.563541" stop-color="#001447"/>
</linearGradient>
<radialGradient id="paint1_radial_273_3286" cx="0" cy="0" r="1" gradientUnits="userSpaceOnUse" gradientTransform="translate(1274.95 699.333) rotate(-134.8) scale(1267 1266.97)">
<stop stop-color="#5BC7CE"/>
<stop offset="0.11" stop-color="#4198C0"/>
<stop offset="0.23" stop-color="#296BB3"/>
<stop offset="0.34" stop-color="#184AAA"/>
<stop offset="0.43" stop-color="#0D37A5"/>
<stop offset="0.49" stop-color="#0A30A3"/>
<stop offset="1" stop-color="#00152A"/>
</radialGradient>
<radialGradient id="paint2_radial_273_3286" cx="0" cy="0" r="1" gradientUnits="userSpaceOnUse" gradientTransform="translate(807.892 240.713) rotate(-180) scale(801.608 801.052)">
<stop stop-color="#5BC7CE"/>
<stop offset="0.11" stop-color="#4198C0"/>
<stop offset="0.23" stop-color="#296BB3"/>
<stop offset="0.34" stop-color="#184AAA"/>
<stop offset="0.43" stop-color="#0D37A5"/>
<stop offset="0.49" stop-color="#0A30A3"/>
<stop offset="1" stop-color="#00152A"/>
</radialGradient>
<clipPath id="clip0_273_3286">
<rect width="1440" height="475" fill="white"/>
</clipPath>
<clipPath id="clip1_273_3286">
<rect width="1440" height="477" fill="white" transform="translate(0 1)"/>
</clipPath>
</defs>
</svg>
