<svg width="136" height="40" viewBox="0 0 136 40" fill="none" xmlns="http://www.w3.org/2000/svg">
<g clip-path="url(#clip0_1696_12076)">
<path d="M131.161 40H4.76403C2.13772 40 0 37.872 0 35.267V4.726C0 2.12 2.13772 0 4.76403 0H131.161C133.787 0 136 2.12 136 4.726V35.267C136 37.872 133.787 40 131.161 40Z" fill="url(#paint0_linear_1696_12076)"/>
<path d="M135 35.1909C135 37.2953 133.275 39 131.141 39H4.86374C2.73108 39 1 37.2953 1 35.1909V4.81412C1 2.71064 2.73108 1 4.86374 1H131.14C133.275 1 134.999 2.71064 134.999 4.81412L135 35.1909Z" fill="#5489CA"/>
<path d="M39.8416 20.6553C39.8201 18.2678 41.7964 17.1064 41.8867 17.0523C40.7675 15.4204 39.0327 15.1975 38.423 15.1797C36.966 15.0264 35.5527 16.0515 34.8104 16.0515C34.0534 16.0515 32.9104 15.1945 31.6786 15.2197C30.0934 15.2441 28.6104 16.1619 27.7971 17.5871C26.1186 20.493 27.3704 24.7634 28.9786 27.1123C29.783 28.2627 30.723 29.5471 31.9534 29.5019C33.1571 29.4523 33.6067 28.7345 35.0593 28.7345C36.4986 28.7345 36.9208 29.5019 38.1756 29.473C39.4675 29.4523 40.2808 28.3175 41.0571 27.1567C41.9867 25.8382 42.3601 24.5397 42.3749 24.473C42.3445 24.4627 39.866 23.5167 39.8416 20.6553Z" fill="white"/>
<path d="M37.4714 13.6344C38.1188 12.8247 38.5618 11.7232 38.4388 10.6055C37.5018 10.647 36.33 11.2536 35.6551 12.0455C35.0581 12.7432 34.5248 13.887 34.6625 14.9625C35.7151 15.041 36.7959 14.4314 37.4714 13.6344Z" fill="white"/>
<path d="M57.2597 27.3363H55.5775L54.656 24.4407H51.4531L50.5753 27.3363H48.9375L52.1108 17.4785H54.0708L57.2597 27.3363ZM54.3782 23.2259L53.5449 20.6518C53.4568 20.3889 53.2916 19.7696 53.0479 18.7948H53.0182C52.9212 19.2141 52.7649 19.8333 52.5501 20.6518L51.7316 23.2259H54.3782Z" fill="white"/>
<path d="M65.4194 23.6946C65.4194 24.9035 65.0927 25.8591 64.4394 26.5606C63.8542 27.185 63.1276 27.4968 62.2601 27.4968C61.3238 27.4968 60.6513 27.1605 60.2416 26.488H60.212V30.2324H58.6327V22.568C58.6327 21.808 58.6127 21.028 58.5742 20.228H59.9631L60.0513 21.3546H60.0809C60.6076 20.5057 61.4068 20.082 62.4794 20.082C63.3179 20.082 64.0179 20.4131 64.5779 21.0761C65.1394 21.7398 65.4194 22.6124 65.4194 23.6946ZM63.8105 23.7524C63.8105 23.0605 63.655 22.4902 63.3424 22.0413C63.0009 21.5731 62.5424 21.3391 61.9676 21.3391C61.5779 21.3391 61.2238 21.4694 60.9076 21.7265C60.5905 21.9857 60.3831 22.3243 60.2861 22.7435C60.2372 22.9391 60.2127 23.0991 60.2127 23.225V24.4102C60.2127 24.9272 60.3713 25.3635 60.6883 25.7198C61.0053 26.0761 61.4172 26.2539 61.9238 26.2539C62.5187 26.2539 62.9816 26.0243 63.3127 25.5665C63.6446 25.108 63.8105 24.5035 63.8105 23.7524Z" fill="white"/>
<path d="M73.5944 23.6946C73.5944 24.9035 73.2678 25.8591 72.6137 26.5606C72.0293 27.185 71.3026 27.4968 70.4352 27.4968C69.4989 27.4968 68.8263 27.1605 68.4174 26.488H68.3878V30.2324H66.8085V22.568C66.8085 21.808 66.7885 21.028 66.75 20.228H68.1389L68.227 21.3546H68.2567C68.7826 20.5057 69.5819 20.082 70.6552 20.082C71.493 20.082 72.193 20.4131 72.7544 21.0761C73.3137 21.7398 73.5944 22.6124 73.5944 23.6946ZM71.9856 23.7524C71.9856 23.0605 71.8293 22.4902 71.5167 22.0413C71.1752 21.5731 70.7181 21.3391 70.1426 21.3391C69.7522 21.3391 69.3989 21.4694 69.0819 21.7265C68.7648 21.9857 68.5581 22.3243 68.4611 22.7435C68.413 22.9391 68.3878 23.0991 68.3878 23.225V24.4102C68.3878 24.9272 68.5463 25.3635 68.8619 25.7198C69.1789 26.0754 69.5907 26.2539 70.0989 26.2539C70.6937 26.2539 71.1567 26.0243 71.4878 25.5665C71.8196 25.108 71.9856 24.5035 71.9856 23.7524Z" fill="white"/>
<path d="M82.7367 24.5718C82.7367 25.4103 82.4455 26.0925 81.8611 26.6192C81.2189 27.1947 80.3248 27.4821 79.1759 27.4821C78.1152 27.4821 77.2648 27.2777 76.6211 26.8681L76.987 25.5518C77.6804 25.971 78.4411 26.1814 79.27 26.1814C79.8648 26.1814 80.3278 26.0466 80.6604 25.7784C80.9915 25.5103 81.1567 25.1503 81.1567 24.7014C81.1567 24.3014 81.0204 23.9644 80.747 23.691C80.4752 23.4177 80.0211 23.1636 79.387 22.9288C77.6611 22.2851 76.7989 21.3421 76.7989 20.1021C76.7989 19.2918 77.1011 18.6273 77.7063 18.1103C78.3092 17.5925 79.1137 17.334 80.1196 17.334C81.0166 17.334 81.7618 17.4903 82.3567 17.8021L81.9618 19.0895C81.4063 18.7873 80.7781 18.6362 80.0752 18.6362C79.5196 18.6362 79.0855 18.7732 78.7744 19.0458C78.5115 19.2895 78.3796 19.5866 78.3796 19.9384C78.3796 20.3281 78.53 20.6503 78.8322 20.9036C79.0952 21.1377 79.5729 21.391 80.2663 21.6644C81.1144 22.0058 81.7374 22.4051 82.1381 22.8629C82.5374 23.3192 82.7367 23.8903 82.7367 24.5718Z" fill="white"/>
<path d="M87.9617 21.4133H86.221V24.8644C86.221 25.7422 86.5276 26.1807 87.1424 26.1807C87.4247 26.1807 87.6587 26.1563 87.8439 26.1074L87.8876 27.3067C87.5765 27.423 87.1669 27.4815 86.6595 27.4815C86.0358 27.4815 85.5484 27.2911 85.1965 26.9111C84.8461 26.5304 84.6698 25.8918 84.6698 24.9948V21.4118H83.6328V20.2267H84.6698V18.9252L86.221 18.457V20.2267H87.9617V21.4133Z" fill="white"/>
<path d="M95.8138 23.7228C95.8138 24.8154 95.5012 25.7124 94.8775 26.4139C94.2234 27.1361 93.3553 27.4961 92.273 27.4961C91.2301 27.4961 90.3997 27.1502 89.7804 26.4583C89.1612 25.7665 88.8516 24.8931 88.8516 23.8405C88.8516 22.7391 89.1701 21.8368 89.8093 21.1354C90.4471 20.4331 91.3079 20.082 92.3901 20.082C93.433 20.082 94.2723 20.428 94.9056 21.1206C95.5116 21.7924 95.8138 22.6598 95.8138 23.7228ZM94.1753 23.7739C94.1753 23.1183 94.0353 22.5561 93.7516 22.0872C93.4204 21.5198 92.9471 21.2368 92.3338 21.2368C91.699 21.2368 91.2167 21.5206 90.8856 22.0872C90.6019 22.5568 90.4619 23.128 90.4619 23.8035C90.4619 24.4591 90.6019 25.0213 90.8856 25.4894C91.2271 26.0568 91.7042 26.3398 92.3197 26.3398C92.9227 26.3398 93.396 26.0509 93.7375 25.4746C94.0286 24.9968 94.1753 24.4287 94.1753 23.7739Z" fill="white"/>
<path d="M100.944 21.6168C100.787 21.588 100.621 21.5731 100.446 21.5731C99.8903 21.5731 99.4606 21.7828 99.1584 22.2028C98.8954 22.5731 98.7636 23.0413 98.7636 23.6065V27.3361H97.1851L97.1999 22.4665C97.1999 21.6472 97.1799 20.9013 97.1406 20.2287H98.5162L98.574 21.5887H98.6177C98.7843 21.1213 99.0473 20.745 99.4073 20.4628C99.7591 20.2087 100.139 20.082 100.549 20.082C100.695 20.082 100.827 20.0924 100.944 20.1109V21.6168Z" fill="white"/>
<path d="M108.008 23.4473C108.008 23.7303 107.99 23.9688 107.951 24.1636H103.213C103.231 24.8659 103.46 25.4029 103.9 25.7733C104.3 26.1044 104.816 26.2703 105.45 26.2703C106.151 26.2703 106.791 26.1585 107.367 25.934L107.614 27.0303C106.942 27.3236 106.148 27.4696 105.231 27.4696C104.129 27.4696 103.264 27.1451 102.634 26.497C102.006 25.8488 101.691 24.9785 101.691 23.8866C101.691 22.8148 101.984 21.9222 102.57 21.2103C103.183 20.4503 104.012 20.0703 105.055 20.0703C106.08 20.0703 106.855 20.4503 107.382 21.2103C107.799 21.814 108.008 22.5607 108.008 23.4473ZM106.503 23.0377C106.513 22.5696 106.41 22.1651 106.196 21.8236C105.923 21.3844 105.503 21.1651 104.937 21.1651C104.421 21.1651 104.001 21.3792 103.68 21.8088C103.417 22.1503 103.261 22.5599 103.213 23.037L106.503 23.0377Z" fill="white"/>
<path d="M53.8557 11.4133C53.8557 12.2851 53.5943 12.9414 53.072 13.3822C52.5883 13.7888 51.9009 13.9925 51.0106 13.9925C50.5691 13.9925 50.1913 13.9733 49.875 13.9348V9.17105C50.2876 9.10439 50.732 9.07031 51.212 9.07031C52.0602 9.07031 52.6994 9.25476 53.1306 9.62365C53.6135 10.0407 53.8557 10.637 53.8557 11.4133ZM53.0372 11.4348C53.0372 10.8696 52.8876 10.4362 52.5883 10.134C52.2891 9.83253 51.852 9.68142 51.2765 9.68142C51.032 9.68142 50.8239 9.69772 50.6513 9.73179V13.3533C50.7469 13.3681 50.9217 13.3748 51.1757 13.3748C51.7698 13.3748 52.2283 13.2096 52.5513 12.8792C52.8743 12.5488 53.0372 12.0673 53.0372 11.4348Z" fill="white"/>
<path d="M58.1973 12.1749C58.1973 12.7119 58.044 13.1519 57.7373 13.4971C57.4159 13.8519 56.9899 14.0289 56.4581 14.0289C55.9455 14.0289 55.5373 13.8593 55.2329 13.5186C54.9292 13.1786 54.7773 12.7497 54.7773 12.2326C54.7773 11.6919 54.9336 11.2482 55.2477 10.9038C55.5618 10.5593 55.984 10.3867 56.5159 10.3867C57.0285 10.3867 57.4403 10.5563 57.7522 10.8963C58.0485 11.2267 58.1973 11.6534 58.1973 12.1749ZM57.3922 12.2001C57.3922 11.8778 57.3225 11.6015 57.184 11.3712C57.021 11.0926 56.7892 10.9534 56.4877 10.9534C56.1759 10.9534 55.9388 11.0926 55.7759 11.3712C55.6366 11.6015 55.5677 11.8823 55.5677 12.2141C55.5677 12.5363 55.6373 12.8126 55.7759 13.043C55.944 13.3215 56.1781 13.4608 56.4803 13.4608C56.7766 13.4608 57.0092 13.3193 57.1766 13.0356C57.3203 12.8008 57.3922 12.5223 57.3922 12.2001Z" fill="white"/>
<path d="M64.0163 10.459L62.9237 13.9508H62.2126L61.76 12.4345C61.6452 12.056 61.5518 11.6797 61.4793 11.3064H61.4652C61.3978 11.6901 61.3044 12.0657 61.1844 12.4345L60.7037 13.9508H59.9844L58.957 10.459H59.7548L60.1496 12.119C60.2452 12.5116 60.3237 12.8857 60.3867 13.2397H60.4007C60.4585 12.9479 60.5541 12.576 60.6889 12.1264L61.1844 10.4597H61.817L62.2918 12.0908C62.4067 12.4886 62.5 12.8716 62.5718 13.2405H62.5933C62.6459 12.8812 62.7252 12.4982 62.8304 12.0908L63.2541 10.4597H64.0163V10.459Z" fill="white"/>
<path d="M68.0412 13.95H67.2649V11.95C67.2649 11.3337 67.0308 11.0255 66.5612 11.0255C66.3308 11.0255 66.1449 11.11 66.0005 11.2796C65.8575 11.4492 65.7849 11.6492 65.7849 11.8781V13.9492H65.0086V11.4559C65.0086 11.1492 64.999 10.8166 64.9805 10.4566H65.6627L65.699 11.0025H65.7205C65.8108 10.8329 65.9457 10.6929 66.1227 10.5811C66.3331 10.4507 66.5686 10.3848 66.8264 10.3848C67.1523 10.3848 67.4234 10.49 67.639 10.7011C67.9071 10.9596 68.0412 11.3455 68.0412 11.8581V13.95Z" fill="white"/>
<path d="M70.1818 13.9495H69.4062V8.85547H70.1818V13.9495Z" fill="white"/>
<path d="M74.752 12.1749C74.752 12.7119 74.5987 13.1519 74.292 13.4971C73.9706 13.8519 73.5439 14.0289 73.0128 14.0289C72.4994 14.0289 72.0913 13.8593 71.7876 13.5186C71.4839 13.1786 71.332 12.7497 71.332 12.2326C71.332 11.6919 71.4883 11.2482 71.8024 10.9038C72.1165 10.5593 72.5387 10.3867 73.0698 10.3867C73.5831 10.3867 73.9943 10.5563 74.3068 10.8963C74.6031 11.2267 74.752 11.6534 74.752 12.1749ZM73.9461 12.2001C73.9461 11.8778 73.8765 11.6015 73.738 11.3712C73.5757 11.0926 73.3431 10.9534 73.0424 10.9534C72.7298 10.9534 72.4928 11.0926 72.3305 11.3712C72.1913 11.6015 72.1224 11.8823 72.1224 12.2141C72.1224 12.5363 72.192 12.8126 72.3305 13.043C72.4987 13.3215 72.7328 13.4608 73.035 13.4608C73.3313 13.4608 73.5631 13.3193 73.7305 13.0356C73.875 12.8008 73.9461 12.5223 73.9461 12.2001Z" fill="white"/>
<path d="M78.5073 13.9497H77.8103L77.7525 13.5475H77.731C77.4925 13.8682 77.1525 14.0289 76.711 14.0289C76.3814 14.0289 76.1147 13.923 75.914 13.7126C75.7317 13.5215 75.6406 13.2838 75.6406 13.0015C75.6406 12.5749 75.8184 12.2497 76.1762 12.0245C76.5332 11.7993 77.0354 11.6889 77.6821 11.6941V11.6289C77.6821 11.1689 77.4406 10.9393 76.9569 10.9393C76.6125 10.9393 76.3088 11.026 76.0466 11.1978L75.8888 10.6882C76.2132 10.4875 76.614 10.3867 77.0866 10.3867C77.9991 10.3867 78.4569 10.8682 78.4569 11.8312V13.1171C78.4569 13.466 78.474 13.7438 78.5073 13.9497ZM77.7014 12.7497V12.2112C76.8451 12.1963 76.4169 12.4312 76.4169 12.9149C76.4169 13.0971 76.4658 13.2334 76.5658 13.3245C76.6658 13.4156 76.7932 13.4608 76.9451 13.4608C77.1154 13.4608 77.2747 13.4067 77.4199 13.2993C77.5658 13.1912 77.6554 13.0541 77.6888 12.886C77.6969 12.8482 77.7014 12.8023 77.7014 12.7497Z" fill="white"/>
<path d="M82.9193 13.9495H82.2304L82.1941 13.3888H82.1726C81.9526 13.8155 81.5778 14.0288 81.0511 14.0288C80.6304 14.0288 80.28 13.8636 80.0022 13.5332C79.7245 13.2029 79.5859 12.774 79.5859 12.2473C79.5859 11.6821 79.7363 11.2244 80.0385 10.8747C80.3311 10.5488 80.6896 10.3858 81.1163 10.3858C81.5852 10.3858 81.9133 10.5436 82.1 10.8599H82.1148V8.85547H82.8919V13.0088C82.8919 13.3488 82.9008 13.6621 82.9193 13.9495ZM82.1148 12.4769V11.8947C82.1148 11.794 82.1074 11.7125 82.0933 11.6503C82.0496 11.4636 81.9556 11.3066 81.8126 11.1799C81.6682 11.0532 81.4941 10.9895 81.2933 10.9895C81.0037 10.9895 80.777 11.1044 80.6104 11.3347C80.4452 11.5651 80.3615 11.8592 80.3615 12.2184C80.3615 12.5636 80.4407 12.8436 80.6 13.0592C80.7682 13.2888 80.9948 13.4036 81.2785 13.4036C81.5333 13.4036 81.737 13.3081 81.8919 13.1162C82.0415 12.9392 82.1148 12.7258 82.1148 12.4769Z" fill="white"/>
<path d="M89.5606 12.1749C89.5606 12.7119 89.4073 13.1519 89.1006 13.4971C88.7791 13.8519 88.354 14.0289 87.8214 14.0289C87.3095 14.0289 86.9014 13.8593 86.5962 13.5186C86.2925 13.1786 86.1406 12.7497 86.1406 12.2326C86.1406 11.6919 86.2969 11.2482 86.611 10.9038C86.9251 10.5593 87.3473 10.3867 87.8799 10.3867C88.3917 10.3867 88.8043 10.5563 89.1154 10.8963C89.4117 11.2267 89.5606 11.6534 89.5606 12.1749ZM88.7562 12.2001C88.7562 11.8778 88.6866 11.6015 88.548 11.3712C88.3843 11.0926 88.1532 10.9534 87.851 10.9534C87.5399 10.9534 87.3028 11.0926 87.1391 11.3712C86.9999 11.6015 86.931 11.8823 86.931 12.2141C86.931 12.5363 87.0006 12.8126 87.1391 13.043C87.3073 13.3215 87.5414 13.4608 87.8436 13.4608C88.1399 13.4608 88.3732 13.3193 88.5406 13.0356C88.6836 12.8008 88.7562 12.5223 88.7562 12.2001Z" fill="white"/>
<path d="M93.7319 13.95H92.9563V11.95C92.9563 11.3337 92.7222 11.0255 92.2519 11.0255C92.0215 11.0255 91.8356 11.11 91.6919 11.2796C91.5482 11.4492 91.4763 11.6492 91.4763 11.8781V13.9492H90.6993V11.4559C90.6993 11.1492 90.6904 10.8166 90.6719 10.4566H91.3534L91.3897 11.0025H91.4111C91.5022 10.8329 91.6371 10.6929 91.8134 10.5811C92.0245 10.4507 92.2593 10.3848 92.5178 10.3848C92.843 10.3848 93.1141 10.49 93.3297 10.7011C93.5985 10.9596 93.7319 11.3455 93.7319 11.8581V13.95Z" fill="white"/>
<path d="M98.9548 11.041H98.1V12.7373C98.1 13.1684 98.2518 13.3839 98.5526 13.3839C98.6918 13.3839 98.8074 13.3721 98.8985 13.3476L98.9185 13.9365C98.7652 13.9943 98.5637 14.0232 98.3155 14.0232C98.0089 14.0232 97.7703 13.9298 97.5978 13.7432C97.4244 13.5565 97.3385 13.2424 97.3385 12.8017V11.041H96.8281V10.4595H97.3385V9.81947L98.0992 9.58984V10.4587H98.954L98.9548 11.041Z" fill="white"/>
<path d="M103.068 13.9495H102.291V11.9644C102.291 11.3384 102.057 11.0251 101.588 11.0251C101.228 11.0251 100.982 11.2066 100.847 11.5695C100.824 11.6458 100.811 11.7392 100.811 11.8488V13.9488H100.035V8.85547H100.811V10.9599H100.826C101.07 10.577 101.42 10.3858 101.874 10.3858C102.196 10.3858 102.462 10.491 102.673 10.7021C102.936 10.9651 103.068 11.3562 103.068 11.8732V13.9495Z" fill="white"/>
<path d="M107.308 12.0394C107.308 12.1786 107.297 12.2957 107.279 12.3912H104.951C104.961 12.7364 105.072 12.9994 105.288 13.1816C105.485 13.3446 105.739 13.426 106.05 13.426C106.394 13.426 106.708 13.3712 106.991 13.2609L107.113 13.8001C106.782 13.9438 106.392 14.0157 105.941 14.0157C105.4 14.0157 104.974 13.8564 104.666 13.5379C104.356 13.2194 104.203 12.792 104.203 12.2557C104.203 11.729 104.346 11.2905 104.634 10.9409C104.935 10.5675 105.342 10.3809 105.855 10.3809C106.357 10.3809 106.739 10.5675 106.996 10.9409C107.205 11.2372 107.308 11.6038 107.308 12.0394ZM106.567 11.8386C106.573 11.6083 106.522 11.4097 106.416 11.2423C106.282 11.0268 106.076 10.9186 105.799 10.9186C105.545 10.9186 105.339 11.0238 105.181 11.2349C105.052 11.4031 104.976 11.6038 104.951 11.8386H106.567Z" fill="white"/>
</g>
<defs>
<linearGradient id="paint0_linear_1696_12076" x1="68" y1="0" x2="68" y2="40" gradientUnits="userSpaceOnUse">
<stop offset="0.105208" stop-color="#FFB763"/>
<stop offset="0.7875" stop-color="#FF7233"/>
</linearGradient>
<clipPath id="clip0_1696_12076">
<rect width="136" height="40" fill="white"/>
</clipPath>
</defs>
</svg>
