<svg width="724" height="195" viewBox="0 0 724 195" fill="none" xmlns="http://www.w3.org/2000/svg">
<circle cx="71" cy="104.5" r="70.75" stroke="#E0E0E0" stroke-opacity="0.6" stroke-width="0.5"/>
<circle cx="218" cy="104.5" r="70.75" stroke="#E0E0E0" stroke-opacity="0.6" stroke-width="0.5"/>
<circle cx="366" cy="104.5" r="70.75" stroke="#E0E0E0" stroke-opacity="0.6" stroke-width="0.5"/>
<circle cx="514" cy="104.5" r="70.75" stroke="#E0E0E0" stroke-opacity="0.6" stroke-width="0.5"/>
<path d="M584.755 85.841C587.93 74.2296 594.014 63.6202 602.434 55.0167C610.853 46.4131 621.328 40.1001 632.868 36.6747C644.408 33.2494 656.631 32.8252 668.381 35.4421C680.131 38.059 691.018 43.6306 700.014 51.6297C709.009 59.6288 715.815 69.7907 719.787 81.1541C723.759 92.5175 724.766 104.706 722.713 116.568C720.66 128.429 715.614 139.57 708.054 148.937C700.493 158.304 690.667 165.587 679.507 170.097" stroke="#E0E0E0" stroke-opacity="0.6" stroke-width="0.5"/>
<circle cx="70.5" cy="104.5" r="54.25" stroke="#E0E0E0" stroke-opacity="0.6" stroke-width="0.5"/>
<circle cx="217.5" cy="104.5" r="54.25" stroke="#E0E0E0" stroke-opacity="0.6" stroke-width="0.5"/>
<circle cx="365.5" cy="104.5" r="54.25" stroke="#E0E0E0" stroke-opacity="0.6" stroke-width="0.5"/>
<circle cx="513.5" cy="104.5" r="54.25" stroke="#E0E0E0" stroke-opacity="0.6" stroke-width="0.5"/>
<circle cx="652.5" cy="104.5" r="54.25" stroke="#E0E0E0" stroke-opacity="0.6" stroke-width="0.5"/>
<line x1="273.177" y1="0.823223" x2="455.177" y2="182.823" stroke="#E0E0E0" stroke-opacity="0.6" stroke-width="0.5"/>
<line x1="441" y1="95.75" x2="588" y2="95.75" stroke="#E0E0E0" stroke-opacity="0.6" stroke-width="0.5"/>
<line x1="79.25" y1="1" x2="79.25" y2="148" stroke="#E0E0E0" stroke-opacity="0.6" stroke-width="0.5"/>
<line x1="661.25" y1="48" x2="661.25" y2="195" stroke="#E0E0E0" stroke-opacity="0.6" stroke-width="0.5"/>
<line x1="260.177" y1="11.8232" x2="442.177" y2="193.823" stroke="#E0E0E0" stroke-opacity="0.6" stroke-width="0.5"/>
<line x1="440" y1="112.75" x2="587" y2="112.75" stroke="#E0E0E0" stroke-opacity="0.6" stroke-width="0.5"/>
<line x1="62.25" y1="1" x2="62.25" y2="148" stroke="#E0E0E0" stroke-opacity="0.6" stroke-width="0.5"/>
<line x1="644.25" y1="47" x2="644.25" y2="194" stroke="#E0E0E0" stroke-opacity="0.6" stroke-width="0.5"/>
</svg>
