<svg width="303" height="212" viewBox="0 0 303 212" fill="none" xmlns="http://www.w3.org/2000/svg">
<g opacity="0.6">
<path d="M185.104 32.8604L95.769 59.1986" stroke="#1E6AC6" stroke-opacity="0.6" stroke-width="8.4" stroke-linecap="round"/>
<path d="M71.9453 66.2222L68.9675 67.1001" stroke="#179F0C" stroke-opacity="0.6" stroke-width="8.4" stroke-linecap="round"/>
<path d="M100.23 184.113L85.3414 188.502" stroke="#179F0C" stroke-opacity="0.6" stroke-width="8.4" stroke-linecap="round"/>
<path d="M22.9238 119.514L13.9904 122.148" stroke="#179F0C" stroke-opacity="0.6" stroke-width="8.4" stroke-linecap="round"/>
<path d="M71.8281 153.646L67.5741 154.901" stroke="#179F0C" stroke-opacity="0.6" stroke-width="8.4" stroke-linecap="round"/>
<path d="M139.059 85.2749L55.6797 109.857" stroke="#1E6AC6" stroke-opacity="0.6" stroke-width="8.4" stroke-linecap="round"/>
<path d="M146.273 131.698L95.6505 146.623" stroke="#1E6AC6" stroke-opacity="0.6" stroke-width="8.4" stroke-linecap="round"/>
<path d="M177.652 161.286L127.029 176.211" stroke="#1E6AC6" stroke-opacity="0.6" stroke-width="8.4" stroke-linecap="round"/>
<path d="M180.412 148.493C186.261 151.634 188.531 158.963 185.482 164.863C182.435 170.763 175.222 173 169.373 169.86C168.607 169.452 167.847 169.028 167.099 168.598C148.712 157.995 136.135 141.223 130.582 122.391C125.03 103.558 126.497 82.6458 136.191 63.7636C136.586 62.9966 136.995 62.2285 137.417 61.4702C148.161 42.1285 165.731 28.8613 185.447 23.0485C205.165 17.235 227.12 18.8492 246.638 29.2688C247.404 29.6768 248.164 30.1005 248.912 30.5305C267.3 41.1333 279.877 57.9056 285.429 76.7378C290.981 95.5701 289.515 116.483 279.82 135.365C279.426 136.134 279.017 136.9 278.594 137.658C275.385 143.47 268.114 145.502 262.351 142.2C256.591 138.897 254.52 131.509 257.73 125.698C258.044 125.13 258.349 124.559 258.641 123.992C265.325 110.974 266.326 96.5285 262.485 83.5022C258.644 70.4733 249.964 58.8821 237.291 51.5737C236.736 51.2534 236.17 50.9393 235.599 50.6351C225.652 45.3252 214.738 43.2914 204.135 44.1573L219.474 96.1832C221.372 102.621 217.774 109.353 211.439 111.22C205.105 113.088 198.431 109.385 196.533 102.947L181.194 50.9209C171.817 55.9457 163.752 63.5748 158.277 73.4319C157.962 73.9999 157.657 74.5708 157.365 75.138C150.681 88.1563 149.68 102.602 153.521 115.628C157.362 128.657 166.039 140.249 178.716 147.556C179.27 147.877 179.835 148.188 180.407 148.495L180.412 148.493Z" fill="#1E6AC6" fill-opacity="0.9"/>
</g>
</svg>
