<svg width="908" height="270" viewBox="0 0 908 270" fill="none" xmlns="http://www.w3.org/2000/svg">
<path d="M380.951 104.499C380.951 143.434 349.298 174.997 310.253 174.997C271.209 174.997 239.557 143.434 239.557 104.499C239.557 65.5673 271.212 34.0011 310.253 34.0011C349.296 34.0011 380.951 65.5655 380.951 104.499ZM649.502 135.314C652.159 131.522 657.395 130.595 661.198 133.245C665.001 135.894 665.931 141.115 663.273 144.907C662.006 146.716 660.76 148.348 659.544 149.797C646.208 165.669 626.518 174.997 605.471 174.997C566.28 174.997 534.862 143.267 534.882 104.278C534.882 65.5485 566.671 34.002 605.471 34.002C634.338 34.002 659.835 51.4219 670.673 77.5531C674.177 86.0022 676.031 95.1483 676.031 104.499C676.031 109.196 672.167 112.911 667.531 112.911H552.405C556.489 138.852 578.917 158.176 605.472 158.176C621.502 158.176 636.506 151.075 646.629 139.021C647.736 137.703 648.695 136.466 649.502 135.315V135.314ZM552.405 96.0886H658.562C657.896 91.9052 656.738 87.8229 655.122 83.9266C646.889 64.0732 627.365 50.8233 605.471 50.8233C578.916 50.8233 556.488 70.1462 552.404 96.0886H552.405ZM453.109 51.0264C448.469 51.4263 444.383 47.998 443.983 43.3708C443.583 38.7446 447.02 34.6703 451.66 34.2704C492.657 30.6935 528.508 62.9263 528.508 104.498C528.508 122.538 521.606 140.581 507.801 154.346C504.506 157.631 499.167 157.631 495.873 154.347L414.25 72.9536C407.407 82.327 403.984 93.4127 403.984 104.498C403.984 136.178 431.222 160.699 462.513 157.97C467.154 157.571 471.24 160.998 471.641 165.625C472.041 170.252 468.604 174.327 463.963 174.726C422.916 178.306 387.115 146.03 387.115 104.498C387.115 86.4576 394.018 68.4159 407.822 54.6507C411.116 51.3655 416.456 51.3655 419.749 54.6498L501.372 136.043C508.216 126.669 511.64 115.584 511.64 104.498C511.64 72.7971 484.363 48.3004 453.11 51.0255L453.109 51.0264ZM697.943 77.6604C695.614 81.6712 690.466 83.0391 686.445 80.7157C682.424 78.394 681.051 73.2596 683.381 69.2497C686.478 63.9024 690.254 59.0148 694.634 54.6507C708.448 40.8846 726.541 34.0011 744.623 34.0011C762.706 34.0011 780.797 40.8846 794.612 54.6507C798.992 59.0139 802.768 63.9042 805.865 69.2497C808.194 73.2596 806.822 78.394 802.801 80.7157C798.779 83.0391 793.631 81.6703 791.302 77.6604C788.959 73.6148 786.066 69.8474 782.751 66.5434C774.383 58.2043 763.935 53.1835 753.057 51.4791V166.586C753.057 171.231 749.281 174.997 744.623 174.997C739.965 174.997 736.188 171.231 736.188 166.586V51.4791C725.311 53.1835 714.864 58.2043 706.495 66.5434C703.181 69.8465 700.288 73.6148 697.944 77.6604H697.943ZM124.635 154.334C121.481 157.479 115.793 157.697 112.697 154.289C98.9004 140.527 92.002 122.507 92.002 104.497C92.002 65.5861 123.683 34.0145 162.699 34.0145C201.716 34.0145 233.395 65.5852 233.395 104.497C233.395 124.452 226.053 139.879 212.673 154.318C209.38 157.603 204.055 157.618 200.762 154.334C197.457 151.038 197.492 145.733 200.79 142.445C211.282 131.972 216.527 118.239 216.527 104.497C216.527 78.004 197.178 55.5776 171.134 51.4934V104.497C171.134 109.142 167.358 112.907 162.7 112.907C158.042 112.907 154.266 109.142 154.266 104.497V51.4934C128.221 55.5785 108.873 78.0031 108.873 104.497C108.873 118.239 114.118 131.972 124.609 142.445C127.831 145.896 128.053 150.928 124.637 154.334H124.635ZM310.254 50.8225C280.524 50.8225 256.427 74.8521 256.427 104.498C256.427 134.146 280.523 158.175 310.254 158.175C339.985 158.175 364.082 134.146 364.082 104.498C364.082 74.853 339.983 50.8225 310.254 50.8225Z" fill="#C2D3FF"/>
<circle cx="163" cy="104.5" r="70.75" stroke="#E0E0E0" stroke-opacity="0.6" stroke-width="0.5"/>
<circle cx="310" cy="104.5" r="70.75" stroke="#E0E0E0" stroke-opacity="0.6" stroke-width="0.5"/>
<circle cx="458" cy="104.5" r="70.75" stroke="#E0E0E0" stroke-opacity="0.6" stroke-width="0.5"/>
<circle cx="606" cy="104.5" r="70.75" stroke="#E0E0E0" stroke-opacity="0.6" stroke-width="0.5"/>
<path d="M676.755 85.841C679.93 74.2296 686.014 63.6202 694.434 55.0167C702.853 46.4131 713.328 40.1001 724.868 36.6747C736.408 33.2494 748.631 32.8252 760.381 35.4421C772.131 38.059 783.018 43.6306 792.014 51.6297C801.009 59.6288 807.815 69.7907 811.787 81.1541C815.759 92.5175 816.766 104.706 814.713 116.568C812.66 128.429 807.614 139.57 800.054 148.937C792.493 158.304 782.667 165.587 771.507 170.097" stroke="#E0E0E0" stroke-opacity="0.6" stroke-width="0.5"/>
<circle cx="162.5" cy="104.5" r="54.25" stroke="#E0E0E0" stroke-opacity="0.6" stroke-width="0.5"/>
<circle cx="309.5" cy="104.5" r="54.25" stroke="#E0E0E0" stroke-opacity="0.6" stroke-width="0.5"/>
<circle cx="457.5" cy="104.5" r="54.25" stroke="#E0E0E0" stroke-opacity="0.6" stroke-width="0.5"/>
<circle cx="605.5" cy="104.5" r="54.25" stroke="#E0E0E0" stroke-opacity="0.6" stroke-width="0.5"/>
<circle cx="744.5" cy="104.5" r="54.25" stroke="#E0E0E0" stroke-opacity="0.6" stroke-width="0.5"/>
<line x1="365.177" y1="0.823223" x2="547.177" y2="182.823" stroke="#E0E0E0" stroke-opacity="0.6" stroke-width="0.5"/>
<line x1="533" y1="95.75" x2="680" y2="95.75" stroke="#E0E0E0" stroke-opacity="0.6" stroke-width="0.5"/>
<line x1="171.25" y1="1" x2="171.25" y2="148" stroke="#E0E0E0" stroke-opacity="0.6" stroke-width="0.5"/>
<line x1="753.25" y1="48" x2="753.25" y2="195" stroke="#E0E0E0" stroke-opacity="0.6" stroke-width="0.5"/>
<line x1="352.177" y1="11.8232" x2="534.177" y2="193.823" stroke="#E0E0E0" stroke-opacity="0.6" stroke-width="0.5"/>
<line x1="532" y1="112.75" x2="679" y2="112.75" stroke="#E0E0E0" stroke-opacity="0.6" stroke-width="0.5"/>
<line x1="154.25" y1="1" x2="154.25" y2="148" stroke="#E0E0E0" stroke-opacity="0.6" stroke-width="0.5"/>
<line x1="736.25" y1="47" x2="736.25" y2="194" stroke="#E0E0E0" stroke-opacity="0.6" stroke-width="0.5"/>
<line y1="32.5" x2="908" y2="32.5" stroke="#E0E0E0" stroke-opacity="0.6"/>
<line y1="174.5" x2="908" y2="174.5" stroke="#E0E0E0" stroke-opacity="0.6"/>
<line y1="157.5" x2="908" y2="157.5" stroke="#E0E0E0" stroke-opacity="0.6"/>
<line y1="111.5" x2="908" y2="111.5" stroke="#E0E0E0" stroke-opacity="0.6"/>
<line y1="81.5" x2="908" y2="81.5" stroke="#E0E0E0" stroke-opacity="0.6"/>
<path d="M146.7 208.5H154.638L166.325 241.906L178.013 208.5H185.95L169.513 254H163.138L146.7 208.5ZM142.419 208.5H150.325L151.763 241.062V254H142.419V208.5ZM182.325 208.5H190.263V254H180.888V241.062L182.325 208.5ZM338.256 230.188V232.344C338.256 235.802 337.788 238.906 336.85 241.656C335.913 244.406 334.59 246.75 332.881 248.688C331.173 250.604 329.131 252.073 326.756 253.094C324.402 254.115 321.788 254.625 318.913 254.625C316.058 254.625 313.444 254.115 311.069 253.094C308.715 252.073 306.673 250.604 304.944 248.688C303.215 246.75 301.871 244.406 300.913 241.656C299.975 238.906 299.506 235.802 299.506 232.344V230.188C299.506 226.708 299.975 223.604 300.913 220.875C301.85 218.125 303.173 215.781 304.881 213.844C306.61 211.906 308.652 210.427 311.006 209.406C313.381 208.385 315.996 207.875 318.85 207.875C321.725 207.875 324.34 208.385 326.694 209.406C329.069 210.427 331.11 211.906 332.819 213.844C334.548 215.781 335.881 218.125 336.819 220.875C337.777 223.604 338.256 226.708 338.256 230.188ZM328.788 232.344V230.125C328.788 227.708 328.569 225.583 328.131 223.75C327.694 221.917 327.048 220.375 326.194 219.125C325.34 217.875 324.298 216.938 323.069 216.312C321.84 215.667 320.433 215.344 318.85 215.344C317.267 215.344 315.86 215.667 314.631 216.312C313.423 216.938 312.392 217.875 311.538 219.125C310.704 220.375 310.069 221.917 309.631 223.75C309.194 225.583 308.975 227.708 308.975 230.125V232.344C308.975 234.74 309.194 236.865 309.631 238.719C310.069 240.552 310.715 242.104 311.569 243.375C312.423 244.625 313.465 245.573 314.694 246.219C315.923 246.865 317.329 247.188 318.913 247.188C320.496 247.188 321.902 246.865 323.131 246.219C324.36 245.573 325.392 244.625 326.225 243.375C327.058 242.104 327.694 240.552 328.131 238.719C328.569 236.865 328.788 234.74 328.788 232.344ZM484.438 208.5V254H475.062L456.781 223.5V254H447.406V208.5H456.781L475.094 239.031V208.5H484.438ZM625.525 246.688V254H601.306V246.688H625.525ZM604.369 208.5V254H594.994V208.5H604.369ZM622.369 227.031V234.156H601.306V227.031H622.369ZM625.494 208.5V215.844H601.306V208.5H625.494ZM754.362 208.5V254H745.019V208.5H754.362ZM768.362 208.5V215.844H731.237V208.5H768.362Z" fill="#F2F2F2"/>
</svg>
