<svg width="142" height="123" viewBox="0 0 142 123" fill="none" xmlns="http://www.w3.org/2000/svg">
<path d="M32.6332 120.333C29.4787 123.478 23.7906 123.697 20.6953 120.288C6.89844 106.526 0 88.5062 0 70.4958C0 31.5853 31.6813 0.0136719 70.6971 0.0136719C109.714 0.0136719 141.393 31.5844 141.393 70.4958C141.393 90.4511 134.051 105.879 120.671 120.318C117.378 123.602 112.053 123.617 108.76 120.333C105.455 117.037 105.49 111.732 108.788 108.445C119.28 97.9707 124.525 84.2377 124.525 70.4958C124.525 44.0031 105.176 21.5767 79.1324 17.4926V70.4958C79.1324 75.1408 75.3562 78.9065 70.698 78.9065C66.0399 78.9065 62.2636 75.1408 62.2636 70.4958V17.4926C36.2193 21.5776 16.8706 44.0023 16.8706 70.4958C16.8706 84.2377 22.1165 97.9707 32.6072 108.445C35.829 111.895 36.0515 116.927 32.635 120.333H32.6332Z" fill="#C2D3FF"/>
</svg>
