<svg width="143" height="143" viewBox="0 0 143 143" fill="none" xmlns="http://www.w3.org/2000/svg">
<path d="M115.5 102.314C118.157 98.5216 123.393 97.5947 127.196 100.245C130.999 102.894 131.929 108.115 129.271 111.907C128.004 113.716 126.758 115.348 125.542 116.797C112.206 132.669 92.5155 141.997 71.4685 141.997C32.2777 141.997 0.860154 110.267 0.879892 71.2783C0.879892 32.5485 32.6689 1.00195 71.4685 1.00195C100.335 1.00195 125.833 18.4219 136.671 44.553C140.175 53.0022 142.029 62.1483 142.029 71.4993C142.029 76.1962 138.165 79.9109 133.528 79.9109H18.4028C22.4868 105.852 44.9145 125.176 71.4694 125.176C87.5002 125.176 102.504 118.075 112.627 106.021C113.734 104.703 114.693 103.465 115.5 102.314ZM18.4028 63.0886H124.56C123.894 58.9052 122.736 54.8228 121.119 50.9266C112.887 31.0732 93.3624 17.8233 71.4685 17.8233C44.9136 17.8233 22.4868 37.1462 18.4028 63.0886Z" fill="#C2D3FF"/>
</svg>
