<svg width="125" height="141" viewBox="0 0 125 141" fill="none" xmlns="http://www.w3.org/2000/svg">
<path d="M15.9412 43.6593C13.6121 47.6701 8.46412 49.038 4.44294 46.7146C0.421769 44.393 -0.950944 39.2585 1.37904 35.2487C4.47612 29.9013 8.25149 25.0138 12.6315 20.6496C26.4464 6.88351 44.539 0 62.6208 0C80.7035 0 98.7952 6.88351 112.61 20.6496C116.99 25.0129 120.765 29.9031 123.863 35.2487C126.192 39.2585 124.82 44.393 120.799 46.7146C116.777 49.038 111.629 47.6692 109.3 43.6593C106.957 39.6137 104.063 35.8463 100.749 32.5423C92.3813 24.2032 81.9326 19.1824 71.0552 17.4781V132.585C71.0552 137.23 67.279 140.996 62.6208 140.996C57.9626 140.996 54.1864 137.23 54.1864 132.585V17.4781C43.3089 19.1824 32.8621 24.2032 24.4932 32.5423C21.179 35.8454 18.2847 39.6137 15.9412 43.6593Z" fill="#C2D3FF"/>
</svg>
