<svg width="63" height="63" viewBox="0 0 63 63" fill="none" xmlns="http://www.w3.org/2000/svg">
<path d="M52.4042 53.7774L10.6186 8.59518C10.5483 8.66018 10.4708 8.71737 10.4005 8.78237C10.3303 8.84737 10.2672 8.92019 10.1969 8.98519L51.9825 54.1674C52.0528 54.1024 52.1303 54.0452 52.2006 53.9802C52.2708 53.9152 52.3339 53.8424 52.4042 53.7774Z" fill="#FF9149"/>
<path d="M3.59005 18.0002C3.50004 18.1848 3.41002 18.3695 3.31972 18.5616L41.906 60.2845C42.0968 60.2167 42.2882 60.1339 42.4869 60.0588L3.59005 18.0002Z" fill="#FF9149"/>
<path d="M8.58187 10.6382C8.44824 10.7835 8.3149 10.9214 8.18878 11.067L49.7577 56.0149C49.9127 55.9005 50.0605 55.7783 50.2158 55.6564L8.58187 10.6382Z" fill="#FF9149"/>
<path d="M6.71811 12.8762C6.59921 13.0296 6.48033 13.183 6.36114 13.344L47.3379 57.6516C47.5073 57.5528 47.6698 57.4387 47.832 57.3322L6.7109 12.8684L6.71811 12.8762Z" fill="#FF9149"/>
<path d="M2.36212 20.9178C2.28656 21.1181 2.2107 21.3258 2.14265 21.5264L38.8513 61.219C39.0641 61.1671 39.2696 61.1074 39.4752 61.0476L2.36212 20.9178Z" fill="#FF9149"/>
<path d="M5.04935 15.325C4.9449 15.494 4.84047 15.663 4.73572 15.8396L44.7303 59.0852C44.9069 58.9942 45.0836 58.9033 45.2678 58.8126L5.04935 15.325Z" fill="#FF9149"/>
<path d="M62.0821 31.0781C62.0785 30.7844 62.0674 30.4905 62.0563 30.1965L34.8949 0.827252C34.6027 0.793258 34.3105 0.759299 34.018 0.732821L62.0893 31.0859L62.0821 31.0781Z" fill="#FF9149"/>
<path d="M31.8451 62.1496C32.1012 62.1446 32.3576 62.1321 32.6062 62.1267L0.757878 27.6895C0.725353 27.9442 0.700631 28.1916 0.67562 28.4465L31.8451 62.1496Z" fill="#FF9149"/>
<path d="M39.698 1.76751C39.3555 1.67133 39.0052 1.58239 38.6621 1.50125L61.6709 26.3804C61.6168 26.032 61.5554 25.6759 61.4863 25.3269L39.698 1.76751Z" fill="#FF9149"/>
<path d="M1.39391 24.124C1.34001 24.3477 1.29332 24.5793 1.23913 24.8105L35.5068 61.8637C35.7412 61.8352 35.9684 61.7989 36.2032 61.7629L1.39391 24.124Z" fill="#FF9149"/>
<path d="M46.0101 4.34739C45.5237 4.08001 45.0218 3.82708 44.5268 3.58947L60.0465 20.3708C59.8485 19.8512 59.6352 19.3386 59.4066 18.8329L46.0101 4.34739Z" fill="#FF9149"/>
<path d="M30.7635 0.613242C30.5074 0.618293 30.251 0.63082 30.0024 0.636164L61.8507 35.0734C61.8833 34.8187 61.9083 34.5638 61.933 34.3164L30.7635 0.613242Z" fill="#FF9149"/>
<path d="M27.0944 0.898939C26.8599 0.927416 26.6327 0.963735 26.3979 0.999728L61.2072 38.6386C61.2611 38.4149 61.3078 38.1833 61.362 37.9521L27.0944 0.898939Z" fill="#FF9149"/>
<path d="M0.937711 36.3825C0.991848 36.7308 1.0532 37.087 1.12237 37.4359L22.9107 60.9954C23.2531 61.0915 23.5959 61.1802 23.9465 61.2616L0.937711 36.3825Z" fill="#FF9149"/>
<path d="M12.851 6.74796C12.696 6.86234 12.5482 6.98452 12.3929 7.10641L54.0268 52.1246C54.1604 51.9793 54.2938 51.8415 54.4199 51.6959L12.851 6.74796Z" fill="#FF9149"/>
<path d="M0.533785 31.6926C0.537366 31.9863 0.548459 32.2802 0.559558 32.5742L27.7209 61.9434C28.0131 61.9774 28.3053 62.0114 28.5979 62.0379L0.526556 31.6847L0.533785 31.6926Z" fill="#FF9149"/>
<path d="M16.5986 58.4155C17.0849 58.6829 17.5868 58.9358 18.0819 59.1734L2.56213 42.3921C2.76011 42.9117 2.97342 43.4243 3.20205 43.93L16.5986 58.4155Z" fill="#FF9149"/>
<path d="M15.2633 5.11104C15.0938 5.2098 14.9313 5.32389 14.7691 5.43046L55.8902 49.8942C56.0091 49.7408 56.128 49.5874 56.2472 49.4265L15.2705 5.11886L15.2633 5.11104Z" fill="#FF9149"/>
<path d="M17.8781 3.68522C17.7017 3.76866 17.5247 3.86709 17.3405 3.95774L57.559 47.4454C57.6634 47.2764 57.7679 47.1074 57.8726 46.9308L17.8781 3.68522Z" fill="#FF9149"/>
<path d="M23.7573 1.54386C23.5446 1.59576 23.339 1.65548 23.1335 1.7152L60.2465 41.8451C60.322 41.6448 60.3979 41.437 60.466 41.2364L23.7573 1.54386Z" fill="#FF9149"/>
<path d="M20.7023 2.48581C20.5115 2.55363 20.3201 2.63648 20.1214 2.71152L59.0183 44.7702C59.1083 44.5855 59.1983 44.4009 59.2886 44.2087L20.7023 2.48581Z" fill="#FF9149"/>
</svg>
