<svg width="129" height="129" viewBox="0 0 129 129" fill="none" xmlns="http://www.w3.org/2000/svg">
<path d="M8.13891 120.858C6.27691 118.996 3.2585 118.996 1.3965 120.858C-0.4655 122.72 -0.4655 125.739 1.3965 127.601C3.2585 129.463 6.27691 129.463 8.13891 127.601C10.0009 125.739 10.0009 122.72 8.13891 120.858Z" fill="white" fill-opacity="0.5"/>
<path d="M38.01 90.9883C36.148 89.1263 33.1296 89.1263 31.2676 90.9883C29.4056 92.8503 29.4056 95.8687 31.2676 97.7307C33.1296 99.5927 36.148 99.5927 38.01 97.7307C39.872 95.8687 39.872 92.8503 38.01 90.9883Z" fill="white" fill-opacity="0.5"/>
<path d="M67.8596 61.1172C65.9976 59.2552 62.9792 59.2552 61.1172 61.1172C59.2552 62.9792 59.2552 65.9976 61.1172 67.8596C62.9792 69.7216 65.9976 69.7216 67.8596 67.8596C69.7216 65.9976 69.7216 62.9792 67.8596 61.1172Z" fill="white" fill-opacity="0.5"/>
<path d="M97.7307 31.2666C95.8687 29.4046 92.8503 29.4046 90.9883 31.2666C89.1263 33.1286 89.1263 36.147 90.9883 38.009C92.8503 39.871 95.8687 39.871 97.7307 38.009C99.5927 36.147 99.5927 33.1286 97.7307 31.2666Z" fill="white" fill-opacity="0.5"/>
<path d="M120.859 8.13891C122.721 10.0009 125.74 10.0009 127.602 8.13891C129.464 6.27691 129.464 3.2585 127.602 1.3965C125.74 -0.4655 122.721 -0.4655 120.859 1.3965C118.997 3.2585 118.997 6.27691 120.859 8.13891Z" fill="white" fill-opacity="0.5"/>
</svg>
