<svg width="407" height="363" viewBox="0 0 407 363" fill="none" xmlns="http://www.w3.org/2000/svg">
<path d="M333.718 10.6101H321.222C320.916 10.6101 320.623 10.4887 320.407 10.2725C320.191 10.0563 320.069 9.76314 320.069 9.45741C320.069 9.15169 320.191 8.85849 320.407 8.64231C320.623 8.42613 320.916 8.30469 321.222 8.30469H333.718C334.023 8.30469 334.317 8.42613 334.533 8.64231C334.749 8.85849 334.87 9.15169 334.87 9.45741C334.87 9.76314 334.749 10.0563 334.533 10.2725C334.317 10.4887 334.023 10.6101 333.718 10.6101Z" fill="url(#paint0_linear_218_3032)"/>
<path d="M341.994 10.8916C342.786 10.0993 342.786 8.81475 341.994 8.02246C341.202 7.23016 339.917 7.23016 339.125 8.02246C338.333 8.81475 338.333 10.0993 339.125 10.8916C339.917 11.6839 341.202 11.6839 341.994 10.8916Z" fill="url(#paint1_linear_218_3032)"/>
<path d="M342.04 9.45667C342.04 9.74941 341.953 10.0356 341.791 10.279C341.628 10.5224 341.397 10.7121 341.127 10.8241C340.856 10.9361 340.559 10.9654 340.271 10.9083C339.984 10.8512 339.721 10.7103 339.514 10.5033C339.307 10.2963 339.166 10.0325 339.109 9.74542C339.051 9.45831 339.081 9.16071 339.193 8.89026C339.305 8.6198 339.494 8.38864 339.738 8.22601C339.981 8.06337 340.267 7.97656 340.56 7.97656C340.755 7.97626 340.947 8.01434 341.127 8.08861C341.307 8.16289 341.47 8.2719 341.607 8.4094C341.745 8.5469 341.854 8.71019 341.928 8.8899C342.003 9.06961 342.041 9.26221 342.04 9.45667Z" fill="url(#paint2_linear_218_3032)"/>
<path d="M341.783 9.45627C341.783 9.69793 341.711 9.93417 341.577 10.1351C341.442 10.3361 341.252 10.4927 341.028 10.5851C340.805 10.6776 340.559 10.7018 340.322 10.6547C340.085 10.6075 339.868 10.4912 339.697 10.3203C339.526 10.1494 339.409 9.93167 339.362 9.69464C339.315 9.45762 339.339 9.21194 339.432 8.98867C339.524 8.7654 339.681 8.57456 339.882 8.4403C340.083 8.30604 340.319 8.23437 340.561 8.23438C340.885 8.23438 341.196 8.36311 341.425 8.59226C341.654 8.8214 341.783 9.1322 341.783 9.45627Z" fill="url(#paint3_radial_218_3032)"/>
<path d="M341.427 9.03737C341.427 9.40624 341.037 9.70595 340.56 9.70595C340.083 9.70595 339.693 9.40624 339.693 9.03737C339.693 8.6685 340.081 8.37109 340.56 8.37109C341.04 8.37109 341.427 8.65697 341.427 9.03737Z" fill="url(#paint4_linear_218_3032)"/>
<path d="M388.581 23.6992H386.603V25.8433H388.581V23.6992Z" fill="#353535"/>
<path d="M266.359 25.8438H268.337V23.6997H266.359V25.8438Z" fill="#353535"/>
<path d="M333.718 10.4323H321.222C320.931 10.4332 320.65 10.3238 320.436 10.1262C320.223 9.92865 320.091 9.65748 320.069 9.36719C320.069 9.39716 320.069 9.42713 320.069 9.4571C320.069 9.76283 320.191 10.056 320.407 10.2722C320.623 10.4884 320.916 10.6098 321.222 10.6098H333.718C334.023 10.6098 334.317 10.4884 334.533 10.2722C334.749 10.056 334.87 9.76283 334.87 9.4571C334.87 9.42713 334.87 9.39716 334.87 9.36719C334.848 9.65748 334.717 9.92865 334.503 10.1262C334.289 10.3238 334.009 10.4332 333.718 10.4323Z" fill="#4E4E4E"/>
<path d="M370.229 3.69922H284.713C280.828 3.70349 277.104 5.24839 274.357 7.99502C271.61 10.7417 270.064 14.4657 270.06 18.3504V19.3717C270.064 15.4871 271.61 11.763 274.357 9.01634C277.104 6.2697 280.828 4.7248 284.713 4.72053H370.229C374.114 4.7248 377.838 6.2697 380.585 9.01634C383.332 11.763 384.878 15.4871 384.883 19.3717V18.3504C384.878 14.4657 383.332 10.7417 380.585 7.99502C377.838 5.24839 374.114 3.70349 370.229 3.69922Z" fill="url(#paint5_linear_218_3032)"/>
<path d="M215.5 241.086C248.913 241.086 276 268.173 276 301.586C276 334.999 248.913 362.086 215.5 362.086C182.087 362.086 155 334.999 155 301.586C155 268.173 182.087 241.086 215.5 241.086Z" fill="url(#paint6_radial_218_3032)"/>
<path d="M106.742 179.923C106.742 179.923 101.293 252.785 95.7127 279.583H224.296C218.291 254.604 212.082 187.065 212.082 187.065L230.254 213.978L246.618 172.695C246.618 172.695 230.865 145.763 213.87 131.683C202.067 121.904 177.521 118.308 163.629 117.024V116.258C163.629 116.258 161.722 116.344 158.554 116.614C155.382 116.397 153.474 116.341 153.474 116.341L153.483 117.107C139.613 118.62 115.409 122.954 103.49 132.591C59.3791 168.258 36.5647 276.868 36 279.583H63.4591C78.2939 223.319 106.742 179.923 106.742 179.923Z" fill="#2A485E"/>
<path d="M246.616 172.693C246.616 172.693 235.674 153.986 222.191 139.605C217.348 157.778 215.873 176.848 217.816 195.555L230.256 213.978L246.616 172.693Z" fill="#193345"/>
<path d="M358.787 215.06C355.543 213.405 352.713 211.126 350.156 208.527L257.091 177.566C257.091 177.566 257.091 150.241 251.836 135.989C260.663 119.507 259.954 104.027 257.091 94.7108C254.227 85.3947 241.784 80.1261 237.225 93.8094C234.96 100.609 225.432 128.44 221.973 135.543C213.234 178.71 226.981 230.159 254.34 248.793C281.698 267.427 327.132 269.245 360.171 260.04C383.43 253.556 389.986 228.353 391.83 214.002C388.565 215.359 385.218 216.489 381.762 217.244C374.094 218.917 365.776 218.625 358.787 215.06Z" fill="#F7A87E"/>
<path d="M392.547 203.852L369.084 214.825L350.153 208.528C352.71 211.126 355.541 213.406 358.785 215.06C365.776 218.626 374.095 218.918 381.762 217.242C385.218 216.487 388.565 215.357 391.83 214C392.604 207.967 392.547 203.852 392.547 203.852Z" fill="#E98870"/>
<path d="M380.138 84.5441L356.796 109.346C351.129 115.367 351.664 124.913 357.968 130.259C363.934 135.321 372.845 134.713 378.067 128.888L400.804 103.531C405.961 97.7779 405.5 88.9406 399.77 83.7553C394.103 78.6286 385.375 78.979 380.138 84.5441Z" fill="#F7A87E"/>
<path d="M178.047 118.82L138.395 118.898L142.897 150.346H173.038L178.047 118.82Z" fill="#ECEADD"/>
<path d="M173.037 150.348H142.896L153.817 226.62L173.037 150.348Z" fill="white"/>
<path d="M141.734 99.3398V112.355C146.945 116.168 153.017 118.543 159.337 118.809C159.483 118.815 159.631 118.82 159.776 118.822C159.922 118.824 160.068 118.815 160.214 118.809C166.126 118.561 171.821 116.464 176.796 113.077V99.3398H141.734Z" fill="#E98870"/>
<path d="M185.749 82.8629C195.048 79.4212 202.639 71.6456 205.855 62.2663C209.071 52.887 207.85 42.0892 202.621 33.6654C207.124 32.5809 209.28 26.7613 207.577 22.454C205.873 18.1467 201.395 15.4566 196.852 14.5467C198.984 12.5393 198.53 8.79802 196.57 6.62386C194.609 4.44969 191.62 3.53196 188.732 3.0415C184.089 2.25273 179.339 2.32503 174.644 2.68522C165.741 3.36978 134.287 2.42468 125.519 23.6837C114.191 27.2315 114.291 44.2314 114.199 48.8572C113.952 61.2326 119.061 74.105 129.194 81.2124C145.202 92.4415 167.411 89.6518 185.749 82.8629Z" fill="#4E2F20"/>
<path d="M191.748 86.8218C186.791 100.641 174.097 111.407 160.215 111.989C160.069 111.996 159.923 112 159.777 112.002C159.631 112.002 159.483 111.996 159.337 111.989C145.454 111.407 132.762 100.641 127.803 86.8218C124.784 78.4026 124.344 69.1927 124.668 60.1905C124.993 51.1884 126.049 42.2091 125.88 33.203C137.024 30.9123 148.461 29.14 159.777 29.7933C171.093 29.1419 182.527 30.9123 193.671 33.203C193.503 42.2091 194.556 51.1891 194.883 60.1905C195.209 69.192 194.767 78.4026 191.748 86.8218Z" fill="#F7A87E"/>
<path d="M196.776 68.18C192.009 61.1892 189.025 52.5727 189.457 44.1216C169.191 45.534 148.853 42.7245 129.729 35.8711C129.951 47.0252 126.911 57.9853 122.178 68.0882C121.604 56.9685 121.454 46.1752 122.634 35.1038C122.764 33.8428 122.926 32.5421 123.559 31.4426C124.685 29.4886 127.011 28.6217 129.173 27.9625C149.485 21.7566 171.914 20.8675 191.705 28.5754C193.789 29.3883 195.908 30.3341 197.421 31.9878C198.75 33.437 199.512 35.3266 199.948 37.2434C200.735 40.6955 200.541 44.2864 200.343 47.8218C199.948 54.8478 199.186 61.5683 196.776 68.18Z" fill="#4E2F20"/>
<path d="M116.853 47.5465C119.668 44.5736 122.137 41.2912 124.213 37.7621C125.945 34.8135 127.683 31.4441 130.899 30.2795C133.857 29.2087 137.412 30.3192 140.125 28.7293C141.508 27.9197 142.47 26.503 143.892 25.7631C146.668 24.3178 149.958 25.8869 152.934 26.8567C159.642 29.0452 167.348 27.923 173.156 23.912C176.106 21.8733 178.665 18.943 179.272 15.4082C179.808 12.2896 178.774 9.11949 177.503 6.22104C176.965 4.99392 176.376 3.7896 175.749 2.60547C175.381 2.63022 175.014 2.65563 174.647 2.68429C171.377 2.9357 165.063 2.96892 157.949 3.96156C158.041 4.05665 158.134 4.1511 158.224 4.24815C159.788 5.92795 161.059 8.2949 160.283 10.456C159.681 12.1287 158.038 13.1649 156.47 14.0032C151.664 16.5724 146.539 18.4951 141.229 19.7213C139.958 20.0144 138.539 20.359 137.842 21.4623C137.35 22.2439 137.341 23.2307 136.975 24.0762C136.259 25.7312 134.366 26.5102 132.605 26.8971C130.845 27.284 128.951 27.4794 127.514 28.5665C126.797 29.1071 126.25 29.8346 125.603 30.4553C123.543 32.4341 120.487 33.2424 117.671 32.7669C117.358 32.7142 117.049 32.6438 116.744 32.5624C114.244 38.7065 114.259 46.0529 114.204 48.8556C114.195 49.279 114.195 49.7024 114.199 50.1264C115.123 49.307 116.007 48.4401 116.853 47.5465Z" fill="#5E3B2B"/>
<path d="M149.353 55.0444C150.217 55.0731 151.102 55.133 151.888 55.4906C152.675 55.8482 153.353 56.564 153.428 57.4244C153.515 58.4092 152.789 59.3218 151.903 59.7621C151.018 60.2024 149.999 60.2675 149.012 60.315C145.788 60.4692 142.562 60.5139 139.333 60.4492C138.197 60.4264 135.751 60.2538 135.725 58.6092C135.702 57.2342 137.844 56.792 138.873 56.4357C142.225 55.275 145.823 54.9291 149.353 55.0444Z" fill="#452819"/>
<path d="M171.346 55.0444C170.483 55.0731 169.598 55.133 168.811 55.4906C168.024 55.8482 167.347 56.564 167.272 57.4244C167.185 58.4092 167.911 59.3218 168.796 59.7621C169.682 60.2024 170.7 60.2675 171.688 60.315C174.911 60.4692 178.138 60.5139 181.367 60.4492C182.503 60.4264 184.949 60.2538 184.975 58.6092C184.998 57.2342 182.855 56.792 181.826 56.4357C178.474 55.275 174.877 54.9291 171.346 55.0444Z" fill="#452819"/>
<path d="M144.58 73.1268C146.49 73.1268 148.038 71.5787 148.038 69.6689C148.038 67.7591 146.49 66.2109 144.58 66.2109C142.67 66.2109 141.122 67.7591 141.122 69.6689C141.122 71.5787 142.67 73.1268 144.58 73.1268Z" fill="#452819"/>
<path d="M174.772 73.1268C176.682 73.1268 178.23 71.5787 178.23 69.6689C178.23 67.7591 176.682 66.2109 174.772 66.2109C172.863 66.2109 171.314 67.7591 171.314 69.6689C171.314 71.5787 172.863 73.1268 174.772 73.1268Z" fill="#452819"/>
<path d="M161.16 99.3437C158.701 99.3867 156.271 99.9136 153.965 100.777C155.576 101.782 157.619 102.436 160.218 102.436C163.214 102.436 165.473 101.569 167.181 100.293C165.246 99.6221 163.207 99.3006 161.16 99.3437Z" fill="#F28487"/>
<path d="M154.505 92.4633C155.971 93.1147 157.516 93.6025 159.108 93.8071C162.197 94.2044 165.393 93.4996 168.108 91.9722C169.009 91.4623 169.86 90.8675 170.648 90.196C170.385 90.0849 170.103 90.0276 169.818 90.0273H150.72C150.778 90.0847 150.837 90.1413 150.896 90.1967C151.941 91.1691 153.2 91.885 154.505 92.4633Z" fill="white"/>
<path d="M170.651 90.196C169.863 90.8675 169.012 91.4623 168.111 91.9722C165.396 93.4996 162.2 94.2044 159.111 93.8071C157.519 93.6025 155.974 93.114 154.508 92.4633C153.205 91.885 151.944 91.1691 150.899 90.1967C150.84 90.1413 150.781 90.0847 150.723 90.0273H150.615C150.287 90.0267 149.962 90.1015 149.667 90.2459C149.372 90.3903 149.114 90.6005 148.912 90.8603C148.711 91.1201 148.572 91.4226 148.506 91.7445C148.44 92.0665 148.448 92.3993 148.531 92.7174C149.182 95.171 150.66 98.7155 153.966 100.778C156.271 99.912 158.702 99.3851 161.16 99.3447C163.208 99.3025 165.247 99.625 167.181 100.297C169.993 98.1971 171.304 94.9905 171.905 92.72C172.037 92.2188 171.982 91.6869 171.751 91.2228C171.521 90.7587 171.13 90.394 170.651 90.196Z" fill="#AB404A"/>
<path d="M159.776 118.823C159.631 118.823 159.483 118.816 159.337 118.81C153.019 118.544 146.944 116.168 141.734 112.355V136.601H169.416L176.796 126.058V113.075C171.821 116.466 166.126 118.561 160.214 118.807C160.068 118.815 159.922 118.82 159.776 118.823Z" fill="#F7A87E"/>
<path d="M141.735 115.711L158.658 135.37L176.797 115.711L179.188 119.043L172.861 150.446L158.539 136.599L142.909 150.43L138.395 118.899L141.735 115.711Z" fill="white"/>
<path d="M150.231 143.949L156.86 153.533L147.134 179.938L153.817 226.617L166.413 176.63L160.857 153.422L166.918 144.698L158.539 136.598L150.231 143.949Z" fill="#D75555"/>
<path d="M293.131 220.113L293.039 220.272H293.223L293.131 220.113Z" fill="#F68C24"/>
<path d="M361.986 194.705L386.252 179.807C392.144 176.19 399.622 178.668 402.641 185.239C405.497 191.456 403.272 199.016 397.625 202.291L373.035 216.549C367.457 219.783 360.523 217.516 357.525 211.477C354.554 205.504 356.541 198.048 361.986 194.705Z" fill="#F7A87E"/>
<path d="M353.67 164.152L386.469 151.064C394.433 147.886 403.434 152.03 406.198 160.147C408.81 167.826 404.837 176.191 397.233 179.015L364.128 191.307C356.618 194.095 348.266 190.289 345.445 182.79C342.654 175.374 346.31 167.088 353.67 164.152Z" fill="#F7A87E"/>
<path d="M350.581 135.046L382.213 122.424C389.894 119.359 398.575 123.356 401.24 131.184C403.761 138.59 399.929 146.658 392.594 149.381L360.666 161.235C353.423 163.924 345.369 160.253 342.648 153.022C339.954 145.87 343.481 137.879 350.581 135.046Z" fill="#F7A87E"/>
<path d="M189.158 92.513C193.171 92.7378 197.297 91.6285 200.482 89.1775C203.668 86.7266 205.833 82.9019 206.007 78.8864C206.103 76.6719 205.49 74.2509 203.71 72.9312C202.35 71.923 200.545 71.7289 198.859 71.8754C196.518 72.0786 194.067 73.0068 192.825 75.0018L189.158 92.513Z" fill="#F7A87E"/>
<path d="M197.938 78.3607C198.138 78.4808 198.323 78.6233 198.489 78.7854C199.219 79.486 199.645 80.4451 199.674 81.4562C199.703 82.4673 199.335 83.4496 198.647 84.1915C198.613 84.2278 198.573 84.2572 198.528 84.2779C198.483 84.2986 198.434 84.3103 198.385 84.3122C198.335 84.3141 198.286 84.3062 198.239 84.289C198.193 84.2718 198.15 84.2457 198.114 84.212C198.078 84.1784 198.048 84.1379 198.028 84.0929C198.007 84.0478 197.995 83.9992 197.993 83.9497C197.991 83.9002 197.999 83.8508 198.016 83.8043C198.034 83.7579 198.06 83.7153 198.093 83.6789C198.646 83.0821 198.942 82.2926 198.918 81.4799C198.895 80.6672 198.553 79.8962 197.967 79.3325C197.755 79.128 197.43 78.8851 197.055 78.8232C195.645 79.6912 194.553 80.9925 193.943 82.5325C193.915 82.6046 193.866 82.6664 193.801 82.7094C193.737 82.7524 193.661 82.7745 193.584 82.7729C193.539 82.7721 193.495 82.7633 193.453 82.7468C193.36 82.7106 193.285 82.6389 193.245 82.5474C193.205 82.4559 193.202 82.3522 193.238 82.259C193.957 80.4113 195.313 78.8819 197.062 77.9477C198.811 77.0136 200.836 76.7363 202.771 77.1662C202.869 77.1879 202.954 77.2476 203.008 77.3321C203.061 77.4165 203.079 77.5189 203.058 77.6166C203.036 77.7143 202.976 77.7993 202.892 77.853C202.807 77.9067 202.705 77.9246 202.607 77.9028C201.041 77.5636 199.409 77.7238 197.938 78.3607Z" fill="#D26F61"/>
<path d="M191.524 86.2847C191.574 86.1979 191.656 86.1344 191.753 86.1081C191.85 86.0818 191.953 86.095 192.04 86.1447C194.075 87.3099 196.632 86.6084 198.345 85.563C199.441 84.8954 200.885 83.7282 201.532 81.9618C201.549 81.9153 201.575 81.8726 201.609 81.8362C201.643 81.7998 201.683 81.7704 201.728 81.7496C201.773 81.7288 201.822 81.7171 201.871 81.7151C201.921 81.7132 201.97 81.7209 202.016 81.738C202.063 81.7552 202.106 81.7813 202.142 81.8149C202.178 81.8484 202.208 81.8889 202.229 81.9338C202.249 81.9788 202.261 82.0274 202.263 82.0769C202.265 82.1264 202.257 82.1758 202.24 82.2223C201.517 84.1926 199.936 85.479 198.738 86.2078C197.515 86.953 195.894 87.5353 194.275 87.4995C193.36 87.4891 192.462 87.2482 191.664 86.7993C191.578 86.7496 191.514 86.6675 191.488 86.571C191.462 86.4745 191.475 86.3715 191.524 86.2847Z" fill="#D26F61"/>
<path d="M130.173 92.513C126.16 92.7378 122.031 91.6285 118.849 89.1775C115.666 86.7266 113.498 82.9019 113.324 78.8864C113.228 76.6719 113.842 74.2509 115.621 72.9312C116.981 71.923 118.786 71.7289 120.472 71.8754C122.813 72.0786 125.265 73.0068 126.507 75.0018L130.173 92.513Z" fill="#F7A87E"/>
<path d="M121.393 78.3607C121.194 78.4808 121.009 78.6232 120.842 78.7854C120.113 79.486 119.687 80.4451 119.658 81.4562C119.628 82.4673 119.997 83.4496 120.685 84.1915C120.718 84.2278 120.759 84.2572 120.804 84.2779C120.849 84.2986 120.898 84.3102 120.947 84.3121C120.997 84.314 121.046 84.3062 121.092 84.289C121.139 84.2718 121.182 84.2457 121.218 84.212C121.254 84.1783 121.284 84.1378 121.304 84.0928C121.325 84.0478 121.337 83.9992 121.339 83.9497C121.34 83.9002 121.333 83.8508 121.315 83.8043C121.298 83.7578 121.272 83.7152 121.238 83.6789C120.686 83.0821 120.39 82.2926 120.414 81.4799C120.437 80.6672 120.779 79.8962 121.365 79.3325C121.577 79.128 121.901 78.885 122.277 78.8231C123.687 79.6909 124.779 80.9923 125.389 82.5325C125.417 82.6046 125.466 82.6662 125.531 82.7092C125.595 82.7522 125.671 82.7744 125.748 82.7728C125.793 82.7721 125.837 82.7633 125.879 82.7468C125.925 82.7289 125.967 82.7021 126.003 82.6679C126.039 82.6337 126.067 82.5928 126.087 82.5475C126.107 82.5022 126.118 82.4533 126.119 82.4038C126.12 82.3543 126.111 82.3051 126.093 82.259C125.375 80.4113 124.019 78.882 122.27 77.9478C120.522 77.0136 118.496 76.7363 116.561 77.1661C116.513 77.1769 116.467 77.197 116.426 77.2255C116.386 77.2539 116.351 77.29 116.325 77.3318C116.298 77.3736 116.28 77.4202 116.271 77.469C116.263 77.5178 116.264 77.5678 116.275 77.6162C116.285 77.6646 116.305 77.7104 116.334 77.751C116.362 77.7915 116.398 77.8261 116.44 77.8527C116.482 77.8793 116.529 77.8974 116.577 77.906C116.626 77.9146 116.676 77.9135 116.725 77.9028C118.291 77.5636 119.923 77.7237 121.393 78.3607Z" fill="#D26F61"/>
<path d="M127.807 86.2847C127.758 86.1979 127.675 86.1344 127.579 86.1081C127.482 86.0818 127.379 86.095 127.292 86.1447C125.257 87.3099 122.7 86.6084 120.987 85.563C119.89 84.8954 118.446 83.7282 117.8 81.9618C117.782 81.9153 117.756 81.8726 117.723 81.8362C117.689 81.7998 117.649 81.7704 117.604 81.7496C117.559 81.7288 117.51 81.7171 117.461 81.7151C117.411 81.7132 117.362 81.7209 117.315 81.738C117.269 81.7552 117.226 81.7813 117.19 81.8149C117.153 81.8484 117.124 81.8889 117.103 81.9338C117.082 81.9788 117.071 82.0274 117.069 82.0769C117.067 82.1264 117.074 82.1758 117.092 82.2223C117.815 84.1926 119.395 85.479 120.594 86.2078C121.817 86.953 123.438 87.5353 125.057 87.4995C125.972 87.4891 126.87 87.2483 127.667 86.7993C127.754 86.7496 127.818 86.6675 127.844 86.571C127.87 86.4745 127.857 86.3715 127.807 86.2847Z" fill="#D26F61"/>
<path opacity="0.12" d="M177.478 87.1156C180.5 87.1156 182.95 84.6658 182.95 81.6438C182.95 78.6217 180.5 76.1719 177.478 76.1719C174.456 76.1719 172.006 78.6217 172.006 81.6438C172.006 84.6658 174.456 87.1156 177.478 87.1156Z" fill="#ED7C6D"/>
<path opacity="0.12" d="M180.564 84.0333C182.701 81.8964 182.701 78.4318 180.564 76.2949C178.427 74.158 174.962 74.158 172.825 76.2949C170.688 78.4318 170.688 81.8964 172.825 84.0333C174.962 86.1702 178.427 86.1702 180.564 84.0333Z" fill="#ED7C6D"/>
<path opacity="0.12" d="M179.765 87.1156C182.787 87.1156 185.237 84.6658 185.237 81.6438C185.237 78.6217 182.787 76.1719 179.765 76.1719C176.743 76.1719 174.293 78.6217 174.293 81.6438C174.293 84.6658 176.743 87.1156 179.765 87.1156Z" fill="#ED7C6D"/>
<path opacity="0.12" d="M177.276 88.7406C180.298 88.7406 182.747 86.2908 182.747 83.2688C182.747 80.2467 180.298 77.7969 177.276 77.7969C174.254 77.7969 171.804 80.2467 171.804 83.2688C171.804 86.2908 174.254 88.7406 177.276 88.7406Z" fill="#ED7C6D"/>
<path opacity="0.12" d="M177.794 85.7433C180.057 85.7433 181.892 83.9085 181.892 81.6451C181.892 79.3817 180.057 77.5469 177.794 77.5469C175.53 77.5469 173.695 79.3817 173.695 81.6451C173.695 83.9085 175.53 85.7433 177.794 85.7433Z" fill="#ED7C6D"/>
<path opacity="0.12" d="M178.355 84.4592C179.687 84.4592 180.768 83.3788 180.768 82.046C180.768 80.7132 179.687 79.6328 178.355 79.6328C177.022 79.6328 175.941 80.7132 175.941 82.046C175.941 83.3788 177.022 84.4592 178.355 84.4592Z" fill="#ED7C6D"/>
<path opacity="0.12" d="M179.039 81.7366C179.345 80.4394 178.542 79.1397 177.244 78.8335C175.947 78.5274 174.648 79.3307 174.341 80.6279C174.035 81.925 174.839 83.2247 176.136 83.5309C177.433 83.837 178.733 83.0337 179.039 81.7366Z" fill="#ED7C6D"/>
<path opacity="0.12" d="M179.647 83.0863C180.878 82.5763 181.463 81.1646 180.953 79.9333C180.443 78.702 179.031 78.1173 177.8 78.6273C176.569 79.1373 175.984 80.549 176.494 81.7803C177.004 83.0116 178.415 83.5963 179.647 83.0863Z" fill="#ED7C6D"/>
<path opacity="0.12" d="M178.402 83.8715C179.633 83.3614 180.218 81.9498 179.708 80.7185C179.198 79.4871 177.786 78.9024 176.555 79.4124C175.323 79.9225 174.739 81.3341 175.249 82.5655C175.759 83.7968 177.17 84.3815 178.402 83.8715Z" fill="#ED7C6D"/>
<path opacity="0.12" d="M180.138 81.4006C180.445 80.1035 179.641 78.8038 178.344 78.4976C177.047 78.1915 175.747 78.9948 175.441 80.2919C175.135 81.5891 175.938 82.8888 177.235 83.195C178.533 83.5011 179.832 82.6978 180.138 81.4006Z" fill="#ED7C6D"/>
<path opacity="0.05" d="M178.166 82.5654C179.119 82.5654 179.891 81.7935 179.891 80.8413C179.891 79.8891 179.119 79.1172 178.166 79.1172C177.214 79.1172 176.442 79.8891 176.442 80.8413C176.442 81.7935 177.214 82.5654 178.166 82.5654Z" fill="#FDECE9"/>
<path opacity="0.05" d="M177.789 81.1936C178.358 81.1936 178.82 80.7323 178.82 80.1632C178.82 79.5941 178.358 79.1328 177.789 79.1328C177.22 79.1328 176.759 79.5941 176.759 80.1632C176.759 80.7323 177.22 81.1936 177.789 81.1936Z" fill="#FDECE9"/>
<path opacity="0.05" d="M178.582 80.5621C178.499 80.6732 178.384 80.7572 178.253 80.8033C178.122 80.8494 177.98 80.8556 177.846 80.8211C177.711 80.7866 177.59 80.713 177.497 80.6095C177.404 80.506 177.344 80.3773 177.324 80.2398C177.305 80.1022 177.326 79.9618 177.386 79.8365C177.447 79.7112 177.542 79.6065 177.662 79.5356C177.782 79.4648 177.919 79.431 178.058 79.4385C178.197 79.4461 178.33 79.4946 178.442 79.5779C178.516 79.6333 178.578 79.7027 178.625 79.7821C178.672 79.8615 178.703 79.9494 178.716 80.0408C178.729 80.1322 178.724 80.2253 178.701 80.3148C178.678 80.4042 178.638 80.4882 178.582 80.5621Z" fill="#FDECE9"/>
<path opacity="0.05" d="M178.353 80.4685C178.269 80.58 178.155 80.6642 178.024 80.7105C177.892 80.7568 177.75 80.7632 177.615 80.7288C177.481 80.6944 177.359 80.6208 177.266 80.5173C177.173 80.4137 177.113 80.2849 177.093 80.1472C177.073 80.0094 177.095 79.8689 177.155 79.7434C177.215 79.6179 177.311 79.513 177.431 79.4421C177.55 79.3711 177.688 79.3373 177.827 79.3448C177.966 79.3523 178.1 79.4009 178.211 79.4844C178.361 79.5962 178.459 79.7627 178.486 79.9472C178.512 80.1317 178.464 80.3192 178.353 80.4685Z" fill="#FDECE9"/>
<path opacity="0.05" d="M176.8 80.5924C177.173 80.4915 177.393 80.1076 177.292 79.735C177.191 79.3624 176.807 79.1421 176.434 79.2431C176.062 79.344 175.842 79.7278 175.942 80.1005C176.043 80.4731 176.427 80.6933 176.8 80.5924Z" fill="#FDECE9"/>
<path opacity="0.05" d="M178.441 80.4683C178.357 80.5795 178.243 80.6634 178.112 80.7095C177.981 80.7556 177.839 80.7618 177.704 80.7273C177.569 80.6928 177.448 80.6192 177.355 80.5157C177.263 80.4122 177.203 80.2836 177.183 80.146C177.163 80.0084 177.185 79.8681 177.245 79.7428C177.305 79.6174 177.401 79.5127 177.52 79.4419C177.64 79.3711 177.778 79.3373 177.917 79.3448C178.055 79.3523 178.189 79.4008 178.3 79.4841C178.449 79.5961 178.548 79.7626 178.574 79.9471C178.6 80.1317 178.552 80.3191 178.441 80.4683Z" fill="#FDECE9"/>
<path opacity="0.12" d="M140.369 87.1156C143.391 87.1156 145.841 84.6658 145.841 81.6438C145.841 78.6217 143.391 76.1719 140.369 76.1719C137.347 76.1719 134.897 78.6217 134.897 81.6438C134.897 84.6658 137.347 87.1156 140.369 87.1156Z" fill="#ED7C6D"/>
<path opacity="0.12" d="M143.456 84.0333C145.593 81.8964 145.593 78.4318 143.456 76.2949C141.319 74.158 137.855 74.158 135.718 76.2949C133.581 78.4318 133.581 81.8964 135.718 84.0333C137.855 86.1702 141.319 86.1702 143.456 84.0333Z" fill="#ED7C6D"/>
<path opacity="0.12" d="M142.657 87.1156C145.679 87.1156 148.129 84.6658 148.129 81.6438C148.129 78.6217 145.679 76.1719 142.657 76.1719C139.635 76.1719 137.186 78.6217 137.186 81.6438C137.186 84.6658 139.635 87.1156 142.657 87.1156Z" fill="#ED7C6D"/>
<path opacity="0.12" d="M140.168 88.7406C143.19 88.7406 145.64 86.2908 145.64 83.2688C145.64 80.2467 143.19 77.7969 140.168 77.7969C137.146 77.7969 134.696 80.2467 134.696 83.2688C134.696 86.2908 137.146 88.7406 140.168 88.7406Z" fill="#ED7C6D"/>
<path opacity="0.12" d="M140.685 85.7433C142.949 85.7433 144.783 83.9085 144.783 81.6451C144.783 79.3817 142.949 77.5469 140.685 77.5469C138.422 77.5469 136.587 79.3817 136.587 81.6451C136.587 83.9085 138.422 85.7433 140.685 85.7433Z" fill="#ED7C6D"/>
<path opacity="0.12" d="M141.246 84.4592C142.579 84.4592 143.659 83.3788 143.659 82.046C143.659 80.7132 142.579 79.6328 141.246 79.6328C139.913 79.6328 138.833 80.7132 138.833 82.046C138.833 83.3788 139.913 84.4592 141.246 84.4592Z" fill="#ED7C6D"/>
<path opacity="0.12" d="M141.932 81.7366C142.238 80.4394 141.435 79.1397 140.138 78.8336C138.841 78.5274 137.541 79.3308 137.235 80.6279C136.929 81.925 137.732 83.2247 139.029 83.5309C140.326 83.837 141.626 83.0337 141.932 81.7366Z" fill="#ED7C6D"/>
<path opacity="0.12" d="M142.538 83.0863C143.77 82.5763 144.354 81.1646 143.844 79.9333C143.334 78.702 141.923 78.1173 140.691 78.6273C139.46 79.1373 138.875 80.549 139.385 81.7803C139.895 83.0116 141.307 83.5963 142.538 83.0863Z" fill="#ED7C6D"/>
<path opacity="0.12" d="M141.293 83.8715C142.525 83.3614 143.109 81.9498 142.599 80.7185C142.089 79.4871 140.678 78.9024 139.446 79.4124C138.215 79.9225 137.63 81.3341 138.14 82.5655C138.65 83.7968 140.062 84.3815 141.293 83.8715Z" fill="#ED7C6D"/>
<path opacity="0.12" d="M143.031 81.4006C143.337 80.1035 142.534 78.8038 141.237 78.4976C139.94 78.1915 138.64 78.9948 138.334 80.292C138.027 81.5891 138.831 82.8888 140.128 83.195C141.425 83.5011 142.725 82.6978 143.031 81.4006Z" fill="#ED7C6D"/>
<path opacity="0.05" d="M141.059 82.5654C142.011 82.5654 142.783 81.7935 142.783 80.8413C142.783 79.8891 142.011 79.1172 141.059 79.1172C140.107 79.1172 139.335 79.8891 139.335 80.8413C139.335 81.7935 140.107 82.5654 141.059 82.5654Z" fill="#FDECE9"/>
<path opacity="0.05" d="M140.682 81.1936C141.251 81.1936 141.712 80.7323 141.712 80.1632C141.712 79.5941 141.251 79.1328 140.682 79.1328C140.113 79.1328 139.651 79.5941 139.651 80.1632C139.651 80.7323 140.113 81.1936 140.682 81.1936Z" fill="#FDECE9"/>
<path opacity="0.05" d="M141.474 80.5621C141.391 80.6732 141.276 80.7572 141.145 80.8033C141.014 80.8494 140.872 80.8556 140.737 80.8211C140.603 80.7866 140.481 80.713 140.389 80.6095C140.296 80.506 140.236 80.3773 140.216 80.2398C140.196 80.1022 140.218 79.9618 140.278 79.8365C140.338 79.7112 140.434 79.6065 140.554 79.5356C140.673 79.4648 140.811 79.431 140.95 79.4385C141.089 79.4461 141.222 79.4946 141.333 79.5779C141.407 79.6333 141.469 79.7027 141.516 79.7821C141.563 79.8615 141.594 79.9494 141.607 80.0408C141.621 80.1322 141.615 80.2253 141.593 80.3148C141.57 80.4042 141.529 80.4882 141.474 80.5621Z" fill="#FDECE9"/>
<path opacity="0.05" d="M141.244 80.4683C141.161 80.5795 141.047 80.6634 140.915 80.7095C140.784 80.7556 140.642 80.7618 140.508 80.7273C140.373 80.6928 140.252 80.6192 140.159 80.5157C140.066 80.4122 140.006 80.2836 139.987 80.146C139.967 80.0084 139.988 79.8681 140.049 79.7428C140.109 79.6174 140.204 79.5127 140.324 79.4419C140.444 79.3711 140.582 79.3373 140.72 79.3448C140.859 79.3523 140.993 79.4008 141.104 79.4841C141.253 79.5961 141.351 79.7626 141.378 79.9471C141.404 80.1317 141.356 80.3191 141.244 80.4683Z" fill="#FDECE9"/>
<path opacity="0.05" d="M141.174 80.8184C141.549 80.7158 141.769 80.3292 141.666 79.9549C141.564 79.5805 141.177 79.3602 140.803 79.4628C140.428 79.5653 140.208 79.9519 140.311 80.3263C140.413 80.7006 140.8 80.9209 141.174 80.8184Z" fill="#FDECE9"/>
<path opacity="0.05" d="M141.333 80.4685C141.25 80.58 141.135 80.6642 141.004 80.7105C140.873 80.7568 140.731 80.7632 140.596 80.7288C140.461 80.6944 140.34 80.6208 140.247 80.5173C140.154 80.4137 140.093 80.2849 140.074 80.1472C140.054 80.0094 140.075 79.8689 140.135 79.7434C140.195 79.6179 140.291 79.513 140.411 79.4421C140.531 79.3711 140.669 79.3373 140.808 79.3448C140.947 79.3523 141.08 79.4009 141.192 79.4844C141.341 79.5962 141.44 79.7627 141.466 79.9472C141.493 80.1317 141.445 80.3192 141.333 80.4685Z" fill="#FDECE9"/>
<path d="M154.831 77.5234C154.831 77.5391 154.831 77.554 154.831 77.5697C154.847 78.9881 155.421 80.3431 156.43 81.3407C157.438 82.3382 158.799 82.8977 160.218 82.8977C161.636 82.8977 162.998 82.3382 164.006 81.3407C165.015 80.3431 165.589 78.9881 165.605 77.5697C165.605 77.554 165.605 77.5391 165.605 77.5234H154.831Z" fill="#F17D6F"/>
<path d="M252.834 142.867C252.318 140.674 252.516 137.832 251.837 135.989C260.664 119.507 259.955 104.027 257.091 94.7108C254.228 85.3947 241.785 80.1261 237.226 93.8094C234.96 100.609 225.432 128.44 221.973 135.543C219.911 145.73 219.101 156.379 219.427 166.948C222.252 165.561 225.007 164.026 227.678 162.406C237.093 156.699 245.029 150.635 252.834 142.867Z" fill="#F7A87E"/>
<path d="M230.762 286.159L192.78 253.036C164.006 284.32 115.394 287.166 83.1578 259.076C50.9216 230.986 47.1501 182.413 74.2284 149.651L36.2464 116.528C-9.12561 170.268 -3.13294 250.647 50.0571 297.032C103.247 343.418 183.694 338.42 230.762 286.159Z" fill="#FF9149"/>
<path d="M266.2 33.4336H267.583V42.8099H266.2C266.061 42.8099 265.923 42.7824 265.794 42.7291C265.666 42.6758 265.549 42.5977 265.45 42.4993C265.352 42.4008 265.274 42.2839 265.22 42.1552C265.167 42.0265 265.14 41.8886 265.14 41.7494V34.4941C265.14 34.2128 265.251 33.9431 265.45 33.7442C265.649 33.5453 265.919 33.4336 266.2 33.4336Z" fill="#333333"/>
<path d="M266.2 51.8516H267.583V69.3315H266.2C265.919 69.3315 265.649 69.2198 265.45 69.0209C265.251 68.822 265.14 68.5523 265.14 68.271V52.9121C265.14 52.6308 265.251 52.3611 265.45 52.1622C265.649 51.9633 265.919 51.8516 266.2 51.8516Z" fill="#333333"/>
<path d="M388.749 85.0977H387.366V57.9878H388.749C389.03 57.9878 389.3 58.0996 389.499 58.2984C389.698 58.4973 389.81 58.7671 389.81 59.0483V84.0371C389.81 84.3184 389.698 84.5882 389.499 84.787C389.3 84.9859 389.03 85.0977 388.749 85.0977Z" fill="#333333"/>
<path d="M266.2 74.2188H267.583V91.6987H266.2C265.919 91.6987 265.649 91.587 265.45 91.3881C265.251 91.1892 265.14 90.9195 265.14 90.6382V75.2793C265.14 74.998 265.251 74.7283 265.45 74.5294C265.649 74.3305 265.919 74.2187 266.2 74.2188Z" fill="#333333"/>
<path d="M370.229 0H284.713C274.578 0 266.361 8.21621 266.361 18.3514V229.649C266.361 239.784 274.578 248 284.713 248H370.229C380.364 248 388.58 239.784 388.58 229.649V18.3514C388.58 8.21621 380.364 0 370.229 0Z" fill="#444444"/>
<path d="M370.229 2.14453H284.711C275.761 2.14453 268.506 9.39977 268.506 18.3496V229.649C268.506 238.599 275.761 245.854 284.711 245.854H370.229C379.179 245.854 386.434 238.599 386.434 229.649V18.3496C386.434 9.39977 379.179 2.14453 370.229 2.14453Z" fill="#444444"/>
<path d="M370.229 2.28125H284.711C275.836 2.28125 268.642 9.47559 268.642 18.3503V229.65C268.642 238.524 275.836 245.719 284.711 245.719H370.229C379.104 245.719 386.298 238.524 386.298 229.65V18.3503C386.298 9.47559 379.104 2.28125 370.229 2.28125Z" fill="#434343"/>
<path d="M370.229 2.41797H284.71C275.911 2.41797 268.777 9.55141 268.777 18.351V229.65C268.777 238.45 275.911 245.583 284.71 245.583H370.229C379.028 245.583 386.162 238.45 386.162 229.65V18.351C386.162 9.55141 379.028 2.41797 370.229 2.41797Z" fill="#414141"/>
<path d="M370.23 2.55469H284.711C275.987 2.55469 268.914 9.62723 268.914 18.3517V229.651C268.914 238.376 275.987 245.448 284.711 245.448H370.23C378.954 245.448 386.027 238.376 386.027 229.651V18.3517C386.027 9.62723 378.954 2.55469 370.23 2.55469Z" fill="#404040"/>
<path d="M370.229 2.69141H284.711C276.061 2.69141 269.05 9.70305 269.05 18.3524V229.652C269.05 238.301 276.061 245.313 284.711 245.313H370.229C378.879 245.313 385.89 238.301 385.89 229.652V18.3524C385.89 9.70305 378.879 2.69141 370.229 2.69141Z" fill="#3E3E3E"/>
<path d="M370.232 2.82812H284.713C276.139 2.82812 269.188 9.77887 269.188 18.3531V229.653C269.188 238.227 276.139 245.177 284.713 245.177H370.232C378.806 245.177 385.757 238.227 385.757 229.653V18.3531C385.757 9.77887 378.806 2.82812 370.232 2.82812Z" fill="#3D3D3D"/>
<path d="M370.229 2.96094H284.713C276.214 2.96094 269.324 9.85079 269.324 18.3498V229.647C269.324 238.146 276.214 245.036 284.713 245.036H370.229C378.728 245.036 385.618 238.146 385.618 229.647V18.3498C385.618 9.85079 378.728 2.96094 370.229 2.96094Z" fill="#3B3B3B"/>
<path d="M370.229 3.09766H284.713C276.289 3.09766 269.46 9.9266 269.46 18.3505V229.648C269.46 238.072 276.289 244.901 284.713 244.901H370.229C378.653 244.901 385.482 238.072 385.482 229.648V18.3505C385.482 9.9266 378.653 3.09766 370.229 3.09766Z" fill="#3A3A3A"/>
<path d="M370.229 3.23438H284.713C276.364 3.23438 269.596 10.0024 269.596 18.3512V229.648C269.596 237.997 276.364 244.765 284.713 244.765H370.229C378.578 244.765 385.346 237.997 385.346 229.648V18.3512C385.346 10.0024 378.578 3.23438 370.229 3.23438Z" fill="#393939"/>
<path d="M370.229 3.37109H284.713C276.44 3.37109 269.732 10.0782 269.732 18.3519V229.649C269.732 237.923 276.44 244.63 284.713 244.63H370.229C378.503 244.63 385.21 237.923 385.21 229.649V18.3519C385.21 10.0782 378.503 3.37109 370.229 3.37109Z" fill="#373737"/>
<path d="M370.229 3.50781H284.713C276.514 3.50781 269.868 10.1541 269.868 18.3526V229.65C269.868 237.848 276.514 244.495 284.713 244.495H370.229C378.428 244.495 385.074 237.848 385.074 229.65V18.3526C385.074 10.1541 378.428 3.50781 370.229 3.50781Z" fill="#363636"/>
<path d="M370.229 3.64453H284.713C276.589 3.64453 270.004 10.2299 270.004 18.3533V229.651C270.004 237.774 276.589 244.359 284.713 244.359H370.229C378.352 244.359 384.938 237.774 384.938 229.651V18.3533C384.938 10.2299 378.352 3.64453 370.229 3.64453Z" fill="#343434"/>
<path d="M370.23 3.78125H284.711C276.664 3.78125 270.141 10.3047 270.141 18.3517V229.651C270.141 237.698 276.664 244.222 284.711 244.222H370.23C378.277 244.222 384.8 237.698 384.8 229.651V18.3517C384.8 10.3047 378.277 3.78125 370.23 3.78125Z" fill="#333333"/>
<path d="M370.229 3.91797H284.711C276.739 3.91797 270.276 10.3805 270.276 18.3524V229.652C270.276 237.624 276.739 244.086 284.711 244.086H370.229C378.201 244.086 384.664 237.624 384.664 229.652V18.3524C384.664 10.3805 378.201 3.91797 370.229 3.91797Z" fill="#313131"/>
<path d="M370.229 4.05469H284.711C276.814 4.05469 270.412 10.4563 270.412 18.3531V229.653C270.412 237.549 276.814 243.951 284.711 243.951H370.229C378.126 243.951 384.527 237.549 384.527 229.653V18.3531C384.527 10.4563 378.126 4.05469 370.229 4.05469Z" fill="#303030"/>
<path d="M370.229 4.1875H284.71C276.889 4.1875 270.548 10.5282 270.548 18.3499V229.649C270.548 237.471 276.889 243.812 284.71 243.812H370.229C378.05 243.812 384.391 237.471 384.391 229.649V18.3499C384.391 10.5282 378.05 4.1875 370.229 4.1875Z" fill="#2F2F2F"/>
<path d="M370.229 4.32422H284.711C276.964 4.32422 270.685 10.604 270.685 18.3506V229.65C270.685 237.397 276.964 243.676 284.711 243.676H370.229C377.976 243.676 384.256 237.397 384.256 229.65V18.3506C384.256 10.604 377.976 4.32422 370.229 4.32422Z" fill="#2D2D2D"/>
<path d="M370.229 4.46094H284.711C277.039 4.46094 270.82 10.6799 270.82 18.3513V229.651C270.82 237.322 277.039 243.541 284.711 243.541H370.229C377.901 243.541 384.12 237.322 384.12 229.651V18.3513C384.12 10.6799 377.901 4.46094 370.229 4.46094Z" fill="#2C2C2C"/>
<path d="M370.23 4.59766H284.713C277.117 4.59766 270.959 10.7557 270.959 18.352V229.649C270.959 237.245 277.117 243.404 284.713 243.404H370.23C377.826 243.404 383.984 237.245 383.984 229.649V18.352C383.984 10.7557 377.826 4.59766 370.23 4.59766Z" fill="#2A2A2A"/>
<path d="M370.229 4.73438H284.713C277.192 4.73438 271.095 10.8315 271.095 18.3527V229.65C271.095 237.171 277.192 243.268 284.713 243.268H370.229C377.75 243.268 383.848 237.171 383.848 229.65V18.3527C383.848 10.8315 377.75 4.73438 370.229 4.73438Z" fill="#292929"/>
<path d="M370.229 4.86719H284.713C277.267 4.86719 271.23 10.9034 271.23 18.3495V229.647C271.23 237.093 277.267 243.129 284.713 243.129H370.229C377.675 243.129 383.711 237.093 383.711 229.647V18.3495C383.711 10.9034 377.675 4.86719 370.229 4.86719Z" fill="#272727"/>
<path d="M370.23 5.00781H284.713C277.343 5.00781 271.367 10.9831 271.367 18.3541V229.651C271.367 237.022 277.343 242.998 284.713 242.998H370.23C377.601 242.998 383.576 237.022 383.576 229.651V18.3541C383.576 10.9831 377.601 5.00781 370.23 5.00781Z" fill="#262626"/>
<path d="M370.23 2.85955C374.337 2.86382 378.274 4.49721 381.178 7.40129C384.082 10.3054 385.716 14.2429 385.72 18.3499V229.649C385.716 233.756 384.082 237.694 381.178 240.598C378.274 243.502 374.337 245.135 370.23 245.14H284.713C280.606 245.135 276.668 243.502 273.764 240.598C270.86 237.694 269.226 233.757 269.221 229.649V18.3499C269.226 14.2427 270.86 10.3052 273.764 7.40114C276.668 4.49713 280.606 2.86382 284.713 2.85955H370.23ZM370.23 1.97656H284.713C280.374 1.98266 276.214 3.70918 273.146 6.77759C270.077 9.846 268.351 14.0059 268.345 18.3453V229.645C268.351 233.984 270.077 238.144 273.146 241.212C276.214 244.281 280.374 246.007 284.713 246.014H370.23C374.569 246.007 378.729 244.281 381.797 241.212C384.866 238.144 386.592 233.984 386.598 229.645V18.3499C386.592 14.0105 384.866 9.85061 381.797 6.7822C378.729 3.71379 374.569 1.98727 370.23 1.98117V1.97656Z" fill="#2D2C2C"/>
<mask id="mask0_218_3032" style="mask-type:luminance" maskUnits="userSpaceOnUse" x="273" y="7" width="109" height="234">
<path d="M370.229 7.15234H359.11C358.767 7.15234 358.438 7.28853 358.195 7.53102C357.952 7.7735 357.815 8.10247 357.814 8.4457V8.60708C357.816 9.57143 357.627 10.5266 357.259 11.418C356.891 12.3093 356.351 13.1194 355.67 13.8018C354.988 14.4843 354.179 15.0257 353.288 15.395C352.398 15.7644 351.443 15.9546 350.478 15.9546H304.102C302.156 15.9546 300.29 15.1817 298.915 13.8059C297.539 12.4302 296.766 10.5642 296.766 8.61861V8.45723C296.766 8.11421 296.63 7.78524 296.387 7.54269C296.144 7.30014 295.816 7.16387 295.472 7.16387H284.713C283.242 7.16357 281.785 7.45304 280.426 8.01575C279.067 8.57846 277.832 9.40339 276.792 10.4434C275.752 11.4835 274.927 12.7182 274.364 14.0772C273.801 15.4362 273.511 16.8928 273.511 18.3638V229.663C273.511 231.134 273.801 232.591 274.364 233.95C274.927 235.309 275.752 236.544 276.792 237.584C277.832 238.624 279.067 239.449 280.426 240.011C281.785 240.574 283.242 240.863 284.713 240.863H370.229C373.2 240.863 376.048 239.683 378.149 237.583C380.249 235.482 381.429 232.634 381.429 229.663V18.3522C381.429 15.3818 380.249 12.5331 378.149 10.4327C376.048 8.33233 373.2 7.15234 370.229 7.15234Z" fill="white"/>
</mask>
<g mask="url(#mask0_218_3032)">
<path d="M381.428 7.15234H273.51V240.852H381.428V7.15234Z" fill="#9EA6FF"/>
<path d="M273.28 241.081V55.8563H271.735C272.658 54.4208 273.58 52.9837 274.502 51.5451C276.375 48.671 278.297 45.7984 280.266 42.9273C284.208 37.1914 288.34 31.4792 292.662 25.7909C296.984 20.1026 301.389 14.5948 305.877 9.26771C306.438 8.6022 306.999 7.939 307.56 7.2781C307.838 6.94612 308.118 6.61644 308.401 6.28906V6.92537H381.659V212.802H383.043C381.856 213.766 380.67 214.717 379.483 215.657C374.734 219.41 369.992 222.945 365.256 226.262C360.521 229.578 355.813 232.666 351.133 235.525C348.794 236.954 346.463 238.325 344.14 239.636C342.978 240.29 341.82 240.931 340.666 241.556V241.081H273.28Z" fill="#9EA6FF"/>
<path d="M273.279 241.081V56.1587H272.756C273.66 54.737 274.576 53.3137 275.504 51.889C277.361 49.044 279.264 46.2006 281.215 43.3588C285.115 37.6812 289.205 32.0275 293.484 26.3976C297.763 20.7676 302.119 15.3152 306.552 10.0404C307.658 8.72165 308.769 7.41522 309.885 6.12109V6.92109H381.659V211.489H382.915C381.742 212.443 380.568 213.385 379.392 214.313C374.694 218.026 370.001 221.524 365.313 224.807C356.444 231.063 347.172 236.725 337.555 241.757V241.081H273.279Z" fill="#9FA7FF"/>
<path d="M273.28 241.083V58.5741H272.447C272.887 57.8702 273.331 57.1662 273.78 56.4623C274.674 55.0529 275.58 53.6443 276.498 52.2364C278.342 49.4222 280.226 46.6095 282.149 43.7984C286.011 38.1793 290.059 32.5847 294.291 27.0147C298.524 21.4447 302.835 16.0492 307.223 10.8281C308.32 9.52325 309.42 8.22912 310.522 6.94575L311.352 5.98438V6.9227H381.668V210.174H382.798C381.636 211.116 380.473 212.047 379.31 212.968C374.659 216.643 370.015 220.101 365.378 223.343C356.601 229.533 347.425 235.136 337.908 240.115C336.783 240.699 335.661 241.267 334.542 241.821V241.072L273.28 241.083Z" fill="#A0A7FE"/>
<path d="M273.28 241.083V60.9438H272.176C279.067 49.7923 286.716 38.6385 295.092 27.6254C299.28 22.1184 303.545 16.7797 307.887 11.6094C308.963 10.3183 310.051 9.03802 311.152 7.76849C311.697 7.13218 312.245 6.49971 312.793 5.87109V6.92238H381.66V208.855H382.66C381.512 209.791 380.359 210.713 379.202 211.621C374.6 215.259 370.005 218.685 365.415 221.899C356.731 228.025 347.652 233.57 338.236 238.498C336.009 239.653 333.795 240.748 331.594 241.786V241.094L273.28 241.083Z" fill="#A1A8FE"/>
<path d="M273.279 241.082V61.1988H273.222C280.041 50.1672 287.608 39.1309 295.896 28.2308C300.046 22.7837 304.265 17.5019 308.553 12.3854C309.629 11.1081 310.705 9.84091 311.78 8.58367C312.322 7.95659 312.862 7.33181 313.394 6.70703V6.91683H381.636V207.537H382.509C381.371 208.46 380.232 209.372 379.095 210.274C374.544 213.874 369.998 217.263 365.456 220.441C356.864 226.502 347.881 231.987 338.565 236.861C336.361 238.004 334.171 239.088 331.995 240.114C330.906 240.628 329.822 241.126 328.742 241.607V241.082H273.279Z" fill="#A2A8FD"/>
<path d="M273.28 241.083V65.5506H271.774C272.595 64.1858 273.427 62.8217 274.269 61.4584C281.015 50.5444 288.5 39.6281 296.699 28.8478C300.798 23.4576 304.972 18.2319 309.222 13.1707C311.343 10.6439 313.48 8.15863 315.633 5.71484V6.9206H381.659V206.22H382.404C381.279 207.142 380.153 208.045 379.026 208.927C374.525 212.486 370.028 215.839 365.535 218.985C357.035 224.98 348.148 230.406 338.932 235.227C334.575 237.49 330.271 239.519 326.022 241.314V241.083H273.28Z" fill="#A3A9FD"/>
<path d="M273.28 239.51V65.752H272.849C273.66 64.401 274.483 63.0516 275.318 61.7037C281.99 50.9095 289.395 40.1108 297.503 29.448C301.556 24.1178 305.684 18.9498 309.888 13.9439C311.989 11.4432 314.104 8.98406 316.233 6.56641V6.90992H381.659V204.893H382.277C381.163 205.797 380.049 206.689 378.936 207.57C374.479 211.089 370.03 214.406 365.59 217.52C357.183 223.45 348.393 228.818 339.278 233.589C334.967 235.825 330.709 237.832 326.503 239.609C324.404 240.495 322.321 241.324 320.256 242.094V241.075H273.28V239.51Z" fill="#A4AAFC"/>
<path d="M273.28 237.813V67.975H272.729C273.125 67.3064 273.523 66.6394 273.923 65.9738C274.725 64.6398 275.539 63.3049 276.364 61.9693C282.962 51.295 290.287 40.6139 298.305 30.0687C302.314 24.7954 306.397 19.6842 310.556 14.7351C312.631 12.2606 314.722 9.82912 316.83 7.44067C317.355 6.84433 317.882 6.24952 318.411 5.65625V6.92195H381.659V203.589H382.148C381.047 204.483 379.946 205.365 378.844 206.235C374.439 209.717 370.039 212.994 365.645 216.068C357.33 221.938 348.637 227.252 339.621 231.976C331.091 236.398 322.757 239.923 314.722 242.486V241.103H273.28V237.813Z" fill="#A6AAFC"/>
<path d="M273.279 236.127V70.1341H272.652C274.189 67.4967 275.775 64.8585 277.411 62.2195C283.938 51.6605 291.179 41.0992 299.11 30.6717C303.075 25.4583 307.113 20.4039 311.223 15.5087C313.278 13.0634 315.346 10.6588 317.427 8.29492C317.948 7.70473 318.469 7.11684 318.992 6.53125V6.91396H381.659V202.262H382.021C380.93 203.147 379.841 204.02 378.754 204.881C374.397 208.325 370.045 211.569 365.7 214.612C357.478 220.41 348.881 225.66 339.967 230.326C331.534 234.707 323.289 238.186 315.354 240.719C313.371 241.354 311.409 241.928 309.466 242.441V241.074H273.27L273.279 236.127Z" fill="#A7ABFB"/>
<path d="M273.28 234.419V72.2623H272.618C272.993 71.6121 273.371 70.9612 273.752 70.3096C275.276 67.6967 276.844 65.0877 278.458 62.4826C284.913 52.0435 292.072 41.5997 299.912 31.2898C303.833 26.1348 307.829 21.1396 311.901 16.3043C313.93 13.8851 315.975 11.5074 318.036 9.17123C319.064 8.00467 320.096 6.84733 321.132 5.69922V6.92803H381.659V200.96H381.89C380.814 201.836 379.738 202.699 378.662 203.549C374.359 206.953 370.055 210.16 365.752 213.169C357.621 218.903 349.121 224.094 340.306 228.708C331.97 233.031 323.815 236.477 315.972 238.986C312.186 240.204 308.338 241.221 304.445 242.034V241.088H273.28V234.419Z" fill="#A8ABFB"/>
<path d="M273.279 232.722V74.3372H272.627C273.357 73.0508 274.099 71.7628 274.854 70.4733C276.36 67.8958 277.911 65.3167 279.506 62.7362C285.883 52.417 292.963 42.0931 300.717 31.8984C304.591 26.8018 308.54 21.862 312.562 17.079C314.56 14.689 316.58 12.3389 318.623 10.0289C319.641 8.87308 320.661 7.72803 321.685 6.59375V6.92113H381.659V199.636H381.765C380.7 200.502 379.635 201.355 378.569 202.195C374.312 205.561 370.059 208.732 365.811 211.708C357.773 217.376 349.369 222.508 340.654 227.069C324.17 235.618 308.415 240.701 294.37 241.824C287.345 242.379 280.749 241.941 274.704 240.441C273.948 240.255 273.2 240.052 272.461 239.832H273.279V232.722Z" fill="#A9ACFA"/>
<path d="M273.28 231.026V76.3734H272.678C273.033 75.7371 273.392 75.1008 273.755 74.4645C274.476 73.1919 275.209 71.9185 275.954 70.6444C277.444 68.0961 278.98 65.547 280.565 62.9972C286.871 52.7955 293.868 42.5893 301.531 32.5122C305.35 27.4678 309.249 22.5841 313.226 17.861C315.209 15.4987 317.207 13.1755 319.221 10.8916C320.226 9.75117 321.235 8.61997 322.248 7.49798C322.755 6.93699 323.262 6.37906 323.769 5.82422V6.92162H381.659V197.027H383.215L381.636 198.32C380.585 199.177 379.533 200.022 378.48 200.856C374.27 204.182 370.066 207.316 365.867 210.258C357.921 215.861 349.614 220.933 341 225.442C324.703 233.891 309.13 238.917 295.246 240.015C288.305 240.566 281.782 240.132 275.807 238.654C275.06 238.47 274.321 238.269 273.591 238.053C273.225 237.944 272.863 237.831 272.503 237.714H273.28V231.026Z" fill="#AAADFA"/>
<path d="M273.28 229.328V78.3604H272.77C275.537 73.3376 278.48 68.3025 281.6 63.2551C287.825 53.171 294.741 43.0847 302.324 33.1251C306.109 28.1469 309.966 23.32 313.893 18.6445C315.854 16.3099 317.829 14.0137 319.818 11.7558C320.813 10.6262 321.812 9.50803 322.815 8.40141C323.314 7.8481 323.815 7.29633 324.318 6.74609V6.92361H381.659V195.74H383.068C382.55 196.168 382.03 196.593 381.509 197.015C380.467 197.862 379.427 198.697 378.388 199.519C374.229 202.807 370.073 205.904 365.922 208.81C358.068 214.348 349.858 219.362 341.344 223.818C325.242 232.16 309.844 237.126 296.122 238.202C289.261 238.744 282.817 238.317 276.908 236.858C275.43 236.494 273.987 236.064 272.581 235.569H273.273L273.28 229.328Z" fill="#ABADF9"/>
<path d="M273.28 227.628V82.1536H271.896C272.559 80.9164 273.232 79.6768 273.916 78.4349C276.655 73.4721 279.564 68.4961 282.645 63.5071C288.802 53.5429 295.638 43.5742 303.122 33.7345C310.605 23.8948 318.393 14.6407 326.349 6.03906V6.91283H381.659V194.415H382.923C382.408 194.84 381.894 195.26 381.38 195.677C380.352 196.514 379.325 197.339 378.298 198.15C374.185 201.399 370.078 204.46 365.977 207.333C358.216 212.805 350.103 217.76 341.69 222.164C325.77 230.417 310.566 235.326 296.998 236.4C290.218 236.935 283.857 236.513 278.011 235.07C276.55 234.71 275.125 234.286 273.734 233.797C273.038 233.55 272.351 233.288 271.673 233.013H273.287L273.28 227.628Z" fill="#ACAEF9"/>
<path d="M273.279 225.933V82.1901H273.074C273.729 80.9682 274.395 79.7433 275.073 78.5152C277.778 73.6107 280.652 68.6924 283.695 63.7603C289.78 53.9137 296.535 44.0648 303.93 34.3404C311.326 24.616 319.017 15.4933 326.877 6.9885C327.368 6.45517 327.86 5.92645 328.352 5.40234V6.92164H381.659V193.122H382.775C382.267 193.541 381.759 193.957 381.251 194.369C380.236 195.194 379.221 196.009 378.205 196.813C374.143 200.022 370.085 203.046 366.032 205.885C358.364 211.293 350.347 216.189 342.033 220.54C326.305 228.697 311.276 233.546 297.874 234.604C291.174 235.134 284.883 234.717 279.115 233.292C277.671 232.934 276.262 232.513 274.886 232.031C274.199 231.791 273.521 231.534 272.851 231.258H273.279V225.933Z" fill="#ADAEF8"/>
<path d="M273.279 224.238V85.8507H272.341C273.594 83.4392 274.888 81.0208 276.223 78.5955C278.896 73.7525 281.74 68.8957 284.754 64.025C290.766 54.2983 297.434 44.567 304.746 34.9601C312.059 25.3533 319.647 16.3228 327.414 7.93099C327.901 7.40535 328.387 6.88278 328.873 6.36328V6.92351H381.668V191.821H382.639C382.136 192.236 381.634 192.647 381.133 193.054C380.131 193.87 379.127 194.675 378.122 195.468C374.108 198.64 370.099 201.628 366.097 204.432C358.521 209.774 350.6 214.61 342.388 218.91C326.849 226.979 311.999 231.758 298.761 232.807C292.14 233.331 285.925 232.918 280.226 231.509C277.422 230.824 274.693 229.864 272.078 228.644H273.288L273.279 224.238Z" fill="#AEAFF8"/>
<path d="M273.28 222.539V89.4079H271.717C272.315 88.2198 272.923 87.0302 273.54 85.839C274.77 83.4552 276.048 81.0667 277.374 78.6737C280.013 73.886 282.818 69.0876 285.789 64.2784C291.728 54.6693 298.319 45.0579 305.538 35.5686C312.756 26.0794 320.258 17.1573 327.931 8.86915C328.89 7.8317 329.851 6.805 330.815 5.78906V6.92104H381.659V190.518H382.482C381.987 190.927 381.492 191.333 380.995 191.735C380.006 192.541 379.015 193.335 378.024 194.119C374.058 197.253 370.098 200.205 366.144 202.975C358.659 208.249 350.835 213.024 342.722 217.268C327.373 225.227 312.705 229.948 299.629 230.995C293.091 231.511 286.949 231.106 281.319 229.713C278.55 229.037 275.855 228.088 273.273 226.882L273.28 222.539Z" fill="#AFB0F7"/>
<path d="M273.279 220.841V89.3539H272.938C273.528 88.1797 274.128 87.0047 274.739 85.8289C275.96 83.4742 277.223 81.115 278.526 78.7511C281.139 74.0234 283.906 69.2842 286.826 64.5334C292.691 55.0441 299.202 45.5503 306.33 36.1763C313.459 26.8023 320.866 17.9932 328.444 9.80652C329.391 8.7829 330.341 7.76927 331.294 6.76562V6.91779H381.659V189.215H382.336C381.845 189.619 381.355 190.019 380.868 190.416C379.889 191.213 378.91 191.999 377.931 192.772C374.016 195.866 370.105 198.781 366.198 201.517C358.807 206.73 351.079 211.449 343.065 215.642C327.907 223.504 313.419 228.177 300.504 229.2C294.049 229.71 287.981 229.309 282.42 227.935C279.686 227.265 277.024 226.329 274.473 225.138C273.843 224.843 273.224 224.536 272.615 224.216H273.279V220.841Z" fill="#B0B0F7"/>
<path d="M273.28 219.143V92.7718H272.448C281.439 74.282 293.065 55.3035 307.145 36.7907C314.183 27.5343 321.501 18.8359 328.984 10.7506C329.92 9.73777 330.859 8.73874 331.799 7.75354L333.21 6.27344V6.92819H381.659V187.913H382.187C381.706 188.313 381.223 188.709 380.737 189.101C379.771 189.888 378.804 190.663 377.837 191.427C373.975 194.482 370.114 197.361 366.254 200.063C358.955 205.21 351.325 209.869 343.412 214.011C328.443 221.773 314.133 226.389 301.381 227.399C295.004 227.904 289.015 227.507 283.523 226.149C280.826 225.487 278.2 224.56 275.685 223.383C274.446 222.801 273.239 222.155 272.067 221.448H273.289L273.28 219.143Z" fill="#B1B1F6"/>
<path d="M273.279 217.451V96.0918H272.053C272.588 94.9544 273.132 93.8155 273.685 92.6751C282.559 74.4251 294.047 55.6795 307.951 37.3949C314.9 28.2561 322.125 19.666 329.514 11.6845C331.358 9.68643 333.215 7.7291 335.084 5.8125V6.91451H381.654V186.613H382.039C381.562 187.005 381.085 187.397 380.607 187.784C379.653 188.56 378.698 189.329 377.744 190.09C373.926 193.107 370.113 195.95 366.304 198.62C359.099 203.698 351.566 208.294 343.755 212.379C328.974 220.045 314.851 224.598 302.256 225.598C295.96 226.096 290.038 225.702 284.627 224.363C281.96 223.712 279.365 222.799 276.878 221.638C275.655 221.063 274.462 220.426 273.305 219.729C273.017 219.553 272.731 219.374 272.445 219.192H273.279V217.451Z" fill="#B2B1F6"/>
<path d="M273.28 215.752V99.3123H271.756C272.77 97.076 273.825 94.8321 274.919 92.5804C283.68 74.5633 295.02 56.0574 308.742 38.0149C315.603 28.9937 322.736 20.5142 330.029 12.6342C331.853 10.6622 333.687 8.72948 335.529 6.83594V6.92355H381.659V185.313H381.89C381.429 185.7 380.949 186.087 380.476 186.465C379.536 187.234 378.594 187.989 377.65 188.732C373.881 191.71 370.116 194.516 366.353 197.149C359.24 202.168 351.802 206.712 344.089 210.751C329.498 218.318 315.555 222.818 303.122 223.8C296.897 224.291 291.069 223.904 285.718 222.583C283.085 221.939 280.523 221.037 278.068 219.89C276.861 219.325 275.684 218.696 274.543 218.006C273.971 217.661 273.41 217.3 272.858 216.925H273.268L273.28 215.752Z" fill="#B3B2F5"/>
<path d="M273.28 214.054V99.125H273.05C274.05 96.9209 275.091 94.7069 276.173 92.4829C284.819 74.701 296.012 56.4349 309.556 38.6252C316.328 29.7216 323.366 21.3528 330.566 13.5742C332.366 11.6284 334.175 9.72098 335.993 7.85202C336.454 7.39093 336.915 6.92984 337.358 6.46875V6.92984H381.66V182.859H383.144C381.286 184.404 379.43 185.914 377.577 187.389C373.856 190.33 370.14 193.096 366.43 195.689C359.408 200.64 352.066 205.122 344.454 209.107C315.652 224.044 289.404 226.87 272.54 214.045L273.28 214.054Z" fill="#B5B3F5"/>
<path d="M273.831 212.355C273.312 211.958 272.802 211.55 272.307 211.131H273.289V102.196H272.892C273.364 101.108 273.844 100.026 274.333 98.9497C275.323 96.7734 276.35 94.5878 277.416 92.393C285.946 74.8462 296.993 56.8198 310.358 39.2454C317.044 30.4593 323.988 22.1988 331.093 14.524C332.869 12.6058 334.654 10.7238 336.449 8.8779C337.345 7.95572 338.244 7.04199 339.146 6.13672V6.9321H381.659V181.563H382.98C381.145 183.1 379.31 184.593 377.475 186.041C373.804 188.941 370.138 191.674 366.475 194.239C359.546 199.126 352.301 203.55 344.788 207.481C316.364 222.222 290.464 225.012 273.831 212.355Z" fill="#B6B3F5"/>
<path d="M275.113 210.658C274.09 209.881 273.111 209.049 272.178 208.166H273.28V105.174H272.819C274.611 100.919 276.56 96.6243 278.665 92.2916C287.083 74.9776 297.983 57.1933 311.172 39.8517C317.766 31.1809 324.62 23.0334 331.628 15.46C333.381 13.5664 335.143 11.709 336.915 9.88771C337.797 8.97936 338.684 8.0787 339.575 7.18572C340.02 6.74076 340.465 6.29581 340.91 5.85547V6.92751H381.659V180.277H382.812C381.001 181.789 379.191 183.262 377.38 184.694C373.761 187.558 370.144 190.253 366.531 192.782C359.694 197.603 352.546 201.968 345.134 205.847C317.088 220.394 291.532 223.145 275.113 210.658Z" fill="#B7B4F4"/>
<path d="M276.404 208.96C275.395 208.194 274.428 207.375 273.508 206.505C273.047 206.071 272.6 205.624 272.164 205.167H273.28V108.036H272.837C273.261 106.993 273.694 105.946 274.135 104.896C275.901 100.699 277.822 96.4629 279.899 92.1886C288.199 75.1075 298.956 57.563 311.963 40.4565C318.469 31.9033 325.229 23.8572 332.145 16.3945C335.603 12.6596 339.094 9.06852 342.619 5.62109V6.92137H381.659V178.991H382.648C380.864 180.484 379.078 181.936 377.29 183.349C373.717 186.174 370.148 188.834 366.584 191.33C359.839 196.086 352.787 200.391 345.475 204.218C317.812 218.564 292.602 221.28 276.404 208.96Z" fill="#B8B4F4"/>
<path d="M277.695 207.265C275.706 205.753 273.883 204.033 272.259 202.135H273.28V110.802H272.957C273.753 108.755 274.587 106.696 275.456 104.626C277.199 100.485 279.095 96.307 281.144 92.0911C289.333 75.2452 299.938 57.9427 312.77 41.0691C319.186 32.6335 325.854 24.7004 332.673 17.3368C336.085 13.6481 339.53 10.1061 343.006 6.71094V6.92304H381.66V177.706H382.485C380.727 179.177 378.965 180.61 377.201 182.004C373.678 184.789 370.158 187.412 366.642 189.875C359.99 194.566 353.036 198.813 345.824 202.587C318.536 216.738 293.67 219.414 277.695 207.265Z" fill="#B9B5F3"/>
<path d="M278.984 205.565C277.024 204.073 275.228 202.378 273.626 200.507C273.222 200.046 272.833 199.562 272.455 199.071H273.28V116.471H272.081C275.057 108.128 278.498 99.9589 282.386 92.0008C290.456 75.39 300.92 58.325 313.572 41.6865C319.901 33.3685 326.483 25.5484 333.201 18.2839C336.564 14.6505 339.96 11.1577 343.389 7.80559C344.246 6.96948 345.104 6.14105 345.962 5.32031V6.93413H381.659V176.413H382.321C380.584 177.862 378.847 179.275 377.111 180.65C373.634 183.395 370.163 185.983 366.697 188.413C360.141 193.038 353.287 197.226 346.178 200.947C319.26 214.914 294.739 217.547 278.984 205.565Z" fill="#BAB5F3"/>
<path d="M280.286 203.868C278.347 202.398 276.569 200.727 274.983 198.881C274.193 197.959 273.446 196.994 272.742 195.986H273.273V118.954H272.447C272.776 117.978 273.115 116.999 273.464 116.019C276.4 107.794 279.794 99.7403 283.629 91.8945C291.592 75.5258 301.902 58.6959 314.377 42.288C320.601 34.0875 327.098 26.3804 333.729 19.215C337.044 15.6324 340.392 12.1888 343.773 8.88429C344.617 8.05894 345.463 7.24204 346.309 6.43359V6.92004H381.659V175.131H382.155C380.444 176.562 378.732 177.954 377.018 179.308C373.592 182.018 370.17 184.568 366.752 186.96C360.285 191.521 353.524 195.65 346.512 199.319C319.983 213.069 295.808 215.681 280.286 203.868Z" fill="#BBB6F2"/>
<path d="M281.566 202.173C277.73 199.23 274.542 195.527 272.201 191.296H273.28V121.344H272.909C273.524 119.438 274.172 117.517 274.855 115.58C277.748 107.475 281.093 99.537 284.872 91.8043C292.722 75.6661 302.88 59.0669 315.182 42.9033C321.328 34.8181 327.719 27.2262 334.255 20.1577C337.524 16.6227 340.825 13.2283 344.157 9.97452C344.988 9.15993 345.822 8.35456 346.658 7.5584C347.075 7.15956 347.493 6.76533 347.91 6.37109V6.9221H381.66V173.837H381.992C380.301 175.248 378.61 176.62 376.92 177.955C373.538 180.624 370.165 183.139 366.801 185.498C360.426 189.994 353.761 194.064 346.849 197.68C320.706 211.25 296.886 213.816 281.566 202.173Z" fill="#BCB7F2"/>
<path d="M282.856 200.477C279.079 197.575 275.939 193.925 273.634 189.757C273.036 188.696 272.482 187.596 271.97 186.458H273.286V126.412H272.631C273.684 122.723 274.888 118.965 276.244 115.136C279.094 107.146 282.389 99.3226 286.114 91.7011C293.848 75.7934 303.866 59.4478 315.983 43.5171C322.042 35.5494 328.34 28.0705 334.782 21.1012C338.009 17.623 341.262 14.2778 344.539 11.0655C346.18 9.46091 347.826 7.8909 349.477 6.35547V6.92492H381.659V172.56H381.827C380.162 173.944 378.499 175.296 376.836 176.618C373.507 179.249 370.182 181.728 366.862 184.053C360.58 188.484 354.011 192.494 347.199 196.057C321.429 209.422 297.945 211.951 282.856 200.477Z" fill="#BDB7F1"/>
<path d="M284.147 198.778C280.422 195.919 277.327 192.323 275.055 188.214C273.852 186.064 272.838 183.813 272.025 181.487H273.28V131.228H272.627C273.071 129.439 273.553 127.635 274.073 125.815C275.112 122.172 276.298 118.468 277.632 114.702C280.441 106.831 283.688 99.1226 287.357 91.6133C294.978 75.9362 304.848 59.835 316.788 44.1348C322.757 36.2847 328.963 28.905 335.31 22.0486C338.482 18.6211 341.687 15.3251 344.924 12.1605C346.539 10.5789 348.161 9.03274 349.788 7.5219C350.194 7.1438 350.602 6.76801 351.008 6.39453V6.9317H381.67V171.274C380.034 172.643 378.394 173.976 376.753 175.271C373.475 177.863 370.199 180.304 366.927 182.596C360.739 186.961 354.27 190.913 347.561 194.425C322.153 207.594 299.013 210.086 284.147 198.778Z" fill="#BEB8F1"/>
<path d="M285.438 197.081C281.769 194.266 278.719 190.725 276.479 186.678C275.296 184.56 274.298 182.343 273.496 180.052C273.081 178.875 272.706 177.663 272.371 176.417H273.279V135.753H272.888C278.706 108.184 294.068 75.6661 317.59 44.7361C323.471 37.0036 329.579 29.7345 335.836 22.9795C338.962 19.5982 342.119 16.3513 345.306 13.239C346.9 11.6836 348.498 10.1604 350.099 8.66956C350.899 7.92413 351.7 7.18792 352.504 6.46094V6.92203H381.659V168.968H382.708L381.495 169.987C379.881 171.335 378.268 172.647 376.654 173.925C373.426 176.479 370.198 178.884 366.971 181.141C360.874 185.438 354.499 189.328 347.889 192.783C322.877 205.765 300.083 208.23 285.438 197.081Z" fill="#BFB8F0"/>
<path d="M286.741 195.384C279.53 189.899 275.006 181.588 273.003 171.255H273.291V154.335H271.866C272.159 147.826 273 141.353 274.379 134.986C280.111 107.834 295.239 75.8091 318.413 45.3471C329.996 30.115 342.494 16.7157 355.174 5.52734V6.91062H381.687V167.695H382.551C382.155 168.032 381.757 168.366 381.359 168.698C379.759 170.029 378.16 171.323 376.561 172.578C373.38 175.093 370.202 177.461 367.028 179.684C361.024 183.923 354.746 187.759 348.234 191.169C323.601 203.937 301.152 206.353 286.741 195.384Z" fill="#C0B9F0"/>
<path d="M288.018 193.686C280.92 188.287 276.465 180.103 274.492 169.926C272.519 159.75 273.028 147.596 275.85 134.224C281.491 107.481 296.387 75.9583 319.192 45.9644C330.598 30.9674 342.904 17.7733 355.388 6.75781V6.92842H381.659V166.424H382.35C381.958 166.756 381.567 167.084 381.177 167.411C379.611 168.721 378.045 169.994 376.478 171.231C373.346 173.707 370.218 176.04 367.093 178.228C361.18 182.398 354.998 186.171 348.587 189.525C324.32 202.106 302.22 204.487 288.018 193.686Z" fill="#C1BAEF"/>
<path d="M289.309 191.991C275.331 181.361 271.776 159.768 277.321 133.451C282.865 107.134 297.537 76.0961 319.993 46.5701C331.22 31.8152 343.331 18.8194 355.621 7.9768C356.389 7.299 357.158 6.62965 357.926 5.96875V6.92321H381.659V165.156H382.157C381.772 165.481 381.387 165.806 381.004 166.126C379.467 167.416 377.926 168.669 376.382 169.887C373.297 172.324 370.217 174.62 367.141 176.775C361.322 180.88 355.238 184.596 348.928 187.897C325.046 200.279 303.289 202.622 289.309 191.991Z" fill="#C2BAEF"/>
<path d="M290.601 190.294C276.844 179.832 273.347 158.58 278.811 132.683C284.275 106.786 298.707 76.2383 320.805 47.1803C331.855 32.656 343.774 19.8722 355.868 9.20028C356.624 8.53169 357.381 7.87233 358.139 7.2222C358.517 6.89636 358.896 6.5736 359.276 6.25391V6.92249H381.659V162.914H383.109C382.352 163.564 381.594 164.206 380.836 164.839C379.319 166.107 377.802 167.341 376.285 168.539C373.251 170.939 370.22 173.198 367.193 175.317C361.465 179.358 355.476 183.014 349.265 186.264C325.77 198.45 304.357 200.756 290.601 190.294Z" fill="#C3BBEE"/>
<path d="M291.891 188.595C278.356 178.301 274.914 157.393 280.286 131.917C285.657 106.442 299.859 76.3813 321.602 47.7936C332.472 33.4998 344.195 20.9259 356.1 10.4245C357.588 9.11349 359.078 7.83396 360.568 6.58594V6.92484H381.652V161.658H382.901C382.156 162.299 381.411 162.93 380.665 163.553C379.179 164.799 377.688 166.012 376.192 167.191C373.206 169.552 370.224 171.775 367.247 173.86C361.612 177.835 355.719 181.433 349.608 184.629C326.494 196.62 305.427 198.889 291.891 188.595Z" fill="#C4BBEE"/>
<path d="M293.183 186.897C279.869 176.774 276.484 156.209 281.773 131.146C287.062 106.084 301.035 76.5209 322.411 48.4013C333.104 34.338 344.64 21.9738 356.345 11.6454C357.808 10.3544 359.274 9.09558 360.742 7.86908C361.475 7.25429 362.209 6.64949 362.943 6.05469V6.92154H381.659V160.4H382.708C381.975 161.032 381.242 161.654 380.509 162.265C379.042 163.495 377.575 164.688 376.105 165.846C373.168 168.168 370.235 170.354 367.305 172.405C361.763 176.316 355.967 179.855 349.957 182.998C327.218 194.791 306.497 197.022 293.183 186.897Z" fill="#C5BCEE"/>
<path d="M294.473 185.202C281.381 175.247 278.052 155.026 283.253 130.38C288.454 105.735 302.188 76.6632 323.216 49.0138C333.731 35.1811 345.074 23.0268 356.582 12.8712C359.46 10.3337 362.344 7.92219 365.235 5.63672V6.92316H381.659V159.148H382.507C381.785 159.762 381.064 160.373 380.345 160.981C378.901 162.187 377.458 163.361 376.013 164.501C373.126 166.783 370.242 168.935 367.36 170.956C361.91 174.801 356.21 178.281 350.3 181.372C327.939 192.964 307.564 195.159 294.473 185.202Z" fill="#C6BDED"/>
<path d="M295.764 183.503C282.893 173.717 279.626 153.837 284.735 129.611C289.844 105.385 303.34 76.8185 324.018 49.6141C334.355 36.0119 345.507 24.0674 356.82 14.0848C359.648 11.5872 362.483 9.2164 365.327 6.97243C366.037 6.41143 366.747 5.85812 367.457 5.3125V6.91249H381.659V157.89H382.304C381.597 158.505 380.889 159.106 380.179 159.693C378.761 160.878 377.343 162.03 375.923 163.151C373.082 165.396 370.247 167.51 367.416 169.493C362.057 173.272 356.455 176.692 350.646 179.732C328.663 191.134 308.643 193.292 295.764 183.503Z" fill="#C8BDED"/>
<path d="M297.054 181.808C271.756 162.583 284.192 103.664 324.823 50.2354C334.981 36.8799 345.939 25.129 357.06 15.3193C359.838 12.8602 362.624 10.5301 365.42 8.32917C366.116 7.77894 366.813 7.23562 367.511 6.69922V6.92976H381.659V156.637H382.104C381.408 157.233 380.712 157.823 380.016 158.407C378.62 159.572 377.225 160.706 375.831 161.808C373.042 164.015 370.255 166.09 367.472 168.033C362.206 171.747 356.7 175.109 350.99 178.096C329.392 189.307 309.702 191.426 297.054 181.808Z" fill="#C9BEEC"/>
<path d="M298.345 180.103C273.494 161.198 285.709 103.332 325.627 50.8387C335.606 37.716 346.377 26.1703 357.298 16.5335C360.027 14.1251 362.765 11.8366 365.51 9.66789C366.882 8.59201 368.252 7.53995 369.62 6.51172V6.91517H381.659V155.38H381.904C381.218 155.967 380.533 156.547 379.849 157.12C378.488 158.264 377.115 159.377 375.732 160.461C372.99 162.628 370.253 164.669 367.52 166.584C362.346 170.233 356.937 173.536 351.326 176.47C330.112 187.481 310.771 189.556 298.345 180.103Z" fill="#CABEEC"/>
<path d="M299.635 178.412C275.228 159.849 287.223 103.01 326.429 51.4577C336.232 38.5702 346.805 27.232 357.535 17.7658C360.218 15.4004 362.908 13.1526 365.604 11.0223C366.95 9.95722 368.296 8.92361 369.641 7.92151C370.314 7.42046 370.986 6.92709 371.658 6.44141V6.92325H381.661V154.122H381.703C381.033 154.701 380.361 155.272 379.688 155.833C378.34 156.95 376.993 158.047 375.649 159.122C372.956 161.251 370.266 163.256 367.58 165.137C362.496 168.721 357.182 171.964 351.672 174.848C330.835 185.647 311.841 187.692 299.635 178.412Z" fill="#CBBFEB"/>
<path d="M300.926 176.718C276.961 158.491 288.74 102.685 327.234 52.0713C336.857 39.4167 347.238 28.286 357.772 18.9904C362.815 14.5233 368.103 10.3416 373.613 6.46484V6.92593H381.659V152.015H382.489L381.495 152.87C380.836 153.438 380.176 153.997 379.515 154.549C378.196 155.651 376.875 156.727 375.552 157.776C372.91 159.868 370.27 161.836 367.632 163.681C362.643 167.2 357.427 170.385 352.018 173.216C331.557 183.821 312.908 185.829 300.926 176.718Z" fill="#CCBFEB"/>
<path d="M302.217 175.016C278.702 157.13 290.257 102.358 328.038 52.6796C337.491 40.2601 347.674 29.3346 358.009 20.2119C362.958 15.8267 368.148 11.722 373.555 7.91689C374.201 7.46502 374.846 7.02007 375.492 6.58203V6.92093H381.656V149.924H383.236C372.896 159.044 362.408 166.364 352.366 171.574C332.281 181.99 313.977 183.961 302.217 175.016Z" fill="#CDC0EA"/>
<path d="M303.509 173.322C280.432 155.773 291.772 102.032 328.841 53.3043C338.107 41.1177 348.106 30.3996 358.25 21.4475C363.106 17.1469 368.198 13.1206 373.503 9.38769C374.771 8.49932 376.036 7.64093 377.3 6.8125V6.93469H381.659V148.72H383.001C372.857 157.67 362.566 164.858 352.712 169.963C333.005 180.164 315.046 182.096 303.509 173.322Z" fill="#CEC1EA"/>
<path d="M304.798 171.624C282.165 154.411 293.289 101.718 329.643 53.9029C338.734 41.9514 348.548 31.4385 358.487 22.6593C363.25 18.4411 368.244 14.4919 373.447 10.8301C375.934 9.08867 378.409 7.46563 380.873 5.96094V6.92232H381.659V147.477H382.763C372.813 156.256 362.72 163.299 353.055 168.311C333.729 178.333 316.115 180.23 304.798 171.624Z" fill="#CFC1E9"/>
<path d="M306.088 169.926C283.901 153.05 294.81 101.378 330.448 54.5122C339.358 42.7959 348.97 32.4882 358.724 23.882C363.394 19.7463 368.29 15.8748 373.392 12.2855C375.831 10.578 378.258 8.98644 380.672 7.51095C381.276 7.14207 381.878 6.78165 382.477 6.42969L381.659 6.92075V146.251H382.523C372.771 154.857 362.876 161.762 353.401 166.677C334.464 176.503 317.185 178.364 306.088 169.926Z" fill="#D0C2E9"/>
<path d="M307.38 168.231C285.635 151.694 296.314 101.054 331.251 55.1251C339.984 43.6416 349.404 33.5414 358.962 25.1081C363.539 21.0554 368.338 17.2609 373.337 13.7422C375.727 12.0684 378.105 10.5092 380.472 9.06442C381.062 8.70169 381.652 8.34819 382.243 8.00391H381.659V145.029H382.286C372.728 153.464 363.031 160.231 353.745 165.047C335.175 174.677 318.252 176.498 307.38 168.231Z" fill="#D1C2E8"/>
<path d="M308.671 166.532C287.368 150.331 297.835 100.725 332.055 55.734C340.608 44.4857 349.837 34.5907 359.202 26.3303C363.684 22.359 368.384 18.6414 373.281 15.1949C375.622 13.5488 377.952 12.0218 380.271 10.614C380.849 10.2589 381.427 9.91235 382.005 9.57422H381.659V143.805H382.049C372.684 152.065 363.186 158.696 354.091 163.413C335.898 172.846 319.322 174.631 308.671 166.532Z" fill="#D2C3E8"/>
<path d="M309.962 164.834C289.104 148.979 299.354 100.401 332.85 56.346C341.226 45.3328 350.263 35.643 359.432 27.5532C363.823 23.6633 368.428 20.0219 373.226 16.6461C375.517 15.0384 377.799 13.5421 380.071 12.1573C380.638 11.8115 381.203 11.4726 381.767 11.1406H381.659V142.575H381.811C372.642 150.664 363.34 157.154 354.434 161.774C336.622 171.019 320.401 172.767 309.962 164.834Z" fill="#D3C3E8"/>
<path d="M311.253 163.139C290.838 147.614 300.878 100.075 333.662 56.9587C341.86 46.1807 350.704 36.7053 359.676 28.7792C363.972 24.9742 368.477 21.4121 373.17 18.1095C375.414 16.5387 377.647 15.0748 379.868 13.7176C380.979 13.0398 382.085 12.3905 383.185 11.7695H381.659V139.856H383.254C382.695 140.363 382.134 140.864 381.571 141.359C372.599 149.276 363.494 155.63 354.78 160.151C337.346 169.191 321.459 170.901 311.253 163.139Z" fill="#D4C4E7"/>
<path d="M312.544 161.439C292.572 146.25 302.4 99.747 334.464 57.5665C342.485 47.0213 351.137 37.7396 359.914 30.0001C364.116 26.2777 368.523 22.7933 373.115 19.5634C375.31 18.0264 377.494 16.5939 379.667 15.266C380.752 14.6036 381.833 13.968 382.911 13.3594H381.659V138.663H382.978C382.432 139.158 381.884 139.648 381.334 140.132C372.555 147.878 363.651 154.094 355.123 158.515C338.07 167.359 322.529 169.035 312.544 161.439Z" fill="#D5C5E7"/>
<path d="M313.832 159.743C294.307 144.893 303.903 99.4204 335.273 58.1781C343.111 47.8681 351.572 38.7984 360.158 31.225C364.267 27.5844 368.578 24.177 373.069 21.0188C375.22 19.5156 377.356 18.1154 379.475 16.8182C380.537 16.1696 381.595 15.5479 382.648 14.9531H381.668V137.472H382.712C382.177 137.956 381.639 138.435 381.098 138.908C372.515 146.482 363.808 152.559 355.469 156.891C338.791 165.532 323.596 167.168 313.832 159.743Z" fill="#D6C5E6"/>
<path d="M315.123 158.046C296.041 143.534 305.415 99.096 336.078 58.7897C343.739 48.7149 352.006 39.8504 360.396 32.4499C364.411 28.8924 368.622 25.562 373.009 22.4742C375.107 21.0064 377.194 19.6385 379.27 18.3705C380.308 17.7373 381.341 17.1294 382.369 16.5469H381.663V136.281H382.433C381.911 136.756 381.387 137.224 380.863 137.687C372.474 145.087 363.964 151.026 355.817 155.252C339.515 163.704 324.666 165.302 315.123 158.046Z" fill="#D7C6E6"/>
<path d="M316.415 156.358C297.775 142.182 306.937 98.7771 336.875 59.4092C344.361 49.5672 352.435 40.9102 360.622 33.6803C364.544 30.2067 368.657 26.9548 372.942 23.9397C374.989 22.5027 377.028 21.1655 379.058 19.9283C380.071 19.3135 381.08 18.7202 382.085 18.1484H381.652V135.093H382.148C381.637 135.554 381.126 136.015 380.615 136.476C372.421 143.706 364.107 149.506 356.149 153.633C340.239 161.875 325.733 163.438 316.415 156.358Z" fill="#D8C6E5"/>
<path d="M317.706 154.65C299.511 140.817 308.454 98.4426 337.68 60.0107C344.986 50.4038 352.868 41.952 360.866 34.895C364.695 31.504 368.711 28.329 372.893 25.385C374.892 23.9849 376.882 22.6784 378.865 21.4658C379.85 20.8648 380.835 20.2877 381.82 19.7344H381.659V133.898H381.889C381.391 134.35 380.892 134.797 380.391 135.238C372.393 142.295 364.28 147.957 356.511 151.987C340.963 160.044 326.803 161.571 317.706 154.65Z" fill="#D9C7E5"/>
<path d="M318.997 152.954C301.245 139.455 309.969 98.116 338.483 60.6224C345.611 51.2507 353.302 43.0041 361.106 36.12C364.841 32.811 368.758 29.7137 372.839 26.8429C374.789 25.4765 376.73 24.2031 378.662 23.0227C379.628 22.4325 380.589 21.8677 381.546 21.3282C382.026 21.0577 382.503 20.7934 382.978 20.5352H381.659V131.37H383.066C382.093 132.274 381.119 133.155 380.145 134.014C372.341 140.91 364.435 146.424 356.846 150.362C341.687 158.217 327.873 159.704 318.997 152.954Z" fill="#DAC7E4"/>
<path d="M320.288 151.256C302.979 138.094 311.486 97.7973 339.287 61.2328C345.838 52.5655 353.226 44.5639 361.344 37.3437C364.986 34.1176 368.805 31.0974 372.783 28.2971C374.686 26.9645 376.579 25.7234 378.462 24.5738C379.402 23.999 380.34 23.4479 381.274 22.9208C381.735 22.6579 382.2 22.4005 382.669 22.1484H381.659V130.212H382.755C381.808 131.093 380.859 131.953 379.907 132.792C372.299 139.503 364.581 144.891 357.192 148.722C342.409 156.388 328.931 157.838 320.288 151.256Z" fill="#DBC8E4"/>
<path d="M321.579 149.561C304.715 136.736 313.003 97.4579 340.09 61.8478C346.474 53.4008 353.672 45.6016 361.581 38.5627C365.133 35.422 368.857 32.4811 372.735 29.7536C374.589 28.4564 376.433 27.2476 378.268 26.1271C379.19 25.5677 380.103 25.0297 381.007 24.5133C381.468 24.2574 381.915 24.0061 382.37 23.7617H381.678V129.056H382.462C381.54 129.914 380.617 130.752 379.695 131.569C372.281 138.11 364.76 143.357 357.563 147.092C343.133 154.562 330.01 155.973 321.579 149.561Z" fill="#DCC9E3"/>
<path d="M322.868 147.864C306.448 135.375 314.52 97.1438 340.894 62.4582C347.109 54.2351 354.118 46.6429 361.818 39.791C365.274 36.7307 368.897 33.8659 372.672 31.2101C374.477 29.9436 376.273 28.7656 378.06 27.6758C378.952 27.1318 379.841 26.6092 380.728 26.1081C381.17 25.8592 381.611 25.6148 382.053 25.375H381.659V127.899H382.12C381.229 128.735 380.329 129.55 379.42 130.345C372.214 136.712 364.896 141.833 357.878 145.459C343.857 152.731 331.08 154.107 322.868 147.864Z" fill="#DDC9E3"/>
<path d="M324.158 146.167C308.182 134.017 316.034 96.8117 341.696 63.0691C354.521 46.1954 369.382 33.384 383.026 26.3086H381.659V126.741H381.82C380.947 127.553 380.071 128.346 379.192 129.12C372.169 135.317 365.046 140.29 358.212 143.827C344.58 150.902 332.158 152.242 324.158 146.167Z" fill="#DECAE3"/>
<path d="M325.45 144.468C309.918 132.655 317.551 96.4849 342.51 63.6783C354.983 47.2749 369.417 34.8186 382.681 27.9414H381.659V124.383H382.782C382.358 124.787 381.934 125.187 381.509 125.582C380.661 126.37 379.809 127.139 378.955 127.887C372.126 133.914 365.201 138.746 358.568 142.181C345.3 149.072 333.217 150.373 325.45 144.468Z" fill="#DFCAE2"/>
<path d="M326.74 142.772C311.651 131.298 319.068 96.1603 343.303 64.2921C355.423 48.3568 369.451 36.2577 382.337 29.5742H381.659V123.261H382.436C382.022 123.654 381.61 124.039 381.198 124.414C380.372 125.182 379.545 125.932 378.717 126.664C372.084 132.515 365.345 137.211 358.913 140.552C346.026 147.247 334.284 148.52 326.74 142.772Z" fill="#E0CBE2"/>
<path d="M328.031 141.072C313.385 129.934 320.585 95.8319 344.107 64.8996C355.865 49.4347 369.486 37.6953 381.993 31.2031H381.659V122.135H382.087C381.689 122.515 381.287 122.893 380.886 123.265C380.086 124.01 379.283 124.738 378.477 125.448C372.04 131.128 365.509 135.686 359.257 138.928C346.749 145.413 335.354 146.642 328.031 141.072Z" fill="#E1CBE1"/>
<path d="M329.323 139.378C315.121 128.579 322.1 95.5074 344.913 65.5227C356.318 50.5372 369.521 39.1368 381.648 32.8475C382.029 32.6508 382.407 32.4594 382.782 32.2734H381.659V119.904H382.899C381.363 121.413 379.809 122.857 378.24 124.236C371.999 129.743 365.666 134.163 359.601 137.308C347.474 143.588 336.424 144.777 329.323 139.378Z" fill="#E2CCE1"/>
<path d="M330.612 137.683C316.855 127.218 323.628 95.1815 345.715 66.1236C356.765 51.5992 369.555 40.563 381.304 34.4697C381.671 34.2791 382.037 34.0939 382.401 33.9141H381.659V118.806H382.517C381.021 120.269 379.517 121.667 378.003 123.001C371.955 128.339 365.818 132.611 359.946 135.665C348.198 141.759 337.491 142.911 330.612 137.683Z" fill="#E3CCE0"/>
<path d="M331.902 135.985C318.591 125.86 325.134 94.8559 346.519 66.7362C357.212 52.673 369.59 41.9987 380.958 36.1037C381.671 35.7348 382.378 35.3851 383.079 35.0547H381.659V117.719H382.12C380.675 119.135 379.22 120.489 377.753 121.781C371.9 126.943 365.963 131.086 360.278 134.035C348.921 139.932 338.561 141.048 331.902 135.985Z" fill="#E4CDE0"/>
<path d="M333.194 134.286C320.325 124.497 326.649 94.528 347.322 67.3444C357.657 53.7422 369.625 43.4322 380.615 37.7331C381.302 37.375 381.985 37.0369 382.665 36.7188H381.659V116.628H381.749C380.349 117.996 378.942 119.302 377.528 120.547C371.87 125.539 366.13 129.539 360.636 132.393C349.644 138.101 339.629 139.178 333.194 134.286Z" fill="#E5CEDF"/>
<path d="M334.485 132.589C322.059 123.137 328.166 94.2034 348.127 67.9581C358.105 54.8354 369.659 44.8713 380.271 39.3704C380.932 39.0262 381.591 38.6996 382.247 38.3906H381.659V114.54H382.376C382.04 114.879 381.703 115.211 381.367 115.543C380.016 116.864 378.656 118.128 377.288 119.333C371.827 124.151 366.28 128.02 360.977 130.768C350.372 136.273 340.689 137.315 334.485 132.589Z" fill="#E6CEDF"/>
<path d="M335.776 130.892C323.788 121.781 329.683 93.8778 348.917 68.5685C358.54 55.9162 369.682 46.3071 379.914 40.9999C380.555 40.6679 381.19 40.3529 381.82 40.0547H381.648V112.501H382.916C382.27 113.165 381.621 113.816 380.97 114.454C379.668 115.727 378.361 116.945 377.05 118.108C371.782 122.756 366.445 126.484 361.325 129.137C351.091 134.456 341.768 135.45 335.776 130.892Z" fill="#E7CFDF"/>
<path d="M337.067 129.193C325.54 120.418 331.2 93.5483 349.733 69.1773C358.999 56.9907 369.738 47.7389 379.582 42.63C380.812 41.9922 382.028 41.4189 383.231 40.9102H381.659V111.482H382.473C381.851 112.123 381.226 112.75 380.599 113.364C379.344 114.593 378.083 115.766 376.813 116.882C371.741 121.359 366.595 124.951 361.669 127.503C351.815 132.61 342.835 133.58 337.067 129.193Z" fill="#E8CFDE"/>
<path d="M338.358 127.496C327.262 119.058 332.714 93.2233 350.535 69.7884C359.446 58.0721 369.763 49.1753 379.236 44.2624C380.421 43.6476 381.591 43.0966 382.745 42.6094H381.659V110.477H382.016C381.42 111.092 380.82 111.695 380.216 112.285C379.008 113.462 377.794 114.59 376.575 115.669C371.697 119.971 366.75 123.425 362.012 125.88C352.539 130.786 343.916 131.715 338.358 127.496Z" fill="#E9D0DE"/>
<path d="M339.647 125.802C328.998 117.7 334.234 92.8983 351.34 70.4017C359.893 59.1557 369.797 50.614 378.892 45.897C380.028 45.3069 381.151 44.7774 382.261 44.3086H381.659V108.559H382.418C382.132 108.859 381.846 109.159 381.558 109.454C380.983 110.044 380.406 110.623 379.828 111.19C378.671 112.321 377.506 113.404 376.333 114.438C371.653 118.57 366.902 121.883 362.355 124.241C353.263 128.958 344.972 129.846 339.647 125.802Z" fill="#EAD0DD"/>
<path d="M340.937 124.105C330.731 116.343 335.748 92.5734 352.142 71.0151C360.34 60.2348 369.832 52.0504 378.546 47.5294C379.638 46.9638 380.713 46.4566 381.774 46.0078H381.656V106.706H382.745C380.639 108.985 378.42 111.158 376.096 113.214C371.609 117.173 367.058 120.349 362.699 122.609C353.984 127.13 346.042 127.985 340.937 124.105Z" fill="#EBD1DD"/>
<path d="M342.228 122.405C332.465 114.979 337.265 92.2424 352.947 71.6224C360.785 61.3101 369.866 53.4808 378.203 49.158C379.245 48.617 380.274 48.1321 381.29 47.7033C381.799 47.4889 382.302 47.2883 382.802 47.1016H381.649V105.762H382.212C380.198 107.943 378.075 110.02 375.851 111.986C371.558 115.774 367.206 118.813 363.037 120.978C354.708 125.298 347.111 126.116 342.228 122.405Z" fill="#ECD1DC"/>
<path d="M343.52 120.708C334.201 113.621 338.78 91.9196 353.749 72.2356C361.235 62.3936 369.899 54.9193 377.86 50.7949C378.853 50.2784 379.835 49.8174 380.806 49.4116C381.29 49.2064 381.772 49.0174 382.249 48.8398H381.659V104.823H381.694C379.771 106.905 377.745 108.888 375.624 110.767C371.527 114.379 367.37 117.28 363.391 119.343C355.444 123.472 348.179 124.251 343.52 120.708Z" fill="#EDD2DC"/>
<path d="M344.811 119.01C335.935 112.259 340.297 91.591 354.554 72.8454C361.682 63.4714 369.934 56.3545 377.514 52.4237C379.29 51.4907 381.14 50.7087 383.047 50.0859H381.664V102.321H382.586C382.125 102.851 381.654 103.372 381.173 103.884C379.343 105.867 377.413 107.756 375.391 109.544C371.49 112.986 367.531 115.748 363.741 117.714C356.156 121.645 349.249 122.387 344.811 119.01Z" fill="#EED2DC"/>
<path d="M346.102 117.313C337.669 110.902 341.814 91.2615 355.359 73.4565C362.13 64.5505 369.968 57.7794 377.17 54.0561C378.854 53.1703 380.609 52.4276 382.418 51.8359H381.652V101.454H381.975C381.529 101.958 381.082 102.454 380.633 102.941C378.893 104.824 377.06 106.618 375.139 108.317C371.434 111.586 367.674 114.212 364.073 116.08C356.88 119.812 350.316 120.52 346.102 117.313Z" fill="#EFD3DB"/>
<path d="M347.394 115.616C339.405 109.542 343.331 90.9481 356.154 74.0676C362.57 65.6319 369.987 59.2251 376.818 55.6885C378.415 54.8485 380.08 54.1451 381.795 53.5859H381.653V99.1325H382.649C381.819 100.124 380.973 101.08 380.113 102C378.465 103.785 376.729 105.485 374.909 107.093C371.398 110.192 367.836 112.677 364.424 114.448C357.602 117.984 351.387 118.653 347.394 115.616Z" fill="#F0D4DB"/>
<path d="M348.682 113.921C341.15 108.174 344.838 90.6156 356.965 74.6803C363.024 66.7126 370.037 60.6631 376.481 57.3225C377.989 56.5288 379.561 55.864 381.182 55.3352C381.56 55.2153 381.935 55.1046 382.307 55.0078H381.659V98.3504H381.97C381.186 99.2848 380.392 100.187 379.586 101.057C378.029 102.742 376.389 104.348 374.671 105.868C371.353 108.796 367.985 111.143 364.769 112.815C358.325 116.158 352.446 116.789 348.682 113.921Z" fill="#F1D4DA"/>
<path d="M349.973 112.224C342.872 106.822 346.363 90.2877 357.768 75.2907C363.472 67.7911 370.072 62.0989 376.138 58.9543C377.561 58.2073 379.045 57.5818 380.574 57.0846C381.255 56.8636 381.948 56.6789 382.648 56.5312H381.652V96.2312H382.395C382.034 96.6923 381.668 97.1395 381.297 97.573C380.56 98.4521 379.811 99.3013 379.052 100.12C377.535 101.757 375.986 103.27 374.427 104.648C371.306 107.401 368.138 109.612 365.106 111.184C359.05 114.329 353.524 114.924 349.973 112.224Z" fill="#F2D5DA"/>
<path d="M351.264 110.525C344.608 105.464 347.88 89.9602 358.573 75.8969C363.919 68.8676 370.1 63.5281 375.792 60.5818C377.123 59.8818 378.512 59.2956 379.942 58.8296C380.587 58.6221 381.243 58.4482 381.906 58.3086H381.662V94.2345H382.681C371.986 108.295 357.92 115.588 351.264 110.525Z" fill="#F3D5D9"/>
<path d="M352.555 108.829C346.33 104.105 349.394 89.6364 359.375 76.5138C364.366 69.9525 370.141 64.9704 375.448 62.22C378.1 60.8367 380.636 60.0275 382.895 59.8477H381.659V93.6249H381.874C371.896 106.748 358.768 113.556 352.555 108.829Z" fill="#F4D6D9"/>
<path d="M353.846 107.129C348.082 102.748 350.911 89.3077 360.179 77.121C364.813 71.03 370.175 66.403 375.102 63.8462C377.567 62.569 379.921 61.8105 382.018 61.6445H381.659V90.714H382.733C382.203 91.4817 381.65 92.2494 381.071 93.0195C371.812 105.195 359.614 111.516 353.846 107.129Z" fill="#F5D6D9"/>
<path d="M355.137 105.436C349.812 101.385 352.428 88.9838 360.977 77.7424C365.256 72.1194 370.199 67.8474 374.754 65.489C377.028 64.3109 379.202 63.61 381.138 63.4555C381.606 63.4211 382.076 63.4211 382.544 63.4555H381.655V88.1493H383.188C382.309 89.5717 381.332 90.9965 380.262 92.4028C371.713 103.651 360.463 109.486 355.137 105.436Z" fill="#F5D7D8"/>
<path d="M356.425 103.739C351.545 100.025 353.945 88.6588 361.786 78.3465C365.705 73.1915 370.244 69.2769 374.413 67.1143C376.499 66.0354 378.491 65.3922 380.266 65.2515C381.098 65.1747 381.938 65.2331 382.751 65.4245H381.659V87.8865H382.145C381.338 89.1914 380.444 90.4963 379.464 91.785C371.623 102.102 361.308 107.451 356.425 103.739Z" fill="#F6D7D8"/>
<path d="M357.717 102.038C353.279 98.663 355.46 88.3277 362.589 78.9537C366.153 74.269 370.279 70.7094 374.07 68.7428C375.965 67.7607 377.775 67.1774 379.391 67.0483C380.147 66.9799 380.91 67.0336 381.65 67.2074C381.992 67.2908 382.325 67.4082 382.644 67.5578H381.659V84.0902H383.042C381.813 86.5904 380.341 88.9641 378.648 91.1772C371.531 100.549 362.155 105.404 357.717 102.038Z" fill="#F7D8D7"/>
<path d="M359.008 100.332C355.015 97.2961 356.977 87.9959 363.389 79.5602C369.8 71.1246 378.243 66.7465 382.236 69.7851H381.655V84.1942H381.805C380.699 86.4448 379.376 88.5814 377.853 90.5734C371.442 99.0021 363.004 103.378 359.008 100.332Z" fill="#F8D8D7"/>
<path d="M360.299 98.6434C356.749 95.9437 358.494 87.6763 364.195 80.179C369.897 72.6817 377.401 68.79 380.951 71.4897C382.727 72.8384 383.176 75.5819 382.471 78.9225C381.765 82.2631 379.905 86.2054 377.053 89.9587C371.352 97.4538 363.85 101.343 360.299 98.6434Z" fill="#F9D9D7"/>
<path d="M376.245 89.3337C381.234 82.7721 382.761 75.538 379.654 73.1758C376.548 70.8136 369.985 74.2179 364.995 80.7794C360.006 87.341 358.479 94.5751 361.586 96.9373C364.692 99.2995 371.255 95.8952 376.245 89.3337Z" fill="#FAD9D6"/>
<path d="M376.934 88.5099C381.244 82.8576 382.569 76.6215 379.893 74.5811C377.217 72.5408 371.554 75.4688 367.244 81.1211C362.934 86.7734 361.61 93.0095 364.286 95.0499C366.961 97.0903 372.625 94.1622 376.934 88.5099Z" fill="#FBDAD6"/>
<path d="M374.637 88.1081C378.201 83.4215 379.292 78.2547 377.073 76.5676C374.854 74.8806 370.167 77.3121 366.603 81.9987C363.039 86.6852 361.949 91.852 364.168 93.5391C366.386 95.2261 371.074 92.7946 374.637 88.1081Z" fill="#FCDAD5"/>
<path d="M373.835 87.5C376.686 83.751 377.558 79.6172 375.782 78.2669C374.006 76.9166 370.256 78.8612 367.405 82.6102C364.554 86.3593 363.683 90.493 365.458 91.8433C367.234 93.1936 370.985 91.249 373.835 87.5Z" fill="#FDDBD5"/>
<path d="M373.031 86.8873C375.17 84.0748 375.824 80.9738 374.492 79.9611C373.16 78.9484 370.347 80.4074 368.208 83.22C366.07 86.0325 365.416 89.1335 366.747 90.1462C368.079 91.1589 370.892 89.6998 373.031 86.8873Z" fill="#FDDBD5"/>
<path d="M368.043 88.4615C367.156 87.7883 367.582 85.7203 369.018 83.8506C370.455 81.9809 372.32 81.0034 373.207 81.6789C374.095 82.3544 373.668 84.4201 372.232 86.2898C370.796 88.1595 368.931 89.137 368.043 88.4615Z" fill="#FEDCD4"/>
<path d="M369.334 86.7636C368.889 86.427 369.104 85.3942 369.821 84.4582C370.538 83.5222 371.471 83.0357 371.916 83.3723C372.361 83.7089 372.147 84.7556 371.428 85.6778C370.708 86.5999 369.777 87.1025 369.334 86.7636Z" fill="#FFDCD4"/>
</g>
<path d="M388.581 221.168H386.603V223.312H388.581V221.168Z" fill="#353535"/>
<path d="M266.359 223.309H268.337V221.165H266.359V223.309Z" fill="#353535"/>
<path d="M363.817 4.79688H291.131C281.19 4.79688 273.131 12.8557 273.131 22.7969V224.948C273.131 234.889 281.19 242.948 291.131 242.948H363.817C373.758 242.948 381.817 234.889 381.817 224.948V22.7969C381.817 12.8558 373.758 4.79688 363.817 4.79688Z" fill="url(#paint7_linear_218_3032)"/>
<path d="M315.409 144.001C318.373 145.023 319.915 148.243 318.854 151.192C317.794 154.14 314.531 155.702 311.568 154.679C311.18 154.546 310.794 154.406 310.413 154.262C301.049 150.71 294.033 143.883 290.203 135.59C286.372 127.297 285.722 117.529 289.088 108.097C289.226 107.713 289.369 107.329 289.52 106.947C293.352 97.2261 300.798 89.8114 309.735 85.6831C318.674 81.5544 329.145 80.6931 339.031 84.0778C339.419 84.2102 339.805 84.3503 340.186 84.4942C349.55 88.0464 356.565 94.8738 360.396 103.167C364.227 111.46 364.876 121.228 361.51 130.66C361.373 131.045 361.229 131.428 361.079 131.809C359.936 134.729 356.633 136.2 353.7 135.096C350.768 133.992 349.315 130.731 350.458 127.811C350.57 127.526 350.677 127.24 350.779 126.957C353.1 120.454 352.645 113.707 349.996 107.971C347.345 102.233 342.502 97.5142 336.048 95.0657C335.766 94.9583 335.479 94.8547 335.189 94.756C330.151 93.0311 324.867 92.8904 319.915 94.0665L330.498 116.977C331.807 119.812 330.541 123.185 327.669 124.512C324.798 125.838 321.408 124.616 320.099 121.781L309.516 98.87C305.41 101.878 302.092 105.992 300.138 110.946C300.027 111.232 299.919 111.518 299.817 111.801C297.497 118.304 297.951 125.05 300.601 130.787C303.251 136.524 308.093 141.244 314.548 143.692C314.83 143.799 315.117 143.902 315.407 144.002L315.409 144.001Z" fill="white"/>
<defs>
<linearGradient id="paint0_linear_218_3032" x1="327.47" y1="8.30008" x2="327.47" y2="10.6101" gradientUnits="userSpaceOnUse">
<stop/>
<stop offset="0.29" stop-color="#030303"/>
<stop offset="0.53" stop-color="#0E0E0D"/>
<stop offset="0.75" stop-color="#1F1F1E"/>
<stop offset="0.96" stop-color="#373736"/>
<stop offset="1" stop-color="#3C3C3B"/>
</linearGradient>
<linearGradient id="paint1_linear_218_3032" x1="340.559" y1="7.42803" x2="340.559" y2="11.4856" gradientUnits="userSpaceOnUse">
<stop/>
<stop offset="0.29" stop-color="#030303"/>
<stop offset="0.53" stop-color="#0E0E0D"/>
<stop offset="0.75" stop-color="#1F1F1E"/>
<stop offset="0.96" stop-color="#373736"/>
<stop offset="1" stop-color="#3C3C3B"/>
</linearGradient>
<linearGradient id="paint2_linear_218_3032" x1="340.56" y1="6.71548" x2="340.56" y2="11.5754" gradientUnits="userSpaceOnUse">
<stop/>
<stop offset="0.08"/>
<stop offset="1"/>
</linearGradient>
<radialGradient id="paint3_radial_218_3032" cx="0" cy="0" r="1" gradientUnits="userSpaceOnUse" gradientTransform="translate(340.561 9.45627) scale(1.10892)">
<stop stop-color="#009FE3"/>
<stop offset="1" stop-color="#112754"/>
</radialGradient>
<linearGradient id="paint4_linear_218_3032" x1="340.56" y1="7.75093" x2="340.56" y2="9.74284" gradientUnits="userSpaceOnUse">
<stop stop-color="white"/>
<stop offset="1" stop-color="#112754"/>
</linearGradient>
<linearGradient id="paint5_linear_218_3032" x1="327.47" y1="-0.646562" x2="327.47" y2="17.336" gradientUnits="userSpaceOnUse">
<stop stop-color="white"/>
<stop offset="1"/>
</linearGradient>
<radialGradient id="paint6_radial_218_3032" cx="0" cy="0" r="1" gradientUnits="userSpaceOnUse" gradientTransform="translate(281.48 410.093) scale(259.1)">
<stop stop-color="#E5C33F"/>
<stop offset="0.03" stop-color="#E6BC3D"/>
<stop offset="0.25" stop-color="#F39332"/>
<stop offset="0.42" stop-color="#FC7A2B"/>
<stop offset="0.53" stop-color="#FF7129"/>
<stop offset="0.99" stop-color="#C73A16"/>
</radialGradient>
<linearGradient id="paint7_linear_218_3032" x1="273.131" y1="4.79687" x2="400.322" y2="15.128" gradientUnits="userSpaceOnUse">
<stop stop-color="#0A30A3"/>
<stop offset="1" stop-color="#001447"/>
</linearGradient>
</defs>
</svg>
