<svg width="1440" height="714" viewBox="0 0 1440 714" fill="none" xmlns="http://www.w3.org/2000/svg">
<g clip-path="url(#clip0_252_1827)">
<rect width="1440" height="714" fill="#001447"/>
<rect x="-1" width="1446" height="714" fill="url(#paint0_linear_252_1827)"/>
<path d="M520.88 67.5758C521.179 67.9462 521.121 68.4886 520.75 68.7872L477.3 103.824C476.93 104.123 476.387 104.065 476.089 103.694C475.79 103.324 475.848 102.781 476.218 102.483L519.669 67.446C520.039 67.1473 520.582 67.2055 520.88 67.5758Z" fill="url(#paint1_linear_252_1827)" style="mix-blend-mode:overlay"/>
<path d="M1646.33 -113.883C1649.16 -111.061 1649.16 -106.474 1646.33 -103.632L1314.37 228.333C1311.55 231.155 1306.96 231.155 1304.12 228.333C1301.29 225.51 1301.29 220.924 1304.12 218.082L1636.08 -113.883C1638.9 -116.706 1643.49 -116.706 1646.33 -113.883Z" fill="url(#paint2_linear_252_1827)" style="mix-blend-mode:overlay"/>
</g>
<defs>
<linearGradient id="paint0_linear_252_1827" x1="-12.6735" y1="15.6541" x2="1477.78" y2="537.483" gradientUnits="userSpaceOnUse">
<stop stop-color="#0A30A3"/>
<stop offset="0.563541" stop-color="#001447"/>
</linearGradient>
<linearGradient id="paint1_linear_252_1827" x1="506.261" y1="77.9984" x2="477.115" y2="102.192" gradientUnits="userSpaceOnUse">
<stop offset="0.17" stop-color="#0A30A3"/>
<stop offset="1" stop-color="white"/>
</linearGradient>
<linearGradient id="paint2_linear_252_1827" x1="1324.5" y1="230" x2="1542.5" y2="17.5001" gradientUnits="userSpaceOnUse">
<stop stop-color="#0A30A3" stop-opacity="0.31"/>
<stop offset="1" stop-color="white" stop-opacity="0"/>
</linearGradient>
<clipPath id="clip0_252_1827">
<rect width="1440" height="714" fill="white"/>
</clipPath>
</defs>
</svg>
