<svg width="1440" height="1106" viewBox="0 0 1440 1106" fill="none" xmlns="http://www.w3.org/2000/svg">
<g clip-path="url(#clip0_253_5197)">
<rect width="1440" height="1106" fill="#001447"/>
<path d="M167 80.32L128.895 42.3781C95.915 73.5248 43.8443 73.0196 11.511 40.8245C-20.8223 8.62942 -21.3169 -43.2188 9.95082 -76.058L-28.154 -114C-80.4657 -60.2194 -79.9456 25.6047 -26.5811 78.7538C26.7834 131.89 112.976 132.408 167 80.32Z" fill="url(#paint0_radial_253_5197)" fill-opacity="0.2"/>
<path d="M1292.69 846.292L1257.81 885.577C1290.19 915.828 1292.73 966.503 1263.14 999.838C1233.55 1033.17 1095.27 1028.33 1061.35 999.849L1114.09 1047.49C1169.72 1095.22 1253.59 1089.68 1302.44 1034.66C1351.28 979.645 1346.76 895.783 1292.69 846.292Z" fill="url(#paint1_radial_253_5197)" fill-opacity="0.2"/>
<g filter="url(#filter0_d_253_5197)">
<rect y="-96" width="1440" height="96" fill="#01164E"/>
</g>
<path d="M1646.33 992.117C1649.16 994.939 1649.16 999.526 1646.33 1002.37L1314.37 1334.33C1311.55 1337.16 1306.96 1337.16 1304.12 1334.33C1301.29 1331.51 1301.29 1326.92 1304.12 1324.08L1636.08 992.117C1638.9 989.294 1643.49 989.294 1646.33 992.117Z" fill="url(#paint2_linear_253_5197)" style="mix-blend-mode:overlay"/>
<path d="M569.556 1162.68L607.538 1185.84C627.915 1154.33 669.79 1144.61 702.019 1164.26C734.248 1183.91 744.772 1225.6 726.099 1258.14L764.081 1281.3C795.547 1227.79 778.368 1158.74 725.173 1126.29C671.98 1093.86 602.726 1110.2 569.556 1162.68Z" fill="url(#paint3_radial_253_5197)" fill-opacity="0.2"/>
</g>
<defs>
<filter id="filter0_d_253_5197" x="-30" y="-122" width="1500" height="156" filterUnits="userSpaceOnUse" color-interpolation-filters="sRGB">
<feFlood flood-opacity="0" result="BackgroundImageFix"/>
<feColorMatrix in="SourceAlpha" type="matrix" values="0 0 0 0 0 0 0 0 0 0 0 0 0 0 0 0 0 0 127 0" result="hardAlpha"/>
<feOffset dy="4"/>
<feGaussianBlur stdDeviation="15"/>
<feComposite in2="hardAlpha" operator="out"/>
<feColorMatrix type="matrix" values="0 0 0 0 0.0588235 0 0 0 0 0.227451 0 0 0 0 0.65098 0 0 0 1 0"/>
<feBlend mode="normal" in2="BackgroundImageFix" result="effect1_dropShadow_253_5197"/>
<feBlend mode="normal" in="SourceGraphic" in2="effect1_dropShadow_253_5197" result="shape"/>
</filter>
<radialGradient id="paint0_radial_253_5197" cx="0" cy="0" r="1" gradientUnits="userSpaceOnUse" gradientTransform="translate(-39.0563 -106.446) rotate(-44.8773) scale(925.509 925.501)">
<stop stop-color="#5BC7CE"/>
<stop offset="0.11" stop-color="#4198C0"/>
<stop offset="0.23" stop-color="#296BB3"/>
<stop offset="0.34" stop-color="#184AAA"/>
<stop offset="0.43" stop-color="#0D37A5"/>
<stop offset="0.49" stop-color="#0A30A3"/>
<stop offset="1" stop-color="#00152A"/>
</radialGradient>
<radialGradient id="paint1_radial_253_5197" cx="0" cy="0" r="1" gradientUnits="userSpaceOnUse" gradientTransform="translate(1122.11 1057.65) rotate(-138.457) scale(904.111 904.111)">
<stop stop-color="#5BC7CE"/>
<stop offset="0.11" stop-color="#4198C0"/>
<stop offset="0.23" stop-color="#296BB3"/>
<stop offset="0.34" stop-color="#184AAA"/>
<stop offset="0.43" stop-color="#0D37A5"/>
<stop offset="0.49" stop-color="#0A30A3"/>
<stop offset="1" stop-color="#00152A"/>
</radialGradient>
<linearGradient id="paint2_linear_253_5197" x1="1324.5" y1="1336" x2="1542.5" y2="1123.5" gradientUnits="userSpaceOnUse">
<stop stop-color="#0A30A3" stop-opacity="0.31"/>
<stop offset="1" stop-color="white" stop-opacity="0"/>
</linearGradient>
<radialGradient id="paint3_radial_253_5197" cx="0" cy="0" r="1" gradientUnits="userSpaceOnUse" gradientTransform="translate(771.353 1273.09) rotate(121.375) scale(765.679)">
<stop stop-color="#5BC7CE"/>
<stop offset="0.11" stop-color="#4198C0"/>
<stop offset="0.23" stop-color="#296BB3"/>
<stop offset="0.34" stop-color="#184AAA"/>
<stop offset="0.43" stop-color="#0D37A5"/>
<stop offset="0.49" stop-color="#0A30A3"/>
<stop offset="1" stop-color="#00152A"/>
</radialGradient>
<clipPath id="clip0_253_5197">
<rect width="1440" height="1106" fill="white"/>
</clipPath>
</defs>
</svg>
