<svg width="464" height="236" viewBox="0 0 464 236" fill="none" xmlns="http://www.w3.org/2000/svg">
<g opacity="0.6">
<path d="M322.801 16.5234L166.596 16.5235" stroke="#1E6AC6" stroke-opacity="0.6" stroke-width="8.4" stroke-linecap="round"/>
<path d="M124.938 16.5234L119.731 16.5234" stroke="#179F0C" stroke-opacity="0.6" stroke-width="8.4" stroke-linecap="round"/>
<path d="M114.527 219.594L88.4933 219.594" stroke="#179F0C" stroke-opacity="0.6" stroke-width="8.4" stroke-linecap="round"/>
<path d="M20.8047 79.0078L5.18426 79.0078" stroke="#179F0C" stroke-opacity="0.6" stroke-width="8.4" stroke-linecap="round"/>
<path d="M83.2852 157.109L75.8469 157.109" stroke="#179F0C" stroke-opacity="0.6" stroke-width="8.4" stroke-linecap="round"/>
<path d="M223.867 79.0078L78.0765 79.0078" stroke="#1E6AC6" stroke-opacity="0.6" stroke-width="8.4" stroke-linecap="round"/>
<path d="M213.457 157.109L124.941 157.109" stroke="#1E6AC6" stroke-opacity="0.6" stroke-width="8.4" stroke-linecap="round"/>
<path d="M249.902 219.594L161.387 219.594" stroke="#1E6AC6" stroke-opacity="0.6" stroke-width="8.4" stroke-linecap="round"/>
<path d="M260.41 200.321C268.329 208.148 268.506 221.014 260.802 229.06C253.102 237.105 240.437 237.284 232.517 229.458C231.478 228.438 230.457 227.396 229.458 226.35C204.907 200.572 192.629 167.625 192.629 134.696C192.629 101.768 204.907 68.821 229.458 43.0433C230.457 41.9968 231.478 40.9548 232.517 39.9351C258.975 13.9159 293.532 0.90625 328.006 0.90625C362.484 0.90625 397.037 13.9159 423.494 39.9351C424.533 40.9548 425.555 41.9968 426.554 43.0433C451.105 68.821 463.383 101.768 463.383 134.696C463.383 167.625 451.105 200.572 426.554 226.35C425.555 227.401 424.533 228.438 423.494 229.458C415.575 237.284 402.914 237.105 395.21 229.06C387.511 221.014 387.682 208.148 395.602 200.321C396.377 199.557 397.138 198.783 397.878 198.009C414.805 180.237 423.266 157.473 423.266 134.696C423.266 111.915 414.8 89.1516 397.878 71.3836C397.138 70.6054 396.377 69.8317 395.602 69.0715C382.118 55.8114 365.526 47.3634 348.058 43.7275V134.696C348.058 145.953 339.078 155.076 328.002 155.076C316.926 155.076 307.945 145.953 307.945 134.696V43.7275C290.477 47.3634 273.885 55.8114 260.401 69.0715C259.626 69.8362 258.865 70.6099 258.125 71.3836C241.199 89.1561 232.738 111.92 232.738 134.696C232.738 157.478 241.199 180.241 258.125 198.009C258.865 198.788 259.626 199.557 260.401 200.321H260.41Z" fill="#1E6AC6" fill-opacity="0.9"/>
</g>
</svg>
