<svg width="1440" height="1796" viewBox="0 0 1440 1796" fill="none" xmlns="http://www.w3.org/2000/svg">
<g clip-path="url(#clip0_277_3584)">
<rect width="1440" height="1796" fill="#001447"/>
<path d="M1066.86 575.139C1068.72 577.001 1071.74 577.001 1073.6 575.139C1075.46 573.277 1075.46 570.258 1073.6 568.396C1071.74 566.534 1068.72 566.534 1066.86 568.396C1065 570.258 1065 573.277 1066.86 575.139Z" fill="white" fill-opacity="0.3"/>
<path d="M1036.99 605.01C1038.85 606.872 1041.87 606.872 1043.73 605.01C1045.59 603.148 1045.59 600.13 1043.73 598.268C1041.87 596.406 1038.85 596.406 1036.99 598.268C1035.12 600.13 1035.12 603.148 1036.99 605.01Z" fill="white" fill-opacity="0.3"/>
<path d="M1007.12 634.862C1008.98 636.724 1012 636.724 1013.86 634.862C1015.72 633 1015.72 629.981 1013.86 628.119C1012 626.257 1008.98 626.257 1007.12 628.119C1005.26 629.981 1005.26 633 1007.12 634.862Z" fill="white" fill-opacity="0.3"/>
<path d="M977.268 664.733C979.13 666.595 982.148 666.595 984.01 664.733C985.872 662.871 985.872 659.852 984.01 657.99C982.148 656.128 979.13 656.128 977.268 657.99C975.406 659.852 975.406 662.871 977.268 664.733Z" fill="white" fill-opacity="0.3"/>
<path d="M954.139 687.857C952.277 685.995 949.258 685.995 947.396 687.857C945.534 689.719 945.534 692.738 947.396 694.6C949.258 696.462 952.277 696.462 954.139 694.6C956.001 692.738 956.001 689.719 954.139 687.857Z" fill="white" fill-opacity="0.3"/>
<rect x="-1" width="1436" height="1796" fill="url(#paint0_linear_277_3584)"/>
<path style="mix-blend-mode:overlay" d="M1226.29 1002.93C1224.57 1001.22 1224.57 998.437 1226.29 996.722L1427.49 795.517C1429.21 793.802 1431.99 793.802 1433.7 795.517C1435.42 797.232 1435.42 800.013 1433.7 801.728L1232.5 1002.93C1230.78 1004.65 1228 1004.65 1226.29 1002.93Z" fill="url(#paint1_linear_277_3584)"/>
</g>
<defs>
<linearGradient id="paint0_linear_277_3584" x1="-12.5927" y1="39.3765" x2="1617.84" y2="264.743" gradientUnits="userSpaceOnUse">
<stop stop-color="#0A30A3"/>
<stop offset="0.563541" stop-color="#001447"/>
</linearGradient>
<linearGradient id="paint1_linear_277_3584" x1="1294.73" y1="942.159" x2="1429.32" y2="803.69" gradientUnits="userSpaceOnUse">
<stop offset="0.17" stop-color="#0A30A3"/>
<stop offset="1" stop-color="white"/>
</linearGradient>
<clipPath id="clip0_277_3584">
<rect width="1440" height="1796" fill="white"/>
</clipPath>
</defs>
</svg>
