<svg width="536" height="492" viewBox="0 0 536 492" fill="none" xmlns="http://www.w3.org/2000/svg">
<path opacity="0.36" d="M14.8776 444.122C12.3741 441.618 12.3741 437.558 14.8776 435.057L66.0565 383.878C68.56 381.374 72.6189 381.374 75.1224 383.878C77.6259 386.382 77.6259 390.442 75.1224 392.943L23.9406 444.122C21.4371 446.626 17.3781 446.626 14.8747 444.122H14.8776Z" fill="url(#paint0_radial_197_1321)"/>
<path d="M132.95 261.237C132.95 261.237 125.636 359.032 118.147 395.001H290.731C282.672 361.475 274.338 270.823 274.338 270.823L298.729 306.946L320.692 251.535C320.692 251.535 299.549 215.387 276.738 196.49C260.896 183.364 227.951 178.537 209.304 176.813V175.785C209.304 175.785 206.744 175.901 202.493 176.263C198.236 175.971 195.674 175.897 195.674 175.897L195.686 176.925C177.07 178.956 144.583 184.773 128.586 197.708C69.3795 245.58 38.758 391.357 38 395.001H74.8557C94.7671 319.484 132.95 261.237 132.95 261.237Z" fill="#2A485E"/>
<path d="M320.69 251.536C320.69 251.536 306.003 226.427 287.907 207.125C281.406 231.516 279.427 257.112 282.034 282.221L298.732 306.948L320.69 251.536Z" fill="#193345"/>
<path d="M471.247 308.401C466.893 306.18 463.094 303.121 459.662 299.633L334.75 258.077C334.75 258.077 334.75 221.4 327.697 202.272C339.545 180.149 338.593 159.372 334.75 146.868C330.907 134.364 314.205 127.292 308.086 145.658C305.045 154.785 292.257 192.14 287.614 201.674C275.885 259.612 294.336 328.667 331.057 353.678C367.778 378.689 428.76 381.129 473.104 368.773C504.323 360.071 513.122 326.243 515.597 306.981C511.214 308.802 506.723 310.32 502.084 311.333C491.792 313.578 480.627 313.187 471.247 308.401Z" fill="#F7A87E"/>
<path d="M516.56 293.355L485.068 308.084L459.659 299.632C463.091 303.12 466.889 306.18 471.244 308.4C480.627 313.186 491.794 313.577 502.084 311.329C506.723 310.315 511.215 308.798 515.597 306.977C516.636 298.879 516.56 293.355 516.56 293.355Z" fill="#E98870"/>
<path d="M499.904 133.219L468.574 166.508C460.968 174.59 461.686 187.402 470.148 194.578C478.155 201.372 490.115 200.556 497.125 192.737L527.642 158.703C534.564 150.982 533.944 139.12 526.254 132.16C518.648 125.279 506.933 125.75 499.904 133.219Z" fill="#F7A87E"/>
<path d="M228.655 179.227L175.434 179.331L181.478 221.54H221.933L228.655 179.227Z" fill="#ECEADD"/>
<path d="M221.932 221.539H181.478L196.135 323.912L221.932 221.539Z" fill="white"/>
<path d="M179.918 153.078V170.547C186.912 175.665 195.061 178.852 203.544 179.21C203.74 179.218 203.938 179.225 204.134 179.227C204.33 179.23 204.525 179.218 204.721 179.21C212.656 178.877 220.3 176.062 226.977 171.516V153.078H179.918Z" fill="#E98870"/>
<path d="M238.994 130.963C251.475 126.344 261.663 115.907 265.98 103.318C270.297 90.7293 268.658 76.2364 261.639 64.93C267.683 63.4744 270.577 55.6632 268.291 49.8819C266.005 44.1006 259.994 40.4901 253.897 39.2688C256.758 36.5744 256.149 31.5529 253.517 28.6347C250.886 25.7165 246.873 24.4847 242.998 23.8264C236.766 22.7677 230.391 22.8648 224.088 23.3482C212.139 24.267 169.921 22.9985 158.152 51.5324C142.948 56.2944 143.083 79.1117 142.959 85.3205C142.627 101.931 149.485 119.208 163.086 128.748C184.571 143.819 214.38 140.075 238.994 130.963Z" fill="#4E2F20"/>
<path d="M247.046 136.279C240.393 154.827 223.354 169.277 204.722 170.059C204.526 170.068 204.33 170.073 204.134 170.076C203.938 170.076 203.74 170.068 203.543 170.059C184.91 169.277 167.875 154.827 161.219 136.279C157.166 124.978 156.576 112.617 157.011 100.534C157.447 88.4514 158.864 76.3993 158.637 64.3113C173.595 61.2366 188.946 58.8579 204.134 59.7347C219.322 58.8605 234.67 61.2366 249.627 64.3113C249.402 76.3993 250.815 88.4522 251.253 100.534C251.691 112.616 251.098 124.978 247.046 136.279Z" fill="#F7A87E"/>
<path d="M253.794 111.252C247.396 101.869 243.391 90.3041 243.97 78.961C216.769 80.8567 189.471 77.0859 163.803 67.8871C164.101 82.8583 160.021 97.5689 153.668 111.129C152.897 96.2043 152.697 81.7174 154.28 66.8573C154.455 65.1648 154.672 63.419 155.522 61.9433C157.033 59.3206 160.155 58.157 163.057 57.2723C190.319 48.9426 220.423 47.7493 246.988 58.0949C249.785 59.186 252.628 60.4553 254.659 62.675C256.443 64.6201 257.466 67.1563 258.052 69.7292C259.107 74.3626 258.847 79.1822 258.582 83.9275C258.051 93.3578 257.028 102.378 253.794 111.252Z" fill="#4E2F20"/>
<path d="M146.521 83.5622C150.299 79.5721 153.613 75.1664 156.399 70.4295C158.725 66.4719 161.057 61.9495 165.373 60.3864C169.344 58.9492 174.116 60.4397 177.757 58.3057C179.613 57.2191 180.904 55.3176 182.812 54.3245C186.538 52.3846 190.955 54.4906 194.949 55.7923C203.953 58.7297 214.296 57.2234 222.091 51.8399C226.051 49.1036 229.485 45.1705 230.3 40.426C231.019 36.2402 229.632 31.9853 227.925 28.095C227.203 26.448 226.413 24.8315 225.571 23.2422C225.078 23.2754 224.585 23.3095 224.093 23.348C219.703 23.6854 211.228 23.73 201.68 25.0623C201.804 25.19 201.928 25.3167 202.05 25.447C204.148 27.7016 205.854 30.8786 204.812 33.7793C204.006 36.0243 201.799 37.4152 199.696 38.5403C193.245 41.9887 186.366 44.5694 179.239 46.2152C177.532 46.6086 175.628 47.071 174.693 48.552C174.032 49.601 174.019 50.9255 173.529 52.0602C172.567 54.2817 170.027 55.3272 167.664 55.8465C165.301 56.3658 162.759 56.6281 160.83 58.0872C159.868 58.8128 159.133 59.7893 158.265 60.6224C155.5 63.2783 151.399 64.3632 147.619 63.7251C147.199 63.6542 146.785 63.5598 146.375 63.4506C143.019 71.6972 143.039 81.5576 142.965 85.3194C142.954 85.8876 142.953 86.4559 142.958 87.025C144.199 85.9252 145.385 84.7616 146.521 83.5622Z" fill="#5E3B2B"/>
<path d="M190.144 93.6219C191.303 93.6604 192.491 93.7408 193.546 94.2208C194.601 94.7007 195.511 95.6615 195.613 96.8163C195.729 98.1382 194.754 99.363 193.566 99.9539C192.378 100.545 191.011 100.632 189.686 100.696C185.359 100.903 181.028 100.963 176.695 100.876C175.169 100.846 171.886 100.614 171.851 98.4065C171.821 96.561 174.696 95.9675 176.077 95.4893C180.576 93.9314 185.405 93.4672 190.144 93.6219Z" fill="#452819"/>
<path d="M219.663 93.6219C218.503 93.6604 217.315 93.7408 216.259 94.2208C215.203 94.7007 214.294 95.6615 214.194 96.8163C214.077 98.1382 215.052 99.363 216.24 99.9539C217.428 100.545 218.795 100.632 220.121 100.696C224.448 100.903 228.778 100.963 233.112 100.876C234.637 100.846 237.92 100.614 237.955 98.4065C237.986 96.561 235.109 95.9675 233.729 95.4893C229.229 93.9314 224.401 93.4672 219.663 93.6219Z" fill="#452819"/>
<path d="M183.736 117.896C186.3 117.896 188.378 115.818 188.378 113.255C188.378 110.691 186.3 108.613 183.736 108.613C181.173 108.613 179.095 110.691 179.095 113.255C179.095 115.818 181.173 117.896 183.736 117.896Z" fill="#452819"/>
<path d="M224.261 117.896C226.825 117.896 228.903 115.818 228.903 113.255C228.903 110.691 226.825 108.613 224.261 108.613C221.698 108.613 219.62 110.691 219.62 113.255C219.62 115.818 221.698 117.896 224.261 117.896Z" fill="#452819"/>
<path d="M205.989 153.083C202.69 153.141 199.427 153.848 196.332 155.007C198.495 156.355 201.238 157.234 204.725 157.234C208.746 157.234 211.779 156.07 214.071 154.358C211.474 153.457 208.737 153.025 205.989 153.083Z" fill="#F28487"/>
<path d="M197.058 143.848C199.026 144.722 201.1 145.377 203.236 145.651C207.383 146.185 211.672 145.239 215.316 143.189C216.526 142.504 217.668 141.706 218.726 140.805C218.373 140.655 217.994 140.578 217.611 140.578H191.978C192.056 140.655 192.135 140.731 192.215 140.805C193.617 142.111 195.307 143.071 197.058 143.848Z" fill="white"/>
<path d="M218.729 140.805C217.671 141.706 216.529 142.504 215.32 143.189C211.676 145.239 207.386 146.185 203.24 145.651C201.104 145.377 199.029 144.721 197.061 143.848C195.313 143.071 193.62 142.111 192.218 140.805C192.139 140.731 192.06 140.655 191.981 140.578H191.837C191.396 140.577 190.96 140.678 190.564 140.871C190.168 141.065 189.821 141.347 189.551 141.696C189.281 142.045 189.094 142.451 189.006 142.883C188.917 143.315 188.929 143.762 189.04 144.189C189.914 147.482 191.897 152.239 196.334 155.007C199.429 153.845 202.691 153.138 205.991 153.084C208.739 153.027 211.475 153.46 214.072 154.362C217.846 151.544 219.605 147.24 220.412 144.192C220.589 143.519 220.516 142.806 220.206 142.183C219.897 141.56 219.372 141.07 218.729 140.805Z" fill="#AB404A"/>
<path d="M204.134 179.227C203.938 179.227 203.74 179.218 203.544 179.21C195.064 178.854 186.91 175.665 179.918 170.547V203.089H217.072L226.977 188.938V171.513C220.3 176.064 212.656 178.877 204.721 179.206C204.525 179.217 204.33 179.224 204.134 179.227Z" fill="#F7A87E"/>
<path d="M179.918 175.051L202.631 201.437L226.978 175.051L230.188 179.523L221.696 221.672L202.472 203.087L181.493 221.651L175.434 179.329L179.918 175.051Z" fill="white"/>
<path d="M191.321 212.957L200.219 225.821L187.164 261.262L196.135 323.914L213.041 256.822L205.584 225.672L213.718 213.963L202.472 203.09L191.321 212.957Z" fill="#D75555"/>
<path d="M383.122 315.18L382.999 315.392H383.245L383.122 315.18Z" fill="#F68C24"/>
<path d="M475.54 281.076L508.11 261.081C516.018 256.225 526.054 259.552 530.106 268.372C533.94 276.716 530.954 286.863 523.375 291.259L490.37 310.396C482.882 314.736 473.576 311.694 469.552 303.588C465.565 295.571 468.231 285.564 475.54 281.076Z" fill="#F7A87E"/>
<path d="M464.378 240.067L508.402 222.501C519.091 218.235 531.172 223.797 534.881 234.692C538.388 244.999 533.055 256.227 522.849 260.017L478.416 276.515C468.335 280.257 457.126 275.148 453.339 265.084C449.593 255.13 454.501 244.008 464.378 240.067Z" fill="#F7A87E"/>
<path d="M460.232 201L502.689 184.059C512.998 179.945 524.649 185.31 528.227 195.817C531.611 205.757 526.467 216.585 516.622 220.24L473.768 236.151C464.047 239.761 453.236 234.833 449.584 225.127C445.969 215.528 450.703 204.802 460.232 201Z" fill="#F7A87E"/>
<path d="M243.57 143.914C248.956 144.216 254.493 142.727 258.769 139.437C263.045 136.148 265.951 131.014 266.184 125.625C266.314 122.652 265.49 119.403 263.101 117.632C261.276 116.278 258.853 116.018 256.59 116.214C253.448 116.487 250.158 117.733 248.491 120.411L243.57 143.914Z" fill="#F7A87E"/>
<path d="M255.354 124.919C255.622 125.08 255.87 125.271 256.094 125.489C257.073 126.429 257.644 127.717 257.684 129.074C257.723 130.431 257.228 131.749 256.305 132.745C256.26 132.794 256.206 132.833 256.145 132.861C256.085 132.889 256.02 132.905 255.953 132.907C255.887 132.91 255.82 132.899 255.758 132.876C255.696 132.853 255.639 132.818 255.59 132.773C255.541 132.728 255.502 132.673 255.474 132.613C255.446 132.552 255.43 132.487 255.428 132.421C255.425 132.354 255.436 132.288 255.459 132.226C255.482 132.163 255.517 132.106 255.562 132.057C256.303 131.256 256.701 130.196 256.669 129.106C256.637 128.015 256.179 126.98 255.393 126.223C255.108 125.949 254.672 125.623 254.169 125.54C252.275 126.705 250.81 128.451 249.992 130.519C249.954 130.615 249.888 130.698 249.801 130.756C249.715 130.814 249.613 130.843 249.509 130.841C249.449 130.84 249.39 130.828 249.334 130.806C249.209 130.758 249.109 130.661 249.054 130.538C249 130.416 248.997 130.276 249.046 130.151C250.01 127.671 251.831 125.619 254.178 124.365C256.525 123.111 259.243 122.739 261.841 123.316C261.972 123.345 262.086 123.425 262.158 123.538C262.23 123.652 262.254 123.789 262.225 123.92C262.196 124.051 262.116 124.166 262.002 124.238C261.889 124.31 261.752 124.334 261.621 124.305C259.519 123.849 257.327 124.064 255.354 124.919Z" fill="#D26F61"/>
<path d="M246.746 135.556C246.812 135.439 246.923 135.354 247.052 135.319C247.182 135.283 247.32 135.301 247.437 135.368C250.169 136.932 253.6 135.99 255.9 134.587C257.372 133.691 259.31 132.124 260.178 129.753C260.201 129.691 260.236 129.634 260.281 129.585C260.326 129.536 260.38 129.496 260.441 129.469C260.501 129.441 260.566 129.425 260.633 129.422C260.699 129.42 260.766 129.43 260.828 129.453C260.89 129.476 260.948 129.511 260.997 129.556C261.045 129.601 261.085 129.655 261.113 129.716C261.141 129.776 261.156 129.841 261.159 129.908C261.162 129.974 261.151 130.041 261.128 130.103C260.157 132.748 258.036 134.474 256.428 135.452C254.786 136.453 252.611 137.234 250.437 137.186C249.209 137.172 248.004 136.849 246.933 136.246C246.817 136.18 246.732 136.069 246.696 135.94C246.661 135.81 246.679 135.672 246.746 135.556Z" fill="#D26F61"/>
<path d="M164.399 143.914C159.013 144.216 153.471 142.727 149.2 139.437C144.928 136.148 142.018 131.014 141.785 125.625C141.655 122.652 142.48 119.403 144.868 117.632C146.693 116.278 149.116 116.018 151.378 116.214C154.52 116.487 157.812 117.733 159.478 120.411L164.399 143.914Z" fill="#F7A87E"/>
<path d="M152.615 124.919C152.347 125.08 152.099 125.271 151.875 125.489C150.896 126.429 150.325 127.717 150.285 129.074C150.246 130.431 150.741 131.749 151.664 132.745C151.709 132.794 151.763 132.833 151.824 132.861C151.884 132.889 151.949 132.905 152.016 132.907C152.082 132.91 152.148 132.899 152.211 132.876C152.273 132.853 152.33 132.818 152.379 132.773C152.428 132.728 152.467 132.673 152.495 132.613C152.523 132.552 152.539 132.487 152.541 132.421C152.544 132.354 152.533 132.288 152.51 132.225C152.487 132.163 152.452 132.106 152.407 132.057C151.666 131.256 151.268 130.196 151.3 129.106C151.332 128.015 151.79 126.98 152.576 126.223C152.861 125.949 153.297 125.623 153.8 125.54C155.694 126.705 157.159 128.451 157.977 130.518C158.015 130.615 158.082 130.698 158.168 130.756C158.254 130.813 158.356 130.843 158.46 130.841C158.52 130.84 158.579 130.828 158.635 130.806C158.697 130.782 158.753 130.746 158.801 130.7C158.849 130.654 158.888 130.599 158.915 130.539C158.942 130.478 158.956 130.412 158.958 130.346C158.959 130.279 158.947 130.213 158.923 130.151C157.959 127.671 156.138 125.619 153.792 124.365C151.445 123.111 148.726 122.739 146.129 123.316C146.064 123.33 146.002 123.357 145.948 123.395C145.894 123.433 145.847 123.482 145.811 123.538C145.776 123.594 145.751 123.657 145.74 123.722C145.728 123.788 145.73 123.855 145.744 123.92C145.759 123.985 145.786 124.046 145.824 124.101C145.862 124.155 145.91 124.202 145.967 124.237C146.023 124.273 146.085 124.297 146.151 124.309C146.216 124.32 146.283 124.319 146.348 124.304C148.45 123.849 150.642 124.064 152.615 124.919Z" fill="#D26F61"/>
<path d="M161.224 135.556C161.157 135.439 161.047 135.354 160.917 135.319C160.787 135.283 160.649 135.301 160.532 135.368C157.801 136.932 154.369 135.99 152.069 134.587C150.598 133.691 148.66 132.124 147.791 129.753C147.769 129.691 147.734 129.634 147.688 129.585C147.643 129.536 147.589 129.496 147.529 129.469C147.468 129.441 147.403 129.425 147.337 129.422C147.27 129.42 147.204 129.43 147.142 129.453C147.079 129.476 147.022 129.511 146.973 129.556C146.924 129.601 146.885 129.655 146.857 129.716C146.829 129.776 146.813 129.841 146.81 129.908C146.808 129.974 146.818 130.041 146.841 130.103C147.812 132.748 149.933 134.474 151.542 135.452C153.184 136.453 155.359 137.234 157.532 137.186C158.761 137.172 159.966 136.849 161.036 136.246C161.153 136.18 161.238 136.069 161.273 135.94C161.308 135.81 161.291 135.672 161.224 135.556Z" fill="#D26F61"/>
<path opacity="0.12" d="M227.892 136.673C231.948 136.673 235.236 133.385 235.236 129.329C235.236 125.273 231.948 121.984 227.892 121.984C223.836 121.984 220.548 125.273 220.548 129.329C220.548 133.385 223.836 136.673 227.892 136.673Z" fill="#ED7C6D"/>
<path opacity="0.12" d="M232.034 132.533C234.902 129.665 234.902 125.015 232.034 122.147C229.166 119.278 224.516 119.278 221.648 122.147C218.779 125.015 218.779 129.665 221.648 132.533C224.516 135.401 229.166 135.401 232.034 132.533Z" fill="#ED7C6D"/>
<path opacity="0.12" d="M230.962 136.673C235.018 136.673 238.306 133.385 238.306 129.329C238.306 125.273 235.018 121.984 230.962 121.984C226.906 121.984 223.618 125.273 223.618 129.329C223.618 133.385 226.906 136.673 230.962 136.673Z" fill="#ED7C6D"/>
<path opacity="0.12" d="M227.621 138.853C231.677 138.853 234.965 135.565 234.965 131.508C234.965 127.452 231.677 124.164 227.621 124.164C223.565 124.164 220.276 127.452 220.276 131.508C220.276 135.565 223.565 138.853 227.621 138.853Z" fill="#ED7C6D"/>
<path opacity="0.12" d="M228.316 134.826C231.354 134.826 233.817 132.363 233.817 129.325C233.817 126.287 231.354 123.824 228.316 123.824C225.278 123.824 222.815 126.287 222.815 129.325C222.815 132.363 225.278 134.826 228.316 134.826Z" fill="#ED7C6D"/>
<path opacity="0.12" d="M229.069 133.107C230.857 133.107 232.308 131.657 232.308 129.868C232.308 128.079 230.857 126.629 229.069 126.629C227.28 126.629 225.83 128.079 225.83 129.868C225.83 131.657 227.28 133.107 229.069 133.107Z" fill="#ED7C6D"/>
<path opacity="0.12" d="M229.988 129.453C230.398 127.712 229.32 125.967 227.579 125.556C225.838 125.145 224.094 126.224 223.683 127.965C223.272 129.706 224.35 131.45 226.091 131.861C227.832 132.272 229.577 131.194 229.988 129.453Z" fill="#ED7C6D"/>
<path opacity="0.12" d="M230.803 131.261C232.456 130.576 233.241 128.682 232.556 127.029C231.871 125.376 229.977 124.592 228.324 125.276C226.671 125.961 225.886 127.855 226.571 129.508C227.256 131.161 229.15 131.946 230.803 131.261Z" fill="#ED7C6D"/>
<path opacity="0.12" d="M229.132 132.316C230.784 131.631 231.569 129.736 230.885 128.084C230.2 126.431 228.305 125.646 226.653 126.331C225 127.015 224.215 128.91 224.9 130.563C225.584 132.215 227.479 133 229.132 132.316Z" fill="#ED7C6D"/>
<path opacity="0.12" d="M231.463 129C231.874 127.259 230.796 125.514 229.055 125.103C227.314 124.692 225.569 125.771 225.158 127.512C224.747 129.253 225.825 130.997 227.566 131.408C229.307 131.819 231.052 130.741 231.463 129Z" fill="#ED7C6D"/>
<path opacity="0.05" d="M228.817 130.566C230.095 130.566 231.131 129.53 231.131 128.252C231.131 126.974 230.095 125.938 228.817 125.938C227.539 125.938 226.503 126.974 226.503 128.252C226.503 129.53 227.539 130.566 228.817 130.566Z" fill="#FDECE9"/>
<path opacity="0.05" d="M228.311 128.719C229.075 128.719 229.694 128.1 229.694 127.336C229.694 126.572 229.075 125.953 228.311 125.953C227.547 125.953 226.928 126.572 226.928 127.336C226.928 128.1 227.547 128.719 228.311 128.719Z" fill="#FDECE9"/>
<path opacity="0.05" d="M229.375 127.873C229.263 128.022 229.109 128.135 228.933 128.196C228.757 128.258 228.567 128.267 228.386 128.22C228.205 128.174 228.042 128.075 227.918 127.936C227.793 127.797 227.713 127.625 227.686 127.44C227.66 127.255 227.689 127.067 227.769 126.899C227.85 126.731 227.979 126.59 228.139 126.495C228.3 126.4 228.485 126.355 228.671 126.365C228.857 126.375 229.036 126.44 229.186 126.552C229.285 126.626 229.368 126.719 229.432 126.826C229.495 126.932 229.536 127.05 229.554 127.173C229.571 127.296 229.565 127.421 229.534 127.541C229.503 127.661 229.449 127.774 229.375 127.873Z" fill="#FDECE9"/>
<path opacity="0.05" d="M229.066 127.748C228.954 127.898 228.801 128.011 228.624 128.073C228.448 128.135 228.258 128.143 228.077 128.097C227.896 128.051 227.733 127.952 227.608 127.813C227.483 127.674 227.402 127.502 227.376 127.317C227.349 127.132 227.378 126.943 227.459 126.775C227.539 126.606 227.668 126.465 227.829 126.37C227.989 126.275 228.175 126.23 228.361 126.24C228.548 126.25 228.727 126.315 228.876 126.427C229.077 126.577 229.209 126.801 229.245 127.048C229.28 127.296 229.216 127.548 229.066 127.748Z" fill="#FDECE9"/>
<path opacity="0.05" d="M226.983 127.917C227.483 127.782 227.779 127.267 227.643 126.767C227.508 126.266 226.992 125.971 226.492 126.106C225.992 126.242 225.696 126.757 225.832 127.257C225.967 127.757 226.483 128.053 226.983 127.917Z" fill="#FDECE9"/>
<path opacity="0.05" d="M229.184 127.748C229.072 127.897 228.919 128.01 228.743 128.071C228.567 128.133 228.376 128.142 228.195 128.095C228.015 128.049 227.852 127.95 227.727 127.811C227.603 127.672 227.522 127.5 227.496 127.315C227.469 127.13 227.498 126.942 227.579 126.774C227.66 126.606 227.788 126.465 227.949 126.37C228.109 126.275 228.294 126.23 228.481 126.24C228.667 126.25 228.846 126.315 228.995 126.427C229.195 126.577 229.328 126.8 229.363 127.048C229.398 127.296 229.334 127.547 229.184 127.748Z" fill="#FDECE9"/>
<path opacity="0.12" d="M178.085 136.673C182.142 136.673 185.43 133.385 185.43 129.329C185.43 125.273 182.142 121.984 178.085 121.984C174.029 121.984 170.741 125.273 170.741 129.329C170.741 133.385 174.029 136.673 178.085 136.673Z" fill="#ED7C6D"/>
<path opacity="0.12" d="M182.228 132.533C185.096 129.665 185.096 125.015 182.228 122.147C179.36 119.278 174.71 119.278 171.842 122.147C168.974 125.015 168.974 129.665 171.842 132.533C174.71 135.401 179.36 135.401 182.228 132.533Z" fill="#ED7C6D"/>
<path opacity="0.12" d="M181.157 136.673C185.213 136.673 188.501 133.385 188.501 129.329C188.501 125.273 185.213 121.984 181.157 121.984C177.1 121.984 173.812 125.273 173.812 129.329C173.812 133.385 177.1 136.673 181.157 136.673Z" fill="#ED7C6D"/>
<path opacity="0.12" d="M177.814 138.853C181.871 138.853 185.159 135.565 185.159 131.508C185.159 127.452 181.871 124.164 177.814 124.164C173.758 124.164 170.47 127.452 170.47 131.508C170.47 135.565 173.758 138.853 177.814 138.853Z" fill="#ED7C6D"/>
<path opacity="0.12" d="M178.509 134.826C181.547 134.826 184.01 132.363 184.01 129.325C184.01 126.287 181.547 123.824 178.509 123.824C175.472 123.824 173.009 126.287 173.009 129.325C173.009 132.363 175.472 134.826 178.509 134.826Z" fill="#ED7C6D"/>
<path opacity="0.12" d="M179.262 133.107C181.051 133.107 182.501 131.657 182.501 129.868C182.501 128.079 181.051 126.629 179.262 126.629C177.473 126.629 176.023 128.079 176.023 129.868C176.023 131.657 177.473 133.107 179.262 133.107Z" fill="#ED7C6D"/>
<path opacity="0.12" d="M180.183 129.453C180.594 127.712 179.516 125.967 177.774 125.556C176.033 125.146 174.289 126.224 173.878 127.965C173.467 129.706 174.545 131.45 176.286 131.861C178.027 132.272 179.772 131.194 180.183 129.453Z" fill="#ED7C6D"/>
<path opacity="0.12" d="M180.996 131.261C182.649 130.576 183.434 128.682 182.749 127.029C182.065 125.376 180.17 124.592 178.517 125.276C176.865 125.961 176.08 127.855 176.764 129.508C177.449 131.161 179.344 131.946 180.996 131.261Z" fill="#ED7C6D"/>
<path opacity="0.12" d="M179.325 132.32C180.978 131.635 181.763 129.74 181.078 128.088C180.393 126.435 178.499 125.65 176.846 126.335C175.193 127.019 174.408 128.914 175.093 130.567C175.778 132.219 177.672 133.004 179.325 132.32Z" fill="#ED7C6D"/>
<path opacity="0.12" d="M181.658 129C182.069 127.259 180.991 125.514 179.25 125.103C177.509 124.692 175.764 125.771 175.353 127.512C174.942 129.253 176.021 130.997 177.762 131.408C179.503 131.819 181.247 130.741 181.658 129Z" fill="#ED7C6D"/>
<path opacity="0.05" d="M179.01 130.566C180.288 130.566 181.324 129.53 181.324 128.252C181.324 126.974 180.288 125.938 179.01 125.938C177.732 125.938 176.696 126.974 176.696 128.252C176.696 129.53 177.732 130.566 179.01 130.566Z" fill="#FDECE9"/>
<path opacity="0.05" d="M178.504 128.719C179.268 128.719 179.887 128.1 179.887 127.336C179.887 126.572 179.268 125.953 178.504 125.953C177.74 125.953 177.121 126.572 177.121 127.336C177.121 128.1 177.74 128.719 178.504 128.719Z" fill="#FDECE9"/>
<path opacity="0.05" d="M179.568 127.873C179.456 128.022 179.302 128.135 179.126 128.196C178.95 128.258 178.76 128.267 178.579 128.22C178.399 128.174 178.236 128.075 178.111 127.936C177.987 127.797 177.906 127.625 177.88 127.44C177.853 127.255 177.882 127.067 177.963 126.899C178.043 126.731 178.172 126.59 178.333 126.495C178.493 126.4 178.678 126.355 178.864 126.365C179.051 126.375 179.23 126.44 179.379 126.552C179.478 126.626 179.562 126.719 179.625 126.826C179.688 126.932 179.73 127.05 179.747 127.173C179.765 127.296 179.758 127.421 179.727 127.541C179.696 127.661 179.642 127.774 179.568 127.873Z" fill="#FDECE9"/>
<path opacity="0.05" d="M179.26 127.748C179.148 127.897 178.994 128.01 178.818 128.071C178.642 128.133 178.452 128.142 178.271 128.095C178.09 128.049 177.927 127.95 177.803 127.811C177.678 127.672 177.598 127.5 177.571 127.315C177.545 127.13 177.574 126.942 177.654 126.774C177.735 126.606 177.864 126.465 178.024 126.37C178.185 126.275 178.37 126.23 178.556 126.24C178.742 126.25 178.921 126.315 179.071 126.427C179.271 126.577 179.403 126.8 179.439 127.048C179.474 127.296 179.41 127.547 179.26 127.748Z" fill="#FDECE9"/>
<path opacity="0.05" d="M179.165 128.215C179.667 128.077 179.963 127.558 179.825 127.056C179.687 126.553 179.169 126.258 178.666 126.395C178.164 126.533 177.868 127.052 178.006 127.554C178.143 128.057 178.662 128.352 179.165 128.215Z" fill="#FDECE9"/>
<path opacity="0.05" d="M179.378 127.748C179.267 127.898 179.113 128.011 178.937 128.073C178.761 128.135 178.57 128.143 178.389 128.097C178.208 128.051 178.045 127.952 177.92 127.813C177.795 127.674 177.714 127.502 177.688 127.317C177.661 127.132 177.69 126.943 177.771 126.775C177.851 126.606 177.98 126.465 178.141 126.37C178.302 126.275 178.487 126.23 178.673 126.24C178.86 126.25 179.039 126.315 179.189 126.427C179.389 126.577 179.521 126.801 179.557 127.048C179.593 127.296 179.528 127.548 179.378 127.748Z" fill="#FDECE9"/>
<path d="M197.495 123.797C197.495 123.818 197.495 123.838 197.495 123.859C197.516 125.763 198.287 127.582 199.641 128.92C200.994 130.259 202.821 131.01 204.725 131.01C206.629 131.01 208.456 130.259 209.81 128.92C211.164 127.582 211.935 125.763 211.956 123.859C211.956 123.838 211.956 123.818 211.956 123.797H197.495Z" fill="#F17D6F"/>
<path d="M329.035 211.499C328.343 208.556 328.609 204.742 327.697 202.268C339.545 180.145 338.593 159.368 334.75 146.864C330.907 134.36 314.205 127.289 308.086 145.654C305.045 154.781 292.257 192.136 287.614 201.67C284.846 215.343 283.759 229.635 284.197 243.821C287.988 241.96 291.686 239.9 295.271 237.725C307.907 230.065 318.559 221.926 329.035 211.499Z" fill="#F7A87E"/>
<path d="M309.74 407.741L258.656 364.418C220.99 406.521 156.438 411.194 113.082 374.454C69.7255 337.714 63.823 273.232 99.209 229.195L48.1246 185.872C-11.1887 258.122 -1.75122 364.835 69.7872 425.504C141.326 486.174 248.147 478.058 309.74 407.741Z" fill="#FF9149"/>
<path d="M331.327 41.8359H333.058V53.5685H331.327C331.153 53.5685 330.98 53.5342 330.819 53.4675C330.658 53.4008 330.512 53.3031 330.389 53.1799C330.265 53.0566 330.168 52.9103 330.101 52.7493C330.034 52.5883 330 52.4158 330 52.2415V43.163C330 42.811 330.14 42.4735 330.389 42.2246C330.638 41.9757 330.975 41.8359 331.327 41.8359Z" fill="#333333"/>
<path d="M331.327 64.8789H333.058V86.7517H331.327C330.975 86.7517 330.638 86.6119 330.389 86.363C330.14 86.1141 330 85.7766 330 85.4247V66.2059C330 65.854 330.14 65.5164 330.389 65.2676C330.638 65.0187 330.975 64.8789 331.327 64.8789Z" fill="#333333"/>
<path d="M484.673 106.48H482.942V72.5578H484.673C485.025 72.5578 485.362 72.6976 485.611 72.9465C485.86 73.1953 486 73.5329 486 73.8848V105.153C486 105.505 485.86 105.843 485.611 106.092C485.362 106.341 485.025 106.48 484.673 106.48Z" fill="#333333"/>
<path d="M331.327 92.8672H333.058V114.74H331.327C330.975 114.74 330.638 114.6 330.389 114.351C330.14 114.102 330 113.765 330 113.413V94.1942C330 93.8423 330.14 93.5047 330.389 93.2559C330.638 93.007 330.975 92.8672 331.327 92.8672Z" fill="#333333"/>
<path d="M461.499 0H354.492C341.81 0 331.529 10.281 331.529 22.9632V287.361C331.529 300.043 341.81 310.324 354.492 310.324H461.499C474.181 310.324 484.462 300.043 484.462 287.361V22.9632C484.462 10.281 474.181 0 461.499 0Z" fill="#444444"/>
<path d="M461.499 2.6875H354.489C343.29 2.6875 334.212 11.766 334.212 22.965V287.365C334.212 298.564 343.29 307.643 354.489 307.643H461.499C472.698 307.643 481.777 298.564 481.777 287.365V22.965C481.777 11.766 472.698 2.6875 461.499 2.6875Z" fill="#444444"/>
<path d="M461.499 2.85547H354.489C343.384 2.85547 334.382 11.8578 334.382 22.9627V287.363C334.382 298.468 343.384 307.47 354.489 307.47H461.499C472.604 307.47 481.606 298.468 481.606 287.363V22.9627C481.606 11.8578 472.604 2.85547 461.499 2.85547Z" fill="#434343"/>
<path d="M461.499 3.02734H354.489C343.478 3.02734 334.552 11.9535 334.552 22.9644V287.365C334.552 298.376 343.478 307.302 354.489 307.302H461.499C472.51 307.302 481.436 298.376 481.436 287.365V22.9644C481.436 11.9535 472.51 3.02734 461.499 3.02734Z" fill="#414141"/>
<path d="M461.499 3.19531H354.489C343.572 3.19531 334.722 12.0452 334.722 22.9622V287.362C334.722 298.279 343.572 307.129 354.489 307.129H461.499C472.416 307.129 481.266 298.279 481.266 287.362V22.9622C481.266 12.0452 472.416 3.19531 461.499 3.19531Z" fill="#404040"/>
<path d="M461.499 3.36719H354.489C343.666 3.36719 334.893 12.1409 334.893 22.9638V287.364C334.893 298.187 343.666 306.961 354.489 306.961H461.499C472.322 306.961 481.096 298.187 481.096 287.364V22.9638C481.096 12.1409 472.322 3.36719 461.499 3.36719Z" fill="#3E3E3E"/>
<path d="M461.502 3.53906H354.492C343.763 3.53906 335.066 12.2366 335.066 22.9655V287.366C335.066 298.095 343.763 306.792 354.492 306.792H461.502C472.231 306.792 480.929 298.095 480.929 287.366V22.9655C480.929 12.2366 472.231 3.53906 461.502 3.53906Z" fill="#3D3D3D"/>
<path d="M461.499 3.70703H354.492C343.857 3.70703 335.236 12.3283 335.236 22.9633V287.361C335.236 297.996 343.857 306.617 354.492 306.617H461.499C472.134 306.617 480.755 297.996 480.755 287.361V22.9633C480.755 12.3283 472.134 3.70703 461.499 3.70703Z" fill="#3B3B3B"/>
<path d="M461.499 3.875H354.492C343.951 3.875 335.406 12.4201 335.406 22.961V287.358C335.406 297.899 343.951 306.444 354.492 306.444H461.499C472.04 306.444 480.585 297.899 480.585 287.358V22.961C480.585 12.4201 472.04 3.875 461.499 3.875Z" fill="#3A3A3A"/>
<path d="M461.499 4.04688H354.492C344.045 4.04688 335.576 12.5158 335.576 22.9627V287.36C335.576 297.807 344.045 306.276 354.492 306.276H461.499C471.946 306.276 480.415 297.807 480.415 287.36V22.9627C480.415 12.5158 471.946 4.04688 461.499 4.04688Z" fill="#393939"/>
<path d="M461.499 4.21875H354.492C344.139 4.21875 335.747 12.6115 335.747 22.9644V287.362C335.747 297.715 344.139 306.107 354.492 306.107H461.499C471.852 306.107 480.245 297.715 480.245 287.362V22.9644C480.245 12.6115 471.852 4.21875 461.499 4.21875Z" fill="#373737"/>
<path d="M461.499 4.39062H354.492C344.233 4.39062 335.917 12.7071 335.917 22.966V287.363C335.917 297.622 344.233 305.939 354.492 305.939H461.499C471.758 305.939 480.074 297.622 480.074 287.363V22.966C480.074 12.7071 471.758 4.39062 461.499 4.39062Z" fill="#363636"/>
<path d="M461.499 4.5625H354.492C344.327 4.5625 336.087 12.8028 336.087 22.9677V287.365C336.087 297.53 344.327 305.77 354.492 305.77H461.499C471.664 305.77 479.904 297.53 479.904 287.365V22.9677C479.904 12.8028 471.664 4.5625 461.499 4.5625Z" fill="#343434"/>
<path d="M461.499 4.73047H354.489C344.42 4.73047 336.257 12.8933 336.257 22.9626V287.363C336.257 297.432 344.42 305.595 354.489 305.595H461.499C471.569 305.595 479.731 297.432 479.731 287.363V22.9626C479.731 12.8933 471.569 4.73047 461.499 4.73047Z" fill="#333333"/>
<path d="M461.499 4.90234H354.489C344.514 4.90234 336.427 12.9889 336.427 22.9643V287.365C336.427 297.34 344.514 305.426 354.489 305.426H461.499C471.475 305.426 479.561 297.34 479.561 287.365V22.9643C479.561 12.9889 471.475 4.90234 461.499 4.90234Z" fill="#313131"/>
<path d="M461.499 5.07031H354.489C344.608 5.07031 336.598 13.0807 336.598 22.962V287.362C336.598 297.244 344.608 305.254 354.489 305.254H461.499C471.38 305.254 479.391 297.244 479.391 287.362V22.962C479.391 13.0807 471.38 5.07031 461.499 5.07031Z" fill="#303030"/>
<path d="M461.499 5.24219H354.489C344.702 5.24219 336.768 13.1764 336.768 22.9637V287.364C336.768 297.151 344.702 305.085 354.489 305.085H461.499C471.286 305.085 479.22 297.151 479.22 287.364V22.9637C479.22 13.1764 471.286 5.24219 461.499 5.24219Z" fill="#2F2F2F"/>
<path d="M461.499 5.41016H354.489C344.796 5.41016 336.938 13.2681 336.938 22.9615V287.362C336.938 297.055 344.796 304.913 354.489 304.913H461.499C471.192 304.913 479.05 297.055 479.05 287.362V22.9615C479.05 13.2681 471.192 5.41016 461.499 5.41016Z" fill="#2D2D2D"/>
<path d="M461.499 5.58203H354.489C344.89 5.58203 337.108 13.3638 337.108 22.9631V287.363C337.108 296.963 344.89 304.744 354.489 304.744H461.499C471.098 304.744 478.88 296.963 478.88 287.363V22.9631C478.88 13.3638 471.098 5.58203 461.499 5.58203Z" fill="#2C2C2C"/>
<path d="M461.499 5.75H354.492C344.987 5.75 337.281 13.4556 337.281 22.9609V287.358C337.281 296.864 344.987 304.569 354.492 304.569H461.499C471.004 304.569 478.71 296.864 478.71 287.358V22.9609C478.71 13.4556 471.004 5.75 461.499 5.75Z" fill="#2A2A2A"/>
<path d="M461.499 5.92188H354.492C345.081 5.92188 337.452 13.5512 337.452 22.9626V287.36C337.452 296.771 345.081 304.401 354.492 304.401H461.499C470.911 304.401 478.54 296.771 478.54 287.36V22.9626C478.54 13.5512 470.911 5.92188 461.499 5.92188Z" fill="#292929"/>
<path d="M461.499 6.09375H354.492C345.175 6.09375 337.622 13.6469 337.622 22.9642V287.362C337.622 296.679 345.175 304.232 354.492 304.232H461.499C470.816 304.232 478.369 296.679 478.369 287.362V22.9642C478.369 13.6469 470.816 6.09375 461.499 6.09375Z" fill="#272727"/>
<path d="M461.499 6.26562H354.492C345.269 6.26562 337.792 13.7426 337.792 22.9659V287.363C337.792 296.587 345.269 304.064 354.492 304.064H461.499C470.723 304.064 478.199 296.587 478.199 287.363V22.9659C478.199 13.7426 470.723 6.26562 461.499 6.26562Z" fill="#262626"/>
<path d="M461.499 3.58145C466.638 3.5868 471.565 5.63066 475.199 9.26455C478.833 12.8984 480.877 17.8255 480.882 22.9646V287.365C480.877 292.504 478.833 297.431 475.199 301.065C471.565 304.699 466.638 306.743 461.499 306.748H354.492C349.353 306.743 344.426 304.699 340.791 301.065C337.157 297.431 335.112 292.504 335.106 287.365V22.9646C335.112 17.8253 337.157 12.8982 340.791 9.26437C344.426 5.63057 349.353 3.5868 354.492 3.58145H461.499ZM461.499 2.47656H354.492C349.062 2.48419 343.857 4.64459 340.018 8.48411C336.178 12.3236 334.018 17.5289 334.01 22.9588V287.359C334.018 292.789 336.178 297.994 340.018 301.834C343.857 305.673 349.062 307.834 354.492 307.841H461.499C466.929 307.834 472.134 305.673 475.974 301.834C479.813 297.994 481.974 292.789 481.981 287.359V22.9646C481.974 17.5347 479.813 12.3294 475.974 8.48988C472.134 4.65036 466.929 2.48996 461.499 2.48233V2.47656Z" fill="#2D2C2C"/>
<mask id="mask0_197_1321" style="mask-type:luminance" maskUnits="userSpaceOnUse" x="340" y="8" width="136" height="294">
<path d="M461.499 8.94922H447.586C447.156 8.94922 446.744 9.11963 446.44 9.42306C446.136 9.72648 445.965 10.1381 445.964 10.5676V10.7695C445.966 11.9762 445.73 13.1714 445.27 14.2868C444.809 15.4022 444.133 16.4158 443.281 17.2698C442.428 18.1237 441.416 18.8011 440.301 19.2634C439.186 19.7256 437.992 19.9635 436.785 19.9635H378.754C376.319 19.9635 373.984 18.9964 372.263 17.2749C370.541 15.5534 369.574 13.2185 369.574 10.784V10.582C369.574 10.1528 369.404 9.74116 369.1 9.43766C368.797 9.13415 368.385 8.96364 367.956 8.96364H354.492C352.652 8.96326 350.829 9.32548 349.128 10.0296C347.428 10.7337 345.882 11.766 344.581 13.0674C343.279 14.3688 342.246 15.9139 341.542 17.6144C340.837 19.3149 340.475 21.1375 340.475 22.9781V287.378C340.475 289.219 340.837 291.042 341.542 292.742C342.246 294.443 343.279 295.988 344.581 297.289C345.882 298.591 347.428 299.623 349.128 300.327C350.829 301.031 352.652 301.393 354.492 301.393H461.499C465.216 301.393 468.781 299.916 471.409 297.288C474.037 294.66 475.514 291.095 475.514 287.378V22.9637C475.514 19.2468 474.037 15.6822 471.409 13.054C468.781 10.4257 465.216 8.94922 461.499 8.94922Z" fill="white"/>
</mask>
<g mask="url(#mask0_197_1321)">
<path d="M475.514 8.94922H340.475V301.378H475.514V8.94922Z" fill="#9EA6FF"/>
<path d="M340.186 301.668V69.8949H338.253C339.407 68.0986 340.561 66.3004 341.715 64.5003C344.06 60.9039 346.464 57.3094 348.927 53.7168C353.86 46.5393 359.031 39.3917 364.439 32.2739C369.847 25.156 375.359 18.2642 380.975 11.5983C381.677 10.7655 382.379 9.93567 383.081 9.10868C383.429 8.69327 383.78 8.28074 384.134 7.87109V8.6673H475.802V266.282H477.533C476.048 267.488 474.563 268.679 473.079 269.854C467.136 274.55 461.202 278.974 455.276 283.124C449.351 287.274 443.46 291.138 437.604 294.715C434.677 296.504 431.76 298.218 428.854 299.859C427.4 300.678 425.951 301.479 424.507 302.262V301.668H340.186Z" fill="#9EA6FF"/>
<path d="M340.186 301.667V70.2725H339.531C340.662 68.4935 341.809 66.7126 342.97 64.9298C345.293 61.3699 347.675 57.8119 350.116 54.2559C354.997 47.1515 360.115 40.077 365.469 33.0322C370.823 25.9875 376.274 19.1649 381.82 12.5644C383.205 10.9142 384.595 9.27951 385.992 7.66016V8.66119H475.802V264.638H477.374C475.907 265.832 474.438 267.01 472.966 268.172C467.087 272.818 461.215 277.195 455.349 281.303C444.251 289.131 432.648 296.217 420.615 302.513V301.667H340.186Z" fill="#9FA7FF"/>
<path d="M340.186 301.669V73.2941H339.145C339.695 72.4133 340.251 71.5324 340.812 70.6516C341.932 68.888 343.066 67.1254 344.214 65.3637C346.522 61.8423 348.878 58.3228 351.284 54.8052C356.117 47.7739 361.182 40.7734 366.479 33.8037C371.775 26.8339 377.169 20.0825 382.66 13.5493C384.033 11.9165 385.409 10.2971 386.788 8.69125L387.826 7.48828V8.66241H475.814V262.992H477.227C475.773 264.171 474.318 265.336 472.863 266.488C467.043 271.087 461.232 275.414 455.43 279.47C444.448 287.216 432.965 294.227 421.057 300.457C419.649 301.188 418.245 301.899 416.845 302.592V301.654L340.186 301.669Z" fill="#A0A7FE"/>
<path d="M340.186 301.669V76.2604H338.804C347.427 62.3065 356.999 48.3497 367.48 34.5689C372.72 27.678 378.057 20.9977 383.49 14.528C384.837 12.9125 386.198 11.3105 387.575 9.72187C388.258 8.92566 388.943 8.13425 389.629 7.34766V8.66314H475.802V261.342H477.054C475.617 262.514 474.175 263.668 472.727 264.804C466.969 269.356 461.218 273.643 455.476 277.665C444.609 285.33 433.248 292.269 421.466 298.435C418.68 299.88 415.909 301.251 413.155 302.549V301.684L340.186 301.669Z" fill="#A1A8FE"/>
<path d="M340.186 301.669V76.5803H340.114C348.648 62.7764 358.116 48.9668 368.487 35.3273C373.679 28.5114 378.958 21.9023 384.324 15.4999C385.671 13.9017 387.017 12.316 388.363 10.7428C389.041 9.95811 389.716 9.17632 390.382 8.39453V8.65705H475.773V259.695H476.867C475.442 260.849 474.017 261.99 472.594 263.119C466.9 267.623 461.211 271.864 455.528 275.841C444.777 283.425 433.536 290.288 421.879 296.387C419.121 297.818 416.38 299.175 413.657 300.457C412.296 301.102 410.939 301.725 409.587 302.327V301.669H340.186Z" fill="#A2A8FD"/>
<path d="M340.186 301.67V82.0252H338.302C339.329 80.3173 340.37 78.6105 341.424 76.9046C349.865 63.2478 359.232 49.5882 369.49 36.0987C374.62 29.354 379.843 22.815 385.161 16.4819C387.815 13.3201 390.489 10.2103 393.183 7.15234V8.66111H475.802V258.046H476.734C475.326 259.2 473.917 260.329 472.508 261.433C466.874 265.887 461.247 270.082 455.626 274.019C444.99 281.52 433.869 288.309 422.338 294.343C416.885 297.174 411.5 299.712 406.183 301.959V301.67H340.186Z" fill="#A3A9FD"/>
<path d="M340.186 299.702V82.2781H339.647C340.662 80.5875 341.692 78.899 342.737 77.2123C351.085 63.7055 360.351 50.193 370.497 36.8507C375.569 30.1809 380.735 23.7141 385.995 17.4502C388.624 14.3211 391.27 11.244 393.934 8.21875V8.64859H475.802V256.386H476.575C475.181 257.517 473.788 258.633 472.395 259.735C466.818 264.14 461.251 268.29 455.695 272.186C445.175 279.606 434.176 286.323 422.77 292.294C417.376 295.092 412.047 297.603 406.786 299.826C404.158 300.936 401.553 301.972 398.968 302.936V301.661H340.186V299.702Z" fill="#A4AAFC"/>
<path d="M340.186 297.577V85.0579H339.497C339.993 84.2213 340.491 83.3866 340.991 82.5539C341.995 80.8845 343.013 79.2142 344.046 77.5429C352.303 64.1862 361.468 50.8208 371.501 37.6256C376.517 31.027 381.627 24.6313 386.831 18.4386C389.427 15.3422 392.044 12.2997 394.681 9.31098C395.338 8.56477 395.998 7.82049 396.66 7.07812V8.6619H475.802V254.752H476.414C475.037 255.871 473.659 256.975 472.28 258.064C466.768 262.42 461.263 266.521 455.764 270.368C445.359 277.712 434.481 284.362 423.2 290.273C412.526 295.806 402.098 300.217 392.044 303.425V301.694H340.186V297.577Z" fill="#A6AAFC"/>
<path d="M340.186 295.466V87.7585H339.402C341.325 84.4583 343.31 81.1571 345.356 77.8549C353.523 64.6424 362.584 51.427 372.508 38.3789C377.47 31.8554 382.522 25.5308 387.665 19.4054C390.236 16.3456 392.824 13.3367 395.428 10.3788C396.08 9.64026 396.733 8.90462 397.387 8.17188V8.65076H475.802V253.091H476.255C474.889 254.199 473.527 255.291 472.167 256.368C466.715 260.678 461.27 264.737 455.833 268.545C445.544 275.8 434.787 282.369 423.633 288.208C413.08 293.689 402.764 298.042 392.834 301.213C390.353 302.007 387.897 302.725 385.467 303.368V301.657H340.175L340.186 295.466Z" fill="#A7ABFB"/>
<path d="M340.186 293.331V90.4236H339.358C339.828 89.61 340.301 88.7956 340.778 87.9801C342.684 84.7106 344.646 81.446 346.666 78.1861C354.743 65.1236 363.701 52.0553 373.512 39.1544C378.418 32.7039 383.418 26.4535 388.513 20.403C391.052 17.3759 393.61 14.4007 396.19 11.4774C397.476 10.0176 398.768 8.56946 400.064 7.13281V8.67043H475.802V251.463H476.091C474.744 252.56 473.398 253.639 472.052 254.703C466.667 258.963 461.282 262.976 455.897 266.741C445.723 273.916 435.087 280.412 424.057 286.185C413.625 291.594 403.422 295.907 393.608 299.046C388.87 300.569 384.055 301.842 379.183 302.859V301.677H340.186V293.331Z" fill="#A8ABFB"/>
<path d="M340.186 291.205V93.0178H339.37C340.283 91.408 341.212 89.7964 342.157 88.1828C344.041 84.9576 345.982 81.7304 347.978 78.5013C355.958 65.5888 364.817 52.6706 374.519 39.9139C379.367 33.5365 384.308 27.3553 389.341 21.3702C391.841 18.3796 394.369 15.439 396.925 12.5484C398.198 11.1021 399.475 9.66934 400.756 8.25V8.65965H475.802V249.805H475.935C474.602 250.888 473.269 251.955 471.936 253.007C466.609 257.219 461.287 261.187 455.972 264.91C445.913 272.003 435.397 278.424 424.492 284.132C403.866 294.829 384.151 301.19 366.577 302.595C357.787 303.29 349.533 302.742 341.969 300.864C341.023 300.631 340.087 300.377 339.162 300.102H340.186V291.205Z" fill="#A9ACFA"/>
<path d="M340.186 289.085V95.5677H339.433C339.878 94.7715 340.327 93.9753 340.781 93.1791C341.683 91.5866 342.6 89.9932 343.533 88.3989C345.396 85.2102 347.32 82.0205 349.302 78.8299C357.192 66.0645 365.948 53.2934 375.537 40.6838C380.316 34.3718 385.194 28.2608 390.172 22.3508C392.653 19.3948 395.153 16.4878 397.672 13.6299C398.93 12.2029 400.193 10.7874 401.46 9.38345C402.095 8.68148 402.729 7.98334 403.364 7.28906V8.66224H475.802V246.542H477.749L475.773 248.161C474.458 249.232 473.141 250.29 471.824 251.334C466.556 255.496 461.295 259.417 456.041 263.098C446.098 270.109 435.704 276.456 424.925 282.098C404.532 292.671 385.045 298.96 367.673 300.333C358.987 301.022 350.826 300.48 343.348 298.631C342.413 298.4 341.489 298.149 340.576 297.878C340.118 297.741 339.664 297.6 339.214 297.454H340.186V289.085Z" fill="#AAADFA"/>
<path d="M340.186 286.956V98.0489H339.549C343.011 91.7638 346.694 85.4634 350.598 79.1475C358.387 66.5293 367.041 53.9082 376.529 41.4457C381.266 35.2164 386.092 29.1765 391.006 23.3261C393.46 20.4047 395.931 17.5314 398.42 14.7062C399.666 13.2927 400.916 11.8935 402.17 10.5088C402.795 9.81645 403.422 9.12601 404.051 8.4375V8.65963H475.802V244.927H477.565C476.917 245.462 476.267 245.993 475.615 246.522C474.311 247.582 473.009 248.626 471.709 249.655C466.504 253.769 461.305 257.644 456.11 261.281C446.283 268.211 436.009 274.485 425.355 280.061C405.208 290.499 385.94 296.713 368.769 298.06C360.184 298.738 352.121 298.204 344.727 296.378C342.877 295.922 341.072 295.385 339.312 294.765H340.178L340.186 286.956Z" fill="#ABADF9"/>
<path d="M340.186 284.838V102.805H338.456C339.285 101.257 340.127 99.7058 340.983 98.1519C344.41 91.9418 348.051 85.7154 351.905 79.4726C359.61 67.0044 368.164 54.5304 377.528 42.2179C386.892 29.9055 396.637 18.3258 406.592 7.5625V8.65585H475.802V243.279H477.383C476.739 243.81 476.096 244.336 475.453 244.857C474.167 245.905 472.881 246.937 471.596 247.952C466.45 252.018 461.311 255.848 456.18 259.443C446.468 266.29 436.316 272.49 425.788 278.001C405.868 288.328 386.843 294.47 369.866 295.815C361.381 296.484 353.422 295.956 346.106 294.15C344.279 293.7 342.495 293.169 340.755 292.558C339.884 292.248 339.024 291.921 338.176 291.577H340.195L340.186 284.838Z" fill="#ACAEF9"/>
<path d="M340.186 282.713V102.847H339.93C340.749 101.318 341.583 99.7849 342.431 98.2483C345.816 92.1113 349.412 85.957 353.22 79.7854C360.833 67.4643 369.286 55.1403 378.54 42.9721C387.795 30.8039 397.419 19.3886 407.253 8.74648C407.868 8.07913 408.484 7.41754 409.099 6.76172V8.66282H475.802V241.656H477.199C476.564 242.181 475.928 242.701 475.292 243.217C474.022 244.249 472.752 245.269 471.481 246.275C466.398 250.29 461.32 254.074 456.249 257.626C446.654 264.394 436.621 270.521 426.218 275.965C406.538 286.172 387.731 292.239 370.962 293.563C362.579 294.226 354.706 293.704 347.488 291.921C345.682 291.473 343.918 290.947 342.197 290.343C341.338 290.043 340.488 289.721 339.65 289.377H340.186V282.713Z" fill="#ADAEF8"/>
<path d="M340.186 280.589V107.424H339.012C340.58 104.407 342.199 101.38 343.87 98.3455C347.215 92.2854 350.773 86.2081 354.544 80.1134C362.068 67.9423 370.411 55.7654 379.561 43.7443C388.712 31.7233 398.206 20.4234 407.925 9.92262C408.535 9.26488 409.143 8.61099 409.751 7.96094V8.66195H475.814V240.025H477.028C476.399 240.544 475.771 241.059 475.144 241.569C473.89 242.59 472.635 243.597 471.377 244.589C466.353 248.558 461.338 252.297 456.33 255.805C446.849 262.49 436.939 268.542 426.662 273.922C407.218 284.019 388.637 289.999 372.072 291.312C363.787 291.966 356.01 291.45 348.878 289.687C345.371 288.829 341.956 287.628 338.683 286.102H340.198L340.186 280.589Z" fill="#AEAFF8"/>
<path d="M340.186 278.466V111.879H338.23C338.979 110.392 339.739 108.904 340.512 107.413C342.051 104.43 343.65 101.441 345.31 98.447C348.612 92.4562 352.122 86.4519 355.839 80.4342C363.271 68.4102 371.519 56.3834 380.551 44.5094C389.583 32.6355 398.971 21.4712 408.571 11.1002C409.771 9.80205 410.974 8.51734 412.18 7.24609V8.66255H475.802V238.399H476.832C476.213 238.91 475.593 239.418 474.971 239.922C473.733 240.93 472.493 241.924 471.253 242.905C466.291 246.826 461.336 250.52 456.387 253.985C447.022 260.585 437.232 266.56 427.08 271.871C407.873 281.83 389.52 287.738 373.157 289.048C364.976 289.694 357.291 289.186 350.246 287.444C346.781 286.597 343.409 285.41 340.178 283.901L340.186 278.466Z" fill="#AFB0F7"/>
<path d="M340.186 276.342V111.812H339.759C340.498 110.343 341.249 108.872 342.012 107.401C343.541 104.455 345.121 101.503 346.752 98.5446C350.022 92.6288 353.483 86.6986 357.138 80.7539C364.477 68.8799 372.623 57.0002 381.543 45.2705C390.463 33.5408 399.732 22.5179 409.214 12.2738C410.399 10.993 411.588 9.72461 412.78 8.46875V8.65915H475.802V236.768H476.65C476.035 237.274 475.422 237.775 474.813 238.271C473.587 239.269 472.362 240.252 471.137 241.22C466.239 245.091 461.345 248.738 456.456 252.162C447.208 258.685 437.538 264.59 427.51 269.837C408.542 279.674 390.414 285.522 374.253 286.803C366.176 287.44 358.583 286.938 351.625 285.219C348.203 284.381 344.873 283.209 341.681 281.72C340.892 281.35 340.117 280.966 339.355 280.566H340.186V276.342Z" fill="#B0B0F7"/>
<path d="M340.186 274.216V116.087H339.145C350.396 92.9511 364.944 69.2032 382.562 46.038C391.369 34.4555 400.525 23.571 409.89 13.4539C411.061 12.1865 412.235 10.9364 413.412 9.70362L415.177 7.85156V8.67086H475.802V235.139H476.463C475.861 235.639 475.256 236.134 474.648 236.624C473.439 237.609 472.229 238.579 471.019 239.535C466.186 243.358 461.355 246.961 456.526 250.342C447.392 256.781 437.844 262.612 427.943 267.795C409.212 277.508 391.306 283.283 375.35 284.547C367.37 285.179 359.875 284.683 353.004 282.983C349.628 282.155 346.343 280.995 343.195 279.522C341.645 278.794 340.135 277.986 338.669 277.101H340.198L340.186 274.216Z" fill="#B1B1F6"/>
<path d="M340.186 272.098V120.24H338.652C339.321 118.817 340.002 117.392 340.694 115.965C351.798 93.1288 366.173 69.6723 383.571 46.7927C392.266 35.3572 401.307 24.6084 410.553 14.6211C412.861 12.1209 415.184 9.67169 417.523 7.27344V8.65239H475.796V233.51H476.278C475.681 234.001 475.084 234.491 474.487 234.976C473.292 235.947 472.098 236.909 470.904 237.861C466.126 241.636 461.355 245.194 456.589 248.534C447.573 254.888 438.147 260.64 428.373 265.751C409.878 275.343 392.206 281.041 376.446 282.293C368.567 282.916 361.156 282.423 354.385 280.746C351.049 279.932 347.801 278.79 344.69 277.337C343.159 276.618 341.666 275.821 340.218 274.948C339.858 274.729 339.5 274.505 339.142 274.276H340.186V272.098Z" fill="#B2B1F6"/>
<path d="M340.186 269.972V124.271H338.28C339.549 121.473 340.868 118.665 342.238 115.847C353.2 93.3023 367.39 70.1458 384.561 47.5691C393.146 36.2808 402.072 25.6704 411.196 15.81C413.479 13.3425 415.774 10.9241 418.08 8.55469V8.66431H475.802V231.884H476.091C475.514 232.368 474.914 232.853 474.322 233.326C473.145 234.288 471.966 235.233 470.785 236.162C466.07 239.889 461.358 243.4 456.65 246.694C447.749 252.975 438.442 258.661 428.791 263.715C410.533 273.183 393.086 278.814 377.528 280.043C369.739 280.657 362.446 280.173 355.75 278.52C352.456 277.714 349.25 276.586 346.178 275.15C344.667 274.443 343.195 273.657 341.767 272.793C341.052 272.361 340.349 271.91 339.658 271.44H340.172L340.186 269.972Z" fill="#B3B2F5"/>
<path d="M340.187 267.847V124.035H339.898C341.15 121.277 342.453 118.507 343.807 115.724C354.625 93.4731 368.631 70.6166 385.579 48.3313C394.052 37.1901 402.859 26.7182 411.869 16.9848C414.121 14.55 416.384 12.1633 418.66 9.82465C419.237 9.24768 419.814 8.67072 420.367 8.09375V8.67072H475.802V228.812H477.66C475.335 230.745 473.013 232.634 470.693 234.481C466.037 238.16 461.388 241.622 456.745 244.866C447.958 251.061 438.772 256.67 429.247 261.656C393.207 280.347 360.363 283.883 339.26 267.835L340.187 267.847Z" fill="#B5B3F5"/>
<path d="M340.876 265.722C340.227 265.226 339.589 264.715 338.969 264.19H340.198V127.879H339.702C340.292 126.517 340.893 125.163 341.505 123.817C342.743 121.094 344.029 118.359 345.362 115.613C356.036 93.6562 369.86 71.0998 386.583 49.1087C394.949 38.1146 403.638 27.7783 412.529 18.1747C414.751 15.7745 416.984 13.4195 419.231 11.1097C420.352 9.95582 421.477 8.81246 422.606 7.67969V8.67495H475.802V227.192H477.455C475.159 229.115 472.863 230.983 470.566 232.794C465.974 236.424 461.386 239.843 456.803 243.053C448.132 249.168 439.066 254.704 429.665 259.623C394.098 278.069 361.69 281.56 340.876 265.722Z" fill="#B6B3F5"/>
<path d="M342.48 263.599C341.201 262.626 339.975 261.585 338.807 260.48H340.186V131.607H339.609C341.852 126.281 344.29 120.908 346.925 115.486C357.458 93.821 371.097 71.5675 387.601 49.8678C395.852 39.018 404.429 28.823 413.198 19.3463C415.391 16.9769 417.596 14.6527 419.813 12.3737C420.917 11.2371 422.027 10.1101 423.142 8.99267C423.699 8.4359 424.256 7.87913 424.813 7.32812V8.66957H475.802V225.583H477.245C474.979 227.475 472.713 229.318 470.448 231.11C465.919 234.693 461.393 238.066 456.872 241.23C448.317 247.263 439.373 252.725 430.098 257.578C395.004 275.782 363.026 279.223 342.48 263.599Z" fill="#B7B4F4"/>
<path d="M344.095 261.474C342.833 260.516 341.623 259.49 340.472 258.402C339.895 257.859 339.335 257.3 338.79 256.729H340.186V135.188H339.632C340.163 133.882 340.705 132.572 341.257 131.259C343.466 126.006 345.87 120.706 348.469 115.358C358.854 93.9839 372.315 72.0303 388.591 50.6249C396.732 39.9222 405.19 29.8541 413.845 20.516C418.172 15.8425 422.54 11.3489 426.95 7.03516V8.6622H475.802V223.974H477.04C474.807 225.842 472.572 227.659 470.335 229.427C465.864 232.961 461.398 236.291 456.938 239.414C448.498 245.365 439.674 250.752 430.525 255.54C395.91 273.492 364.364 276.891 344.095 261.474Z" fill="#B8B4F4"/>
<path d="M345.711 259.353C343.222 257.461 340.941 255.309 338.908 252.934H340.186V138.648H339.783C340.779 136.087 341.821 133.511 342.91 130.92C345.091 125.739 347.463 120.511 350.027 115.235C360.273 94.1557 373.544 72.5051 389.601 51.391C397.629 40.8354 405.972 30.9088 414.505 21.6946C418.775 17.0789 423.085 12.6468 427.435 8.39844V8.66385H475.802V222.366H476.835C474.635 224.207 472.431 225.999 470.223 227.743C465.815 231.228 461.411 234.511 457.01 237.592C448.687 243.463 439.985 248.777 430.96 253.499C396.816 271.206 365.7 274.556 345.711 259.353Z" fill="#B9B5F3"/>
<path d="M347.323 257.228C344.871 255.361 342.624 253.239 340.619 250.898C340.114 250.321 339.627 249.716 339.154 249.101H340.186V145.743H338.686C342.41 135.304 346.715 125.082 351.581 115.124C361.678 94.3387 374.773 72.9852 390.605 52.1654C398.523 41.757 406.76 31.9716 415.166 22.8815C419.374 18.3351 423.623 13.9645 427.914 9.77C428.987 8.72377 430.06 7.68716 431.133 6.66016V8.67954H475.802V220.749H476.63C474.457 222.563 472.284 224.33 470.11 226.051C465.76 229.486 461.416 232.724 457.08 235.765C448.876 241.553 440.299 246.792 431.405 251.449C397.721 268.926 367.038 272.22 347.323 257.228Z" fill="#BAB5F3"/>
<path d="M348.953 255.106C346.527 253.266 344.303 251.175 342.318 248.866C341.33 247.712 340.395 246.504 339.514 245.242H340.178V148.852H339.145C339.557 147.63 339.981 146.406 340.417 145.179C344.091 134.888 348.338 124.81 353.136 114.992C363.101 94.5101 376.002 73.4509 391.611 52.9195C399.4 42.6582 407.53 33.0142 415.827 24.0482C419.975 19.5651 424.165 15.2562 428.396 11.1213C429.452 10.0885 430.509 9.0663 431.569 8.05469V8.66339H475.802V219.146H476.422C474.282 220.937 472.139 222.679 469.995 224.374C465.708 227.764 461.426 230.956 457.149 233.948C449.057 239.656 440.596 244.822 431.823 249.414C398.627 266.619 368.377 269.887 348.953 255.106Z" fill="#BBB6F2"/>
<path d="M350.555 252.981C345.755 249.298 341.766 244.664 338.836 239.37H340.187V151.839H339.722C340.491 149.454 341.303 147.05 342.157 144.627C345.778 134.484 349.962 124.552 354.691 114.876C364.514 94.6819 377.225 73.9112 392.618 53.6856C400.309 43.5686 408.306 34.0688 416.484 25.2239C420.575 20.8005 424.705 16.5531 428.875 12.4816C429.915 11.4623 430.959 10.4546 432.005 9.45835C432.527 8.95927 433.049 8.46596 433.571 7.97266V8.66213H475.802V217.524H476.218C474.102 219.289 471.987 221.007 469.871 222.676C465.64 226.017 461.419 229.163 457.21 232.115C449.233 237.741 440.893 242.834 432.244 247.359C399.53 264.339 369.724 267.549 350.555 252.981Z" fill="#BCB7F2"/>
<path d="M352.17 250.859C347.443 247.227 343.515 242.661 340.631 237.444C339.883 236.117 339.188 234.741 338.548 233.316H340.195V158.181H339.376C340.693 153.565 342.2 148.862 343.896 144.071C347.463 134.073 351.586 124.283 356.246 114.747C365.925 94.8413 378.459 74.3878 393.622 54.4537C401.203 44.4837 409.085 35.1253 417.145 26.4045C421.184 22.0522 425.253 17.8664 429.354 13.8468C431.408 11.839 433.467 9.87442 435.533 7.95312V8.66568H475.802V215.926H476.013C473.93 217.657 471.848 219.349 469.767 221.003C465.601 224.296 461.442 227.397 457.287 230.307C449.426 235.851 441.206 240.869 432.683 245.328C400.436 262.052 371.051 265.216 352.17 250.859Z" fill="#BDB7F1"/>
<path d="M353.785 248.73C349.124 245.154 345.251 240.654 342.408 235.512C340.902 232.821 339.634 230.005 338.617 227.094H340.186V164.205H339.37C339.926 161.966 340.529 159.708 341.179 157.431C342.479 152.873 343.963 148.238 345.633 143.526C349.148 133.677 353.21 124.031 357.801 114.635C367.338 95.0179 379.688 74.8703 394.629 55.2246C402.098 45.4018 409.864 36.1675 417.805 27.588C421.775 23.2992 425.785 19.1749 429.835 15.215C431.857 13.236 433.886 11.3012 435.922 9.41068C436.43 8.93757 436.941 8.46734 437.448 8V8.67217H475.816V214.314C473.768 216.028 471.717 217.695 469.663 219.317C465.561 222.559 461.463 225.614 457.368 228.482C449.625 233.944 441.53 238.889 433.135 243.284C401.342 259.762 372.387 262.88 353.785 248.73Z" fill="#BEB8F1"/>
<path d="M355.401 246.609C350.809 243.087 346.993 238.656 344.191 233.593C342.71 230.942 341.461 228.168 340.458 225.302C339.938 223.829 339.469 222.312 339.05 220.753H340.186V169.87H339.696C346.977 135.373 366.199 94.6827 395.633 55.9799C402.992 46.3041 410.634 37.2083 418.463 28.7557C422.375 24.5246 426.325 20.4618 430.314 16.5673C432.309 14.621 434.308 12.7151 436.312 10.8496C437.312 9.91684 438.315 8.99562 439.321 8.08594V8.6629H475.802V211.432H477.115L475.597 212.707C473.578 214.393 471.559 216.036 469.539 217.634C465.5 220.83 461.462 223.84 457.423 226.664C449.794 232.041 441.817 236.908 433.545 241.232C402.248 257.476 373.725 260.56 355.401 246.609Z" fill="#BFB8F0"/>
<path d="M357.031 244.486C348.007 237.623 342.347 227.224 339.84 214.294H340.201V193.122H338.418C338.784 184.977 339.836 176.878 341.562 168.91C348.734 134.935 367.664 94.862 396.663 56.7447C411.156 37.6847 426.795 20.918 442.661 6.91797V8.64887H475.837V209.84H476.919C476.422 210.261 475.925 210.679 475.427 211.095C473.425 212.76 471.424 214.378 469.424 215.95C465.443 219.096 461.466 222.06 457.495 224.841C449.982 230.145 442.125 234.946 433.978 239.213C403.154 255.189 375.064 258.212 357.031 244.486Z" fill="#C0B9F0"/>
<path d="M358.629 242.362C349.747 235.606 344.173 225.364 341.704 212.631C339.234 199.897 339.872 184.688 343.403 167.956C350.462 134.492 369.101 95.048 397.638 57.5164C411.909 38.7506 427.308 22.2407 442.929 8.45703V8.67051H475.802V208.249H476.668C476.177 208.664 475.687 209.074 475.199 209.483C473.239 211.122 471.28 212.715 469.32 214.264C465.4 217.362 461.486 220.28 457.576 223.019C450.177 228.236 442.441 232.958 434.419 237.155C404.054 252.897 376.4 255.877 358.629 242.362Z" fill="#C1BAEF"/>
<path d="M360.245 240.24C342.754 226.938 338.305 199.919 345.243 166.988C352.181 134.058 370.54 95.2195 398.639 58.2735C412.688 39.8106 427.842 23.5488 443.221 9.98144C444.182 9.1333 445.144 8.29573 446.106 7.46875V8.66307H475.802V206.66H476.425C475.943 207.067 475.462 207.474 474.983 207.875C473.06 209.488 471.132 211.057 469.199 212.58C465.339 215.63 461.485 218.504 457.636 221.2C450.355 226.337 442.742 230.986 434.846 235.116C404.962 250.611 377.738 253.542 360.245 240.24Z" fill="#C2BAEF"/>
<path d="M361.86 238.114C344.646 225.023 340.27 198.431 347.107 166.025C353.944 133.62 372.003 95.3961 399.654 59.0357C413.481 40.8613 428.396 24.8649 443.53 11.511C444.476 10.6744 445.423 9.84937 446.371 9.03585C446.844 8.62812 447.318 8.22425 447.793 7.82422V8.66082H475.802V203.854H477.617C476.669 204.668 475.72 205.471 474.772 206.263C472.874 207.85 470.976 209.393 469.078 210.893C465.281 213.895 461.489 216.722 457.7 219.374C450.533 224.43 443.039 229.006 435.267 233.072C405.868 248.321 379.074 251.206 361.86 238.114Z" fill="#C3BBEE"/>
<path d="M363.476 235.991C346.539 223.11 342.232 196.947 348.953 165.07C355.675 133.193 373.446 95.5775 400.652 59.8056C414.254 41.9197 428.924 26.1858 443.821 13.0454C445.683 11.4049 447.546 9.80384 449.412 8.24219V8.66626H475.794V202.284H477.357C476.424 203.086 475.492 203.877 474.559 204.656C472.699 206.215 470.834 207.733 468.962 209.208C465.225 212.162 461.494 214.944 457.769 217.554C450.717 222.527 443.344 227.029 435.697 231.029C406.774 246.033 380.412 248.871 363.476 235.991Z" fill="#C4BBEE"/>
<path d="M365.091 233.867C348.431 221.2 344.196 195.467 350.814 164.106C357.432 132.745 374.917 95.7529 401.665 60.5666C415.045 42.9692 429.48 27.4979 444.127 14.5738C445.958 12.9583 447.791 11.3832 449.628 9.84848C450.545 9.0792 451.464 8.32241 452.383 7.57812V8.66282H475.802V200.712H477.115C476.197 201.502 475.28 202.28 474.363 203.045C472.528 204.584 470.691 206.077 468.852 207.526C465.177 210.432 461.507 213.167 457.841 215.733C450.906 220.627 443.654 225.055 436.133 228.989C407.68 243.745 381.751 246.537 365.091 233.867Z" fill="#C5BCEE"/>
<path d="M366.707 231.745C350.324 219.289 346.158 193.986 352.666 163.147C359.174 132.308 376.359 95.9305 402.672 61.3327C415.83 44.0238 430.023 28.8149 444.424 16.1073C448.024 12.932 451.633 9.91451 455.251 7.05469V8.66442H475.802V199.144H476.864C475.96 199.913 475.058 200.678 474.158 201.437C472.352 202.947 470.545 204.415 468.737 205.842C465.125 208.698 461.517 211.391 457.911 213.92C451.09 218.731 443.959 223.085 436.563 226.954C408.583 241.459 383.087 244.205 366.707 231.745Z" fill="#C6BDED"/>
<path d="M368.322 229.62C352.216 217.374 348.128 192.498 354.521 162.184C360.914 131.87 377.802 96.1243 403.676 62.0833C416.611 45.0628 430.565 30.1165 444.721 17.6252C448.26 14.5 451.808 11.5334 455.366 8.72551C456.254 8.02354 457.143 7.33118 458.032 6.64844V8.65051H475.802V197.569H476.61C475.725 198.339 474.839 199.091 473.95 199.825C472.177 201.308 470.402 202.75 468.625 204.152C465.07 206.962 461.522 209.608 457.98 212.089C451.275 216.817 444.265 221.097 436.995 224.9C409.489 239.168 384.437 241.869 368.322 229.62Z" fill="#C8BDED"/>
<path d="M369.935 227.497C338.28 203.44 353.84 129.716 404.683 62.8599C417.393 46.1481 431.105 31.4441 445.021 19.1692C448.496 16.092 451.983 13.1764 455.481 10.4224C456.353 9.73387 457.225 9.05402 458.098 8.38281V8.6713H475.802V196H476.359C475.488 196.747 474.617 197.485 473.745 198.216C471.999 199.674 470.254 201.092 468.509 202.471C465.019 205.233 461.532 207.829 458.049 210.26C451.46 214.909 444.57 219.115 437.425 222.852C410.4 236.881 385.761 239.533 369.935 227.497Z" fill="#C9BEEC"/>
<path d="M371.55 225.364C340.455 201.709 355.739 129.3 405.689 63.615C418.175 47.1946 431.653 32.7474 445.318 20.6888C448.734 17.6751 452.159 14.8114 455.594 12.0978C457.311 10.7515 459.026 9.43507 460.738 8.14844V8.65328H475.802V194.428H476.108C475.25 195.162 474.393 195.888 473.538 196.606C471.834 198.036 470.116 199.43 468.385 200.786C464.954 203.497 461.529 206.051 458.11 208.448C451.636 213.014 444.867 217.147 437.847 220.818C411.3 234.596 387.1 237.192 371.55 225.364Z" fill="#CABEEC"/>
<path d="M373.166 223.25C342.624 200.022 357.634 128.899 406.693 64.3916C418.96 48.2655 432.189 34.0779 445.615 22.2328C448.973 19.2729 452.339 16.4602 455.712 13.7947C457.397 12.4619 459.081 11.1685 460.764 9.91456C461.606 9.28759 462.447 8.67024 463.288 8.0625V8.66543H475.805V192.856H475.857C475.019 193.581 474.178 194.294 473.336 194.996C471.649 196.395 469.964 197.767 468.281 199.113C464.912 201.777 461.546 204.286 458.185 206.64C451.824 211.123 445.174 215.182 438.279 218.791C412.206 232.303 388.438 234.862 373.166 223.25Z" fill="#CBBFEB"/>
<path d="M374.781 221.129C344.793 198.321 359.532 128.491 407.7 65.1575C419.741 49.3227 432.732 35.3947 445.912 23.7631C452.222 18.1734 458.84 12.9408 465.734 8.08984V8.66681H475.802V190.218H476.841L475.597 191.288C474.772 191.998 473.946 192.698 473.119 193.388C471.469 194.767 469.816 196.113 468.16 197.427C464.854 200.044 461.551 202.507 458.251 204.815C452.008 209.219 445.481 213.204 438.712 216.747C413.109 230.017 389.774 232.529 374.781 221.129Z" fill="#CCBFEB"/>
<path d="M376.397 219.001C346.972 196.62 361.43 128.083 408.707 65.9204C420.535 50.3798 433.277 36.7086 446.21 25.2934C452.402 19.8062 458.896 14.6699 465.662 9.90859C466.47 9.34317 467.277 8.7864 468.085 8.23828V8.66235H475.799V187.602H477.775C464.837 199.015 451.714 208.174 439.148 214.694C414.015 227.728 391.112 230.194 376.397 219.001Z" fill="#CDC0EA"/>
<path d="M378.012 216.877C349.135 194.918 363.326 127.673 409.711 66.6989C421.305 51.4497 433.817 38.0381 446.51 26.8363C452.586 21.4549 458.958 16.4169 465.596 11.7458C467.182 10.6342 468.766 9.56005 470.347 8.52344V8.67633H475.802V186.093H477.481C464.788 197.292 451.91 206.287 439.58 212.674C414.921 225.439 392.448 227.857 378.012 216.877Z" fill="#CEC1EA"/>
<path d="M379.625 214.756C351.305 193.218 365.224 127.282 410.715 67.4509C422.09 52.496 434.37 39.3412 446.807 28.3557C452.767 23.0775 459.016 18.1358 465.526 13.5537C468.638 11.3747 471.735 9.34377 474.818 7.46094V8.66391H475.802V184.54H477.184C464.733 195.526 452.103 204.339 440.01 210.611C415.827 223.151 393.786 225.525 379.625 214.756Z" fill="#CFC1E9"/>
<path d="M381.24 212.63C353.477 191.513 367.128 126.856 411.721 68.2128C422.871 53.5521 434.898 40.6541 447.104 29.885C452.947 24.71 459.074 19.8656 465.457 15.3743C468.509 13.2376 471.546 11.2461 474.567 9.39986C475.323 8.93829 476.076 8.48729 476.826 8.04688L475.802 8.66134V183.006H476.884C464.681 193.775 452.299 202.415 440.443 208.565C416.747 220.861 395.125 223.189 381.24 212.63Z" fill="#D0C2E9"/>
<path d="M382.856 210.508C355.646 189.815 369.009 126.45 412.725 68.9786C423.653 54.6093 435.441 41.9709 447.401 31.4182C453.128 26.3471 459.133 21.599 465.388 17.196C468.379 15.1016 471.355 13.1505 474.316 11.3426C475.055 10.8888 475.793 10.4464 476.532 10.0156H475.802V181.475H476.587C464.626 192.031 452.493 200.498 440.873 206.524C417.635 218.574 396.461 220.853 382.856 210.508Z" fill="#D1C2E8"/>
<path d="M384.471 208.386C357.816 188.115 370.913 126.042 413.732 69.7444C424.435 55.6693 435.983 43.2876 447.701 32.9513C453.309 27.9821 459.191 23.3302 465.319 19.0176C468.248 16.9578 471.163 15.0471 474.066 13.2854C474.789 12.8412 475.512 12.4075 476.235 11.9844H475.802V179.948H476.29C464.572 190.284 452.686 198.581 441.305 204.483C418.541 216.288 397.799 218.521 384.471 208.386Z" fill="#D2C3E8"/>
<path d="M386.087 206.259C359.988 186.42 372.814 125.633 414.727 70.5071C425.208 56.7263 436.516 44.6014 447.989 34.4785C453.484 29.6111 459.246 25.0546 465.249 20.8304C468.117 18.8187 470.972 16.9464 473.814 15.2136C474.524 14.7809 475.232 14.3568 475.938 13.9414H475.802V178.405H475.992C464.52 188.528 452.879 196.649 441.735 202.43C419.447 213.998 399.149 216.185 386.087 206.259Z" fill="#D3C3E8"/>
<path d="M387.702 204.136C362.157 184.709 374.721 125.224 415.743 71.2721C426.001 57.7855 437.068 45.9289 448.295 36.0108C453.671 31.2496 459.308 26.7924 465.18 22.6598C467.988 20.6943 470.782 18.8624 473.561 17.1642C474.951 16.3161 476.335 15.5035 477.712 14.7266H475.802V175.002H477.799C477.099 175.636 476.397 176.263 475.693 176.883C464.465 186.789 453.073 194.74 442.168 200.397C420.353 211.708 400.474 213.849 387.702 204.136Z" fill="#D4C4E7"/>
<path d="M389.318 202.011C364.327 183.006 376.625 124.816 416.747 72.0353C426.783 58.8401 437.61 47.2258 448.592 37.5414C453.851 32.8835 459.365 28.5235 465.111 24.4818C467.857 22.5586 470.59 20.7662 473.31 19.1045C474.667 18.2756 476.02 17.4803 477.369 16.7188H475.802V173.512H477.452C476.77 174.131 476.084 174.744 475.395 175.35C464.41 185.043 453.269 192.82 442.598 198.353C421.259 209.419 401.812 211.517 389.318 202.011Z" fill="#D5C5E7"/>
<path d="M390.93 199.887C366.499 181.306 378.505 124.405 417.759 72.7986C427.568 59.8976 438.155 48.5487 448.898 39.0721C454.04 34.5165 459.434 30.2528 465.053 26.3009C467.746 24.42 470.418 22.668 473.07 21.0448C474.399 20.2332 475.722 19.4552 477.04 18.7109H475.814V172.019H477.12C476.451 172.625 475.778 173.224 475.101 173.817C464.361 183.293 453.465 190.898 443.03 196.318C422.162 207.131 403.148 209.179 390.93 199.887Z" fill="#D6C5E6"/>
<path d="M392.546 197.766C368.668 179.606 380.398 124.001 418.766 73.5657C428.353 60.959 438.697 49.8669 449.195 40.6066C454.22 36.1551 459.489 31.9877 464.978 28.1239C467.603 26.2872 470.215 24.5756 472.813 22.9889C474.112 22.1966 475.404 21.4359 476.691 20.707H475.808V170.531H476.771C476.118 171.125 475.463 171.711 474.807 172.29C464.309 181.551 453.661 188.982 443.466 194.27C423.068 204.846 404.486 206.845 392.546 197.766Z" fill="#D7C6E6"/>
<path d="M394.161 195.65C370.838 177.911 382.302 123.598 419.764 74.3368C429.131 62.0215 439.234 51.1889 449.478 42.1421C454.386 37.7957 459.533 33.7265 464.895 29.9537C467.456 28.1555 470.007 26.4823 472.548 24.9341C473.815 24.1648 475.078 23.4225 476.336 22.707H475.793V169.04H476.414C475.775 169.617 475.136 170.194 474.495 170.771C464.243 179.818 453.84 187.076 443.881 192.24C423.973 202.553 405.822 204.509 394.161 195.65Z" fill="#D8C6E5"/>
<path d="M395.777 193.515C373.01 176.206 384.2 123.183 420.771 75.0933C429.913 63.0722 439.776 52.4964 449.784 43.6659C454.576 39.4227 459.6 35.4499 464.834 31.766C467.334 30.014 469.825 28.3792 472.306 26.8618C473.539 26.1098 474.771 25.3877 476.004 24.6953H475.802V167.549H476.091C475.468 168.115 474.842 168.673 474.216 169.225C464.208 178.056 454.056 185.141 444.334 190.183C424.879 200.266 407.161 202.176 395.777 193.515Z" fill="#D9C7E5"/>
<path d="M397.393 191.391C375.179 174.501 386.096 122.773 421.775 75.8567C430.695 64.1299 440.319 53.8108 450.084 45.1968C454.757 41.0561 459.658 37.1805 464.765 33.5882C467.205 31.8785 469.634 30.2851 472.052 28.808C473.26 28.0695 474.463 27.3627 475.661 26.6877C476.261 26.3492 476.858 26.0184 477.452 25.6953H475.802V164.383H477.562C476.345 165.514 475.126 166.617 473.907 167.692C464.142 176.321 454.25 183.221 444.753 188.149C425.785 197.977 408.499 199.838 397.393 191.391Z" fill="#DAC7E4"/>
<path d="M399.008 189.272C377.349 172.803 387.994 122.379 422.782 76.6252C430.979 65.7798 440.223 55.7673 450.381 46.7327C454.938 42.6959 459.717 38.9166 464.696 35.4126C467.076 33.7452 469.445 32.1922 471.801 30.7536C472.978 30.0343 474.151 29.3448 475.32 28.6852C475.897 28.3563 476.479 28.0342 477.066 27.7188H475.802V162.939H477.172C475.988 164.041 474.8 165.117 473.61 166.167C464.09 174.565 454.431 181.307 445.185 186.102C426.688 195.694 409.823 197.508 399.008 189.272Z" fill="#DBC8E4"/>
<path d="M400.623 187.148C379.521 171.1 389.892 121.951 423.786 77.3917C431.774 66.8219 440.781 57.0628 450.678 48.255C455.123 44.3249 459.782 40.6449 464.635 37.232C466.954 35.6089 469.262 34.0962 471.559 32.6942C472.712 31.9942 473.855 31.321 474.986 30.6748C475.563 30.3546 476.122 30.0402 476.691 29.7344H475.825V161.49H476.806C475.652 162.563 474.498 163.612 473.344 164.635C464.067 172.819 454.656 179.385 445.65 184.058C427.594 193.405 411.173 195.171 400.623 187.148Z" fill="#DCC9E3"/>
<path d="M402.236 185.021C381.69 169.394 391.79 121.555 424.793 78.1525C432.57 67.8628 441.339 58.3626 450.975 49.7888C455.299 45.9594 459.833 42.3747 464.557 39.0515C466.815 37.4668 469.062 35.9926 471.299 34.6291C472.414 33.9482 473.527 33.2944 474.637 32.6674C475.19 32.3558 475.741 32.05 476.295 31.75H475.802V160.038H476.379C475.264 161.085 474.138 162.105 473.001 163.099C463.983 171.067 454.827 177.474 446.045 182.012C428.5 191.111 412.512 192.833 402.236 185.021Z" fill="#DDC9E3"/>
<path d="M403.852 182.901C383.86 167.698 393.685 121.143 425.796 78.9205C441.845 57.8064 460.44 41.7754 477.513 32.9219H475.802V158.594H476.004C474.912 159.609 473.815 160.601 472.715 161.571C463.928 169.325 455.014 175.548 446.463 179.973C429.405 188.827 413.862 190.503 403.852 182.901Z" fill="#DECAE3"/>
<path d="M405.467 180.776C386.032 165.994 395.584 120.734 426.815 79.6826C442.422 59.157 460.484 43.5703 477.08 34.9648H475.802V155.643H477.207C476.676 156.149 476.145 156.649 475.615 157.143C474.553 158.13 473.488 159.091 472.418 160.028C463.873 167.569 455.207 173.615 446.908 177.914C430.306 186.537 415.186 188.164 405.467 180.776Z" fill="#DFCAE2"/>
<path d="M407.083 178.653C388.201 164.295 397.482 120.327 427.807 80.4504C442.973 60.5105 460.527 45.3709 476.65 37.0078H475.802V154.239H476.774C476.257 154.731 475.74 155.212 475.225 155.681C474.192 156.643 473.158 157.581 472.121 158.497C463.821 165.818 455.389 171.695 447.34 175.875C431.214 184.252 416.522 185.845 407.083 178.653Z" fill="#E0CBE2"/>
<path d="M408.698 176.526C390.371 162.59 399.38 119.917 428.814 81.2115C443.527 61.8601 460.57 47.1706 476.22 39.0469H475.802V152.83H476.339C475.84 153.306 475.338 153.779 474.836 154.244C473.834 155.177 472.829 156.087 471.821 156.976C463.767 164.084 455.594 169.787 447.77 173.843C432.12 181.958 417.86 183.496 408.698 176.526Z" fill="#E1CBE1"/>
<path d="M410.314 174.403C392.543 160.891 401.275 119.508 429.821 81.9878C444.092 63.2364 460.613 48.9709 475.788 41.1011C476.265 40.855 476.738 40.6155 477.207 40.3828H475.802V150.035H477.354C475.431 151.924 473.487 153.731 471.524 155.456C463.715 162.348 455.79 167.878 448.2 171.813C433.026 179.671 419.199 181.16 410.314 174.403Z" fill="#E2CCE1"/>
<path d="M411.926 172.284C394.712 159.189 403.188 119.102 430.825 82.7414C444.652 64.567 460.657 50.7573 475.358 43.1327C475.817 42.8943 476.275 42.6625 476.731 42.4375H475.802V148.663H476.875C475.004 150.494 473.121 152.244 471.227 153.913C463.66 160.591 455.98 165.937 448.633 169.759C433.932 177.384 420.535 178.826 411.926 172.284Z" fill="#E3CCE0"/>
<path d="M413.542 170.158C396.885 157.488 405.072 118.693 431.831 83.5066C445.211 65.9091 460.7 52.5524 474.925 45.1759C475.817 44.7143 476.702 44.2768 477.579 43.8633H475.802V147.302H476.379C474.571 149.073 472.75 150.767 470.915 152.385C463.591 158.844 456.162 164.028 449.048 167.718C434.837 175.097 421.873 176.493 413.542 170.158Z" fill="#E4CDE0"/>
<path d="M415.157 168.035C399.054 155.786 406.967 118.286 432.835 84.2713C445.768 67.2508 460.743 54.3498 474.495 47.2185C475.355 46.7704 476.21 46.3473 477.06 45.9492H475.802V145.94H475.915C474.162 147.652 472.402 149.287 470.632 150.844C463.553 157.09 456.37 162.095 449.495 165.667C435.74 172.81 423.209 174.157 415.157 168.035Z" fill="#E5CEDF"/>
<path d="M416.773 165.906C401.224 154.079 408.866 117.874 433.842 85.0331C446.328 68.6126 460.787 56.1444 474.066 49.2612C474.893 48.8304 475.717 48.4217 476.538 48.0352H475.802V143.321H476.699C476.278 143.745 475.857 144.161 475.436 144.576C473.745 146.23 472.044 147.811 470.333 149.319C463.498 155.348 456.557 160.189 449.922 163.627C436.652 170.516 424.536 171.82 416.773 165.906Z" fill="#E6CEDF"/>
<path d="M418.388 163.786C403.387 152.385 410.764 117.47 434.832 85.8006C446.873 69.9687 460.816 57.9447 473.618 51.3039C474.42 50.8885 475.216 50.4942 476.004 50.1211H475.788V140.774H477.374C476.567 141.605 475.755 142.419 474.94 143.217C473.311 144.81 471.676 146.334 470.035 147.79C463.444 153.606 456.765 158.27 450.358 161.591C437.552 168.246 425.886 169.49 418.388 163.786Z" fill="#E7CFDF"/>
<path d="M420.004 161.664C405.58 150.684 412.662 117.062 435.853 86.5662C447.447 71.317 460.885 59.7402 473.203 53.3474C474.742 52.5493 476.264 51.8319 477.77 51.1953H475.802V139.503H476.821C476.042 140.305 475.26 141.089 474.475 141.857C472.906 143.395 471.327 144.863 469.738 146.259C463.392 151.861 456.953 156.356 450.788 159.549C438.458 165.939 427.222 167.154 420.004 161.664Z" fill="#E8CFDE"/>
<path d="M421.619 159.54C407.735 148.981 414.557 116.654 436.857 87.3296C448.007 72.6689 460.916 61.5363 472.77 55.3887C474.253 54.6195 475.717 53.93 477.161 53.3203H475.802V138.244H476.249C475.503 139.013 474.752 139.767 473.996 140.506C472.485 141.979 470.966 143.39 469.441 144.741C463.337 150.124 457.146 154.445 451.218 157.517C439.364 163.656 428.575 164.819 421.619 159.54Z" fill="#E9D0DE"/>
<path d="M423.232 157.414C409.907 147.277 416.458 116.242 437.864 88.0919C448.566 74.0197 460.96 63.3314 472.34 57.429C473.762 56.6905 475.166 56.028 476.555 55.4414H475.802V135.839H476.751C476.393 136.214 476.036 136.589 475.675 136.958C474.956 137.697 474.235 138.421 473.512 139.13C472.063 140.546 470.606 141.901 469.138 143.195C463.282 148.365 457.336 152.51 451.647 155.461C440.27 161.364 429.896 162.474 423.232 157.414Z" fill="#EAD0DD"/>
<path d="M424.847 155.294C412.076 145.581 418.354 115.838 438.868 88.862C449.126 75.3726 461.003 65.1314 471.908 59.4743C473.273 58.7666 474.619 58.1319 475.946 57.5703H475.799V133.522H477.161C474.526 136.375 471.749 139.093 468.841 141.666C463.227 146.619 457.532 150.594 452.077 153.422C441.173 159.079 431.234 160.149 424.847 155.294Z" fill="#EBD1DD"/>
<path d="M426.463 153.169C414.246 143.877 420.252 115.426 439.874 89.6244C449.683 76.7206 461.046 66.9237 471.478 61.5147C472.782 60.8377 474.069 60.2309 475.34 59.6944C475.978 59.4261 476.607 59.1751 477.233 58.9414H475.79V132.343H476.494C473.975 135.072 471.318 137.672 468.535 140.132C463.164 144.872 457.717 148.674 452.501 151.383C442.078 156.789 432.573 157.813 426.463 153.169Z" fill="#ECD1DC"/>
<path d="M428.079 151.042C416.418 142.174 422.147 115.019 440.879 90.3885C450.246 78.0732 461.087 68.7206 471.048 63.5596C472.29 62.9134 473.519 62.3364 474.735 61.8287C475.341 61.572 475.944 61.3354 476.541 61.1133H475.802V131.166H475.845C473.44 133.77 470.904 136.252 468.25 138.603C463.123 143.123 457.922 146.752 452.943 149.334C442.999 154.501 433.909 155.476 428.079 151.042Z" fill="#EDD2DC"/>
<path d="M429.694 148.917C418.587 140.47 424.045 114.607 441.885 91.1509C450.805 79.4212 461.13 70.5157 470.615 65.5971C472.837 64.4297 475.153 63.4512 477.539 62.6719H475.808V128.033H476.962C476.385 128.697 475.795 129.349 475.193 129.989C472.903 132.471 470.489 134.835 467.958 137.072C463.077 141.379 458.124 144.835 453.381 147.295C443.89 152.214 435.247 153.143 429.694 148.917Z" fill="#EED2DC"/>
<path d="M431.309 146.795C420.757 138.773 425.944 114.197 442.892 91.9172C451.365 80.7731 461.173 72.3004 470.185 67.6414C472.292 66.5329 474.489 65.6037 476.751 64.8633H475.793V126.951H476.197C475.64 127.581 475.08 128.202 474.518 128.811C472.341 131.168 470.047 133.413 467.644 135.539C463.008 139.629 458.303 142.915 453.797 145.252C444.796 149.922 436.583 150.808 431.309 146.795Z" fill="#EFD3DB"/>
<path d="M432.925 144.674C422.929 137.072 427.842 113.806 443.887 92.6835C451.916 82.1279 461.196 74.111 469.744 69.6856C471.742 68.6345 473.826 67.7544 475.972 67.0547H475.793V124.047H477.04C476.001 125.288 474.943 126.484 473.866 127.636C471.805 129.869 469.632 131.996 467.355 134.009C462.962 137.886 458.505 140.996 454.235 143.211C445.699 147.637 437.921 148.473 432.925 144.674Z" fill="#F0D4DB"/>
<path d="M434.538 142.551C425.113 135.359 429.729 113.388 444.903 93.4483C452.484 83.4783 461.26 75.9085 469.323 71.7284C471.21 70.7353 473.178 69.9034 475.205 69.2417C475.678 69.0917 476.148 68.9532 476.613 68.832H475.802V123.067H476.192C475.211 124.236 474.216 125.365 473.209 126.454C471.261 128.562 469.208 130.572 467.058 132.474C462.907 136.138 458.692 139.075 454.668 141.166C446.605 145.349 439.248 146.14 434.538 142.551Z" fill="#F1D4DA"/>
<path d="M436.153 140.427C427.268 133.668 431.635 112.978 445.907 94.2121C453.044 84.8278 461.303 77.7051 468.893 73.7702C470.674 72.8355 472.531 72.0528 474.443 71.4306C475.296 71.1542 476.163 70.9231 477.04 70.7383H475.793V120.415H476.722C476.27 120.992 475.813 121.552 475.349 122.094C474.426 123.194 473.489 124.257 472.539 125.282C470.641 127.33 468.703 129.222 466.752 130.948C462.846 134.392 458.883 137.159 455.089 139.126C447.511 143.061 440.596 143.805 436.153 140.427Z" fill="#F2D5DA"/>
<path d="M437.769 138.299C429.44 131.967 433.534 112.567 446.914 94.9693C453.603 86.1735 461.338 79.4922 468.46 75.8054C470.126 74.9295 471.863 74.196 473.653 73.6129C474.46 73.3532 475.281 73.1356 476.111 72.9609H475.805V117.915H477.08C463.697 135.51 446.097 144.634 437.769 138.299Z" fill="#F3D5D9"/>
<path d="M439.384 136.178C431.595 130.267 435.429 112.162 447.917 95.7411C454.163 87.5309 461.389 81.2968 468.03 77.8552C471.348 76.1243 474.521 75.1117 477.348 74.8867H475.802V117.152H476.07C463.585 133.573 447.159 142.092 439.384 136.178Z" fill="#F4D6D9"/>
<path d="M441 134.055C433.788 128.574 437.327 111.756 448.924 96.5065C454.723 88.8848 461.433 83.0949 467.598 79.8956C470.682 78.2974 473.627 77.3483 476.252 77.1406H475.802V113.515H477.147C476.483 114.476 475.791 115.437 475.067 116.4C463.481 131.635 448.217 139.545 441 134.055Z" fill="#F5D6D9"/>
<path d="M442.615 131.929C435.951 126.861 439.225 111.343 449.922 97.2768C455.277 90.2407 461.462 84.8951 467.162 81.944C470.007 80.4698 472.727 79.5928 475.15 79.3995C475.736 79.3564 476.324 79.3564 476.91 79.3995H475.796V110.299H477.715C476.616 112.079 475.393 113.862 474.054 115.621C463.357 129.697 449.279 136.998 442.615 131.929Z" fill="#F5D7D8"/>
<path d="M444.228 129.806C438.12 125.158 441.124 110.936 450.935 98.0323C455.839 91.5818 461.519 86.6834 466.735 83.9774C469.346 82.6273 471.838 81.8225 474.06 81.6465C475.101 81.5504 476.151 81.6234 477.17 81.8629H475.802V109.97H476.411C475.401 111.603 474.282 113.235 473.056 114.848C463.244 127.758 450.338 134.45 444.228 129.806Z" fill="#F6D7D8"/>
<path d="M445.843 127.686C440.29 123.463 443.019 110.53 451.939 98.8005C456.399 92.9385 461.563 88.4843 466.305 86.0236C468.677 84.7946 470.941 84.0648 472.963 83.9032C473.91 83.8176 474.865 83.8848 475.791 84.1023C476.219 84.2066 476.635 84.3535 477.034 84.5407H475.802V105.228H477.533C475.994 108.356 474.153 111.327 472.035 114.096C463.129 125.823 451.396 131.898 445.843 127.686Z" fill="#F7D8D7"/>
<path d="M447.459 125.548C442.462 121.749 444.917 110.112 452.94 99.5561C460.963 89.0005 471.527 83.5222 476.523 87.3244H475.796V105.355H475.984C474.601 108.171 472.945 110.844 471.039 113.337C463.017 123.884 452.458 129.359 447.459 125.548Z" fill="#F8D8D7"/>
<path d="M449.074 123.433C444.632 120.054 446.816 109.709 453.95 100.328C461.084 90.9465 470.474 86.077 474.917 89.4551C477.138 91.1427 477.701 94.5757 476.818 98.7558C475.935 102.936 473.607 107.869 470.038 112.565C462.904 121.944 453.517 126.811 449.074 123.433Z" fill="#F9D9D7"/>
<path d="M469.027 111.783C475.271 103.572 477.181 94.5203 473.294 91.5644C469.407 88.6086 461.194 92.8684 454.951 101.079C448.708 109.289 446.797 118.341 450.684 121.297C454.572 124.253 462.784 119.993 469.027 111.783Z" fill="#FAD9D6"/>
<path d="M469.891 110.752C475.284 103.679 476.941 95.8758 473.593 93.3227C470.245 90.7696 463.158 94.4334 457.765 101.506C452.372 108.579 450.715 116.382 454.063 118.935C457.412 121.488 464.498 117.825 469.891 110.752Z" fill="#FBDAD6"/>
<path d="M467.016 110.253C471.475 104.389 472.84 97.9235 470.063 95.8125C467.287 93.7014 461.422 96.7441 456.962 102.608C452.503 108.473 451.139 114.938 453.915 117.049C456.691 119.16 462.556 116.117 467.016 110.253Z" fill="#FCDAD5"/>
<path d="M466.012 109.492C469.579 104.8 470.67 99.6278 468.448 97.9382C466.226 96.2486 461.533 98.6819 457.966 103.373C454.399 108.064 453.308 113.237 455.53 114.926C457.752 116.616 462.445 114.183 466.012 109.492Z" fill="#FDDBD5"/>
<path d="M465.007 108.724C467.683 105.205 468.501 101.325 466.835 100.058C465.168 98.7905 461.648 100.616 458.972 104.135C456.296 107.655 455.477 111.535 457.144 112.802C458.81 114.069 462.33 112.244 465.007 108.724Z" fill="#FDDBD5"/>
<path d="M458.764 110.692C457.654 109.85 458.187 107.262 459.985 104.923C461.782 102.583 464.116 101.36 465.226 102.205C466.337 103.051 465.803 105.635 464.006 107.975C462.209 110.315 459.875 111.538 458.764 110.692Z" fill="#FEDCD4"/>
<path d="M460.38 108.568C459.823 108.147 460.091 106.855 460.989 105.684C461.886 104.512 463.054 103.904 463.611 104.325C464.168 104.746 463.899 106.056 462.999 107.21C462.099 108.364 460.934 108.993 460.38 108.568Z" fill="#FFDCD4"/>
</g>
<path d="M415.812 13.2794H400.176C399.794 13.2794 399.427 13.1274 399.156 12.8569C398.886 12.5864 398.734 12.2195 398.734 11.8369C398.734 11.4544 398.886 11.0875 399.156 10.817C399.427 10.5465 399.794 10.3945 400.176 10.3945H415.812C416.195 10.3945 416.562 10.5465 416.832 10.817C417.103 11.0875 417.254 11.4544 417.254 11.8369C417.254 12.2195 417.103 12.5864 416.832 12.8569C416.562 13.1274 416.195 13.2794 415.812 13.2794Z" fill="url(#paint1_linear_197_1321)"/>
<path d="M426.168 13.631C427.16 12.6396 427.16 11.0323 426.168 10.0408C425.177 9.04944 423.57 9.04944 422.578 10.0408C421.587 11.0322 421.587 12.6396 422.578 13.631C423.57 14.6224 425.177 14.6224 426.168 13.631Z" fill="url(#paint2_linear_197_1321)"/>
<path d="M426.226 11.8325C426.226 12.1988 426.118 12.5569 425.914 12.8615C425.711 13.1661 425.421 13.4034 425.083 13.5436C424.745 13.6838 424.372 13.7205 424.013 13.649C423.654 13.5775 423.324 13.4011 423.065 13.1421C422.806 12.8831 422.629 12.5531 422.558 12.1939C422.486 11.8346 422.523 11.4622 422.663 11.1238C422.803 10.7854 423.041 10.4961 423.345 10.2926C423.65 10.0891 424.008 9.98047 424.374 9.98047C424.618 9.98009 424.859 10.0277 425.083 10.1207C425.308 10.2136 425.513 10.35 425.685 10.5221C425.857 10.6941 425.993 10.8985 426.086 11.1233C426.179 11.3482 426.227 11.5892 426.226 11.8325Z" fill="url(#paint3_linear_197_1321)"/>
<path d="M425.903 11.8336C425.903 12.136 425.813 12.4317 425.645 12.6831C425.477 12.9345 425.239 13.1305 424.959 13.2462C424.68 13.3619 424.372 13.3922 424.076 13.3332C423.779 13.2742 423.507 13.1286 423.293 12.9148C423.079 12.701 422.934 12.4285 422.875 12.1319C422.816 11.8353 422.846 11.5279 422.962 11.2485C423.077 10.9692 423.273 10.7304 423.525 10.5624C423.776 10.3944 424.072 10.3047 424.374 10.3047C424.78 10.3047 425.169 10.4658 425.455 10.7525C425.742 11.0392 425.903 11.4281 425.903 11.8336Z" fill="url(#paint4_radial_197_1321)"/>
<path d="M425.459 11.3103C425.459 11.7719 424.971 12.1469 424.374 12.1469C423.777 12.1469 423.29 11.7719 423.29 11.3103C423.29 10.8487 423.774 10.4766 424.374 10.4766C424.974 10.4766 425.459 10.8343 425.459 11.3103Z" fill="url(#paint5_linear_197_1321)"/>
<path d="M484.462 29.6562H481.987V32.3391H484.462V29.6562Z" fill="#353535"/>
<path d="M331.526 32.3398H334.001V29.657H331.526V32.3398Z" fill="#353535"/>
<path d="M484.462 276.746H481.987V279.429H484.462V276.746Z" fill="#353535"/>
<path d="M331.526 279.43H334.001V276.747H331.526V279.43Z" fill="#353535"/>
<path d="M415.812 13.0515H400.176C399.812 13.0526 399.461 12.9158 399.193 12.6685C398.926 12.4213 398.762 12.082 398.734 11.7188C398.734 11.7563 398.734 11.7938 398.734 11.8313C398.734 12.2138 398.886 12.5807 399.156 12.8512C399.427 13.1217 399.794 13.2737 400.176 13.2737H415.812C416.195 13.2737 416.562 13.1217 416.832 12.8512C417.103 12.5807 417.254 12.2138 417.254 11.8313C417.254 11.7938 417.254 11.7563 417.254 11.7188C417.227 12.082 417.063 12.4213 416.795 12.6685C416.528 12.9158 416.176 13.0526 415.812 13.0515Z" fill="#4E4E4E"/>
<path d="M461.499 4.62891H354.492C349.631 4.63425 344.971 6.56739 341.534 10.0043C338.096 13.4411 336.162 18.1011 336.156 22.962V24.24C336.162 19.3791 338.096 14.7191 341.534 11.2822C344.971 7.84537 349.631 5.91223 354.492 5.90688H461.499C466.36 5.91223 471.02 7.84537 474.458 11.2822C477.895 14.7191 479.829 19.3791 479.835 24.24V22.962C479.829 18.1011 477.895 13.4411 474.458 10.0043C471.02 6.56739 466.36 4.63425 461.499 4.62891Z" fill="url(#paint6_linear_197_1321)"/>
<path d="M458 6H358C348.059 6 340 14.0589 340 24V286C340 295.941 348.059 304 358 304H458C467.941 304 476 295.941 476 286V24C476 14.0589 467.941 6 458 6Z" fill="url(#paint7_linear_197_1321)"/>
<path d="M394.724 171.3C398.242 172.514 400.073 176.335 398.814 179.836C397.555 183.335 393.682 185.189 390.164 183.975C389.704 183.818 389.245 183.652 388.793 183.481C377.678 179.264 369.35 171.16 364.802 161.315C360.255 151.471 359.484 139.875 363.48 128.679C363.643 128.224 363.813 127.767 363.992 127.314C368.541 115.775 377.38 106.973 387.989 102.072C398.6 97.1711 411.03 96.1488 422.765 100.167C423.226 100.324 423.684 100.49 424.136 100.661C435.251 104.878 443.58 112.982 448.127 122.827C452.674 132.671 453.445 144.267 449.45 155.463C449.287 155.92 449.116 156.375 448.937 156.827C447.581 160.293 443.66 162.039 440.178 160.729C436.697 159.418 434.973 155.547 436.33 152.082C436.463 151.743 436.59 151.403 436.711 151.067C439.466 143.347 438.926 135.339 435.781 128.53C432.635 121.719 426.886 116.117 419.224 113.21C418.889 113.083 418.548 112.96 418.205 112.842C412.224 110.795 405.951 110.628 400.073 112.024L412.636 139.221C414.19 142.586 412.686 146.59 409.278 148.164C405.869 149.739 401.845 148.288 400.291 144.923L387.729 117.726C382.855 121.296 378.915 126.18 376.597 132.062C376.464 132.4 376.336 132.74 376.216 133.076C373.461 140.796 374 148.804 377.146 155.614C380.292 162.424 386.039 168.027 393.702 170.933C394.037 171.061 394.378 171.182 394.722 171.301L394.724 171.3Z" fill="white"/>
<path d="M313.5 359C350.227 359 380 388.773 380 425.5C380 462.227 350.227 492 313.5 492C276.773 492 247 462.227 247 425.5C247 388.773 276.773 359 313.5 359Z" fill="url(#paint8_radial_197_1321)"/>
<defs>
<radialGradient id="paint0_radial_197_1321" cx="0" cy="0" r="1" gradientUnits="userSpaceOnUse" gradientTransform="translate(86.2498 375.631) rotate(45.0153) scale(192.769 192.769)">
<stop stop-color="#5BC7CE"/>
<stop offset="0.11" stop-color="#4198C0"/>
<stop offset="0.23" stop-color="#296BB3"/>
<stop offset="0.34" stop-color="#184AAA"/>
<stop offset="0.43" stop-color="#0D37A5"/>
<stop offset="0.49" stop-color="#0A30A3"/>
<stop offset="1" stop-color="#00152A"/>
</radialGradient>
<linearGradient id="paint1_linear_197_1321" x1="407.994" y1="10.3888" x2="407.994" y2="13.2794" gradientUnits="userSpaceOnUse">
<stop/>
<stop offset="0.29" stop-color="#030303"/>
<stop offset="0.53" stop-color="#0E0E0D"/>
<stop offset="0.75" stop-color="#1F1F1E"/>
<stop offset="0.96" stop-color="#373736"/>
<stop offset="1" stop-color="#3C3C3B"/>
</linearGradient>
<linearGradient id="paint2_linear_197_1321" x1="424.372" y1="9.29703" x2="424.372" y2="14.3743" gradientUnits="userSpaceOnUse">
<stop/>
<stop offset="0.29" stop-color="#030303"/>
<stop offset="0.53" stop-color="#0E0E0D"/>
<stop offset="0.75" stop-color="#1F1F1E"/>
<stop offset="0.96" stop-color="#373736"/>
<stop offset="1" stop-color="#3C3C3B"/>
</linearGradient>
<linearGradient id="paint3_linear_197_1321" x1="424.374" y1="8.40247" x2="424.374" y2="14.4837" gradientUnits="userSpaceOnUse">
<stop/>
<stop offset="0.08"/>
<stop offset="1"/>
</linearGradient>
<radialGradient id="paint4_radial_197_1321" cx="0" cy="0" r="1" gradientUnits="userSpaceOnUse" gradientTransform="translate(424.374 11.8336) scale(1.3876)">
<stop stop-color="#009FE3"/>
<stop offset="1" stop-color="#112754"/>
</radialGradient>
<linearGradient id="paint5_linear_197_1321" x1="424.374" y1="9.70054" x2="424.374" y2="12.193" gradientUnits="userSpaceOnUse">
<stop stop-color="white"/>
<stop offset="1" stop-color="#112754"/>
</linearGradient>
<linearGradient id="paint6_linear_197_1321" x1="407.994" y1="-0.808994" x2="407.994" y2="21.6927" gradientUnits="userSpaceOnUse">
<stop stop-color="white"/>
<stop offset="1"/>
</linearGradient>
<linearGradient id="paint7_linear_197_1321" x1="340" y1="6" x2="499.155" y2="18.9274" gradientUnits="userSpaceOnUse">
<stop stop-color="#0A30A3"/>
<stop offset="1" stop-color="#001447"/>
</linearGradient>
<radialGradient id="paint8_radial_197_1321" cx="0" cy="0" r="1" gradientUnits="userSpaceOnUse" gradientTransform="translate(386.024 544.769) scale(284.796)">
<stop stop-color="#E5C33F"/>
<stop offset="0.03" stop-color="#E6BC3D"/>
<stop offset="0.25" stop-color="#F39332"/>
<stop offset="0.42" stop-color="#FC7A2B"/>
<stop offset="0.53" stop-color="#FF7129"/>
<stop offset="0.99" stop-color="#C73A16"/>
</radialGradient>
</defs>
</svg>
