<svg width="407" height="363" viewBox="0 0 407 363" fill="none" xmlns="http://www.w3.org/2000/svg">
<path d="M215.501 241.086C248.915 241.086 276.001 268.173 276.001 301.586C276.001 334.999 248.915 362.086 215.501 362.086C182.088 362.086 155.001 334.999 155.001 301.586C155.001 268.173 182.088 241.086 215.501 241.086Z" fill="url(#paint0_radial_216_1934)"/>
<path d="M106.743 179.923C106.743 179.923 101.294 252.785 95.7141 279.583H224.297C218.293 254.604 212.083 187.065 212.083 187.065L230.256 213.978L246.619 172.695C246.619 172.695 230.867 145.763 213.871 131.683C202.068 121.904 177.523 118.308 163.63 117.024V116.258C163.63 116.258 161.723 116.344 158.556 116.614C155.384 116.397 153.475 116.341 153.475 116.341L153.484 117.107C139.615 118.62 115.411 122.954 103.492 132.591C59.3806 168.258 36.5662 276.868 36.0015 279.583H63.4605C78.2954 223.319 106.743 179.923 106.743 179.923Z" fill="#2A485E"/>
<path d="M246.618 172.693C246.618 172.693 235.675 153.986 222.192 139.605C217.349 157.778 215.874 176.848 217.817 195.555L230.258 213.978L246.618 172.693Z" fill="#193345"/>
<path d="M358.79 215.06C355.545 213.405 352.715 211.126 350.158 208.527L257.093 177.566C257.093 177.566 257.093 150.241 251.839 135.989C260.666 119.507 259.956 104.027 257.093 94.7108C254.23 85.3947 241.787 80.1261 237.227 93.8094C234.962 100.609 225.434 128.44 221.975 135.543C213.237 178.71 226.983 230.159 254.342 248.793C281.701 267.427 327.135 269.245 360.173 260.04C383.432 253.556 389.988 228.353 391.832 214.002C388.567 215.359 385.22 216.489 381.764 217.244C374.096 218.917 365.778 218.625 358.79 215.06Z" fill="#F7A87E"/>
<path d="M392.549 203.852L369.087 214.825L350.156 208.528C352.713 211.126 355.543 213.406 358.787 215.06C365.778 218.626 374.098 218.918 381.765 217.242C385.221 216.487 388.567 215.357 391.832 214C392.607 207.967 392.549 203.852 392.549 203.852Z" fill="#E98870"/>
<path d="M380.14 84.5441L356.798 109.346C351.132 115.367 351.666 124.913 357.971 130.259C363.936 135.321 372.847 134.713 378.07 128.888L400.807 103.531C405.964 97.7779 405.502 88.9406 399.772 83.7553C394.106 78.6286 385.378 78.979 380.14 84.5441Z" fill="#F7A87E"/>
<path d="M178.048 118.82L138.396 118.898L142.899 150.346H173.039L178.048 118.82Z" fill="#ECEADD"/>
<path d="M173.039 150.348H142.898L153.818 226.62L173.039 150.348Z" fill="white"/>
<path d="M141.736 99.3398V112.355C146.947 116.168 153.018 118.543 159.338 118.809C159.484 118.815 159.632 118.82 159.778 118.822C159.924 118.824 160.07 118.815 160.216 118.809C166.127 118.561 171.822 116.464 176.797 113.077V99.3398H141.736Z" fill="#E98870"/>
<path d="M185.75 82.8629C195.049 79.4212 202.639 71.6456 205.856 62.2663C209.072 52.887 207.851 42.0892 202.621 33.6654C207.124 32.5809 209.28 26.7613 207.577 22.454C205.874 18.1467 201.395 15.4566 196.853 14.5467C198.985 12.5393 198.531 8.79802 196.57 6.62386C194.61 4.44969 191.62 3.53196 188.733 3.0415C184.09 2.25273 179.34 2.32503 174.644 2.68522C165.742 3.36978 134.287 2.42468 125.519 23.6837C114.191 27.2315 114.292 44.2314 114.199 48.8572C113.952 61.2326 119.062 74.105 129.195 81.2124C145.203 92.4415 167.411 89.6518 185.75 82.8629Z" fill="#4E2F20"/>
<path d="M191.749 86.8218C186.793 100.641 174.098 111.407 160.216 111.989C160.07 111.996 159.924 112 159.778 112.002C159.632 112.002 159.485 111.996 159.338 111.989C145.455 111.407 132.763 100.641 127.805 86.8218C124.785 78.4026 124.346 69.1927 124.67 60.1905C124.994 51.1884 126.05 42.2091 125.881 33.203C137.025 30.9123 148.463 29.14 159.778 29.7933C171.094 29.1419 182.529 30.9123 193.673 33.203C193.505 42.2091 194.558 51.1891 194.884 60.1905C195.21 69.192 194.769 78.4026 191.749 86.8218Z" fill="#F7A87E"/>
<path d="M196.777 68.18C192.01 61.1892 189.026 52.5727 189.457 44.1216C169.192 45.534 148.853 42.7245 129.73 35.8711C129.952 47.0252 126.912 57.9853 122.179 68.0882C121.604 56.9685 121.455 46.1752 122.634 35.1038C122.765 33.8428 122.926 32.5421 123.559 31.4426C124.686 29.4886 127.011 28.6217 129.173 27.9625C149.485 21.7566 171.914 20.8675 191.706 28.5754C193.79 29.3883 195.908 30.3341 197.421 31.9878C198.75 33.437 199.512 35.3266 199.949 37.2434C200.735 40.6955 200.542 44.2864 200.344 47.8218C199.948 54.8478 199.186 61.5683 196.777 68.18Z" fill="#4E2F20"/>
<path d="M116.853 47.5465C119.669 44.5736 122.138 41.2912 124.213 37.7621C125.946 34.8135 127.684 31.4441 130.899 30.2795C133.858 29.2087 137.413 30.3192 140.126 28.7293C141.508 27.9197 142.47 26.503 143.892 25.7631C146.668 24.3178 149.959 25.8869 152.934 26.8567C159.643 29.0452 167.349 27.923 173.156 23.912C176.107 21.8733 178.665 18.943 179.272 15.4082C179.808 12.2896 178.775 9.11949 177.503 6.22104C176.965 4.99392 176.376 3.7896 175.749 2.60547C175.382 2.63022 175.014 2.65563 174.648 2.68429C171.377 2.9357 165.063 2.96892 157.949 3.96156C158.042 4.05665 158.134 4.1511 158.225 4.24815C159.788 5.92795 161.06 8.2949 160.283 10.456C159.682 12.1287 158.038 13.1649 156.471 14.0032C151.665 16.5724 146.54 18.4951 141.23 19.7213C139.958 20.0144 138.54 20.359 137.843 21.4623C137.35 22.2439 137.341 23.2307 136.976 24.0762C136.259 25.7312 134.366 26.5102 132.606 26.8971C130.845 27.284 128.952 27.4794 127.514 28.5665C126.798 29.1071 126.25 29.8346 125.603 30.4553C123.543 32.4341 120.488 33.2424 117.671 32.7669C117.359 32.7142 117.05 32.6438 116.745 32.5624C114.245 38.7065 114.259 46.0529 114.204 48.8556C114.196 49.279 114.195 49.7024 114.199 50.1264C115.123 49.307 116.007 48.4401 116.853 47.5465Z" fill="#5E3B2B"/>
<path d="M149.355 55.0444C150.219 55.0731 151.104 55.133 151.89 55.4906C152.676 55.8482 153.354 56.564 153.43 57.4244C153.516 58.4092 152.79 59.3218 151.905 59.7621C151.02 60.2024 150.001 60.2675 149.014 60.315C145.79 60.4692 142.564 60.5139 139.335 60.4492C138.198 60.4264 135.752 60.2538 135.726 58.6092C135.703 57.2342 137.846 56.792 138.875 56.4357C142.227 55.275 145.825 54.9291 149.355 55.0444Z" fill="#452819"/>
<path d="M171.349 55.0444C170.485 55.0731 169.6 55.133 168.813 55.4906C168.026 55.8482 167.349 56.564 167.274 57.4244C167.187 58.4092 167.914 59.3218 168.799 59.7621C169.684 60.2024 170.703 60.2675 171.69 60.315C174.914 60.4692 178.14 60.5139 181.369 60.4492C182.506 60.4264 184.951 60.2538 184.977 58.6092C185 57.2342 182.857 56.792 181.829 56.4357C178.476 55.275 174.879 54.9291 171.349 55.0444Z" fill="#452819"/>
<path d="M144.581 73.1268C146.49 73.1268 148.038 71.5787 148.038 69.6689C148.038 67.7591 146.49 66.2109 144.581 66.2109C142.671 66.2109 141.123 67.7591 141.123 69.6689C141.123 71.5787 142.671 73.1268 144.581 73.1268Z" fill="#452819"/>
<path d="M174.774 73.1268C176.684 73.1268 178.232 71.5787 178.232 69.6689C178.232 67.7591 176.684 66.2109 174.774 66.2109C172.864 66.2109 171.316 67.7591 171.316 69.6689C171.316 71.5787 172.864 73.1268 174.774 73.1268Z" fill="#452819"/>
<path d="M161.161 99.3437C158.703 99.3867 156.272 99.9136 153.966 100.777C155.578 101.782 157.621 102.436 160.219 102.436C163.215 102.436 165.475 101.569 167.183 100.293C165.248 99.6221 163.209 99.3006 161.161 99.3437Z" fill="#F28487"/>
<path d="M154.507 92.4633C155.973 93.1147 157.519 93.6025 159.11 93.8071C162.199 94.2044 165.395 93.4996 168.11 91.9722C169.012 91.4623 169.862 90.8675 170.65 90.196C170.388 90.0849 170.105 90.0276 169.82 90.0273H150.722C150.781 90.0847 150.839 90.1413 150.899 90.1967C151.943 91.1691 153.202 91.885 154.507 92.4633Z" fill="white"/>
<path d="M170.652 90.196C169.863 90.8675 169.013 91.4623 168.111 91.9722C165.397 93.4996 162.2 94.2044 159.111 93.8071C157.52 93.6025 155.974 93.114 154.508 92.4633C153.205 91.885 151.945 91.1691 150.9 90.1967C150.84 90.1413 150.782 90.0847 150.723 90.0273H150.616C150.287 90.0267 149.963 90.1015 149.667 90.2459C149.372 90.3903 149.114 90.6005 148.913 90.8603C148.711 91.1201 148.572 91.4226 148.506 91.7445C148.44 92.0665 148.449 92.3993 148.531 92.7174C149.183 95.171 150.661 98.7155 153.966 100.778C156.272 99.912 158.703 99.3851 161.161 99.3447C163.209 99.3025 165.247 99.625 167.182 100.297C169.994 98.1971 171.304 94.9905 171.905 92.72C172.037 92.2188 171.982 91.6869 171.752 91.2228C171.521 90.7587 171.13 90.394 170.652 90.196Z" fill="#AB404A"/>
<path d="M159.778 118.823C159.632 118.823 159.484 118.816 159.338 118.81C153.02 118.544 146.945 116.168 141.736 112.355V136.601H169.418L176.797 126.058V113.075C171.822 116.466 166.127 118.561 160.216 118.807C160.07 118.815 159.924 118.82 159.778 118.823Z" fill="#F7A87E"/>
<path d="M141.737 115.711L158.659 135.37L176.798 115.711L179.19 119.043L172.863 150.446L158.541 136.599L142.91 150.43L138.396 118.899L141.737 115.711Z" fill="white"/>
<path d="M150.233 143.953L156.863 153.537L147.136 179.942L153.82 226.621L166.416 176.634L160.86 153.426L166.92 144.702L158.541 136.602L150.233 143.953Z" fill="#D75555"/>
<path d="M293.132 220.113L293.041 220.272H293.225L293.132 220.113Z" fill="#F68C24"/>
<path d="M361.988 194.705L386.254 179.807C392.146 176.19 399.623 178.668 402.642 185.239C405.498 191.456 403.274 199.016 397.627 202.291L373.037 216.549C367.458 219.783 360.525 217.516 357.526 211.477C354.556 205.504 356.542 198.048 361.988 194.705Z" fill="#F7A87E"/>
<path d="M353.672 164.152L386.472 151.064C394.436 147.886 403.436 152.03 406.2 160.147C408.813 167.826 404.839 176.191 397.236 179.015L364.131 191.307C356.62 194.095 348.269 190.289 345.447 182.79C342.656 175.374 346.313 167.088 353.672 164.152Z" fill="#F7A87E"/>
<path d="M350.582 135.046L382.215 122.424C389.895 119.359 398.576 123.356 401.241 131.184C403.763 138.59 399.93 146.658 392.596 149.381L360.668 161.235C353.425 163.924 345.37 160.253 342.649 153.022C339.956 145.87 343.483 137.879 350.582 135.046Z" fill="#F7A87E"/>
<path d="M189.16 92.513C193.173 92.7378 197.298 91.6285 200.484 89.1775C203.67 86.7266 205.835 82.9019 206.008 78.8864C206.105 76.6719 205.491 74.2509 203.711 72.9312C202.352 71.923 200.546 71.7289 198.861 71.8754C196.52 72.0786 194.068 73.0068 192.826 75.0018L189.16 92.513Z" fill="#F7A87E"/>
<path d="M197.94 78.3607C198.139 78.4808 198.324 78.6233 198.491 78.7854C199.221 79.486 199.646 80.4451 199.675 81.4562C199.705 82.4673 199.336 83.4496 198.649 84.1915C198.615 84.2278 198.574 84.2572 198.529 84.2779C198.484 84.2986 198.436 84.3103 198.386 84.3122C198.337 84.3141 198.287 84.3062 198.241 84.289C198.194 84.2718 198.152 84.2457 198.115 84.212C198.079 84.1784 198.05 84.1379 198.029 84.0929C198.008 84.0478 197.997 83.9992 197.995 83.9497C197.993 83.9002 198.001 83.8508 198.018 83.8043C198.035 83.7579 198.061 83.7153 198.095 83.6789C198.647 83.0821 198.943 82.2926 198.92 81.4799C198.896 80.6672 198.555 79.8962 197.969 79.3325C197.756 79.128 197.432 78.8851 197.057 78.8232C195.646 79.6912 194.554 80.9925 193.945 82.5325C193.917 82.6046 193.867 82.6664 193.803 82.7094C193.738 82.7524 193.662 82.7745 193.585 82.7729C193.54 82.7721 193.496 82.7633 193.455 82.7468C193.362 82.7106 193.287 82.6389 193.246 82.5474C193.206 82.4559 193.204 82.3522 193.24 82.259C193.958 80.4113 195.315 78.8819 197.064 77.9477C198.812 77.0136 200.837 76.7363 202.773 77.1662C202.871 77.1879 202.956 77.2476 203.009 77.3321C203.063 77.4165 203.081 77.5189 203.059 77.6166C203.037 77.7143 202.978 77.7993 202.893 77.853C202.809 77.9067 202.706 77.9246 202.609 77.9028C201.043 77.5636 199.41 77.7238 197.94 78.3607Z" fill="#D26F61"/>
<path d="M191.526 86.2847C191.576 86.1979 191.658 86.1344 191.754 86.1081C191.851 86.0818 191.954 86.095 192.041 86.1447C194.076 87.3099 196.633 86.6084 198.347 85.563C199.443 84.8954 200.887 83.7282 201.534 81.9618C201.551 81.9153 201.577 81.8726 201.61 81.8362C201.644 81.7998 201.684 81.7704 201.729 81.7496C201.774 81.7288 201.823 81.7171 201.873 81.7151C201.922 81.7132 201.971 81.7209 202.018 81.738C202.064 81.7552 202.107 81.7813 202.143 81.8149C202.18 81.8484 202.209 81.8889 202.23 81.9338C202.251 81.9788 202.263 82.0274 202.265 82.0769C202.267 82.1264 202.259 82.1758 202.242 82.2223C201.518 84.1926 199.938 85.479 198.739 86.2078C197.516 86.953 195.896 87.5353 194.276 87.4995C193.361 87.4891 192.463 87.2482 191.666 86.7993C191.579 86.7496 191.516 86.6675 191.489 86.571C191.463 86.4745 191.476 86.3715 191.526 86.2847Z" fill="#D26F61"/>
<path d="M130.174 92.513C126.161 92.7378 122.033 91.6285 118.85 89.1775C115.668 86.7266 113.499 82.9019 113.326 78.8864C113.229 76.6719 113.843 74.2509 115.623 72.9312C116.982 71.923 118.788 71.7289 120.473 71.8754C122.814 72.0786 125.267 73.0068 126.508 75.0018L130.174 92.513Z" fill="#F7A87E"/>
<path d="M121.395 78.3607C121.196 78.4808 121.011 78.6232 120.844 78.7854C120.114 79.486 119.689 80.4451 119.659 81.4562C119.63 82.4673 119.999 83.4496 120.686 84.1915C120.72 84.2278 120.76 84.2572 120.805 84.2779C120.85 84.2986 120.899 84.3102 120.949 84.3121C120.998 84.314 121.047 84.3062 121.094 84.289C121.14 84.2718 121.183 84.2457 121.219 84.212C121.256 84.1783 121.285 84.1378 121.306 84.0928C121.326 84.0478 121.338 83.9992 121.34 83.9497C121.342 83.9002 121.334 83.8508 121.317 83.8043C121.3 83.7578 121.274 83.7152 121.24 83.6789C120.688 83.0821 120.392 82.2926 120.415 81.4799C120.439 80.6672 120.78 79.8962 121.366 79.3325C121.579 79.128 121.903 78.885 122.278 78.8231C123.689 79.6909 124.781 80.9923 125.39 82.5325C125.418 82.6046 125.468 82.6662 125.532 82.7092C125.596 82.7522 125.672 82.7744 125.75 82.7728C125.794 82.7721 125.839 82.7633 125.88 82.7468C125.926 82.7289 125.968 82.7021 126.004 82.6679C126.04 82.6337 126.069 82.5928 126.089 82.5475C126.109 82.5022 126.12 82.4533 126.121 82.4038C126.122 82.3543 126.113 82.3051 126.095 82.259C125.376 80.4113 124.02 78.882 122.272 77.9478C120.523 77.0136 118.498 76.7363 116.563 77.1661C116.514 77.1769 116.468 77.197 116.428 77.2255C116.387 77.2539 116.353 77.29 116.326 77.3318C116.3 77.3736 116.281 77.4202 116.273 77.469C116.264 77.5178 116.265 77.5678 116.276 77.6162C116.287 77.6646 116.307 77.7104 116.335 77.751C116.364 77.7915 116.4 77.8261 116.442 77.8527C116.484 77.8793 116.53 77.8974 116.579 77.906C116.628 77.9146 116.678 77.9135 116.726 77.9028C118.292 77.5636 119.925 77.7237 121.395 78.3607Z" fill="#D26F61"/>
<path d="M127.809 86.2847C127.759 86.1979 127.677 86.1344 127.58 86.1081C127.484 86.0818 127.381 86.095 127.294 86.1447C125.258 87.3099 122.702 86.6084 120.988 85.563C119.892 84.8954 118.448 83.7282 117.801 81.9618C117.784 81.9153 117.758 81.8726 117.724 81.8362C117.691 81.7998 117.65 81.7704 117.605 81.7496C117.56 81.7288 117.512 81.7171 117.462 81.7151C117.413 81.7132 117.363 81.7209 117.317 81.738C117.27 81.7552 117.228 81.7813 117.191 81.8149C117.155 81.8484 117.125 81.8889 117.105 81.9338C117.084 81.9788 117.072 82.0274 117.07 82.0769C117.068 82.1264 117.076 82.1758 117.093 82.2223C117.817 84.1926 119.397 85.479 120.595 86.2078C121.818 86.953 123.439 87.5353 125.058 87.4995C125.973 87.4891 126.871 87.2483 127.669 86.7993C127.756 86.7496 127.819 86.6675 127.845 86.571C127.872 86.4745 127.858 86.3715 127.809 86.2847Z" fill="#D26F61"/>
<path opacity="0.12" d="M177.479 87.1156C180.501 87.1156 182.951 84.6658 182.951 81.6438C182.951 78.6217 180.501 76.1719 177.479 76.1719C174.457 76.1719 172.007 78.6217 172.007 81.6438C172.007 84.6658 174.457 87.1156 177.479 87.1156Z" fill="#ED7C6D"/>
<path opacity="0.12" d="M180.566 84.0333C182.703 81.8964 182.703 78.4318 180.566 76.2949C178.429 74.158 174.965 74.158 172.828 76.2949C170.691 78.4318 170.691 81.8964 172.828 84.0333C174.965 86.1702 178.429 86.1702 180.566 84.0333Z" fill="#ED7C6D"/>
<path opacity="0.12" d="M179.767 87.1156C182.789 87.1156 185.238 84.6658 185.238 81.6438C185.238 78.6217 182.789 76.1719 179.767 76.1719C176.745 76.1719 174.295 78.6217 174.295 81.6438C174.295 84.6658 176.745 87.1156 179.767 87.1156Z" fill="#ED7C6D"/>
<path opacity="0.12" d="M177.278 88.7406C180.3 88.7406 182.75 86.2908 182.75 83.2688C182.75 80.2467 180.3 77.7969 177.278 77.7969C174.256 77.7969 171.806 80.2467 171.806 83.2688C171.806 86.2908 174.256 88.7406 177.278 88.7406Z" fill="#ED7C6D"/>
<path opacity="0.12" d="M177.795 85.7433C180.058 85.7433 181.893 83.9085 181.893 81.6451C181.893 79.3817 180.058 77.5469 177.795 77.5469C175.532 77.5469 173.697 79.3817 173.697 81.6451C173.697 83.9085 175.532 85.7433 177.795 85.7433Z" fill="#ED7C6D"/>
<path opacity="0.12" d="M178.356 84.4592C179.689 84.4592 180.769 83.3788 180.769 82.046C180.769 80.7132 179.689 79.6328 178.356 79.6328C177.023 79.6328 175.943 80.7132 175.943 82.046C175.943 83.3788 177.023 84.4592 178.356 84.4592Z" fill="#ED7C6D"/>
<path opacity="0.12" d="M179.04 81.7366C179.347 80.4394 178.543 79.1397 177.246 78.8335C175.949 78.5274 174.649 79.3307 174.343 80.6279C174.037 81.925 174.84 83.2247 176.137 83.5309C177.435 83.837 178.734 83.0337 179.04 81.7366Z" fill="#ED7C6D"/>
<path opacity="0.12" d="M179.648 83.0863C180.88 82.5763 181.464 81.1646 180.954 79.9333C180.444 78.702 179.033 78.1173 177.801 78.6273C176.57 79.1373 175.985 80.549 176.495 81.7803C177.005 83.0116 178.417 83.5963 179.648 83.0863Z" fill="#ED7C6D"/>
<path opacity="0.12" d="M178.402 83.8715C179.634 83.3614 180.218 81.9498 179.708 80.7185C179.198 79.4871 177.787 78.9024 176.555 79.4124C175.324 79.9225 174.739 81.3341 175.249 82.5655C175.759 83.7968 177.171 84.3815 178.402 83.8715Z" fill="#ED7C6D"/>
<path opacity="0.12" d="M180.14 81.4006C180.446 80.1035 179.643 78.8038 178.346 78.4976C177.048 78.1915 175.749 78.9948 175.443 80.2919C175.136 81.5891 175.94 82.8888 177.237 83.195C178.534 83.5011 179.834 82.6978 180.14 81.4006Z" fill="#ED7C6D"/>
<path opacity="0.05" d="M178.169 82.5654C179.121 82.5654 179.893 81.7935 179.893 80.8413C179.893 79.8891 179.121 79.1172 178.169 79.1172C177.217 79.1172 176.445 79.8891 176.445 80.8413C176.445 81.7935 177.217 82.5654 178.169 82.5654Z" fill="#FDECE9"/>
<path opacity="0.05" d="M177.792 81.1936C178.361 81.1936 178.822 80.7323 178.822 80.1632C178.822 79.5941 178.361 79.1328 177.792 79.1328C177.223 79.1328 176.761 79.5941 176.761 80.1632C176.761 80.7323 177.223 81.1936 177.792 81.1936Z" fill="#FDECE9"/>
<path opacity="0.05" d="M178.583 80.5621C178.499 80.6732 178.385 80.7572 178.254 80.8033C178.123 80.8494 177.981 80.8556 177.846 80.8211C177.712 80.7866 177.59 80.713 177.497 80.6095C177.405 80.506 177.345 80.3773 177.325 80.2398C177.305 80.1022 177.327 79.9618 177.387 79.8365C177.447 79.7112 177.543 79.6065 177.662 79.5356C177.782 79.4648 177.92 79.431 178.059 79.4385C178.197 79.4461 178.331 79.4946 178.442 79.5779C178.516 79.6333 178.578 79.7027 178.625 79.7821C178.672 79.8615 178.703 79.9494 178.716 80.0408C178.729 80.1322 178.724 80.2253 178.701 80.3148C178.679 80.4042 178.638 80.4882 178.583 80.5621Z" fill="#FDECE9"/>
<path opacity="0.05" d="M178.354 80.4685C178.271 80.58 178.156 80.6642 178.025 80.7105C177.894 80.7568 177.752 80.7632 177.617 80.7288C177.482 80.6944 177.361 80.6208 177.268 80.5173C177.175 80.4137 177.114 80.2849 177.095 80.1472C177.075 80.0094 177.096 79.8689 177.156 79.7434C177.216 79.6179 177.312 79.513 177.432 79.4421C177.552 79.3711 177.69 79.3373 177.829 79.3448C177.968 79.3523 178.101 79.4009 178.213 79.4844C178.362 79.5962 178.461 79.7627 178.487 79.9472C178.514 80.1317 178.466 80.3192 178.354 80.4685Z" fill="#FDECE9"/>
<path opacity="0.05" d="M176.801 80.5924C177.174 80.4915 177.394 80.1076 177.293 79.735C177.192 79.3624 176.809 79.1421 176.436 79.2431C176.063 79.344 175.843 79.7278 175.944 80.1005C176.045 80.4731 176.429 80.6933 176.801 80.5924Z" fill="#FDECE9"/>
<path opacity="0.05" d="M178.442 80.4683C178.359 80.5795 178.244 80.6634 178.113 80.7095C177.982 80.7556 177.84 80.7618 177.706 80.7273C177.571 80.6928 177.45 80.6192 177.357 80.5157C177.264 80.4122 177.204 80.2836 177.184 80.146C177.165 80.0084 177.186 79.8681 177.246 79.7428C177.306 79.6174 177.402 79.5127 177.522 79.4419C177.641 79.3711 177.779 79.3373 177.918 79.3448C178.057 79.3523 178.19 79.4008 178.302 79.4841C178.451 79.5961 178.549 79.7626 178.575 79.9471C178.602 80.1317 178.554 80.3191 178.442 80.4683Z" fill="#FDECE9"/>
<path opacity="0.12" d="M140.372 87.1156C143.394 87.1156 145.844 84.6658 145.844 81.6438C145.844 78.6217 143.394 76.1719 140.372 76.1719C137.35 76.1719 134.9 78.6217 134.9 81.6438C134.9 84.6658 137.35 87.1156 140.372 87.1156Z" fill="#ED7C6D"/>
<path opacity="0.12" d="M143.457 84.0333C145.594 81.8964 145.594 78.4318 143.457 76.2949C141.32 74.158 137.855 74.158 135.718 76.2949C133.581 78.4318 133.581 81.8964 135.718 84.0333C137.855 86.1702 141.32 86.1702 143.457 84.0333Z" fill="#ED7C6D"/>
<path opacity="0.12" d="M142.659 87.1156C145.681 87.1156 148.131 84.6658 148.131 81.6438C148.131 78.6217 145.681 76.1719 142.659 76.1719C139.637 76.1719 137.187 78.6217 137.187 81.6438C137.187 84.6658 139.637 87.1156 142.659 87.1156Z" fill="#ED7C6D"/>
<path opacity="0.12" d="M140.169 88.7406C143.191 88.7406 145.641 86.2908 145.641 83.2688C145.641 80.2467 143.191 77.7969 140.169 77.7969C137.147 77.7969 134.697 80.2467 134.697 83.2688C134.697 86.2908 137.147 88.7406 140.169 88.7406Z" fill="#ED7C6D"/>
<path opacity="0.12" d="M140.688 85.7433C142.951 85.7433 144.786 83.9085 144.786 81.6451C144.786 79.3817 142.951 77.5469 140.688 77.5469C138.424 77.5469 136.589 79.3817 136.589 81.6451C136.589 83.9085 138.424 85.7433 140.688 85.7433Z" fill="#ED7C6D"/>
<path opacity="0.12" d="M141.249 84.4592C142.581 84.4592 143.662 83.3788 143.662 82.046C143.662 80.7132 142.581 79.6328 141.249 79.6328C139.916 79.6328 138.835 80.7132 138.835 82.046C138.835 83.3788 139.916 84.4592 141.249 84.4592Z" fill="#ED7C6D"/>
<path opacity="0.12" d="M141.933 81.7366C142.239 80.4394 141.436 79.1397 140.138 78.8336C138.841 78.5274 137.542 79.3308 137.235 80.6279C136.929 81.925 137.733 83.2247 139.03 83.5309C140.327 83.837 141.627 83.0337 141.933 81.7366Z" fill="#ED7C6D"/>
<path opacity="0.12" d="M142.539 83.0863C143.77 82.5763 144.355 81.1646 143.845 79.9333C143.335 78.702 141.923 78.1173 140.692 78.6273C139.461 79.1373 138.876 80.549 139.386 81.7803C139.896 83.0116 141.308 83.5963 142.539 83.0863Z" fill="#ED7C6D"/>
<path opacity="0.12" d="M141.295 83.8715C142.526 83.3614 143.111 81.9498 142.601 80.7185C142.091 79.4871 140.679 78.9024 139.448 79.4124C138.216 79.9225 137.632 81.3341 138.142 82.5655C138.652 83.7968 140.063 84.3815 141.295 83.8715Z" fill="#ED7C6D"/>
<path opacity="0.12" d="M143.032 81.4006C143.339 80.1035 142.535 78.8038 141.238 78.4976C139.941 78.1915 138.641 78.9948 138.335 80.292C138.029 81.5891 138.832 82.8888 140.129 83.195C141.427 83.5011 142.726 82.6978 143.032 81.4006Z" fill="#ED7C6D"/>
<path opacity="0.05" d="M141.06 82.5654C142.012 82.5654 142.784 81.7935 142.784 80.8413C142.784 79.8891 142.012 79.1172 141.06 79.1172C140.107 79.1172 139.335 79.8891 139.335 80.8413C139.335 81.7935 140.107 82.5654 141.06 82.5654Z" fill="#FDECE9"/>
<path opacity="0.05" d="M140.682 81.1936C141.251 81.1936 141.713 80.7323 141.713 80.1632C141.713 79.5941 141.251 79.1328 140.682 79.1328C140.113 79.1328 139.652 79.5941 139.652 80.1632C139.652 80.7323 140.113 81.1936 140.682 81.1936Z" fill="#FDECE9"/>
<path opacity="0.05" d="M141.475 80.5621C141.392 80.6732 141.277 80.7572 141.146 80.8033C141.015 80.8494 140.873 80.8556 140.739 80.8211C140.604 80.7866 140.483 80.713 140.39 80.6095C140.297 80.506 140.237 80.3773 140.218 80.2398C140.198 80.1022 140.219 79.9618 140.279 79.8365C140.34 79.7112 140.435 79.6065 140.555 79.5356C140.675 79.4648 140.813 79.431 140.951 79.4385C141.09 79.4461 141.223 79.4946 141.335 79.5779C141.409 79.6333 141.471 79.7027 141.518 79.7821C141.565 79.8615 141.596 79.9494 141.609 80.0408C141.622 80.1322 141.617 80.2253 141.594 80.3148C141.571 80.4042 141.531 80.4882 141.475 80.5621Z" fill="#FDECE9"/>
<path opacity="0.05" d="M141.247 80.4683C141.163 80.5795 141.049 80.6634 140.918 80.7095C140.787 80.7556 140.645 80.7618 140.51 80.7273C140.376 80.6928 140.254 80.6192 140.161 80.5157C140.069 80.4122 140.009 80.2836 139.989 80.146C139.969 80.0084 139.991 79.8681 140.051 79.7428C140.111 79.6174 140.207 79.5127 140.327 79.4419C140.446 79.3711 140.584 79.3373 140.723 79.3448C140.862 79.3523 140.995 79.4008 141.106 79.4841C141.255 79.5961 141.354 79.7626 141.38 79.9471C141.407 80.1317 141.359 80.3191 141.247 80.4683Z" fill="#FDECE9"/>
<path opacity="0.05" d="M141.176 80.8184C141.55 80.7158 141.77 80.3292 141.668 79.9549C141.565 79.5805 141.179 79.3602 140.804 79.4628C140.43 79.5653 140.21 79.9519 140.312 80.3263C140.415 80.7006 140.801 80.9209 141.176 80.8184Z" fill="#FDECE9"/>
<path opacity="0.05" d="M141.335 80.4685C141.251 80.58 141.137 80.6642 141.006 80.7105C140.874 80.7568 140.732 80.7632 140.597 80.7288C140.463 80.6944 140.341 80.6208 140.248 80.5173C140.155 80.4137 140.095 80.2849 140.075 80.1472C140.055 80.0094 140.077 79.8689 140.137 79.7434C140.197 79.6179 140.293 79.513 140.413 79.4421C140.532 79.3711 140.67 79.3373 140.809 79.3448C140.948 79.3523 141.082 79.4009 141.193 79.4844C141.342 79.5962 141.441 79.7627 141.468 79.9472C141.494 80.1317 141.446 80.3192 141.335 80.4685Z" fill="#FDECE9"/>
<path d="M154.832 77.5234C154.832 77.5391 154.832 77.554 154.832 77.5697C154.847 78.9881 155.422 80.3431 156.43 81.3407C157.439 82.3382 158.8 82.8977 160.218 82.8977C161.637 82.8977 162.998 82.3382 164.007 81.3407C165.015 80.3431 165.59 78.9881 165.605 77.5697C165.605 77.554 165.605 77.5391 165.605 77.5234H154.832Z" fill="#F17D6F"/>
<path d="M252.835 142.867C252.32 140.674 252.518 137.832 251.839 135.989C260.665 119.507 259.956 104.027 257.093 94.7108C254.23 85.3947 241.786 80.1261 237.227 93.8094C234.962 100.609 225.434 128.44 221.975 135.543C219.913 145.73 219.103 156.379 219.429 166.948C222.253 165.561 225.009 164.026 227.68 162.406C237.094 156.699 245.03 150.635 252.835 142.867Z" fill="#F7A87E"/>
<path d="M230.761 286.159L192.779 253.036C164.006 284.32 115.394 287.166 83.1574 259.076C50.9211 230.986 47.1496 182.413 74.228 149.651L36.2459 116.528C-9.1261 170.268 -3.13342 250.647 50.0566 297.032C103.247 343.418 183.694 338.42 230.761 286.159Z" fill="#FF9149"/>
<path d="M266.201 33.4336H267.584V42.8099H266.201C266.061 42.8099 265.923 42.7824 265.795 42.7291C265.666 42.6758 265.549 42.5977 265.451 42.4993C265.352 42.4008 265.274 42.2839 265.221 42.1552C265.168 42.0265 265.14 41.8886 265.14 41.7494V34.4941C265.14 34.2128 265.252 33.9431 265.451 33.7442C265.65 33.5453 265.919 33.4336 266.201 33.4336Z" fill="#333333"/>
<path d="M266.201 51.8516H267.584V69.3315H266.201C265.919 69.3315 265.65 69.2198 265.451 69.0209C265.252 68.822 265.14 68.5523 265.14 68.271V52.9121C265.14 52.6308 265.252 52.3611 265.451 52.1622C265.65 51.9633 265.919 51.8516 266.201 51.8516Z" fill="#333333"/>
<path d="M388.749 85.0977H387.366V57.9878H388.749C389.031 57.9878 389.3 58.0996 389.499 58.2984C389.698 58.4973 389.81 58.7671 389.81 59.0483V84.0371C389.81 84.3184 389.698 84.5882 389.499 84.787C389.3 84.9859 389.031 85.0977 388.749 85.0977Z" fill="#333333"/>
<path d="M266.201 74.2188H267.584V91.6987H266.201C265.919 91.6987 265.65 91.587 265.451 91.3881C265.252 91.1892 265.14 90.9195 265.14 90.6382V75.2793C265.14 74.998 265.252 74.7283 265.451 74.5294C265.65 74.3305 265.919 74.2187 266.201 74.2188Z" fill="#333333"/>
<path d="M370.23 0H284.714C274.579 0 266.363 8.21621 266.363 18.3514V229.649C266.363 239.784 274.579 248 284.714 248H370.23C380.366 248 388.582 239.784 388.582 229.649V18.3514C388.582 8.21621 380.366 0 370.23 0Z" fill="#444444"/>
<path d="M370.229 2.14844H284.71C275.761 2.14844 268.505 9.40368 268.505 18.3535V229.653C268.505 238.603 275.761 245.858 284.71 245.858H370.229C379.179 245.858 386.434 238.603 386.434 229.653V18.3535C386.434 9.40368 379.179 2.14844 370.229 2.14844Z" fill="#444444"/>
<path d="M370.23 2.28125H284.711C275.836 2.28125 268.642 9.47559 268.642 18.3503V229.65C268.642 238.524 275.836 245.719 284.711 245.719H370.23C379.104 245.719 386.299 238.524 386.299 229.65V18.3503C386.299 9.47559 379.104 2.28125 370.23 2.28125Z" fill="#434343"/>
<path d="M370.23 2.41797H284.712C275.912 2.41797 268.779 9.55141 268.779 18.351V229.65C268.779 238.45 275.912 245.583 284.712 245.583H370.23C379.03 245.583 386.163 238.45 386.163 229.65V18.351C386.163 9.55141 379.03 2.41797 370.23 2.41797Z" fill="#414141"/>
<path d="M370.229 2.55469H284.711C275.986 2.55469 268.914 9.62723 268.914 18.3517V229.651C268.914 238.376 275.986 245.448 284.711 245.448H370.229C378.953 245.448 386.026 238.376 386.026 229.651V18.3517C386.026 9.62723 378.953 2.55469 370.229 2.55469Z" fill="#404040"/>
<path d="M370.23 2.69141H284.711C276.062 2.69141 269.05 9.70305 269.05 18.3524V229.652C269.05 238.301 276.062 245.313 284.711 245.313H370.23C378.879 245.313 385.891 238.301 385.891 229.652V18.3524C385.891 9.70305 378.879 2.69141 370.23 2.69141Z" fill="#3E3E3E"/>
<path d="M370.232 2.82812H284.714C276.14 2.82812 269.189 9.77887 269.189 18.3531V229.653C269.189 238.227 276.14 245.177 284.714 245.177H370.232C378.807 245.177 385.757 238.227 385.757 229.653V18.3531C385.757 9.77887 378.807 2.82812 370.232 2.82812Z" fill="#3D3D3D"/>
<path d="M370.229 2.96094H284.713C276.214 2.96094 269.324 9.85079 269.324 18.3498V229.647C269.324 238.146 276.214 245.036 284.713 245.036H370.229C378.728 245.036 385.618 238.146 385.618 229.647V18.3498C385.618 9.85079 378.728 2.96094 370.229 2.96094Z" fill="#3B3B3B"/>
<path d="M370.23 3.09766H284.713C276.29 3.09766 269.461 9.9266 269.461 18.3505V229.648C269.461 238.072 276.29 244.901 284.713 244.901H370.23C378.654 244.901 385.483 238.072 385.483 229.648V18.3505C385.483 9.9266 378.654 3.09766 370.23 3.09766Z" fill="#3A3A3A"/>
<path d="M370.23 3.23438H284.714C276.365 3.23438 269.597 10.0024 269.597 18.3512V229.648C269.597 237.997 276.365 244.765 284.714 244.765H370.23C378.579 244.765 385.347 237.997 385.347 229.648V18.3512C385.347 10.0024 378.579 3.23438 370.23 3.23438Z" fill="#393939"/>
<path d="M370.229 3.375H284.713C276.439 3.375 269.732 10.0822 269.732 18.3558V229.653C269.732 237.927 276.439 244.634 284.713 244.634H370.229C378.503 244.634 385.21 237.927 385.21 229.653V18.3558C385.21 10.0822 378.503 3.375 370.229 3.375Z" fill="#373737"/>
<path d="M370.23 3.50781H284.713C276.515 3.50781 269.869 10.1541 269.869 18.3526V229.65C269.869 237.848 276.515 244.495 284.713 244.495H370.23C378.428 244.495 385.075 237.848 385.075 229.65V18.3526C385.075 10.1541 378.428 3.50781 370.23 3.50781Z" fill="#363636"/>
<path d="M370.23 3.64453H284.714C276.591 3.64453 270.005 10.2299 270.005 18.3533V229.651C270.005 237.774 276.591 244.359 284.714 244.359H370.23C378.354 244.359 384.939 237.774 384.939 229.651V18.3533C384.939 10.2299 378.354 3.64453 370.23 3.64453Z" fill="#343434"/>
<path d="M370.229 3.78125H284.711C276.664 3.78125 270.14 10.3047 270.14 18.3517V229.651C270.14 237.698 276.664 244.222 284.711 244.222H370.229C378.276 244.222 384.8 237.698 384.8 229.651V18.3517C384.8 10.3047 378.276 3.78125 370.229 3.78125Z" fill="#333333"/>
<path d="M370.23 3.91797H284.711C276.739 3.91797 270.277 10.3805 270.277 18.3524V229.652C270.277 237.624 276.739 244.086 284.711 244.086H370.23C378.202 244.086 384.664 237.624 384.664 229.652V18.3524C384.664 10.3805 378.202 3.91797 370.23 3.91797Z" fill="#313131"/>
<path d="M370.231 4.05469H284.712C276.815 4.05469 270.414 10.4563 270.414 18.3531V229.653C270.414 237.549 276.815 243.951 284.712 243.951H370.231C378.127 243.951 384.529 237.549 384.529 229.653V18.3531C384.529 10.4563 378.127 4.05469 370.231 4.05469Z" fill="#303030"/>
<path d="M370.229 4.1875H284.711C276.889 4.1875 270.548 10.5282 270.548 18.3499V229.649C270.548 237.471 276.889 243.812 284.711 243.812H370.229C378.051 243.812 384.392 237.471 384.392 229.649V18.3499C384.392 10.5282 378.051 4.1875 370.229 4.1875Z" fill="#2F2F2F"/>
<path d="M370.23 4.32422H284.711C276.965 4.32422 270.685 10.604 270.685 18.3506V229.65C270.685 237.397 276.965 243.676 284.711 243.676H370.23C377.977 243.676 384.256 237.397 384.256 229.65V18.3506C384.256 10.604 377.977 4.32422 370.23 4.32422Z" fill="#2D2D2D"/>
<path d="M370.229 4.46094H284.71C277.039 4.46094 270.82 10.6799 270.82 18.3513V229.651C270.82 237.322 277.039 243.541 284.71 243.541H370.229C377.9 243.541 384.119 237.322 384.119 229.651V18.3513C384.119 10.6799 377.9 4.46094 370.229 4.46094Z" fill="#2C2C2C"/>
<path d="M370.229 4.59766H284.713C277.117 4.59766 270.958 10.7557 270.958 18.352V229.649C270.958 237.245 277.117 243.404 284.713 243.404H370.229C377.825 243.404 383.983 237.245 383.983 229.649V18.352C383.983 10.7557 377.825 4.59766 370.229 4.59766Z" fill="#2A2A2A"/>
<path d="M370.23 4.73438H284.714C277.192 4.73438 271.095 10.8315 271.095 18.3527V229.65C271.095 237.171 277.192 243.268 284.714 243.268H370.23C377.751 243.268 383.848 237.171 383.848 229.65V18.3527C383.848 10.8315 377.751 4.73438 370.23 4.73438Z" fill="#292929"/>
<path d="M370.23 4.86719H284.714C277.268 4.86719 271.232 10.9034 271.232 18.3495V229.647C271.232 237.093 277.268 243.129 284.714 243.129H370.23C377.677 243.129 383.713 237.093 383.713 229.647V18.3495C383.713 10.9034 377.677 4.86719 370.23 4.86719Z" fill="#272727"/>
<path d="M370.229 5.00781H284.713C277.342 5.00781 271.367 10.9831 271.367 18.3541V229.651C271.367 237.022 277.342 242.998 284.713 242.998H370.229C377.6 242.998 383.575 237.022 383.575 229.651V18.3541C383.575 10.9831 377.6 5.00781 370.229 5.00781Z" fill="#262626"/>
<path d="M370.23 2.85955C374.337 2.86382 378.275 4.49721 381.179 7.40129C384.083 10.3054 385.716 14.2429 385.72 18.3499V229.649C385.716 233.756 384.083 237.694 381.179 240.598C378.275 243.502 374.337 245.135 370.23 245.14H284.714C280.607 245.135 276.669 243.502 273.765 240.598C270.86 237.694 269.226 233.757 269.221 229.649V18.3499C269.226 14.2427 270.86 10.3052 273.765 7.40114C276.669 4.49713 280.607 2.86382 284.714 2.85955H370.23ZM370.23 1.97656H284.714C280.375 1.98266 276.215 3.70918 273.146 6.77759C270.078 9.846 268.351 14.0059 268.345 18.3453V229.645C268.351 233.984 270.078 238.144 273.146 241.212C276.215 244.281 280.375 246.007 284.714 246.014H370.23C374.57 246.007 378.729 244.281 381.798 241.212C384.866 238.144 386.593 233.984 386.599 229.645V18.3499C386.593 14.0105 384.866 9.85061 381.798 6.7822C378.729 3.71379 374.57 1.98727 370.23 1.98117V1.97656Z" fill="#2D2C2C"/>
<mask id="mask0_216_1934" style="mask-type:luminance" maskUnits="userSpaceOnUse" x="273" y="7" width="109" height="234">
<path d="M370.23 7.15234H359.11C358.767 7.15234 358.438 7.28853 358.195 7.53102C357.952 7.7735 357.815 8.10247 357.815 8.4457V8.60708C357.816 9.57143 357.628 10.5266 357.26 11.418C356.892 12.3093 356.352 13.1194 355.67 13.8018C354.989 14.4843 354.18 15.0257 353.289 15.395C352.398 15.7644 351.443 15.9546 350.479 15.9546H304.102C302.157 15.9546 300.291 15.1817 298.915 13.8059C297.539 12.4302 296.766 10.5642 296.766 8.61861V8.45723C296.766 8.11421 296.63 7.78524 296.388 7.54269C296.145 7.30014 295.816 7.16387 295.473 7.16387H284.713C283.242 7.16357 281.786 7.45304 280.427 8.01575C279.068 8.57846 277.833 9.40339 276.792 10.4434C275.752 11.4835 274.927 12.7182 274.364 14.0772C273.801 15.4362 273.511 16.8928 273.511 18.3638V229.663C273.511 231.134 273.801 232.591 274.364 233.95C274.927 235.309 275.752 236.544 276.792 237.584C277.833 238.624 279.068 239.449 280.427 240.011C281.786 240.574 283.242 240.863 284.713 240.863H370.23C373.2 240.863 376.049 239.683 378.149 237.583C380.25 235.482 381.43 232.634 381.43 229.663V18.3522C381.43 15.3818 380.25 12.5331 378.149 10.4327C376.049 8.33233 373.2 7.15234 370.23 7.15234Z" fill="white"/>
</mask>
<g mask="url(#mask0_216_1934)">
<path d="M381.43 7.15234H273.511V240.852H381.43V7.15234Z" fill="#9EA6FF"/>
<path d="M273.28 241.081V55.8563H271.736C272.658 54.4208 273.58 52.9837 274.502 51.5451C276.376 48.671 278.297 45.7984 280.266 42.9273C284.208 37.1914 288.34 31.4792 292.662 25.7909C296.984 20.1026 301.389 14.5948 305.877 9.26771C306.438 8.6022 306.999 7.939 307.56 7.2781C307.838 6.94612 308.119 6.61644 308.402 6.28906V6.92537H381.66V212.802H383.043C381.857 213.766 380.67 214.717 379.484 215.657C374.734 219.41 369.992 222.945 365.257 226.262C360.521 229.578 355.813 232.666 351.133 235.525C348.794 236.954 346.463 238.325 344.141 239.636C342.979 240.29 341.821 240.931 340.667 241.556V241.081H273.28Z" fill="#9EA6FF"/>
<path d="M273.281 241.081V56.1587H272.757C273.661 54.737 274.577 53.3137 275.505 51.889C277.362 49.044 279.266 46.2006 281.216 43.3588C285.117 37.6812 289.207 32.0275 293.486 26.3976C297.765 20.7676 302.12 15.3152 306.553 10.0404C307.66 8.72165 308.771 7.41522 309.887 6.12109V6.92109H381.66V211.489H382.917C381.744 212.443 380.57 213.385 379.394 214.313C374.695 218.026 370.002 221.524 365.314 224.807C356.446 231.063 347.173 236.725 337.557 241.757V241.081H273.281Z" fill="#9FA7FF"/>
<path d="M273.281 241.083V58.5741H272.449C272.888 57.8702 273.332 57.1662 273.781 56.4623C274.676 55.0529 275.582 53.6443 276.499 52.2364C278.344 49.4222 280.227 46.6095 282.15 43.7984C286.012 38.1793 290.06 32.5847 294.293 27.0147C298.526 21.4447 302.836 16.0492 307.224 10.8281C308.322 9.52325 309.421 8.22912 310.523 6.94575L311.353 5.98438V6.9227H381.67V210.174H382.799C381.637 211.116 380.475 212.047 379.311 212.968C374.66 216.643 370.016 220.101 365.379 223.343C356.603 229.533 347.426 235.136 337.91 240.115C336.785 240.699 335.663 241.267 334.544 241.821V241.072L273.281 241.083Z" fill="#A0A7FE"/>
<path d="M273.28 241.083V60.9438H272.175C279.066 49.7923 286.716 38.6385 295.092 27.6254C299.28 22.1184 303.545 16.7797 307.887 11.6094C308.963 10.3183 310.051 9.03802 311.151 7.76849C311.697 7.13218 312.244 6.49971 312.793 5.87109V6.92238H381.659V208.855H382.66C381.511 209.791 380.359 210.713 379.201 211.621C374.6 215.259 370.004 218.685 365.415 221.899C356.731 228.025 347.651 233.57 338.236 238.498C336.009 239.653 333.795 240.748 331.594 241.786V241.094L273.28 241.083Z" fill="#A1A8FE"/>
<path d="M273.28 241.082V61.1988H273.222C280.042 50.1672 287.608 39.1309 295.896 28.2308C300.046 22.7837 304.265 17.5019 308.553 12.3854C309.629 11.1081 310.705 9.84091 311.781 8.58367C312.323 7.95659 312.862 7.33181 313.395 6.70703V6.91683H381.636V207.537H382.51C381.371 208.46 380.233 209.372 379.096 210.274C374.545 213.874 369.998 217.263 365.456 220.441C356.865 226.502 347.882 231.987 338.566 236.861C336.362 238.004 334.171 239.088 331.995 240.114C330.907 240.628 329.823 241.126 328.742 241.607V241.082H273.28Z" fill="#A2A8FD"/>
<path d="M273.28 241.083V65.5506H271.775C272.596 64.1858 273.427 62.8217 274.269 61.4584C281.015 50.5444 288.501 39.6281 296.699 28.8478C300.798 23.4576 304.973 18.2319 309.222 13.1707C311.343 10.6439 313.481 8.15863 315.634 5.71484V6.9206H381.66V206.22H382.404C381.279 207.142 380.154 208.045 379.027 208.927C374.525 212.486 370.028 215.839 365.535 218.985C357.036 224.98 348.149 230.406 338.933 235.227C334.575 237.49 330.272 239.519 326.022 241.314V241.083H273.28Z" fill="#A3A9FD"/>
<path d="M273.28 239.51V65.752H272.849C273.661 64.401 274.484 63.0516 275.318 61.7037C281.99 50.9095 289.395 40.1108 297.504 29.448C301.557 24.1178 305.685 18.9498 309.888 13.9439C311.989 11.4432 314.104 8.98406 316.233 6.56641V6.90992H381.66V204.893H382.277C381.163 205.797 380.05 206.689 378.937 207.57C374.48 211.089 370.031 214.406 365.591 217.52C357.183 223.45 348.393 228.818 339.278 233.589C334.967 235.825 330.709 237.832 326.504 239.609C324.404 240.495 322.322 241.324 320.256 242.094V241.075H273.28V239.51Z" fill="#A4AAFC"/>
<path d="M273.281 237.813V67.975H272.73C273.127 67.3064 273.525 66.6394 273.924 65.9738C274.727 64.6398 275.54 63.3049 276.366 61.9693C282.964 51.295 290.288 40.6139 298.307 30.0687C302.315 24.7954 306.399 19.6842 310.558 14.7351C312.633 12.2606 314.724 9.82912 316.831 7.44067C317.357 6.84433 317.884 6.24952 318.413 5.65625V6.92195H381.66V203.589H382.149C381.049 204.483 379.947 205.365 378.845 206.235C374.44 209.717 370.041 212.994 365.647 216.068C357.332 221.938 348.638 227.252 339.623 231.976C331.093 236.398 322.758 239.923 314.724 242.486V241.103H273.281V237.813Z" fill="#A6AAFC"/>
<path d="M273.281 236.127V70.1341H272.654C274.191 67.4967 275.777 64.8585 277.412 62.2195C283.939 51.6605 291.18 41.0992 299.111 30.6717C303.077 25.4583 307.114 20.4039 311.224 15.5087C313.279 13.0634 315.347 10.6588 317.428 8.29492C317.949 7.70473 318.471 7.11684 318.993 6.53125V6.91396H381.66V202.262H382.022C380.931 203.147 379.842 204.02 378.755 204.881C374.398 208.325 370.047 211.569 365.702 214.612C357.479 220.41 348.882 225.66 339.968 230.326C331.535 234.707 323.291 238.186 315.355 240.719C313.373 241.354 311.41 241.928 309.467 242.441V241.074H273.272L273.281 236.127Z" fill="#A7ABFB"/>
<path d="M273.28 234.419V72.2623H272.619C272.994 71.6121 273.372 70.9612 273.753 70.3096C275.276 67.6967 276.845 65.0877 278.458 62.4826C284.914 52.0435 292.072 41.5997 299.913 31.2898C303.834 26.1348 307.83 21.1396 311.901 16.3043C313.93 13.8851 315.975 11.5074 318.036 9.17123C319.064 8.00467 320.096 6.84733 321.132 5.69922V6.92803H381.66V200.96H381.89C380.814 201.836 379.739 202.699 378.663 203.549C374.359 206.953 370.056 210.16 365.752 213.169C357.622 218.903 349.121 224.094 340.307 228.708C331.97 233.031 323.816 236.477 315.973 238.986C312.187 240.204 308.339 241.221 304.445 242.034V241.088H273.28V234.419Z" fill="#A8ABFB"/>
<path d="M273.281 232.722V74.3372H272.628C273.358 73.0508 274.101 71.7628 274.855 70.4733C276.362 67.8958 277.912 65.3167 279.508 62.7362C285.885 52.417 292.965 42.0931 300.718 31.8984C304.593 26.8018 308.541 21.862 312.563 17.079C314.562 14.689 316.582 12.3389 318.625 10.0289C319.642 8.87308 320.663 7.72803 321.686 6.59375V6.92113H381.66V199.636H381.766C380.701 200.502 379.636 201.355 378.571 202.195C374.314 205.561 370.061 208.732 365.813 211.708C357.774 217.376 349.37 222.508 340.655 227.069C324.171 235.618 308.416 240.701 294.371 241.824C287.346 242.379 280.751 241.941 274.706 240.441C273.949 240.255 273.202 240.052 272.462 239.832H273.281V232.722Z" fill="#A9ACFA"/>
<path d="M273.28 231.026V76.3734H272.679C273.034 75.7371 273.393 75.1008 273.755 74.4645C274.476 73.1919 275.209 71.9185 275.955 70.6444C277.444 68.0961 278.981 65.547 280.566 62.9972C286.871 52.7955 293.868 42.5893 301.531 32.5122C305.351 27.4678 309.249 22.5841 313.227 17.861C315.21 15.4987 317.208 13.1755 319.221 10.8916C320.226 9.75117 321.235 8.61997 322.248 7.49798C322.755 6.93699 323.263 6.37906 323.77 5.82422V6.92162H381.66V197.027H383.216L381.637 198.32C380.585 199.177 379.533 200.022 378.481 200.856C374.271 204.182 370.066 207.316 365.867 210.258C357.922 215.861 349.615 220.933 341.001 225.442C324.704 233.891 309.13 238.917 295.247 240.015C288.305 240.566 281.783 240.132 275.807 238.654C275.06 238.47 274.322 238.269 273.592 238.053C273.226 237.944 272.863 237.831 272.503 237.714H273.28V231.026Z" fill="#AAADFA"/>
<path d="M273.28 229.328V78.3604H272.771C275.537 73.3376 278.48 68.3025 281.6 63.2551C287.825 53.171 294.742 43.0847 302.324 33.1251C306.11 28.1469 309.966 23.32 313.893 18.6445C315.854 16.3099 317.829 14.0137 319.818 11.7558C320.814 10.6262 321.813 9.50803 322.815 8.40141C323.315 7.8481 323.816 7.29633 324.318 6.74609V6.92361H381.66V195.74H383.068C382.55 196.168 382.031 196.593 381.51 197.015C380.468 197.862 379.427 198.697 378.388 199.519C374.229 202.807 370.074 205.904 365.922 208.81C358.069 214.348 349.858 219.362 341.344 223.818C325.243 232.16 309.845 237.126 296.123 238.202C289.262 238.744 282.818 238.317 276.909 236.858C275.43 236.494 273.988 236.064 272.582 235.569H273.273L273.28 229.328Z" fill="#ABADF9"/>
<path d="M273.28 227.628V82.1536H271.897C272.559 80.9164 273.232 79.6768 273.916 78.4349C276.655 73.4721 279.565 68.4961 282.645 63.5071C288.803 53.5429 295.638 43.5742 303.122 33.7345C310.605 23.8948 318.393 14.6407 326.349 6.03906V6.91283H381.66V194.415H382.923C382.408 194.84 381.894 195.26 381.381 195.677C380.352 196.514 379.325 197.339 378.298 198.15C374.185 201.399 370.078 204.46 365.978 207.333C358.217 212.805 350.103 217.76 341.69 222.164C325.771 230.417 310.566 235.326 296.999 236.4C290.218 236.935 283.858 236.513 278.011 235.07C276.551 234.71 275.125 234.286 273.734 233.797C273.038 233.55 272.351 233.288 271.673 233.013H273.287L273.28 227.628Z" fill="#ACAEF9"/>
<path d="M273.28 225.933V82.1901H273.075C273.729 80.9682 274.396 79.7433 275.074 78.5152C277.779 73.6107 280.653 68.6924 283.696 63.7603C289.78 53.9137 296.535 44.0648 303.931 34.3404C311.327 24.616 319.018 15.4933 326.877 6.9885C327.369 6.45517 327.861 5.92645 328.353 5.40234V6.92164H381.659V193.122H382.775C382.268 193.541 381.76 193.957 381.251 194.369C380.237 195.194 379.222 196.009 378.206 196.813C374.144 200.022 370.086 203.046 366.033 205.885C358.365 211.293 350.347 216.189 342.033 220.54C326.305 228.697 311.276 233.546 297.874 234.604C291.175 235.134 284.883 234.717 279.115 233.292C277.672 232.934 276.262 232.513 274.887 232.031C274.2 231.791 273.521 231.534 272.851 231.258H273.28V225.933Z" fill="#ADAEF8"/>
<path d="M273.281 224.234V85.8468H272.342C273.595 83.4353 274.889 81.0169 276.225 78.5916C278.898 73.7486 281.741 68.8917 284.755 64.0211C290.768 54.2944 297.435 44.5631 304.748 34.9562C312.061 25.3494 319.648 16.3189 327.415 7.92708C327.902 7.40144 328.389 6.87887 328.874 6.35938V6.9196H381.669V191.817H382.64C382.137 192.232 381.636 192.643 381.135 193.05C380.132 193.867 379.129 194.671 378.124 195.464C374.109 198.637 370.101 201.624 366.098 204.428C358.522 209.77 350.602 214.607 342.389 218.906C326.85 226.975 312.001 231.754 298.763 232.803C292.142 233.327 285.926 232.914 280.227 231.505C277.424 230.82 274.695 229.86 272.08 228.64H273.29L273.281 224.234Z" fill="#AEAFF8"/>
<path d="M273.279 222.539V89.4079H271.716C272.314 88.2198 272.922 87.0302 273.54 85.839C274.769 83.4552 276.047 81.0667 277.374 78.6737C280.013 73.886 282.818 69.0876 285.789 64.2784C291.728 54.6693 298.319 45.0579 305.537 35.5686C312.756 26.0794 320.258 17.1573 327.93 8.86915C328.889 7.8317 329.851 6.805 330.814 5.78906V6.92104H381.659V190.518H382.482C381.987 190.927 381.491 191.333 380.995 191.735C380.005 192.541 379.014 193.335 378.023 194.119C374.058 197.253 370.098 200.205 366.143 202.975C358.659 208.249 350.835 213.024 342.722 217.268C327.372 225.227 312.705 229.948 299.628 230.995C293.09 231.511 286.948 231.106 281.319 229.713C278.55 229.037 275.855 228.088 273.272 226.882L273.279 222.539Z" fill="#AFB0F7"/>
<path d="M273.281 220.841V89.3539H272.939C273.53 88.1797 274.13 87.0047 274.74 85.8289C275.962 83.4742 277.225 81.115 278.528 78.7511C281.141 74.0234 283.907 69.2842 286.828 64.5334C292.693 55.0441 299.203 45.5503 306.332 36.1763C313.46 26.8023 320.868 17.9932 328.446 9.80652C329.392 8.7829 330.342 7.76927 331.295 6.76562V6.91779H381.66V189.215H382.338C381.846 189.619 381.357 190.019 380.869 190.416C379.89 191.213 378.911 191.999 377.932 192.772C374.017 195.866 370.107 198.781 366.2 201.517C358.808 206.73 351.081 211.449 343.067 215.642C327.908 223.504 313.421 228.177 300.506 229.2C294.051 229.71 287.983 229.309 282.422 227.935C279.688 227.265 277.026 226.329 274.475 225.138C273.845 224.843 273.225 224.536 272.617 224.216H273.281V220.841Z" fill="#B0B0F7"/>
<path d="M273.281 219.143V92.7718H272.448C281.44 74.282 293.066 55.3035 307.145 36.7907C314.184 27.5343 321.501 18.8359 328.985 10.7506C329.921 9.73777 330.859 8.73874 331.8 7.75354L333.211 6.27344V6.92819H381.66V187.913H382.188C381.707 188.313 381.223 188.709 380.738 189.101C379.771 189.888 378.804 190.663 377.837 191.427C373.975 194.482 370.114 197.361 366.255 200.063C358.956 205.21 351.325 209.869 343.412 214.011C328.443 221.773 314.133 226.389 301.382 227.399C295.005 227.904 289.015 227.507 283.524 226.149C280.826 225.487 278.201 224.56 275.685 223.383C274.447 222.801 273.239 222.155 272.068 221.448H273.29L273.281 219.143Z" fill="#B1B1F6"/>
<path d="M273.281 217.451V96.0918H272.054C272.589 94.9544 273.133 93.8155 273.686 92.6751C282.56 74.4251 294.048 55.6795 307.952 37.3949C314.901 28.2561 322.126 19.666 329.515 11.6845C331.36 9.68643 333.216 7.7291 335.085 5.8125V6.91451H381.655V186.613H382.041C381.563 187.005 381.086 187.397 380.609 187.784C379.654 188.56 378.7 189.329 377.745 190.09C373.928 193.107 370.114 195.95 366.306 198.62C359.1 203.698 351.567 208.294 343.756 212.379C328.976 220.045 314.853 224.598 302.258 225.598C295.962 226.096 290.039 225.702 284.628 224.363C281.962 223.712 279.366 222.799 276.88 221.638C275.656 221.063 274.464 220.426 273.306 219.729C273.019 219.553 272.732 219.374 272.446 219.192H273.281V217.451Z" fill="#B2B1F6"/>
<path d="M273.279 215.752V99.3123H271.755C272.77 97.076 273.824 94.8321 274.918 92.5804C283.679 74.5633 295.02 56.0574 308.742 38.0149C315.603 28.9937 322.736 20.5142 330.028 12.6342C331.852 10.6622 333.686 8.72948 335.529 6.83594V6.92355H381.659V185.313H381.889C381.428 185.7 380.949 186.087 380.476 186.465C379.535 187.234 378.593 187.989 377.65 188.732C373.881 191.71 370.115 194.516 366.353 197.149C359.239 202.168 351.802 206.712 344.089 210.751C329.498 218.318 315.554 222.818 303.121 223.8C296.896 224.291 291.068 223.904 285.717 222.583C283.085 221.939 280.523 221.037 278.068 219.89C276.86 219.325 275.684 218.696 274.543 218.006C273.971 217.661 273.409 217.3 272.857 216.925H273.268L273.279 215.752Z" fill="#B3B2F5"/>
<path d="M273.281 214.054V99.125H273.05C274.051 96.9209 275.092 94.7069 276.174 92.4829C284.819 74.701 296.012 56.4349 309.557 38.6252C316.328 29.7216 323.367 21.3528 330.567 13.5742C332.366 11.6284 334.175 9.72098 335.994 7.85202C336.455 7.39093 336.916 6.92984 337.358 6.46875V6.92984H381.66V182.859H383.145C381.287 184.404 379.431 185.914 377.577 187.389C373.856 190.33 370.14 193.096 366.43 195.689C359.408 200.64 352.067 205.122 344.455 209.107C315.653 224.044 289.405 226.87 272.541 214.045L273.281 214.054Z" fill="#B5B3F5"/>
<path d="M273.832 212.355C273.313 211.958 272.804 211.55 272.308 211.131H273.29V102.196H272.894C273.366 101.108 273.846 100.026 274.335 98.9497C275.324 96.7734 276.352 94.5878 277.417 92.393C285.947 74.8462 296.995 56.8198 310.36 39.2454C317.045 30.4593 323.989 22.1988 331.095 14.524C332.87 12.6058 334.655 10.7238 336.45 8.8779C337.347 7.95572 338.246 7.04199 339.148 6.13672V6.9321H381.66V181.563H382.981C381.146 183.1 379.311 184.593 377.476 186.041C373.806 188.941 370.139 191.674 366.477 194.239C359.547 199.126 352.302 203.55 344.789 207.481C316.365 222.222 290.466 225.012 273.832 212.355Z" fill="#B6B3F5"/>
<path d="M275.112 210.658C274.09 209.881 273.11 209.049 272.177 208.166H273.279V105.174H272.818C274.61 100.919 276.559 96.6243 278.665 92.2916C287.082 74.9776 297.982 57.1933 311.172 39.8517C317.765 31.1809 324.619 23.0334 331.628 15.46C333.38 13.5664 335.142 11.709 336.914 9.88771C337.797 8.97936 338.683 8.0787 339.575 7.18572C340.02 6.74076 340.465 6.29581 340.91 5.85547V6.92751H381.659V180.277H382.811C381.001 181.789 379.19 183.262 377.38 184.694C373.76 187.558 370.144 190.253 366.53 192.782C359.694 197.603 352.546 201.968 345.133 205.847C317.088 220.394 291.532 223.145 275.112 210.658Z" fill="#B7B4F4"/>
<path d="M276.403 208.96C275.395 208.194 274.428 207.375 273.508 206.505C273.047 206.071 272.599 205.624 272.164 205.167H273.279V108.036H272.837C273.261 106.993 273.694 105.946 274.135 104.896C275.901 100.699 277.822 96.4629 279.898 92.1886C288.198 75.1075 298.955 57.563 311.963 40.4565C318.469 31.9033 325.228 23.8572 332.145 16.3945C335.603 12.6596 339.094 9.06852 342.618 5.62109V6.92137H381.659V178.991H382.648C380.863 180.484 379.077 181.936 377.29 183.349C373.717 186.174 370.148 188.834 366.583 191.33C359.838 196.086 352.787 200.391 345.475 204.218C317.812 218.564 292.601 221.28 276.403 208.96Z" fill="#B8B4F4"/>
<path d="M277.696 207.265C275.706 205.753 273.884 204.033 272.259 202.135H273.281V110.802H272.958C273.754 108.755 274.587 106.696 275.457 104.626C277.2 100.485 279.096 96.307 281.144 92.0911C289.333 75.2452 299.939 57.9427 312.771 41.0691C319.187 32.6335 325.854 24.7004 332.674 17.3368C336.086 13.6481 339.53 10.1061 343.007 6.71094V6.92304H381.66V177.706H382.485C380.727 179.177 378.966 180.61 377.201 182.004C373.679 184.789 370.159 187.412 366.642 189.875C359.991 194.566 353.036 198.813 345.824 202.587C318.537 216.738 293.67 219.414 277.696 207.265Z" fill="#B9B5F3"/>
<path d="M278.984 205.565C277.024 204.073 275.228 202.378 273.626 200.507C273.223 200.046 272.833 199.562 272.455 199.071H273.28V116.471H272.082C275.058 108.128 278.498 99.9589 282.387 92.0008C290.456 75.39 300.92 58.325 313.573 41.6865C319.901 33.3685 326.483 25.5484 333.201 18.2839C336.564 14.6505 339.96 11.1577 343.389 7.80559C344.247 6.96948 345.105 6.14105 345.962 5.32031V6.93413H381.66V176.413H382.321C380.585 177.862 378.848 179.275 377.111 180.65C373.634 183.395 370.163 185.983 366.697 188.413C360.142 193.038 353.287 197.226 346.179 200.947C319.26 214.914 294.74 217.547 278.984 205.565Z" fill="#BAB5F3"/>
<path d="M280.287 203.872C278.348 202.402 276.571 200.731 274.985 198.885C274.195 197.963 273.448 196.998 272.744 195.99H273.274V118.957H272.449C272.778 117.982 273.117 117.003 273.465 116.023C276.402 107.798 279.795 99.7442 283.63 91.8984C291.593 75.5297 301.903 58.6998 314.378 42.2919C320.603 34.0914 327.1 26.3843 333.73 19.2189C337.045 15.6363 340.394 12.1927 343.775 8.8882C344.619 8.06284 345.464 7.24595 346.311 6.4375V6.92395H381.66V175.134H382.156C380.445 176.565 378.733 177.958 377.02 179.312C373.594 182.022 370.172 184.572 366.753 186.964C360.286 191.525 353.525 195.654 346.514 199.323C319.985 213.073 295.81 215.685 280.287 203.872Z" fill="#BBB6F2"/>
<path d="M281.565 202.173C277.73 199.23 274.542 195.527 272.201 191.296H273.28V121.344H272.908C273.523 119.438 274.172 117.517 274.854 115.58C277.748 107.475 281.092 99.537 284.871 91.8043C292.722 75.6661 302.879 59.0669 315.181 42.9033C321.328 34.8181 327.718 27.2262 334.254 20.1577C337.523 16.6227 340.824 13.2283 344.156 9.97452C344.988 9.15993 345.822 8.35456 346.658 7.5584C347.075 7.15956 347.492 6.76533 347.909 6.37109V6.9221H381.659V173.837H381.991C380.3 175.248 378.61 176.62 376.919 177.955C373.538 180.624 370.165 183.139 366.8 185.498C360.426 189.994 353.761 194.064 346.849 197.68C320.705 211.25 296.885 213.816 281.565 202.173Z" fill="#BCB7F2"/>
<path d="M282.857 200.477C279.079 197.575 275.94 193.925 273.635 189.757C273.037 188.696 272.482 187.596 271.97 186.458H273.287V126.412H272.632C273.685 122.723 274.889 118.965 276.245 115.136C279.095 107.146 282.39 99.3226 286.114 91.7011C293.849 75.7934 303.866 59.4478 315.984 43.5171C322.042 35.5494 328.341 28.0705 334.782 21.1012C338.01 17.623 341.262 14.2778 344.539 11.0655C346.18 9.46091 347.827 7.8909 349.477 6.35547V6.92492H381.659V172.56H381.827C380.163 173.944 378.499 175.296 376.836 176.618C373.507 179.249 370.183 181.728 366.863 184.053C360.58 188.484 354.011 192.494 347.199 196.057C321.429 209.422 297.946 211.951 282.857 200.477Z" fill="#BDB7F1"/>
<path d="M284.149 198.778C280.424 195.919 277.328 192.323 275.056 188.214C273.853 186.064 272.84 183.813 272.027 181.487H273.281V131.228H272.629C273.073 129.439 273.555 127.635 274.074 125.815C275.113 122.172 276.3 118.468 277.634 114.702C280.443 106.831 283.689 99.1226 287.358 91.6133C294.98 75.9362 304.85 59.835 316.79 44.1348C322.758 36.2847 328.965 28.905 335.312 22.0486C338.484 18.6211 341.688 15.3251 344.925 12.1605C346.541 10.5789 348.162 9.03274 349.79 7.5219C350.196 7.1438 350.604 6.76801 351.009 6.39453V6.9317H381.672V171.274C380.035 172.643 378.396 173.976 376.754 175.271C373.476 177.863 370.201 180.304 366.929 182.596C360.741 186.961 354.272 190.913 347.563 194.425C322.154 207.594 299.015 210.086 284.149 198.778Z" fill="#BEB8F1"/>
<path d="M285.44 197.081C281.77 194.266 278.72 190.725 276.481 186.678C275.298 184.56 274.3 182.343 273.498 180.052C273.083 178.875 272.708 177.663 272.373 176.417H273.281V135.753H272.889C278.708 108.184 294.069 75.6661 317.592 44.7361C323.473 37.0036 329.58 29.7345 335.837 22.9795C338.963 19.5982 342.12 16.3513 345.308 13.239C346.902 11.6836 348.499 10.1604 350.101 8.66956C350.9 7.92413 351.702 7.18792 352.506 6.46094V6.92203H381.66V168.968H382.709L381.497 169.987C379.883 171.335 378.269 172.647 376.655 173.925C373.428 176.479 370.2 178.884 366.972 181.141C360.875 185.438 354.501 189.328 347.89 192.783C322.878 205.765 300.084 208.23 285.44 197.081Z" fill="#BFB8F0"/>
<path d="M286.741 195.384C279.53 189.899 275.007 181.588 273.003 171.255H273.291V154.335H271.867C272.159 147.826 273 141.353 274.38 134.986C280.111 107.834 295.239 75.8091 318.414 45.3471C329.996 30.115 342.494 16.7157 355.174 5.52734V6.91062H381.687V167.695H382.552C382.155 168.032 381.758 168.366 381.36 168.698C379.76 170.029 378.16 171.323 376.562 172.578C373.38 175.093 370.203 177.461 367.029 179.684C361.024 183.923 354.746 187.759 348.235 191.169C323.601 203.937 301.153 206.353 286.741 195.384Z" fill="#C0B9F0"/>
<path d="M288.02 193.686C280.921 188.287 276.467 180.103 274.493 169.926C272.52 159.75 273.03 147.596 275.851 134.224C281.493 107.481 296.388 75.9583 319.194 45.9644C330.599 30.9674 342.906 17.7733 355.39 6.75781V6.92842H381.66V166.424H382.352C381.96 166.756 381.568 167.084 381.178 167.411C379.612 168.721 378.046 169.994 376.48 171.231C373.348 173.707 370.219 176.04 367.094 178.228C361.181 182.398 354.999 186.171 348.588 189.525C324.321 202.106 302.221 204.487 288.02 193.686Z" fill="#C1BAEF"/>
<path d="M289.31 191.991C275.332 181.361 271.777 159.768 277.321 133.451C282.866 107.134 297.538 76.0961 319.993 46.5701C331.221 31.8152 343.331 18.8194 355.621 7.9768C356.39 7.299 357.158 6.62965 357.927 5.96875V6.92321H381.659V165.156H382.157C381.772 165.481 381.387 165.806 381.005 166.126C379.468 167.416 377.927 168.669 376.382 169.887C373.297 172.324 370.217 174.62 367.142 176.775C361.323 180.88 355.239 184.596 348.929 187.897C325.047 200.279 303.29 202.622 289.31 191.991Z" fill="#C2BAEF"/>
<path d="M290.6 190.294C276.844 179.832 273.346 158.58 278.81 132.683C284.274 106.786 298.706 76.2383 320.804 47.1803C331.854 32.656 343.773 19.8722 355.868 9.20028C356.624 8.53169 357.381 7.87233 358.139 7.2222C358.517 6.89636 358.896 6.5736 359.275 6.25391V6.92249H381.659V162.914H383.109C382.351 163.564 381.593 164.206 380.836 164.839C379.319 166.107 377.802 167.341 376.285 168.539C373.251 170.939 370.22 173.198 367.192 175.317C361.464 179.358 355.476 183.014 349.265 186.264C325.77 198.45 304.357 200.756 290.6 190.294Z" fill="#C3BBEE"/>
<path d="M291.893 188.595C278.357 178.301 274.915 157.393 280.287 131.917C285.659 106.442 299.86 76.3813 321.603 47.7936C332.473 33.4998 344.197 20.9259 356.102 10.4245C357.59 9.11349 359.079 7.83396 360.57 6.58594V6.92484H381.653V161.658H382.903C382.157 162.299 381.412 162.93 380.667 163.553C379.18 164.799 377.689 166.012 376.194 167.191C373.208 169.552 370.226 171.775 367.249 173.86C361.613 177.835 355.72 181.433 349.61 184.629C326.495 196.62 305.428 198.889 291.893 188.595Z" fill="#C4BBEE"/>
<path d="M293.184 186.897C279.87 176.774 276.486 156.209 281.774 131.146C287.063 106.084 301.036 76.5209 322.413 48.4013C333.105 34.338 344.642 21.9738 356.347 11.6454C357.81 10.3544 359.275 9.09558 360.743 7.86908C361.476 7.25429 362.21 6.64949 362.945 6.05469V6.92154H381.66V160.4H382.709C381.976 161.032 381.243 161.654 380.51 162.265C379.044 163.495 377.576 164.688 376.107 165.846C373.169 168.168 370.236 170.354 367.307 172.405C361.764 176.316 355.969 179.855 349.958 182.998C327.219 194.791 306.498 197.022 293.184 186.897Z" fill="#C5BCEE"/>
<path d="M294.475 185.202C281.382 175.247 278.053 155.026 283.254 130.38C288.455 105.735 302.189 76.6632 323.217 49.0138C333.732 35.1811 345.075 23.0268 356.584 12.8712C359.461 10.3337 362.345 7.92219 365.236 5.63672V6.92316H381.66V159.148H382.509C381.786 159.762 381.065 160.373 380.346 160.981C378.903 162.187 377.459 163.361 376.014 164.501C373.128 166.783 370.244 168.935 367.362 170.956C361.911 174.801 356.212 178.281 350.301 181.372C327.941 192.964 307.565 195.159 294.475 185.202Z" fill="#C6BDED"/>
<path d="M295.766 183.503C282.894 173.717 279.628 153.837 284.737 129.611C289.845 105.385 303.342 76.8185 324.019 49.6141C334.357 36.0119 345.508 24.0674 356.821 14.0848C359.649 11.5872 362.485 9.2164 365.328 6.97243C366.038 6.41143 366.748 5.85812 367.459 5.3125V6.91249H381.66V157.89H382.306C381.599 158.505 380.89 159.106 380.18 159.693C378.763 160.878 377.344 162.03 375.924 163.151C373.084 165.396 370.248 167.51 367.417 169.493C362.059 173.272 356.457 176.692 350.647 179.732C328.665 191.134 308.644 193.292 295.766 183.503Z" fill="#C8BDED"/>
<path d="M297.053 181.808C271.756 162.583 284.191 103.664 324.823 50.2354C334.98 36.8799 345.938 25.129 357.06 15.3193C359.837 12.8602 362.624 10.5301 365.419 8.32917C366.116 7.77894 366.813 7.23562 367.51 6.69922V6.92976H381.659V156.637H382.104C381.408 157.233 380.711 157.823 380.015 158.407C378.62 159.572 377.225 160.706 375.831 161.808C373.041 164.015 370.255 166.09 367.471 168.033C362.206 171.747 356.7 175.109 350.989 178.096C329.392 189.307 309.701 191.426 297.053 181.808Z" fill="#C9BEEC"/>
<path d="M298.345 180.103C273.495 161.198 285.709 103.332 325.628 50.8387C335.606 37.716 346.377 26.1703 357.298 16.5335C360.028 14.1251 362.765 11.8366 365.51 9.66789C366.883 8.59201 368.253 7.53995 369.621 6.51172V6.91517H381.66V155.38H381.904C381.219 155.967 380.534 156.547 379.85 157.12C378.488 158.264 377.116 159.377 375.732 160.461C372.99 162.628 370.253 164.669 367.52 166.584C362.347 170.233 356.937 173.536 351.327 176.47C330.112 187.481 310.772 189.556 298.345 180.103Z" fill="#CABEEC"/>
<path d="M299.636 178.412C275.228 159.849 287.224 103.01 326.43 51.4577C336.233 38.5702 346.806 27.232 357.535 17.7658C360.219 15.4004 362.908 13.1526 365.604 11.0223C366.951 9.95722 368.296 8.92361 369.641 7.92151C370.314 7.42046 370.987 6.92709 371.658 6.44141V6.92325H381.662V154.122H381.703C381.033 154.701 380.362 155.272 379.688 155.833C378.34 156.95 376.994 158.047 375.649 159.122C372.956 161.251 370.267 163.256 367.58 165.137C362.497 168.721 357.183 171.964 351.672 174.848C330.836 185.647 311.841 187.692 299.636 178.412Z" fill="#CBBFEB"/>
<path d="M300.928 176.714C276.963 158.487 288.741 102.681 327.235 52.0674C336.858 39.4128 347.24 28.2821 357.774 18.9865C362.816 14.5193 368.105 10.3376 373.614 6.46094V6.92203H381.66V152.011H382.49L381.497 152.867C380.837 153.434 380.177 153.993 379.516 154.545C378.198 155.647 376.877 156.723 375.553 157.773C372.911 159.864 370.271 161.832 367.634 163.677C362.645 167.196 357.429 170.381 352.019 173.212C331.558 183.817 312.909 185.825 300.928 176.714Z" fill="#CCBFEB"/>
<path d="M302.219 175.016C278.703 157.13 290.258 102.358 328.04 52.6796C337.492 40.2601 347.675 29.3346 358.011 20.2119C362.959 15.8267 368.149 11.722 373.557 7.91689C374.202 7.46502 374.848 7.02007 375.493 6.58203V6.92093H381.658V149.924H383.237C372.897 159.044 362.41 166.364 352.367 171.574C332.282 181.99 313.979 183.961 302.219 175.016Z" fill="#CDC0EA"/>
<path d="M303.51 173.322C280.432 155.773 291.773 102.032 328.842 53.3043C338.108 41.1177 348.106 30.3996 358.25 21.4475C363.106 17.1469 368.198 13.1206 373.503 9.38769C374.771 8.49932 376.037 7.64093 377.3 6.8125V6.93469H381.66V148.72H383.002C372.858 157.67 362.566 164.858 352.713 169.963C333.006 180.164 315.046 182.096 303.51 173.322Z" fill="#CEC1EA"/>
<path d="M304.798 171.624C282.165 154.411 293.289 101.718 329.644 53.9029C338.734 41.9514 348.549 31.4385 358.488 22.6593C363.25 18.4411 368.245 14.4919 373.448 10.8301C375.934 9.08867 378.41 7.46563 380.873 5.96094V6.92232H381.66V147.477H382.764C372.814 156.256 362.72 163.299 353.056 168.311C333.729 178.333 316.116 180.23 304.798 171.624Z" fill="#CFC1E9"/>
<path d="M306.09 169.926C283.902 153.05 294.812 101.378 330.449 54.5122C339.36 42.7959 348.971 32.4882 358.726 23.882C363.395 19.7463 368.292 15.8748 373.393 12.2855C375.832 10.578 378.259 8.98644 380.674 7.51095C381.278 7.14207 381.879 6.78165 382.479 6.42969L381.66 6.92075V146.251H382.525C372.773 154.857 362.878 161.762 353.402 166.677C334.465 176.503 317.186 178.364 306.09 169.926Z" fill="#D0C2E9"/>
<path d="M307.379 168.231C285.634 151.694 296.313 101.054 331.25 55.1251C339.983 43.6416 349.403 33.5414 358.962 25.1081C363.538 21.0554 368.337 17.2609 373.336 13.7422C375.726 12.0684 378.105 10.5092 380.472 9.06442C381.062 8.70169 381.652 8.34819 382.242 8.00391H381.659V145.029H382.286C372.728 153.464 363.031 160.231 353.744 165.047C335.174 174.677 318.252 176.498 307.379 168.231Z" fill="#D1C2E8"/>
<path d="M308.67 166.532C287.368 150.331 297.835 100.725 332.055 55.734C340.608 44.4857 349.837 34.5907 359.201 26.3303C363.683 22.359 368.384 18.6414 373.281 15.1949C375.622 13.5488 377.952 12.0218 380.271 10.614C380.849 10.2589 381.427 9.91235 382.005 9.57422H381.659V143.805H382.048C372.684 152.065 363.185 158.696 354.09 163.413C335.898 172.846 319.322 174.631 308.67 166.532Z" fill="#D2C3E8"/>
<path d="M309.961 164.834C289.104 148.979 299.354 100.401 332.85 56.346C341.225 45.3328 350.263 35.643 359.432 27.5532C363.823 23.6633 368.428 20.0219 373.225 16.6461C375.517 15.0384 377.798 13.5421 380.07 12.1573C380.637 11.8115 381.203 11.4726 381.767 11.1406H381.659V142.575H381.811C372.642 150.664 363.339 157.154 354.433 161.774C336.621 171.019 320.4 172.767 309.961 164.834Z" fill="#D3C3E8"/>
<path d="M311.253 163.139C290.839 147.614 300.879 100.075 333.662 56.9587C341.861 46.1807 350.704 36.7053 359.677 28.7792C363.973 24.9742 368.478 21.4121 373.171 18.1095C375.415 16.5387 377.647 15.0748 379.868 13.7176C380.979 13.0398 382.085 12.3905 383.186 11.7695H381.66V139.856H383.255C382.695 140.363 382.135 140.864 381.572 141.359C372.599 149.276 363.495 155.63 354.78 160.151C337.346 169.191 321.46 170.901 311.253 163.139Z" fill="#D4C4E7"/>
<path d="M312.544 161.439C292.572 146.25 302.4 99.747 334.464 57.5665C342.485 47.0213 351.137 37.7396 359.914 30.0001C364.117 26.2777 368.524 22.7933 373.115 19.5634C375.31 18.0264 377.494 16.5939 379.667 15.266C380.753 14.6036 381.834 13.968 382.911 13.3594H381.659V138.663H382.978C382.432 139.158 381.885 139.648 381.334 140.132C372.555 147.878 363.651 154.094 355.124 158.515C338.07 167.359 322.529 169.035 312.544 161.439Z" fill="#D5C5E7"/>
<path d="M313.833 159.743C294.308 144.893 303.903 99.4204 335.273 58.1781C343.112 47.8681 351.573 38.7984 360.158 31.225C364.268 27.5844 368.578 24.177 373.069 21.0188C375.221 19.5156 377.356 18.1154 379.476 16.8182C380.538 16.1696 381.595 15.5479 382.648 14.9531H381.668V137.472H382.713C382.178 137.956 381.64 138.435 381.099 138.908C372.516 146.482 363.808 152.559 355.469 156.891C338.792 165.532 323.596 167.168 313.833 159.743Z" fill="#D6C5E6"/>
<path d="M315.124 158.046C296.042 143.534 305.416 99.096 336.078 58.7897C343.739 48.7149 352.007 39.8504 360.396 32.4499C364.411 28.8924 368.622 25.562 373.009 22.4742C375.107 21.0064 377.194 19.6385 379.271 18.3705C380.308 17.7373 381.341 17.1294 382.369 16.5469H381.664V136.281H382.434C381.911 136.756 381.388 137.224 380.864 137.687C372.474 145.087 363.965 151.026 355.817 155.252C339.516 163.704 324.666 165.302 315.124 158.046Z" fill="#D7C6E6"/>
<path d="M316.415 156.358C297.775 142.182 306.937 98.7771 336.876 59.4092C344.362 49.5672 352.435 40.9102 360.622 33.6803C364.544 30.2067 368.658 26.9548 372.942 23.9397C374.99 22.5027 377.029 21.1655 379.059 19.9283C380.072 19.3135 381.081 18.7202 382.086 18.1484H381.652V135.093H382.148C381.638 135.554 381.127 136.015 380.615 136.476C372.421 143.706 364.108 149.506 356.15 153.633C340.24 161.875 325.734 163.438 316.415 156.358Z" fill="#D8C6E5"/>
<path d="M317.706 154.65C299.511 140.817 308.454 98.4426 337.68 60.0107C344.986 50.4038 352.869 41.952 360.866 34.895C364.696 31.504 368.711 28.329 372.894 25.385C374.892 23.9849 376.882 22.6784 378.865 21.4658C379.85 20.8648 380.835 20.2877 381.821 19.7344H381.659V133.898H381.89C381.392 134.35 380.892 134.797 380.391 135.238C372.394 142.295 364.281 147.957 356.511 151.987C340.963 160.044 326.803 161.571 317.706 154.65Z" fill="#D9C7E5"/>
<path d="M318.997 152.954C301.245 139.455 309.969 98.116 338.482 60.6224C345.611 51.2507 353.302 43.0041 361.106 36.12C364.84 32.811 368.757 29.7137 372.838 26.8429C374.789 25.4765 376.73 24.2031 378.662 23.0227C379.627 22.4325 380.588 21.8677 381.546 21.3282C382.026 21.0577 382.503 20.7934 382.978 20.5352H381.659V131.37H383.065C382.092 132.274 381.119 133.155 380.144 134.014C372.34 140.91 364.435 146.424 356.845 150.362C341.687 158.217 327.873 159.704 318.997 152.954Z" fill="#DAC7E4"/>
<path d="M320.289 151.256C302.979 138.094 311.486 97.7973 339.288 61.2328C345.839 52.5655 353.226 44.5639 361.344 37.3437C364.986 34.1176 368.805 31.0974 372.784 28.2971C374.687 26.9645 376.579 25.7234 378.462 24.5738C379.403 23.999 380.34 23.4479 381.275 22.9208C381.736 22.6579 382.201 22.4005 382.67 22.1484H381.66V130.212H382.755C381.808 131.093 380.859 131.953 379.908 132.792C372.3 139.503 364.581 144.891 357.192 148.722C342.41 156.388 328.932 157.838 320.289 151.256Z" fill="#DBC8E4"/>
<path d="M321.58 149.561C304.715 136.736 313.004 97.4579 340.09 61.8478C346.474 53.4008 353.672 45.6016 361.582 38.5627C365.134 35.422 368.857 32.4811 372.736 29.7536C374.589 28.4564 376.433 27.2476 378.269 26.1271C379.191 25.5677 380.104 25.0297 381.007 24.5133C381.469 24.2574 381.916 24.0061 382.37 23.7617H381.678V129.056H382.462C381.54 129.914 380.618 130.752 379.696 131.569C372.281 138.11 364.761 143.357 357.563 147.092C343.133 154.562 330.011 155.973 321.58 149.561Z" fill="#DCC9E3"/>
<path d="M322.868 147.864C306.449 135.375 314.52 97.1438 340.895 62.4582C347.11 54.2351 354.118 46.6429 361.819 39.791C365.274 36.7307 368.898 33.8659 372.673 31.2101C374.477 29.9436 376.273 28.7656 378.061 27.6758C378.952 27.1318 379.841 26.6092 380.728 26.1081C381.171 25.8592 381.611 25.6148 382.054 25.375H381.66V127.899H382.121C381.229 128.735 380.329 129.55 379.421 130.345C372.214 136.712 364.897 141.833 357.879 145.459C343.857 152.731 331.08 154.107 322.868 147.864Z" fill="#DDC9E3"/>
<path d="M324.159 146.167C308.182 134.017 316.034 96.8117 341.696 63.0691C354.522 46.1954 369.383 33.384 383.026 26.3086H381.659V126.741H381.821C380.948 127.553 380.072 128.346 379.192 129.12C372.17 135.317 365.046 140.29 358.213 143.827C344.581 150.902 332.159 152.242 324.159 146.167Z" fill="#DECAE3"/>
<path d="M325.449 144.468C309.918 132.655 317.551 96.4849 342.51 63.6783C354.982 47.2749 369.417 34.8186 382.68 27.9414H381.659V124.383H382.781C382.357 124.787 381.933 125.187 381.509 125.582C380.66 126.37 379.809 127.139 378.954 127.887C372.126 133.914 365.2 138.746 358.567 142.181C345.299 149.072 333.217 150.373 325.449 144.468Z" fill="#DFCAE2"/>
<path d="M326.742 142.772C311.653 131.298 319.069 96.1603 343.304 64.2921C355.424 48.3568 369.453 36.2577 382.338 29.5742H381.66V123.261H382.437C382.024 123.654 381.611 124.039 381.199 124.414C380.374 125.182 379.547 125.932 378.718 126.664C372.086 132.515 365.347 137.211 358.915 140.552C346.027 147.247 334.285 148.52 326.742 142.772Z" fill="#E0CBE2"/>
<path d="M328.032 141.072C313.385 129.934 320.585 95.8319 344.108 64.8996C355.866 49.4347 369.486 37.6953 381.993 31.2031H381.659V122.135H382.088C381.689 122.515 381.288 122.893 380.887 123.265C380.086 124.01 379.283 124.738 378.478 125.448C372.041 131.128 365.509 135.686 359.257 138.928C346.75 145.413 335.354 146.642 328.032 141.072Z" fill="#E1CBE1"/>
<path d="M329.323 139.378C315.122 128.579 322.1 95.5074 344.913 65.5227C356.318 50.5372 369.521 39.1368 381.648 32.8475C382.029 32.6508 382.407 32.4594 382.782 32.2734H381.66V119.904H382.9C381.363 121.413 379.81 122.857 378.241 124.236C372 129.743 365.667 134.163 359.601 137.308C347.474 143.588 336.424 144.777 329.323 139.378Z" fill="#E2CCE1"/>
<path d="M330.611 137.683C316.855 127.218 323.628 95.1815 345.714 66.1236C356.764 51.5992 369.555 40.563 381.304 34.4697C381.671 34.2791 382.037 34.0939 382.401 33.9141H381.659V118.806H382.516C381.021 120.269 379.516 121.667 378.002 123.001C371.955 128.339 365.818 132.611 359.946 135.665C348.197 141.759 337.491 142.911 330.611 137.683Z" fill="#E3CCE0"/>
<path d="M331.903 135.985C318.592 125.86 325.134 94.8559 346.52 66.7362C357.212 52.673 369.59 41.9987 380.959 36.1037C381.672 35.7348 382.379 35.3851 383.08 35.0547H381.66V117.719H382.121C380.676 119.135 379.22 120.489 377.754 121.781C371.901 126.943 365.964 131.086 360.279 134.035C348.922 139.932 338.561 141.048 331.903 135.985Z" fill="#E4CDE0"/>
<path d="M333.194 134.286C320.325 124.497 326.648 94.528 347.321 67.3444C357.657 53.7422 369.624 43.4322 380.615 37.7331C381.302 37.375 381.985 37.0369 382.664 36.7188H381.659V116.628H381.749C380.349 117.996 378.942 119.302 377.528 120.547C371.87 125.539 366.129 129.539 360.635 132.393C349.643 138.101 339.628 139.178 333.194 134.286Z" fill="#E5CEDF"/>
<path d="M334.486 132.589C322.059 123.137 328.166 94.2034 348.127 67.9581C358.105 54.8354 369.66 44.8713 380.272 39.3704C380.933 39.0262 381.591 38.6996 382.248 38.3906H381.66V114.54H382.377C382.04 114.879 381.704 115.211 381.367 115.543C380.016 116.864 378.657 118.128 377.289 119.333C371.827 124.151 366.28 128.02 360.978 130.768C350.373 136.273 340.69 137.315 334.486 132.589Z" fill="#E6CEDF"/>
<path d="M335.776 130.892C323.788 121.781 329.683 93.8778 348.917 68.5685C358.54 55.9162 369.683 46.3071 379.914 40.9999C380.555 40.6679 381.191 40.3529 381.821 40.0547H381.648V112.501H382.916C382.27 113.165 381.622 113.816 380.97 114.454C379.668 115.727 378.362 116.945 377.051 118.108C371.783 122.756 366.446 126.484 361.325 129.137C351.092 134.456 341.768 135.45 335.776 130.892Z" fill="#E7CFDF"/>
<path d="M337.067 129.193C325.54 120.418 331.2 93.5483 349.734 69.1773C358.999 56.9907 369.738 47.7389 379.582 42.63C380.812 41.9922 382.028 41.4189 383.232 40.9102H381.66V111.482H382.473C381.851 112.123 381.226 112.75 380.599 113.364C379.345 114.593 378.083 115.766 376.813 116.882C371.741 121.359 366.596 124.951 361.669 127.503C351.815 132.61 342.836 133.58 337.067 129.193Z" fill="#E8CFDE"/>
<path d="M338.359 127.496C327.263 119.058 332.716 93.2233 350.537 69.7884C359.447 58.0721 369.764 49.1753 379.237 44.2624C380.422 43.6476 381.592 43.0966 382.746 42.6094H381.66V110.477H382.018C381.421 111.092 380.821 111.695 380.217 112.285C379.009 113.462 377.796 114.59 376.577 115.669C371.699 119.971 366.751 123.425 362.013 125.88C352.54 130.786 343.918 131.715 338.359 127.496Z" fill="#E9D0DE"/>
<path d="M339.648 125.798C328.999 117.697 334.235 92.8944 351.341 70.3978C359.895 59.1518 369.799 50.6101 378.894 45.8931C380.03 45.3029 381.153 44.7735 382.262 44.3047H381.66V108.555H382.419C382.133 108.855 381.847 109.155 381.559 109.45C380.984 110.04 380.408 110.619 379.83 111.186C378.673 112.317 377.508 113.4 376.335 114.434C371.655 118.566 366.903 121.879 362.357 124.237C353.264 128.954 344.974 129.842 339.648 125.798Z" fill="#EAD0DD"/>
<path d="M340.939 124.105C330.733 116.343 335.749 92.5734 352.143 71.0151C360.342 60.2348 369.833 52.0504 378.548 47.5294C379.639 46.9638 380.715 46.4566 381.775 46.0078H381.658V106.706H382.746C380.64 108.985 378.421 111.158 376.097 113.214C371.611 117.173 367.06 120.349 362.7 122.609C353.985 127.13 346.043 127.985 340.939 124.105Z" fill="#EBD1DD"/>
<path d="M342.229 122.405C332.465 114.979 337.265 92.2424 352.947 71.6224C360.786 61.3101 369.867 53.4808 378.203 49.158C379.245 48.617 380.274 48.1321 381.29 47.7033C381.8 47.4889 382.302 47.2883 382.803 47.1016H381.65V105.762H382.212C380.199 107.943 378.076 110.02 375.852 111.986C371.559 115.774 367.206 118.813 363.038 120.978C354.708 125.298 347.112 126.116 342.229 122.405Z" fill="#ECD1DC"/>
<path d="M343.521 120.708C334.202 113.621 338.781 91.9196 353.75 72.2356C361.236 62.3936 369.9 54.9193 377.86 50.7949C378.853 50.2784 379.835 49.8174 380.807 49.4116C381.291 49.2064 381.773 49.0174 382.25 48.8398H381.66V104.823H381.694C379.772 106.905 377.746 108.888 375.624 110.767C371.527 114.379 367.37 117.28 363.391 119.343C355.444 123.472 348.18 124.251 343.521 120.708Z" fill="#EDD2DC"/>
<path d="M344.811 119.01C335.935 112.259 340.297 91.591 354.553 72.8454C361.682 63.4714 369.933 56.3545 377.513 52.4237C379.289 51.4907 381.14 50.7087 383.047 50.0859H381.663V102.321H382.585C382.124 102.851 381.653 103.372 381.172 103.884C379.342 105.867 377.412 107.756 375.39 109.544C371.489 112.986 367.531 115.748 363.741 117.714C356.156 121.645 349.249 122.387 344.811 119.01Z" fill="#EED2DC"/>
<path d="M346.103 117.313C337.669 110.902 341.814 91.2615 355.359 73.4565C362.13 64.5505 369.969 57.7794 377.171 54.0561C378.855 53.1703 380.61 52.4276 382.418 51.8359H381.653V101.454H381.975C381.53 101.958 381.083 102.454 380.634 102.941C378.894 104.824 377.06 106.618 375.14 108.317C371.435 111.586 367.675 114.212 364.074 116.08C356.881 119.812 350.317 120.52 346.103 117.313Z" fill="#EFD3DB"/>
<path d="M347.394 115.616C339.406 109.542 343.332 90.9481 356.155 74.0676C362.571 65.6319 369.987 59.2251 376.819 55.6885C378.415 54.8485 380.08 54.1451 381.796 53.5859H381.653V99.1325H382.649C381.819 100.124 380.974 101.08 380.113 102C378.466 103.785 376.729 105.485 374.91 107.093C371.398 110.192 367.836 112.677 364.424 114.448C357.603 117.984 351.387 118.653 347.394 115.616Z" fill="#F0D4DB"/>
<path d="M348.683 113.921C341.151 108.174 344.84 90.6156 356.967 74.6803C363.025 66.7126 370.038 60.6631 376.482 57.3225C377.99 56.5288 379.563 55.864 381.183 55.3352C381.561 55.2153 381.937 55.1046 382.308 55.0078H381.66V98.3504H381.972C381.188 99.2848 380.393 100.187 379.588 101.057C378.031 102.742 376.39 104.348 374.672 105.868C371.355 108.796 367.987 111.143 364.771 112.815C358.327 116.158 352.448 116.789 348.683 113.921Z" fill="#F1D4DA"/>
<path d="M349.973 112.224C342.872 106.822 346.362 90.2877 357.768 75.2907C363.471 67.7911 370.072 62.0989 376.137 58.9543C377.561 58.2073 379.044 57.5818 380.573 57.0846C381.254 56.8636 381.947 56.6789 382.648 56.5312H381.652V96.2312H382.394C382.033 96.6923 381.667 97.1395 381.297 97.573C380.559 98.4521 379.811 99.3013 379.051 100.12C377.534 101.757 375.985 103.27 374.427 104.648C371.305 107.401 368.137 109.612 365.106 111.184C359.049 114.329 353.523 114.924 349.973 112.224Z" fill="#F2D5DA"/>
<path d="M351.264 110.525C344.608 105.464 347.879 89.9602 358.572 75.8969C363.918 68.8676 370.099 63.5281 375.791 60.5818C377.123 59.8818 378.511 59.2956 379.941 58.8296C380.587 58.6221 381.242 58.4482 381.906 58.3086H381.661V94.2345H382.68C371.985 108.295 357.92 115.588 351.264 110.525Z" fill="#F3D5D9"/>
<path d="M352.556 108.829C346.331 104.105 349.395 89.6364 359.375 76.5138C364.366 69.9525 370.142 64.9704 375.449 62.22C378.1 60.8367 380.636 60.0275 382.895 59.8477H381.66V93.6249H381.874C371.896 106.748 358.769 113.556 352.556 108.829Z" fill="#F4D6D9"/>
<path d="M353.847 107.133C348.084 102.752 350.912 89.3116 360.18 77.125C364.814 71.0339 370.177 66.4069 375.104 63.8501C377.568 62.5729 379.922 61.8144 382.02 61.6484H381.66V90.7179H382.735C382.204 91.4856 381.651 92.2533 381.072 93.0234C371.814 105.198 359.616 111.52 353.847 107.133Z" fill="#F5D6D9"/>
<path d="M355.138 105.436C349.812 101.385 352.429 88.9838 360.977 77.7424C365.256 72.1194 370.199 67.8474 374.755 65.489C377.028 64.3109 379.202 63.61 381.139 63.4555C381.607 63.4211 382.077 63.4211 382.545 63.4555H381.655V88.1493H383.188C382.31 89.5717 381.332 90.9965 380.262 92.4028C371.714 103.651 360.463 109.486 355.138 105.436Z" fill="#F5D7D8"/>
<path d="M356.426 103.739C351.545 100.025 353.945 88.6588 361.786 78.3465C365.705 73.1915 370.245 69.2769 374.413 67.1143C376.499 66.0354 378.491 65.3922 380.267 65.2515C381.099 65.1747 381.938 65.2331 382.752 65.4245H381.659V87.8865H382.146C381.339 89.1914 380.444 90.4963 379.464 91.785C371.623 102.102 361.309 107.451 356.426 103.739Z" fill="#F6D7D8"/>
<path d="M357.717 102.042C353.279 98.6669 355.46 88.3316 362.588 78.9576C366.152 74.2729 370.279 70.7133 374.069 68.7467C375.964 67.7646 377.774 67.1813 379.39 67.0522C380.147 66.9838 380.91 67.0375 381.65 67.2113C381.992 67.2947 382.324 67.4121 382.643 67.5617H381.659V84.0941H383.042C381.812 86.5943 380.341 88.968 378.648 91.1811C371.531 100.553 362.155 105.408 357.717 102.042Z" fill="#F7D8D7"/>
<path d="M359.008 100.332C355.015 97.2961 356.977 87.9959 363.388 79.5602C369.8 71.1246 378.242 66.7465 382.235 69.7851H381.654V84.1942H381.804C380.699 86.4448 379.375 88.5814 377.853 90.5734C371.441 99.0021 363.003 103.378 359.008 100.332Z" fill="#F8D8D7"/>
<path d="M360.3 98.6434C356.749 95.9437 358.494 87.6763 364.196 80.179C369.897 72.6817 377.401 68.79 380.952 71.4897C382.727 72.8384 383.177 75.5819 382.471 78.9225C381.766 82.2631 379.905 86.2054 377.053 89.9587C371.352 97.4538 363.85 101.343 360.3 98.6434Z" fill="#F9D9D7"/>
<path d="M376.246 89.3337C381.236 82.7721 382.762 75.538 379.656 73.1758C376.549 70.8136 369.986 74.2179 364.997 80.7794C360.007 87.341 358.481 94.5751 361.587 96.9373C364.694 99.2995 371.257 95.8952 376.246 89.3337Z" fill="#FAD9D6"/>
<path d="M376.935 88.5099C381.245 82.8576 382.569 76.6215 379.893 74.5811C377.218 72.5408 371.554 75.4688 367.245 81.1211C362.935 86.7734 361.61 93.0095 364.286 95.0499C366.962 97.0903 372.625 94.1622 376.935 88.5099Z" fill="#FBDAD6"/>
<path d="M374.637 88.1081C378.201 83.4215 379.291 78.2547 377.072 76.5676C374.854 74.8806 370.166 77.3121 366.603 81.9987C363.039 86.6852 361.948 91.852 364.167 93.5391C366.386 95.2261 371.073 92.7946 374.637 88.1081Z" fill="#FCDAD5"/>
<path d="M373.836 87.5C376.687 83.751 377.558 79.6172 375.783 78.2669C374.007 76.9166 370.256 78.8612 367.406 82.6102C364.555 86.3593 363.683 90.493 365.459 91.8433C367.235 93.1936 370.985 91.249 373.836 87.5Z" fill="#FDDBD5"/>
<path d="M373.033 86.8873C375.171 84.0748 375.825 80.9738 374.494 79.9611C373.162 78.9484 370.349 80.4074 368.21 83.22C366.071 86.0325 365.417 89.1335 366.749 90.1462C368.081 91.1589 370.894 89.6998 373.033 86.8873Z" fill="#FDDBD5"/>
<path d="M368.044 88.4615C367.156 87.7883 367.583 85.7203 369.019 83.8506C370.455 81.9809 372.32 81.0034 373.208 81.6789C374.095 82.3544 373.669 84.4201 372.233 86.2898C370.796 88.1595 368.931 89.137 368.044 88.4615Z" fill="#FEDCD4"/>
<path d="M369.335 86.7636C368.89 86.427 369.104 85.3942 369.821 84.4582C370.538 83.5222 371.472 83.0357 371.917 83.3723C372.362 83.7089 372.147 84.7556 371.428 85.6778C370.709 86.5999 369.777 87.1025 369.335 86.7636Z" fill="#FFDCD4"/>
</g>
<path d="M388.581 23.6992H386.603V25.8433H388.581V23.6992Z" fill="#353535"/>
<path d="M266.359 25.8438H268.337V23.6997H266.359V25.8438Z" fill="#353535"/>
<path d="M388.581 221.168H386.603V223.312H388.581V221.168Z" fill="#353535"/>
<path d="M266.359 223.309H268.337V221.165H266.359V223.309Z" fill="#353535"/>
<path d="M363.819 4.79688H291.132C281.191 4.79688 273.132 12.8557 273.132 22.7969V224.948C273.132 234.889 281.191 242.948 291.132 242.948H363.819C373.76 242.948 381.819 234.889 381.819 224.948V22.7969C381.819 12.8558 373.76 4.79688 363.819 4.79688Z" fill="url(#paint1_linear_216_1934)"/>
<path d="M315.409 144.005C318.372 145.027 319.915 148.247 318.854 151.196C317.793 154.144 314.531 155.705 311.567 154.683C311.179 154.55 310.793 154.41 310.412 154.266C301.049 150.714 294.033 143.887 290.202 135.594C286.372 127.301 285.722 117.533 289.088 108.1C289.225 107.717 289.369 107.332 289.52 106.951C293.352 97.23 300.797 89.8153 309.735 85.687C318.673 81.5583 329.145 80.697 339.031 84.0817C339.419 84.2141 339.805 84.3543 340.185 84.4981C349.549 88.0503 356.565 94.8777 360.395 103.171C364.226 111.464 364.876 121.232 361.51 130.664C361.373 131.048 361.229 131.432 361.078 131.813C359.935 134.733 356.632 136.204 353.699 135.1C350.767 133.996 349.315 130.735 350.458 127.815C350.569 127.53 350.677 127.244 350.779 126.961C353.099 120.458 352.645 113.711 349.995 107.975C347.345 102.237 342.502 97.5181 336.048 95.0697C335.766 94.9622 335.478 94.8586 335.189 94.7599C330.151 93.035 324.866 92.8943 319.915 94.0704L330.497 116.981C331.807 119.816 330.54 123.189 327.669 124.515C324.797 125.842 321.408 124.62 320.098 121.785L309.515 98.8739C305.41 101.881 302.091 105.996 300.138 110.95C300.026 111.236 299.919 111.522 299.817 111.805C297.496 118.308 297.951 125.054 300.6 130.791C303.251 136.528 308.092 141.248 314.548 143.696C314.83 143.803 315.117 143.906 315.407 144.006L315.409 144.005Z" fill="white"/>
<defs>
<radialGradient id="paint0_radial_216_1934" cx="0" cy="0" r="1" gradientUnits="userSpaceOnUse" gradientTransform="translate(281.482 410.093) scale(259.1)">
<stop stop-color="#E5C33F"/>
<stop offset="0.03" stop-color="#E6BC3D"/>
<stop offset="0.25" stop-color="#F39332"/>
<stop offset="0.42" stop-color="#FC7A2B"/>
<stop offset="0.53" stop-color="#FF7129"/>
<stop offset="0.99" stop-color="#C73A16"/>
</radialGradient>
<linearGradient id="paint1_linear_216_1934" x1="273.132" y1="4.79687" x2="400.324" y2="15.128" gradientUnits="userSpaceOnUse">
<stop stop-color="#0A30A3"/>
<stop offset="1" stop-color="#001447"/>
</linearGradient>
</defs>
</svg>
