<svg width="203" height="249" viewBox="0 0 203 249" fill="none" xmlns="http://www.w3.org/2000/svg">
<path d="M137.563 66.073L164.097 53.8171C166.346 52.7781 169 53.731 170.022 55.9449L176.667 70.3307L192.621 28.027L150.069 12.7479L156.714 27.1338C157.737 29.3476 156.742 31.9859 154.492 33.0249C154.371 33.0811 154.249 33.1303 154.126 33.1753L75.2179 69.6271C60.0376 76.9586 49.1253 89.6322 43.7593 104.255C38.4098 118.834 38.5906 135.362 45.5718 150.476C47.9527 155.63 50.9463 160.266 54.423 164.338C58.035 168.569 62.1823 172.229 66.7186 175.265C68.7454 176.627 69.2511 179.372 67.8502 181.394C67.3738 182.081 66.7387 182.596 66.0275 182.925L66.0334 182.938L39.5003 195.193C37.2509 196.232 34.5971 195.279 33.5745 193.066L26.9296 178.68L10.9754 220.983L53.5276 236.263L46.8826 221.877C45.86 219.663 46.855 217.025 49.1044 215.986C49.226 215.929 49.3474 215.88 49.4707 215.835L128.444 179.352C143.601 172.01 154.496 159.34 159.85 144.722C165.187 130.152 165.001 113.637 158.026 98.536C155.645 93.3816 152.651 88.7461 149.175 84.6751C145.563 80.4448 141.416 76.7847 136.88 73.7486C134.853 72.3865 134.347 69.6417 135.748 67.619C136.224 66.9325 136.859 66.417 137.571 66.0885L137.565 66.0758L137.563 66.073ZM163.726 63.7198L148.013 70.9776C150.876 73.3857 153.556 76.0385 156.02 78.9248C160.044 83.6379 163.479 88.9394 166.172 94.7698C174.148 112.037 174.351 130.948 168.231 147.652C162.108 164.368 149.631 178.866 132.259 187.28L56.8743 222.106L66.146 242.178C66.6202 243.205 66.696 244.414 66.2621 245.565C65.3943 247.866 62.8144 249.057 60.4999 248.226L3.64016 227.81C1.32564 226.979 0.152775 224.44 1.02056 222.139L22.3298 165.636C22.7286 164.559 23.5438 163.629 24.677 163.106C26.9264 162.067 29.5802 163.02 30.6028 165.234L39.8667 185.289L55.5793 178.031C52.7169 175.623 50.0366 172.97 47.5732 170.084C43.5488 165.371 40.1139 160.07 37.4208 154.239C29.4391 136.959 29.2416 118.035 35.3732 101.323C41.5102 84.5989 54.0053 70.0972 71.3988 61.6973L146.718 26.9031L137.447 6.83058C136.972 5.80392 136.897 4.59494 137.331 3.44443C138.198 1.14343 140.778 -0.0482475 143.093 0.782819L199.953 21.1993C202.267 22.0303 203.44 24.5695 202.572 26.8705L181.263 83.3734C180.864 84.4495 180.049 85.3797 178.916 85.9032C176.666 86.9422 174.012 85.9893 172.99 83.7755L163.725 63.7184L163.726 63.7198Z" fill="#5484FF"/>
</svg>
