<svg width="968" height="703" viewBox="0 0 968 703" fill="none" xmlns="http://www.w3.org/2000/svg">
<g clip-path="url(#clip0_268_5629)">
<rect width="968" height="703" fill="#001447"/>
<path d="M968 0H0V700H968V0Z" fill="url(#paint0_linear_268_5629)"/>
<path d="M1023.33 328.117C1026.16 330.939 1026.16 335.526 1023.33 338.368L691.368 670.333C688.545 673.155 683.959 673.155 681.117 670.333C678.294 667.51 678.294 662.924 681.117 660.082L1013.08 328.117C1015.9 325.294 1020.49 325.294 1023.33 328.117Z" fill="url(#paint1_linear_268_5629)" style="mix-blend-mode:overlay"/>
<path d="M662.052 222.969L684.76 245.789C704.509 227.15 735.616 227.53 754.884 246.893C774.153 266.257 774.372 297.365 755.644 317.022L778.352 339.842C809.682 307.652 809.498 256.159 777.696 224.193C745.895 192.234 694.404 191.797 662.052 222.969Z" fill="url(#paint2_radial_268_5629)" fill-opacity="0.2"/>
</g>
<defs>
<linearGradient id="paint0_linear_268_5629" x1="194.505" y1="-191.04" x2="761.231" y2="555.006" gradientUnits="userSpaceOnUse">
<stop stop-color="#0A30A3"/>
<stop offset="0.709375" stop-color="#001447"/>
</linearGradient>
<linearGradient id="paint1_linear_268_5629" x1="701.5" y1="672" x2="919.5" y2="459.5" gradientUnits="userSpaceOnUse">
<stop stop-color="#0A30A3" stop-opacity="0.31"/>
<stop offset="1" stop-color="white" stop-opacity="0"/>
</linearGradient>
<radialGradient id="paint2_radial_268_5629" cx="0" cy="0" r="1" gradientUnits="userSpaceOnUse" gradientTransform="translate(784.876 335.326) rotate(135.141) scale(554.088)">
<stop stop-color="#5BC7CE"/>
<stop offset="0.11" stop-color="#4198C0"/>
<stop offset="0.23" stop-color="#296BB3"/>
<stop offset="0.34" stop-color="#184AAA"/>
<stop offset="0.43" stop-color="#0D37A5"/>
<stop offset="0.49" stop-color="#0A30A3"/>
<stop offset="1" stop-color="#00152A"/>
</radialGradient>
<clipPath id="clip0_268_5629">
<rect width="968" height="703" fill="white"/>
</clipPath>
</defs>
</svg>
