<svg width="320" height="2090" viewBox="0 0 320 2090" fill="none" xmlns="http://www.w3.org/2000/svg">
<g clip-path="url(#clip0_257_9227)">
<rect width="320" height="2090" fill="#001447"/>
<g filter="url(#filter0_d_257_9227)">
<rect width="320" height="71" transform="translate(0 -71)" fill="#011855"/>
</g>
<path d="M299.139 1002.86C297.277 1001 294.258 1001 292.396 1002.86C290.534 1004.72 290.534 1007.74 292.396 1009.6C294.258 1011.46 297.277 1011.46 299.139 1009.6C301.001 1007.74 301.001 1004.72 299.139 1002.86Z" fill="white" fill-opacity="0.5"/>
<path d="M294.989 1923.61L273.541 1952.14C297.122 1970.86 301.63 2005.06 283.43 2029.27C265.231 2053.48 231.127 2058.65 206.591 2041.21L185.142 2069.74C225.428 2099.03 281.908 2090.67 311.954 2050.71C341.991 2010.75 334.32 1954.18 294.989 1923.61Z" fill="url(#paint0_radial_257_9227)" fill-opacity="0.2"/>
</g>
<defs>
<filter id="filter0_d_257_9227" x="-30" y="-97" width="380" height="131" filterUnits="userSpaceOnUse" color-interpolation-filters="sRGB">
<feFlood flood-opacity="0" result="BackgroundImageFix"/>
<feColorMatrix in="SourceAlpha" type="matrix" values="0 0 0 0 0 0 0 0 0 0 0 0 0 0 0 0 0 0 127 0" result="hardAlpha"/>
<feOffset dy="4"/>
<feGaussianBlur stdDeviation="15"/>
<feComposite in2="hardAlpha" operator="out"/>
<feColorMatrix type="matrix" values="0 0 0 0 0.0588235 0 0 0 0 0.227451 0 0 0 0 0.65098 0 0 0 1 0"/>
<feBlend mode="normal" in2="BackgroundImageFix" result="effect1_dropShadow_257_9227"/>
<feBlend mode="normal" in="SourceGraphic" in2="effect1_dropShadow_257_9227" result="shape"/>
</filter>
<radialGradient id="paint0_radial_257_9227" cx="0" cy="0" r="1" gradientUnits="userSpaceOnUse" gradientTransform="translate(191.131 2076.18) rotate(-143.068) scale(614.362)">
<stop stop-color="#5BC7CE"/>
<stop offset="0.11" stop-color="#4198C0"/>
<stop offset="0.23" stop-color="#296BB3"/>
<stop offset="0.34" stop-color="#184AAA"/>
<stop offset="0.43" stop-color="#0D37A5"/>
<stop offset="0.49" stop-color="#0A30A3"/>
<stop offset="1" stop-color="#00152A"/>
</radialGradient>
<clipPath id="clip0_257_9227">
<rect width="320" height="2090" fill="white"/>
</clipPath>
</defs>
</svg>
