<svg width="1920" height="880" viewBox="0 0 1920 880" fill="none" xmlns="http://www.w3.org/2000/svg">
<g clip-path="url(#clip0_252_1004)">
<rect width="1920" height="880" fill="url(#paint0_linear_252_1004)"/>
<path style="mix-blend-mode:overlay" d="M1022.78 450.566C1025.6 453.388 1025.6 457.975 1022.78 460.817L690.817 792.782C687.994 795.604 683.408 795.604 680.566 792.782C677.744 789.96 677.744 785.373 680.566 782.531L1012.53 450.566C1015.35 447.744 1019.94 447.744 1022.78 450.566Z" fill="url(#paint1_linear_252_1004)"/>
<path d="M110.267 236.316C106.969 237.422 99.8654 242.345 98.7107 243.793C91.2056 253.164 104.378 281.759 121.492 281.397C125.058 281.321 132.42 276.44 135.875 272.915C146.295 262.28 127.576 230.51 110.267 236.316Z" fill="#F09D35"/>
<path d="M114.426 261.65C116.899 265.239 123.309 271.964 127.639 272.266C130.237 272.447 132.077 270.806 133.115 268.457C136.994 259.682 127.63 246.394 130.386 250.247C134.691 256.256 137.371 267.412 131.667 272.072C129.712 273.667 126.663 273.953 123.379 271.887C109.496 263.156 102.648 242.287 113.217 239.121C121.524 236.633 130.052 249.112 129.679 249.366C129.42 249.543 126.275 243.987 119.748 240.701C116.028 238.827 112.295 239.835 110.638 241.933C106.909 246.656 110.652 256.175 114.426 261.65Z" fill="black"/>
<path d="M109.044 236.18C105.7 237.894 102.512 239.897 99.5188 242.169C90.0267 249.901 100.88 278.104 118.434 281.811C120.091 282.109 121.792 282.054 123.426 281.651C126.136 280.808 130.718 278.315 135.688 273.925C136.517 273.167 137.222 272.283 137.777 271.307C145.02 258.717 126.231 228.702 109.044 236.18ZM102.465 242.32C103.866 241.326 105.241 240.354 106.626 239.494C104.783 242.042 103.952 245.183 104.293 248.31C101.425 250.345 102.134 250.542 98.0177 251.899C97.7637 245.416 100.118 243.995 102.465 242.32ZM98.1188 253.403C98.9905 252.866 100.196 251.943 101.268 251.361C102.247 250.83 103.527 250.362 104.443 249.949C104.91 252.993 105.81 255.953 107.116 258.742C104.473 260.456 105.225 260.811 100.446 262.344C99.218 259.5 98.433 256.485 98.1188 253.403V253.403ZM101.022 263.605C101.873 263.067 102.954 262.288 103.927 261.784C105.177 261.137 106.898 260.595 107.796 260.148C109.269 263.107 111.071 265.889 113.169 268.442C112.309 268.958 111.037 269.946 109.907 270.542C108.822 271.113 107.366 271.586 106.443 271.993C104.283 269.441 102.461 266.622 101.022 263.605V263.605ZM107.428 273.095C111.817 269.795 111.427 270.874 114.201 269.648C115.937 271.652 117.953 273.395 120.187 274.823C116.81 277.907 117.454 276.924 114.502 278.559C111.824 277.193 109.423 275.34 107.423 273.095H107.428ZM120.899 280.098C119.222 280.087 117.561 279.779 115.991 279.189C119.167 276.254 120.04 276.813 121.661 275.611C124.117 276.739 126.872 277.046 129.517 276.486C127.423 277.852 123.371 280.197 120.889 280.098H120.899ZM136.31 270.462C135.826 271.267 135.226 271.998 134.531 272.63C132.51 274.374 131.899 275.088 129.431 275.555C123.723 276.663 119.579 273.719 115.62 269.52C107.46 260.523 99.9229 243.22 110.488 237.49C125.26 231.716 143.513 258.329 136.31 270.462Z" fill="black"/>
<path d="M124.415 257.28C120.587 259.921 120.88 259.901 120.391 259.647C116.919 257.843 116.962 257.973 116.865 257.694C116.768 257.415 116.288 257.898 123.975 252.562C124.264 252.363 124.243 252.459 127.761 254.25C128.553 254.653 128.102 254.734 124.415 257.28Z" fill="black"/>
<path d="M115.434 255.622C115.216 255.437 115.322 255.622 114.857 251.618C114.793 251.071 114.368 251.522 122.027 246.284C122.546 245.93 122.568 247.098 122.627 247.636C122.925 250.33 123.053 250.607 122.75 250.812C115.049 256.069 115.646 255.8 115.434 255.622Z" fill="black"/>
<path d="M129.497 256.63C129.705 256.823 129.629 256.687 130.074 260.71C130.123 261.151 130.576 260.698 122.866 265.98C122.623 266.146 122.438 265.884 122.405 265.586C121.993 261.803 121.871 261.641 122.168 261.442C129.923 256.104 129.315 256.465 129.497 256.63Z" fill="black"/>
<rect width="1920" height="880" fill="url(#paint2_linear_252_1004)"/>
<path d="M777.88 67.5758C778.179 67.9462 778.121 68.4886 777.75 68.7872L734.3 103.824C733.93 104.123 733.387 104.065 733.089 103.694C732.79 103.324 732.848 102.781 733.218 102.483L776.669 67.446C777.039 67.1473 777.582 67.2055 777.88 67.5758Z" fill="url(#paint3_linear_252_1004)" style="mix-blend-mode:overlay"/>
<path d="M1961.33 37.1168C1964.16 39.9392 1964.16 44.5256 1961.33 47.3676L1629.37 379.333C1626.55 382.155 1621.96 382.155 1619.12 379.333C1616.29 376.51 1616.29 371.924 1619.12 369.082L1951.08 37.1168C1953.9 34.2944 1958.49 34.2944 1961.33 37.1168Z" fill="url(#paint4_linear_252_1004)" style="mix-blend-mode:overlay"/>
<path d="M1703.06 -383.385L1647.81 -321.088C1699.11 -273.112 1703.15 -192.751 1656.26 -139.89C1609.38 -87.0289 1390.3 -94.713 1336.54 -139.89L1420.11 -64.3303C1508.25 11.3599 1641.15 2.58617 1718.54 -84.6598C1795.91 -171.905 1788.75 -304.896 1703.06 -383.385Z" fill="url(#paint5_radial_252_1004)" fill-opacity="0.2"/>
</g>
<defs>
<linearGradient id="paint0_linear_252_1004" x1="960" y1="0" x2="960" y2="880" gradientUnits="userSpaceOnUse">
<stop offset="0.729167" stop-color="#01164E"/>
<stop offset="1" stop-color="#092E9C"/>
</linearGradient>
<linearGradient id="paint1_linear_252_1004" x1="909.866" y1="550.84" x2="709.907" y2="794.272" gradientUnits="userSpaceOnUse">
<stop offset="0.17" stop-color="#0A30A3"/>
<stop offset="1" stop-color="white"/>
</linearGradient>
<linearGradient id="paint2_linear_252_1004" x1="-15.5" y1="19.2936" x2="1929.41" y2="752.891" gradientUnits="userSpaceOnUse">
<stop stop-color="#0A30A3"/>
<stop offset="0.563541" stop-color="#001447"/>
</linearGradient>
<linearGradient id="paint3_linear_252_1004" x1="763.261" y1="77.9984" x2="734.115" y2="102.192" gradientUnits="userSpaceOnUse">
<stop offset="0.17" stop-color="#0A30A3"/>
<stop offset="1" stop-color="white"/>
</linearGradient>
<linearGradient id="paint4_linear_252_1004" x1="1639.5" y1="381" x2="1857.5" y2="168.5" gradientUnits="userSpaceOnUse">
<stop stop-color="#0A30A3" stop-opacity="0.31"/>
<stop offset="1" stop-color="white" stop-opacity="0"/>
</linearGradient>
<radialGradient id="paint5_radial_252_1004" cx="0" cy="0" r="1" gradientUnits="userSpaceOnUse" gradientTransform="translate(1432.82 -48.2161) rotate(-138.431) scale(1433.13)">
<stop stop-color="#5BC7CE"/>
<stop offset="0.11" stop-color="#4198C0"/>
<stop offset="0.23" stop-color="#296BB3"/>
<stop offset="0.34" stop-color="#184AAA"/>
<stop offset="0.43" stop-color="#0D37A5"/>
<stop offset="0.49" stop-color="#0A30A3"/>
<stop offset="1" stop-color="#00152A"/>
</radialGradient>
<clipPath id="clip0_252_1004">
<rect width="1920" height="880" fill="white"/>
</clipPath>
</defs>
</svg>
