<svg width="319" height="162" viewBox="0 0 319 162" fill="none" xmlns="http://www.w3.org/2000/svg">
<g opacity="0.6">
<path d="M222.638 11.3047L115.576 11.3047" stroke="#1E6AC6" stroke-opacity="0.6" stroke-width="8.4" stroke-linecap="round"/>
<path d="M87.025 11.3047L83.4563 11.3047" stroke="#179F0C" stroke-opacity="0.6" stroke-width="8.4" stroke-linecap="round"/>
<path d="M79.889 150.484L62.0454 150.484" stroke="#179F0C" stroke-opacity="0.6" stroke-width="8.4" stroke-linecap="round"/>
<path d="M15.6511 54.1289L4.94491 54.1289" stroke="#179F0C" stroke-opacity="0.6" stroke-width="8.4" stroke-linecap="round"/>
<path d="M58.4763 107.66L53.3781 107.66" stroke="#179F0C" stroke-opacity="0.6" stroke-width="8.4" stroke-linecap="round"/>
<path d="M154.831 54.1289L54.9063 54.1289" stroke="#1E6AC6" stroke-opacity="0.6" stroke-width="8.4" stroke-linecap="round"/>
<path d="M147.695 107.66L87.0263 107.66" stroke="#1E6AC6" stroke-opacity="0.6" stroke-width="8.4" stroke-linecap="round"/>
<path d="M172.675 150.484L112.007 150.484" stroke="#1E6AC6" stroke-opacity="0.6" stroke-width="8.4" stroke-linecap="round"/>
<path d="M179.877 137.276C185.305 142.641 185.426 151.459 180.146 156.974C174.868 162.488 166.188 162.611 160.76 157.246C160.048 156.548 159.348 155.833 158.663 155.116C141.835 137.448 133.42 114.867 133.42 92.2972C133.42 69.7279 141.835 47.1463 158.663 29.4783C159.348 28.761 160.048 28.0468 160.76 27.348C178.893 9.51442 202.579 0.597656 226.207 0.597656C249.839 0.597656 273.521 9.51442 291.655 27.348C292.367 28.0468 293.067 28.761 293.752 29.4783C310.579 47.1463 318.994 69.7279 318.994 92.2972C318.994 114.867 310.579 137.448 293.752 155.116C293.067 155.836 292.367 156.548 291.655 157.246C286.227 162.611 277.549 162.488 272.269 156.974C266.992 151.459 267.109 142.641 272.538 137.276C273.069 136.752 273.591 136.222 274.097 135.692C285.699 123.51 291.498 107.908 291.498 92.2972C291.498 76.6829 285.696 61.0809 274.097 48.9027C273.591 48.3693 273.069 47.839 272.538 47.3179C263.296 38.2295 251.924 32.4393 239.951 29.9473V92.2972C239.951 100.012 233.796 106.265 226.204 106.265C218.613 106.265 212.458 100.012 212.458 92.2972V29.9473C200.485 32.4393 189.113 38.2295 179.871 47.3179C179.34 47.8421 178.818 48.3724 178.311 48.9027C166.71 61.0839 160.911 76.686 160.911 92.2972C160.911 107.912 166.71 123.514 178.311 135.692C178.818 136.225 179.34 136.752 179.871 137.276H179.877Z" fill="#1E6AC6" fill-opacity="0.9"/>
</g>
</svg>
