<svg width="678" height="2021" viewBox="0 0 678 2021" fill="none" xmlns="http://www.w3.org/2000/svg">
<g clip-path="url(#clip0_254_7646)">
<rect width="678" height="2021" fill="#001447"/>
<path d="M678 0H0V947H678V0Z" fill="url(#paint0_linear_254_7646)"/>
<path d="M598.913 1855L579.209 1874.7C595.384 1891.76 595.122 1918.68 578.402 1935.4C561.683 1952.12 534.758 1952.38 517.704 1936.21L498 1955.91C525.929 1982.96 570.499 1982.69 598.1 1955.1C625.694 1927.51 625.963 1882.94 598.913 1855Z" fill="url(#paint1_radial_254_7646)" fill-opacity="0.2"/>
<path d="M76 1789C76 1786.57 77.9796 1784.59 80.41 1784.59C82.8404 1784.59 84.82 1786.57 84.82 1789C84.82 1791.43 82.8404 1793.41 80.41 1793.41C77.9796 1793.41 76 1791.43 76 1789Z" stroke="white" stroke-width="1.96" stroke-miterlimit="10"/>
<path d="M95.6602 1769.35C95.6602 1766.92 97.6398 1764.94 100.07 1764.94C102.501 1764.94 104.48 1766.92 104.48 1769.35C104.48 1771.78 102.501 1773.76 100.07 1773.76C97.6398 1773.76 95.6602 1771.78 95.6602 1769.35Z" stroke="white" stroke-width="1.96" stroke-miterlimit="10"/>
<path d="M119.707 1754.12C122.142 1754.12 124.117 1752.14 124.117 1749.71C124.117 1747.27 122.142 1745.3 119.707 1745.3C117.271 1745.3 115.297 1747.27 115.297 1749.71C115.297 1752.14 117.271 1754.12 119.707 1754.12Z" stroke="white" stroke-width="1.96" stroke-miterlimit="10"/>
<path d="M139.347 1734.46C141.783 1734.46 143.757 1732.49 143.757 1730.05C143.757 1727.62 141.783 1725.64 139.347 1725.64C136.912 1725.64 134.938 1727.62 134.938 1730.05C134.938 1732.49 136.912 1734.46 139.347 1734.46Z" stroke="white" stroke-width="1.96" stroke-miterlimit="10"/>
<path d="M159.008 1714.82C161.443 1714.82 163.418 1712.85 163.418 1710.41C163.418 1707.97 161.443 1706 159.008 1706C156.572 1706 154.598 1707.97 154.598 1710.41C154.598 1712.85 156.572 1714.82 159.008 1714.82Z" stroke="white" stroke-width="1.96" stroke-miterlimit="10"/>
<path d="M869.333 902.117C872.155 904.939 872.155 909.526 869.333 912.368L537.368 1244.33C534.545 1247.16 529.959 1247.16 527.117 1244.33C524.294 1241.51 524.294 1236.92 527.117 1234.08L859.082 902.117C861.904 899.294 866.491 899.294 869.333 902.117Z" fill="url(#paint2_linear_254_7646)" style="mix-blend-mode:overlay"/>
<path d="M597.139 1182.86C595.277 1181 592.258 1181 590.396 1182.86C588.534 1184.72 588.534 1187.74 590.396 1189.6C592.258 1191.46 595.277 1191.46 597.139 1189.6C599.001 1187.74 599.001 1184.72 597.139 1182.86Z" fill="white" fill-opacity="0.5"/>
<path d="M627.01 1152.99C625.148 1151.13 622.13 1151.13 620.268 1152.99C618.406 1154.85 618.406 1157.87 620.268 1159.73C622.13 1161.59 625.148 1161.59 627.01 1159.73C628.872 1157.87 628.872 1154.85 627.01 1152.99Z" fill="white" fill-opacity="0.5"/>
<path d="M656.858 1123.12C654.996 1121.25 651.977 1121.25 650.115 1123.12C648.253 1124.98 648.253 1128 650.115 1129.86C651.977 1131.72 654.996 1131.72 656.858 1129.86C658.72 1128 658.72 1124.98 656.858 1123.12Z" fill="white" fill-opacity="0.5"/>
<g filter="url(#filter0_d_254_7646)">
<rect y="-96" width="678" height="96" fill="#011855"/>
</g>
</g>
<defs>
<filter id="filter0_d_254_7646" x="-30" y="-126" width="738" height="156" filterUnits="userSpaceOnUse" color-interpolation-filters="sRGB">
<feFlood flood-opacity="0" result="BackgroundImageFix"/>
<feColorMatrix in="SourceAlpha" type="matrix" values="0 0 0 0 0 0 0 0 0 0 0 0 0 0 0 0 0 0 127 0" result="hardAlpha"/>
<feOffset/>
<feGaussianBlur stdDeviation="15"/>
<feComposite in2="hardAlpha" operator="out"/>
<feColorMatrix type="matrix" values="0 0 0 0 0.0588235 0 0 0 0 0.227451 0 0 0 0 0.65098 0 0 0 1 0"/>
<feBlend mode="normal" in2="BackgroundImageFix" result="effect1_dropShadow_254_7646"/>
<feBlend mode="normal" in="SourceGraphic" in2="effect1_dropShadow_254_7646" result="shape"/>
</filter>
<linearGradient id="paint0_linear_254_7646" x1="145.336" y1="-277.22" x2="891.962" y2="244.667" gradientUnits="userSpaceOnUse">
<stop stop-color="#0A30A3"/>
<stop offset="0.609243" stop-color="#001447"/>
</linearGradient>
<radialGradient id="paint1_radial_254_7646" cx="0" cy="0" r="1" gradientUnits="userSpaceOnUse" gradientTransform="translate(501.923 1961.55) rotate(-135) scale(479.599)">
<stop stop-color="#5BC7CE"/>
<stop offset="0.11" stop-color="#4198C0"/>
<stop offset="0.23" stop-color="#296BB3"/>
<stop offset="0.34" stop-color="#184AAA"/>
<stop offset="0.43" stop-color="#0D37A5"/>
<stop offset="0.49" stop-color="#0A30A3"/>
<stop offset="1" stop-color="#00152A"/>
</radialGradient>
<linearGradient id="paint2_linear_254_7646" x1="547.5" y1="1246" x2="765.5" y2="1033.5" gradientUnits="userSpaceOnUse">
<stop stop-color="#0A30A3" stop-opacity="0.31"/>
<stop offset="1" stop-color="white" stop-opacity="0"/>
</linearGradient>
<clipPath id="clip0_254_7646">
<rect width="678" height="2021" fill="white"/>
</clipPath>
</defs>
</svg>
