<svg width="208" height="149" viewBox="0 0 208 149" fill="none" xmlns="http://www.w3.org/2000/svg">
<g opacity="0.6">
<path d="M150.859 46.3115L90.0505 26.9457" stroke="#1E6AC6" stroke-opacity="0.6" stroke-width="8.4" stroke-linecap="round"/>
<path d="M73.8359 21.7812L71.809 21.1357" stroke="#001447" stroke-width="8.4" stroke-linecap="round"/>
<path d="M44.6055 99.542L34.4707 96.3144" stroke="#001447" stroke-width="8.4" stroke-linecap="round"/>
<path d="M25.5508 33.1943L19.4699 31.2578" stroke="#001447" stroke-width="8.4" stroke-linecap="round"/>
<path d="M40.1895 71.3447L37.2938 70.4225" stroke="#001447" stroke-width="8.4" stroke-linecap="round"/>
<path d="M104.602 58.3701L47.8466 40.2954" stroke="#1E6AC6" stroke-opacity="0.6" stroke-width="8.4" stroke-linecap="round"/>
<path d="M90.8633 87.4834L56.4049 76.5094" stroke="#1E6AC6" stroke-opacity="0.6" stroke-width="8.4" stroke-linecap="round"/>
<path d="M97.3066 116.325L62.8483 105.351" stroke="#1E6AC6" stroke-opacity="0.6" stroke-width="8.4" stroke-linecap="round"/>
<path d="M103.787 110.127C105.899 114.155 104.373 119.186 100.376 121.363C96.3814 123.54 91.4288 122.04 89.316 118.011C89.038 117.485 88.7696 116.953 88.5103 116.422C82.1486 103.343 81.4537 88.9949 85.5361 76.176C89.6185 63.3572 98.4828 52.0535 111.236 45.0623C111.755 44.7788 112.282 44.4997 112.813 44.2316C126.338 37.3827 141.404 36.6025 154.824 40.8765C168.246 45.151 180.084 54.4993 187.158 67.9085C187.436 68.4342 187.705 68.9665 187.964 69.4978C194.326 82.5766 195.021 96.9246 190.938 109.743C186.856 122.562 177.991 133.866 165.238 140.857C164.719 141.142 164.192 141.42 163.662 141.688C159.608 143.753 154.702 142.113 152.7 138.026C150.7 133.94 152.362 128.952 156.416 126.887C156.812 126.686 157.204 126.479 157.588 126.269C166.381 121.449 172.497 113.637 175.321 104.77C178.145 95.9012 177.672 85.9901 173.287 76.9752C173.096 76.5806 172.895 76.1849 172.688 75.7929C169.082 68.9592 163.671 63.6135 157.321 60.0324L146.043 95.4457C144.648 99.8278 140.021 102.266 135.709 100.893C131.397 99.5197 129.032 94.8547 130.428 90.4726L141.706 55.0593C134.455 54.3091 126.948 55.5408 120.055 59.0311C119.659 59.2327 119.266 59.4395 118.883 59.649C110.09 64.4691 103.974 72.2818 101.15 81.1486C98.3256 90.0172 98.7973 99.9278 103.184 108.943C103.375 109.338 103.576 109.732 103.783 110.125L103.787 110.127Z" fill="#1E6AC6" fill-opacity="0.9"/>
</g>
</svg>
