<svg width="407" height="363" viewBox="0 0 407 363" fill="none" xmlns="http://www.w3.org/2000/svg">
<path d="M215.501 241.844C248.915 241.844 276.001 268.931 276.001 302.344C276.001 335.757 248.915 362.844 215.501 362.844C182.088 362.844 155.001 335.757 155.001 302.344C155.001 268.931 182.088 241.844 215.501 241.844Z" fill="url(#paint0_radial_217_2770)"/>
<path d="M106.743 180.681C106.743 180.681 101.294 253.542 95.7141 280.341H224.297C218.293 255.362 212.083 187.823 212.083 187.823L230.256 214.736L246.619 173.453C246.619 173.453 230.867 146.521 213.871 132.441C202.068 122.662 177.523 119.066 163.63 117.782V117.016C163.63 117.016 161.723 117.102 158.556 117.372C155.384 117.154 153.475 117.099 153.475 117.099L153.484 117.865C139.615 119.378 115.411 123.712 103.492 133.349C59.3806 169.016 36.5662 277.626 36.0015 280.341H63.4605C78.2954 224.077 106.743 180.681 106.743 180.681Z" fill="#2A485E"/>
<path d="M246.616 173.451C246.616 173.451 235.673 154.744 222.19 140.363C217.347 158.536 215.872 177.606 217.815 196.313L230.256 214.736L246.616 173.451Z" fill="#193345"/>
<path d="M358.792 215.818C355.547 214.163 352.717 211.883 350.16 209.285L257.095 178.324C257.095 178.324 257.095 150.998 251.841 136.747C260.668 120.264 259.958 104.785 257.095 95.4686C254.232 86.1526 241.789 80.8839 237.229 94.5672C234.964 101.367 225.436 129.198 221.977 136.301C213.239 179.468 226.985 230.917 254.344 249.551C281.703 268.185 327.137 270.003 360.175 260.798C383.434 254.314 389.99 229.111 391.834 214.76C388.569 216.117 385.222 217.247 381.766 218.002C374.098 219.675 365.78 219.383 358.792 215.818Z" fill="#F7A87E"/>
<path d="M392.551 204.609L369.089 215.583L350.158 209.285C352.715 211.884 355.545 214.164 358.789 215.818C365.78 219.384 374.1 219.675 381.766 218C385.222 217.245 388.569 216.115 391.834 214.758C392.609 208.725 392.551 204.609 392.551 204.609Z" fill="#E98870"/>
<path d="M380.14 85.3019L356.798 110.103C351.132 116.125 351.666 125.67 357.971 131.017C363.936 136.079 372.847 135.47 378.07 129.646L400.807 104.288C405.964 98.5357 405.502 89.6984 399.772 84.5131C394.106 79.3864 385.378 79.7368 380.14 85.3019Z" fill="#F7A87E"/>
<path d="M178.048 119.578L138.396 119.656L142.899 151.104H173.039L178.048 119.578Z" fill="#ECEADD"/>
<path d="M173.041 151.105H142.9L153.82 227.378L173.041 151.105Z" fill="white"/>
<path d="M141.736 100.098V113.113C146.947 116.926 153.018 119.3 159.338 119.567C159.484 119.573 159.632 119.578 159.778 119.58C159.924 119.582 160.07 119.573 160.216 119.567C166.127 119.319 171.822 117.222 176.797 113.835V100.098H141.736Z" fill="#E98870"/>
<path d="M185.748 83.6207C195.047 80.179 202.637 72.4034 205.854 63.0241C209.07 53.6449 207.849 42.847 202.619 34.4232C207.123 33.3388 209.278 27.5191 207.575 23.2118C205.872 18.9045 201.393 16.2145 196.851 15.3045C198.983 13.2971 198.529 9.55583 196.568 7.38167C194.608 5.20751 191.618 4.28977 188.731 3.79932C184.088 3.01055 179.338 3.08285 174.642 3.44304C165.74 4.12759 134.285 3.18249 125.517 24.4415C114.189 27.9893 114.29 44.9892 114.198 49.615C113.95 61.9904 119.06 74.8628 129.193 81.9702C145.201 93.1993 167.409 90.4096 185.748 83.6207Z" fill="#4E2F20"/>
<path d="M191.749 87.5796C186.793 101.399 174.098 112.165 160.216 112.747C160.07 112.754 159.924 112.758 159.778 112.76C159.632 112.76 159.485 112.754 159.338 112.747C145.455 112.165 132.763 101.399 127.805 87.5796C124.785 79.1604 124.346 69.9505 124.67 60.9484C124.994 51.9462 126.05 42.9669 125.881 33.9609C137.025 31.6701 148.463 29.8978 159.778 30.5511C171.094 29.8998 182.529 31.6701 193.673 33.9609C193.505 42.9669 194.558 51.9469 194.884 60.9484C195.21 69.9498 194.769 79.1604 191.749 87.5796Z" fill="#F7A87E"/>
<path d="M196.777 68.9378C192.01 61.947 189.026 53.3305 189.457 44.8794C169.192 46.2918 148.853 43.4823 129.73 36.6289C129.952 47.783 126.912 58.7431 122.179 68.846C121.604 57.7263 121.455 46.933 122.634 35.8616C122.765 34.6006 122.926 33.2999 123.559 32.2004C124.686 30.2464 127.011 29.3795 129.173 28.7204C149.485 22.5144 171.914 21.6253 191.706 29.3333C193.79 30.1461 195.908 31.0919 197.421 32.7456C198.75 34.1948 199.512 36.0844 199.949 38.0013C200.735 41.4534 200.542 45.0442 200.344 48.5796C199.948 55.6056 199.186 62.3261 196.777 68.9378Z" fill="#4E2F20"/>
<path d="M116.853 48.3043C119.669 45.3314 122.138 42.049 124.213 38.5199C125.946 35.5713 127.684 32.2019 130.899 31.0373C133.858 29.9665 137.413 31.077 140.126 29.4871C141.508 28.6775 142.47 27.2608 143.892 26.5209C146.668 25.0756 149.959 26.6447 152.934 27.6145C159.643 29.803 167.349 28.6808 173.156 24.6698C176.107 22.6311 178.665 19.7008 179.272 16.166C179.808 13.0474 178.775 9.87731 177.503 6.97886C176.965 5.75174 176.376 4.54741 175.749 3.36328C175.382 3.38803 175.014 3.41344 174.648 3.4421C171.377 3.69351 165.063 3.72673 157.949 4.71937C158.042 4.81447 158.134 4.90891 158.225 5.00596C159.788 6.68576 161.06 9.05271 160.283 11.2139C159.682 12.8865 158.038 13.9228 156.471 14.761C151.665 17.3303 146.54 19.2529 141.23 20.4791C139.958 20.7722 138.54 21.1168 137.843 22.2201C137.35 23.0018 137.341 23.9885 136.976 24.834C136.259 26.489 134.366 27.268 132.606 27.6549C130.845 28.0418 128.952 28.2372 127.514 29.3243C126.798 29.8649 126.25 30.5924 125.603 31.2132C123.543 33.1919 120.488 34.0002 117.671 33.5248C117.359 33.472 117.05 33.4017 116.745 33.3202C114.245 39.4643 114.259 46.8107 114.204 49.6134C114.196 50.0368 114.195 50.4602 114.199 50.8842C115.123 50.0648 116.007 49.1979 116.853 48.3043Z" fill="#5E3B2B"/>
<path d="M149.357 55.8022C150.22 55.8309 151.106 55.8908 151.892 56.2484C152.678 56.606 153.356 57.3218 153.432 58.1822C153.518 59.167 152.792 60.0796 151.907 60.5199C151.022 60.9602 150.003 61.0253 149.015 61.0729C145.792 61.227 142.566 61.2717 139.337 61.207C138.2 61.1842 135.754 61.0116 135.728 59.367C135.705 57.992 137.848 57.5498 138.877 57.1935C142.229 56.0328 145.827 55.6869 149.357 55.8022Z" fill="#452819"/>
<path d="M171.349 55.8022C170.485 55.8309 169.6 55.8908 168.813 56.2484C168.026 56.606 167.349 57.3218 167.274 58.1822C167.187 59.167 167.914 60.0796 168.799 60.5199C169.684 60.9602 170.703 61.0253 171.69 61.0729C174.914 61.227 178.14 61.2717 181.369 61.207C182.506 61.1842 184.951 61.0116 184.977 59.367C185 57.992 182.857 57.5498 181.829 57.1935C178.476 56.0328 174.879 55.6869 171.349 55.8022Z" fill="#452819"/>
<path d="M144.581 73.8846C146.49 73.8846 148.038 72.3365 148.038 70.4267C148.038 68.5169 146.49 66.9688 144.581 66.9688C142.671 66.9688 141.123 68.5169 141.123 70.4267C141.123 72.3365 142.671 73.8846 144.581 73.8846Z" fill="#452819"/>
<path d="M174.772 73.8846C176.682 73.8846 178.23 72.3365 178.23 70.4267C178.23 68.5169 176.682 66.9688 174.772 66.9688C172.862 66.9688 171.314 68.5169 171.314 70.4267C171.314 72.3365 172.862 73.8846 174.772 73.8846Z" fill="#452819"/>
<path d="M161.161 100.101C158.703 100.144 156.272 100.671 153.966 101.534C155.578 102.539 157.621 103.194 160.219 103.194C163.215 103.194 165.475 102.326 167.183 101.051C165.248 100.38 163.209 100.058 161.161 100.101Z" fill="#F28487"/>
<path d="M154.505 93.2212C155.971 93.8725 157.517 94.3603 159.108 94.5649C162.197 94.9622 165.394 94.2574 168.108 92.73C169.01 92.2201 169.86 91.6253 170.649 90.9539C170.386 90.8428 170.103 90.7854 169.818 90.7852H150.72C150.779 90.8425 150.837 90.8991 150.897 90.9545C151.941 91.927 153.201 92.6428 154.505 93.2212Z" fill="white"/>
<path d="M170.652 90.9539C169.863 91.6253 169.013 92.2201 168.111 92.73C165.397 94.2574 162.2 94.9622 159.111 94.5649C157.52 94.3604 155.974 93.8718 154.508 93.2212C153.205 92.6428 151.945 91.927 150.9 90.9545C150.84 90.8992 150.782 90.8425 150.723 90.7852H150.616C150.287 90.7846 149.963 90.8593 149.667 91.0037C149.372 91.1481 149.114 91.3583 148.913 91.6181C148.711 91.8779 148.572 92.1804 148.506 92.5023C148.44 92.8243 148.449 93.1571 148.531 93.4752C149.183 95.9288 150.661 99.4734 153.966 101.535C156.272 100.67 158.703 100.143 161.161 100.103C163.209 100.06 165.247 100.383 167.182 101.055C169.994 98.9549 171.304 95.7484 171.905 93.4778C172.037 92.9766 171.982 92.4447 171.752 91.9806C171.521 91.5166 171.13 91.1518 170.652 90.9539Z" fill="#AB404A"/>
<path d="M159.778 119.58C159.632 119.58 159.484 119.574 159.338 119.567C153.02 119.302 146.945 116.926 141.736 113.113V137.359H169.418L176.797 126.815V113.833C171.822 117.224 166.127 119.319 160.216 119.565C160.07 119.573 159.924 119.578 159.778 119.58Z" fill="#F7A87E"/>
<path d="M141.737 116.469L158.659 136.127L176.798 116.469L179.19 119.801L172.863 151.204L158.541 137.357L142.91 151.188L138.396 119.656L141.737 116.469Z" fill="white"/>
<path d="M150.231 144.711L156.861 154.295L147.134 180.7L153.818 227.379L166.414 177.392L160.858 154.184L166.918 145.46L158.539 137.359L150.231 144.711Z" fill="#D75555"/>
<path d="M293.133 220.871L293.041 221.03H293.225L293.133 220.871Z" fill="#F68C24"/>
<path d="M361.989 195.462L386.256 180.565C392.148 176.948 399.625 179.426 402.644 185.997C405.5 192.214 403.276 199.774 397.629 203.049L373.039 217.307C367.46 220.541 360.527 218.274 357.528 212.235C354.558 206.262 356.544 198.806 361.989 195.462Z" fill="#F7A87E"/>
<path d="M353.67 164.909L386.47 151.822C394.434 148.644 403.435 152.787 406.198 160.904C408.811 168.584 404.838 176.949 397.234 179.773L364.129 192.064C356.618 194.853 348.267 191.046 345.445 183.548C342.654 176.132 346.311 167.846 353.67 164.909Z" fill="#F7A87E"/>
<path d="M350.58 135.804L382.213 123.182C389.893 120.117 398.574 124.114 401.24 131.942C403.761 139.348 399.928 147.415 392.594 150.139L360.666 161.993C353.423 164.682 345.368 161.011 342.647 153.78C339.954 146.628 343.481 138.637 350.58 135.804Z" fill="#F7A87E"/>
<path d="M189.158 93.2709C193.171 93.4956 197.296 92.3863 200.482 89.9354C203.668 87.4844 205.833 83.6597 206.007 79.6442C206.103 77.4297 205.489 75.0087 203.709 73.6891C202.35 72.6808 200.544 72.4867 198.859 72.6332C196.518 72.8365 194.066 73.7646 192.824 75.7597L189.158 93.2709Z" fill="#F7A87E"/>
<path d="M197.938 79.1185C198.137 79.2386 198.322 79.3811 198.489 79.5432C199.219 80.2438 199.644 81.2029 199.674 82.214C199.703 83.2251 199.334 84.2074 198.647 84.9493C198.613 84.9857 198.572 85.015 198.527 85.0357C198.482 85.0564 198.434 85.0681 198.384 85.07C198.335 85.0719 198.285 85.064 198.239 85.0468C198.192 85.0296 198.15 85.0035 198.114 84.9698C198.077 84.9362 198.048 84.8957 198.027 84.8507C198.006 84.8057 197.995 84.757 197.993 84.7075C197.991 84.658 197.999 84.6086 198.016 84.5621C198.033 84.5157 198.059 84.4731 198.093 84.4367C198.645 83.84 198.941 83.0504 198.918 82.2377C198.894 81.425 198.553 80.654 197.967 80.0903C197.754 79.8858 197.43 79.6429 197.055 79.581C195.644 80.449 194.552 81.7503 193.943 83.2904C193.915 83.3625 193.865 83.4242 193.801 83.4672C193.736 83.5102 193.66 83.5323 193.583 83.5307C193.538 83.5299 193.494 83.5211 193.453 83.5046C193.36 83.4684 193.285 83.3967 193.244 83.3052C193.204 83.2137 193.202 83.11 193.238 83.0168C193.957 81.1691 195.313 79.6397 197.062 78.7055C198.81 77.7714 200.836 77.4941 202.771 77.924C202.869 77.9458 202.954 78.0054 203.007 78.0899C203.061 78.1744 203.079 78.2767 203.057 78.3744C203.035 78.4721 202.976 78.5571 202.891 78.6108C202.807 78.6645 202.704 78.6824 202.607 78.6606C201.041 78.3214 199.408 78.4816 197.938 79.1185Z" fill="#D26F61"/>
<path d="M191.528 87.0425C191.578 86.9557 191.66 86.8922 191.756 86.8659C191.853 86.8397 191.956 86.8528 192.043 86.9025C194.078 88.0677 196.635 87.3662 198.349 86.3208C199.445 85.6532 200.889 84.486 201.536 82.7196C201.553 82.6731 201.579 82.6305 201.612 82.5941C201.646 82.5576 201.686 82.5282 201.731 82.5074C201.776 82.4867 201.825 82.4749 201.874 82.473C201.924 82.471 201.973 82.4788 202.02 82.4959C202.066 82.513 202.109 82.5391 202.145 82.5727C202.182 82.6063 202.211 82.6467 202.232 82.6917C202.253 82.7366 202.265 82.7852 202.266 82.8347C202.268 82.8842 202.261 82.9336 202.244 82.9801C201.52 84.9504 199.94 86.2368 198.741 86.9657C197.518 87.7108 195.898 88.2931 194.278 88.2573C193.363 88.2469 192.465 88.0061 191.668 87.5571C191.581 87.5074 191.518 87.4253 191.491 87.3288C191.465 87.2323 191.478 87.1293 191.528 87.0425Z" fill="#D26F61"/>
<path d="M130.172 93.2709C126.16 93.4956 122.031 92.3863 118.848 89.9354C115.666 87.4844 113.498 83.6597 113.324 79.6442C113.227 77.4297 113.841 75.0087 115.621 73.6891C116.98 72.6808 118.786 72.4867 120.471 72.6332C122.812 72.8365 125.265 73.7646 126.506 75.7597L130.172 93.2709Z" fill="#F7A87E"/>
<path d="M121.395 79.1185C121.196 79.2386 121.011 79.3811 120.844 79.5432C120.114 80.2438 119.689 81.2029 119.659 82.214C119.63 83.2251 119.999 84.2074 120.686 84.9493C120.72 84.9856 120.76 85.015 120.805 85.0357C120.85 85.0564 120.899 85.0681 120.949 85.07C120.998 85.0719 121.047 85.064 121.094 85.0468C121.14 85.0296 121.183 85.0035 121.219 84.9698C121.256 84.9361 121.285 84.8956 121.306 84.8506C121.326 84.8056 121.338 84.757 121.34 84.7075C121.342 84.658 121.334 84.6086 121.317 84.5621C121.3 84.5157 121.274 84.473 121.24 84.4367C120.688 83.8399 120.392 83.0504 120.415 82.2377C120.439 81.425 120.78 80.654 121.366 80.0903C121.579 79.8858 121.903 79.6428 122.278 79.581C123.689 80.4487 124.781 81.7501 125.39 83.2903C125.418 83.3624 125.468 83.4241 125.532 83.467C125.596 83.51 125.672 83.5322 125.75 83.5307C125.794 83.5299 125.839 83.5211 125.88 83.5046C125.926 83.4867 125.968 83.4599 126.004 83.4257C126.04 83.3915 126.069 83.3506 126.089 83.3053C126.109 83.26 126.12 83.2112 126.121 83.1616C126.122 83.1121 126.113 83.0629 126.095 83.0168C125.376 81.1691 124.02 79.6398 122.272 78.7056C120.523 77.7714 118.498 77.4941 116.563 77.924C116.514 77.9347 116.468 77.9548 116.428 77.9833C116.387 78.0117 116.353 78.0478 116.326 78.0896C116.3 78.1314 116.281 78.1781 116.273 78.2269C116.264 78.2757 116.265 78.3257 116.276 78.374C116.287 78.4224 116.307 78.4682 116.335 78.5088C116.364 78.5493 116.4 78.5839 116.442 78.6105C116.484 78.6371 116.53 78.6553 116.579 78.6639C116.628 78.6724 116.678 78.6713 116.726 78.6606C118.292 78.3214 119.925 78.4816 121.395 79.1185Z" fill="#D26F61"/>
<path d="M127.807 87.0425C127.757 86.9557 127.675 86.8922 127.578 86.8659C127.482 86.8397 127.379 86.8528 127.292 86.9025C125.256 88.0677 122.7 87.3662 120.986 86.3208C119.89 85.6532 118.446 84.486 117.799 82.7196C117.782 82.6731 117.756 82.6305 117.722 82.5941C117.689 82.5576 117.648 82.5282 117.603 82.5074C117.558 82.4867 117.51 82.4749 117.46 82.473C117.411 82.471 117.361 82.4788 117.315 82.4959C117.268 82.513 117.226 82.5391 117.189 82.5727C117.153 82.6063 117.123 82.6467 117.103 82.6917C117.082 82.7366 117.07 82.7852 117.068 82.8347C117.066 82.8842 117.074 82.9336 117.091 82.9801C117.815 84.9504 119.395 86.2368 120.593 86.9657C121.817 87.7108 123.437 88.2931 125.056 88.2573C125.971 88.247 126.869 88.0061 127.667 87.5571C127.754 87.5074 127.817 87.4253 127.843 87.3288C127.87 87.2323 127.857 87.1293 127.807 87.0425Z" fill="#D26F61"/>
<path opacity="0.12" d="M177.477 87.8735C180.499 87.8735 182.949 85.4236 182.949 82.4016C182.949 79.3795 180.499 76.9297 177.477 76.9297C174.455 76.9297 172.005 79.3795 172.005 82.4016C172.005 85.4236 174.455 87.8735 177.477 87.8735Z" fill="#ED7C6D"/>
<path opacity="0.12" d="M180.566 84.7911C182.703 82.6542 182.703 79.1896 180.566 77.0527C178.429 74.9158 174.965 74.9158 172.828 77.0527C170.691 79.1896 170.691 82.6542 172.828 84.7911C174.965 86.928 178.429 86.928 180.566 84.7911Z" fill="#ED7C6D"/>
<path opacity="0.12" d="M179.766 87.8735C182.788 87.8735 185.238 85.4236 185.238 82.4016C185.238 79.3795 182.788 76.9297 179.766 76.9297C176.744 76.9297 174.294 79.3795 174.294 82.4016C174.294 85.4236 176.744 87.8735 179.766 87.8735Z" fill="#ED7C6D"/>
<path opacity="0.12" d="M177.278 89.4985C180.3 89.4985 182.75 87.0486 182.75 84.0266C182.75 81.0045 180.3 78.5547 177.278 78.5547C174.256 78.5547 171.806 81.0045 171.806 84.0266C171.806 87.0486 174.256 89.4985 177.278 89.4985Z" fill="#ED7C6D"/>
<path opacity="0.12" d="M177.795 86.5011C180.058 86.5011 181.893 84.6663 181.893 82.4029C181.893 80.1395 180.058 78.3047 177.795 78.3047C175.532 78.3047 173.697 80.1395 173.697 82.4029C173.697 84.6663 175.532 86.5011 177.795 86.5011Z" fill="#ED7C6D"/>
<path opacity="0.12" d="M178.356 85.217C179.689 85.217 180.769 84.1366 180.769 82.8038C180.769 81.4711 179.689 80.3906 178.356 80.3906C177.023 80.3906 175.943 81.4711 175.943 82.8038C175.943 84.1366 177.023 85.217 178.356 85.217Z" fill="#ED7C6D"/>
<path opacity="0.12" d="M179.042 82.4944C179.348 81.1972 178.545 79.8975 177.248 79.5914C175.951 79.2852 174.651 80.0886 174.345 81.3857C174.039 82.6828 174.842 83.9826 176.139 84.2887C177.436 84.5949 178.736 83.7915 179.042 82.4944Z" fill="#ED7C6D"/>
<path opacity="0.12" d="M179.648 83.8441C180.88 83.3341 181.464 81.9224 180.954 80.6911C180.444 79.4598 179.033 78.8751 177.801 79.3851C176.57 79.8951 175.985 81.3068 176.495 82.5381C177.005 83.7694 178.417 84.3542 179.648 83.8441Z" fill="#ED7C6D"/>
<path opacity="0.12" d="M178.402 84.6293C179.634 84.1193 180.218 82.7076 179.708 81.4763C179.198 80.245 177.787 79.6602 176.555 80.1703C175.324 80.6803 174.739 82.0919 175.249 83.3233C175.759 84.5546 177.171 85.1393 178.402 84.6293Z" fill="#ED7C6D"/>
<path opacity="0.12" d="M180.14 82.1584C180.446 80.8613 179.643 79.5616 178.346 79.2554C177.048 78.9493 175.749 79.7526 175.443 81.0498C175.136 82.3469 175.94 83.6466 177.237 83.9528C178.534 84.2589 179.834 83.4556 180.14 82.1584Z" fill="#ED7C6D"/>
<path opacity="0.05" d="M178.171 83.3232C179.123 83.3232 179.895 82.5513 179.895 81.5991C179.895 80.6469 179.123 79.875 178.171 79.875C177.219 79.875 176.447 80.6469 176.447 81.5991C176.447 82.5513 177.219 83.3232 178.171 83.3232Z" fill="#FDECE9"/>
<path opacity="0.05" d="M177.79 81.9514C178.359 81.9514 178.82 81.4901 178.82 80.921C178.82 80.352 178.359 79.8906 177.79 79.8906C177.221 79.8906 176.759 80.352 176.759 80.921C176.759 81.4901 177.221 81.9514 177.79 81.9514Z" fill="#FDECE9"/>
<path opacity="0.05" d="M178.583 81.3199C178.499 81.4311 178.385 81.515 178.254 81.5611C178.123 81.6072 177.981 81.6134 177.846 81.5789C177.712 81.5444 177.59 81.4708 177.497 81.3673C177.405 81.2638 177.345 81.1352 177.325 80.9976C177.305 80.86 177.327 80.7196 177.387 80.5943C177.447 80.469 177.543 80.3643 177.662 80.2935C177.782 80.2226 177.92 80.1888 178.059 80.1963C178.197 80.2039 178.331 80.2524 178.442 80.3357C178.516 80.3911 178.578 80.4605 178.625 80.5399C178.672 80.6193 178.703 80.7073 178.716 80.7987C178.729 80.8901 178.724 80.9831 178.701 81.0726C178.679 81.162 178.638 81.246 178.583 81.3199Z" fill="#FDECE9"/>
<path opacity="0.05" d="M178.354 81.2263C178.271 81.3378 178.156 81.422 178.025 81.4683C177.894 81.5146 177.752 81.521 177.617 81.4866C177.482 81.4522 177.361 81.3786 177.268 81.2751C177.175 81.1715 177.114 81.0427 177.095 80.905C177.075 80.7672 177.096 80.6267 177.156 80.5012C177.216 80.3757 177.312 80.2708 177.432 80.1999C177.552 80.1289 177.69 80.0951 177.829 80.1026C177.968 80.1101 178.101 80.1587 178.213 80.2422C178.362 80.354 178.461 80.5205 178.487 80.705C178.514 80.8895 178.466 81.0771 178.354 81.2263Z" fill="#FDECE9"/>
<path opacity="0.05" d="M176.799 81.3502C177.172 81.2493 177.392 80.8654 177.291 80.4928C177.19 80.1202 176.807 79.9 176.434 80.0009C176.061 80.1018 175.841 80.4857 175.942 80.8583C176.043 81.2309 176.427 81.4512 176.799 81.3502Z" fill="#FDECE9"/>
<path opacity="0.05" d="M178.442 81.2261C178.359 81.3373 178.244 81.4212 178.113 81.4673C177.982 81.5135 177.84 81.5197 177.706 81.4852C177.571 81.4507 177.45 81.377 177.357 81.2735C177.264 81.1701 177.204 81.0414 177.184 80.9038C177.165 80.7662 177.186 80.6259 177.246 80.5006C177.306 80.3752 177.402 80.2705 177.522 80.1997C177.641 80.1289 177.779 80.0951 177.918 80.1026C178.057 80.1101 178.19 80.1586 178.302 80.242C178.451 80.3539 178.549 80.5204 178.575 80.7049C178.602 80.8895 178.554 81.0769 178.442 81.2261Z" fill="#FDECE9"/>
<path opacity="0.12" d="M140.372 87.8735C143.394 87.8735 145.844 85.4236 145.844 82.4016C145.844 79.3795 143.394 76.9297 140.372 76.9297C137.35 76.9297 134.9 79.3795 134.9 82.4016C134.9 85.4236 137.35 87.8735 140.372 87.8735Z" fill="#ED7C6D"/>
<path opacity="0.12" d="M143.457 84.7911C145.594 82.6542 145.594 79.1896 143.457 77.0527C141.32 74.9158 137.855 74.9158 135.718 77.0527C133.581 79.1896 133.581 82.6542 135.718 84.7911C137.855 86.928 141.32 86.928 143.457 84.7911Z" fill="#ED7C6D"/>
<path opacity="0.12" d="M142.661 87.8735C145.683 87.8735 148.133 85.4236 148.133 82.4016C148.133 79.3795 145.683 76.9297 142.661 76.9297C139.639 76.9297 137.189 79.3795 137.189 82.4016C137.189 85.4236 139.639 87.8735 142.661 87.8735Z" fill="#ED7C6D"/>
<path opacity="0.12" d="M140.169 89.4985C143.191 89.4985 145.641 87.0486 145.641 84.0266C145.641 81.0045 143.191 78.5547 140.169 78.5547C137.147 78.5547 134.697 81.0045 134.697 84.0266C134.697 87.0486 137.147 89.4985 140.169 89.4985Z" fill="#ED7C6D"/>
<path opacity="0.12" d="M140.686 86.5011C142.949 86.5011 144.784 84.6663 144.784 82.4029C144.784 80.1395 142.949 78.3047 140.686 78.3047C138.422 78.3047 136.587 80.1395 136.587 82.4029C136.587 84.6663 138.422 86.5011 140.686 86.5011Z" fill="#ED7C6D"/>
<path opacity="0.12" d="M141.251 85.217C142.583 85.217 143.664 84.1366 143.664 82.8038C143.664 81.4711 142.583 80.3906 141.251 80.3906C139.918 80.3906 138.837 81.4711 138.837 82.8038C138.837 84.1366 139.918 85.217 141.251 85.217Z" fill="#ED7C6D"/>
<path opacity="0.12" d="M141.933 82.4944C142.239 81.1972 141.436 79.8975 140.138 79.5914C138.841 79.2852 137.542 80.0886 137.235 81.3857C136.929 82.6828 137.733 83.9826 139.03 84.2887C140.327 84.5949 141.627 83.7915 141.933 82.4944Z" fill="#ED7C6D"/>
<path opacity="0.12" d="M142.539 83.8441C143.77 83.3341 144.355 81.9224 143.845 80.6911C143.335 79.4598 141.923 78.8751 140.692 79.3851C139.461 79.8951 138.876 81.3068 139.386 82.5381C139.896 83.7694 141.308 84.3542 142.539 83.8441Z" fill="#ED7C6D"/>
<path opacity="0.12" d="M141.297 84.6293C142.528 84.1193 143.113 82.7076 142.603 81.4763C142.093 80.2449 140.681 79.6602 139.45 80.1703C138.218 80.6803 137.634 82.0919 138.144 83.3233C138.654 84.5546 140.065 85.1393 141.297 84.6293Z" fill="#ED7C6D"/>
<path opacity="0.12" d="M143.034 82.1584C143.341 80.8613 142.537 79.5616 141.24 79.2554C139.943 78.9493 138.643 79.7526 138.337 81.0498C138.031 82.3469 138.834 83.6466 140.131 83.9528C141.429 84.2589 142.728 83.4556 143.034 82.1584Z" fill="#ED7C6D"/>
<path opacity="0.05" d="M141.061 83.3232C142.014 83.3232 142.786 82.5513 142.786 81.5991C142.786 80.6469 142.014 79.875 141.061 79.875C140.109 79.875 139.337 80.6469 139.337 81.5991C139.337 82.5513 140.109 83.3232 141.061 83.3232Z" fill="#FDECE9"/>
<path opacity="0.05" d="M140.68 81.9514C141.249 81.9514 141.711 81.4901 141.711 80.921C141.711 80.352 141.249 79.8906 140.68 79.8906C140.111 79.8906 139.65 80.352 139.65 80.921C139.65 81.4901 140.111 81.9514 140.68 81.9514Z" fill="#FDECE9"/>
<path opacity="0.05" d="M141.477 81.3199C141.394 81.4311 141.279 81.515 141.148 81.5611C141.017 81.6072 140.875 81.6134 140.741 81.5789C140.606 81.5444 140.485 81.4708 140.392 81.3673C140.299 81.2638 140.239 81.1352 140.219 80.9976C140.2 80.86 140.221 80.7196 140.281 80.5943C140.342 80.469 140.437 80.3643 140.557 80.2935C140.677 80.2226 140.814 80.1888 140.953 80.1963C141.092 80.2039 141.225 80.2524 141.337 80.3357C141.411 80.3911 141.473 80.4605 141.52 80.5399C141.567 80.6193 141.598 80.7073 141.611 80.7987C141.624 80.8901 141.619 80.9831 141.596 81.0726C141.573 81.162 141.533 81.246 141.477 81.3199Z" fill="#FDECE9"/>
<path opacity="0.05" d="M141.247 81.2261C141.163 81.3373 141.049 81.4212 140.918 81.4673C140.787 81.5135 140.645 81.5197 140.51 81.4852C140.376 81.4507 140.254 81.377 140.161 81.2735C140.069 81.1701 140.009 81.0414 139.989 80.9038C139.969 80.7662 139.991 80.6259 140.051 80.5006C140.111 80.3752 140.207 80.2705 140.327 80.1997C140.446 80.1289 140.584 80.0951 140.723 80.1026C140.862 80.1101 140.995 80.1586 141.106 80.242C141.255 80.3539 141.354 80.5204 141.38 80.7049C141.407 80.8895 141.359 81.0769 141.247 81.2261Z" fill="#FDECE9"/>
<path opacity="0.05" d="M141.176 81.5762C141.55 81.4737 141.77 81.0871 141.668 80.7127C141.565 80.3384 141.179 80.118 140.804 80.2206C140.43 80.3231 140.21 80.7097 140.312 81.0841C140.415 81.4584 140.801 81.6788 141.176 81.5762Z" fill="#FDECE9"/>
<path opacity="0.05" d="M141.335 81.2263C141.251 81.3378 141.137 81.422 141.006 81.4683C140.874 81.5146 140.732 81.521 140.597 81.4866C140.463 81.4522 140.341 81.3786 140.248 81.2751C140.155 81.1715 140.095 81.0427 140.075 80.905C140.055 80.7672 140.077 80.6267 140.137 80.5012C140.197 80.3757 140.293 80.2708 140.413 80.1999C140.532 80.1289 140.67 80.0951 140.809 80.1026C140.948 80.1101 141.082 80.1587 141.193 80.2422C141.342 80.354 141.441 80.5205 141.468 80.705C141.494 80.8895 141.446 81.0771 141.335 81.2263Z" fill="#FDECE9"/>
<path d="M154.83 78.2812C154.83 78.2969 154.83 78.3119 154.83 78.3275C154.845 79.7459 155.42 81.101 156.428 82.0985C157.437 83.096 158.798 83.6555 160.216 83.6555C161.635 83.6555 162.996 83.096 164.005 82.0985C165.013 81.101 165.588 79.7459 165.603 78.3275C165.603 78.3119 165.603 78.2969 165.603 78.2812H154.83Z" fill="#F17D6F"/>
<path d="M252.837 143.625C252.322 141.432 252.52 138.59 251.84 136.747C260.667 120.264 259.958 104.785 257.095 95.4686C254.232 86.1526 241.788 80.8839 237.229 94.5672C234.964 101.367 225.436 129.198 221.977 136.301C219.915 146.488 219.105 157.137 219.431 167.706C222.255 166.319 225.011 164.784 227.682 163.163C237.096 157.456 245.032 151.393 252.837 143.625Z" fill="#F7A87E"/>
<path d="M230.761 286.917L192.779 253.794C164.006 285.077 115.394 287.923 83.1574 259.834C50.9211 231.744 47.1496 183.171 74.228 150.409L36.2459 117.286C-9.1261 171.026 -3.13342 251.405 50.0566 297.79C103.247 344.175 183.694 339.178 230.761 286.917Z" fill="#FF9149"/>
<path d="M266.195 34.1914H267.578V43.5677H266.195C266.056 43.5677 265.918 43.5403 265.789 43.487C265.66 43.4337 265.543 43.3556 265.445 43.2571C265.346 43.1586 265.268 43.0417 265.215 42.913C265.162 42.7843 265.134 42.6464 265.134 42.5072V35.2519C265.134 34.9707 265.246 34.7009 265.445 34.502C265.644 34.3031 265.914 34.1914 266.195 34.1914Z" fill="#333333"/>
<path d="M266.195 52.6094H267.578V70.0893H266.195C265.914 70.0893 265.644 69.9776 265.445 69.7787C265.246 69.5798 265.134 69.3101 265.134 69.0288V53.6699C265.134 53.3886 265.246 53.1189 265.445 52.92C265.644 52.7211 265.914 52.6094 266.195 52.6094Z" fill="#333333"/>
<path d="M388.742 85.8555H387.358V58.7456H388.742C389.023 58.7456 389.293 58.8574 389.492 59.0563C389.691 59.2551 389.802 59.5249 389.802 59.8061V84.795C389.802 85.0762 389.691 85.346 389.492 85.5449C389.293 85.7437 389.023 85.8555 388.742 85.8555Z" fill="#333333"/>
<path d="M266.195 74.9766H267.578V92.4565H266.195C265.914 92.4565 265.644 92.3448 265.445 92.1459C265.246 91.947 265.134 91.6773 265.134 91.396V76.0371C265.134 75.7558 265.246 75.4861 265.445 75.2872C265.644 75.0883 265.914 74.9766 266.195 74.9766Z" fill="#333333"/>
<path d="M370.225 0.757812H284.708C274.573 0.757812 266.357 8.97402 266.357 19.1092V230.406C266.357 240.542 274.573 248.758 284.708 248.758H370.225C380.36 248.758 388.576 240.542 388.576 230.406V19.1092C388.576 8.97402 380.36 0.757812 370.225 0.757812Z" fill="#444444"/>
<path d="M370.225 2.90625H284.707C275.757 2.90625 268.501 10.1615 268.501 19.1113V230.411C268.501 239.361 275.757 246.616 284.707 246.616H370.225C379.175 246.616 386.43 239.361 386.43 230.411V19.1113C386.43 10.1615 379.175 2.90625 370.225 2.90625Z" fill="#444444"/>
<path d="M370.226 3.03906H284.707C275.833 3.03906 268.638 10.2334 268.638 19.1081V230.408C268.638 239.282 275.833 246.477 284.707 246.477H370.226C379.1 246.477 386.295 239.282 386.295 230.408V19.1081C386.295 10.2334 379.1 3.03906 370.226 3.03906Z" fill="#434343"/>
<path d="M370.226 3.17578H284.708C275.908 3.17578 268.775 10.3092 268.775 19.1088V230.408C268.775 239.208 275.908 246.341 284.708 246.341H370.226C379.026 246.341 386.159 239.208 386.159 230.408V19.1088C386.159 10.3092 379.026 3.17578 370.226 3.17578Z" fill="#414141"/>
<path d="M370.223 3.3125H284.705C275.98 3.3125 268.908 10.385 268.908 19.1095V230.409C268.908 239.133 275.98 246.206 284.705 246.206H370.223C378.948 246.206 386.02 239.133 386.02 230.409V19.1095C386.02 10.385 378.948 3.3125 370.223 3.3125Z" fill="#404040"/>
<path d="M370.224 3.44922H284.705C276.056 3.44922 269.044 10.4609 269.044 19.1102V230.41C269.044 239.059 276.056 246.071 284.705 246.071H370.224C378.873 246.071 385.885 239.059 385.885 230.41V19.1102C385.885 10.4609 378.873 3.44922 370.224 3.44922Z" fill="#3E3E3E"/>
<path d="M370.225 3.58594H284.706C276.132 3.58594 269.181 10.5367 269.181 19.1109V230.41C269.181 238.985 276.132 245.935 284.706 245.935H370.225C378.799 245.935 385.75 238.985 385.75 230.41V19.1109C385.75 10.5367 378.799 3.58594 370.225 3.58594Z" fill="#3D3D3D"/>
<path d="M370.223 3.71875H284.707C276.208 3.71875 269.318 10.6086 269.318 19.1077V230.405C269.318 238.904 276.208 245.794 284.707 245.794H370.223C378.722 245.794 385.612 238.904 385.612 230.405V19.1077C385.612 10.6086 378.722 3.71875 370.223 3.71875Z" fill="#3B3B3B"/>
<path d="M370.224 3.85547H284.707C276.284 3.85547 269.455 10.6844 269.455 19.1084V230.406C269.455 238.83 276.284 245.658 284.707 245.658H370.224C378.648 245.658 385.477 238.83 385.477 230.406V19.1084C385.477 10.6844 378.648 3.85547 370.224 3.85547Z" fill="#3A3A3A"/>
<path d="M370.224 3.99219H284.708C276.359 3.99219 269.591 10.7602 269.591 19.109V230.406C269.591 238.755 276.359 245.523 284.708 245.523H370.224C378.573 245.523 385.341 238.755 385.341 230.406V19.109C385.341 10.7602 378.573 3.99219 370.224 3.99219Z" fill="#393939"/>
<path d="M370.225 4.13281H284.709C276.435 4.13281 269.728 10.84 269.728 19.1137V230.411C269.728 238.685 276.435 245.392 284.709 245.392H370.225C378.499 245.392 385.206 238.685 385.206 230.411V19.1137C385.206 10.84 378.499 4.13281 370.225 4.13281Z" fill="#373737"/>
<path d="M370.222 4.26562H284.706C276.507 4.26562 269.861 10.9119 269.861 19.1104V230.408C269.861 238.606 276.507 245.252 284.706 245.252H370.222C378.42 245.252 385.067 238.606 385.067 230.408V19.1104C385.067 10.9119 378.42 4.26562 370.222 4.26562Z" fill="#363636"/>
<path d="M370.226 4.40234H284.71C276.587 4.40234 270.001 10.9877 270.001 19.1111V230.408C270.001 238.532 276.587 245.117 284.71 245.117H370.226C378.35 245.117 384.935 238.532 384.935 230.408V19.1111C384.935 10.9877 378.35 4.40234 370.226 4.40234Z" fill="#343434"/>
<path d="M370.223 4.53906H284.705C276.658 4.53906 270.134 11.0625 270.134 19.1095V230.409C270.134 238.456 276.658 244.98 284.705 244.98H370.223C378.27 244.98 384.794 238.456 384.794 230.409V19.1095C384.794 11.0625 378.27 4.53906 370.223 4.53906Z" fill="#333333"/>
<path d="M370.223 4.67578H284.705C276.733 4.67578 270.271 11.1383 270.271 19.1102V230.41C270.271 238.382 276.733 244.844 284.705 244.844H370.223C378.195 244.844 384.658 238.382 384.658 230.41V19.1102C384.658 11.1383 378.195 4.67578 370.223 4.67578Z" fill="#313131"/>
<path d="M370.225 4.8125H284.706C276.809 4.8125 270.408 11.2141 270.408 19.1109V230.41C270.408 238.307 276.809 244.709 284.706 244.709H370.225C378.121 244.709 384.523 238.307 384.523 230.41V19.1109C384.523 11.2141 378.121 4.8125 370.225 4.8125Z" fill="#303030"/>
<path d="M370.221 4.94531H284.703C276.881 4.94531 270.541 11.286 270.541 19.1077V230.407C270.541 238.229 276.881 244.57 284.703 244.57H370.221C378.043 244.57 384.384 238.229 384.384 230.407V19.1077C384.384 11.286 378.043 4.94531 370.221 4.94531Z" fill="#2F2F2F"/>
<path d="M370.226 5.08203H284.708C276.961 5.08203 270.681 11.3619 270.681 19.1084V230.408C270.681 238.154 276.961 244.434 284.708 244.434H370.226C377.973 244.434 384.252 238.154 384.252 230.408V19.1084C384.252 11.3619 377.973 5.08203 370.226 5.08203Z" fill="#2D2D2D"/>
<path d="M370.223 5.21875H284.704C277.033 5.21875 270.814 11.4377 270.814 19.1091V230.409C270.814 238.08 277.033 244.299 284.704 244.299H370.223C377.894 244.299 384.113 238.08 384.113 230.409V19.1091C384.113 11.4377 377.894 5.21875 370.223 5.21875Z" fill="#2C2C2C"/>
<path d="M370.225 5.35547H284.709C277.113 5.35547 270.955 11.5135 270.955 19.1098V230.407C270.955 238.003 277.113 244.161 284.709 244.161H370.225C377.821 244.161 383.979 238.003 383.979 230.407V19.1098C383.979 11.5135 377.821 5.35547 370.225 5.35547Z" fill="#2A2A2A"/>
<path d="M370.222 5.49219H284.706C277.185 5.49219 271.087 11.5893 271.087 19.1105V230.408C271.087 237.929 277.185 244.026 284.706 244.026H370.222C377.743 244.026 383.84 237.929 383.84 230.408V19.1105C383.84 11.5893 377.743 5.49219 370.222 5.49219Z" fill="#292929"/>
<path d="M370.227 5.625H284.71C277.264 5.625 271.228 11.6612 271.228 19.1073V230.404C271.228 237.851 277.264 243.887 284.71 243.887H370.227C377.673 243.887 383.709 237.851 383.709 230.404V19.1073C383.709 11.6612 377.673 5.625 370.227 5.625Z" fill="#272727"/>
<path d="M370.223 5.76562H284.707C277.336 5.76562 271.361 11.741 271.361 19.1119V230.409C271.361 237.78 277.336 243.755 284.707 243.755H370.223C377.594 243.755 383.57 237.78 383.57 230.409V19.1119C383.57 11.741 377.594 5.76562 370.223 5.76562Z" fill="#262626"/>
<path d="M370.222 3.61736C374.329 3.62164 378.267 5.25502 381.171 8.1591C384.075 11.0632 385.708 15.0007 385.713 19.1077V230.407C385.708 234.514 384.075 238.452 381.171 241.356C378.267 244.26 374.329 245.893 370.222 245.898H284.706C280.599 245.893 276.661 244.26 273.757 241.356C270.852 238.452 269.218 234.514 269.213 230.407V19.1077C269.218 15.0005 270.852 11.063 273.757 8.15896C276.661 5.25495 280.599 3.62164 284.706 3.61736H370.222ZM370.222 2.73438H284.706C280.367 2.74047 276.207 4.46699 273.138 7.5354C270.07 10.6038 268.344 14.7637 268.337 19.1031V230.403C268.344 234.742 270.07 238.902 273.138 241.97C276.207 245.039 280.367 246.765 284.706 246.771H370.222C374.562 246.765 378.722 245.039 381.79 241.97C384.858 238.902 386.585 234.742 386.591 230.403V19.1077C386.585 14.7683 384.858 10.6084 381.79 7.54001C378.722 4.4716 374.562 2.74508 370.222 2.73898V2.73438Z" fill="#2D2C2C"/>
<mask id="mask0_217_2770" style="mask-type:luminance" maskUnits="userSpaceOnUse" x="273" y="7" width="109" height="235">
<path d="M370.224 7.91016H359.105C358.761 7.91016 358.432 8.04635 358.189 8.28883C357.946 8.53132 357.81 8.86028 357.809 9.20351V9.3649C357.81 10.3292 357.622 11.2844 357.254 12.1758C356.886 13.0672 356.346 13.8772 355.664 14.5597C354.983 15.2421 354.174 15.7835 353.283 16.1529C352.392 16.5222 351.437 16.7124 350.473 16.7124H304.096C302.151 16.7124 300.285 15.9395 298.909 14.5637C297.533 13.188 296.76 11.322 296.76 9.37642V9.21504C296.76 8.87202 296.624 8.54305 296.382 8.3005C296.139 8.05795 295.81 7.92168 295.467 7.92168H284.708C283.237 7.92138 281.78 8.21085 280.421 8.77356C279.062 9.33627 277.827 10.1612 276.787 11.2012C275.746 12.2413 274.921 13.476 274.358 14.835C273.795 16.194 273.505 17.6506 273.505 19.1216V230.421C273.505 231.892 273.795 233.349 274.358 234.708C274.921 236.067 275.746 237.301 276.787 238.341C277.827 239.381 279.062 240.206 280.421 240.769C281.78 241.332 283.237 241.621 284.708 241.621H370.224C373.194 241.621 376.043 240.441 378.143 238.341C380.244 236.24 381.424 233.391 381.424 230.421V19.11C381.424 16.1397 380.244 13.2909 378.143 11.1905C376.043 9.09014 373.194 7.91016 370.224 7.91016Z" fill="white"/>
</mask>
<g mask="url(#mask0_217_2770)">
<path d="M381.42 7.91016H273.501V241.609H381.42V7.91016Z" fill="#9EA6FF"/>
<path d="M273.273 241.839V56.6141H271.728C272.65 55.1786 273.572 53.7415 274.495 52.3029C276.368 49.4288 278.289 46.5562 280.258 43.6852C284.201 37.9492 288.333 32.237 292.655 26.5487C296.977 20.8604 301.382 15.3527 305.869 10.0255C306.43 9.36001 306.991 8.69681 307.552 8.03591C307.831 7.70393 308.111 7.37425 308.394 7.04688V7.68318H381.652V213.56H383.035C381.849 214.524 380.662 215.475 379.476 216.414C374.727 220.168 369.984 223.703 365.249 227.019C360.513 230.336 355.806 233.424 351.126 236.283C348.786 237.712 346.455 239.082 344.133 240.393C342.971 241.048 341.813 241.688 340.659 242.314V241.839H273.273Z" fill="#9EA6FF"/>
<path d="M273.275 241.839V56.9165H272.751C273.655 55.4948 274.571 54.0716 275.5 52.6468C277.356 49.8019 279.26 46.9585 281.21 44.1166C285.111 38.439 289.201 32.7853 293.48 27.1554C297.759 21.5255 302.114 16.0731 306.547 10.7982C307.654 9.47946 308.765 8.17303 309.881 6.87891V7.6789H381.654V212.246H382.911C381.738 213.201 380.564 214.142 379.388 215.071C374.689 218.784 369.996 222.282 365.309 225.565C356.44 231.821 347.167 237.483 337.551 242.515V241.839H273.275Z" fill="#9FA7FF"/>
<path d="M273.271 241.841V59.3319H272.439C272.879 58.628 273.323 57.924 273.772 57.2201C274.666 55.8107 275.572 54.4021 276.49 52.9942C278.334 50.18 280.218 47.3674 282.14 44.5562C286.003 38.9371 290.05 33.3425 294.283 27.7725C298.516 22.2026 302.826 16.807 307.214 11.5859C308.312 10.2811 309.412 8.98693 310.514 7.70356L311.344 6.74219V7.68051H381.66V210.932H382.79C381.628 211.874 380.465 212.805 379.301 213.726C374.651 217.401 370.007 220.859 365.37 224.1C356.593 230.291 347.417 235.894 337.9 240.873C336.775 241.457 335.653 242.025 334.534 242.579V241.829L273.271 241.841Z" fill="#A0A7FE"/>
<path d="M273.27 241.841V61.7016H272.166C279.057 50.5501 286.706 39.3963 295.082 28.3832C299.27 22.8762 303.535 17.5375 307.877 12.3672C308.953 11.0761 310.041 9.79583 311.142 8.5263C311.687 7.88999 312.234 7.25753 312.783 6.62891V7.6802H381.649V209.613H382.65C381.502 210.549 380.349 211.471 379.192 212.379C374.59 216.017 369.994 219.443 365.405 222.657C356.721 228.783 347.642 234.328 338.226 239.256C335.999 240.41 333.785 241.506 331.584 242.544V241.852L273.27 241.841Z" fill="#A1A8FE"/>
<path d="M273.27 241.84V61.9566H273.212C280.032 50.925 287.598 39.8888 295.887 28.9886C300.036 23.5415 304.255 18.2598 308.543 13.1432C309.619 11.866 310.695 10.5987 311.771 9.34148C312.313 8.7144 312.852 8.08962 313.385 7.46484V7.67464H381.626V208.295H382.5C381.361 209.217 380.223 210.13 379.086 211.032C374.535 214.631 369.988 218.02 365.447 221.199C356.855 227.259 347.872 232.744 338.556 237.618C336.352 238.762 334.162 239.846 331.985 240.871C330.897 241.386 329.813 241.884 328.732 242.365V241.84H273.27Z" fill="#A2A8FD"/>
<path d="M273.273 241.841V66.3084H271.767C272.588 64.9436 273.419 63.5795 274.262 62.2162C281.007 51.3022 288.493 40.3859 296.691 29.6056C300.79 24.2154 304.965 18.9897 309.215 13.9285C311.336 11.4017 313.473 8.91644 315.626 6.47266V7.67841H381.652V206.978H382.397C381.272 207.9 380.146 208.802 379.019 209.685C374.517 213.244 370.02 216.597 365.528 219.743C357.028 225.738 348.141 231.163 338.925 235.985C334.568 238.248 330.264 240.276 326.014 242.072V241.841H273.273Z" fill="#A3A9FD"/>
<path d="M273.272 240.267V66.5098H272.841C273.653 65.1588 274.476 63.8094 275.31 62.4615C281.982 51.6673 289.388 40.8686 297.496 30.2059C301.549 24.8756 305.677 19.7076 309.881 14.7017C311.982 12.201 314.097 9.74187 316.225 7.32422V7.66773H381.652V205.651H382.27C381.155 206.555 380.042 207.447 378.929 208.328C374.472 211.847 370.023 215.164 365.583 218.278C357.175 224.208 348.386 229.576 339.271 234.347C334.959 236.583 330.701 238.59 326.496 240.366C324.397 241.253 322.314 242.082 320.248 242.852V241.833H273.272V240.267Z" fill="#A4AAFC"/>
<path d="M273.271 238.571V68.7328H272.72C273.117 68.0642 273.515 67.3972 273.914 66.7317C274.717 65.3976 275.531 64.0627 276.356 62.7271C282.954 52.0528 290.279 41.3717 298.297 30.8265C302.305 25.5532 306.389 20.442 310.548 15.4929C312.623 13.0184 314.714 10.5869 316.821 8.19849C317.347 7.60214 317.874 7.00733 318.403 6.41406V7.67976H381.651V204.347H382.139C381.039 205.241 379.938 206.123 378.836 206.993C374.431 210.474 370.031 213.752 365.637 216.826C357.322 222.695 348.628 228.01 339.613 232.734C331.083 237.155 322.749 240.68 314.714 243.244V241.861H273.271V238.571Z" fill="#A6AAFC"/>
<path d="M273.273 236.885V70.8919H272.646C274.183 68.2545 275.769 65.6163 277.404 62.9773C283.931 52.4183 291.173 41.857 299.103 31.4295C303.069 26.2161 307.106 21.1617 311.216 16.2665C313.271 13.8212 315.339 11.4166 317.42 9.05274C317.941 8.46254 318.463 7.87465 318.986 7.28906V7.67177H381.652V203.02H382.014C380.923 203.905 379.834 204.778 378.748 205.639C374.39 209.083 370.039 212.327 365.694 215.37C357.471 221.168 348.875 226.418 339.961 231.084C331.527 235.464 323.283 238.943 315.348 241.477C313.365 242.112 311.402 242.686 309.459 243.199V241.832H273.264L273.273 236.885Z" fill="#A7ABFB"/>
<path d="M273.273 235.177V73.0201H272.611C272.986 72.37 273.364 71.7191 273.745 71.0674C275.268 68.4545 276.837 65.8455 278.451 63.2404C284.906 52.8013 292.064 42.3576 299.905 32.0476C303.826 26.8926 307.822 21.8974 311.893 17.0621C313.922 14.6429 315.967 12.2652 318.028 9.92904C319.057 8.76248 320.089 7.60515 321.125 6.45703V7.68584H381.652V201.717H381.882C380.807 202.594 379.731 203.457 378.655 204.306C374.351 207.711 370.048 210.918 365.744 213.927C357.614 219.661 349.114 224.852 340.299 229.466C331.962 233.789 323.808 237.235 315.965 239.744C312.179 240.961 308.331 241.979 304.438 242.791V241.846H273.273V235.177Z" fill="#A8ABFB"/>
<path d="M273.273 233.48V75.095H272.621C273.351 73.8086 274.093 72.5206 274.848 71.2311C276.354 68.6536 277.905 66.0746 279.5 63.494C285.877 53.1748 292.957 42.8509 300.71 32.6562C304.585 27.5596 308.533 22.6198 312.556 17.8368C314.554 15.4468 316.574 13.0968 318.617 10.7867C319.634 9.63089 320.655 8.48585 321.678 7.35156V7.67894H381.652V200.394H381.758C380.693 201.259 379.628 202.112 378.563 202.953C374.306 206.319 370.053 209.49 365.805 212.465C357.766 218.134 349.362 223.266 340.648 227.827C324.164 236.375 308.408 241.459 294.363 242.582C287.339 243.137 280.743 242.699 274.698 241.198C273.942 241.012 273.194 240.81 272.455 240.59H273.273V233.48Z" fill="#A9ACFA"/>
<path d="M273.271 231.783V77.1312H272.669C273.024 76.4949 273.383 75.8586 273.746 75.2223C274.466 73.9497 275.199 72.6763 275.945 71.4022C277.434 68.8539 278.971 66.3048 280.556 63.755C286.861 53.5534 293.858 43.3471 301.522 33.27C305.341 28.2256 309.24 23.3419 313.217 18.6188C315.2 16.2565 317.198 13.9334 319.211 11.6494C320.217 10.509 321.226 9.37778 322.238 8.25579C322.746 7.6948 323.253 7.13688 323.76 6.58203V7.67943H381.65V197.785H383.206L381.627 199.078C380.576 199.934 379.524 200.78 378.471 201.614C374.261 204.94 370.057 208.074 365.858 211.016C357.912 216.619 349.605 221.691 340.991 226.2C324.694 234.649 309.12 239.675 295.237 240.772C288.295 241.323 281.773 240.89 275.797 239.412C275.05 239.228 274.312 239.027 273.582 238.81C273.216 238.701 272.853 238.588 272.494 238.472H273.271V231.783Z" fill="#AAADFA"/>
<path d="M273.274 230.086V79.1182H272.765C275.531 74.0954 278.475 69.0603 281.595 64.0129C287.819 53.9288 294.736 43.8425 302.318 33.8829C306.104 28.9047 309.96 24.0778 313.887 19.4024C315.848 17.0677 317.823 14.7715 319.812 12.5137C320.808 11.384 321.807 10.2658 322.809 9.15922C323.309 8.60591 323.81 8.05414 324.312 7.50391V7.68143H381.654V196.498H383.062C382.544 196.925 382.025 197.35 381.504 197.773C380.462 198.62 379.421 199.454 378.382 200.277C374.223 203.564 370.068 206.661 365.917 209.568C358.063 215.106 349.852 220.12 341.338 224.576C325.237 232.917 309.839 237.883 296.117 238.96C289.256 239.502 282.812 239.075 276.903 237.616C275.424 237.252 273.982 236.822 272.576 236.327H273.267L273.274 230.086Z" fill="#ABADF9"/>
<path d="M273.272 228.386V82.9115H271.889C272.552 81.6742 273.225 80.4346 273.909 79.1927C276.648 74.2299 279.557 69.2539 282.637 64.2649C288.795 54.3008 295.631 44.332 303.114 34.4923C310.598 24.6526 318.386 15.3985 326.342 6.79688V7.67064H381.652V195.173H382.915C382.4 195.597 381.886 196.018 381.373 196.434C380.345 197.272 379.317 198.097 378.29 198.908C374.178 202.157 370.071 205.218 365.97 208.091C358.209 213.563 350.096 218.518 341.682 222.922C325.763 231.175 310.559 236.084 296.991 237.158C290.211 237.693 283.85 237.271 278.003 235.828C276.543 235.468 275.118 235.044 273.727 234.555C273.03 234.308 272.343 234.046 271.666 233.771H273.279L273.272 228.386Z" fill="#ACAEF9"/>
<path d="M273.274 226.691V82.9479H273.069C273.724 81.726 274.39 80.5011 275.068 79.273C277.773 74.3686 280.647 69.4503 283.69 64.5181C289.774 54.6715 296.529 44.8226 303.925 35.0982C311.321 25.3738 319.012 16.2511 326.871 7.74631C327.363 7.21298 327.855 6.68426 328.347 6.16016V7.67945H381.653V193.879H382.769C382.262 194.299 381.754 194.715 381.245 195.127C380.231 195.952 379.216 196.767 378.2 197.571C374.138 200.78 370.08 203.804 366.027 206.642C358.359 212.051 350.341 216.947 342.027 221.298C326.299 229.455 311.27 234.303 297.869 235.362C291.169 235.892 284.877 235.474 279.109 234.05C277.666 233.692 276.257 233.271 274.881 232.789C274.194 232.549 273.515 232.291 272.845 232.016H273.274V226.691Z" fill="#ADAEF8"/>
<path d="M273.273 224.992V86.6046H272.335C273.587 84.1931 274.881 81.7747 276.217 79.3494C278.89 74.5064 281.733 69.6496 284.747 64.7789C290.76 55.0522 297.427 45.3209 304.74 35.714C312.053 26.1072 319.64 17.0768 327.407 8.6849C327.895 8.15925 328.381 7.63668 328.867 7.11719V7.67741H381.662V192.575H382.632C382.13 192.99 381.628 193.401 381.127 193.808C380.125 194.624 379.121 195.429 378.116 196.222C374.101 199.394 370.093 202.382 366.091 205.186C358.514 210.528 350.594 215.364 342.381 219.664C326.842 227.733 311.993 232.512 298.755 233.561C292.134 234.085 285.918 233.672 280.219 232.263C277.416 231.578 274.687 230.618 272.072 229.398H273.282L273.273 224.992Z" fill="#AEAFF8"/>
<path d="M273.272 223.296V90.1657H271.708C272.306 88.9776 272.914 87.788 273.532 86.5969C274.762 84.213 276.04 81.8246 277.366 79.4315C280.005 74.6438 282.81 69.8454 285.781 65.0362C291.72 55.4271 298.311 45.8157 305.53 36.3264C312.748 26.8372 320.25 17.9151 327.922 9.62696C328.881 8.58951 329.843 7.56281 330.807 6.54688V7.67885H381.651V191.276H382.474C381.979 191.685 381.483 192.091 380.987 192.493C379.997 193.299 379.007 194.093 378.015 194.877C374.05 198.011 370.09 200.963 366.135 203.732C358.651 209.006 350.827 213.781 342.714 218.026C327.364 225.985 312.697 230.706 299.621 231.753C293.082 232.269 286.941 231.864 281.311 230.471C278.542 229.794 275.847 228.846 273.265 227.64L273.272 223.296Z" fill="#AFB0F7"/>
<path d="M273.275 221.599V90.1117H272.934C273.524 88.9375 274.124 87.7625 274.734 86.5867C275.956 84.2321 277.219 81.8728 278.522 79.5089C281.135 74.7812 283.901 70.042 286.822 65.2912C292.687 55.802 299.197 46.3081 306.326 36.9341C313.454 27.5601 320.862 18.751 328.44 10.5643C329.386 9.54071 330.336 8.52708 331.289 7.52344V7.6756H381.654V189.972H382.332C381.84 190.377 381.351 190.777 380.863 191.174C379.884 191.971 378.905 192.757 377.926 193.53C374.012 196.624 370.101 199.539 366.194 202.274C358.803 207.488 351.075 212.206 343.061 216.4C327.903 224.261 313.415 228.935 300.5 229.958C294.045 230.468 287.977 230.067 282.416 228.693C279.682 228.023 277.02 227.086 274.469 225.896C273.839 225.601 273.219 225.294 272.611 224.974H273.275V221.599Z" fill="#B0B0F7"/>
<path d="M273.273 219.901V93.5296H272.44C281.432 75.0398 293.058 56.0613 307.138 37.5486C314.176 28.2922 321.494 19.5937 328.977 11.5084C329.913 10.4956 330.851 9.49655 331.792 8.51135L333.203 7.03125V7.686H381.652V188.671H382.18C381.699 189.071 381.216 189.466 380.73 189.858C379.763 190.645 378.796 191.421 377.83 192.185C373.967 195.24 370.106 198.119 366.247 200.821C358.948 205.967 351.317 210.627 343.405 214.769C328.435 222.531 314.125 227.147 301.374 228.157C294.997 228.661 289.007 228.265 283.516 226.907C280.818 226.245 278.193 225.318 275.677 224.14C274.439 223.559 273.231 222.913 272.06 222.206H273.282L273.273 219.901Z" fill="#B1B1F6"/>
<path d="M273.275 218.209V96.8496H272.048C272.583 95.7122 273.127 94.5734 273.681 93.4329C282.554 75.1829 294.042 56.4373 307.947 38.1527C314.895 29.0139 322.121 20.4238 329.509 12.4423C331.354 10.4442 333.211 8.48691 335.079 6.57031V7.67232H381.65V187.371H382.035C381.557 187.763 381.08 188.155 380.603 188.542C379.649 189.318 378.694 190.087 377.74 190.848C373.922 193.865 370.109 196.708 366.3 199.378C359.094 204.455 351.561 209.052 343.75 213.137C328.97 220.802 314.847 225.356 302.252 226.356C295.956 226.854 290.033 226.46 284.622 225.12C281.956 224.47 279.36 223.557 276.874 222.395C275.65 221.821 274.458 221.184 273.3 220.487C273.013 220.311 272.726 220.132 272.44 219.949H273.275V218.209Z" fill="#B2B1F6"/>
<path d="M273.271 216.509V100.07H271.748C272.762 97.8338 273.816 95.5899 274.911 93.3382C283.671 75.3211 295.012 56.8152 308.734 38.7727C315.595 29.7515 322.728 21.272 330.02 13.392C331.845 11.42 333.678 9.4873 335.521 7.59375V7.68136H381.651V186.071H381.881C381.42 186.458 380.941 186.845 380.468 187.223C379.528 187.992 378.585 188.747 377.642 189.489C373.873 192.468 370.107 195.274 366.345 197.907C359.231 202.926 351.794 207.47 344.081 211.509C329.49 219.075 315.547 223.576 303.113 224.558C296.889 225.049 291.06 224.662 285.709 223.34C283.077 222.697 280.515 221.795 278.06 220.648C276.852 220.083 275.676 219.454 274.535 218.764C273.963 218.418 273.401 218.058 272.85 217.683H273.26L273.271 216.509Z" fill="#B3B2F5"/>
<path d="M273.273 214.812V99.8828H273.042C274.043 97.6788 275.084 95.4648 276.166 93.2408C284.812 75.4588 296.005 57.1927 309.549 39.383C316.32 30.4794 323.359 22.1106 330.559 14.332C332.358 12.3862 334.168 10.4788 335.986 8.60984C336.447 8.14874 336.908 7.68765 337.351 7.22656V7.68765H381.652V183.617H383.137C381.279 185.162 379.423 186.672 377.569 188.147C373.848 191.087 370.133 193.854 366.422 196.447C359.4 201.398 352.059 205.88 344.447 209.864C315.645 224.802 289.397 227.628 272.533 214.803L273.273 214.812Z" fill="#B5B3F5"/>
<path d="M273.822 213.113C273.304 212.716 272.794 212.308 272.298 211.889H273.28V102.954H272.884C273.356 101.865 273.836 100.783 274.325 99.7075C275.315 97.5312 276.342 95.3456 277.407 93.1508C285.937 75.604 296.985 57.5776 310.35 40.0032C317.036 31.2171 323.98 22.9566 331.085 15.2818C332.86 13.3636 334.646 11.4816 336.441 9.63572C337.337 8.71353 338.236 7.79981 339.138 6.89453V7.68991H381.651V182.321H382.972C381.137 183.858 379.301 185.351 377.466 186.798C373.796 189.699 370.13 192.431 366.467 194.997C359.537 199.884 352.292 204.307 344.78 208.239C316.356 222.98 290.456 225.77 273.822 213.113Z" fill="#B6B3F5"/>
<path d="M275.104 211.416C274.082 210.639 273.102 209.807 272.169 208.924H273.271V105.932H272.81C274.602 101.676 276.551 97.3821 278.657 93.0494C287.074 75.7354 297.974 57.9511 311.164 40.6095C317.757 31.9387 324.612 23.7912 331.62 16.2178C333.372 14.3243 335.134 12.4668 336.907 10.6455C337.789 9.73717 338.676 8.83651 339.567 7.94353C340.012 7.49858 340.457 7.05362 340.902 6.61328V7.68532H381.651V181.035H382.804C380.993 182.547 379.182 184.02 377.372 185.452C373.752 188.315 370.136 191.011 366.522 193.54C359.686 198.361 352.538 202.726 345.126 206.605C317.08 221.152 291.524 223.902 275.104 211.416Z" fill="#B7B4F4"/>
<path d="M276.397 209.718C275.389 208.952 274.422 208.132 273.502 207.262C273.041 206.829 272.593 206.382 272.158 205.925H273.274V108.794H272.831C273.255 107.751 273.688 106.704 274.129 105.654C275.895 101.457 277.816 97.2207 279.893 92.9464C288.192 75.8653 298.949 58.3208 311.957 41.2143C318.463 32.6611 325.222 24.6151 332.139 17.1523C335.597 13.4175 339.088 9.82633 342.612 6.37891V7.67919H381.653V179.749H382.642C380.858 181.241 379.072 182.694 377.284 184.106C373.711 186.931 370.142 189.592 366.578 192.088C359.833 196.843 352.781 201.149 345.469 204.975C317.806 219.322 292.596 222.038 276.397 209.718Z" fill="#B8B4F4"/>
<path d="M277.688 208.023C275.698 206.511 273.876 204.791 272.251 202.893H273.273V111.56H272.95C273.746 109.513 274.579 107.454 275.449 105.384C277.192 101.243 279.088 97.0649 281.137 92.8489C289.326 76.003 299.931 58.7006 312.763 41.8269C319.179 33.3913 325.846 25.4582 332.666 18.0946C336.078 14.4059 339.522 10.8639 342.999 7.46875V7.68085H381.652V178.464H382.478C380.719 179.935 378.958 181.368 377.193 182.762C373.671 185.547 370.151 188.17 366.634 190.632C359.983 195.324 353.028 199.571 345.816 203.345C318.529 217.496 293.662 220.172 277.688 208.023Z" fill="#B9B5F3"/>
<path d="M278.974 206.323C277.014 204.831 275.218 203.136 273.616 201.265C273.213 200.804 272.823 200.32 272.445 199.828H273.271V117.229H272.072C275.048 108.886 278.488 100.717 282.377 92.7586C290.446 76.1478 300.911 59.0828 313.563 42.4444C319.892 34.1263 326.474 26.3062 333.192 19.0417C336.555 15.4083 339.951 11.9155 343.379 8.5634C344.237 7.72729 345.095 6.89887 345.952 6.07812V7.69194H381.65V177.17H382.312C380.575 178.62 378.838 180.032 377.101 181.408C373.625 184.153 370.153 186.74 366.688 189.17C360.132 193.796 353.277 197.984 346.169 201.705C319.251 215.672 294.73 218.304 278.974 206.323Z" fill="#BAB5F3"/>
<path d="M280.278 204.63C278.338 203.16 276.561 201.488 274.975 199.643C274.185 198.721 273.438 197.756 272.734 196.747H273.264V119.715H272.439C272.768 118.739 273.107 117.761 273.456 116.78C276.392 108.556 279.785 100.502 283.62 92.6562C291.583 76.2875 301.893 59.4577 314.368 43.0497C320.593 34.8492 327.09 27.1421 333.72 19.9767C337.035 16.3941 340.384 12.9505 343.765 9.64601C344.609 8.82066 345.454 8.00376 346.301 7.19531V7.68176H381.651V175.892H382.146C380.436 177.323 378.723 178.716 377.01 180.07C373.584 182.779 370.162 185.33 366.744 187.722C360.277 192.283 353.515 196.412 346.504 200.081C319.975 213.831 295.8 216.443 280.278 204.63Z" fill="#BBB6F2"/>
<path d="M281.558 202.931C277.722 199.987 274.534 196.285 272.193 192.054H273.272V122.102H272.901C273.515 120.196 274.164 118.275 274.846 116.338C277.74 108.233 281.084 100.295 284.864 92.5621C292.714 76.4239 302.872 59.8247 315.173 43.6611C321.32 35.5759 327.711 27.9841 334.246 20.9155C337.516 17.3805 340.816 13.9861 344.148 10.7323C344.98 9.91774 345.814 9.11237 346.65 8.31622C347.067 7.91737 347.484 7.52314 347.902 7.12891V7.67991H381.651V174.595H381.983C380.293 176.006 378.602 177.378 376.911 178.712C373.53 181.382 370.157 183.897 366.793 186.256C360.418 190.752 353.753 194.822 346.841 198.438C320.697 212.008 296.877 214.574 281.558 202.931Z" fill="#BCB7F2"/>
<path d="M282.849 201.235C279.071 198.333 275.932 194.683 273.627 190.514C273.029 189.454 272.474 188.354 271.962 187.215H273.279V127.17H272.624C273.677 123.481 274.881 119.722 276.237 115.894C279.087 107.904 282.382 100.08 286.106 92.4589C293.841 76.5513 303.858 60.2056 315.976 44.2749C322.035 36.3072 328.333 28.8284 334.775 21.859C338.002 18.3808 341.254 15.0356 344.531 11.8233C346.173 10.2187 347.819 8.64871 349.469 7.11328V7.68273H381.651V173.318H381.82C380.155 174.701 378.491 176.054 376.828 177.376C373.499 180.007 370.175 182.485 366.855 184.811C360.572 189.241 354.004 193.252 347.192 196.815C321.421 210.18 297.938 212.709 282.849 201.235Z" fill="#BDB7F1"/>
<path d="M284.139 199.536C280.414 196.677 277.318 193.081 275.046 188.972C273.843 186.822 272.83 184.571 272.017 182.245H273.271V131.986H272.619C273.063 130.197 273.545 128.392 274.064 126.573C275.103 122.93 276.29 119.226 277.624 115.46C280.433 107.589 283.68 99.8805 287.348 92.3711C294.97 76.6941 304.84 60.5928 316.78 44.8926C322.749 37.0426 328.955 29.6628 335.302 22.8064C338.474 19.3789 341.679 16.0829 344.916 12.9183C346.531 11.3367 348.152 9.79055 349.78 8.27971C350.186 7.90162 350.594 7.52583 351 7.15234V7.68951H381.662V172.032C380.025 173.401 378.386 174.734 376.745 176.029C373.466 178.62 370.191 181.062 366.919 183.354C360.731 187.719 354.262 191.671 347.553 195.183C322.145 208.352 299.005 210.844 284.139 199.536Z" fill="#BEB8F1"/>
<path d="M285.432 197.838C281.762 195.024 278.712 191.483 276.473 187.436C275.29 185.317 274.292 183.1 273.49 180.81C273.075 179.633 272.7 178.421 272.365 177.175H273.273V136.511H272.881C278.7 108.942 294.061 76.4239 317.584 45.4939C323.465 37.7614 329.572 30.4923 335.829 23.7373C338.955 20.356 342.112 17.1091 345.3 13.9968C346.894 12.4414 348.492 10.9182 350.093 9.42737C350.892 8.68194 351.694 7.94574 352.498 7.21875V7.67984H381.652V169.726H382.701L381.489 170.745C379.875 172.093 378.261 173.405 376.647 174.682C373.42 177.237 370.192 179.642 366.964 181.898C360.868 186.196 354.493 190.085 347.882 193.541C322.87 206.523 300.076 208.988 285.432 197.838Z" fill="#BFB8F0"/>
<path d="M286.736 196.142C279.524 190.657 275.001 182.346 272.997 172.013H273.286V155.093H271.861C272.154 148.584 272.994 142.111 274.374 135.743C280.105 108.592 295.234 76.5669 318.408 46.105C329.991 30.8728 342.488 17.4735 355.168 6.28516V7.66843H381.681V168.453H382.546C382.149 168.79 381.752 169.124 381.354 169.456C379.754 170.787 378.155 172.08 376.556 173.336C373.375 175.851 370.197 178.219 367.023 180.441C361.019 184.68 354.74 188.517 348.229 191.927C323.595 204.695 301.147 207.111 286.736 196.142Z" fill="#C0B9F0"/>
<path d="M288.012 194.444C280.913 189.045 276.459 180.86 274.486 170.684C272.512 160.508 273.022 148.354 275.844 134.982C281.485 108.239 296.381 76.7162 319.186 46.7222C330.591 31.7252 342.898 18.5311 355.382 7.51562V7.68623H381.652V167.182H382.344C381.952 167.514 381.56 167.842 381.171 168.169C379.604 169.478 378.038 170.752 376.472 171.989C373.34 174.465 370.211 176.797 367.087 178.986C361.174 183.155 354.992 186.929 348.581 190.283C324.313 202.864 302.213 205.245 288.012 194.444Z" fill="#C1BAEF"/>
<path d="M289.3 192.749C275.322 182.119 271.767 160.526 277.312 134.209C282.856 107.892 297.528 76.8539 319.983 47.3279C331.211 32.573 343.321 19.5772 355.612 8.73461C356.38 8.05681 357.149 7.38746 357.917 6.72656V7.68102H381.65V165.914H382.147C381.762 166.239 381.377 166.564 380.995 166.884C379.458 168.174 377.917 169.427 376.372 170.644C373.288 173.082 370.208 175.378 367.132 177.533C361.313 181.638 355.229 185.354 348.919 188.655C325.037 201.037 303.28 203.38 289.3 192.749Z" fill="#C2BAEF"/>
<path d="M290.591 191.052C276.834 180.589 273.336 159.338 278.8 133.441C284.264 107.543 298.696 76.9961 320.794 47.9381C331.844 33.4138 343.764 20.63 355.858 9.95809C356.614 9.28951 357.371 8.63015 358.129 7.98001C358.507 7.65417 358.886 7.33141 359.265 7.01172V7.6803H381.649V163.672H383.099C382.341 164.322 381.584 164.964 380.826 165.597C379.309 166.865 377.792 168.098 376.275 169.297C373.241 171.696 370.21 173.956 367.182 176.075C361.455 180.116 355.466 183.772 349.255 187.022C325.76 199.208 304.347 201.514 290.591 191.052Z" fill="#C3BBEE"/>
<path d="M291.887 189.352C278.352 179.059 274.909 158.15 280.281 132.675C285.653 107.2 299.855 77.1391 321.597 48.5514C332.467 34.2576 344.191 21.6837 356.096 11.1823C357.584 9.8713 359.073 8.59177 360.564 7.34375V7.68265H381.647V162.416H382.897C382.152 163.056 381.406 163.688 380.661 164.311C379.174 165.557 377.684 166.77 376.188 167.949C373.202 170.309 370.22 172.533 367.243 174.618C361.607 178.593 355.715 182.19 349.604 185.387C326.489 197.378 305.422 199.646 291.887 189.352Z" fill="#C4BBEE"/>
<path d="M293.178 187.655C279.864 177.531 276.48 156.967 281.769 131.904C287.057 106.842 301.031 77.2787 322.407 49.1591C333.099 35.0958 344.636 22.7317 356.341 12.4032C357.804 11.1122 359.269 9.85339 360.737 8.62689C361.47 8.0121 362.204 7.40731 362.939 6.8125V7.67935H381.655V161.158H382.704C381.97 161.79 381.237 162.411 380.504 163.023C379.038 164.253 377.57 165.446 376.101 166.604C373.164 168.926 370.23 171.112 367.301 173.163C361.759 177.073 355.963 180.612 349.952 183.756C327.214 195.549 306.492 197.78 293.178 187.655Z" fill="#C5BCEE"/>
<path d="M294.465 185.959C281.372 176.004 278.043 155.783 283.245 131.138C288.446 106.493 302.179 77.421 323.207 49.7717C333.722 35.9389 345.065 23.7846 356.574 13.629C359.451 11.0915 362.335 8.68 365.226 6.39453V7.68098H381.651V159.906H382.499C381.777 160.52 381.056 161.131 380.336 161.738C378.893 162.945 377.449 164.118 376.004 165.259C373.118 167.541 370.234 169.693 367.352 171.714C361.901 175.559 356.202 179.038 350.292 182.13C327.931 193.722 307.556 195.917 294.465 185.959Z" fill="#C6BDED"/>
<path d="M295.756 184.261C282.885 174.475 279.618 154.595 284.727 130.369C289.836 106.143 303.332 77.5763 324.009 50.3719C334.347 36.7697 345.499 24.8252 356.811 14.8426C359.639 12.345 362.475 9.97421 365.319 7.73024C366.029 7.16925 366.739 6.61594 367.449 6.07031V7.6703H381.65V158.648H382.296C381.589 159.262 380.88 159.863 380.17 160.45C378.753 161.635 377.335 162.788 375.914 163.909C373.074 166.154 370.238 168.268 367.407 170.251C362.049 174.03 356.447 177.45 350.637 180.489C328.655 191.892 308.634 194.05 295.756 184.261Z" fill="#C8BDED"/>
<path d="M297.044 182.566C271.746 163.34 284.181 104.422 324.813 50.9932C334.971 37.6377 345.928 25.8868 357.05 16.0771C359.827 13.618 362.614 11.2879 365.41 9.08699C366.106 8.53675 366.803 7.99343 367.501 7.45703V7.68758H381.649V157.395H382.094C381.398 157.991 380.702 158.581 380.005 159.165C378.61 160.33 377.215 161.464 375.821 162.566C373.031 164.773 370.245 166.848 367.461 168.79C362.196 172.505 356.69 175.867 350.98 178.854C329.382 190.065 309.691 192.184 297.044 182.566Z" fill="#C9BEEC"/>
<path d="M298.335 180.861C273.485 161.956 285.699 104.089 325.618 51.5965C335.596 38.4739 346.367 26.9281 357.288 17.2913C360.018 14.8829 362.755 12.5944 365.5 10.4257C366.873 9.34982 368.243 8.29776 369.611 7.26953V7.67299H381.65V156.137H381.894C381.209 156.724 380.524 157.305 379.84 157.878C378.478 159.021 377.106 160.135 375.723 161.219C372.981 163.386 370.243 165.427 367.511 167.342C362.337 170.991 356.927 174.294 351.317 177.228C330.102 188.238 310.762 190.313 298.335 180.861Z" fill="#CABEEC"/>
<path d="M299.63 179.17C275.222 160.606 287.218 103.768 326.424 52.2155C336.227 39.328 346.8 27.9898 357.529 18.5236C360.213 16.1582 362.903 13.9104 365.598 11.7802C366.945 10.715 368.29 9.68142 369.635 8.67932C370.308 8.17827 370.981 7.6849 371.652 7.19922V7.68106H381.656V154.88H381.697C381.027 155.459 380.356 156.029 379.682 156.59C378.334 157.708 376.988 158.804 375.643 159.88C372.95 162.009 370.261 164.014 367.574 165.895C362.491 169.478 357.177 172.722 351.667 175.606C330.83 186.404 311.835 188.449 299.63 179.17Z" fill="#CBBFEB"/>
<path d="M300.92 177.472C276.955 159.245 288.734 103.439 327.228 52.8252C336.851 40.1706 347.232 29.0399 357.766 19.7443C362.808 15.2772 368.097 11.0955 373.606 7.21875V7.67984H381.653V152.769H382.482L381.489 153.624C380.829 154.191 380.169 154.751 379.508 155.303C378.19 156.405 376.869 157.481 375.545 158.53C372.903 160.622 370.264 162.59 367.626 164.435C362.637 167.954 357.421 171.139 352.011 173.97C331.55 184.575 312.902 186.583 300.92 177.472Z" fill="#CCBFEB"/>
<path d="M302.211 175.774C278.695 157.888 290.25 103.115 328.032 53.4374C337.484 41.0179 347.668 30.0924 358.003 20.9697C362.951 16.5845 368.141 12.4798 373.549 8.6747C374.194 8.22283 374.84 7.77788 375.485 7.33984V7.67875H381.65V150.681H383.229C372.889 159.802 362.402 167.122 352.359 172.332C332.274 182.748 313.971 184.719 302.211 175.774Z" fill="#CDC0EA"/>
<path d="M303.504 174.079C280.426 156.53 291.767 102.79 328.836 54.0621C338.102 41.8755 348.1 31.1574 358.244 22.2053C363.1 17.9047 368.193 13.8785 373.497 10.1455C374.765 9.25714 376.031 8.39874 377.294 7.57031V7.6925H381.654V149.478H382.996C372.852 158.428 362.56 165.616 352.707 170.72C333 180.922 315.04 182.854 303.504 174.079Z" fill="#CEC1EA"/>
<path d="M304.788 172.382C282.156 155.169 293.28 102.476 329.634 54.6607C338.725 42.7092 348.539 32.1963 358.478 23.4172C363.241 19.199 368.235 15.2497 373.438 11.5879C375.925 9.84649 378.4 8.22344 380.864 6.71875V7.68013H381.65V148.234H382.754C372.804 157.014 362.711 164.057 353.046 169.069C333.719 179.091 316.106 180.988 304.788 172.382Z" fill="#CFC1E9"/>
<path d="M306.08 170.683C283.892 153.807 294.802 102.135 330.44 55.2701C339.35 43.5537 348.962 33.2461 358.716 24.6398C363.385 20.5041 368.282 16.6326 373.383 13.0434C375.822 11.3358 378.249 9.74425 380.664 8.26876C381.268 7.89989 381.87 7.53947 382.469 7.1875L381.651 7.67856V147.009H382.515C372.763 155.615 362.868 162.52 353.393 167.435C334.456 177.261 317.176 179.121 306.08 170.683Z" fill="#D0C2E9"/>
<path d="M307.37 168.988C285.625 152.451 296.304 101.812 331.24 55.8829C339.973 44.3994 349.394 34.2992 358.952 25.8659C363.529 21.8132 368.328 18.0187 373.326 14.5C375.716 12.8262 378.095 11.267 380.462 9.82223C381.052 9.4595 381.642 9.106 382.232 8.76172H381.649V145.786H382.276C372.718 154.222 363.021 160.989 353.735 165.805C335.164 175.435 318.242 177.256 307.37 168.988Z" fill="#D1C2E8"/>
<path d="M308.663 167.29C287.36 151.089 297.827 101.483 332.047 56.4918C340.6 45.2435 349.829 35.3485 359.194 27.0881C363.675 23.1168 368.376 19.3992 373.273 15.9527C375.614 14.3066 377.944 12.7797 380.263 11.3718C380.841 11.0167 381.419 10.6702 381.997 10.332H381.651V144.562H382.041C372.676 152.823 363.177 159.453 354.082 164.17C335.89 173.604 319.314 175.389 308.663 167.29Z" fill="#D2C3E8"/>
<path d="M309.955 165.592C289.098 149.737 299.348 101.159 332.844 57.1038C341.22 46.0906 350.257 36.4008 359.426 28.311C363.817 24.4211 368.422 20.7797 373.219 17.4039C375.511 15.7962 377.793 14.3 380.064 12.9151C380.631 12.5693 381.197 12.2304 381.761 11.8984H381.653V143.332H381.805C372.636 151.422 363.334 157.912 354.428 162.532C336.616 171.777 320.394 173.525 309.955 165.592Z" fill="#D3C3E8"/>
<path d="M311.247 163.897C290.833 148.372 300.873 100.833 333.656 57.7166C341.855 46.9386 350.698 37.4631 359.671 29.537C363.967 25.732 368.472 22.1699 373.165 18.8673C375.409 17.2966 377.641 15.8326 379.862 14.4755C380.973 13.7976 382.079 13.1483 383.18 12.5273H381.654V140.614H383.249C382.69 141.121 382.129 141.622 381.566 142.117C372.593 150.034 363.489 156.388 354.774 160.909C337.34 169.948 321.454 171.659 311.247 163.897Z" fill="#D4C4E7"/>
<path d="M312.536 162.197C292.564 147.008 302.392 100.505 334.457 58.3243C342.477 47.7791 351.13 38.4974 359.907 30.758C364.109 27.0355 368.516 23.5511 373.108 20.3212C375.302 18.7842 377.486 17.3517 379.66 16.0238C380.745 15.3614 381.826 14.7258 382.903 14.1172H381.652V139.421H382.97C382.425 139.916 381.877 140.405 381.327 140.89C372.547 148.636 363.644 154.851 355.116 159.273C338.062 168.117 322.521 169.793 312.536 162.197Z" fill="#D5C5E7"/>
<path d="M313.827 160.5C294.302 145.651 303.897 100.178 335.268 58.9359C343.106 48.6259 351.567 39.5562 360.153 31.9828C364.262 28.3422 368.572 24.9348 373.063 21.7766C375.215 20.2734 377.351 18.8733 379.47 17.576C380.532 16.9274 381.59 16.3057 382.642 15.7109H381.663V138.23H382.707C382.172 138.714 381.634 139.193 381.093 139.666C372.51 147.239 363.802 153.317 355.463 157.649C338.786 166.289 323.59 167.926 313.827 160.5Z" fill="#D6C5E6"/>
<path d="M315.114 158.804C296.032 144.291 305.406 99.8538 336.068 59.5475C343.729 49.4727 351.997 40.6082 360.386 33.2077C364.402 29.6502 368.613 26.3198 372.999 23.232C375.097 21.7642 377.185 20.3963 379.261 19.1283C380.298 18.4951 381.331 17.8872 382.36 17.3047H381.654V137.038H382.424C381.902 137.513 381.378 137.982 380.854 138.445C372.465 145.845 363.955 151.784 355.808 156.01C339.506 164.462 324.656 166.06 315.114 158.804Z" fill="#D7C6E6"/>
<path d="M316.407 157.116C297.768 142.94 306.93 99.5349 336.868 60.167C344.354 50.325 352.428 41.668 360.614 34.4381C364.537 30.9645 368.65 27.7126 372.935 24.6976C374.982 23.2605 377.021 21.9233 379.051 20.6861C380.064 20.0713 381.073 19.478 382.078 18.9062H381.645V135.85H382.14C381.63 136.312 381.119 136.773 380.607 137.234C372.414 144.464 364.1 150.264 356.142 154.391C340.232 162.633 325.726 164.196 316.407 157.116Z" fill="#D8C6E5"/>
<path d="M317.7 155.407C299.506 141.575 308.448 99.2004 337.675 60.7685C344.981 51.1616 352.863 42.7099 360.861 35.6529C364.69 32.2618 368.705 29.0869 372.888 26.1429C374.886 24.7427 376.877 23.4363 378.859 22.2236C379.844 21.6226 380.83 21.0455 381.815 20.4922H381.653V134.656H381.884C381.386 135.108 380.887 135.554 380.385 135.995C372.388 143.052 364.275 148.715 356.506 152.745C340.958 160.802 326.797 162.328 317.7 155.407Z" fill="#D9C7E5"/>
<path d="M318.987 153.711C301.235 140.213 309.959 98.8738 338.473 61.3802C345.601 52.0085 353.292 43.7619 361.096 36.8778C364.831 33.5688 368.748 30.4715 372.829 27.6007C374.779 26.2343 376.72 24.9609 378.652 23.7806C379.617 23.1904 380.579 22.6255 381.536 22.086C382.016 21.8155 382.493 21.5512 382.968 21.293H381.649V132.128H383.056C382.083 133.031 381.109 133.913 380.135 134.772C372.331 141.668 364.425 147.182 356.836 151.12C341.677 158.975 327.863 160.462 318.987 153.711Z" fill="#DAC7E4"/>
<path d="M320.281 152.014C302.972 138.852 311.479 98.5551 339.28 61.9906C345.831 53.3233 353.218 45.3217 361.336 38.1015C364.978 34.8754 368.798 31.8552 372.776 29.0549C374.679 27.7223 376.572 26.4812 378.454 25.3316C379.395 24.7568 380.333 24.2058 381.267 23.6786C381.728 23.4158 382.193 23.1583 382.662 22.9062H381.652V130.97H382.747C381.8 131.85 380.851 132.71 379.9 133.55C372.292 140.261 364.573 145.649 357.184 149.48C342.402 157.146 328.924 158.596 320.281 152.014Z" fill="#DBC8E4"/>
<path d="M321.574 150.319C304.71 137.494 312.998 98.2157 340.084 62.6056C346.468 54.1586 353.667 46.3594 361.576 39.3205C365.128 36.1798 368.851 33.2389 372.73 30.5114C374.583 29.2142 376.428 28.0054 378.263 26.8849C379.185 26.3255 380.098 25.7875 381.002 25.2711C381.463 25.0152 381.91 24.7639 382.364 24.5195H381.673V129.814H382.456C381.534 130.672 380.612 131.509 379.69 132.327C372.275 138.868 364.755 144.115 357.557 147.85C343.128 155.319 330.005 156.73 321.574 150.319Z" fill="#DCC9E3"/>
<path d="M322.858 148.622C306.439 136.133 314.51 97.9016 340.885 63.216C347.1 54.9929 354.108 47.4007 361.809 40.5488C365.264 37.4885 368.888 34.6237 372.663 31.9679C374.468 30.7015 376.263 29.5234 378.051 28.4337C378.942 27.8896 379.832 27.367 380.718 26.866C381.161 26.617 381.601 26.3726 382.044 26.1328H381.65V128.656H382.111C381.219 129.492 380.32 130.308 379.411 131.102C372.204 137.47 364.887 142.591 357.869 146.217C343.847 153.488 331.07 154.865 322.858 148.622Z" fill="#DDC9E3"/>
<path d="M324.153 146.925C308.176 134.775 316.029 97.5695 341.691 63.8269C354.516 46.9533 369.377 34.1418 383.02 27.0664H381.653V127.499H381.815C380.942 128.31 380.066 129.104 379.187 129.878C372.164 136.075 365.04 141.048 358.207 144.585C344.575 151.66 332.153 153 324.153 146.925Z" fill="#DECAE3"/>
<path d="M325.442 145.226C309.91 133.413 317.543 97.2427 342.502 64.4361C354.975 48.0328 369.409 35.5764 382.672 28.6992H381.651V125.141H382.774C382.349 125.545 381.925 125.945 381.501 126.34C380.653 127.128 379.801 127.897 378.947 128.645C372.118 134.672 365.192 139.504 358.559 142.939C345.292 149.83 333.209 151.13 325.442 145.226Z" fill="#DFCAE2"/>
<path d="M326.732 143.53C311.643 132.056 319.06 96.9182 343.295 65.0499C355.414 49.1146 369.443 37.0155 382.328 30.332H381.65V124.019H382.427C382.014 124.412 381.601 124.796 381.189 125.171C380.364 125.94 379.537 126.69 378.709 127.422C372.076 133.273 365.337 137.969 358.905 141.31C346.017 148.005 334.276 149.277 326.732 143.53Z" fill="#E0CBE2"/>
<path d="M328.026 141.83C313.38 130.692 320.58 96.5897 344.102 65.6575C355.86 50.1925 369.481 38.4531 381.988 31.9609H381.653V122.893H382.082C381.683 123.273 381.282 123.651 380.881 124.022C380.08 124.768 379.277 125.496 378.472 126.206C372.035 131.886 365.504 136.444 359.251 139.686C346.744 146.171 335.348 147.4 328.026 141.83Z" fill="#E1CBE1"/>
<path d="M329.316 140.136C315.114 129.337 322.093 96.2653 344.905 66.2805C356.31 51.2951 369.514 39.8946 381.64 33.6053C382.021 33.4086 382.4 33.2172 382.775 33.0312H381.652V120.662H382.892C381.355 122.171 379.802 123.615 378.233 124.994C371.992 130.501 365.659 134.921 359.593 138.065C347.467 144.345 336.417 145.535 329.316 140.136Z" fill="#E2CCE1"/>
<path d="M330.601 138.44C316.845 127.976 323.618 95.9393 345.704 66.8814C356.754 52.357 369.545 41.3208 381.294 35.2275C381.661 35.0369 382.027 34.8517 382.391 34.6719H381.649V119.563H382.506C381.011 121.027 379.506 122.425 377.992 123.759C371.945 129.096 365.808 133.368 359.936 136.423C348.187 142.516 337.481 143.669 330.601 138.44Z" fill="#E3CCE0"/>
<path d="M331.897 136.743C318.585 126.617 325.128 95.6137 346.514 67.4941C357.206 53.4308 369.584 42.7565 380.953 36.8615C381.666 36.4926 382.373 36.1429 383.074 35.8125H381.653V118.477H382.115C380.67 119.892 379.214 121.246 377.748 122.539C371.894 127.701 365.958 131.844 360.273 134.793C348.916 140.69 338.555 141.806 331.897 136.743Z" fill="#E4CDE0"/>
<path d="M333.184 135.043C320.315 125.254 326.639 95.2858 347.312 68.1022C357.647 54.5 369.615 44.19 380.605 38.491C381.292 38.1328 381.975 37.7947 382.654 37.4766H381.649V117.386H381.739C380.339 118.754 378.932 120.06 377.518 121.305C371.86 126.296 366.12 130.296 360.626 133.151C349.633 138.859 339.618 139.936 333.184 135.043Z" fill="#E5CEDF"/>
<path d="M334.478 133.347C322.051 123.895 328.159 94.9612 348.119 68.7159C358.097 55.5932 369.652 45.6291 380.264 40.1283C380.925 39.784 381.584 39.4574 382.24 39.1484H381.652V115.298H382.369C382.032 115.636 381.696 115.968 381.359 116.3C380.008 117.622 378.649 118.886 377.281 120.091C371.819 124.909 366.272 128.778 360.97 131.526C350.365 137.031 340.682 138.073 334.478 133.347Z" fill="#E6CEDF"/>
<path d="M335.767 131.65C323.778 122.539 329.673 94.6356 348.908 69.3264C358.531 56.674 369.673 47.0649 379.905 41.7577C380.545 41.4258 381.181 41.1107 381.811 40.8125H381.638V113.259H382.906C382.261 113.923 381.612 114.574 380.96 115.212C379.659 116.484 378.352 117.702 377.041 118.866C371.773 123.514 366.436 127.242 361.316 129.895C351.082 135.214 341.759 136.208 335.767 131.65Z" fill="#E7CFDF"/>
<path d="M337.06 129.951C325.532 121.176 331.192 94.3061 349.726 69.9351C358.992 57.7485 369.73 48.4967 379.575 43.3878C380.804 42.75 382.021 42.1767 383.224 41.668H381.652V112.24H382.466C381.843 112.881 381.218 113.508 380.591 114.121C379.337 115.351 378.075 116.524 376.806 117.64C371.734 122.117 366.588 125.709 361.661 128.261C351.808 133.367 342.828 134.338 337.06 129.951Z" fill="#E8CFDE"/>
<path d="M338.352 128.254C327.255 119.816 332.708 93.9811 350.529 70.5462C359.44 58.8299 369.757 49.9331 379.23 45.0202C380.415 44.4054 381.584 43.8544 382.739 43.3672H381.653V111.235H382.01C381.414 111.85 380.813 112.452 380.209 113.043C379.001 114.22 377.788 115.348 376.569 116.427C371.691 120.729 366.743 124.183 362.006 126.638C352.532 131.544 343.91 132.473 338.352 128.254Z" fill="#E9D0DE"/>
<path d="M339.642 126.556C328.993 118.454 334.229 93.6523 351.336 71.1556C359.889 59.9096 369.793 51.3679 378.888 46.651C380.024 46.0608 381.147 45.5313 382.256 45.0625H381.655V109.313H382.413C382.127 109.613 381.841 109.913 381.553 110.208C380.978 110.798 380.402 111.377 379.824 111.944C378.667 113.075 377.502 114.158 376.329 115.192C371.649 119.323 366.897 122.636 362.351 124.995C353.258 129.712 344.968 130.599 339.642 126.556Z" fill="#EAD0DD"/>
<path d="M340.929 124.863C330.723 117.1 335.74 93.3312 352.134 71.7729C360.332 60.9926 369.823 52.8082 378.538 48.2872C379.629 47.7216 380.705 47.2144 381.766 46.7656H381.648V107.464H382.736C380.63 109.743 378.411 111.915 376.087 113.972C371.601 117.93 367.05 121.107 362.69 123.367C353.976 127.888 346.033 128.743 340.929 124.863Z" fill="#EBD1DD"/>
<path d="M342.223 123.162C332.459 115.737 337.259 93.0002 352.941 72.3802C360.78 62.0679 369.861 54.2386 378.197 49.9158C379.239 49.3748 380.268 48.8899 381.284 48.4611C381.794 48.2467 382.296 48.0461 382.797 47.8594H381.644V106.519H382.207C380.193 108.7 378.07 110.778 375.846 112.744C371.553 116.532 367.2 119.571 363.032 121.735C354.703 126.056 347.106 126.874 342.223 123.162Z" fill="#ECD1DC"/>
<path d="M343.513 121.466C334.194 114.379 338.773 92.6774 353.742 72.9934C361.228 63.1514 369.892 55.6771 377.852 51.5527C378.845 51.0363 379.828 50.5752 380.799 50.1694C381.283 49.9642 381.765 49.7752 382.242 49.5977H381.652V105.581H381.686C379.764 107.662 377.738 109.646 375.616 111.524C371.519 115.137 367.363 118.037 363.383 120.101C355.437 124.23 348.172 125.009 343.513 121.466Z" fill="#EDD2DC"/>
<path d="M344.803 119.768C335.927 113.017 340.289 92.3488 354.546 73.6032C361.674 64.2292 369.925 57.1123 377.506 53.1815C379.281 52.2485 381.132 51.4665 383.039 50.8438H381.655V103.078H382.578C382.117 103.609 381.645 104.13 381.164 104.642C379.334 106.625 377.404 108.514 375.382 110.301C371.482 113.743 367.523 116.505 363.733 118.472C356.148 122.403 349.241 123.145 344.803 119.768Z" fill="#EED2DC"/>
<path d="M346.097 118.071C337.663 111.659 341.809 92.0193 355.353 74.2143C362.124 65.3083 369.963 58.5372 377.165 54.8139C378.849 53.9281 380.604 53.1854 382.412 52.5938H381.647V102.212H381.97C381.524 102.716 381.077 103.212 380.628 103.699C378.888 105.582 377.054 107.376 375.134 109.075C371.429 112.344 367.669 114.97 364.068 116.838C356.875 120.57 350.311 121.278 346.097 118.071Z" fill="#EFD3DB"/>
<path d="M347.386 116.374C339.398 110.299 343.324 91.7059 356.147 74.8254C362.563 66.3897 369.98 59.9829 376.811 56.4463C378.408 55.6063 380.073 54.9029 381.788 54.3438H381.645V99.8903H382.641C381.811 100.882 380.966 101.838 380.105 102.758C378.458 104.543 376.721 106.243 374.902 107.851C371.391 110.95 367.829 113.435 364.417 115.205C357.595 118.742 351.379 119.411 347.386 116.374Z" fill="#F0D4DB"/>
<path d="M348.675 114.679C341.143 108.932 344.832 91.3734 356.959 75.4381C363.017 67.4704 370.031 61.4209 376.474 58.0803C377.983 57.2866 379.555 56.6218 381.175 56.093C381.553 55.9731 381.929 55.8625 382.3 55.7656H381.652V99.1082H381.964C381.18 100.043 380.385 100.945 379.58 101.815C378.023 103.5 376.383 105.106 374.665 106.626C371.347 109.554 367.979 111.901 364.763 113.573C358.319 116.915 352.44 117.547 348.675 114.679Z" fill="#F1D4DA"/>
<path d="M349.965 112.982C342.864 107.58 346.355 91.0455 357.76 76.0485C363.463 68.5489 370.064 62.8567 376.13 59.7121C377.553 58.9651 379.037 58.3396 380.565 57.8424C381.247 57.6214 381.939 57.4367 382.64 57.2891H381.644V96.989H382.387C382.025 97.4501 381.66 97.8973 381.289 98.3308C380.551 99.2099 379.803 100.059 379.044 100.878C377.527 102.515 375.977 104.028 374.419 105.406C371.297 108.159 368.13 110.37 365.098 111.942C359.042 115.087 353.515 115.682 349.965 112.982Z" fill="#F2D5DA"/>
<path d="M351.254 111.283C344.598 106.222 347.87 90.718 358.562 76.6547C363.909 69.6254 370.09 64.286 375.782 61.3396C377.113 60.6396 378.501 60.0534 379.932 59.5874C380.577 59.3799 381.232 59.206 381.896 59.0664H381.651V94.9923H382.67C371.975 109.053 357.91 116.345 351.254 111.283Z" fill="#F3D5D9"/>
<path d="M352.546 109.587C346.321 104.863 349.385 90.3942 359.365 77.2716C364.357 70.7103 370.132 65.7282 375.439 62.9778C378.09 61.5945 380.626 60.7853 382.886 60.6055H381.65V94.3827H381.864C371.886 107.505 358.759 114.313 352.546 109.587Z" fill="#F4D6D9"/>
<path d="M353.839 107.891C348.076 103.51 350.905 90.0694 360.173 77.8828C364.807 71.7918 370.169 67.1647 375.096 64.608C377.56 63.3307 379.914 62.5722 382.012 62.4062H381.652V91.4757H382.727C382.197 92.2434 381.643 93.0112 381.065 93.7812C371.806 105.956 359.608 112.278 353.839 107.891Z" fill="#F5D6D9"/>
<path d="M355.128 106.193C349.802 102.143 352.419 89.7417 360.968 78.5003C365.247 72.8773 370.189 68.6053 374.745 66.2468C377.018 65.0687 379.192 64.3678 381.129 64.2134C381.597 64.1789 382.067 64.1789 382.535 64.2134H381.645V88.9071H383.178C382.3 90.3295 381.323 91.7543 380.253 93.1607C371.704 104.409 360.454 110.244 355.128 106.193Z" fill="#F5D7D8"/>
<path d="M356.42 104.497C351.539 100.783 353.939 89.4166 361.78 79.1043C365.699 73.9493 370.239 70.0347 374.407 67.8722C376.494 66.7932 378.486 66.15 380.261 66.0094C381.093 65.9325 381.932 65.9909 382.746 66.1823H381.653V88.6443H382.14C381.333 89.9492 380.438 91.2541 379.458 92.5428C371.618 102.86 361.303 108.208 356.42 104.497Z" fill="#F6D7D8"/>
<path d="M357.707 102.8C353.269 99.4247 355.45 89.0894 362.578 79.7154C366.142 75.0307 370.269 71.4711 374.059 69.5045C375.954 68.5224 377.764 67.9391 379.38 67.81C380.137 67.7416 380.9 67.7953 381.64 67.9691C381.982 68.0525 382.315 68.1699 382.633 68.3195H381.649V84.8519H383.032C381.803 87.3521 380.331 89.7258 378.638 91.9389C371.521 101.311 362.145 106.166 357.707 102.8Z" fill="#F7D8D7"/>
<path d="M359 101.09C355.007 98.0539 356.969 88.7537 363.38 80.318C369.792 71.8824 378.234 67.5043 382.227 70.5429H381.646V84.952H381.796C380.691 87.2026 379.368 89.3392 377.845 91.3312C371.433 99.7599 362.995 104.136 359 101.09Z" fill="#F8D8D7"/>
<path d="M360.29 99.4012C356.739 96.7015 358.485 88.4341 364.186 80.9368C369.888 73.4395 377.392 69.5479 380.942 72.2475C382.717 73.5962 383.167 76.3397 382.461 79.6803C381.756 83.0209 379.895 86.9633 377.044 90.7165C371.342 98.2116 363.84 102.101 360.29 99.4012Z" fill="#F9D9D7"/>
<path d="M376.238 90.0915C381.228 83.53 382.754 76.2958 379.648 73.9336C376.542 71.5714 369.978 74.9757 364.989 81.5372C359.999 88.0988 358.473 95.3329 361.579 97.6951C364.686 100.057 371.249 96.6531 376.238 90.0915Z" fill="#FAD9D6"/>
<path d="M376.925 89.2677C381.235 83.6155 382.56 77.3793 379.884 75.339C377.208 73.2986 371.545 76.2266 367.235 81.8789C362.925 87.5312 361.6 93.7673 364.276 95.8077C366.952 97.8481 372.615 94.92 376.925 89.2677Z" fill="#FBDAD6"/>
<path d="M374.629 88.8659C378.193 84.1793 379.283 79.0125 377.065 77.3254C374.846 75.6384 370.158 78.0699 366.595 82.7565C363.031 87.443 361.941 92.6098 364.159 94.2969C366.378 95.984 371.065 93.5524 374.629 88.8659Z" fill="#FCDAD5"/>
<path d="M373.828 88.2578C376.679 84.5088 377.55 80.375 375.775 79.0247C373.999 77.6744 370.249 79.619 367.398 83.368C364.547 87.1171 363.675 91.2509 365.451 92.6011C367.227 93.9514 370.977 92.0068 373.828 88.2578Z" fill="#FDDBD5"/>
<path d="M373.025 87.6451C375.163 84.8326 375.818 81.7316 374.486 80.7189C373.154 79.7062 370.341 81.1653 368.202 83.9778C366.063 86.7903 365.409 89.8913 366.741 90.904C368.073 91.9167 370.886 90.4576 373.025 87.6451Z" fill="#FDDBD5"/>
<path d="M368.034 89.2193C367.146 88.5461 367.573 86.4781 369.009 84.6084C370.445 82.7387 372.31 81.7612 373.198 82.4367C374.086 83.1122 373.659 85.1779 372.223 87.0476C370.787 88.9173 368.921 89.8948 368.034 89.2193Z" fill="#FEDCD4"/>
<path d="M369.327 87.5214C368.882 87.1848 369.096 86.152 369.813 85.216C370.53 84.28 371.464 83.7935 371.909 84.1301C372.354 84.4667 372.139 85.5134 371.42 86.4356C370.701 87.3578 369.769 87.8603 369.327 87.5214Z" fill="#FFDCD4"/>
</g>
<path d="M333.712 11.368H321.217C320.911 11.368 320.618 11.2465 320.402 11.0303C320.185 10.8142 320.064 10.5209 320.064 10.2152C320.064 9.9095 320.185 9.6163 320.402 9.40013C320.618 9.18395 320.911 9.0625 321.217 9.0625H333.712C334.018 9.0625 334.311 9.18395 334.527 9.40013C334.744 9.6163 334.865 9.9095 334.865 10.2152C334.865 10.5209 334.744 10.8142 334.527 11.0303C334.311 11.2465 334.018 11.368 333.712 11.368Z" fill="url(#paint1_linear_217_2770)"/>
<path d="M341.989 11.6494C342.781 10.8571 342.781 9.57257 341.989 8.78027C341.196 7.98797 339.912 7.98797 339.12 8.78027C338.327 9.57256 338.327 10.8571 339.12 11.6494C339.912 12.4417 341.196 12.4417 341.989 11.6494Z" fill="url(#paint2_linear_217_2770)"/>
<path d="M342.036 10.2145C342.036 10.5072 341.949 10.7934 341.786 11.0368C341.624 11.2802 341.393 11.4699 341.122 11.5819C340.852 11.6939 340.554 11.7233 340.267 11.6661C339.98 11.609 339.716 11.4681 339.509 11.2611C339.302 11.0541 339.161 10.7903 339.104 10.5032C339.047 10.2161 339.076 9.91852 339.188 9.64807C339.3 9.37762 339.49 9.14646 339.733 8.98382C339.977 8.82118 340.263 8.73438 340.556 8.73438C340.75 8.73407 340.943 8.77215 341.123 8.84643C341.302 8.9207 341.466 9.02971 341.603 9.16721C341.741 9.30471 341.85 9.468 341.924 9.64771C341.998 9.82742 342.036 10.02 342.036 10.2145Z" fill="url(#paint3_linear_217_2770)"/>
<path d="M341.777 10.2141C341.777 10.4557 341.706 10.692 341.571 10.8929C341.437 11.0939 341.246 11.2505 341.023 11.343C340.8 11.4354 340.554 11.4596 340.317 11.4125C340.08 11.3653 339.862 11.249 339.691 11.0781C339.52 10.9072 339.404 10.6895 339.357 10.4525C339.31 10.2154 339.334 9.96975 339.427 9.74648C339.519 9.52321 339.676 9.33237 339.877 9.19811C340.077 9.06385 340.314 8.99219 340.555 8.99219C340.879 8.99219 341.19 9.12092 341.419 9.35007C341.649 9.57922 341.777 9.89001 341.777 10.2141Z" fill="url(#paint4_radial_217_2770)"/>
<path d="M341.423 9.79518C341.423 10.1641 341.033 10.4638 340.556 10.4638C340.079 10.4638 339.689 10.1641 339.689 9.79518C339.689 9.42631 340.076 9.12891 340.556 9.12891C341.035 9.12891 341.423 9.41478 341.423 9.79518Z" fill="url(#paint5_linear_217_2770)"/>
<path d="M388.573 24.457H386.595V26.6011H388.573V24.457Z" fill="#353535"/>
<path d="M266.352 26.6016H268.33V24.4575H266.352V26.6016Z" fill="#353535"/>
<path d="M388.573 221.926H386.595V224.07H388.573V221.926Z" fill="#353535"/>
<path d="M266.352 224.066H268.33V221.922H266.352V224.066Z" fill="#353535"/>
<path d="M333.712 11.1901H321.217C320.926 11.191 320.645 11.0816 320.431 10.884C320.217 10.6865 320.086 10.4153 320.064 10.125C320.064 10.155 320.064 10.1849 320.064 10.2149C320.064 10.5206 320.185 10.8138 320.402 11.03C320.618 11.2462 320.911 11.3676 321.217 11.3676H333.712C334.018 11.3676 334.311 11.2462 334.527 11.03C334.744 10.8138 334.865 10.5206 334.865 10.2149C334.865 10.1849 334.865 10.155 334.865 10.125C334.843 10.4153 334.712 10.6865 334.498 10.884C334.284 11.0816 334.003 11.191 333.712 11.1901Z" fill="#4E4E4E"/>
<path d="M370.222 4.45703H284.706C280.821 4.4613 277.097 6.0062 274.35 8.75283C271.603 11.4995 270.057 15.2236 270.052 19.1082V20.1295C270.057 16.2449 271.603 12.5208 274.35 9.77415C277.097 7.02752 280.821 5.48262 284.706 5.47835H370.222C374.107 5.48262 377.831 7.02752 380.578 9.77415C383.325 12.5208 384.871 16.2449 384.875 20.1295V19.1082C384.871 15.2236 383.325 11.4995 380.578 8.75283C377.831 6.0062 374.107 4.4613 370.222 4.45703Z" fill="url(#paint6_linear_217_2770)"/>
<path d="M363.813 5.55469H291.126C281.185 5.55469 273.126 13.6136 273.126 23.5547V225.706C273.126 235.647 281.185 243.706 291.126 243.706H363.813C373.754 243.706 381.813 235.647 381.813 225.706V23.5547C381.813 13.6136 373.754 5.55469 363.813 5.55469Z" fill="url(#paint7_linear_217_2770)"/>
<path d="M315.405 144.762C318.369 145.785 319.911 149.005 318.85 151.953C317.79 154.902 314.527 156.463 311.563 155.441C311.175 155.308 310.789 155.168 310.409 155.024C301.045 151.472 294.029 144.645 290.198 136.351C286.368 128.058 285.718 118.29 289.084 108.858C289.221 108.475 289.365 108.09 289.516 107.709C293.348 97.9878 300.794 90.5731 309.731 86.4448C318.669 82.3161 329.141 81.4548 339.027 84.8395C339.415 84.9719 339.801 85.1121 340.181 85.256C349.545 88.8081 356.561 95.6355 360.392 103.929C364.222 112.222 364.872 121.99 361.506 131.422C361.369 131.806 361.225 132.19 361.074 132.571C359.932 135.491 356.628 136.962 353.695 135.858C350.763 134.754 349.311 131.493 350.454 128.573C350.566 128.288 350.673 128.002 350.775 127.718C353.095 121.215 352.641 114.469 349.991 108.733C347.341 102.995 342.498 98.2759 336.044 95.8275C335.762 95.72 335.474 95.6164 335.185 95.5177C330.147 93.7928 324.862 93.6521 319.911 94.8282L330.494 117.739C331.803 120.574 330.536 123.947 327.665 125.273C324.793 126.6 321.404 125.377 320.094 122.542L309.512 99.6317C305.406 102.639 302.087 106.754 300.134 111.708C300.022 111.993 299.915 112.279 299.813 112.563C297.492 119.066 297.947 125.812 300.597 131.548C303.247 137.286 308.088 142.006 314.544 144.454C314.826 144.561 315.113 144.664 315.403 144.763L315.405 144.762Z" fill="white"/>
<defs>
<radialGradient id="paint0_radial_217_2770" cx="0" cy="0" r="1" gradientUnits="userSpaceOnUse" gradientTransform="translate(281.482 410.851) scale(259.1)">
<stop stop-color="#E5C33F"/>
<stop offset="0.03" stop-color="#E6BC3D"/>
<stop offset="0.25" stop-color="#F39332"/>
<stop offset="0.42" stop-color="#FC7A2B"/>
<stop offset="0.53" stop-color="#FF7129"/>
<stop offset="0.99" stop-color="#C73A16"/>
</radialGradient>
<linearGradient id="paint1_linear_217_2770" x1="327.464" y1="9.05789" x2="327.464" y2="11.368" gradientUnits="userSpaceOnUse">
<stop/>
<stop offset="0.29" stop-color="#030303"/>
<stop offset="0.53" stop-color="#0E0E0D"/>
<stop offset="0.75" stop-color="#1F1F1E"/>
<stop offset="0.96" stop-color="#373736"/>
<stop offset="1" stop-color="#3C3C3B"/>
</linearGradient>
<linearGradient id="paint2_linear_217_2770" x1="340.553" y1="8.18584" x2="340.553" y2="12.2434" gradientUnits="userSpaceOnUse">
<stop/>
<stop offset="0.29" stop-color="#030303"/>
<stop offset="0.53" stop-color="#0E0E0D"/>
<stop offset="0.75" stop-color="#1F1F1E"/>
<stop offset="0.96" stop-color="#373736"/>
<stop offset="1" stop-color="#3C3C3B"/>
</linearGradient>
<linearGradient id="paint3_linear_217_2770" x1="340.556" y1="7.47329" x2="340.556" y2="12.3332" gradientUnits="userSpaceOnUse">
<stop/>
<stop offset="0.08"/>
<stop offset="1"/>
</linearGradient>
<radialGradient id="paint4_radial_217_2770" cx="0" cy="0" r="1" gradientUnits="userSpaceOnUse" gradientTransform="translate(340.555 10.2141) scale(1.10892)">
<stop stop-color="#009FE3"/>
<stop offset="1" stop-color="#112754"/>
</radialGradient>
<linearGradient id="paint5_linear_217_2770" x1="340.556" y1="8.50874" x2="340.556" y2="10.5006" gradientUnits="userSpaceOnUse">
<stop stop-color="white"/>
<stop offset="1" stop-color="#112754"/>
</linearGradient>
<linearGradient id="paint6_linear_217_2770" x1="327.463" y1="0.11125" x2="327.463" y2="18.0938" gradientUnits="userSpaceOnUse">
<stop stop-color="white"/>
<stop offset="1"/>
</linearGradient>
<linearGradient id="paint7_linear_217_2770" x1="273.126" y1="5.55469" x2="400.318" y2="15.8858" gradientUnits="userSpaceOnUse">
<stop stop-color="#0A30A3"/>
<stop offset="1" stop-color="#001447"/>
</linearGradient>
</defs>
</svg>
