<svg width="1280" height="1030" viewBox="0 0 1280 1030" fill="none" xmlns="http://www.w3.org/2000/svg">
<g clip-path="url(#clip0_253_3628)">
<rect width="1280" height="1030" fill="#001447"/>
<rect width="1280" height="714" fill="#001447"/>
<path d="M108.822 75.8935L84.482 27.9443C43.4204 47.2253 -5.8848 30.474 -26.5383 -10.2127C-47.1918 -50.8993 -31.4597 -100.306 8.5041 -121.729L-15.8361 -169.679C-82.3339 -134.938 -108.659 -53.2494 -74.5753 13.9139C-40.4877 81.0651 41.2266 108.491 108.822 75.8935Z" fill="url(#paint0_radial_253_3628)" fill-opacity="0.2"/>
<g filter="url(#filter0_d_253_3628)">
<rect y="-96" width="1280" height="96" fill="#01164E"/>
</g>
<path d="M1131.69 770.292L1096.81 809.577C1129.19 839.828 1131.73 890.503 1102.14 923.838C1072.55 957.173 934.275 952.335 900.346 923.849L953.088 971.493C1008.72 1019.22 1092.59 1013.68 1141.44 958.663C1190.28 903.645 1185.76 819.783 1131.69 770.292Z" fill="url(#paint1_radial_253_3628)" fill-opacity="0.2"/>
<path d="M1482.33 916.117C1485.16 918.939 1485.16 923.526 1482.33 926.368L1150.37 1258.33C1147.55 1261.16 1142.96 1261.16 1140.12 1258.33C1137.29 1255.51 1137.29 1250.92 1140.12 1248.08L1472.08 916.117C1474.9 913.294 1479.49 913.294 1482.33 916.117Z" fill="url(#paint2_linear_253_3628)" style="mix-blend-mode:overlay"/>
<path d="M573.554 1086.68L611.536 1109.84C631.913 1078.33 673.788 1068.61 706.017 1088.26C738.246 1107.91 748.77 1149.6 730.097 1182.14L768.079 1205.3C799.546 1151.79 782.366 1082.74 729.171 1050.29C675.978 1017.86 606.724 1034.2 573.554 1086.68Z" fill="url(#paint3_radial_253_3628)" fill-opacity="0.2"/>
</g>
<defs>
<filter id="filter0_d_253_3628" x="-30" y="-122" width="1340" height="156" filterUnits="userSpaceOnUse" color-interpolation-filters="sRGB">
<feFlood flood-opacity="0" result="BackgroundImageFix"/>
<feColorMatrix in="SourceAlpha" type="matrix" values="0 0 0 0 0 0 0 0 0 0 0 0 0 0 0 0 0 0 127 0" result="hardAlpha"/>
<feOffset dy="4"/>
<feGaussianBlur stdDeviation="15"/>
<feComposite in2="hardAlpha" operator="out"/>
<feColorMatrix type="matrix" values="0 0 0 0 0.0588235 0 0 0 0 0.227451 0 0 0 0 0.65098 0 0 0 1 0"/>
<feBlend mode="normal" in2="BackgroundImageFix" result="effect1_dropShadow_253_3628"/>
<feBlend mode="normal" in="SourceGraphic" in2="effect1_dropShadow_253_3628" result="shape"/>
</filter>
<radialGradient id="paint0_radial_253_3628" cx="0" cy="0" r="1" gradientUnits="userSpaceOnUse" gradientTransform="translate(-28.5528 -165.91) rotate(-26.6681) scale(925.509 925.501)">
<stop stop-color="#5BC7CE"/>
<stop offset="0.11" stop-color="#4198C0"/>
<stop offset="0.23" stop-color="#296BB3"/>
<stop offset="0.34" stop-color="#184AAA"/>
<stop offset="0.43" stop-color="#0D37A5"/>
<stop offset="0.49" stop-color="#0A30A3"/>
<stop offset="1" stop-color="#00152A"/>
</radialGradient>
<radialGradient id="paint1_radial_253_3628" cx="0" cy="0" r="1" gradientUnits="userSpaceOnUse" gradientTransform="translate(961.109 981.654) rotate(-138.457) scale(904.111 904.111)">
<stop stop-color="#5BC7CE"/>
<stop offset="0.11" stop-color="#4198C0"/>
<stop offset="0.23" stop-color="#296BB3"/>
<stop offset="0.34" stop-color="#184AAA"/>
<stop offset="0.43" stop-color="#0D37A5"/>
<stop offset="0.49" stop-color="#0A30A3"/>
<stop offset="1" stop-color="#00152A"/>
</radialGradient>
<linearGradient id="paint2_linear_253_3628" x1="1160.5" y1="1260" x2="1378.5" y2="1047.5" gradientUnits="userSpaceOnUse">
<stop stop-color="#0A30A3" stop-opacity="0.31"/>
<stop offset="1" stop-color="white" stop-opacity="0"/>
</linearGradient>
<radialGradient id="paint3_radial_253_3628" cx="0" cy="0" r="1" gradientUnits="userSpaceOnUse" gradientTransform="translate(775.351 1197.09) rotate(121.375) scale(765.679)">
<stop stop-color="#5BC7CE"/>
<stop offset="0.11" stop-color="#4198C0"/>
<stop offset="0.23" stop-color="#296BB3"/>
<stop offset="0.34" stop-color="#184AAA"/>
<stop offset="0.43" stop-color="#0D37A5"/>
<stop offset="0.49" stop-color="#0A30A3"/>
<stop offset="1" stop-color="#00152A"/>
</radialGradient>
<clipPath id="clip0_253_3628">
<rect width="1280" height="1030" fill="white"/>
</clipPath>
</defs>
</svg>
