<svg width="1920" height="880" viewBox="0 0 1920 880" fill="none" xmlns="http://www.w3.org/2000/svg">
<g clip-path="url(#clip0_268_3280)">
<rect width="1920" height="880" fill="url(#paint0_linear_268_3280)"/>
<path style="mix-blend-mode:overlay" d="M1022.78 450.57C1025.6 453.392 1025.6 457.979 1022.78 460.821L690.817 792.786C687.994 795.608 683.408 795.608 680.566 792.786C677.744 789.963 677.744 785.377 680.566 782.535L1012.53 450.57C1015.35 447.748 1019.94 447.748 1022.78 450.57Z" fill="url(#paint1_linear_268_3280)"/>
<path d="M110.268 236.32C106.97 237.425 99.8663 242.349 98.7117 243.797C91.2066 253.168 104.379 281.763 121.493 281.4C125.059 281.325 132.421 276.444 135.876 272.919C146.296 262.284 127.577 230.514 110.268 236.32Z" fill="#F09D35"/>
<path d="M114.425 261.654C116.898 265.243 123.308 271.968 127.638 272.27C130.236 272.451 132.076 270.81 133.114 268.461C136.993 259.686 127.629 246.398 130.385 250.251C134.69 256.26 137.37 267.416 131.666 272.076C129.712 273.671 126.662 273.957 123.378 271.891C109.495 263.16 102.647 242.29 113.216 239.125C121.523 236.637 130.051 249.116 129.678 249.37C129.419 249.547 126.274 243.991 119.747 240.705C116.027 238.831 112.294 239.839 110.637 241.937C106.908 246.66 110.651 256.179 114.425 261.654Z" fill="black"/>
<path d="M109.044 236.18C105.7 237.894 102.512 239.897 99.5188 242.169C90.0267 249.901 100.88 278.104 118.434 281.811C120.091 282.109 121.792 282.054 123.426 281.651C126.136 280.808 130.718 278.315 135.688 273.925C136.517 273.167 137.222 272.283 137.777 271.307C145.02 258.717 126.231 228.702 109.044 236.18ZM102.465 242.32C103.866 241.326 105.241 240.354 106.626 239.494C104.783 242.042 103.952 245.183 104.293 248.31C101.425 250.345 102.134 250.542 98.0177 251.899C97.7637 245.416 100.118 243.995 102.465 242.32ZM98.1188 253.403C98.9905 252.866 100.196 251.943 101.268 251.361C102.247 250.83 103.527 250.362 104.443 249.949C104.91 252.993 105.81 255.953 107.116 258.742C104.473 260.456 105.225 260.811 100.446 262.344C99.218 259.5 98.433 256.485 98.1188 253.403V253.403ZM101.022 263.605C101.873 263.067 102.954 262.288 103.927 261.784C105.177 261.137 106.898 260.595 107.796 260.148C109.269 263.107 111.071 265.889 113.169 268.442C112.309 268.958 111.037 269.946 109.907 270.542C108.822 271.113 107.366 271.586 106.443 271.993C104.283 269.441 102.461 266.622 101.022 263.605V263.605ZM107.428 273.095C111.817 269.795 111.427 270.874 114.201 269.648C115.937 271.652 117.953 273.395 120.187 274.823C116.81 277.907 117.454 276.924 114.502 278.559C111.824 277.193 109.423 275.34 107.423 273.095H107.428ZM120.899 280.098C119.222 280.087 117.561 279.779 115.991 279.189C119.167 276.254 120.04 276.813 121.661 275.611C124.117 276.739 126.872 277.046 129.517 276.486C127.423 277.852 123.371 280.197 120.889 280.098H120.899ZM136.31 270.462C135.826 271.267 135.226 271.998 134.531 272.63C132.51 274.374 131.899 275.088 129.431 275.555C123.723 276.663 119.579 273.719 115.62 269.52C107.46 260.523 99.9229 243.22 110.488 237.49C125.26 231.716 143.513 258.329 136.31 270.462Z" fill="black"/>
<path d="M124.417 257.283C120.589 259.925 120.881 259.904 120.393 259.65C116.921 257.847 116.964 257.977 116.867 257.698C116.77 257.419 116.29 257.902 123.977 252.566C124.265 252.367 124.245 252.463 127.763 254.254C128.555 254.657 128.104 254.738 124.417 257.283Z" fill="black"/>
<path d="M115.435 255.622C115.217 255.437 115.323 255.622 114.858 251.618C114.794 251.071 114.369 251.522 122.028 246.284C122.547 245.93 122.569 247.098 122.628 247.636C122.926 250.33 123.054 250.607 122.751 250.812C115.05 256.069 115.647 255.8 115.435 255.622Z" fill="black"/>
<path d="M129.497 256.63C129.705 256.823 129.629 256.687 130.074 260.71C130.123 261.151 130.576 260.698 122.866 265.98C122.623 266.146 122.438 265.884 122.405 265.586C121.993 261.803 121.871 261.641 122.168 261.442C129.923 256.104 129.315 256.465 129.497 256.63Z" fill="black"/>
<rect width="1920" height="880" fill="url(#paint2_linear_268_3280)"/>
<path d="M777.88 67.5797C778.179 67.9501 778.121 68.4925 777.75 68.7911L734.3 103.828C733.93 104.127 733.387 104.068 733.089 103.698C732.79 103.328 732.848 102.785 733.218 102.487L776.669 67.4499C777.039 67.1512 777.582 67.2094 777.88 67.5797Z" fill="url(#paint3_linear_268_3280)" style="mix-blend-mode:overlay"/>
<path d="M1961.33 37.1168C1964.16 39.9392 1964.16 44.5256 1961.33 47.3676L1629.37 379.333C1626.55 382.155 1621.96 382.155 1619.12 379.333C1616.29 376.51 1616.29 371.924 1619.12 369.082L1951.08 37.1168C1953.9 34.2944 1958.49 34.2944 1961.33 37.1168Z" fill="url(#paint4_linear_268_3280)" style="mix-blend-mode:overlay"/>
<path d="M584.78 89.6697L647.249 144.724C695.064 93.2769 775.412 88.9928 828.419 135.708C881.427 182.423 887.256 262.673 842.247 316.575L904.716 371.629C980.131 283.247 970.942 150.38 883.455 73.2597C795.969 -3.84145 663.001 3.74314 584.78 89.6697Z" fill="url(#paint5_radial_268_3280)" fill-opacity="0.2"/>
<path d="M1703.07 -383.389L1647.82 -321.092C1699.12 -273.116 1703.15 -192.755 1656.27 -139.894C1609.39 -87.0328 1390.3 -94.7169 1336.54 -139.894L1420.11 -64.3342C1508.26 11.356 1641.15 2.58226 1718.55 -84.6637C1795.92 -171.909 1788.75 -304.9 1703.07 -383.389Z" fill="url(#paint6_radial_268_3280)" fill-opacity="0.2"/>
</g>
<defs>
<linearGradient id="paint0_linear_268_3280" x1="960" y1="0" x2="960" y2="880" gradientUnits="userSpaceOnUse">
<stop offset="0.729167" stop-color="#01164E"/>
<stop offset="1" stop-color="#092E9C"/>
</linearGradient>
<linearGradient id="paint1_linear_268_3280" x1="909.866" y1="550.844" x2="709.907" y2="794.276" gradientUnits="userSpaceOnUse">
<stop offset="0.17" stop-color="#0A30A3"/>
<stop offset="1" stop-color="white"/>
</linearGradient>
<linearGradient id="paint2_linear_268_3280" x1="-15.5" y1="19.2936" x2="1929.41" y2="752.891" gradientUnits="userSpaceOnUse">
<stop stop-color="#0A30A3"/>
<stop offset="0.563541" stop-color="#001447"/>
</linearGradient>
<linearGradient id="paint3_linear_268_3280" x1="763.261" y1="78.0023" x2="734.115" y2="102.196" gradientUnits="userSpaceOnUse">
<stop offset="0.17" stop-color="#0A30A3"/>
<stop offset="1" stop-color="white"/>
</linearGradient>
<linearGradient id="paint4_linear_268_3280" x1="1639.5" y1="381" x2="1857.5" y2="168.5" gradientUnits="userSpaceOnUse">
<stop stop-color="#0A30A3" stop-opacity="0.31"/>
<stop offset="1" stop-color="white" stop-opacity="0"/>
</linearGradient>
<radialGradient id="paint5_radial_268_3280" cx="0" cy="0" r="1" gradientUnits="userSpaceOnUse" gradientTransform="translate(920.79 358.869) rotate(131.39) scale(1433.13)">
<stop stop-color="#5BC7CE"/>
<stop offset="0.11" stop-color="#4198C0"/>
<stop offset="0.23" stop-color="#296BB3"/>
<stop offset="0.34" stop-color="#184AAA"/>
<stop offset="0.43" stop-color="#0D37A5"/>
<stop offset="0.49" stop-color="#0A30A3"/>
<stop offset="1" stop-color="#00152A"/>
</radialGradient>
<radialGradient id="paint6_radial_268_3280" cx="0" cy="0" r="1" gradientUnits="userSpaceOnUse" gradientTransform="translate(1432.82 -48.22) rotate(-138.431) scale(1433.13)">
<stop stop-color="#5BC7CE"/>
<stop offset="0.11" stop-color="#4198C0"/>
<stop offset="0.23" stop-color="#296BB3"/>
<stop offset="0.34" stop-color="#184AAA"/>
<stop offset="0.43" stop-color="#0D37A5"/>
<stop offset="0.49" stop-color="#0A30A3"/>
<stop offset="1" stop-color="#00152A"/>
</radialGradient>
<clipPath id="clip0_268_3280">
<rect width="1920" height="880" fill="white"/>
</clipPath>
</defs>
</svg>
