<svg width="290" height="260" viewBox="0 0 290 260" fill="none" xmlns="http://www.w3.org/2000/svg">
<path d="M153.185 173.649C176.937 173.649 196.191 192.903 196.191 216.654C196.191 240.406 176.937 259.66 153.185 259.66C129.434 259.66 110.18 240.406 110.18 216.654C110.18 192.903 129.434 173.649 153.185 173.649Z" fill="url(#paint0_radial_221_4354)"/>
<path d="M75.8739 130.17C75.8739 130.17 72.0005 181.963 68.034 201.012H159.436C155.168 183.256 150.754 135.247 150.754 135.247L163.671 154.377L175.303 125.032C175.303 125.032 164.106 105.887 152.025 95.8792C143.635 88.9278 126.187 86.3716 116.312 85.4585V84.9141C116.312 84.9141 114.956 84.9756 112.704 85.1673C110.45 85.0127 109.093 84.9733 109.093 84.9733L109.099 85.5178C99.2404 86.5934 82.035 89.6741 73.5627 96.5246C42.2067 121.878 25.9893 199.082 25.5879 201.012H45.1069C55.6521 161.018 75.8739 130.17 75.8739 130.17Z" fill="#2A485E"/>
<path d="M175.302 125.032C175.302 125.032 167.524 111.734 157.94 101.512C154.497 114.429 153.449 127.985 154.83 141.283L163.673 154.378L175.302 125.032Z" fill="#193345"/>
<path d="M255.039 155.15C252.733 153.974 250.721 152.354 248.903 150.506L182.749 128.498C182.749 128.498 182.749 109.074 179.014 98.9439C185.288 87.2273 184.784 76.2237 182.749 69.6015C180.713 62.9793 171.868 59.2341 168.627 68.9607C167.017 73.7944 160.244 93.5778 157.785 98.6267C151.574 129.311 161.345 165.883 180.793 179.129C200.241 192.375 232.537 193.667 256.022 187.124C272.556 182.515 277.216 164.6 278.527 154.398C276.206 155.363 273.827 156.167 271.37 156.703C265.919 157.892 260.006 157.685 255.039 155.15Z" fill="#F7A87E"/>
<path d="M279.035 147.184L262.357 154.984L248.9 150.507C250.718 152.355 252.73 153.975 255.036 155.151C260.005 157.686 265.919 157.893 271.369 156.702C273.826 156.166 276.205 155.362 278.526 154.398C279.076 150.109 279.035 147.184 279.035 147.184Z" fill="#E98870"/>
<path d="M270.215 62.3728L253.623 80.0028C249.595 84.2832 249.975 91.0684 254.456 94.8692C258.697 98.4671 265.031 98.0347 268.743 93.8941L284.905 75.8692C288.571 71.78 288.243 65.4981 284.17 61.8121C280.142 58.1679 273.938 58.417 270.215 62.3728Z" fill="#F7A87E"/>
<path d="M126.561 86.7383L98.375 86.7934L101.576 109.148H123.001L126.561 86.7383Z" fill="#ECEADD"/>
<path d="M122.999 109.148H101.574L109.337 163.366L122.999 109.148Z" fill="white"/>
<path d="M100.748 72.8906V82.1422C104.452 84.8526 108.768 86.5407 113.261 86.73C113.364 86.7347 113.469 86.7379 113.573 86.7393C113.677 86.7407 113.78 86.7347 113.884 86.73C118.086 86.5536 122.135 85.0633 125.671 82.6557V72.8906H100.748Z" fill="#E98870"/>
<path d="M132.035 61.1779C138.645 58.7314 144.041 53.2041 146.327 46.537C148.613 39.8699 147.745 32.1943 144.028 26.2064C147.229 25.4355 148.761 21.2986 147.551 18.2368C146.34 15.175 143.156 13.2629 139.927 12.616C141.443 11.1891 141.12 8.52964 139.726 6.98416C138.333 5.43868 136.208 4.78632 134.155 4.43768C130.855 3.87699 127.478 3.92838 124.141 4.18442C117.812 4.67103 95.4533 3.99922 89.2205 19.111C81.1681 21.6329 81.2398 33.7171 81.1741 37.0053C80.9981 45.8022 84.6303 54.9524 91.8332 60.0046C103.212 67.9867 118.999 66.0037 132.035 61.1779Z" fill="#4E2F20"/>
<path d="M136.3 63.9949C132.776 73.8183 123.752 81.4711 113.885 81.8851C113.781 81.8897 113.677 81.8928 113.573 81.8943C113.47 81.8943 113.365 81.8897 113.26 81.8851C103.392 81.4711 94.3702 73.8183 90.8454 63.9949C88.6989 58.0102 88.3864 51.4634 88.617 45.0644C88.8475 38.6653 89.5981 32.2824 89.4781 25.8806C97.3995 24.2522 105.53 22.9924 113.573 23.4568C121.617 22.9938 129.745 24.2522 137.667 25.8806C137.547 32.2824 138.296 38.6657 138.528 45.0644C138.76 51.463 138.446 58.0102 136.3 63.9949Z" fill="#F7A87E"/>
<path d="M139.874 50.7398C136.485 45.7705 134.364 39.6455 134.671 33.6381C120.265 34.6421 105.808 32.645 92.2138 27.7733C92.3717 35.7021 90.2109 43.493 86.8463 50.6745C86.4379 42.7702 86.3319 35.0979 87.1704 27.2279C87.263 26.3316 87.3778 25.407 87.8278 24.6254C88.6283 23.2364 90.2817 22.6202 91.8184 22.1516C106.257 17.7402 122.2 17.1082 136.269 22.5873C137.75 23.1651 139.256 23.8374 140.332 25.0129C141.277 26.0431 141.818 27.3863 142.128 28.7489C142.687 31.2027 142.55 33.7552 142.409 36.2684C142.128 41.2627 141.586 46.0399 139.874 50.7398Z" fill="#4E2F20"/>
<path d="M83.0602 36.0747C85.0614 33.9615 86.8166 31.6283 88.2921 29.1196C89.5236 27.0236 90.7589 24.6285 93.0447 23.8007C95.1477 23.0395 97.6747 23.8289 99.6031 22.6988C100.586 22.1233 101.27 21.1162 102.281 20.5903C104.254 19.5629 106.593 20.6782 108.708 21.3676C113.477 22.9233 118.954 22.1256 123.083 19.2744C125.18 17.8253 126.999 15.7422 127.43 13.2296C127.811 11.0127 127.076 8.75933 126.173 6.699C125.79 5.82671 125.372 4.97063 124.926 4.12891C124.665 4.1465 124.403 4.16456 124.143 4.18493C121.818 4.36365 117.33 4.38726 112.273 5.09287C112.339 5.16047 112.404 5.2276 112.469 5.29659C113.58 6.49065 114.484 8.17318 113.932 9.7094C113.505 10.8984 112.336 11.635 111.222 12.2309C107.805 14.0572 104.163 15.4239 100.388 16.2955C99.4841 16.5039 98.4757 16.7488 97.9803 17.5331C97.6303 18.0887 97.6238 18.7901 97.364 19.3911C96.8547 20.5676 95.5093 21.1213 94.2578 21.3964C93.0063 21.6714 91.6604 21.8103 90.6385 22.583C90.1292 22.9673 89.7399 23.4845 89.2801 23.9257C87.8157 25.3323 85.6437 25.9069 83.6417 25.5689C83.4195 25.5314 83.2 25.4814 82.9829 25.4235C81.2059 29.7909 81.2161 35.0131 81.1772 37.0053C81.1712 37.3063 81.1707 37.6072 81.1735 37.9087C81.8305 37.3262 82.4588 36.71 83.0602 36.0747Z" fill="#5E3B2B"/>
<path d="M106.164 41.4016C106.778 41.422 107.408 41.4646 107.966 41.7188C108.525 41.973 109.007 42.4818 109.061 43.0934C109.123 43.7935 108.606 44.4421 107.977 44.7551C107.348 45.0681 106.624 45.1144 105.922 45.1482C103.63 45.2578 101.337 45.2896 99.0417 45.2436C98.2338 45.2274 96.4952 45.1047 96.4767 43.9356C96.4605 42.9582 97.9833 42.6438 98.7148 42.3906C101.097 41.5655 103.655 41.3197 106.164 41.4016Z" fill="#452819"/>
<path d="M121.798 41.4016C121.184 41.422 120.555 41.4646 119.996 41.7188C119.436 41.973 118.955 42.4818 118.901 43.0934C118.84 43.7935 119.356 44.4421 119.985 44.7551C120.615 45.0681 121.339 45.1144 122.041 45.1482C124.332 45.2578 126.625 45.2896 128.921 45.2436C129.729 45.2274 131.467 45.1047 131.486 43.9356C131.502 42.9582 129.979 42.6438 129.248 42.3906C126.865 41.5655 124.307 41.3197 121.798 41.4016Z" fill="#452819"/>
<path d="M102.771 54.2559C104.128 54.2559 105.229 53.1554 105.229 51.7979C105.229 50.4403 104.128 49.3398 102.771 49.3398C101.413 49.3398 100.312 50.4403 100.312 51.7979C100.312 53.1554 101.413 54.2559 102.771 54.2559Z" fill="#452819"/>
<path d="M124.233 54.2559C125.591 54.2559 126.691 53.1554 126.691 51.7979C126.691 50.4403 125.591 49.3398 124.233 49.3398C122.876 49.3398 121.775 50.4403 121.775 51.7979C121.775 53.1554 122.876 54.2559 124.233 54.2559Z" fill="#452819"/>
<path d="M114.556 72.8933C112.808 72.9239 111.08 73.2985 109.441 73.9119C110.587 74.6263 112.039 75.0916 113.886 75.0916C116.016 75.0916 117.622 74.4749 118.836 73.5684C117.461 73.0913 116.011 72.8627 114.556 72.8933Z" fill="#F28487"/>
<path d="M109.825 68.0011C110.867 68.4641 111.966 68.8109 113.097 68.9563C115.293 69.2387 117.565 68.7378 119.495 67.652C120.136 67.2895 120.74 66.8668 121.301 66.3895C121.114 66.3105 120.913 66.2697 120.71 66.2695H107.135C107.176 66.3103 107.218 66.3506 107.26 66.3899C108.003 67.0812 108.898 67.59 109.825 68.0011Z" fill="white"/>
<path d="M121.302 66.3895C120.742 66.8668 120.137 67.2895 119.497 67.652C117.567 68.7378 115.295 69.2387 113.099 68.9563C111.968 68.8109 110.869 68.4637 109.827 68.0011C108.901 67.59 108.005 67.0812 107.262 66.3899C107.22 66.3506 107.178 66.3103 107.136 66.2695H107.06C106.826 66.2691 106.596 66.3222 106.386 66.4249C106.176 66.5275 105.993 66.6769 105.849 66.8616C105.706 67.0463 105.607 67.2613 105.561 67.4902C105.514 67.719 105.52 67.9556 105.578 68.1817C106.041 69.9258 107.092 72.4454 109.442 73.9113C111.081 73.296 112.809 72.9214 114.556 72.8927C116.011 72.8627 117.461 73.0919 118.836 73.5696C120.835 72.0769 121.766 69.7976 122.193 68.1836C122.287 67.8273 122.248 67.4492 122.084 67.1193C121.921 66.7894 121.643 66.5301 121.302 66.3895Z" fill="#AB404A"/>
<path d="M113.573 86.7377C113.469 86.7377 113.364 86.7331 113.261 86.7284C108.769 86.54 104.451 84.851 100.748 82.1406V99.3752H120.425L125.671 91.8807V82.6522C122.135 85.0626 118.086 86.5521 113.884 86.7266C113.78 86.7325 113.677 86.7362 113.573 86.7377Z" fill="#F7A87E"/>
<path d="M100.75 84.5273L112.779 98.5015L125.673 84.5273L127.373 86.896L122.875 109.218L112.695 99.3756L101.584 109.207L98.375 86.7932L100.75 84.5273Z" fill="white"/>
<path d="M106.789 104.601L111.502 111.413L104.588 130.183L109.339 163.364L118.293 127.832L114.343 111.335L118.651 105.133L112.695 99.375L106.789 104.601Z" fill="#D75555"/>
<path d="M208.366 158.738L208.301 158.852H208.432L208.366 158.738Z" fill="#F68C24"/>
<path d="M257.313 140.681L274.562 130.091C278.751 127.519 284.066 129.281 286.212 133.952C288.242 138.372 286.661 143.745 282.647 146.074L265.167 156.209C261.202 158.507 256.273 156.896 254.142 152.603C252.03 148.357 253.442 143.057 257.313 140.681Z" fill="#F7A87E"/>
<path d="M251.401 118.96L274.716 109.656C280.377 107.397 286.775 110.343 288.74 116.113C290.597 121.571 287.772 127.518 282.367 129.525L258.835 138.262C253.496 140.245 247.56 137.539 245.554 132.209C243.57 126.937 246.169 121.047 251.401 118.96Z" fill="#F7A87E"/>
<path d="M249.205 98.2694L271.691 89.297C277.15 87.1186 283.321 89.9595 285.216 95.5243C287.008 100.789 284.284 106.523 279.07 108.459L256.374 116.886C251.226 118.797 245.5 116.187 243.566 111.047C241.652 105.963 244.159 100.283 249.205 98.2694Z" fill="#F7A87E"/>
<path d="M134.457 68.0368C137.31 68.1965 140.242 67.4081 142.507 65.6658C144.771 63.9236 146.31 61.2048 146.434 58.3505C146.502 56.7763 146.066 55.0553 144.801 54.1173C143.835 53.4006 142.551 53.2626 141.353 53.3668C139.689 53.5112 137.946 54.171 137.063 55.5892L134.457 68.0368Z" fill="#F7A87E"/>
<path d="M140.701 57.9777C140.843 58.0631 140.974 58.1644 141.093 58.2796C141.611 58.7776 141.914 59.4594 141.935 60.1781C141.956 60.8969 141.693 61.5951 141.205 62.1225C141.181 62.1483 141.152 62.1692 141.12 62.1839C141.088 62.1986 141.053 62.2069 141.018 62.2083C140.983 62.2096 140.948 62.204 140.915 62.1918C140.882 62.1796 140.852 62.161 140.826 62.1371C140.8 62.1132 140.779 62.0844 140.764 62.0524C140.75 62.0204 140.741 61.9858 140.74 61.9506C140.739 61.9154 140.744 61.8803 140.756 61.8473C140.769 61.8143 140.787 61.784 140.811 61.7581C141.204 61.3339 141.414 60.7727 141.397 60.195C141.381 59.6173 141.138 59.0692 140.721 58.6685C140.57 58.5232 140.34 58.3505 140.073 58.3065C139.07 58.9235 138.294 59.8485 137.861 60.9432C137.841 60.9945 137.806 61.0384 137.76 61.0689C137.714 61.0995 137.66 61.1153 137.605 61.1141C137.574 61.1135 137.542 61.1073 137.513 61.0956C137.447 61.0698 137.393 61.0188 137.365 60.9538C137.336 60.8888 137.334 60.815 137.36 60.7488C137.871 59.4354 138.835 58.3482 140.078 57.6842C141.321 57.0201 142.761 56.8231 144.136 57.1286C144.206 57.1441 144.266 57.1865 144.304 57.2466C144.343 57.3066 144.355 57.3793 144.34 57.4488C144.324 57.5182 144.282 57.5787 144.222 57.6168C144.162 57.655 144.089 57.6677 144.02 57.6523C142.907 57.4111 141.746 57.525 140.701 57.9777Z" fill="#D26F61"/>
<path d="M136.141 63.6117C136.176 63.55 136.235 63.5048 136.303 63.4862C136.372 63.4675 136.445 63.4769 136.507 63.5122C137.954 64.3405 139.771 63.8418 140.989 63.0987C141.769 62.6242 142.795 61.7945 143.255 60.5388C143.267 60.5058 143.285 60.4755 143.309 60.4496C143.333 60.4237 143.362 60.4028 143.394 60.388C143.426 60.3732 143.46 60.3649 143.496 60.3635C143.531 60.3621 143.566 60.3676 143.599 60.3798C143.632 60.3919 143.662 60.4105 143.688 60.4344C143.714 60.4583 143.735 60.487 143.75 60.519C143.765 60.5509 143.773 60.5855 143.774 60.6207C143.776 60.6558 143.77 60.691 143.758 60.724C143.244 62.1246 142.12 63.039 141.269 63.5571C140.399 64.0868 139.247 64.5007 138.096 64.4752C137.446 64.4678 136.807 64.2966 136.24 63.9775C136.179 63.9422 136.134 63.8838 136.115 63.8152C136.096 63.7466 136.106 63.6734 136.141 63.6117Z" fill="#D26F61"/>
<path d="M92.5305 68.0368C89.678 68.1965 86.7431 67.4081 84.4809 65.6658C82.2187 63.9236 80.6774 61.2048 80.5537 58.3505C80.4852 56.7763 80.9218 55.0553 82.1867 54.1173C83.153 53.4006 84.4364 53.2626 85.6347 53.3668C87.2987 53.5112 89.0419 54.171 89.9243 55.5892L92.5305 68.0368Z" fill="#F7A87E"/>
<path d="M86.2896 57.9777C86.1479 58.0631 86.0165 58.1644 85.8979 58.2796C85.3792 58.7776 85.0769 59.4594 85.0559 60.1781C85.0349 60.8969 85.2971 61.5951 85.7858 62.1225C85.8098 62.1483 85.8386 62.1692 85.8705 62.1839C85.9025 62.1986 85.9371 62.2069 85.9723 62.2083C86.0075 62.2096 86.0426 62.204 86.0756 62.1918C86.1087 62.1796 86.139 62.161 86.1648 62.1371C86.1906 62.1131 86.2115 62.0843 86.2262 62.0524C86.241 62.0204 86.2492 61.9858 86.2506 61.9506C86.2519 61.9154 86.2464 61.8803 86.2341 61.8473C86.2219 61.8142 86.2033 61.7839 86.1794 61.7581C85.7869 61.3339 85.5764 60.7727 85.5932 60.195C85.61 59.6173 85.8527 59.0692 86.2692 58.6685C86.4201 58.5231 86.6507 58.3504 86.9174 58.3065C87.9203 58.9233 88.6964 59.8484 89.1296 60.9432C89.1496 60.9944 89.1848 61.0383 89.2305 61.0688C89.2762 61.0994 89.3302 61.1152 89.3852 61.1141C89.4169 61.1135 89.4483 61.1073 89.4778 61.0955C89.5106 61.0828 89.5406 61.0638 89.5661 61.0395C89.5915 61.0152 89.6119 60.9861 89.6261 60.9539C89.6403 60.9216 89.648 60.8869 89.6488 60.8518C89.6495 60.8166 89.6434 60.7816 89.6306 60.7488C89.1198 59.4354 88.1557 58.3483 86.9128 57.6842C85.6699 57.0202 84.2303 56.8231 82.8546 57.1286C82.8202 57.1362 82.7877 57.1506 82.7588 57.1708C82.73 57.191 82.7054 57.2167 82.6865 57.2464C82.6676 57.2761 82.6547 57.3092 82.6486 57.3439C82.6425 57.3786 82.6433 57.4141 82.6509 57.4485C82.6585 57.4829 82.6729 57.5155 82.6931 57.5443C82.7133 57.5731 82.739 57.5977 82.7687 57.6166C82.7984 57.6356 82.8315 57.6484 82.8662 57.6545C82.9009 57.6607 82.9364 57.6599 82.9708 57.6522C84.0839 57.4111 85.2446 57.525 86.2896 57.9777Z" fill="#D26F61"/>
<path d="M90.8486 63.6117C90.8132 63.55 90.7547 63.5048 90.686 63.4862C90.6174 63.4675 90.5441 63.4769 90.4823 63.5122C89.0355 64.3405 87.2182 63.8418 86.0001 63.0987C85.2208 62.6242 84.1944 61.7945 83.7346 60.5388C83.7225 60.5058 83.7039 60.4755 83.68 60.4496C83.6561 60.4237 83.6274 60.4028 83.5954 60.388C83.5635 60.3732 83.5289 60.3649 83.4937 60.3635C83.4585 60.3621 83.4234 60.3676 83.3904 60.3798C83.3573 60.3919 83.327 60.4105 83.3011 60.4344C83.2753 60.4583 83.2543 60.487 83.2396 60.519C83.2248 60.5509 83.2165 60.5855 83.2151 60.6207C83.2136 60.6558 83.2192 60.691 83.2313 60.724C83.7457 62.1246 84.869 63.039 85.7209 63.5571C86.5904 64.0868 87.7423 64.5007 88.8933 64.4752C89.5439 64.4679 90.1821 64.2967 90.749 63.9775C90.8107 63.9422 90.8559 63.8838 90.8745 63.8152C90.8932 63.7466 90.8839 63.6734 90.8486 63.6117Z" fill="#D26F61"/>
<path opacity="0.12" d="M126.155 64.2011C128.303 64.2011 130.045 62.4597 130.045 60.3115C130.045 58.1633 128.303 56.4219 126.155 56.4219C124.007 56.4219 122.266 58.1633 122.266 60.3115C122.266 62.4597 124.007 64.2011 126.155 64.2011Z" fill="#ED7C6D"/>
<path opacity="0.12" d="M128.349 62.0082C129.868 60.4892 129.868 58.0264 128.349 56.5074C126.83 54.9884 124.367 54.9884 122.848 56.5074C121.329 58.0264 121.329 60.4892 122.848 62.0082C124.367 63.5272 126.83 63.5272 128.349 62.0082Z" fill="#ED7C6D"/>
<path opacity="0.12" d="M127.782 64.2011C129.93 64.2011 131.672 62.4597 131.672 60.3115C131.672 58.1633 129.93 56.4219 127.782 56.4219C125.634 56.4219 123.893 58.1633 123.893 60.3115C123.893 62.4597 125.634 64.2011 127.782 64.2011Z" fill="#ED7C6D"/>
<path opacity="0.12" d="M126.013 65.3574C128.161 65.3574 129.902 63.6159 129.902 61.4678C129.902 59.3196 128.161 57.5781 126.013 57.5781C123.864 57.5781 122.123 59.3196 122.123 61.4678C122.123 63.6159 123.864 65.3574 126.013 65.3574Z" fill="#ED7C6D"/>
<path opacity="0.12" d="M126.38 63.2248C127.989 63.2248 129.293 61.9205 129.293 60.3116C129.293 58.7027 127.989 57.3984 126.38 57.3984C124.771 57.3984 123.467 58.7027 123.467 60.3116C123.467 61.9205 124.771 63.2248 126.38 63.2248Z" fill="#ED7C6D"/>
<path opacity="0.12" d="M126.778 62.3136C127.725 62.3136 128.493 61.5456 128.493 60.5982C128.493 59.6508 127.725 58.8828 126.778 58.8828C125.831 58.8828 125.062 59.6508 125.062 60.5982C125.062 61.5456 125.831 62.3136 126.778 62.3136Z" fill="#ED7C6D"/>
<path opacity="0.12" d="M127.266 60.3764C127.484 59.4543 126.913 58.5304 125.991 58.3128C125.069 58.0952 124.145 58.6662 123.927 59.5883C123.71 60.5103 124.281 61.4342 125.203 61.6519C126.125 61.8695 127.049 61.2984 127.266 60.3764Z" fill="#ED7C6D"/>
<path opacity="0.12" d="M127.699 61.3374C128.574 60.9749 128.989 59.9714 128.627 59.0961C128.264 58.2209 127.261 57.8052 126.386 58.1678C125.51 58.5303 125.095 59.5338 125.457 60.409C125.82 61.2843 126.823 61.7 127.699 61.3374Z" fill="#ED7C6D"/>
<path opacity="0.12" d="M126.812 61.896C127.687 61.5335 128.103 60.53 127.74 59.6547C127.378 58.7795 126.374 58.3638 125.499 58.7264C124.624 59.0889 124.208 60.0924 124.571 60.9676C124.933 61.8429 125.937 62.2586 126.812 61.896Z" fill="#ED7C6D"/>
<path opacity="0.12" d="M128.048 60.1381C128.265 59.216 127.694 58.2921 126.772 58.0745C125.85 57.8569 124.926 58.4279 124.708 59.35C124.491 60.2721 125.062 61.196 125.984 61.4136C126.906 61.6312 127.83 61.0601 128.048 60.1381Z" fill="#ED7C6D"/>
<path opacity="0.05" d="M126.647 60.9667C127.324 60.9667 127.873 60.418 127.873 59.7412C127.873 59.0643 127.324 58.5156 126.647 58.5156C125.971 58.5156 125.422 59.0643 125.422 59.7412C125.422 60.418 125.971 60.9667 126.647 60.9667Z" fill="#FDECE9"/>
<path opacity="0.05" d="M126.377 59.9923C126.782 59.9923 127.109 59.6643 127.109 59.2598C127.109 58.8553 126.782 58.5273 126.377 58.5273C125.972 58.5273 125.645 58.8553 125.645 59.2598C125.645 59.6643 125.972 59.9923 126.377 59.9923Z" fill="#FDECE9"/>
<path opacity="0.05" d="M126.94 59.5416C126.881 59.6206 126.8 59.6803 126.706 59.7131C126.613 59.7458 126.512 59.7502 126.417 59.7257C126.321 59.7012 126.235 59.6488 126.169 59.5753C126.103 59.5017 126.06 59.4103 126.046 59.3125C126.032 59.2147 126.047 59.1149 126.09 59.0258C126.133 58.9367 126.201 58.8623 126.286 58.812C126.371 58.7616 126.469 58.7376 126.568 58.7429C126.666 58.7483 126.761 58.7827 126.84 58.842C126.893 58.8814 126.937 58.9307 126.97 58.9871C127.004 59.0436 127.026 59.1061 127.035 59.1711C127.044 59.236 127.041 59.3022 127.025 59.3658C127.008 59.4293 126.98 59.4891 126.94 59.5416Z" fill="#FDECE9"/>
<path opacity="0.05" d="M126.777 59.4753C126.718 59.5545 126.637 59.6144 126.543 59.6473C126.45 59.6803 126.349 59.6848 126.253 59.6603C126.158 59.6359 126.071 59.5835 126.005 59.51C125.939 59.4364 125.896 59.3448 125.882 59.2469C125.868 59.149 125.883 59.0491 125.926 58.9599C125.969 58.8707 126.037 58.7961 126.122 58.7457C126.207 58.6952 126.305 58.6712 126.404 58.6765C126.503 58.6819 126.598 58.7164 126.677 58.7757C126.783 58.8552 126.853 58.9736 126.872 59.1047C126.891 59.2359 126.857 59.3692 126.777 59.4753Z" fill="#FDECE9"/>
<path opacity="0.05" d="M125.673 59.5637C125.938 59.4919 126.094 59.2191 126.023 58.9542C125.951 58.6893 125.678 58.5327 125.413 58.6045C125.148 58.6762 124.992 58.9491 125.063 59.214C125.135 59.4788 125.408 59.6354 125.673 59.5637Z" fill="#FDECE9"/>
<path opacity="0.05" d="M126.841 59.4752C126.781 59.5542 126.7 59.6139 126.607 59.6466C126.514 59.6794 126.413 59.6838 126.317 59.6593C126.221 59.6348 126.135 59.5824 126.069 59.5089C126.003 59.4353 125.96 59.3438 125.946 59.246C125.932 59.1482 125.948 59.0485 125.99 58.9594C126.033 58.8703 126.101 58.7959 126.186 58.7455C126.271 58.6952 126.369 58.6712 126.468 58.6765C126.567 58.6819 126.662 58.7163 126.741 58.7756C126.847 58.8551 126.917 58.9735 126.935 59.1047C126.954 59.2359 126.92 59.3691 126.841 59.4752Z" fill="#FDECE9"/>
<path opacity="0.12" d="M99.7783 64.2011C101.926 64.2011 103.668 62.4597 103.668 60.3115C103.668 58.1633 101.926 56.4219 99.7783 56.4219C97.6301 56.4219 95.8887 58.1633 95.8887 60.3115C95.8887 62.4597 97.6301 64.2011 99.7783 64.2011Z" fill="#ED7C6D"/>
<path opacity="0.12" d="M101.972 62.0082C103.491 60.4892 103.491 58.0264 101.972 56.5074C100.453 54.9884 97.9901 54.9884 96.4711 56.5074C94.9521 58.0264 94.9521 60.4892 96.4711 62.0082C97.9901 63.5272 100.453 63.5272 101.972 62.0082Z" fill="#ED7C6D"/>
<path opacity="0.12" d="M101.405 64.2011C103.553 64.2011 105.295 62.4597 105.295 60.3115C105.295 58.1633 103.553 56.4219 101.405 56.4219C99.2571 56.4219 97.5156 58.1633 97.5156 60.3115C97.5156 62.4597 99.2571 64.2011 101.405 64.2011Z" fill="#ED7C6D"/>
<path opacity="0.12" d="M99.6338 65.3574C101.782 65.3574 103.523 63.6159 103.523 61.4678C103.523 59.3196 101.782 57.5781 99.6338 57.5781C97.4856 57.5781 95.7441 59.3196 95.7441 61.4678C95.7441 63.6159 97.4856 65.3574 99.6338 65.3574Z" fill="#ED7C6D"/>
<path opacity="0.12" d="M100.003 63.2248C101.612 63.2248 102.916 61.9205 102.916 60.3116C102.916 58.7027 101.612 57.3984 100.003 57.3984C98.3941 57.3984 97.0898 58.7027 97.0898 60.3116C97.0898 61.9205 98.3941 63.2248 100.003 63.2248Z" fill="#ED7C6D"/>
<path opacity="0.12" d="M100.401 62.3136C101.348 62.3136 102.116 61.5456 102.116 60.5982C102.116 59.6508 101.348 58.8828 100.401 58.8828C99.4536 58.8828 98.6855 59.6508 98.6855 60.5982C98.6855 61.5456 99.4536 62.3136 100.401 62.3136Z" fill="#ED7C6D"/>
<path opacity="0.12" d="M100.889 60.3764C101.107 59.4543 100.536 58.5304 99.6139 58.3128C98.6918 58.0952 97.7679 58.6662 97.5503 59.5883C97.3327 60.5103 97.9037 61.4342 98.8258 61.6519C99.7478 61.8695 100.672 61.2984 100.889 60.3764Z" fill="#ED7C6D"/>
<path opacity="0.12" d="M101.32 61.3374C102.195 60.9749 102.611 59.9714 102.248 59.0961C101.885 58.2209 100.882 57.8052 100.007 58.1678C99.1314 58.5303 98.7158 59.5338 99.0783 60.409C99.4409 61.2843 100.444 61.7 101.32 61.3374Z" fill="#ED7C6D"/>
<path opacity="0.12" d="M100.435 61.896C101.31 61.5335 101.726 60.53 101.363 59.6547C101.001 58.7795 99.9972 58.3638 99.1219 58.7264C98.2467 59.0889 97.831 60.0924 98.1936 60.9676C98.5561 61.8429 99.5596 62.2586 100.435 61.896Z" fill="#ED7C6D"/>
<path opacity="0.12" d="M101.671 60.1381C101.888 59.216 101.317 58.2921 100.395 58.0745C99.4731 57.8569 98.5492 58.4279 98.3315 59.35C98.1139 60.2721 98.685 61.196 99.607 61.4136C100.529 61.6312 101.453 61.0602 101.671 60.1381Z" fill="#ED7C6D"/>
<path opacity="0.05" d="M100.267 60.9667C100.943 60.9667 101.492 60.418 101.492 59.7412C101.492 59.0643 100.943 58.5156 100.267 58.5156C99.5897 58.5156 99.041 59.0643 99.041 59.7412C99.041 60.418 99.5897 60.9667 100.267 60.9667Z" fill="#FDECE9"/>
<path opacity="0.05" d="M99.9981 59.9923C100.403 59.9923 100.731 59.6643 100.731 59.2598C100.731 58.8553 100.403 58.5273 99.9981 58.5273C99.5936 58.5273 99.2656 58.8553 99.2656 59.2598C99.2656 59.6643 99.5936 59.9923 99.9981 59.9923Z" fill="#FDECE9"/>
<path opacity="0.05" d="M100.563 59.5416C100.504 59.6206 100.423 59.6803 100.329 59.7131C100.236 59.7458 100.135 59.7502 100.04 59.7257C99.9439 59.7012 99.8576 59.6488 99.7917 59.5753C99.7257 59.5017 99.6831 59.4103 99.6691 59.3125C99.6551 59.2147 99.6704 59.1149 99.7131 59.0258C99.7558 58.9367 99.824 58.8623 99.909 58.812C99.994 58.7616 100.092 58.7376 100.191 58.7429C100.289 58.7483 100.384 58.7827 100.463 58.842C100.516 58.8814 100.56 58.9307 100.593 58.9871C100.627 59.0436 100.649 59.1061 100.658 59.1711C100.667 59.236 100.664 59.3022 100.648 59.3658C100.631 59.4293 100.603 59.4891 100.563 59.5416Z" fill="#FDECE9"/>
<path opacity="0.05" d="M100.401 59.4752C100.342 59.5542 100.26 59.6139 100.167 59.6466C100.074 59.6794 99.9732 59.6838 99.8775 59.6593C99.7818 59.6348 99.6955 59.5824 99.6296 59.5089C99.5636 59.4353 99.521 59.3438 99.507 59.246C99.493 59.1482 99.5083 59.0485 99.551 58.9594C99.5937 58.8703 99.6619 58.7959 99.7469 58.7455C99.8319 58.6952 99.9299 58.6712 100.029 58.6765C100.127 58.6819 100.222 58.7163 100.301 58.7756C100.407 58.8551 100.477 58.9735 100.496 59.1047C100.515 59.2359 100.481 59.3691 100.401 59.4752Z" fill="#FDECE9"/>
<path opacity="0.05" d="M100.351 59.7223C100.617 59.6494 100.774 59.3746 100.701 59.1085C100.628 58.8424 100.353 58.6857 100.087 58.7586C99.8212 58.8315 99.6646 59.1063 99.7375 59.3724C99.8104 59.6385 100.085 59.7952 100.351 59.7223Z" fill="#FDECE9"/>
<path opacity="0.05" d="M100.463 59.4753C100.404 59.5545 100.322 59.6144 100.229 59.6473C100.136 59.6803 100.035 59.6848 99.9389 59.6603C99.8431 59.6359 99.7566 59.5835 99.6905 59.51C99.6244 59.4364 99.5816 59.3448 99.5676 59.2469C99.5535 59.149 99.5688 59.0491 99.6115 58.9599C99.6543 58.8707 99.7225 58.7961 99.8076 58.7457C99.8927 58.6952 99.9908 58.6712 100.09 58.6765C100.188 58.6819 100.283 58.7164 100.362 58.7757C100.469 58.8552 100.539 58.9736 100.557 59.1047C100.576 59.2359 100.542 59.3692 100.463 59.4753Z" fill="#FDECE9"/>
<path d="M110.057 57.3828C110.057 57.3939 110.057 57.4046 110.057 57.4157C110.068 58.424 110.476 59.3872 111.193 60.0962C111.91 60.8053 112.878 61.203 113.886 61.203C114.894 61.203 115.862 60.8053 116.579 60.0962C117.296 59.3872 117.704 58.424 117.715 57.4157C117.715 57.4046 117.715 57.3939 117.715 57.3828H110.057Z" fill="#F17D6F"/>
<path d="M179.722 103.829C179.356 102.27 179.496 100.25 179.014 98.94C185.288 87.2234 184.784 76.2198 182.749 69.5976C180.713 62.9753 171.868 59.2302 168.627 68.9568C167.017 73.7905 160.244 93.5739 157.785 98.6228C156.319 105.864 155.744 113.434 155.975 120.947C157.983 119.961 159.942 118.87 161.841 117.718C168.533 113.661 174.174 109.351 179.722 103.829Z" fill="#F7A87E"/>
<path d="M164.034 205.688L137.035 182.143C116.582 204.381 82.0265 206.404 59.1117 186.436C36.1969 166.469 33.516 131.942 52.7643 108.653L25.7652 85.1082C-6.48705 123.308 -2.22721 180.445 35.5823 213.418C73.3919 246.39 130.577 242.837 164.034 205.688Z" fill="#FF9149"/>
<path d="M178.915 24.6719H179.936V31.5907H178.915C178.813 31.5907 178.711 31.5704 178.616 31.5311C178.521 31.4918 178.435 31.4341 178.362 31.3615C178.289 31.2888 178.232 31.2025 178.192 31.1076C178.153 31.0126 178.133 30.9109 178.133 30.8081V25.4544C178.133 25.2469 178.215 25.0478 178.362 24.9011C178.509 24.7543 178.708 24.6719 178.915 24.6719Z" fill="#333333"/>
<path d="M178.915 38.2617H179.936V51.1602H178.915C178.708 51.1602 178.509 51.0778 178.362 50.931C178.215 50.7843 178.133 50.5852 178.133 50.3777V39.0443C178.133 38.8367 178.215 38.6377 178.362 38.4909C178.509 38.3442 178.708 38.2617 178.915 38.2617Z" fill="#333333"/>
<path d="M269.344 62.793H268.324V42.7885H269.344C269.552 42.7885 269.751 42.871 269.898 43.0177C270.045 43.1645 270.127 43.3635 270.127 43.5711V62.0104C270.127 62.218 270.045 62.417 269.898 62.5638C269.751 62.7105 269.552 62.793 269.344 62.793Z" fill="#333333"/>
<path d="M178.915 54.7656H179.936V67.6641H178.915C178.708 67.6641 178.509 67.5817 178.362 67.4349C178.215 67.2882 178.133 67.0891 178.133 66.8816V55.5482C178.133 55.3406 178.215 55.1416 178.362 54.9948C178.509 54.8481 178.708 54.7656 178.915 54.7656Z" fill="#333333"/>
<path d="M255.679 0H192.577C185.098 0 179.035 6.06277 179.035 13.5416V169.458C179.035 176.937 185.098 183 192.577 183H255.679C263.158 183 269.221 176.937 269.221 169.458V13.5416C269.221 6.06277 263.158 0 255.679 0Z" fill="#444444"/>
<path d="M255.679 1.58203H192.575C185.971 1.58203 180.617 6.9357 180.617 13.5398V169.458C180.617 176.062 185.971 181.416 192.575 181.416H255.679C262.283 181.416 267.637 176.062 267.637 169.458V13.5398C267.637 6.9357 262.283 1.58203 255.679 1.58203Z" fill="#444444"/>
<path d="M255.679 1.68359H192.574C186.026 1.68359 180.717 6.99232 180.717 13.541V169.46C180.717 176.008 186.026 181.317 192.574 181.317H255.679C262.227 181.317 267.536 176.008 267.536 169.46V13.541C267.536 6.99232 262.227 1.68359 255.679 1.68359Z" fill="#434343"/>
<path d="M255.68 1.78516H192.575C186.082 1.78516 180.818 7.04895 180.818 13.5422V169.461C180.818 175.954 186.082 181.218 192.575 181.218H255.68C262.173 181.218 267.437 175.954 267.437 169.461V13.5422C267.437 7.04895 262.173 1.78516 255.68 1.78516Z" fill="#414141"/>
<path d="M255.679 1.88672H192.575C186.137 1.88672 180.918 7.10557 180.918 13.5434V169.462C180.918 175.9 186.137 181.119 192.575 181.119H255.679C262.117 181.119 267.336 175.9 267.336 169.462V13.5434C267.336 7.10557 262.117 1.88672 255.679 1.88672Z" fill="#404040"/>
<path d="M255.68 1.98438H192.576C186.193 1.98438 181.02 7.15829 181.02 13.5406V169.459C181.02 175.842 186.193 181.016 192.576 181.016H255.68C262.063 181.016 267.236 175.842 267.236 169.459V13.5406C267.236 7.15829 262.063 1.98438 255.68 1.98438Z" fill="#3E3E3E"/>
<path d="M255.681 2.08594H192.577C186.25 2.08594 181.121 7.21492 181.121 13.5418V169.46C181.121 175.787 186.25 180.916 192.577 180.916H255.681C262.008 180.916 267.137 175.787 267.137 169.46V13.5418C267.137 7.21492 262.008 2.08594 255.681 2.08594Z" fill="#3D3D3D"/>
<path d="M255.679 2.1875H192.576C186.305 2.1875 181.221 7.27154 181.221 13.543V169.46C181.221 175.731 186.305 180.815 192.576 180.815H255.679C261.95 180.815 267.034 175.731 267.034 169.46V13.543C267.034 7.27154 261.95 2.1875 255.679 2.1875Z" fill="#3B3B3B"/>
<path d="M255.678 2.28516H192.575C186.359 2.28516 181.32 7.32426 181.32 13.5403V169.457C181.32 175.673 186.359 180.712 192.575 180.712H255.678C261.894 180.712 266.933 175.673 266.933 169.457V13.5403C266.933 7.32426 261.894 2.28516 255.678 2.28516Z" fill="#3A3A3A"/>
<path d="M255.679 2.38672H192.577C186.416 2.38672 181.422 7.38088 181.422 13.5415V169.458C181.422 175.619 186.416 180.613 192.577 180.613H255.679C261.84 180.613 266.834 175.619 266.834 169.458V13.5415C266.834 7.38088 261.84 2.38672 255.679 2.38672Z" fill="#393939"/>
<path d="M255.679 2.48828H192.576C186.471 2.48828 181.521 7.43751 181.521 13.5427V169.46C181.521 175.565 186.471 180.514 192.576 180.514H255.679C261.784 180.514 266.733 175.565 266.733 169.46V13.5427C266.733 7.43751 261.784 2.48828 255.679 2.48828Z" fill="#373737"/>
<path d="M255.678 2.58984H192.575C186.525 2.58984 181.621 7.49413 181.621 13.5439V169.461C181.621 175.511 186.525 180.415 192.575 180.415H255.678C261.728 180.415 266.632 175.511 266.632 169.461V13.5439C266.632 7.49413 261.728 2.58984 255.678 2.58984Z" fill="#363636"/>
<path d="M255.681 2.69141H192.578C186.584 2.69141 181.725 7.55076 181.725 13.5451V169.462C181.725 175.456 186.584 180.316 192.578 180.316H255.681C261.675 180.316 266.535 175.456 266.535 169.462V13.5451C266.535 7.55076 261.675 2.69141 255.681 2.69141Z" fill="#343434"/>
<path d="M255.678 2.78906H192.574C186.636 2.78906 181.822 7.60272 181.822 13.5407V169.459C181.822 175.397 186.636 180.211 192.574 180.211H255.678C261.616 180.211 266.43 175.397 266.43 169.459V13.5407C266.43 7.60272 261.616 2.78906 255.678 2.78906Z" fill="#333333"/>
<path d="M255.679 2.89062H192.575C186.693 2.89062 181.924 7.65934 181.924 13.5419V169.46C181.924 175.343 186.693 180.112 192.575 180.112H255.679C261.562 180.112 266.331 175.343 266.331 169.46V13.5419C266.331 7.65934 261.562 2.89062 255.679 2.89062Z" fill="#313131"/>
<path d="M255.679 2.99219H192.574C186.747 2.99219 182.023 7.71596 182.023 13.543V169.462C182.023 175.289 186.747 180.012 192.574 180.012H255.679C261.506 180.012 266.23 175.289 266.23 169.462V13.543C266.23 7.71596 261.506 2.99219 255.679 2.99219Z" fill="#303030"/>
<path d="M255.678 3.08984H192.574C186.802 3.08984 182.123 7.76868 182.123 13.5403V169.459C182.123 175.231 186.802 179.909 192.574 179.909H255.678C261.45 179.909 266.128 175.231 266.128 169.459V13.5403C266.128 7.76868 261.45 3.08984 255.678 3.08984Z" fill="#2F2F2F"/>
<path d="M255.679 3.19141H192.575C186.859 3.19141 182.225 7.82531 182.225 13.5415V169.46C182.225 175.176 186.859 179.81 192.575 179.81H255.679C261.395 179.81 266.029 175.176 266.029 169.46V13.5415C266.029 7.82531 261.395 3.19141 255.679 3.19141Z" fill="#2D2D2D"/>
<path d="M255.678 3.29297H192.574C186.913 3.29297 182.324 7.88193 182.324 13.5427V169.461C182.324 175.122 186.913 179.711 192.574 179.711H255.678C261.339 179.711 265.928 175.122 265.928 169.461V13.5427C265.928 7.88193 261.339 3.29297 255.678 3.29297Z" fill="#2C2C2C"/>
<path d="M255.68 3.39062H192.577C186.972 3.39062 182.428 7.93465 182.428 13.54V169.457C182.428 175.062 186.972 179.606 192.577 179.606H255.68C261.285 179.606 265.829 175.062 265.829 169.457V13.54C265.829 7.93465 261.285 3.39062 255.68 3.39062Z" fill="#2A2A2A"/>
<path d="M255.679 3.49219H192.576C187.026 3.49219 182.527 7.99128 182.527 13.5412V169.458C182.527 175.008 187.026 179.507 192.576 179.507H255.679C261.229 179.507 265.728 175.008 265.728 169.458V13.5412C265.728 7.99128 261.229 3.49219 255.679 3.49219Z" fill="#292929"/>
<path d="M255.68 3.59375H192.578C187.083 3.59375 182.629 8.0479 182.629 13.5424V169.459C182.629 174.954 187.083 179.408 192.578 179.408H255.68C261.175 179.408 265.629 174.954 265.629 169.459V13.5424C265.629 8.0479 261.175 3.59375 255.68 3.59375Z" fill="#272727"/>
<path d="M255.678 3.69531H192.575C187.136 3.69531 182.727 8.10453 182.727 13.5436V169.46C182.727 174.899 187.136 179.309 192.575 179.309H255.678C261.117 179.309 265.526 174.899 265.526 169.46V13.5436C265.526 8.10453 261.117 3.69531 255.678 3.69531Z" fill="#262626"/>
<path d="M255.679 2.1125C258.71 2.11565 261.615 3.32093 263.758 5.46386C265.901 7.60679 267.106 10.5123 267.11 13.5429V169.461C267.106 172.492 265.901 175.398 263.758 177.54C261.615 179.683 258.71 180.889 255.679 180.892H192.577C189.546 180.889 186.64 179.683 184.497 177.541C182.354 175.398 181.148 172.492 181.145 169.461V13.5429C181.148 10.5122 182.354 7.60663 184.497 5.46375C186.64 3.32087 189.546 2.11565 192.577 2.1125H255.679ZM255.679 1.46094H192.577C189.375 1.46544 186.305 2.73944 184.041 5.00363C181.777 7.26782 180.503 10.3374 180.498 13.5395V169.458C180.503 172.66 181.777 175.73 184.041 177.994C186.305 180.258 189.375 181.532 192.577 181.537H255.679C258.881 181.532 261.951 180.258 264.215 177.994C266.479 175.73 267.753 172.66 267.758 169.458V13.5429C267.753 10.3408 266.479 7.27122 264.215 5.00703C261.951 2.74284 258.881 1.46884 255.679 1.46434V1.46094Z" fill="#2D2C2C"/>
<mask id="mask0_221_4354" style="mask-type:luminance" maskUnits="userSpaceOnUse" x="184" y="5" width="80" height="173">
<path d="M255.677 5.27734H247.473C247.219 5.27734 246.976 5.37784 246.797 5.55677C246.618 5.7357 246.517 5.97844 246.516 6.23172V6.3508C246.518 7.06239 246.378 7.76722 246.107 8.42496C245.835 9.08271 245.437 9.68046 244.934 10.184C244.431 10.6876 243.834 11.0871 243.177 11.3597C242.519 11.6322 241.815 11.7725 241.103 11.7725H206.882C205.446 11.7725 204.069 11.2022 203.054 10.187C202.039 9.17186 201.469 7.79498 201.469 6.35931V6.24022C201.469 5.98711 201.368 5.74436 201.189 5.56538C201.01 5.3864 200.767 5.28585 200.514 5.28585H192.575C191.489 5.28562 190.414 5.49923 189.412 5.91445C188.409 6.32968 187.497 6.9384 186.73 7.70584C185.962 8.47329 185.353 9.38443 184.938 10.3872C184.522 11.39 184.309 12.4648 184.309 13.5503V169.469C184.309 170.554 184.522 171.629 184.938 172.632C185.353 173.635 185.962 174.546 186.73 175.313C187.497 176.081 188.409 176.689 189.412 177.105C190.414 177.52 191.489 177.734 192.575 177.733H255.677C257.869 177.733 259.971 176.863 261.521 175.313C263.071 173.763 263.942 171.661 263.942 169.469V13.5418C263.942 11.3499 263.071 9.24782 261.521 7.69794C259.971 6.14806 257.869 5.27734 255.677 5.27734Z" fill="white"/>
</mask>
<g mask="url(#mask0_221_4354)">
<path d="M263.944 5.27734H184.311V177.725H263.944V5.27734Z" fill="#9EA6FF"/>
<path d="M184.14 177.894V41.2165H183C183.68 40.1572 184.361 39.0968 185.041 38.0352C186.424 35.9144 187.842 33.7947 189.294 31.6761C192.204 27.4435 195.253 23.2285 198.442 19.0311C201.631 14.8337 204.881 10.7695 208.193 6.83858C208.607 6.3475 209.021 5.85812 209.435 5.37044C209.64 5.12547 209.847 4.8822 210.056 4.64062V5.11016H264.113V157.027H265.134C264.258 157.739 263.383 158.441 262.507 159.134C259.003 161.903 255.504 164.512 252.009 166.959C248.515 169.407 245.041 171.685 241.588 173.795C239.862 174.849 238.142 175.86 236.428 176.828C235.571 177.311 234.716 177.783 233.864 178.245V177.894H184.14Z" fill="#9EA6FF"/>
<path d="M184.142 177.894V41.4385H183.756C184.423 40.3894 185.099 39.3392 185.784 38.2879C187.154 36.1886 188.558 34.0905 189.998 31.9934C192.876 27.8039 195.894 23.632 199.051 19.4777C202.209 15.3234 205.423 11.3 208.694 7.40767C209.51 6.43458 210.33 5.47057 211.154 4.51562V5.10594H264.116V156.057H265.043C264.177 156.761 263.311 157.456 262.443 158.141C258.976 160.881 255.513 163.462 252.054 165.885C245.51 170.501 238.667 174.679 231.572 178.392V177.894H184.142Z" fill="#9FA7FF"/>
<path d="M184.141 177.894V43.2202H183.527C183.852 42.7007 184.179 42.1813 184.511 41.6619C185.171 40.6219 185.839 39.5824 186.516 38.5436C187.877 36.467 189.267 34.3915 190.686 32.3172C193.536 28.1708 196.523 24.0425 199.646 19.9324C202.77 15.8223 205.95 11.8409 209.188 7.98829C209.998 7.02541 210.81 6.07047 211.623 5.12346L212.235 4.41406V5.10645H264.122V155.086H264.955C264.098 155.781 263.24 156.469 262.381 157.148C258.95 159.86 255.523 162.412 252.101 164.803C245.625 169.371 238.854 173.506 231.831 177.18C231.001 177.611 230.173 178.03 229.348 178.439V177.886L184.141 177.894Z" fill="#A0A7FE"/>
<path d="M184.141 177.892V44.9664H183.326C188.411 36.7377 194.056 28.5073 200.236 20.3807C203.327 16.3171 206.474 12.3776 209.678 8.56242C210.472 7.60974 211.275 6.66501 212.087 5.72822C212.489 5.25868 212.893 4.79199 213.298 4.32812V5.10388H264.115V154.11H264.853C264.006 154.801 263.155 155.482 262.301 156.152C258.905 158.836 255.514 161.364 252.128 163.736C245.72 168.256 239.02 172.348 232.072 175.985C230.429 176.836 228.795 177.645 227.171 178.41V177.9L184.141 177.892Z" fill="#A1A8FE"/>
<path d="M184.14 177.891V45.1549H184.098C189.13 37.0147 194.713 28.871 200.829 20.8277C203.891 16.8084 207.004 12.9109 210.169 9.13537C210.962 8.19291 211.756 7.25781 212.55 6.33009C212.95 5.86736 213.348 5.40634 213.741 4.94531V5.10012H264.097V153.139H264.741C263.901 153.819 263.061 154.492 262.222 155.158C258.864 157.814 255.509 160.315 252.158 162.66C245.818 167.132 239.189 171.18 232.315 174.776C230.688 175.62 229.072 176.42 227.466 177.177C226.663 177.557 225.863 177.924 225.066 178.279V177.891H184.14Z" fill="#A2A8FD"/>
<path d="M184.142 177.894V48.3678H183.031C183.637 47.3607 184.25 46.3542 184.872 45.3482C189.85 37.2947 195.373 29.2395 201.423 21.2847C204.448 17.3073 207.528 13.4512 210.664 9.71653C212.229 7.85201 213.806 6.01812 215.395 4.21484V5.10457H264.116V152.168H264.665C263.835 152.849 263.004 153.515 262.173 154.166C258.851 156.792 255.533 159.266 252.217 161.588C245.945 166.011 239.388 170.015 232.587 173.573C229.372 175.242 226.196 176.739 223.061 178.064V177.894H184.142Z" fill="#A3A9FD"/>
<path d="M184.14 176.733V48.517H183.822C184.421 47.5201 185.028 46.5243 185.644 45.5297C190.568 37.5647 196.032 29.5962 202.015 21.7282C205.006 17.795 208.052 13.9815 211.154 10.2876C212.704 8.44236 214.265 6.62774 215.835 4.84375V5.09723H264.114V151.19H264.57C263.748 151.857 262.926 152.515 262.105 153.165C258.816 155.762 255.533 158.209 252.257 160.507C246.053 164.883 239.567 168.844 232.841 172.365C229.659 174.015 226.517 175.495 223.414 176.806C221.865 177.461 220.328 178.072 218.804 178.64V177.888H184.14V176.733Z" fill="#A4AAFC"/>
<path d="M184.143 175.481V50.1571H183.736C184.029 49.6637 184.323 49.1715 184.618 48.6804C185.21 47.696 185.81 46.711 186.419 45.7254C191.288 37.8489 196.693 29.9672 202.609 22.1859C205.567 18.2947 208.581 14.5231 211.65 10.8712C213.181 9.04525 214.724 7.25105 216.279 5.48861C216.667 5.04856 217.056 4.60965 217.446 4.17188V5.10584H264.116V150.227H264.477C263.665 150.887 262.852 151.538 262.039 152.18C258.789 154.749 255.542 157.167 252.3 159.435C246.164 163.767 239.749 167.688 233.097 171.174C226.802 174.437 220.652 177.038 214.724 178.93V177.909H184.143V175.481Z" fill="#A6AAFC"/>
<path d="M184.14 174.236V51.7492H183.678C184.812 49.803 185.982 47.8563 187.189 45.9089C192.005 38.1174 197.349 30.3242 203.201 22.6297C206.127 18.7827 209.106 15.0531 212.139 11.4409C213.655 9.63648 215.181 7.86213 216.717 6.11783C217.101 5.68232 217.486 5.24851 217.872 4.81641V5.09881H264.114V149.247H264.381C263.576 149.9 262.772 150.544 261.97 151.179C258.755 153.721 255.544 156.115 252.338 158.36C246.271 162.639 239.927 166.512 233.349 169.956C227.126 173.188 221.043 175.755 215.187 177.625C213.724 178.093 212.276 178.517 210.843 178.895V177.887H184.134L184.14 174.236Z" fill="#A7ABFB"/>
<path d="M184.141 172.976V53.3202H183.652C183.929 52.8405 184.208 52.3602 184.489 51.8793C185.613 49.9513 186.771 48.0261 187.961 46.1037C192.725 38.4007 198.007 30.6942 203.793 23.0865C206.686 19.2826 209.635 15.5966 212.639 12.0287C214.136 10.2435 215.645 8.48902 217.166 6.76513C217.925 5.90433 218.686 5.05032 219.451 4.20312V5.10987H264.114V148.286H264.284C263.49 148.933 262.696 149.57 261.903 150.197C258.727 152.709 255.551 155.075 252.376 157.296C246.376 161.527 240.104 165.358 233.6 168.762C227.448 171.952 221.431 174.495 215.643 176.346C212.85 177.245 210.01 177.995 207.137 178.595V177.898H184.141V172.976Z" fill="#A8ABFB"/>
<path d="M184.141 171.724V54.8514H183.66C184.198 53.9021 184.746 52.9517 185.303 52.0002C186.414 50.0982 187.559 48.1952 188.736 46.291C193.442 38.6764 198.666 31.0584 204.387 23.5357C207.246 19.7749 210.16 16.1298 213.128 12.6003C214.602 10.8368 216.093 9.10268 217.6 7.39807C218.351 6.5452 219.104 5.70027 219.859 4.86328V5.10485H264.115V147.31H264.193C263.407 147.949 262.621 148.578 261.835 149.198C258.693 151.682 255.555 154.022 252.42 156.218C246.489 160.4 240.288 164.187 233.857 167.553C221.693 173.861 210.067 177.612 199.704 178.44C194.52 178.85 189.653 178.527 185.192 177.42C184.634 177.282 184.083 177.133 183.537 176.97H184.141V171.724Z" fill="#A9ACFA"/>
<path d="M184.142 170.474V56.3554H183.698C183.96 55.8858 184.224 55.4163 184.492 54.9468C185.024 54.0077 185.565 53.0681 186.115 52.1279C187.214 50.2475 188.348 48.3665 189.517 46.485C194.17 38.9572 199.333 31.4259 204.988 23.99C207.807 20.2678 210.683 16.664 213.618 13.1789C215.081 11.4357 216.556 9.72144 218.042 8.03612C218.783 7.19459 219.528 6.35987 220.275 5.53195C220.649 5.11799 221.024 4.7063 221.398 4.29688V5.10665H264.115V145.386H265.263L264.098 146.34C263.322 146.972 262.546 147.596 261.769 148.212C258.663 150.666 255.56 152.979 252.462 155.149C246.599 159.284 240.469 163.026 234.113 166.353C222.087 172.588 210.595 176.297 200.351 177.107C195.228 177.513 190.416 177.193 186.006 176.103C185.455 175.967 184.91 175.819 184.371 175.659C184.101 175.578 183.834 175.495 183.568 175.409H184.142V170.474Z" fill="#AAADFA"/>
<path d="M184.142 169.217V57.8171H183.766C185.808 54.1107 187.98 50.3953 190.282 46.6708C194.875 39.2298 199.979 31.787 205.574 24.4378C208.368 20.7643 211.213 17.2026 214.111 13.7526C215.558 12.0298 217.015 10.3354 218.483 8.66937C219.218 7.83578 219.955 7.0107 220.694 6.19412C221.063 5.78583 221.433 5.37868 221.804 4.97266V5.10365H264.116V144.432H265.155C264.773 144.747 264.39 145.061 264.005 145.373C263.236 145.998 262.469 146.614 261.702 147.22C258.633 149.646 255.567 151.932 252.504 154.076C246.708 158.163 240.65 161.862 234.367 165.151C222.486 171.306 211.123 174.97 200.998 175.765C195.935 176.165 191.18 175.85 186.82 174.773C185.729 174.504 184.665 174.187 183.627 173.822H184.137L184.142 169.217Z" fill="#ABADF9"/>
<path d="M184.141 167.968V60.6222H183.12C183.609 59.7093 184.106 58.7946 184.61 57.8782C186.631 54.2161 188.778 50.5443 191.051 46.8629C195.595 39.5103 200.639 32.1543 206.161 24.8936C211.683 17.6328 217.43 10.8042 223.301 4.45703V5.10179H264.114V143.461H265.047C264.667 143.774 264.287 144.084 263.908 144.391C263.15 145.009 262.392 145.618 261.634 146.217C258.599 148.614 255.569 150.873 252.543 152.992C246.816 157.031 240.829 160.686 234.621 163.936C222.874 170.027 211.654 173.648 201.643 174.441C196.64 174.836 191.946 174.525 187.632 173.46C186.554 173.194 185.502 172.881 184.476 172.521C183.962 172.338 183.455 172.145 182.955 171.942H184.146L184.141 167.968Z" fill="#ACAEF9"/>
<path d="M184.141 166.715V60.6463H183.989C184.472 59.7447 184.964 58.8408 185.464 57.9346C187.46 54.3156 189.581 50.6863 191.827 47.0469C196.316 39.7811 201.301 32.5135 206.758 25.3379C212.216 18.1622 217.891 11.4305 223.69 5.1548C224.053 4.76126 224.416 4.37111 224.779 3.98438V5.10547H264.114V142.503H264.938C264.563 142.813 264.188 143.119 263.813 143.423C263.065 144.032 262.315 144.634 261.566 145.227C258.568 147.595 255.574 149.826 252.583 151.921C246.925 155.912 241.009 159.525 234.874 162.735C223.268 168.754 212.178 172.332 202.289 173.113C197.345 173.504 192.703 173.196 188.446 172.145C187.381 171.881 186.341 171.57 185.326 171.214C184.819 171.037 184.319 170.847 183.824 170.644H184.141V166.715Z" fill="#ADAEF8"/>
<path d="M184.142 165.462V63.3455H183.45C184.374 61.566 185.329 59.7814 186.315 57.9918C188.287 54.4181 190.385 50.8342 192.609 47.2402C197.046 40.0628 201.966 32.882 207.362 25.7931C212.758 18.7042 218.357 12.0406 224.088 5.84822C224.448 5.46035 224.807 5.07474 225.165 4.69141V5.1048H264.123V141.541H264.839C264.468 141.847 264.098 142.151 263.728 142.451C262.988 143.054 262.248 143.647 261.506 144.233C258.544 146.573 255.586 148.778 252.633 150.847C247.042 154.789 241.198 158.358 235.137 161.53C223.671 167.485 212.714 171.011 202.946 171.785C198.06 172.171 193.473 171.867 189.268 170.827C187.199 170.321 185.186 169.613 183.256 168.713H184.149L184.142 165.462Z" fill="#AEAFF8"/>
<path d="M184.14 164.21V65.9721H182.986C183.428 65.0954 183.876 64.2176 184.332 63.3387C185.239 61.5796 186.182 59.8172 187.161 58.0513C189.108 54.5185 191.178 50.9777 193.37 47.429C197.753 40.3384 202.617 33.2461 207.943 26.244C213.269 19.2418 218.805 12.6582 224.467 6.54234C225.174 5.7768 225.884 5.01919 226.595 4.26953V5.10482H264.113V140.582H264.721C264.355 140.883 263.99 141.183 263.623 141.48C262.893 142.074 262.162 142.661 261.43 143.239C258.504 145.552 255.582 147.73 252.664 149.773C247.141 153.665 241.368 157.189 235.382 160.321C224.055 166.193 213.232 169.677 203.583 170.45C198.758 170.831 194.226 170.531 190.072 169.504C188.029 169.005 186.04 168.305 184.135 167.415L184.14 164.21Z" fill="#AFB0F7"/>
<path d="M184.142 162.959V65.9344H183.891C184.326 65.0679 184.769 64.2008 185.219 63.3332C186.121 61.5957 187.052 59.8548 188.014 58.1105C189.942 54.6219 191.984 51.1248 194.139 47.6192C198.466 40.6171 203.271 33.6115 208.531 26.6944C213.791 19.7773 219.257 13.277 224.849 7.23607C225.547 6.48074 226.248 5.73278 226.951 4.99219V5.10447H264.116V139.622H264.616C264.253 139.92 263.892 140.216 263.532 140.508C262.81 141.097 262.087 141.676 261.365 142.247C258.476 144.53 255.591 146.681 252.708 148.7C247.254 152.546 241.551 156.028 235.638 159.123C224.452 164.924 213.762 168.372 204.232 169.128C199.468 169.504 194.991 169.208 190.888 168.194C188.87 167.7 186.906 167.008 185.024 166.13C184.559 165.912 184.101 165.685 183.652 165.45H184.142V162.959Z" fill="#B0B0F7"/>
<path d="M184.141 161.706V68.4563H183.527C190.161 54.8127 198.741 40.8084 209.13 27.1477C214.324 20.3174 219.723 13.8988 225.245 7.93264C225.936 7.18525 226.628 6.44806 227.323 5.72108L228.364 4.62891V5.11205H264.114V138.662H264.504C264.149 138.956 263.792 139.248 263.434 139.538C262.721 140.118 262.007 140.69 261.294 141.254C258.444 143.509 255.595 145.633 252.747 147.627C247.361 151.425 241.73 154.863 235.891 157.919C224.846 163.647 214.286 167.053 204.877 167.798C200.171 168.171 195.752 167.878 191.699 166.876C189.709 166.387 187.771 165.704 185.915 164.835C185.001 164.405 184.11 163.929 183.246 163.407H184.148L184.141 161.706Z" fill="#B1B1F6"/>
<path d="M184.139 160.458V70.9064H183.234C183.629 70.0672 184.031 69.2268 184.439 68.3853C190.987 54.9185 199.464 41.0861 209.724 27.5938C214.851 20.8503 220.183 14.5116 225.635 8.62202C226.996 7.14765 228.366 5.70333 229.745 4.28906V5.10224H264.11V137.702H264.394C264.041 137.992 263.689 138.281 263.337 138.567C262.633 139.139 261.929 139.706 261.224 140.268C258.407 142.494 255.593 144.592 252.783 146.562C247.466 150.309 241.907 153.701 236.143 156.715C225.237 162.372 214.815 165.731 205.522 166.47C200.876 166.837 196.505 166.546 192.513 165.558C190.545 165.078 188.63 164.404 186.795 163.547C185.892 163.123 185.012 162.653 184.158 162.139C183.946 162.009 183.735 161.877 183.524 161.742H184.139V160.458Z" fill="#B2B1F6"/>
<path d="M184.14 159.199V73.2777H183.016C183.764 71.6275 184.542 69.9717 185.35 68.3102C191.814 55.0153 200.182 41.3597 210.308 28.0461C215.371 21.3893 220.634 15.1323 226.015 9.31759C227.361 7.86249 228.714 6.43632 230.074 5.03906V5.10371H264.114V136.738H264.284C263.944 137.023 263.59 137.309 263.241 137.588C262.547 138.155 261.852 138.713 261.155 139.261C258.374 141.458 255.596 143.529 252.819 145.472C247.57 149.176 242.082 152.529 236.391 155.509C225.624 161.092 215.335 164.413 206.16 165.138C201.567 165.5 197.267 165.214 193.318 164.239C191.376 163.764 189.485 163.099 187.674 162.252C186.782 161.835 185.914 161.371 185.072 160.862C184.65 160.607 184.236 160.341 183.829 160.065H184.132L184.14 159.199Z" fill="#B3B2F5"/>
<path d="M184.14 157.948V73.1409H183.97C184.708 71.5145 185.476 69.8808 186.275 68.2397C192.654 55.1183 200.914 41.6397 210.908 28.4979C215.905 21.9279 221.098 15.7525 226.411 10.0126C227.739 8.57682 229.074 7.16936 230.416 5.79025C230.756 5.45001 231.096 5.10977 231.423 4.76953V5.10977H264.113V134.929H265.209C263.838 136.068 262.468 137.183 261.101 138.271C258.355 140.441 255.613 142.482 252.875 144.396C247.694 148.049 242.277 151.357 236.659 154.297C215.406 165.319 196.038 167.404 183.594 157.941L184.14 157.948Z" fill="#B5B3F5"/>
<path d="M184.548 156.696C184.166 156.404 183.79 156.103 183.424 155.793H184.149V75.4096H183.856C184.204 74.6067 184.559 73.8082 184.919 73.0143C185.65 71.4084 186.408 69.7957 187.194 68.1761C193.488 55.2283 201.64 41.9266 211.502 28.9583C216.436 22.475 221.56 16.3796 226.803 10.7163C228.113 9.30092 229.43 7.91217 230.755 6.55007C231.416 5.86959 232.079 5.19535 232.745 4.52734V5.11426H264.115V133.975H265.09C263.736 135.109 262.382 136.211 261.028 137.279C258.319 139.419 255.614 141.436 252.911 143.328C247.798 146.935 242.452 150.199 236.908 153.1C215.934 163.978 196.822 166.036 184.548 156.696Z" fill="#B6B3F5"/>
<path d="M185.494 155.445C184.739 154.871 184.016 154.257 183.328 153.606H184.141V77.6081H183.801C185.123 74.4677 186.562 71.2989 188.115 68.1018C194.326 55.3257 202.37 42.2027 212.102 29.4062C216.968 23.008 222.025 16.996 227.197 11.4075C228.49 10.0103 229.79 8.63967 231.098 7.29572C231.749 6.62544 232.403 5.96084 233.061 5.30191C233.389 4.97357 233.718 4.64524 234.046 4.32031V5.11137H264.115V133.026H264.965C263.629 134.142 262.293 135.229 260.957 136.286C258.287 138.399 255.618 140.388 252.952 142.254C247.907 145.812 242.632 149.032 237.163 151.894C216.468 162.629 197.61 164.659 185.494 155.445Z" fill="#B7B4F4"/>
<path d="M186.447 154.189C185.703 153.624 184.989 153.019 184.31 152.377C183.97 152.057 183.64 151.727 183.318 151.39H184.142V79.717H183.815C184.128 78.947 184.447 78.1746 184.773 77.4C186.076 74.3027 187.494 71.177 189.026 68.023C195.15 55.4188 203.088 42.4726 212.686 29.8497C217.487 23.5382 222.475 17.601 227.579 12.0943C230.13 9.3383 232.707 6.6884 235.307 4.14453V5.10401H264.115V132.075H264.845C263.528 133.176 262.21 134.248 260.891 135.29C258.255 137.375 255.621 139.338 252.991 141.18C248.014 144.689 242.811 147.866 237.415 150.689C217.002 161.276 198.4 163.28 186.447 154.189Z" fill="#B8B4F4"/>
<path d="M187.398 152.938C185.93 151.823 184.586 150.554 183.387 149.153H184.14V81.7585H183.902C184.49 80.2478 185.104 78.7287 185.746 77.201C187.032 74.1456 188.431 71.0625 189.943 67.9515C195.986 55.5209 203.811 42.7533 213.28 30.3022C218.015 24.0775 222.935 18.2237 227.967 12.7901C230.484 10.0681 233.026 7.45452 235.592 4.94922V5.10573H264.114V131.127H264.723C263.425 132.213 262.126 133.27 260.824 134.298C258.224 136.353 255.627 138.289 253.032 140.106C248.124 143.568 242.992 146.702 237.67 149.487C217.535 159.929 199.186 161.904 187.398 152.938Z" fill="#B9B5F3"/>
<path d="M188.349 151.687C186.903 150.586 185.578 149.335 184.396 147.955C184.098 147.614 183.81 147.257 183.531 146.895H184.14V85.9441H183.256C185.452 79.7882 187.991 73.7599 190.86 67.8876C196.814 55.6304 204.536 43.0381 213.872 30.7605C218.542 24.6226 223.399 18.8521 228.356 13.4916C230.838 10.8105 233.344 8.23322 235.874 5.75968C236.507 5.14271 237.14 4.53141 237.773 3.92578V5.11662H264.114V130.175H264.602C263.321 131.245 262.039 132.287 260.758 133.302C258.192 135.328 255.631 137.237 253.073 139.03C248.236 142.444 243.178 145.533 237.932 148.28C218.069 158.585 199.975 160.528 188.349 151.687Z" fill="#BAB5F3"/>
<path d="M189.311 150.434C187.881 149.349 186.569 148.116 185.399 146.754C184.816 146.073 184.265 145.361 183.745 144.617H184.136V87.775H183.527C183.77 87.0548 184.02 86.3329 184.278 85.6093C186.444 79.5404 188.948 73.5974 191.778 67.808C197.654 55.7294 205.262 43.3106 214.467 31.2032C219.06 25.152 223.854 19.4649 228.747 14.1776C231.193 11.5339 233.664 8.99286 236.159 6.55447C236.782 5.94544 237.406 5.34265 238.03 4.74609V5.10505H264.115V129.228H264.481C263.218 130.284 261.955 131.312 260.69 132.311C258.162 134.31 255.637 136.192 253.115 137.957C248.343 141.323 243.354 144.369 238.18 147.077C218.604 157.223 200.766 159.151 189.311 150.434Z" fill="#BBB6F2"/>
<path d="M190.254 149.182C187.424 147.01 185.071 144.278 183.344 141.156H184.14V89.5382H183.866C184.32 88.1318 184.798 86.7142 185.302 85.2852C187.437 79.3039 189.905 73.4466 192.694 67.7407C198.486 55.8323 205.982 43.5836 215.059 31.6565C219.595 25.6904 224.31 20.0883 229.133 14.8724C231.546 12.2639 233.981 9.75916 236.44 7.3582C237.054 6.75711 237.669 6.16282 238.286 5.57534C238.594 5.28103 238.902 4.99012 239.21 4.69922V5.10581H264.113V128.273H264.358C263.111 129.314 261.863 130.327 260.616 131.311C258.121 133.281 255.632 135.137 253.149 136.878C248.445 140.195 243.527 143.198 238.427 145.867C219.135 155.88 201.559 157.773 190.254 149.182Z" fill="#BCB7F2"/>
<path d="M191.209 147.93C188.421 145.789 186.105 143.096 184.404 140.02C183.963 139.237 183.553 138.426 183.176 137.585H184.147V93.2776H183.664C184.441 90.5557 185.33 87.7822 186.33 84.957C188.433 79.0615 190.865 73.2883 193.613 67.6643C199.32 55.926 206.712 43.8645 215.653 32.1092C220.124 26.2298 224.772 20.7111 229.525 15.5684C231.907 13.0018 234.307 10.5334 236.725 8.16305C237.936 6.97902 239.15 5.8205 240.368 4.6875V5.1077H264.116V127.331H264.24C263.012 128.351 261.784 129.349 260.557 130.325C258.1 132.266 255.647 134.095 253.197 135.811C248.561 139.08 243.714 142.04 238.688 144.669C219.672 154.531 202.343 156.397 191.209 147.93Z" fill="#BDB7F1"/>
<path d="M192.162 146.675C189.413 144.566 187.129 141.912 185.452 138.88C184.564 137.293 183.816 135.632 183.217 133.916H184.142V96.8298H183.661C183.989 95.5097 184.344 94.1782 184.727 92.8354C185.494 90.1475 186.37 87.4142 187.354 84.6356C189.427 78.8273 191.823 73.1392 194.53 67.5981C200.154 56.0299 207.437 44.1487 216.247 32.5635C220.652 26.7709 225.231 21.3254 229.915 16.266C232.256 13.7369 234.62 11.3047 237.009 8.96955C238.201 7.80252 239.397 6.66159 240.598 5.54673C240.898 5.26773 241.199 4.99044 241.498 4.71484V5.11122H264.124V126.38C262.916 127.39 261.707 128.374 260.496 129.33C258.077 131.242 255.66 133.043 253.245 134.734C248.679 137.956 243.905 140.871 238.955 143.463C220.206 153.18 203.131 155.019 192.162 146.675Z" fill="#BEB8F1"/>
<path d="M193.115 145.424C190.407 143.348 188.157 140.735 186.504 137.749C185.631 136.185 184.895 134.549 184.303 132.859C183.997 131.991 183.72 131.096 183.473 130.177H184.143V100.171H183.854C188.148 79.8278 199.483 55.8323 216.84 33.009C221.18 27.3031 225.686 21.9393 230.303 16.9547C232.61 14.4596 234.94 12.0638 237.292 9.76716C238.468 8.61941 239.647 7.49549 240.829 6.39537C241.418 5.84532 242.01 5.30207 242.603 4.76562V5.10587H264.116V124.68H264.89L263.996 125.432C262.805 126.427 261.614 127.395 260.423 128.338C258.041 130.222 255.66 131.997 253.278 133.662C248.779 136.833 244.075 139.703 239.197 142.253C220.741 151.833 203.921 153.651 193.115 145.424Z" fill="#BFB8F0"/>
<path d="M194.074 144.17C188.752 140.123 185.415 133.99 183.936 126.365H184.149V113.88H183.098C183.314 109.077 183.934 104.301 184.952 99.6018C189.181 79.5668 200.344 55.9354 217.445 33.4574C225.992 22.2175 235.214 12.3302 244.571 4.07422V5.09494H264.134V123.738H264.772C264.48 123.987 264.187 124.234 263.893 124.478C262.712 125.461 261.532 126.415 260.353 127.342C258.005 129.197 255.66 130.945 253.318 132.585C248.887 135.713 244.255 138.544 239.45 141.06C221.273 150.481 204.708 152.264 194.074 144.17Z" fill="#C0B9F0"/>
<path d="M195.017 142.92C189.779 138.935 186.493 132.896 185.036 125.387C183.58 117.878 183.956 108.909 186.038 99.0421C190.201 79.3082 201.193 56.0477 218.021 33.915C226.437 22.8487 235.518 13.1127 244.73 4.98438V5.11026H264.115V122.803H264.625C264.336 123.048 264.047 123.289 263.759 123.531C262.604 124.497 261.448 125.437 260.292 126.35C257.981 128.177 255.672 129.898 253.367 131.513C249.004 134.59 244.442 137.374 239.711 139.849C221.804 149.132 205.497 150.89 195.017 142.92Z" fill="#C1BAEF"/>
<path d="M195.969 141.669C185.654 133.825 183.031 117.891 187.122 98.472C191.214 79.0528 202.04 56.1495 218.61 34.3622C226.895 23.4745 235.831 13.8848 244.9 5.88409C245.467 5.38394 246.034 4.89002 246.601 4.40234V5.10664H264.114V121.867H264.481C264.197 122.107 263.913 122.347 263.63 122.583C262.496 123.535 261.359 124.46 260.22 125.358C257.943 127.157 255.671 128.851 253.401 130.441C249.107 133.47 244.618 136.212 239.962 138.648C222.339 147.785 206.285 149.513 195.969 141.669Z" fill="#C2BAEF"/>
<path d="M196.922 140.417C186.771 132.697 184.19 117.015 188.222 97.9055C192.254 78.7959 202.903 56.255 219.209 34.813C227.363 24.0955 236.158 14.6623 245.083 6.78742C245.641 6.29407 246.199 5.80752 246.758 5.32779C247.037 5.08735 247.317 4.84918 247.597 4.61328V5.10663H264.114V120.213H265.184C264.625 120.693 264.066 121.167 263.507 121.634C262.387 122.57 261.268 123.48 260.149 124.364C257.91 126.135 255.673 127.802 253.439 129.366C249.213 132.347 244.793 135.045 240.211 137.443C222.874 146.436 207.073 148.137 196.922 140.417Z" fill="#C3BBEE"/>
<path d="M197.873 139.164C187.886 131.568 185.346 116.14 189.309 97.3418C193.273 78.5435 203.753 56.3616 219.797 35.2667C227.818 24.7192 236.468 15.4409 245.253 7.69188C246.351 6.72446 247.45 5.78029 248.55 4.85938V5.10945H264.108V119.287H265.03C264.48 119.76 263.93 120.226 263.38 120.686C262.283 121.606 261.183 122.5 260.079 123.37C257.876 125.112 255.676 126.753 253.479 128.292C249.32 131.225 244.972 133.879 240.463 136.238C223.407 145.086 207.861 146.76 197.873 139.164Z" fill="#C4BBEE"/>
<path d="M198.827 137.909C189.003 130.439 186.505 115.264 190.408 96.7704C194.31 78.2766 204.621 56.4621 220.395 35.7125C228.285 25.3352 236.798 16.2116 245.435 8.59026C246.515 7.63759 247.596 6.70873 248.679 5.80369C249.22 5.35004 249.762 4.90375 250.304 4.46484V5.1045H264.114V118.357H264.888C264.347 118.823 263.806 119.282 263.265 119.733C262.183 120.641 261.1 121.521 260.016 122.375C257.849 124.089 255.684 125.702 253.522 127.215C249.433 130.101 245.156 132.712 240.721 135.032C223.942 143.734 208.651 145.381 198.827 137.909Z" fill="#C5BCEE"/>
<path d="M199.781 136.658C190.12 129.312 187.664 114.391 191.502 96.2049C195.339 78.0191 205.474 56.5669 220.99 36.1644C228.749 25.9572 237.119 16.9884 245.612 9.49462C247.735 7.62216 249.863 5.84271 251.996 4.15625V5.10552H264.116V117.433H264.742C264.209 117.886 263.677 118.337 263.146 118.785C262.081 119.675 261.016 120.541 259.949 121.383C257.82 123.067 255.691 124.655 253.565 126.146C249.543 128.983 245.337 131.551 240.976 133.832C224.476 142.386 209.441 144.005 199.781 136.658Z" fill="#C6BDED"/>
<path d="M200.735 135.406C191.237 128.184 188.826 113.515 192.596 95.6383C196.366 77.7621 206.325 56.6825 221.583 36.6083C229.211 26.5712 237.44 17.7572 245.788 10.391C247.874 8.54807 249.967 6.79867 252.065 5.14283C252.589 4.72887 253.113 4.32059 253.637 3.91797V5.0986H264.116V116.505H264.593C264.071 116.959 263.548 117.402 263.024 117.836C261.979 118.71 260.932 119.561 259.884 120.387C257.788 122.044 255.695 123.604 253.606 125.067C249.653 127.856 245.519 130.379 241.232 132.622C225.011 141.037 210.238 142.629 200.735 135.406Z" fill="#C8BDED"/>
<path d="M201.684 134.155C183.016 119.968 192.193 76.4923 222.175 37.0669C229.67 27.2118 237.756 18.5408 245.963 11.3022C248.012 9.48759 250.068 7.76824 252.131 6.14415C252.645 5.73813 253.159 5.33722 253.674 4.94141V5.11153H264.114V115.581H264.443C263.929 116.021 263.415 116.456 262.901 116.887C261.872 117.747 260.842 118.583 259.814 119.397C257.755 121.025 255.699 122.556 253.645 123.99C249.76 126.731 245.697 129.212 241.483 131.416C225.546 139.689 211.016 141.252 201.684 134.155Z" fill="#C9BEEC"/>
<path d="M202.636 132.895C184.299 118.945 193.312 76.2445 222.768 37.5098C230.131 27.8266 238.079 19.3069 246.137 12.1959C248.151 10.4187 250.171 8.72999 252.197 7.12973C253.21 6.33583 254.221 5.55952 255.23 4.80078V5.09849H264.114V114.651H264.294C263.788 115.084 263.283 115.512 262.778 115.935C261.774 116.779 260.761 117.601 259.74 118.4C257.717 119.999 255.697 121.506 253.68 122.919C249.863 125.611 245.871 128.048 241.731 130.213C226.077 138.338 211.805 139.869 202.636 132.895Z" fill="#CABEEC"/>
<path d="M203.588 131.648C185.577 117.95 194.429 76.0083 223.359 37.9677C230.593 28.458 238.395 20.0914 246.312 13.1063C248.292 11.3609 250.277 9.7022 252.266 8.13029C253.26 7.34433 254.253 6.58163 255.245 5.84217C255.742 5.47244 256.238 5.10839 256.734 4.75V5.10555H264.115V113.724H264.146C263.651 114.151 263.156 114.572 262.659 114.986C261.664 115.811 260.671 116.62 259.678 117.414C257.691 118.985 255.707 120.464 253.724 121.852C249.973 124.496 246.052 126.89 241.986 129.018C226.61 136.986 212.594 138.495 203.588 131.648Z" fill="#CBBFEB"/>
<path d="M204.544 130.396C186.86 116.946 195.551 75.767 223.956 38.4188C231.057 29.0809 238.717 20.8675 246.49 14.0083C250.211 10.712 254.114 7.62626 258.179 4.76562V5.10587H264.116V112.168H264.729L263.996 112.799C263.509 113.217 263.022 113.63 262.534 114.037C261.561 114.85 260.586 115.644 259.61 116.419C257.66 117.962 255.712 119.415 253.766 120.776C250.085 123.373 246.236 125.723 242.244 127.812C227.146 135.637 213.385 137.119 204.544 130.396Z" fill="#CCBFEB"/>
<path d="M205.495 129.144C188.143 115.946 196.669 75.5285 224.549 38.871C231.524 29.7066 239.038 21.6446 246.664 14.913C250.316 11.6772 254.145 8.64825 258.135 5.84046C258.612 5.50703 259.088 5.1787 259.564 4.85547V5.10555H264.113V110.628H265.279C257.649 117.358 249.91 122.759 242.5 126.604C227.679 134.29 214.173 135.744 205.495 129.144Z" fill="#CDC0EA"/>
<path d="M206.447 127.891C189.418 114.942 197.786 75.2865 225.14 39.3299C231.977 30.3373 239.355 22.4284 246.84 15.8227C250.423 12.6492 254.181 9.67824 258.095 6.92368C259.031 6.26815 259.965 5.63474 260.897 5.02344V5.1136H264.114V109.738H265.104C257.619 116.342 250.025 121.646 242.754 125.412C228.212 132.94 214.96 134.366 206.447 127.891Z" fill="#CEC1EA"/>
<path d="M207.399 126.638C190.699 113.937 198.907 75.054 225.733 39.771C232.441 30.952 239.683 23.1945 247.017 16.7163C250.532 13.6037 254.217 10.6896 258.056 7.98747C259.891 6.7025 261.718 5.50485 263.536 4.39453V5.10393H264.116V108.819H264.931C257.588 115.298 250.14 120.495 243.009 124.193C228.748 131.588 215.751 132.988 207.399 126.638Z" fill="#CFC1E9"/>
<path d="M208.352 125.386C191.979 112.934 200.029 74.8045 226.327 40.2225C232.902 31.5769 239.994 23.9709 247.192 17.6203C250.637 14.5686 254.251 11.7117 258.015 9.06324C259.815 7.80322 261.605 6.62882 263.387 5.54005C263.833 5.26786 264.277 5.0019 264.719 4.74219L264.115 5.10454V107.917H264.753C257.557 114.267 250.256 119.362 243.264 122.989C229.29 130.24 216.54 131.613 208.352 125.386Z" fill="#D0C2E9"/>
<path d="M209.304 124.134C193.258 111.931 201.138 74.5646 226.918 40.6732C233.362 32.1995 240.313 24.7466 247.367 18.5236C250.744 15.5331 254.285 12.7331 257.974 10.1366C259.737 8.90156 261.492 7.75098 263.239 6.6849C263.674 6.41724 264.11 6.15639 264.545 5.90234H264.115V107.013H264.578C257.525 113.238 250.369 118.231 243.517 121.785C229.814 128.891 217.327 130.235 209.304 124.134Z" fill="#D1C2E8"/>
<path d="M210.255 122.882C194.536 110.928 202.259 74.3229 227.51 41.124C233.822 32.8238 240.632 25.5222 247.542 19.4268C250.849 16.4964 254.318 13.7532 257.931 11.21C259.658 9.99537 261.378 8.86861 263.089 7.82974C263.516 7.56776 263.942 7.31201 264.368 7.0625H264.113V106.112H264.401C257.49 112.207 250.482 117.1 243.77 120.58C230.346 127.542 218.114 128.858 210.255 122.882Z" fill="#D2C3E8"/>
<path d="M211.208 121.629C195.817 109.93 203.381 74.0842 228.097 41.5759C234.278 33.4493 240.946 26.2991 247.712 20.3296C250.952 17.4593 254.35 14.7723 257.89 12.2812C259.581 11.0949 261.265 9.99084 262.941 8.96898C263.36 8.7138 263.777 8.46372 264.193 8.21875H264.113V105.204H264.226C257.46 111.174 250.596 115.963 244.024 119.372C230.88 126.194 218.911 127.483 211.208 121.629Z" fill="#D3C3E8"/>
<path d="M212.162 120.376C197.098 108.92 204.507 73.8408 228.698 42.025C234.747 34.0718 241.273 27.0799 247.894 21.2312C251.064 18.4234 254.388 15.795 257.851 13.358C259.507 12.1989 261.154 11.1186 262.793 10.1172C263.613 9.61705 264.429 9.13788 265.241 8.67969H264.115V103.195H265.292C264.879 103.569 264.465 103.939 264.05 104.304C257.429 110.146 250.711 114.835 244.281 118.171C231.416 124.841 219.693 126.103 212.162 120.376Z" fill="#D4C4E7"/>
<path d="M213.113 119.124C198.375 107.916 205.628 73.6012 229.288 42.476C235.206 34.6947 241.591 27.8457 248.068 22.1347C251.168 19.3879 254.421 16.8168 257.809 14.4334C259.428 13.2993 261.04 12.2423 262.643 11.2624C263.444 10.7736 264.242 10.3046 265.037 9.85547H264.113V102.318H265.086C264.684 102.683 264.279 103.044 263.873 103.401C257.395 109.117 250.825 113.704 244.532 116.967C231.949 123.492 220.481 124.729 213.113 119.124Z" fill="#D5C5E7"/>
<path d="M214.063 117.872C199.656 106.914 206.736 73.3599 229.884 42.9271C235.668 35.3193 241.912 28.6268 248.247 23.0383C251.279 20.3519 254.46 17.8375 257.774 15.5071C259.362 14.3979 260.937 13.3647 262.501 12.4075C263.285 11.9289 264.065 11.4702 264.842 11.0312H264.119V101.438H264.89C264.495 101.796 264.098 102.149 263.699 102.498C257.365 108.087 250.94 112.571 244.787 115.767C232.48 122.144 221.268 123.351 214.063 117.872Z" fill="#D6C5E6"/>
<path d="M215.018 116.62C200.937 105.911 207.854 73.1203 230.48 43.3782C236.133 35.9439 242.233 29.4028 248.424 23.9419C251.387 21.3168 254.494 18.8593 257.731 16.5808C259.279 15.4977 260.82 14.4883 262.352 13.5527C263.117 13.0854 263.88 12.6369 264.638 12.207H264.118V100.559H264.686C264.3 100.909 263.914 101.255 263.527 101.597C257.337 107.058 251.058 111.44 245.046 114.558C233.016 120.795 222.059 121.974 215.018 116.62Z" fill="#D7C6E6"/>
<path d="M215.971 115.372C202.217 104.911 208.977 72.8829 231.069 43.8331C236.593 36.5707 242.55 30.1827 248.591 24.8477C251.486 22.2846 254.521 19.885 257.683 17.6601C259.193 16.5997 260.698 15.613 262.196 14.7C262.943 14.2464 263.688 13.8086 264.429 13.3867H264.11V99.6802H264.475C264.099 100.02 263.722 100.361 263.344 100.701C257.298 106.036 251.163 110.316 245.291 113.361C233.551 119.443 222.847 120.596 215.971 115.372Z" fill="#D8C6E5"/>
<path d="M216.924 114.117C203.498 103.91 210.097 72.6415 231.663 44.2825C237.054 37.1936 242.87 30.957 248.772 25.7496C251.598 23.2473 254.561 20.9045 257.647 18.7321C259.121 17.699 260.59 16.7349 262.053 15.8401C262.78 15.3967 263.507 14.9708 264.234 14.5625H264.115V98.8043H264.285C263.918 99.1378 263.549 99.4672 263.179 99.7927C257.278 105 251.291 109.178 245.558 112.152C234.085 118.098 223.637 119.224 216.924 114.117Z" fill="#D9C7E5"/>
<path d="M217.876 112.864C204.777 102.904 211.214 72.3995 232.254 44.7328C237.515 37.8175 243.19 31.7323 248.948 26.6525C251.704 24.2107 254.594 21.9252 257.606 19.8068C259.045 18.7986 260.477 17.859 261.903 16.9879C262.615 16.5524 263.325 16.1356 264.031 15.7376C264.385 15.5379 264.737 15.3429 265.088 15.1523H264.115V96.9376H265.152C264.434 97.6045 263.716 98.2549 262.997 98.8889C257.238 103.977 251.405 108.046 245.805 110.952C234.619 116.748 224.426 117.845 217.876 112.864Z" fill="#DAC7E4"/>
<path d="M218.828 111.613C206.055 101.901 212.332 72.1653 232.847 45.1842C237.681 38.7886 243.132 32.8842 249.123 27.5564C251.81 25.1759 254.628 22.9472 257.564 20.8809C258.968 19.8976 260.365 18.9818 261.754 18.1334C262.448 17.7093 263.14 17.3027 263.83 16.9137C264.17 16.7197 264.513 16.5297 264.859 16.3438H264.114V96.0842H264.922C264.223 96.734 263.523 97.3686 262.821 97.9878C257.207 102.94 251.511 106.916 246.059 109.743C235.151 115.4 225.205 116.47 218.828 111.613Z" fill="#DBC8E4"/>
<path d="M219.781 110.359C207.336 100.895 213.452 71.9119 233.44 45.6351C238.15 39.402 243.462 33.647 249.298 28.453C251.919 26.1354 254.667 23.9653 257.529 21.9527C258.896 20.9955 260.257 20.1035 261.612 19.2767C262.292 18.8639 262.966 18.4669 263.633 18.0858C263.973 17.897 264.303 17.7116 264.638 17.5312H264.128V95.2286H264.706C264.026 95.8614 263.345 96.4795 262.665 97.0829C257.194 101.909 251.644 105.781 246.333 108.537C235.685 114.049 226.002 115.09 219.781 110.359Z" fill="#DCC9E3"/>
<path d="M220.733 109.108C208.617 99.8921 214.573 71.6811 234.035 46.0865C238.621 40.0186 243.793 34.4163 249.475 29.3603C252.025 27.102 254.699 24.9881 257.484 23.0284C258.816 22.0939 260.141 21.2246 261.46 20.4205C262.118 20.019 262.774 19.6334 263.428 19.2636C263.755 19.0799 264.08 18.8996 264.406 18.7227H264.116V94.3751H264.456C263.798 94.9921 263.134 95.5937 262.464 96.1801C257.146 100.879 251.746 104.657 246.568 107.333C236.221 112.699 226.793 113.714 220.733 109.108Z" fill="#DDC9E3"/>
<path d="M221.683 107.854C209.894 98.8886 215.688 71.4346 234.625 46.5358C244.088 34.0847 255.054 24.6311 265.122 19.4102H264.113V93.5196H264.232C263.588 94.1184 262.942 94.7037 262.293 95.2753C257.111 99.8481 251.854 103.518 246.812 106.127C236.753 111.348 227.587 112.337 221.683 107.854Z" fill="#DECAE3"/>
<path d="M222.638 106.603C211.177 97.8858 216.81 71.1956 235.227 46.9875C244.43 34.8835 255.082 25.6919 264.869 20.6172H264.115V91.7819H264.944C264.631 92.0802 264.318 92.375 264.005 92.6665C263.378 93.2483 262.75 93.8154 262.12 94.3677C257.081 98.8146 251.97 102.38 247.076 104.915C237.285 110 228.369 110.96 222.638 106.603Z" fill="#DFCAE2"/>
<path d="M223.59 105.349C212.456 96.8825 217.929 70.9544 235.812 47.4387C244.755 35.68 255.107 26.7521 264.615 21.8203H264.115V90.9521H264.688C264.383 91.2424 264.078 91.5259 263.774 91.8027C263.165 92.3697 262.555 92.9232 261.944 93.463C257.049 97.7807 252.077 101.246 247.33 103.711C237.821 108.651 229.157 109.59 223.59 105.349Z" fill="#E0CBE2"/>
<path d="M224.542 104.096C213.734 95.8774 219.047 70.7132 236.404 47.8882C245.081 36.4765 255.131 27.814 264.36 23.0234H264.114V90.1223H264.43C264.136 90.403 263.84 90.6819 263.544 90.9558C262.953 91.5059 262.36 92.0429 261.766 92.5669C257.016 96.7586 252.197 100.122 247.583 102.514C238.354 107.299 229.945 108.206 224.542 104.096Z" fill="#E1CBE1"/>
<path d="M225.495 102.845C215.016 94.8768 220.165 70.4731 236.999 48.3472C245.415 37.2894 255.157 28.877 264.106 24.2361C264.387 24.0909 264.666 23.9497 264.943 23.8125H264.114V88.4752H265.03C263.895 89.5889 262.749 90.6544 261.591 91.6717C256.986 95.7359 252.313 98.9971 247.837 101.318C238.889 105.952 230.735 106.829 225.495 102.845Z" fill="#E2CCE1"/>
<path d="M226.446 101.595C216.295 93.8728 221.293 70.2329 237.59 48.7909C245.744 38.0734 255.183 29.9297 263.852 25.4334C264.123 25.2928 264.393 25.1561 264.662 25.0234H264.114V87.6651H264.747C263.643 88.7448 262.533 89.7769 261.416 90.7613C256.953 94.6996 252.425 97.8519 248.092 100.106C239.423 104.602 231.522 105.453 226.446 101.595Z" fill="#E3CCE0"/>
<path d="M227.399 100.34C217.576 92.8685 222.404 69.9908 238.184 49.2412C246.075 38.8639 255.208 30.9873 263.597 26.6373C264.123 26.3651 264.645 26.1071 265.162 25.8633H264.114V86.8616H264.454C263.388 87.9061 262.314 88.9053 261.232 89.8591C256.913 93.6681 252.532 96.7252 248.337 98.901C239.957 103.253 232.312 104.076 227.399 100.34Z" fill="#E4CDE0"/>
<path d="M228.353 99.0886C218.857 91.8653 223.523 69.7514 238.778 49.6925C246.405 39.6554 255.235 32.0476 263.345 27.8423C263.852 27.578 264.356 27.3285 264.857 27.0938H264.116V86.0591H264.182C263.149 87.0685 262.111 88.0325 261.067 88.9512C256.892 92.6343 252.656 95.5858 248.602 97.6919C240.491 101.904 233.101 102.699 228.353 99.0886Z" fill="#E5CEDF"/>
<path d="M229.303 97.8336C220.133 90.8587 224.64 69.5086 239.369 50.1421C246.732 40.4589 255.258 33.1063 263.089 29.0472C263.576 28.7932 264.062 28.5522 264.547 28.3242H264.113V84.5149H264.642C264.394 84.765 264.145 85.01 263.897 85.2549C262.9 86.2303 261.897 87.1626 260.887 88.0517C256.857 91.6072 252.764 94.4618 248.851 96.4897C241.026 100.552 233.881 101.321 229.303 97.8336Z" fill="#E6CEDF"/>
<path d="M230.257 96.5838C221.41 89.8606 225.76 69.271 239.953 50.5952C247.054 41.259 255.276 34.1683 262.826 30.2522C263.299 30.0072 263.768 29.7747 264.233 29.5547H264.105V83.0133H265.041C264.565 83.5032 264.086 83.9835 263.605 84.4542C262.645 85.3932 261.681 86.2921 260.713 87.1506C256.826 90.5802 252.888 93.3311 249.109 95.2891C241.558 99.2138 234.678 99.947 230.257 96.5838Z" fill="#E7CFDF"/>
<path d="M231.21 95.3316C222.704 88.8569 226.88 69.0293 240.556 51.0459C247.393 42.0534 255.317 35.2265 262.582 31.4566C263.489 30.9859 264.387 30.5629 265.275 30.1875H264.114V82.263H264.715C264.256 82.7359 263.795 83.1987 263.332 83.6512C262.406 84.5585 261.475 85.4238 260.538 86.2472C256.796 89.551 252.999 92.2014 249.363 94.0846C242.092 97.8528 235.466 98.569 231.21 95.3316Z" fill="#E8CFDE"/>
<path d="M232.164 94.0797C223.976 87.8533 227.999 68.7896 241.15 51.4969C247.725 42.8514 255.338 36.2864 262.328 32.6612C263.202 32.2075 264.065 31.8009 264.917 31.4414H264.116V81.5214H264.379C263.939 81.975 263.497 82.4196 263.051 82.8551C262.159 83.7239 261.264 84.5563 260.365 85.3525C256.765 88.5269 253.114 91.0753 249.618 92.8871C242.628 96.5073 236.265 97.1929 232.164 94.0797Z" fill="#E9D0DE"/>
<path d="M233.113 92.8255C225.255 86.8475 229.119 68.5459 241.742 51.9456C248.053 43.6471 255.361 37.3442 262.073 33.8635C262.911 33.428 263.739 33.0373 264.558 32.6914H264.114V80.1022H264.674C264.463 80.3234 264.252 80.5445 264.039 80.7623C263.615 81.1978 263.19 81.6248 262.763 82.0433C261.909 82.878 261.05 83.677 260.184 84.4403C256.731 87.4888 253.225 89.9334 249.87 91.6738C243.16 95.1544 237.043 95.8094 233.113 92.8255Z" fill="#EAD0DD"/>
<path d="M234.065 91.5735C226.534 85.8456 230.236 68.3062 242.333 52.3983C248.383 44.4434 255.387 38.4042 261.817 35.0681C262.622 34.6507 263.416 34.2765 264.199 33.9453H264.112V78.7346H264.915C263.361 80.4167 261.724 82.0195 260.009 83.5371C256.698 86.458 253.34 88.8023 250.123 90.4694C243.692 93.8055 237.832 94.4367 234.065 91.5735Z" fill="#EBD1DD"/>
<path d="M235.017 90.3203C227.813 84.8407 231.354 68.0634 242.926 52.8479C248.71 45.2384 255.411 39.4611 261.563 36.2714C262.332 35.8722 263.091 35.5143 263.841 35.1979C264.217 35.0397 264.587 34.8917 264.957 34.7539H264.106V78.0393H264.521C263.035 79.6487 261.469 81.1817 259.827 82.6325C256.66 85.4276 253.448 87.6698 250.372 89.2672C244.226 92.4553 238.62 93.0592 235.017 90.3203Z" fill="#ECD1DC"/>
<path d="M235.973 89.0667C229.096 83.8372 232.475 67.8238 243.521 53.299C249.045 46.0365 255.438 40.5212 261.312 37.4778C262.045 37.0967 262.769 36.7565 263.486 36.4571C263.843 36.3056 264.199 36.1661 264.551 36.0352H264.116V77.3454H264.141C262.722 78.8813 261.227 80.3451 259.662 81.7311C256.639 84.3969 253.571 86.537 250.635 88.0596C244.771 91.1065 239.411 91.6815 235.973 89.0667Z" fill="#EDD2DC"/>
<path d="M236.922 87.8162C230.373 82.835 233.591 67.5838 244.112 53.7513C249.372 46.8342 255.46 41.5826 261.054 38.682C262.364 37.9936 263.73 37.4166 265.137 36.957H264.116V75.5012H264.797C264.456 75.8924 264.109 76.2769 263.754 76.6546C262.403 78.1182 260.979 79.5121 259.487 80.831C256.609 83.3709 253.688 85.409 250.891 86.8601C245.294 89.7606 240.197 90.3084 236.922 87.8162Z" fill="#EED2DC"/>
<path d="M237.876 86.5658C231.653 81.8348 234.712 67.3423 244.706 54.2039C249.703 47.6321 255.487 42.6357 260.801 39.8883C262.044 39.2346 263.339 38.6866 264.673 38.25H264.109V74.8633H264.347C264.018 75.2353 263.688 75.601 263.357 75.9605C262.073 77.3501 260.72 78.6742 259.303 79.9278C256.569 82.3401 253.794 84.2777 251.137 85.6557C245.829 88.4099 240.986 88.9322 237.876 86.5658Z" fill="#EFD3DB"/>
<path d="M238.829 85.3116C232.935 80.8289 235.832 67.1087 245.294 54.6525C250.028 48.4278 255.501 43.7002 260.542 41.0906C261.72 40.4707 262.949 39.9517 264.215 39.5391H264.109V73.148H264.844C264.232 73.8795 263.608 74.585 262.973 75.2643C261.757 76.5811 260.476 77.8354 259.133 79.0223C256.542 81.3087 253.914 83.1426 251.396 84.4491C246.362 87.0587 241.776 87.5521 238.829 85.3116Z" fill="#F0D4DB"/>
<path d="M239.781 84.0585C234.224 79.8174 236.945 66.861 245.894 55.1023C250.365 49.2229 255.54 44.759 260.294 42.2939C261.407 41.7083 262.568 41.2177 263.763 40.8275C264.042 40.739 264.32 40.6574 264.593 40.5859H264.115V72.5685H264.345C263.767 73.2581 263.18 73.9238 262.586 74.5657C261.437 75.8092 260.227 76.9941 258.959 78.1162C256.511 80.2767 254.026 82.0085 251.652 83.2419C246.897 85.7086 242.559 86.1748 239.781 84.0585Z" fill="#F1D4DA"/>
<path d="M240.732 82.8069C235.492 78.821 238.068 66.6199 246.484 55.5536C250.692 50.0196 255.563 45.8193 260.039 43.4989C261.089 42.9477 262.184 42.4861 263.312 42.1192C263.815 41.9562 264.326 41.8199 264.843 41.7109H264.108V71.0056H264.656C264.389 71.3459 264.119 71.6759 263.846 71.9957C263.302 72.6445 262.749 73.2711 262.189 73.8756C261.07 75.0834 259.926 76.1994 258.776 77.2167C256.473 79.248 254.136 80.8794 251.899 82.0396C247.429 84.3601 243.352 84.799 240.732 82.8069Z" fill="#F2D5DA"/>
<path d="M241.685 81.554C236.773 77.8198 239.187 66.3792 247.078 56.0019C251.023 50.8149 255.584 46.875 259.784 44.7008C260.766 44.1843 261.791 43.7518 262.846 43.4079C263.322 43.2548 263.806 43.1264 264.295 43.0234H264.115V69.5333H264.867C256.975 79.9089 246.596 85.2898 241.685 81.554Z" fill="#F3D5D9"/>
<path d="M242.637 80.3C238.044 76.8142 240.305 66.1375 247.669 56.4542C251.352 51.6126 255.614 47.9363 259.53 45.9068C261.486 44.8861 263.358 44.2889 265.025 44.1562H264.113V69.0806H264.271C256.908 78.7638 247.222 83.7875 242.637 80.3Z" fill="#F4D6D9"/>
<path d="M243.59 79.0513C239.337 75.819 241.425 65.901 248.264 56.9085C251.683 52.4139 255.64 48.9996 259.276 47.1129C261.094 46.1705 262.831 45.6108 264.379 45.4883H264.114V66.9387H264.906C264.515 67.5052 264.107 68.0717 263.68 68.6399C256.848 77.624 247.847 82.2887 243.59 79.0513Z" fill="#F5D6D9"/>
<path d="M244.544 77.7971C240.614 74.808 242.545 65.6573 248.853 57.3622C252.01 53.213 255.658 50.0607 259.019 48.3203C260.697 47.451 262.301 46.9338 263.73 46.8199C264.076 46.7944 264.422 46.7944 264.768 46.8199H264.111V65.0414H265.242C264.594 66.0911 263.873 67.1424 263.084 68.1802C256.776 76.4803 248.474 80.7861 244.544 77.7971Z" fill="#F5D7D8"/>
<path d="M245.492 76.5452C241.891 73.8045 243.662 65.4176 249.448 57.8081C252.34 54.0042 255.689 51.1156 258.765 49.5199C260.305 48.7237 261.775 48.2491 263.084 48.1453C263.699 48.0886 264.318 48.1317 264.918 48.2729H264.112V64.8477H264.471C263.876 65.8106 263.215 66.7734 262.492 67.7244C256.707 75.3373 249.095 79.2841 245.492 76.5452Z" fill="#F6D7D8"/>
<path d="M246.447 75.2935C243.172 72.803 244.781 65.1765 250.041 58.2594C252.671 54.8025 255.716 52.1759 258.513 50.7247C259.912 50 261.247 49.5696 262.44 49.4744C262.998 49.4239 263.561 49.4635 264.107 49.5917C264.359 49.6533 264.605 49.7399 264.84 49.8503H264.114V62.0496H265.134C264.227 63.8945 263.141 65.6461 261.892 67.2791C256.64 74.1945 249.721 77.7773 246.447 75.2935Z" fill="#F7D8D7"/>
<path d="M247.4 74.0341C244.453 71.7936 245.901 64.931 250.632 58.7063C255.363 52.4816 261.593 49.251 264.539 51.4932H264.111V62.1257H264.221C263.406 63.7864 262.429 65.363 261.305 66.8329C256.574 73.0525 250.348 76.2814 247.4 74.0341Z" fill="#F8D8D7"/>
<path d="M248.353 72.7863C245.733 70.7942 247.021 64.6937 251.228 59.1613C255.435 53.629 260.973 50.7574 263.593 52.7495C264.903 53.7447 265.234 55.7691 264.714 58.2342C264.193 60.6992 262.82 63.6083 260.716 66.3778C256.509 71.9085 250.973 74.7784 248.353 72.7863Z" fill="#F9D9D7"/>
<path d="M260.12 65.9165C263.802 61.0747 264.928 55.7366 262.636 53.9935C260.344 52.2505 255.501 54.7625 251.819 59.6043C248.137 64.446 247.011 69.7841 249.303 71.5272C251.595 73.2703 256.438 70.7583 260.12 65.9165Z" fill="#FAD9D6"/>
<path d="M260.628 65.3104C263.808 61.1396 264.785 56.5379 262.811 55.0323C260.836 53.5267 256.657 55.6873 253.477 59.8582C250.297 64.029 249.319 68.6307 251.294 70.1363C253.269 71.6419 257.447 69.4813 260.628 65.3104Z" fill="#FBDAD6"/>
<path d="M258.932 65.016C261.562 61.5578 262.366 57.7452 260.729 56.5003C259.092 55.2554 255.633 57.0497 253.004 60.5079C250.374 63.9661 249.569 67.7787 251.206 69.0236C252.844 70.2685 256.302 68.4742 258.932 65.016Z" fill="#FCDAD5"/>
<path d="M258.341 64.564C260.445 61.7976 261.088 58.7472 259.778 57.7508C258.467 56.7545 255.7 58.1894 253.596 60.9558C251.492 63.7222 250.849 66.7726 252.16 67.7689C253.47 68.7653 256.237 67.3304 258.341 64.564Z" fill="#FDDBD5"/>
<path d="M257.75 64.1124C259.328 62.037 259.811 59.7488 258.828 59.0015C257.846 58.2543 255.77 59.3309 254.191 61.4063C252.613 63.4816 252.131 65.7699 253.113 66.5171C254.096 67.2644 256.172 66.1878 257.75 64.1124Z" fill="#FDDBD5"/>
<path d="M254.068 65.2722C253.413 64.7755 253.727 63.2495 254.787 61.8698C255.847 60.4902 257.223 59.7689 257.878 60.2673C258.533 60.7658 258.218 62.29 257.159 63.6697C256.099 65.0494 254.723 65.7707 254.068 65.2722Z" fill="#FEDCD4"/>
<path d="M255.021 64.0226C254.692 63.7742 254.85 63.0121 255.379 62.3214C255.909 61.6307 256.598 61.2718 256.926 61.5201C257.254 61.7685 257.096 62.5408 256.565 63.2213C256.034 63.9018 255.347 64.2727 255.021 64.0226Z" fill="#FFDCD4"/>
</g>
<path d="M228.737 7.83011H219.517C219.291 7.83011 219.075 7.74049 218.915 7.58097C218.756 7.42146 218.666 7.2051 218.666 6.97951C218.666 6.75391 218.756 6.53756 218.915 6.37804C219.075 6.21852 219.291 6.12891 219.517 6.12891H228.737C228.963 6.12891 229.179 6.21852 229.339 6.37804C229.498 6.53756 229.588 6.75391 229.588 6.97951C229.588 7.2051 229.498 7.42146 229.339 7.58097C229.179 7.74049 228.963 7.83011 228.737 7.83011Z" fill="url(#paint1_linear_221_4354)"/>
<path d="M234.844 8.03514C235.428 7.4505 235.428 6.50262 234.844 5.91799C234.259 5.33335 233.311 5.33335 232.727 5.91798C232.142 6.50262 232.142 7.45051 232.727 8.03514C233.311 8.61978 234.259 8.61978 234.844 8.03514Z" fill="url(#paint2_linear_221_4354)"/>
<path d="M234.878 6.97889C234.878 7.19491 234.814 7.40606 234.694 7.58567C234.574 7.76528 234.403 7.90527 234.203 7.98793C234.004 8.07059 233.784 8.09222 233.572 8.05008C233.361 8.00794 233.166 7.90392 233.013 7.75117C232.861 7.59843 232.756 7.40383 232.714 7.19196C232.672 6.9801 232.694 6.76051 232.776 6.56094C232.859 6.36137 232.999 6.19079 233.179 6.07079C233.358 5.95078 233.57 5.88672 233.786 5.88672C233.929 5.8865 234.071 5.91459 234.204 5.9694C234.336 6.02421 234.457 6.10465 234.558 6.20611C234.66 6.30757 234.74 6.42806 234.795 6.56067C234.85 6.69328 234.878 6.83541 234.878 6.97889Z" fill="url(#paint3_linear_221_4354)"/>
<path d="M234.688 6.97976C234.688 7.15809 234.635 7.33241 234.536 7.48068C234.437 7.62896 234.296 7.74452 234.131 7.81277C233.967 7.88101 233.785 7.89886 233.611 7.86407C233.436 7.82928 233.275 7.74341 233.149 7.61732C233.023 7.49122 232.937 7.33056 232.902 7.15566C232.867 6.98076 232.885 6.79947 232.953 6.63472C233.022 6.46997 233.137 6.32915 233.285 6.23008C233.434 6.131 233.608 6.07812 233.786 6.07812C234.026 6.07812 234.255 6.17312 234.424 6.34221C234.593 6.5113 234.688 6.74063 234.688 6.97976Z" fill="url(#paint4_radial_221_4354)"/>
<path d="M234.424 6.66743C234.424 6.93962 234.136 7.16078 233.784 7.16078C233.432 7.16078 233.145 6.93962 233.145 6.66743C233.145 6.39524 233.43 6.17578 233.784 6.17578C234.138 6.17578 234.424 6.38673 234.424 6.66743Z" fill="url(#paint5_linear_221_4354)"/>
<path d="M269.219 17.4883H267.76V19.0704H269.219V17.4883Z" fill="#353535"/>
<path d="M179.033 19.0703H180.492V17.4882H179.033V19.0703Z" fill="#353535"/>
<path d="M269.219 163.199H267.76V164.781H269.219V163.199Z" fill="#353535"/>
<path d="M179.033 164.781H180.492V163.199H179.033V164.781Z" fill="#353535"/>
<path d="M228.737 7.69611H219.517C219.302 7.69673 219.095 7.61605 218.937 7.47025C218.779 7.32446 218.682 7.12436 218.666 6.91016C218.666 6.93227 218.666 6.95439 218.666 6.97651C218.666 7.2021 218.756 7.41845 218.915 7.57797C219.075 7.73749 219.291 7.82711 219.517 7.82711H228.737C228.963 7.82711 229.179 7.73749 229.339 7.57797C229.498 7.41845 229.588 7.2021 229.588 6.97651C229.588 6.95439 229.588 6.93227 229.588 6.91016C229.571 7.12436 229.475 7.32446 229.317 7.47025C229.159 7.61605 228.952 7.69673 228.737 7.69611Z" fill="#4E4E4E"/>
<path d="M255.679 2.73047H192.577C189.71 2.73362 186.962 3.8736 184.935 5.90035C182.908 7.92711 181.767 10.6751 181.764 13.5416V14.2952C181.767 11.4288 182.908 8.68074 184.935 6.65399C186.962 4.62724 189.71 3.48725 192.577 3.4841H255.679C258.546 3.48725 261.294 4.62724 263.321 6.65399C265.348 8.68074 266.488 11.4288 266.492 14.2952V13.5416C266.488 10.6751 265.348 7.92711 263.321 5.90035C261.294 3.8736 258.546 2.73362 255.679 2.73047Z" fill="url(#paint6_linear_221_4354)"/>
<path d="M246.231 3.53906H202.031C192.09 3.53906 184.031 11.5979 184.031 21.5391V161.272C184.031 171.213 192.09 179.272 202.031 179.272H246.231C256.172 179.272 264.231 171.213 264.231 161.272V21.5391C264.231 11.5979 256.172 3.53906 246.231 3.53906Z" fill="url(#paint7_linear_221_4354)"/>
<path d="M215.227 106.258C217.414 107.012 218.552 109.388 217.769 111.564C216.987 113.74 214.579 114.892 212.393 114.137C212.106 114.04 211.822 113.936 211.541 113.83C204.631 111.209 199.454 106.171 196.627 100.051C193.801 93.9318 193.321 86.724 195.805 79.764C195.906 79.4812 196.012 79.1973 196.124 78.916C198.951 71.7426 204.446 66.2713 211.04 63.225C217.636 60.1784 225.363 59.5429 232.658 62.0405C232.944 62.1382 233.229 62.2416 233.51 62.3478C240.42 64.9689 245.596 70.0069 248.423 76.1264C251.25 82.246 251.729 89.4537 249.245 96.4138C249.144 96.6974 249.038 96.9805 248.927 97.2618C248.084 99.416 245.646 100.502 243.482 99.6871C241.318 98.8723 240.247 96.466 241.09 94.3117C241.172 94.1011 241.252 93.89 241.327 93.6809C243.039 88.8823 242.704 83.9043 240.749 79.6714C238.793 75.4376 235.219 71.9553 230.457 70.1485C230.249 70.0693 230.037 69.9928 229.823 69.9199C226.105 68.6472 222.206 68.5433 218.552 69.4111L226.361 86.317C227.328 88.4089 226.393 90.898 224.274 91.8767C222.155 92.8554 219.654 91.9535 218.688 89.8615L210.879 72.9557C207.849 75.1749 205.4 78.2111 203.959 81.8668C203.876 82.0774 203.797 82.2885 203.722 82.4976C202.01 87.2962 202.345 92.2743 204.3 96.5072C206.256 100.741 209.829 104.224 214.592 106.03C214.8 106.109 215.012 106.185 215.226 106.259L215.227 106.258Z" fill="white"/>
<defs>
<radialGradient id="paint0_radial_221_4354" cx="0" cy="0" r="1" gradientUnits="userSpaceOnUse" gradientTransform="translate(200.087 293.786) scale(184.179)">
<stop stop-color="#E5C33F"/>
<stop offset="0.03" stop-color="#E6BC3D"/>
<stop offset="0.25" stop-color="#F39332"/>
<stop offset="0.42" stop-color="#FC7A2B"/>
<stop offset="0.53" stop-color="#FF7129"/>
<stop offset="0.99" stop-color="#C73A16"/>
</radialGradient>
<linearGradient id="paint1_linear_221_4354" x1="224.127" y1="6.1255" x2="224.127" y2="7.83011" gradientUnits="userSpaceOnUse">
<stop/>
<stop offset="0.29" stop-color="#030303"/>
<stop offset="0.53" stop-color="#0E0E0D"/>
<stop offset="0.75" stop-color="#1F1F1E"/>
<stop offset="0.96" stop-color="#373736"/>
<stop offset="1" stop-color="#3C3C3B"/>
</linearGradient>
<linearGradient id="paint2_linear_221_4354" x1="233.785" y1="5.47935" x2="233.785" y2="8.47347" gradientUnits="userSpaceOnUse">
<stop/>
<stop offset="0.29" stop-color="#030303"/>
<stop offset="0.53" stop-color="#0E0E0D"/>
<stop offset="0.75" stop-color="#1F1F1E"/>
<stop offset="0.96" stop-color="#373736"/>
<stop offset="1" stop-color="#3C3C3B"/>
</linearGradient>
<linearGradient id="paint3_linear_221_4354" x1="233.786" y1="4.95616" x2="233.786" y2="8.5423" gradientUnits="userSpaceOnUse">
<stop/>
<stop offset="0.08"/>
<stop offset="1"/>
</linearGradient>
<radialGradient id="paint4_radial_221_4354" cx="0" cy="0" r="1" gradientUnits="userSpaceOnUse" gradientTransform="translate(233.786 6.97976) scale(0.818278)">
<stop stop-color="#009FE3"/>
<stop offset="1" stop-color="#112754"/>
</radialGradient>
<linearGradient id="paint5_linear_221_4354" x1="233.784" y1="5.71816" x2="233.784" y2="7.188" gradientUnits="userSpaceOnUse">
<stop stop-color="white"/>
<stop offset="1" stop-color="#112754"/>
</linearGradient>
<linearGradient id="paint6_linear_221_4354" x1="224.127" y1="-0.476297" x2="224.127" y2="12.7931" gradientUnits="userSpaceOnUse">
<stop stop-color="white"/>
<stop offset="1"/>
</linearGradient>
<linearGradient id="paint7_linear_221_4354" x1="184.031" y1="3.53906" x2="277.886" y2="11.1624" gradientUnits="userSpaceOnUse">
<stop stop-color="#0A30A3"/>
<stop offset="1" stop-color="#001447"/>
</linearGradient>
</defs>
</svg>
