<svg width="101" height="64" viewBox="0 0 101 64" fill="none" xmlns="http://www.w3.org/2000/svg">
<g opacity="0.6">
<path d="M65.2344 9.03125L34.2859 14.6465" stroke="#1E6AC6" stroke-opacity="0.6" stroke-width="8.4" stroke-linecap="round"/>
<path d="M26.0312 16.1406L24.9996 16.3278" stroke="#001447" stroke-width="8.4" stroke-linecap="round"/>
<path d="M31.2656 56.75L26.1076 57.6859" stroke="#001447" stroke-width="8.4" stroke-linecap="round"/>
<path d="M7.64453 32.2656L4.54969 32.8272" stroke="#001447" stroke-width="8.4" stroke-linecap="round"/>
<path d="M22.832 45.4922L21.3583 45.7596" stroke="#001447" stroke-width="8.4" stroke-linecap="round"/>
<path d="M47.8789 24.9609L18.9937 30.2019" stroke="#1E6AC6" stroke-opacity="0.6" stroke-width="8.4" stroke-linecap="round"/>
<path d="M48.6211 40.8125L31.0836 43.9945" stroke="#1E6AC6" stroke-opacity="0.6" stroke-width="8.4" stroke-linecap="round"/>
<path d="M58.0898 51.8828L40.5524 55.0648" stroke="#1E6AC6" stroke-opacity="0.6" stroke-width="8.4" stroke-linecap="round"/>
<path d="M59.4807 47.6825C61.3312 48.9484 61.8286 51.4913 60.5915 53.3623C59.3552 55.2331 56.8523 55.7238 55.0019 54.4579C54.7594 54.2932 54.5196 54.1235 54.284 53.9521C48.493 49.7274 44.8761 43.6411 43.6923 37.117C42.5086 30.5929 43.7568 23.6238 47.6944 17.634C47.8548 17.3907 48.0197 17.1475 48.1889 16.9082C52.4955 10.8019 58.8746 6.98208 65.7048 5.74281C72.5359 4.50338 79.8495 5.83882 86.0268 10.0429C86.2693 10.2075 86.5091 10.3773 86.7447 10.5487C92.5356 14.7734 96.1526 20.8597 97.3363 27.3838C98.52 33.9079 97.2718 40.877 93.3342 46.8668C93.174 47.111 93.009 47.3533 92.8398 47.5926C91.552 49.4279 89.0372 49.8476 87.2216 48.5305C85.4069 47.2133 84.9784 44.6579 86.2661 42.8226C86.3921 42.6432 86.5152 42.4626 86.6339 42.2827C89.3486 38.153 90.2067 33.3387 89.3879 28.826C88.569 24.3124 86.0734 20.1066 82.0819 17.1946C81.9074 17.067 81.7287 16.9411 81.5479 16.8183C78.3997 14.6758 74.8086 13.5985 71.217 13.5061L74.4872 31.5296C74.8919 33.7598 73.4405 35.8902 71.2461 36.2884C69.0516 36.6865 66.9443 35.2018 66.5397 32.9716L63.2695 14.9481C59.9393 16.2964 56.9557 18.5666 54.7608 21.6785C54.6348 21.8579 54.5117 22.0386 54.393 22.2184C51.6783 26.3481 50.8202 31.1624 51.639 35.6751C52.4579 40.1888 54.9526 44.3947 58.945 47.3065C59.1195 47.4341 59.298 47.5592 59.479 47.6828L59.4807 47.6825Z" fill="#1E6AC6" fill-opacity="0.9"/>
</g>
</svg>
