<svg width="620" height="501" viewBox="0 0 620 501" fill="none" xmlns="http://www.w3.org/2000/svg">
<path opacity="0.36" d="M137.878 372.122C135.374 369.618 135.374 365.558 137.878 363.057L189.056 311.878C191.56 309.374 195.619 309.374 198.122 311.878C200.626 314.382 200.626 318.442 198.122 320.943L146.941 372.122C144.437 374.626 140.378 374.626 137.875 372.122H137.878Z" fill="url(#paint0_radial_179_6411)"/>
<path d="M324.912 368C361.639 368 391.412 397.773 391.412 434.5C391.412 471.227 361.639 501 324.912 501C288.185 501 258.412 471.227 258.412 434.5C258.412 397.773 288.185 368 324.912 368Z" fill="url(#paint1_radial_179_6411)"/>
<path d="M161.379 270.897C161.379 270.897 153.063 382.1 144.547 423H340.792C331.628 384.877 322.151 281.798 322.151 281.798L349.886 322.873L374.86 259.866C374.86 259.866 350.819 218.761 324.88 197.273C306.866 182.348 269.404 176.86 248.201 174.9V173.73C248.201 173.73 245.291 173.863 240.457 174.274C235.615 173.942 232.703 173.858 232.703 173.858L232.717 175.027C211.549 177.336 174.608 183.951 156.417 198.659C89.0937 253.094 54.274 418.856 53.4121 423H95.3206C117.962 337.13 161.379 270.897 161.379 270.897Z" fill="#2A485E"/>
<path d="M374.858 259.867C374.858 259.867 358.158 231.316 337.58 209.367C330.188 237.102 327.937 266.208 330.903 294.759L349.89 322.875L374.858 259.867Z" fill="#193345"/>
<path d="M546.056 324.53C541.104 322.005 536.785 318.525 532.882 314.559L390.845 267.306C390.845 267.306 390.845 225.602 382.825 203.851C396.297 178.695 395.215 155.069 390.845 140.851C386.475 126.633 367.484 118.592 360.525 139.475C357.068 149.853 342.526 192.33 337.247 203.17C323.91 269.052 344.89 347.574 386.646 376.014C428.401 404.454 497.743 407.228 548.167 393.179C583.666 383.284 593.671 344.818 596.485 322.915C591.502 324.986 586.394 326.712 581.12 327.864C569.417 330.417 556.721 329.971 546.056 324.53Z" fill="#F7A87E"/>
<path d="M597.581 307.422L561.772 324.17L532.879 314.558C536.782 318.525 541.101 322.004 546.052 324.529C556.722 329.971 569.419 330.416 581.121 327.859C586.395 326.707 591.503 324.981 596.486 322.911C597.668 313.702 597.581 307.422 597.581 307.422Z" fill="#E98870"/>
<path d="M578.642 125.328L543.017 163.181C534.368 172.371 535.184 186.94 544.806 195.1C553.911 202.825 567.511 201.896 575.482 193.006L610.183 154.306C618.054 145.526 617.349 132.038 608.604 124.124C599.956 116.3 586.635 116.835 578.642 125.328Z" fill="#F7A87E"/>
<path d="M270.205 177.645L209.688 177.763L216.56 225.759H262.561L270.205 177.645Z" fill="#ECEADD"/>
<path d="M262.562 225.758H216.561L233.227 342.166L262.562 225.758Z" fill="white"/>
<path d="M214.787 147.91V167.774C222.74 173.593 232.007 177.218 241.652 177.624C241.875 177.634 242.1 177.641 242.323 177.644C242.546 177.647 242.769 177.634 242.991 177.624C252.013 177.246 260.706 174.046 268.299 168.876V147.91H214.787Z" fill="#E98870"/>
<path d="M281.962 122.764C296.155 117.512 307.74 105.644 312.648 91.3296C317.557 77.0148 315.693 60.5349 307.712 47.6785C314.585 46.0233 317.875 37.1412 315.276 30.5673C312.676 23.9935 305.841 19.8879 298.908 18.4992C302.162 15.4354 301.469 9.72542 298.477 6.40717C295.485 3.08893 290.922 1.68827 286.515 0.939724C279.429 -0.264109 272.179 -0.153763 265.013 0.395965C251.426 1.44074 203.42 -0.00168067 190.037 32.4442C172.748 37.8589 172.902 63.8044 172.761 70.8644C172.383 89.752 180.182 109.398 195.647 120.245C220.078 137.383 253.974 133.126 281.962 122.764Z" fill="#4E2F20"/>
<path d="M291.117 128.809C283.552 149.901 264.177 166.332 242.991 167.221C242.768 167.231 242.545 167.237 242.322 167.241C242.1 167.241 241.874 167.231 241.65 167.221C220.463 166.332 201.092 149.901 193.524 128.809C188.915 115.96 188.244 101.904 188.739 88.1645C189.235 74.4252 190.846 60.7208 190.588 46.9757C207.596 43.4795 225.052 40.7746 242.322 41.7716C259.593 40.7776 277.045 43.4795 294.053 46.9757C293.796 60.7208 295.403 74.4262 295.902 88.1645C296.4 101.903 295.726 115.96 291.117 128.809Z" fill="#F7A87E"/>
<path d="M298.79 100.354C291.515 89.6841 286.961 76.5333 287.619 63.6351C256.689 65.7907 225.649 61.503 196.462 51.0431C196.801 68.0668 192.161 84.7942 184.937 100.213C184.06 83.2424 183.833 66.7695 185.633 49.8721C185.832 47.9475 186.078 45.9624 187.045 44.2843C188.763 41.3021 192.313 39.979 195.613 38.973C226.613 29.5014 260.844 28.1444 291.05 39.9084C294.232 41.149 297.464 42.5924 299.774 45.1164C301.802 47.3282 302.966 50.2121 303.632 53.1376C304.831 58.4063 304.536 63.8866 304.234 69.2825C303.631 80.0057 302.467 90.2626 298.79 100.354Z" fill="#4E2F20"/>
<path d="M226.414 80.3054C227.732 80.3492 229.083 80.4406 230.283 80.9864C231.483 81.5321 232.517 82.6246 232.633 83.9378C232.765 85.4409 231.657 86.8336 230.306 87.5056C228.955 88.1776 227.4 88.277 225.893 88.3496C220.973 88.5848 216.049 88.6531 211.121 88.5543C209.386 88.5195 205.653 88.2561 205.614 85.7461C205.579 83.6475 208.848 82.9726 210.419 82.4288C215.534 80.6574 221.026 80.1295 226.414 80.3054Z" fill="#452819"/>
<path d="M259.98 80.3054C258.662 80.3492 257.311 80.4406 256.11 80.9864C254.909 81.5321 253.875 82.6246 253.761 83.9378C253.629 85.4409 254.737 86.8336 256.088 87.5056C257.439 88.1776 258.994 88.277 260.501 88.3496C265.421 88.5848 270.345 88.6531 275.273 88.5543C277.007 88.5195 280.74 88.2561 280.78 85.7461C280.815 83.6475 277.544 82.9726 275.974 82.4288C270.858 80.6574 265.368 80.1295 259.98 80.3054Z" fill="#452819"/>
<path d="M219.129 107.907C222.044 107.907 224.407 105.544 224.407 102.629C224.407 99.7144 222.044 97.3516 219.129 97.3516C216.214 97.3516 213.852 99.7144 213.852 102.629C213.852 105.544 216.214 107.907 219.129 107.907Z" fill="#452819"/>
<path d="M265.209 107.907C268.124 107.907 270.487 105.544 270.487 102.629C270.487 99.7144 268.124 97.3516 265.209 97.3516C262.295 97.3516 259.932 99.7144 259.932 102.629C259.932 105.544 262.295 107.907 265.209 107.907Z" fill="#452819"/>
<path d="M244.432 147.916C240.68 147.982 236.97 148.786 233.451 150.103C235.911 151.637 239.029 152.636 242.994 152.636C247.567 152.636 251.016 151.312 253.622 149.365C250.669 148.341 247.557 147.85 244.432 147.916Z" fill="#F28487"/>
<path d="M234.277 137.417C236.514 138.411 238.873 139.156 241.302 139.468C246.017 140.074 250.895 138.999 255.038 136.668C256.414 135.889 257.712 134.981 258.915 133.957C258.514 133.787 258.083 133.7 257.647 133.699H228.5C228.589 133.787 228.679 133.873 228.769 133.958C230.364 135.442 232.285 136.534 234.277 137.417Z" fill="white"/>
<path d="M258.918 133.957C257.715 134.981 256.417 135.889 255.041 136.668C250.898 138.999 246.02 140.074 241.305 139.468C238.877 139.156 236.518 138.41 234.28 137.417C232.292 136.534 230.367 135.442 228.773 133.958C228.682 133.873 228.593 133.787 228.503 133.699H228.339C227.838 133.698 227.343 133.812 226.892 134.033C226.441 134.253 226.047 134.574 225.74 134.97C225.433 135.367 225.221 135.829 225.12 136.32C225.019 136.811 225.032 137.319 225.158 137.805C226.152 141.549 228.408 146.959 233.453 150.107C236.972 148.785 240.682 147.981 244.433 147.92C247.558 147.855 250.67 148.347 253.623 149.373C257.914 146.168 259.914 141.274 260.832 137.809C261.033 137.044 260.949 136.232 260.598 135.524C260.246 134.815 259.649 134.259 258.918 133.957Z" fill="#AB404A"/>
<path d="M242.323 177.644C242.1 177.644 241.875 177.634 241.652 177.624C232.01 177.219 222.738 173.593 214.787 167.773V204.777H257.036L268.299 188.686V168.872C260.706 174.047 252.013 177.245 242.991 177.62C242.769 177.632 242.546 177.64 242.323 177.644Z" fill="#F7A87E"/>
<path d="M214.786 172.898L240.613 202.902L268.298 172.898L271.948 177.984L262.291 225.912L240.432 204.779L216.577 225.888L209.688 177.763L214.786 172.898Z" fill="white"/>
<path d="M227.752 215.998L237.87 230.624L223.025 270.925L233.226 342.166L252.45 265.876L243.971 230.455L253.22 217.141L240.432 204.777L227.752 215.998Z" fill="#D75555"/>
<path d="M445.848 332.234L445.709 332.476H445.988L445.848 332.234Z" fill="#F68C24"/>
<path d="M550.938 293.46L587.973 270.723C596.966 265.202 608.378 268.985 612.985 279.014C617.344 288.503 613.95 300.04 605.331 305.039L567.801 326.8C559.287 331.735 548.705 328.276 544.129 319.059C539.595 309.942 542.627 298.563 550.938 293.46Z" fill="#F7A87E"/>
<path d="M538.246 246.829L588.305 226.854C600.459 222.004 614.196 228.328 618.414 240.717C622.402 252.437 616.338 265.204 604.733 269.514L554.208 288.273C542.745 292.529 529.999 286.72 525.692 275.276C521.433 263.957 527.013 251.311 538.246 246.829Z" fill="#F7A87E"/>
<path d="M533.53 202.404L581.807 183.139C593.53 178.462 606.779 184.562 610.847 196.51C614.695 207.813 608.845 220.125 597.651 224.282L548.922 242.374C537.868 246.478 525.575 240.875 521.422 229.838C517.311 218.923 522.694 206.727 533.53 202.404Z" fill="#F7A87E"/>
<path d="M287.164 137.493C293.289 137.836 299.585 136.143 304.447 132.403C309.309 128.662 312.614 122.825 312.879 116.696C313.026 113.316 312.09 109.621 309.373 107.607C307.298 106.068 304.543 105.772 301.97 105.996C298.397 106.306 294.655 107.723 292.76 110.768L287.164 137.493Z" fill="#F7A87E"/>
<path d="M300.566 115.894C300.87 116.077 301.152 116.295 301.407 116.542C302.52 117.611 303.17 119.075 303.215 120.618C303.26 122.162 302.697 123.661 301.647 124.793C301.596 124.848 301.534 124.893 301.465 124.925C301.397 124.957 301.323 124.974 301.247 124.977C301.171 124.98 301.096 124.968 301.025 124.942C300.954 124.916 300.889 124.876 300.834 124.824C300.778 124.773 300.733 124.711 300.702 124.642C300.67 124.574 300.652 124.5 300.649 124.424C300.647 124.348 300.659 124.273 300.685 124.202C300.711 124.131 300.751 124.066 300.802 124.011C301.645 123.1 302.097 121.895 302.061 120.655C302.025 119.414 301.504 118.237 300.609 117.377C300.285 117.065 299.79 116.694 299.218 116.6C297.065 117.925 295.398 119.911 294.468 122.261C294.425 122.371 294.35 122.465 294.251 122.531C294.153 122.597 294.037 122.63 293.919 122.628C293.851 122.627 293.784 122.613 293.721 122.588C293.578 122.533 293.464 122.423 293.402 122.284C293.341 122.144 293.337 121.986 293.392 121.844C294.489 119.024 296.559 116.689 299.228 115.264C301.897 113.838 304.988 113.415 307.942 114.071C308.091 114.104 308.221 114.195 308.303 114.324C308.385 114.453 308.412 114.609 308.379 114.758C308.346 114.907 308.254 115.037 308.126 115.119C307.997 115.201 307.84 115.228 307.691 115.195C305.301 114.677 302.809 114.922 300.566 115.894Z" fill="#D26F61"/>
<path d="M290.775 127.99C290.851 127.858 290.977 127.761 291.124 127.721C291.272 127.681 291.429 127.701 291.561 127.776C294.668 129.555 298.57 128.484 301.185 126.889C302.858 125.87 305.062 124.088 306.049 121.393C306.075 121.322 306.115 121.256 306.166 121.201C306.218 121.145 306.279 121.1 306.348 121.069C306.417 121.037 306.491 121.019 306.566 121.016C306.642 121.013 306.717 121.025 306.788 121.051C306.859 121.077 306.924 121.117 306.98 121.168C307.036 121.22 307.08 121.281 307.112 121.35C307.144 121.418 307.162 121.493 307.165 121.568C307.168 121.644 307.156 121.719 307.13 121.79C306.025 124.797 303.614 126.761 301.785 127.873C299.918 129.01 297.444 129.899 294.973 129.844C293.576 129.828 292.206 129.461 290.989 128.776C290.856 128.7 290.76 128.574 290.719 128.427C290.679 128.28 290.699 128.123 290.775 127.99Z" fill="#D26F61"/>
<path d="M197.14 137.493C191.015 137.836 184.714 136.143 179.857 132.403C175 128.662 171.69 122.825 171.425 116.696C171.278 113.316 172.215 109.621 174.931 107.607C177.006 106.068 179.761 105.772 182.334 105.996C185.907 106.306 189.649 107.723 191.544 110.768L197.14 137.493Z" fill="#F7A87E"/>
<path d="M183.74 115.894C183.436 116.077 183.154 116.295 182.899 116.542C181.786 117.611 181.136 119.075 181.091 120.618C181.046 122.162 181.609 123.661 182.659 124.793C182.71 124.848 182.772 124.893 182.841 124.925C182.909 124.956 182.983 124.974 183.059 124.977C183.135 124.98 183.21 124.968 183.281 124.942C183.352 124.916 183.417 124.876 183.472 124.824C183.528 124.773 183.573 124.711 183.604 124.642C183.636 124.574 183.654 124.499 183.656 124.424C183.659 124.348 183.647 124.273 183.621 124.202C183.595 124.131 183.555 124.066 183.504 124.011C182.661 123.1 182.209 121.895 182.245 120.654C182.281 119.414 182.802 118.237 183.696 117.377C184.021 117.065 184.516 116.694 185.088 116.6C187.241 117.924 188.908 119.91 189.838 122.261C189.881 122.371 189.956 122.465 190.055 122.531C190.153 122.596 190.269 122.63 190.387 122.628C190.455 122.627 190.522 122.613 190.585 122.588C190.656 122.561 190.72 122.52 190.775 122.468C190.83 122.416 190.874 122.353 190.904 122.284C190.934 122.215 190.951 122.14 190.953 122.065C190.954 121.989 190.941 121.914 190.914 121.844C189.817 119.024 187.747 116.689 185.078 115.264C182.41 113.838 179.319 113.415 176.365 114.071C176.291 114.087 176.221 114.118 176.16 114.161C176.098 114.205 176.045 114.26 176.004 114.324C175.964 114.387 175.936 114.459 175.923 114.533C175.91 114.608 175.911 114.684 175.928 114.758C175.944 114.832 175.975 114.901 176.018 114.963C176.062 115.025 176.117 115.078 176.181 115.119C176.244 115.159 176.316 115.187 176.39 115.2C176.464 115.213 176.541 115.211 176.615 115.195C179.004 114.677 181.496 114.922 183.74 115.894Z" fill="#D26F61"/>
<path d="M193.531 127.99C193.455 127.858 193.329 127.761 193.182 127.721C193.034 127.681 192.877 127.701 192.744 127.776C189.638 129.555 185.736 128.484 183.121 126.889C181.448 125.87 179.244 124.088 178.257 121.393C178.231 121.322 178.191 121.256 178.139 121.201C178.088 121.145 178.026 121.1 177.958 121.069C177.889 121.037 177.815 121.019 177.739 121.016C177.664 121.013 177.588 121.025 177.518 121.051C177.447 121.077 177.381 121.117 177.326 121.168C177.27 121.22 177.225 121.281 177.194 121.35C177.162 121.418 177.144 121.493 177.141 121.568C177.138 121.644 177.15 121.719 177.176 121.79C178.28 124.797 180.692 126.761 182.521 127.873C184.388 129.01 186.861 129.899 189.333 129.844C190.729 129.828 192.1 129.461 193.317 128.776C193.449 128.7 193.546 128.574 193.586 128.427C193.627 128.28 193.606 128.123 193.531 127.99Z" fill="#D26F61"/>
<path opacity="0.12" d="M269.338 129.253C273.95 129.253 277.689 125.514 277.689 120.902C277.689 116.29 273.95 112.551 269.338 112.551C264.725 112.551 260.986 116.29 260.986 120.902C260.986 125.514 264.725 129.253 269.338 129.253Z" fill="#ED7C6D"/>
<path opacity="0.12" d="M274.048 124.55C277.309 121.288 277.309 116.001 274.048 112.739C270.786 109.478 265.499 109.478 262.237 112.739C258.976 116.001 258.976 121.288 262.237 124.55C265.499 127.811 270.786 127.811 274.048 124.55Z" fill="#ED7C6D"/>
<path opacity="0.12" d="M272.828 129.253C277.44 129.253 281.179 125.514 281.179 120.902C281.179 116.29 277.44 112.551 272.828 112.551C268.216 112.551 264.477 116.29 264.477 120.902C264.477 125.514 268.216 129.253 272.828 129.253Z" fill="#ED7C6D"/>
<path opacity="0.12" d="M269.029 131.738C273.641 131.738 277.38 127.999 277.38 123.386C277.38 118.774 273.641 115.035 269.029 115.035C264.417 115.035 260.678 118.774 260.678 123.386C260.678 127.999 264.417 131.738 269.029 131.738Z" fill="#ED7C6D"/>
<path opacity="0.12" d="M269.819 127.158C273.274 127.158 276.074 124.358 276.074 120.903C276.074 117.449 273.274 114.648 269.819 114.648C266.365 114.648 263.564 117.449 263.564 120.903C263.564 124.358 266.365 127.158 269.819 127.158Z" fill="#ED7C6D"/>
<path opacity="0.12" d="M270.675 125.198C272.709 125.198 274.358 123.549 274.358 121.515C274.358 119.481 272.709 117.832 270.675 117.832C268.641 117.832 266.992 119.481 266.992 121.515C266.992 123.549 268.641 125.198 270.675 125.198Z" fill="#ED7C6D"/>
<path opacity="0.12" d="M271.72 121.049C272.188 119.069 270.961 117.086 268.982 116.618C267.002 116.151 265.018 117.377 264.551 119.357C264.084 121.337 265.31 123.32 267.29 123.787C269.269 124.255 271.253 123.029 271.72 121.049Z" fill="#ED7C6D"/>
<path opacity="0.12" d="M272.647 123.103C274.527 122.325 275.419 120.17 274.641 118.291C273.862 116.412 271.708 115.519 269.829 116.298C267.949 117.076 267.057 119.23 267.835 121.11C268.614 122.989 270.768 123.881 272.647 123.103Z" fill="#ED7C6D"/>
<path opacity="0.12" d="M270.747 124.306C272.626 123.528 273.519 121.373 272.74 119.494C271.962 117.615 269.807 116.722 267.928 117.501C266.049 118.279 265.156 120.434 265.935 122.313C266.713 124.192 268.868 125.085 270.747 124.306Z" fill="#ED7C6D"/>
<path opacity="0.12" d="M273.398 120.533C273.865 118.554 272.639 116.57 270.659 116.103C268.68 115.635 266.696 116.861 266.229 118.841C265.762 120.821 266.988 122.805 268.967 123.272C270.947 123.739 272.931 122.513 273.398 120.533Z" fill="#ED7C6D"/>
<path opacity="0.05" d="M270.389 122.31C271.842 122.31 273.02 121.131 273.02 119.678C273.02 118.225 271.842 117.047 270.389 117.047C268.936 117.047 267.758 118.225 267.758 119.678C267.758 121.131 268.936 122.31 270.389 122.31Z" fill="#FDECE9"/>
<path opacity="0.05" d="M269.815 120.216C270.683 120.216 271.387 119.512 271.387 118.643C271.387 117.774 270.683 117.07 269.815 117.07C268.946 117.07 268.242 117.774 268.242 118.643C268.242 119.512 268.946 120.216 269.815 120.216Z" fill="#FDECE9"/>
<path opacity="0.05" d="M271.024 119.251C270.897 119.421 270.722 119.549 270.522 119.62C270.322 119.69 270.106 119.699 269.9 119.647C269.695 119.594 269.509 119.482 269.368 119.324C269.226 119.166 269.135 118.97 269.105 118.76C269.075 118.55 269.107 118.335 269.199 118.144C269.291 117.953 269.437 117.793 269.62 117.685C269.802 117.577 270.013 117.525 270.224 117.537C270.436 117.548 270.64 117.622 270.81 117.749C270.922 117.834 271.017 117.94 271.089 118.061C271.161 118.182 271.208 118.316 271.228 118.456C271.248 118.595 271.24 118.738 271.205 118.874C271.17 119.011 271.109 119.139 271.024 119.251Z" fill="#FDECE9"/>
<path opacity="0.05" d="M270.674 119.111C270.546 119.281 270.372 119.41 270.171 119.48C269.971 119.551 269.754 119.561 269.548 119.508C269.343 119.456 269.157 119.344 269.015 119.186C268.873 119.028 268.781 118.831 268.751 118.621C268.721 118.411 268.754 118.196 268.846 118.004C268.937 117.813 269.084 117.653 269.266 117.545C269.449 117.436 269.66 117.385 269.872 117.396C270.084 117.408 270.288 117.482 270.458 117.609C270.686 117.78 270.836 118.034 270.877 118.316C270.917 118.597 270.844 118.883 270.674 119.111Z" fill="#FDECE9"/>
<path opacity="0.05" d="M268.304 119.3C268.873 119.146 269.209 118.56 269.055 117.991C268.901 117.423 268.315 117.087 267.747 117.241C267.178 117.395 266.842 117.981 266.996 118.549C267.15 119.118 267.736 119.454 268.304 119.3Z" fill="#FDECE9"/>
<path opacity="0.05" d="M270.808 119.111C270.68 119.281 270.505 119.409 270.305 119.479C270.105 119.549 269.889 119.559 269.683 119.506C269.478 119.454 269.293 119.341 269.151 119.183C269.009 119.025 268.918 118.829 268.888 118.619C268.858 118.409 268.891 118.195 268.982 118.003C269.074 117.812 269.22 117.652 269.403 117.544C269.585 117.436 269.796 117.385 270.008 117.396C270.219 117.408 270.423 117.482 270.593 117.609C270.82 117.78 270.971 118.034 271.011 118.315C271.051 118.597 270.978 118.883 270.808 119.111Z" fill="#FDECE9"/>
<path opacity="0.12" d="M212.703 129.253C217.315 129.253 221.054 125.514 221.054 120.902C221.054 116.29 217.315 112.551 212.703 112.551C208.091 112.551 204.352 116.29 204.352 120.902C204.352 125.514 208.091 129.253 212.703 129.253Z" fill="#ED7C6D"/>
<path opacity="0.12" d="M217.413 124.55C220.674 121.288 220.674 116.001 217.413 112.739C214.152 109.478 208.864 109.478 205.603 112.739C202.341 116.001 202.341 121.288 205.603 124.55C208.864 127.811 214.152 127.811 217.413 124.55Z" fill="#ED7C6D"/>
<path opacity="0.12" d="M216.195 129.253C220.807 129.253 224.546 125.514 224.546 120.902C224.546 116.29 220.807 112.551 216.195 112.551C211.583 112.551 207.844 116.29 207.844 120.902C207.844 125.514 211.583 129.253 216.195 129.253Z" fill="#ED7C6D"/>
<path opacity="0.12" d="M212.394 131.738C217.007 131.738 220.746 127.999 220.746 123.386C220.746 118.774 217.007 115.035 212.394 115.035C207.782 115.035 204.043 118.774 204.043 123.386C204.043 127.999 207.782 131.738 212.394 131.738Z" fill="#ED7C6D"/>
<path opacity="0.12" d="M213.184 127.158C216.639 127.158 219.439 124.358 219.439 120.903C219.439 117.449 216.639 114.648 213.184 114.648C209.73 114.648 206.93 117.449 206.93 120.903C206.93 124.358 209.73 127.158 213.184 127.158Z" fill="#ED7C6D"/>
<path opacity="0.12" d="M214.04 125.198C216.075 125.198 217.724 123.549 217.724 121.515C217.724 119.481 216.075 117.832 214.04 117.832C212.006 117.832 210.357 119.481 210.357 121.515C210.357 123.549 212.006 125.198 214.04 125.198Z" fill="#ED7C6D"/>
<path opacity="0.12" d="M215.087 121.049C215.555 119.069 214.329 117.086 212.349 116.618C210.369 116.151 208.386 117.377 207.918 119.357C207.451 121.337 208.677 123.32 210.657 123.787C212.637 124.255 214.62 123.029 215.087 121.049Z" fill="#ED7C6D"/>
<path opacity="0.12" d="M216.013 123.103C217.892 122.325 218.784 120.17 218.006 118.291C217.227 116.412 215.073 115.519 213.194 116.298C211.314 117.076 210.422 119.23 211.2 121.11C211.979 122.989 214.133 123.881 216.013 123.103Z" fill="#ED7C6D"/>
<path opacity="0.12" d="M214.112 124.306C215.992 123.528 216.884 121.373 216.106 119.494C215.327 117.615 213.173 116.722 211.293 117.501C209.414 118.279 208.522 120.434 209.3 122.313C210.078 124.192 212.233 125.085 214.112 124.306Z" fill="#ED7C6D"/>
<path opacity="0.12" d="M216.765 120.533C217.232 118.554 216.006 116.57 214.027 116.103C212.047 115.635 210.063 116.861 209.596 118.841C209.129 120.821 210.355 122.805 212.335 123.272C214.314 123.739 216.298 122.513 216.765 120.533Z" fill="#ED7C6D"/>
<path opacity="0.05" d="M213.754 122.31C215.208 122.31 216.386 121.131 216.386 119.678C216.386 118.225 215.208 117.047 213.754 117.047C212.301 117.047 211.123 118.225 211.123 119.678C211.123 121.131 212.301 122.31 213.754 122.31Z" fill="#FDECE9"/>
<path opacity="0.05" d="M213.178 120.216C214.047 120.216 214.751 119.512 214.751 118.643C214.751 117.774 214.047 117.07 213.178 117.07C212.31 117.07 211.605 117.774 211.605 118.643C211.605 119.512 212.31 120.216 213.178 120.216Z" fill="#FDECE9"/>
<path opacity="0.05" d="M214.39 119.251C214.262 119.421 214.088 119.549 213.887 119.62C213.687 119.69 213.471 119.699 213.265 119.647C213.06 119.594 212.875 119.482 212.733 119.324C212.591 119.166 212.5 118.97 212.47 118.76C212.44 118.55 212.473 118.335 212.564 118.144C212.656 117.953 212.802 117.793 212.985 117.685C213.167 117.577 213.378 117.525 213.59 117.537C213.801 117.548 214.005 117.622 214.175 117.749C214.288 117.834 214.383 117.94 214.454 118.061C214.526 118.182 214.573 118.316 214.593 118.456C214.613 118.595 214.606 118.738 214.571 118.874C214.536 119.011 214.474 119.139 214.39 119.251Z" fill="#FDECE9"/>
<path opacity="0.05" d="M214.038 119.111C213.911 119.281 213.736 119.409 213.536 119.479C213.336 119.549 213.119 119.559 212.914 119.506C212.708 119.454 212.523 119.341 212.381 119.183C212.24 119.025 212.148 118.829 212.118 118.619C212.088 118.409 212.121 118.195 212.213 118.003C212.304 117.812 212.451 117.652 212.633 117.544C212.816 117.436 213.026 117.385 213.238 117.396C213.45 117.408 213.654 117.482 213.823 117.609C214.051 117.78 214.201 118.034 214.241 118.315C214.282 118.597 214.209 118.883 214.038 119.111Z" fill="#FDECE9"/>
<path opacity="0.05" d="M213.929 119.641C214.501 119.485 214.837 118.895 214.681 118.323C214.524 117.752 213.934 117.416 213.363 117.572C212.791 117.729 212.455 118.319 212.612 118.89C212.768 119.461 213.358 119.798 213.929 119.641Z" fill="#FDECE9"/>
<path opacity="0.05" d="M214.174 119.111C214.046 119.281 213.872 119.41 213.671 119.48C213.471 119.551 213.254 119.561 213.048 119.508C212.843 119.456 212.657 119.344 212.515 119.186C212.373 119.028 212.281 118.831 212.251 118.621C212.221 118.411 212.254 118.196 212.346 118.004C212.437 117.813 212.584 117.653 212.766 117.545C212.949 117.436 213.16 117.385 213.372 117.396C213.584 117.408 213.788 117.482 213.958 117.609C214.186 117.78 214.336 118.034 214.377 118.316C214.417 118.597 214.344 118.883 214.174 119.111Z" fill="#FDECE9"/>
<path d="M234.773 114.613C234.773 114.637 234.773 114.66 234.773 114.684C234.797 116.849 235.674 118.917 237.213 120.439C238.752 121.962 240.83 122.815 242.995 122.815C245.16 122.815 247.238 121.962 248.777 120.439C250.316 118.917 251.193 116.849 251.217 114.684C251.217 114.66 251.217 114.637 251.217 114.613H234.773Z" fill="#F17D6F"/>
<path d="M384.348 214.344C383.561 210.997 383.864 206.659 382.827 203.847C396.299 178.691 395.216 155.066 390.846 140.847C386.476 126.629 367.485 118.588 360.527 139.471C357.069 149.85 342.528 192.326 337.248 203.166C334.101 218.714 332.865 234.966 333.362 251.097C337.674 248.98 341.879 246.637 345.955 244.164C360.324 235.454 372.436 226.2 384.348 214.344Z" fill="#F7A87E"/>
<path d="M345.536 429.607L289.09 375.297C242.04 421.675 166.356 422.397 118.446 376.337C70.5367 330.276 68.3756 254.583 112.905 205.78L56.4585 151.469C-18.0668 231.447 -14.8761 356.689 64.1718 432.746C143.22 508.802 268.491 507.161 345.536 429.607Z" fill="#FF9149"/>
<path d="M391.739 87.8359H393.47V99.5685H391.739C391.565 99.5685 391.392 99.5342 391.231 99.4675C391.07 99.4008 390.924 99.3031 390.801 99.1799C390.678 99.0566 390.58 98.9103 390.513 98.7493C390.446 98.5883 390.412 98.4158 390.412 98.2415V89.163C390.412 88.811 390.552 88.4735 390.801 88.2246C391.05 87.9757 391.387 87.8359 391.739 87.8359Z" fill="#333333"/>
<path d="M391.739 110.879H393.47V132.752H391.739C391.387 132.752 391.05 132.612 390.801 132.363C390.552 132.114 390.412 131.777 390.412 131.425V112.206C390.412 111.854 390.552 111.516 390.801 111.268C391.05 111.019 391.387 110.879 391.739 110.879Z" fill="#333333"/>
<path d="M545.085 152.48H543.354V118.558H545.085C545.437 118.558 545.775 118.698 546.023 118.946C546.272 119.195 546.412 119.533 546.412 119.885V151.153C546.412 151.505 546.272 151.843 546.023 152.092C545.775 152.341 545.437 152.48 545.085 152.48Z" fill="#333333"/>
<path d="M391.739 138.867H393.47V160.74H391.739C391.387 160.74 391.05 160.6 390.801 160.351C390.552 160.102 390.412 159.765 390.412 159.413V140.194C390.412 139.842 390.552 139.505 390.801 139.256C391.05 139.007 391.387 138.867 391.739 138.867Z" fill="#333333"/>
<path d="M521.912 46H414.905C402.222 46 391.941 56.281 391.941 68.9632V333.361C391.941 346.043 402.222 356.324 414.905 356.324H521.912C534.594 356.324 544.875 346.043 544.875 333.361V68.9632C544.875 56.281 534.594 46 521.912 46Z" fill="#444444"/>
<path d="M521.91 48.6875H414.901C403.702 48.6875 394.623 57.766 394.623 68.965V333.365C394.623 344.564 403.702 353.643 414.901 353.643H521.91C533.109 353.643 542.188 344.564 542.188 333.365V68.965C542.188 57.766 533.109 48.6875 521.91 48.6875Z" fill="#444444"/>
<path d="M521.912 48.8555H414.902C403.797 48.8555 394.795 57.8578 394.795 68.9627V333.363C394.795 344.468 403.797 353.47 414.902 353.47H521.912C533.017 353.47 542.019 344.468 542.019 333.363V68.9627C542.019 57.8578 533.017 48.8555 521.912 48.8555Z" fill="#434343"/>
<path d="M521.912 49.0273H414.902C403.891 49.0273 394.965 57.9535 394.965 68.9644V333.365C394.965 344.376 403.891 353.302 414.902 353.302H521.912C532.923 353.302 541.849 344.376 541.849 333.365V68.9644C541.849 57.9535 532.923 49.0273 521.912 49.0273Z" fill="#414141"/>
<path d="M521.911 49.1953H414.902C403.985 49.1953 395.135 58.0452 395.135 68.9622V333.362C395.135 344.279 403.985 353.129 414.902 353.129H521.911C532.828 353.129 541.678 344.279 541.678 333.362V68.9622C541.678 58.0452 532.828 49.1953 521.911 49.1953Z" fill="#404040"/>
<path d="M521.911 49.3672H414.901C404.078 49.3672 395.305 58.1409 395.305 68.9638V333.364C395.305 344.187 404.078 352.961 414.901 352.961H521.911C532.734 352.961 541.508 344.187 541.508 333.364V68.9638C541.508 58.1409 532.734 49.3672 521.911 49.3672Z" fill="#3E3E3E"/>
<path d="M521.915 49.5352H414.905C404.176 49.5352 395.479 58.2327 395.479 68.9616V333.362C395.479 344.091 404.176 352.788 414.905 352.788H521.915C532.644 352.788 541.341 344.091 541.341 333.362V68.9616C541.341 58.2327 532.644 49.5352 521.915 49.5352Z" fill="#3D3D3D"/>
<path d="M521.912 49.707H414.905C404.27 49.707 395.648 58.3283 395.648 68.9633V333.361C395.648 343.996 404.27 352.617 414.905 352.617H521.912C532.547 352.617 541.168 343.996 541.168 333.361V68.9633C541.168 58.3283 532.547 49.707 521.912 49.707Z" fill="#3B3B3B"/>
<path d="M521.911 49.8789H414.904C404.363 49.8789 395.818 58.424 395.818 68.9649V333.362C395.818 343.903 404.363 352.448 414.904 352.448H521.911C532.452 352.448 540.997 343.903 540.997 333.362V68.9649C540.997 58.424 532.452 49.8789 521.911 49.8789Z" fill="#3A3A3A"/>
<path d="M521.911 50.0469H414.904C404.457 50.0469 395.988 58.5158 395.988 68.9627V333.36C395.988 343.807 404.457 352.276 414.904 352.276H521.911C532.358 352.276 540.827 343.807 540.827 333.36V68.9627C540.827 58.5158 532.358 50.0469 521.911 50.0469Z" fill="#393939"/>
<path d="M521.911 50.2188H414.904C404.551 50.2188 396.158 58.6115 396.158 68.9644V333.362C396.158 343.715 404.551 352.107 414.904 352.107H521.911C532.264 352.107 540.656 343.715 540.656 333.362V68.9644C540.656 58.6115 532.264 50.2188 521.911 50.2188Z" fill="#373737"/>
<path d="M521.91 50.3906H414.904C404.645 50.3906 396.328 58.7071 396.328 68.966V333.363C396.328 343.622 404.645 351.939 414.904 351.939H521.91C532.169 351.939 540.486 343.622 540.486 333.363V68.966C540.486 58.7071 532.169 50.3906 521.91 50.3906Z" fill="#363636"/>
<path d="M521.912 50.5625H414.905C404.74 50.5625 396.5 58.8028 396.5 68.9677V333.365C396.5 343.53 404.74 351.77 414.905 351.77H521.912C532.077 351.77 540.317 343.53 540.317 333.365V68.9677C540.317 58.8028 532.077 50.5625 521.912 50.5625Z" fill="#343434"/>
<path d="M521.912 50.7305H414.902C404.833 50.7305 396.67 58.8933 396.67 68.9626V333.363C396.67 343.432 404.833 351.595 414.902 351.595H521.912C531.981 351.595 540.144 343.432 540.144 333.363V68.9626C540.144 58.8933 531.981 50.7305 521.912 50.7305Z" fill="#333333"/>
<path d="M521.912 50.9023H414.902C404.926 50.9023 396.84 58.9889 396.84 68.9643V333.365C396.84 343.34 404.926 351.426 414.902 351.426H521.912C531.887 351.426 539.973 343.34 539.973 333.365V68.9643C539.973 58.9889 531.887 50.9023 521.912 50.9023Z" fill="#313131"/>
<path d="M521.911 51.0703H414.901C405.02 51.0703 397.01 59.0807 397.01 68.962V333.362C397.01 343.244 405.02 351.254 414.901 351.254H521.911C531.793 351.254 539.803 343.244 539.803 333.362V68.962C539.803 59.0807 531.793 51.0703 521.911 51.0703Z" fill="#303030"/>
<path d="M521.911 51.2422H414.901C405.114 51.2422 397.18 59.1764 397.18 68.9637V333.364C397.18 343.151 405.114 351.085 414.901 351.085H521.911C531.698 351.085 539.633 343.151 539.633 333.364V68.9637C539.633 59.1764 531.698 51.2422 521.911 51.2422Z" fill="#2F2F2F"/>
<path d="M521.911 51.4102H414.901C405.208 51.4102 397.35 59.2681 397.35 68.9615V333.362C397.35 343.055 405.208 350.913 414.901 350.913H521.911C531.604 350.913 539.462 343.055 539.462 333.362V68.9615C539.462 59.2681 531.604 51.4102 521.911 51.4102Z" fill="#2D2D2D"/>
<path d="M521.91 51.582H414.901C405.301 51.582 397.52 59.3638 397.52 68.9631V333.363C397.52 342.963 405.301 350.744 414.901 350.744H521.91C531.51 350.744 539.292 342.963 539.292 333.363V68.9631C539.292 59.3638 531.51 51.582 521.91 51.582Z" fill="#2C2C2C"/>
<path d="M521.911 51.7539H414.904C405.399 51.7539 397.693 59.4595 397.693 68.9648V333.362C397.693 342.867 405.399 350.573 414.904 350.573H521.911C531.416 350.573 539.122 342.867 539.122 333.362V68.9648C539.122 59.4595 531.416 51.7539 521.911 51.7539Z" fill="#2A2A2A"/>
<path d="M521.911 51.9219H414.904C405.493 51.9219 397.863 59.5512 397.863 68.9626V333.36C397.863 342.771 405.493 350.401 414.904 350.401H521.911C531.322 350.401 538.952 342.771 538.952 333.36V68.9626C538.952 59.5512 531.322 51.9219 521.911 51.9219Z" fill="#292929"/>
<path d="M521.911 52.0938H414.904C405.586 52.0938 398.033 59.6469 398.033 68.9642V333.362C398.033 342.679 405.586 350.232 414.904 350.232H521.911C531.228 350.232 538.781 342.679 538.781 333.362V68.9642C538.781 59.6469 531.228 52.0938 521.911 52.0938Z" fill="#272727"/>
<path d="M521.912 52.2656H414.905C405.682 52.2656 398.205 59.7426 398.205 68.9659V333.363C398.205 342.587 405.682 350.064 414.905 350.064H521.912C531.136 350.064 538.613 342.587 538.613 333.363V68.9659C538.613 59.7426 531.136 52.2656 521.912 52.2656Z" fill="#262626"/>
<path d="M521.911 49.5815C527.05 49.5868 531.977 51.6307 535.611 55.2645C539.245 58.8984 541.289 63.8255 541.294 68.9646V333.365C541.289 338.504 539.245 343.431 535.611 347.065C531.977 350.699 527.05 352.743 521.911 352.748H414.904C409.765 352.743 404.837 350.699 401.203 347.065C397.569 343.431 395.524 338.504 395.518 333.365V68.9646C395.524 63.8253 397.569 58.8982 401.203 55.2644C404.837 51.6306 409.765 49.5868 414.904 49.5815H521.911ZM521.911 48.4766H414.904C409.474 48.4842 404.269 50.6446 400.429 54.4841C396.59 58.3236 394.43 63.5289 394.422 68.9588V333.359C394.43 338.789 396.59 343.994 400.429 347.834C404.269 351.673 409.474 353.834 414.904 353.841H521.911C527.341 353.834 532.546 351.673 536.386 347.834C540.225 343.994 542.386 338.789 542.393 333.359V68.9646C542.386 63.5347 540.225 58.3294 536.386 54.4899C532.546 50.6504 527.341 48.49 521.911 48.4823V48.4766Z" fill="#2D2C2C"/>
<mask id="mask0_179_6411" style="mask-type:luminance" maskUnits="userSpaceOnUse" x="400" y="54" width="136" height="294">
<path d="M521.911 54.9492H507.998C507.568 54.9492 507.156 55.1196 506.852 55.4231C506.548 55.7265 506.377 56.1381 506.376 56.5676V56.7695C506.378 57.9762 506.142 59.1714 505.682 60.2868C505.221 61.4022 504.545 62.4158 503.693 63.2698C502.84 64.1237 501.828 64.8011 500.713 65.2634C499.598 65.7256 498.403 65.9635 497.197 65.9635H439.166C436.731 65.9635 434.396 64.9964 432.675 63.2749C430.953 61.5534 429.986 59.2185 429.986 56.784V56.582C429.986 56.1528 429.815 55.7412 429.512 55.4377C429.208 55.1342 428.797 54.9636 428.368 54.9636H414.904C413.063 54.9633 411.241 55.3255 409.54 56.0296C407.839 56.7337 406.294 57.766 404.992 59.0674C403.691 60.3688 402.658 61.9139 401.954 63.6144C401.249 65.3149 400.887 67.1375 400.887 68.9781V333.378C400.887 335.219 401.249 337.042 401.954 338.742C402.658 340.443 403.691 341.988 404.992 343.289C406.294 344.591 407.839 345.623 409.54 346.327C411.241 347.031 413.063 347.393 414.904 347.393H521.911C525.628 347.393 529.193 345.916 531.821 343.288C534.449 340.66 535.926 337.095 535.926 333.378V68.9637C535.926 65.2468 534.449 61.6822 531.821 59.054C529.193 56.4257 525.628 54.9492 521.911 54.9492Z" fill="white"/>
</mask>
<g mask="url(#mask0_179_6411)">
<path d="M535.926 54.9492H400.887V347.378H535.926V54.9492Z" fill="#9EA6FF"/>
<path d="M400.599 347.668V115.895H398.666C399.82 114.099 400.974 112.3 402.128 110.5C404.472 106.904 406.876 103.309 409.34 99.7168C414.273 92.5393 419.444 85.3917 424.852 78.2739C430.26 71.156 435.772 64.2642 441.387 57.5983C442.089 56.7655 442.791 55.9357 443.493 55.1087C443.841 54.6933 444.192 54.2807 444.546 53.8711V54.6673H536.215V312.282H537.946C536.461 313.488 534.976 314.679 533.491 315.854C527.549 320.55 521.615 324.974 515.689 329.124C509.764 333.274 503.873 337.138 498.017 340.715C495.089 342.504 492.173 344.218 489.267 345.859C487.813 346.678 486.364 347.479 484.919 348.262V347.668H400.599Z" fill="#9EA6FF"/>
<path d="M400.598 347.667V116.272H399.943C401.074 114.493 402.22 112.713 403.382 110.93C405.705 107.37 408.087 103.812 410.528 100.256C415.409 93.1515 420.527 86.077 425.881 79.0322C431.235 71.9875 436.685 65.1649 442.232 58.5644C443.617 56.9142 445.007 55.2795 446.404 53.6602V54.6612H536.214V310.638H537.786C536.319 311.832 534.849 313.01 533.378 314.172C527.499 318.818 521.626 323.195 515.761 327.303C504.663 335.131 493.06 342.217 481.027 348.513V347.667H400.598Z" fill="#9FA7FF"/>
<path d="M400.598 347.669V119.294H399.557C400.107 118.413 400.662 117.532 401.224 116.652C402.343 114.888 403.477 113.125 404.625 111.364C406.933 107.842 409.29 104.323 411.696 100.805C416.529 93.7739 421.594 86.7734 426.89 79.8037C432.187 72.8339 437.581 66.0825 443.071 59.5493C444.445 57.9165 445.821 56.2971 447.2 54.6913L448.238 53.4883V54.6624H536.225V308.992H537.639C536.185 310.171 534.73 311.336 533.274 312.488C527.455 317.087 521.644 321.414 515.841 325.47C504.859 333.216 493.376 340.227 481.468 346.457C480.061 347.188 478.657 347.899 477.257 348.592V347.654L400.598 347.669Z" fill="#A0A7FE"/>
<path d="M400.599 347.669V122.26H399.217C407.84 108.307 417.411 94.3497 427.892 80.5689C433.133 73.678 438.47 66.9977 443.903 60.528C445.249 58.9125 446.611 57.3105 447.988 55.7219C448.67 54.9257 449.355 54.1343 450.042 53.3477V54.6631H536.214V307.342H537.466C536.03 308.514 534.587 309.668 533.139 310.804C527.381 315.356 521.631 319.643 515.888 323.665C505.022 331.33 493.66 338.269 481.879 344.435C479.092 345.88 476.322 347.251 473.567 348.549V347.684L400.599 347.669Z" fill="#A1A8FE"/>
<path d="M400.598 347.669V122.58H400.525C409.059 108.776 418.527 94.9668 428.898 81.3273C434.09 74.5114 439.37 67.9023 444.735 61.4999C446.082 59.9017 447.428 58.316 448.774 56.7428C449.452 55.9581 450.127 55.1763 450.794 54.3945V54.6571H536.184V305.695H537.278C535.853 306.849 534.429 307.99 533.005 309.119C527.311 313.623 521.622 317.864 515.939 321.841C505.188 329.425 493.947 336.288 482.29 342.387C479.532 343.818 476.792 345.175 474.068 346.457C472.707 347.102 471.35 347.725 469.998 348.327V347.669H400.598Z" fill="#A2A8FD"/>
<path d="M400.599 347.67V128.025H398.715C399.742 126.317 400.782 124.61 401.836 122.905C410.277 109.248 419.644 95.5882 429.903 82.0987C435.032 75.354 440.255 68.815 445.573 62.4819C448.227 59.3201 450.901 56.2103 453.596 53.1523V54.6611H536.214V304.046H537.146C535.738 305.2 534.33 306.329 532.92 307.433C527.287 311.887 521.66 316.082 516.038 320.019C505.402 327.52 494.282 334.309 482.75 340.343C477.298 343.174 471.913 345.712 466.595 347.959V347.67H400.599Z" fill="#A3A9FD"/>
<path d="M400.598 345.702V128.278H400.059C401.074 126.588 402.104 124.899 403.148 123.212C411.497 109.706 420.763 96.193 430.909 82.8507C435.98 76.1809 441.146 69.7141 446.406 63.4502C449.035 60.3211 451.682 57.244 454.345 54.2188V54.6486H536.214V302.386H536.987C535.593 303.517 534.199 304.633 532.807 305.735C527.23 310.14 521.663 314.29 516.107 318.186C505.586 325.606 494.588 332.323 483.182 338.294C477.787 341.092 472.459 343.603 467.197 345.826C464.57 346.936 461.964 347.972 459.379 348.936V347.661H400.598V345.702Z" fill="#A4AAFC"/>
<path d="M400.598 343.577V131.058H399.908C400.404 130.221 400.903 129.387 401.403 128.554C402.406 126.885 403.425 125.214 404.458 123.543C412.714 110.186 421.879 96.8208 431.912 83.6256C436.928 77.027 442.038 70.6313 447.242 64.4386C449.839 61.3422 452.455 58.2997 455.092 55.311C455.75 54.5648 456.409 53.8205 457.071 53.0781V54.6619H536.213V300.752H536.825C535.448 301.871 534.07 302.975 532.691 304.064C527.179 308.42 521.674 312.521 516.175 316.368C505.771 323.712 494.892 330.362 483.611 336.273C472.938 341.806 462.509 346.217 452.455 349.425V347.694H400.598V343.577Z" fill="#A6AAFC"/>
<path d="M400.599 341.466V133.759H399.814C401.738 130.458 403.722 127.157 405.769 123.855C413.936 110.642 422.997 97.427 432.921 84.3789C437.883 77.8554 442.935 71.5308 448.078 65.4054C450.649 62.3456 453.237 59.3367 455.841 56.3788C456.493 55.6403 457.146 54.9046 457.799 54.1719V54.6508H536.215V299.091H536.668C535.302 300.199 533.94 301.291 532.58 302.368C527.128 306.678 521.683 310.737 516.246 314.545C505.957 321.8 495.2 328.369 484.046 334.208C473.493 339.689 463.177 344.042 453.247 347.213C450.766 348.007 448.31 348.725 445.879 349.368V347.657H400.588L400.599 341.466Z" fill="#A7ABFB"/>
<path d="M400.599 339.331V136.424H399.771C400.241 135.61 400.714 134.796 401.191 133.98C403.097 130.711 405.059 127.446 407.079 124.186C415.156 111.124 424.114 98.0553 433.925 85.1544C438.831 78.7039 443.831 72.4535 448.926 66.403C451.465 63.3759 454.024 60.4007 456.603 57.4774C457.889 56.0176 459.181 54.5695 460.477 53.1328V54.6704H536.215V297.463H536.504C535.157 298.56 533.811 299.639 532.465 300.703C527.08 304.963 521.695 308.976 516.31 312.741C506.136 319.916 495.5 326.412 484.47 332.185C474.039 337.594 463.835 341.907 454.021 345.046C449.283 346.569 444.468 347.842 439.597 348.859V347.677H400.599V339.331Z" fill="#A8ABFB"/>
<path d="M400.598 337.209V139.022H399.782C400.695 137.412 401.624 135.8 402.569 134.187C404.453 130.961 406.394 127.734 408.39 124.505C416.37 111.593 425.229 98.6745 434.931 85.9178C439.779 79.5404 444.72 73.3592 449.753 67.3741C452.253 64.3835 454.781 61.4429 457.337 58.5523C458.61 57.106 459.887 55.6732 461.168 54.2539V54.6636H536.214V295.809H536.347C535.014 296.892 533.681 297.959 532.348 299.011C527.021 303.223 521.7 307.191 516.384 310.914C506.325 318.007 495.809 324.428 484.905 330.136C464.278 340.833 444.563 347.194 426.989 348.599C418.199 349.294 409.945 348.746 402.381 346.868C401.435 346.635 400.499 346.381 399.574 346.106H400.598V337.209Z" fill="#A9ACFA"/>
<path d="M400.599 335.085V141.568H399.846C400.29 140.771 400.74 139.975 401.193 139.179C402.095 137.587 403.013 135.993 403.946 134.399C405.809 131.21 407.732 128.021 409.715 124.83C417.605 112.065 426.361 99.2934 435.95 86.6838C440.729 80.3718 445.607 74.2608 450.585 68.3508C453.066 65.3948 455.566 62.4878 458.085 59.6299C459.343 58.2029 460.605 56.7874 461.873 55.3835C462.508 54.6815 463.142 53.9833 463.777 53.2891V54.6622H536.215V292.542H538.162L536.186 294.161C534.871 295.232 533.554 296.29 532.237 297.334C526.969 301.496 521.708 305.417 516.454 309.098C506.511 316.109 496.117 322.456 485.338 328.098C464.945 338.671 445.458 344.96 428.086 346.333C419.4 347.022 411.238 346.48 403.761 344.631C402.826 344.4 401.902 344.149 400.989 343.878C400.531 343.741 400.077 343.6 399.627 343.454H400.599V335.085Z" fill="#AAADFA"/>
<path d="M400.599 332.96V144.053H399.961C403.423 137.768 407.106 131.467 411.01 125.151C418.799 112.533 427.454 99.9121 436.942 87.4496C441.679 81.2203 446.504 75.1804 451.418 69.33C453.872 66.4086 456.343 63.5353 458.832 60.7101C460.078 59.2966 461.328 57.8974 462.582 56.5127C463.207 55.8204 463.834 55.1299 464.463 54.4414V54.6635H536.215V290.931H537.977C537.329 291.466 536.679 291.997 536.027 292.526C534.723 293.586 533.421 294.63 532.121 295.659C526.917 299.773 521.717 303.648 516.523 307.285C506.695 314.215 496.421 320.489 485.768 326.065C465.62 336.503 446.352 342.717 429.182 344.064C420.596 344.742 412.533 344.208 405.139 342.382C403.289 341.926 401.484 341.389 399.725 340.769H400.59L400.599 332.96Z" fill="#ABADF9"/>
<path d="M400.599 330.834V148.801H398.868C399.697 147.253 400.539 145.702 401.395 144.148C404.822 137.938 408.463 131.711 412.317 125.469C420.022 113 428.576 100.526 437.94 88.214C447.304 75.9016 457.049 64.3219 467.004 53.5586V54.6519H536.214V289.275H537.795C537.151 289.806 536.508 290.332 535.865 290.853C534.579 291.901 533.293 292.933 532.008 293.948C526.862 298.014 521.723 301.844 516.592 305.439C506.88 312.286 496.728 318.486 486.2 323.997C466.28 334.324 447.255 340.466 430.278 341.811C421.793 342.48 413.834 341.952 406.518 340.146C404.691 339.696 402.907 339.165 401.167 338.554C400.296 338.244 399.436 337.917 398.588 337.573H400.607L400.599 330.834Z" fill="#ACAEF9"/>
<path d="M400.599 328.713V148.847H400.342C401.162 147.318 401.995 145.785 402.843 144.248C406.228 138.111 409.825 131.957 413.633 125.785C421.246 113.464 429.698 101.14 438.953 88.9721C448.207 76.8039 457.831 65.3886 467.666 54.7465C468.281 54.0791 468.896 53.4175 469.512 52.7617V54.6628H536.215V287.656H537.611C536.976 288.181 536.341 288.701 535.704 289.217C534.435 290.249 533.165 291.269 531.893 292.275C526.81 296.29 521.733 300.074 516.661 303.626C507.066 310.394 497.034 316.521 486.63 321.965C466.95 332.172 448.144 338.239 431.374 339.563C422.991 340.226 415.118 339.704 407.901 337.921C406.095 337.473 404.331 336.947 402.61 336.343C401.75 336.043 400.901 335.721 400.062 335.377H400.599V328.713Z" fill="#ADAEF8"/>
<path d="M400.599 326.589V153.424H399.425C400.992 150.407 402.611 147.38 404.283 144.345C407.627 138.285 411.185 132.208 414.956 126.113C422.48 113.942 430.823 101.765 439.974 89.7443C449.124 77.7233 458.618 66.4234 468.337 55.9226C468.947 55.2649 469.556 54.611 470.163 53.9609V54.662H536.226V286.025H537.441C536.812 286.544 536.184 287.059 535.557 287.569C534.303 288.59 533.047 289.597 531.789 290.589C526.766 294.558 521.75 298.297 516.742 301.805C507.262 308.49 497.351 314.542 487.074 319.922C467.631 330.019 449.049 335.999 432.485 337.312C424.199 337.966 416.422 337.45 409.291 335.687C405.783 334.829 402.368 333.628 399.096 332.102H400.61L400.599 326.589Z" fill="#AEAFF8"/>
<path d="M400.598 324.466V157.879H398.643C399.391 156.392 400.151 154.904 400.924 153.413C402.463 150.43 404.062 147.441 405.722 144.447C409.024 138.456 412.534 132.452 416.252 126.434C423.683 114.41 431.931 102.383 440.963 90.5094C449.995 78.6355 459.383 67.4712 468.983 57.1002C470.183 55.8021 471.386 54.5173 472.592 53.2461V54.6625H536.214V284.399H537.244C536.625 284.91 536.005 285.418 535.383 285.922C534.145 286.93 532.905 287.924 531.665 288.905C526.703 292.826 521.748 296.52 516.799 299.985C507.434 306.585 497.644 312.56 487.492 317.871C468.285 327.83 449.932 333.738 433.569 335.048C425.388 335.694 417.703 335.186 410.658 333.444C407.193 332.597 403.821 331.41 400.59 329.901L400.598 324.466Z" fill="#AFB0F7"/>
<path d="M400.598 322.342V157.812H400.171C400.91 156.343 401.661 154.872 402.425 153.401C403.953 150.455 405.533 147.503 407.164 144.545C410.434 138.629 413.896 132.699 417.55 126.754C424.889 114.88 433.035 103 441.955 91.2705C450.875 79.5408 460.144 68.5179 469.627 58.2738C470.811 56.993 472 55.7246 473.192 54.4688V54.6591H536.214V282.768H537.062C536.447 283.274 535.834 283.775 535.225 284.271C534 285.269 532.774 286.252 531.549 287.22C526.651 291.091 521.757 294.738 516.869 298.162C507.62 304.685 497.95 310.59 487.922 315.837C468.954 325.674 450.826 331.522 434.665 332.803C426.588 333.44 418.995 332.938 412.037 331.219C408.615 330.381 405.285 329.209 402.093 327.72C401.304 327.35 400.529 326.966 399.768 326.566H400.598V322.342Z" fill="#B0B0F7"/>
<path d="M400.599 320.216V162.087H399.558C410.809 138.951 425.357 115.203 442.975 92.038C451.782 80.4555 460.939 69.571 470.303 59.4539C471.474 58.1865 472.648 56.9364 473.825 55.7036L475.591 53.8516V54.6709H536.215V281.139H536.876C536.274 281.639 535.669 282.134 535.061 282.624C533.852 283.609 532.642 284.579 531.432 285.535C526.599 289.358 521.768 292.961 516.939 296.342C507.805 302.781 498.257 308.612 488.356 313.795C469.625 323.508 451.719 329.283 435.763 330.547C427.783 331.179 420.288 330.683 413.417 328.983C410.041 328.155 406.756 326.995 403.608 325.522C402.059 324.794 400.548 323.986 399.082 323.101H400.611L400.599 320.216Z" fill="#B1B1F6"/>
<path d="M400.599 318.098V166.24H399.064C399.734 164.817 400.415 163.392 401.107 161.965C412.211 139.129 426.586 115.672 443.984 92.7927C452.679 81.3572 461.72 70.6084 470.966 60.6211C473.274 58.1209 475.597 55.6717 477.936 53.2734V54.6524H536.209V279.51H536.691C536.094 280.001 535.497 280.491 534.899 280.976C533.705 281.947 532.511 282.909 531.317 283.861C526.539 287.636 521.768 291.194 517.002 294.534C507.986 300.888 498.56 306.64 488.785 311.751C470.291 321.343 452.618 327.041 436.859 328.293C428.98 328.916 421.569 328.423 414.798 326.746C411.462 325.932 408.214 324.79 405.102 323.337C403.572 322.618 402.079 321.821 400.631 320.948C400.271 320.729 399.913 320.505 399.555 320.276H400.599V318.098Z" fill="#B2B1F6"/>
<path d="M400.598 315.968V170.267H398.691C399.961 167.469 401.28 164.661 402.649 161.843C413.612 139.298 427.802 116.142 444.973 93.5652C453.558 82.2769 462.484 71.6665 471.608 61.8061C473.891 59.3386 476.186 56.9202 478.492 54.5508V54.6604H536.214V277.88H536.503C535.926 278.364 535.326 278.849 534.734 279.322C533.557 280.284 532.378 281.229 531.197 282.158C526.482 285.885 521.77 289.396 517.062 292.69C508.161 298.972 498.854 304.657 489.203 309.711C470.945 319.179 453.497 324.81 437.939 326.039C430.15 326.654 422.858 326.169 416.162 324.516C412.868 323.71 409.662 322.582 406.59 321.146C405.079 320.439 403.607 319.653 402.179 318.79C401.464 318.357 400.761 317.906 400.07 317.437H400.584L400.598 315.968Z" fill="#B3B2F5"/>
<path d="M400.598 313.847V170.035H400.309C401.561 167.277 402.864 164.507 404.218 161.724C415.036 139.473 429.042 116.617 445.991 94.3313C454.463 83.1901 463.271 72.7182 472.28 62.9848C474.532 60.55 476.796 58.1633 479.071 55.8246C479.648 55.2477 480.225 54.6707 480.779 54.0938V54.6707H536.214V274.812H538.072C535.746 276.745 533.424 278.634 531.105 280.481C526.449 284.16 521.799 287.622 517.157 290.866C508.37 297.061 499.184 302.67 489.658 307.656C453.618 326.347 420.774 329.883 399.672 313.835L400.598 313.847Z" fill="#B5B3F5"/>
<path d="M401.288 311.722C400.639 311.226 400.001 310.715 399.381 310.19H400.61V173.879H400.114C400.704 172.517 401.305 171.163 401.917 169.817C403.155 167.094 404.441 164.359 405.774 161.613C416.447 139.656 430.272 117.1 446.995 95.1087C455.361 84.1146 464.05 73.7783 472.941 64.1747C475.162 61.7745 477.396 59.4195 479.643 57.1097C480.764 55.9558 481.889 54.8125 483.018 53.6797V54.675H536.214V273.192H537.867C535.571 275.115 533.274 276.983 530.978 278.794C526.385 282.424 521.798 285.843 517.215 289.053C508.544 295.168 499.478 300.704 490.077 305.623C454.51 324.069 422.102 327.56 401.288 311.722Z" fill="#B6B3F5"/>
<path d="M402.891 309.599C401.612 308.626 400.386 307.585 399.219 306.48H400.598V177.607H400.021C402.263 172.281 404.702 166.908 407.337 161.486C417.869 139.821 431.509 117.567 448.013 95.8678C456.263 85.018 464.84 74.823 473.61 65.3463C475.802 62.9769 478.007 60.6527 480.225 58.3737C481.329 57.2371 482.438 56.1101 483.554 54.9927C484.111 54.4359 484.667 53.8791 485.224 53.3281V54.6696H536.213V271.583H537.656C535.39 273.475 533.125 275.318 530.859 277.11C526.33 280.693 521.805 284.066 517.283 287.23C508.729 293.263 499.784 298.725 490.509 303.578C455.415 321.782 423.437 325.223 402.891 309.599Z" fill="#B7B4F4"/>
<path d="M404.508 307.474C403.246 306.516 402.037 305.49 400.885 304.402C400.308 303.859 399.748 303.3 399.203 302.729H400.599V181.188H400.045C400.576 179.882 401.118 178.572 401.67 177.259C403.879 172.006 406.283 166.706 408.882 161.358C419.267 139.984 432.728 118.03 449.004 96.6249C457.145 85.9222 465.603 75.8541 474.258 66.516C478.585 61.8425 482.954 57.3489 487.363 53.0352V54.6622H536.215V269.974H537.453C535.22 271.842 532.985 273.659 530.748 275.427C526.277 278.961 521.811 282.291 517.351 285.414C508.911 291.365 500.087 296.752 490.938 301.54C456.323 319.492 424.777 322.891 404.508 307.474Z" fill="#B8B4F4"/>
<path d="M406.123 305.353C403.634 303.461 401.353 301.309 399.32 298.934H400.598V184.648H400.194C401.191 182.087 402.233 179.511 403.322 176.92C405.502 171.739 407.875 166.511 410.438 161.235C420.685 140.156 433.956 118.505 450.013 97.391C458.041 86.8354 466.384 76.9088 474.917 67.6946C479.187 63.0789 483.497 58.6468 487.847 54.3984V54.6638H536.214V268.366H537.247C535.047 270.207 532.843 271.999 530.635 273.743C526.227 277.228 521.823 280.511 517.422 283.592C509.099 289.463 500.397 294.777 491.372 299.499C457.227 317.206 426.112 320.556 406.123 305.353Z" fill="#B9B5F3"/>
<path d="M407.735 303.228C405.282 301.361 403.035 299.239 401.03 296.898C400.526 296.321 400.038 295.716 399.565 295.101H400.598V191.743H399.098C402.822 181.304 407.127 171.082 411.993 161.124C422.09 140.339 435.184 118.985 451.016 98.1654C458.935 87.757 467.171 77.9716 475.577 68.8815C479.785 64.3351 484.035 59.9645 488.325 55.77C489.399 54.7238 490.472 53.6872 491.545 52.6602V54.6795H536.214V266.749H537.041C534.868 268.563 532.695 270.33 530.522 272.051C526.171 275.486 521.828 278.724 517.491 281.765C509.288 287.553 500.711 292.792 491.816 297.449C458.133 314.926 427.45 318.22 407.735 303.228Z" fill="#BAB5F3"/>
<path d="M409.365 301.106C406.939 299.266 404.714 297.175 402.73 294.866C401.741 293.712 400.807 292.504 399.926 291.242H400.589V194.852H399.557C399.968 193.63 400.392 192.406 400.829 191.179C404.503 180.888 408.749 170.81 413.548 160.992C423.512 140.51 436.413 119.451 452.023 98.9195C459.812 88.6582 467.941 79.0142 476.238 70.0482C480.387 65.5651 484.576 61.2562 488.807 57.1213C489.863 56.0885 490.921 55.0663 491.981 54.0547V54.6634H536.214V265.146H536.834C534.694 266.937 532.551 268.679 530.407 270.374C526.12 273.764 521.838 276.956 517.561 279.948C509.468 285.656 501.008 290.822 492.235 295.414C459.039 312.619 428.789 315.887 409.365 301.106Z" fill="#BBB6F2"/>
<path d="M410.966 298.981C406.166 295.298 402.177 290.664 399.248 285.37H400.598V197.839H400.134C400.903 195.454 401.715 193.05 402.568 190.627C406.189 180.484 410.374 170.552 415.103 160.876C424.926 140.682 437.636 119.911 453.03 99.6856C460.721 89.5686 468.718 80.0688 476.896 71.2239C480.987 66.8005 485.117 62.5531 489.286 58.4816C490.327 57.4623 491.37 56.4546 492.416 55.4583C492.939 54.9593 493.461 54.466 493.983 53.9727V54.6621H536.214V263.524H536.629C534.514 265.289 532.398 267.007 530.283 268.676C526.052 272.017 521.831 275.163 517.621 278.115C509.645 283.741 501.305 288.834 492.656 293.359C459.942 310.339 430.136 313.549 410.966 298.981Z" fill="#BCB7F2"/>
<path d="M412.581 296.859C407.854 293.227 403.926 288.661 401.042 283.444C400.294 282.117 399.599 280.741 398.959 279.316H400.606V204.181H399.787C401.104 199.565 402.611 194.862 404.307 190.071C407.874 180.073 411.997 170.283 416.657 160.747C426.336 140.841 438.871 120.388 454.033 100.454C461.615 90.4837 469.496 81.1253 477.556 72.4045C481.595 68.0522 485.664 63.8664 489.765 59.8468C491.819 57.839 493.878 55.8744 495.944 53.9531V54.6657H536.213V261.926H536.424C534.341 263.657 532.259 265.349 530.178 267.003C526.013 270.296 521.853 273.397 517.699 276.307C509.837 281.851 501.618 286.869 493.094 291.328C460.847 308.052 431.462 311.216 412.581 296.859Z" fill="#BDB7F1"/>
<path d="M414.198 294.73C409.536 291.154 405.663 286.654 402.82 281.512C401.315 278.821 400.046 276.005 399.029 273.094H400.599V210.205H399.782C400.338 207.966 400.941 205.708 401.591 203.431C402.891 198.873 404.376 194.238 406.045 189.526C409.56 179.677 413.623 170.031 418.213 160.635C427.751 141.018 440.101 120.87 455.041 101.225C462.51 91.4018 470.276 82.1675 478.218 73.588C482.187 69.2992 486.197 65.1749 490.248 61.215C492.269 59.236 494.298 57.3012 496.335 55.4107C496.842 54.9376 497.353 54.4673 497.861 54V54.6722H536.229V260.314C534.181 262.028 532.13 263.695 530.076 265.317C525.973 268.559 521.875 271.614 517.78 274.482C510.038 279.944 501.943 284.889 493.548 289.284C461.754 305.762 432.799 308.88 414.198 294.73Z" fill="#BEB8F1"/>
<path d="M415.814 292.609C411.222 289.087 407.406 284.656 404.604 279.593C403.123 276.942 401.874 274.168 400.871 271.302C400.351 269.829 399.882 268.312 399.463 266.753H400.6V215.87H400.109C407.39 181.373 426.612 140.683 456.046 101.98C463.405 92.3041 471.047 83.2083 478.876 74.7557C482.788 70.5246 486.739 66.4618 490.727 62.5673C492.722 60.621 494.721 58.7151 496.725 56.8496C497.725 55.9168 498.728 54.9956 499.734 54.0859V54.6629H536.215V257.432H537.528L536.01 258.707C533.991 260.393 531.972 262.036 529.952 263.634C525.914 266.83 521.875 269.84 517.836 272.664C510.207 278.041 502.23 282.908 493.958 287.232C462.661 303.476 434.139 306.56 415.814 292.609Z" fill="#BFB8F0"/>
<path d="M417.443 290.486C408.419 283.623 402.759 273.224 400.252 260.294H400.613V239.122H398.83C399.196 230.977 400.248 222.878 401.975 214.91C409.146 180.935 428.076 140.862 457.075 102.745C471.568 83.6847 487.207 66.918 503.073 52.918V54.6489H536.249V255.84H537.331C536.834 256.261 536.337 256.679 535.839 257.095C533.837 258.76 531.836 260.378 529.836 261.95C525.855 265.096 521.879 268.06 517.907 270.841C510.394 276.145 502.537 280.946 494.39 285.213C463.566 301.189 435.476 304.212 417.443 290.486Z" fill="#C0B9F0"/>
<path d="M419.042 288.362C410.159 281.606 404.586 271.364 402.117 258.631C399.647 245.897 400.285 230.688 403.816 213.956C410.875 180.492 429.514 141.048 458.051 103.516C472.322 84.7506 487.721 68.2407 503.342 54.457V54.6705H536.215V254.249H537.08C536.59 254.664 536.1 255.074 535.612 255.483C533.652 257.122 531.692 258.715 529.733 260.264C525.813 263.362 521.898 266.28 517.989 269.019C510.59 274.236 502.854 278.958 494.832 283.155C464.466 298.897 436.812 301.877 419.042 288.362Z" fill="#C1BAEF"/>
<path d="M420.658 286.24C403.167 272.938 398.719 245.919 405.657 212.988C412.595 180.058 430.954 141.219 459.052 104.273C473.101 85.8106 488.255 69.5488 503.634 55.9814C504.596 55.1333 505.557 54.2957 506.519 53.4688V54.6631H536.215V252.66H536.838C536.357 253.067 535.875 253.474 535.396 253.875C533.473 255.488 531.545 257.057 529.612 258.58C525.752 261.63 521.898 264.504 518.049 267.2C510.768 272.337 503.155 276.986 495.259 281.116C465.375 296.611 438.151 299.542 420.658 286.24Z" fill="#C2BAEF"/>
<path d="M422.272 284.114C405.059 271.023 400.682 244.431 407.519 212.025C414.357 179.62 432.416 141.396 460.067 105.036C473.894 86.8613 488.808 70.8649 503.942 57.511C504.888 56.6744 505.835 55.8494 506.784 55.0358C507.257 54.6281 507.731 54.2242 508.206 53.8242V54.6608H536.215V249.854H538.029C537.081 250.668 536.133 251.471 535.185 252.263C533.286 253.85 531.388 255.393 529.49 256.893C525.694 259.895 521.901 262.722 518.112 265.374C510.945 270.43 503.451 275.006 495.68 279.072C466.281 294.321 439.486 297.206 422.272 284.114Z" fill="#C3BBEE"/>
<path d="M423.887 281.991C406.95 269.11 402.643 242.947 409.365 211.07C416.086 179.193 433.857 141.577 461.064 105.806C474.666 87.9197 489.335 72.1858 504.232 59.0454C506.094 57.4049 507.957 55.8038 509.823 54.2422V54.6663H536.205V248.284H537.768C536.835 249.086 535.903 249.877 534.97 250.656C533.11 252.215 531.245 253.733 529.373 255.208C525.637 258.162 521.906 260.944 518.18 263.554C511.128 268.527 503.755 273.029 496.108 277.029C467.185 292.033 440.824 294.871 423.887 281.991Z" fill="#C4BBEE"/>
<path d="M425.503 279.867C408.843 267.2 404.608 241.467 411.226 210.106C417.843 178.745 435.328 141.753 462.076 106.567C475.456 88.9692 489.892 73.4979 504.538 60.5738C506.369 58.9583 508.203 57.3832 510.04 55.8485C510.957 55.0792 511.875 54.3224 512.795 53.5781V54.6628H536.214V246.712H537.526C536.609 247.502 535.691 248.28 534.774 249.045C532.939 250.584 531.103 252.077 529.264 253.526C525.589 256.432 521.918 259.167 518.253 261.733C511.318 266.627 504.066 271.055 496.544 274.989C468.091 289.745 442.162 292.537 425.503 279.867Z" fill="#C5BCEE"/>
<path d="M427.119 277.741C410.736 265.285 406.57 239.982 413.078 209.143C419.587 178.304 436.771 141.927 463.084 107.329C476.242 90.0199 490.435 74.811 504.836 62.1034C508.436 58.9281 512.045 55.9106 515.663 53.0508V54.6605H536.214V245.14H537.276C536.372 245.909 535.47 246.674 534.57 247.433C532.764 248.943 530.957 250.412 529.149 251.839C525.538 254.695 521.929 257.387 518.323 259.916C511.502 264.727 504.371 269.081 496.975 272.95C468.995 287.455 443.499 290.201 427.119 277.741Z" fill="#C6BDED"/>
<path d="M428.734 275.62C412.628 263.374 408.54 238.498 414.933 208.184C421.326 177.87 438.214 142.124 464.088 108.083C477.023 91.0628 490.977 76.1165 505.133 63.6252C508.672 60.5 512.22 57.5334 515.778 54.7255C516.667 54.0235 517.555 53.3312 518.444 52.6484V54.6505H536.214V243.569H537.022C536.137 244.339 535.251 245.091 534.362 245.825C532.589 247.308 530.814 248.75 529.037 250.152C525.483 252.962 521.934 255.608 518.392 258.089C511.687 262.817 504.677 267.097 497.407 270.9C469.901 285.168 444.849 287.869 428.734 275.62Z" fill="#C8BDED"/>
<path d="M430.347 273.497C398.692 249.44 414.253 175.716 465.095 108.86C477.805 92.1481 491.517 77.4441 505.433 65.1692C508.909 62.092 512.395 59.1764 515.894 56.4224C516.765 55.7339 517.637 55.054 518.51 54.3828V54.6713H536.215V242H536.771C535.9 242.747 535.029 243.485 534.158 244.216C532.411 245.674 530.666 247.092 528.922 248.471C525.431 251.233 521.944 253.829 518.461 256.26C511.872 260.909 504.983 265.115 497.838 268.852C470.813 282.881 446.173 285.533 430.347 273.497Z" fill="#C9BEEC"/>
<path d="M431.962 271.364C400.866 247.709 416.15 175.3 466.101 109.615C478.586 93.1946 492.064 78.7474 505.73 66.6888C509.145 63.6751 512.57 60.8114 516.005 58.0978C517.723 56.7515 519.437 55.4351 521.149 54.1484V54.6533H536.214V240.428H536.519C535.662 241.162 534.805 241.888 533.949 242.606C532.245 244.036 530.528 245.43 528.797 246.786C525.366 249.497 521.94 252.051 518.521 254.448C512.047 259.014 505.278 263.147 498.258 266.818C471.712 280.596 447.511 283.192 431.962 271.364Z" fill="#CABEEC"/>
<path d="M433.578 269.25C403.036 246.022 418.046 174.899 467.105 110.392C479.371 94.2655 492.601 80.0779 506.027 68.2328C509.385 65.2729 512.751 62.4602 516.124 59.7947C517.809 58.4619 519.493 57.1685 521.175 55.9146C522.018 55.2876 522.859 54.6702 523.7 54.0625V54.6654H536.217V238.856H536.269C535.43 239.581 534.59 240.294 533.748 240.996C532.061 242.395 530.376 243.767 528.693 245.113C525.324 247.777 521.958 250.286 518.596 252.64C512.236 257.123 505.586 261.182 498.691 264.791C472.618 278.303 448.85 280.862 433.578 269.25Z" fill="#CBBFEB"/>
<path d="M435.193 267.129C405.205 244.321 419.944 174.491 468.112 111.158C480.153 95.3227 493.143 81.3947 506.324 69.7631C512.634 64.1734 519.252 58.9408 526.146 54.0898V54.6668H536.214V236.218H537.252L536.009 237.288C535.184 237.998 534.358 238.698 533.531 239.388C531.881 240.767 530.228 242.113 528.572 243.427C525.266 246.044 521.963 248.507 518.662 250.815C512.42 255.219 505.892 259.204 499.124 262.747C473.521 276.017 450.185 278.529 435.193 267.129Z" fill="#CCBFEB"/>
<path d="M436.808 265.001C407.383 242.62 421.842 174.083 469.118 111.92C480.946 96.3798 493.688 82.7086 506.621 71.2934C512.813 65.8062 519.307 60.6699 526.073 55.9086C526.881 55.3432 527.689 54.7864 528.497 54.2383V54.6624H536.211V233.602H538.187C525.248 245.015 512.125 254.174 499.559 260.694C474.426 273.728 451.524 276.194 436.808 265.001Z" fill="#CDC0EA"/>
<path d="M438.425 262.877C409.548 240.918 423.738 173.673 470.123 112.699C481.717 97.4497 494.229 84.0381 506.922 72.8363C512.998 67.4549 519.37 62.4169 526.008 57.7458C527.595 56.6342 529.179 55.5601 530.759 54.5234V54.6763H536.215V232.093H537.894C525.2 243.292 512.323 252.287 499.993 258.674C475.333 271.439 452.86 273.857 438.425 262.877Z" fill="#CEC1EA"/>
<path d="M440.036 260.756C411.716 239.218 425.635 173.282 471.126 113.451C482.501 98.496 494.781 85.3412 507.218 74.3557C513.178 69.0775 519.427 64.1358 525.938 59.5537C529.049 57.3747 532.147 55.3438 535.23 53.4609V54.6639H536.213V230.54H537.595C525.144 241.526 512.514 250.339 500.421 256.611C476.238 269.151 454.198 271.525 440.036 260.756Z" fill="#CFC1E9"/>
<path d="M441.652 258.63C413.889 237.513 427.54 172.856 472.134 114.213C483.283 99.5521 495.31 86.6541 507.516 75.885C513.359 70.71 519.486 65.8656 525.869 61.3743C528.921 59.2376 531.958 57.2461 534.98 55.3999C535.735 54.9383 536.488 54.4873 537.238 54.0469L536.214 54.6613V229.006H537.296C525.093 239.775 512.712 248.415 500.855 254.565C477.159 266.861 455.537 269.189 441.652 258.63Z" fill="#D0C2E9"/>
<path d="M443.268 256.508C416.058 235.815 429.421 172.45 473.137 114.979C484.065 100.609 495.853 87.9709 507.813 77.4182C513.54 72.3471 519.545 67.599 525.8 63.196C528.791 61.1016 531.767 59.1505 534.729 57.3426C535.467 56.8888 536.206 56.4464 536.944 56.0156H536.214V227.475H536.999C525.038 238.031 512.905 246.498 501.285 252.524C478.047 264.574 456.873 266.853 443.268 256.508Z" fill="#D1C2E8"/>
<path d="M444.884 254.386C418.228 234.115 431.325 172.042 474.145 115.744C484.847 101.669 496.395 89.2876 508.113 78.9513C513.722 73.9821 519.603 69.3302 525.731 65.0176C528.66 62.9578 531.576 61.0471 534.478 59.2854C535.201 58.8412 535.924 58.4075 536.647 57.9844H536.215V225.948H536.702C524.984 236.284 513.098 244.581 501.718 250.483C478.954 262.288 458.212 264.521 444.884 254.386Z" fill="#D2C3E8"/>
<path d="M446.499 252.259C420.4 232.42 433.226 171.633 475.14 116.507C485.621 102.726 496.929 90.6014 508.402 80.4785C513.897 75.6111 519.659 71.0546 525.662 66.8304C528.53 64.8187 531.385 62.9464 534.227 61.2136C534.937 60.7809 535.644 60.3568 536.35 59.9414H536.215V224.405H536.405C524.932 234.528 513.292 242.649 502.148 248.43C479.86 259.998 459.562 262.185 446.499 252.259Z" fill="#D3C3E8"/>
<path d="M448.114 250.136C422.569 230.709 435.132 171.224 476.155 117.272C486.413 103.786 497.479 91.9289 508.707 82.0108C514.082 77.2496 519.719 72.7924 525.592 68.6598C528.4 66.6943 531.193 64.8624 533.972 63.1642C535.363 62.3161 536.747 61.5035 538.124 60.7266H536.214V221.002H538.21C537.51 221.636 536.808 222.263 536.104 222.883C524.877 232.789 513.484 240.74 502.58 246.397C480.765 257.708 460.885 259.849 448.114 250.136Z" fill="#D4C4E7"/>
<path d="M449.73 248.011C424.739 229.006 437.037 170.816 477.159 118.035C487.195 104.84 498.022 93.2258 509.005 83.5414C514.263 78.8835 519.778 74.5235 525.523 70.4818C528.269 68.5586 531.002 66.7662 533.722 65.1045C535.08 64.2756 536.433 63.4803 537.781 62.7188H536.214V219.512H537.864C537.182 220.131 536.496 220.744 535.807 221.35C524.822 231.043 513.681 238.82 503.01 244.353C481.671 255.419 462.224 257.517 449.73 248.011Z" fill="#D5C5E7"/>
<path d="M451.342 245.887C426.91 227.306 438.917 170.405 478.171 118.799C487.979 105.898 498.566 94.5487 509.31 85.0721C514.452 80.5165 519.845 76.2528 525.465 72.3009C528.157 70.42 530.829 68.668 533.481 67.0448C534.81 66.2332 536.134 65.4552 537.451 64.7109H536.225V218.019H537.532C536.863 218.625 536.189 219.224 535.512 219.817C524.772 229.293 513.876 236.898 503.442 242.318C482.573 253.131 463.559 255.179 451.342 245.887Z" fill="#D6C5E6"/>
<path d="M452.958 243.766C429.081 225.606 440.81 170.001 479.179 119.566C488.765 106.959 499.11 95.8669 509.608 86.6066C514.632 82.1551 519.901 77.9877 525.391 74.1239C528.016 72.2872 530.628 70.5756 533.226 68.9889C534.524 68.1966 535.816 67.4359 537.103 66.707H536.22V216.531H537.184C536.53 217.125 535.875 217.711 535.219 218.29C524.721 227.551 514.073 234.982 503.878 240.27C483.48 250.846 464.899 252.845 452.958 243.766Z" fill="#D7C6E6"/>
<path d="M454.575 241.65C431.251 223.911 442.715 169.598 480.177 120.337C489.544 108.021 499.647 97.1889 509.891 88.1421C514.799 83.7957 519.946 79.7265 525.308 75.9537C527.869 74.1555 530.42 72.4823 532.961 70.9341C534.228 70.1648 535.491 69.4225 536.749 68.707H536.206V215.04H536.827C536.188 215.617 535.549 216.194 534.908 216.771C524.656 225.818 514.253 233.076 504.295 238.24C484.386 248.553 466.235 250.509 454.575 241.65Z" fill="#D8C6E5"/>
<path d="M456.188 239.515C433.421 222.206 444.612 169.183 481.183 121.093C490.325 109.072 500.188 98.4964 510.195 89.6659C514.987 85.4227 520.011 81.4499 525.245 77.766C527.746 76.014 530.236 74.3792 532.717 72.8618C533.95 72.1098 535.183 71.3877 536.415 70.6953H536.214V213.549H536.502C535.879 214.115 535.254 214.673 534.627 215.225C524.619 224.056 514.468 231.141 504.746 236.183C485.291 246.266 467.572 248.176 456.188 239.515Z" fill="#D9C7E5"/>
<path d="M457.804 237.391C435.591 220.501 446.507 168.773 482.187 121.857C491.107 110.13 500.731 99.8108 510.496 91.1968C515.169 87.0561 520.07 83.1805 525.177 79.5882C527.617 77.8785 530.046 76.2851 532.464 74.808C533.672 74.0695 534.875 73.3627 536.073 72.6877C536.673 72.3492 537.27 72.0184 537.864 71.6953H536.214V210.383H537.974C536.756 211.514 535.538 212.617 534.319 213.692C524.554 222.321 514.662 229.221 505.165 234.149C486.197 243.977 468.911 245.838 457.804 237.391Z" fill="#DAC7E4"/>
<path d="M459.42 235.268C437.76 218.799 448.405 168.375 483.193 122.621C491.39 111.776 500.635 101.763 510.793 92.7287C515.35 88.692 520.129 84.9127 525.107 81.4087C527.488 79.7413 529.857 78.1883 532.212 76.7497C533.389 76.0304 534.563 75.3409 535.732 74.6813C536.309 74.3524 536.891 74.0303 537.477 73.7148H536.214V208.935H537.584C536.399 210.037 535.212 211.113 534.021 212.164C524.501 220.561 514.843 227.303 505.597 232.098C487.1 241.69 470.235 243.504 459.42 235.268Z" fill="#DBC8E4"/>
<path d="M461.036 233.148C439.933 217.1 450.304 167.951 484.198 123.392C492.186 112.822 501.193 103.063 511.09 94.255C515.535 90.3249 520.194 86.6449 525.047 83.232C527.366 81.6089 529.674 80.0962 531.971 78.6942C533.125 77.9942 534.267 77.321 535.398 76.6748C535.975 76.3546 536.534 76.0402 537.103 75.7344H536.237V207.49H537.218C536.064 208.563 534.91 209.612 533.756 210.635C524.479 218.819 515.068 225.385 506.062 230.058C488.006 239.405 471.585 241.171 461.036 233.148Z" fill="#DCC9E3"/>
<path d="M462.649 231.025C442.103 215.398 452.203 167.559 485.205 124.156C492.982 113.867 501.752 104.367 511.388 95.7927C515.711 91.9633 520.246 88.3786 524.97 85.0554C527.227 83.4707 529.475 81.9965 531.711 80.633C532.827 79.9521 533.94 79.2983 535.049 78.6713C535.603 78.3597 536.154 78.0539 536.708 77.7539H536.215V206.042H536.792C535.676 207.088 534.55 208.109 533.414 209.103C524.396 217.071 515.239 223.478 506.458 228.016C488.912 237.115 472.924 238.837 462.649 231.025Z" fill="#DDC9E3"/>
<path d="M464.263 228.901C444.271 213.698 454.097 167.143 486.208 124.92C502.256 103.806 520.852 87.7754 537.924 78.9219H536.213V204.594H536.415C535.323 205.609 534.227 206.601 533.126 207.571C524.339 215.325 515.425 221.548 506.875 225.973C489.817 234.827 474.273 236.503 464.263 228.901Z" fill="#DECAE3"/>
<path d="M465.88 226.776C446.445 211.994 455.997 166.734 487.228 125.683C502.835 105.157 520.897 89.5703 537.493 80.9648H536.215V201.643H537.62C537.089 202.149 536.558 202.649 536.028 203.143C534.966 204.13 533.9 205.091 532.831 206.028C524.286 213.569 515.62 219.615 507.321 223.914C490.718 232.537 475.599 234.164 465.88 226.776Z" fill="#DFCAE2"/>
<path d="M467.494 224.649C448.613 210.291 457.893 166.324 488.219 126.447C503.384 106.507 520.938 91.367 537.062 83.0039H536.213V200.235H537.186C536.668 200.727 536.152 201.208 535.636 201.677C534.604 202.639 533.569 203.577 532.532 204.493C524.233 211.814 515.8 217.691 507.752 221.871C491.625 230.248 476.933 231.841 467.494 224.649Z" fill="#E0CBE2"/>
<path d="M469.111 222.526C450.784 208.59 459.793 165.917 489.227 127.212C503.94 107.86 520.983 93.1706 536.633 85.0469H536.215V198.83H536.752C536.253 199.306 535.751 199.779 535.249 200.244C534.247 201.177 533.242 202.087 532.234 202.976C524.18 210.084 516.007 215.787 508.183 219.843C492.533 227.958 478.273 229.496 469.111 222.526Z" fill="#E1CBE1"/>
<path d="M470.726 220.403C452.955 206.891 461.687 165.508 490.233 127.988C504.504 109.236 521.025 94.9709 536.2 87.1011C536.677 86.855 537.15 86.6155 537.619 86.3828H536.214V196.035H537.766C535.843 197.924 533.9 199.731 531.936 201.456C524.127 208.348 516.202 213.878 508.612 217.813C493.438 225.671 479.611 227.16 470.726 220.403Z" fill="#E2CCE1"/>
<path d="M472.337 218.284C455.124 205.189 463.599 165.102 491.236 128.741C505.063 110.567 521.068 96.7573 535.769 89.1327C536.229 88.8943 536.686 88.6625 537.142 88.4375H536.213V194.663H537.286C535.415 196.494 533.532 198.244 531.638 199.913C524.071 206.591 516.392 211.937 509.044 215.759C494.343 223.384 480.946 224.826 472.337 218.284Z" fill="#E3CCE0"/>
<path d="M473.955 216.158C457.298 203.488 465.485 164.693 492.245 129.507C505.624 111.909 521.113 98.5524 535.338 91.1759C536.23 90.7143 537.115 90.2768 537.992 89.8633H536.215V193.302H536.792C534.984 195.073 533.163 196.767 531.328 198.385C524.004 204.844 516.575 210.028 509.461 213.718C495.251 221.097 482.286 222.493 473.955 216.158Z" fill="#E4CDE0"/>
<path d="M475.569 214.035C459.466 201.786 467.379 164.286 493.247 130.271C506.18 113.251 521.155 100.35 534.907 93.2185C535.766 92.7704 536.621 92.3473 537.471 91.9492H536.214V191.94H536.326C534.574 193.652 532.813 195.287 531.044 196.844C523.965 203.09 516.781 208.095 509.907 211.667C496.152 218.81 483.62 220.157 475.569 214.035Z" fill="#E5CEDF"/>
<path d="M477.184 211.906C461.635 200.079 469.277 163.874 494.253 131.033C506.739 114.613 521.198 102.144 534.477 95.2612C535.304 94.8304 536.128 94.4217 536.949 94.0352H536.213V189.321H537.111C536.689 189.745 536.268 190.161 535.847 190.576C534.156 192.23 532.455 193.811 530.744 195.319C523.91 201.348 516.969 206.189 510.334 209.627C497.063 216.516 484.947 217.82 477.184 211.906Z" fill="#E6CEDF"/>
<path d="M478.801 209.786C463.799 198.385 471.176 163.47 495.244 131.801C507.285 115.969 521.228 103.945 534.031 97.3039C534.833 96.8885 535.628 96.4942 536.416 96.1211H536.2V186.774H537.787C536.979 187.605 536.167 188.419 535.352 189.217C533.723 190.81 532.088 192.334 530.448 193.79C523.856 199.606 517.177 204.27 510.77 207.591C497.964 214.246 486.298 215.49 478.801 209.786Z" fill="#E7CFDF"/>
<path d="M480.417 207.66C465.992 196.68 473.075 163.058 496.266 132.562C507.86 117.313 521.297 105.736 533.616 99.3435C535.154 98.5453 536.676 97.828 538.182 97.1914H536.215V185.499H537.233C536.454 186.301 535.673 187.086 534.888 187.853C533.319 189.391 531.74 190.859 530.151 192.255C523.804 197.857 517.365 202.352 511.201 205.546C498.871 211.935 487.634 213.15 480.417 207.66Z" fill="#E8CFDE"/>
<path d="M482.031 205.54C468.146 194.981 474.969 162.654 497.269 133.33C508.419 118.669 521.328 107.536 533.182 101.389C534.665 100.619 536.128 99.93 537.573 99.3203H536.214V184.244H536.661C535.915 185.013 535.164 185.767 534.408 186.506C532.896 187.979 531.378 189.39 529.853 190.741C523.749 196.124 517.558 200.445 511.629 203.517C499.776 209.656 488.986 210.819 482.031 205.54Z" fill="#E9D0DE"/>
<path d="M483.644 203.414C470.319 193.277 476.871 162.242 498.276 134.092C508.979 120.02 521.372 109.331 532.753 103.429C534.174 102.691 535.579 102.028 536.967 101.441H536.214V181.839H537.164C536.806 182.214 536.448 182.589 536.088 182.958C535.368 183.697 534.647 184.421 533.924 185.13C532.476 186.546 531.018 187.901 529.55 189.195C523.694 194.365 517.749 198.51 512.06 201.461C500.682 207.364 490.308 208.474 483.644 203.414Z" fill="#EAD0DD"/>
<path d="M485.26 201.294C472.489 191.581 478.766 161.838 499.28 134.862C509.539 121.373 521.416 111.131 532.32 105.474C533.686 104.767 535.032 104.132 536.359 103.57H536.212V179.522H537.574C534.939 182.375 532.162 185.093 529.254 187.666C523.64 192.619 517.945 196.594 512.49 199.422C501.585 205.079 491.647 206.149 485.26 201.294Z" fill="#EBD1DD"/>
<path d="M486.875 199.169C474.658 189.877 480.664 161.426 500.287 135.624C510.095 122.721 521.459 112.924 531.89 107.515C533.194 106.838 534.482 106.231 535.753 105.694C536.391 105.426 537.019 105.175 537.646 104.941H536.203V178.343H536.907C534.387 181.072 531.731 183.672 528.948 186.132C523.576 190.872 518.13 194.674 512.914 197.383C502.491 202.789 492.985 203.813 486.875 199.169Z" fill="#ECD1DC"/>
<path d="M488.49 197.042C476.83 188.174 482.559 161.019 501.29 136.389C510.657 124.073 521.498 114.721 531.46 109.56C532.702 108.913 533.931 108.336 535.146 107.829C535.752 107.572 536.355 107.335 536.952 107.113H536.214V177.166H536.257C533.851 179.77 531.316 182.252 528.661 184.603C523.535 189.123 518.334 192.752 513.354 195.334C503.41 200.501 494.32 201.476 488.49 197.042Z" fill="#EDD2DC"/>
<path d="M490.105 194.917C478.999 186.47 484.457 160.607 502.297 137.151C511.217 125.421 521.541 116.516 531.027 111.597C533.248 110.43 535.564 109.451 537.95 108.672H536.219V174.033H537.373C536.796 174.697 536.207 175.349 535.605 175.989C533.315 178.471 530.9 180.835 528.37 183.072C523.489 187.379 518.535 190.835 513.793 193.295C504.302 198.214 495.659 199.143 490.105 194.917Z" fill="#EED2DC"/>
<path d="M491.722 192.795C481.17 184.773 486.357 160.197 503.305 137.917C511.778 126.773 521.586 118.3 530.598 113.641C532.705 112.533 534.902 111.604 537.164 110.863H536.207V172.951H536.61C536.053 173.581 535.493 174.202 534.931 174.811C532.754 177.168 530.46 179.413 528.057 181.539C523.421 185.629 518.716 188.915 514.21 191.252C505.209 195.922 496.996 196.808 491.722 192.795Z" fill="#EFD3DB"/>
<path d="M493.337 190.674C483.341 183.072 488.254 159.806 504.299 138.683C512.328 128.128 521.608 120.111 530.156 115.686C532.154 114.634 534.238 113.754 536.384 113.055H536.205V170.047H537.452C536.413 171.288 535.355 172.484 534.278 173.636C532.217 175.869 530.044 177.996 527.767 180.009C523.374 183.886 518.917 186.996 514.647 189.211C506.111 193.637 498.333 194.473 493.337 190.674Z" fill="#F0D4DB"/>
<path d="M494.95 188.551C485.525 181.359 490.141 159.388 505.315 139.448C512.896 129.478 521.672 121.909 529.735 117.728C531.622 116.735 533.59 115.903 535.617 115.242C536.09 115.092 536.561 114.953 537.025 114.832H536.214V169.067H536.604C535.623 170.236 534.629 171.365 533.621 172.454C531.673 174.562 529.62 176.572 527.471 178.474C523.319 182.138 519.105 185.075 515.08 187.166C507.017 191.349 499.661 192.14 494.95 188.551Z" fill="#F1D4DA"/>
<path d="M496.566 186.427C487.68 179.668 492.048 158.978 506.319 140.212C513.456 130.828 521.716 123.705 529.306 119.77C531.086 118.835 532.943 118.053 534.856 117.431C535.709 117.154 536.575 116.923 537.452 116.738H536.206V166.415H537.135C536.683 166.992 536.225 167.552 535.762 168.094C534.839 169.194 533.902 170.257 532.952 171.282C531.054 173.33 529.115 175.222 527.165 176.948C523.259 180.392 519.295 183.159 515.502 185.126C507.923 189.061 501.008 189.805 496.566 186.427Z" fill="#F2D5DA"/>
<path d="M498.181 184.299C489.853 177.967 493.947 158.567 507.326 140.969C514.016 132.173 521.751 125.492 528.873 121.805C530.539 120.929 532.276 120.196 534.066 119.613C534.873 119.353 535.694 119.136 536.524 118.961H536.218V163.915H537.493C524.11 181.51 506.51 190.634 498.181 184.299Z" fill="#F3D5D9"/>
<path d="M499.796 182.178C492.007 176.267 495.841 158.162 508.329 141.741C514.575 133.531 521.802 127.297 528.442 123.855C531.76 122.124 534.933 121.112 537.76 120.887H536.214V163.152H536.482C523.997 179.573 507.571 188.092 499.796 182.178Z" fill="#F4D6D9"/>
<path d="M501.413 180.055C494.201 174.574 497.74 157.756 509.337 142.506C515.136 134.885 521.846 129.095 528.011 125.896C531.095 124.297 534.04 123.348 536.665 123.141H536.215V159.515H537.56C536.896 160.476 536.204 161.437 535.48 162.4C523.894 177.635 508.631 185.545 501.413 180.055Z" fill="#F5D6D9"/>
<path d="M503.027 177.929C496.363 172.861 499.637 157.343 510.334 143.277C515.688 136.241 521.874 130.895 527.574 127.944C530.418 126.47 533.139 125.593 535.562 125.4C536.148 125.356 536.736 125.356 537.322 125.4H536.208V156.299H538.127C537.028 158.079 535.804 159.862 534.466 161.621C523.769 175.697 509.691 182.998 503.027 177.929Z" fill="#F5D7D8"/>
<path d="M504.64 175.806C498.533 171.158 501.536 156.936 511.347 144.032C516.251 137.582 521.931 132.683 527.147 129.977C529.758 128.627 532.25 127.822 534.472 127.647C535.513 127.55 536.563 127.623 537.582 127.863H536.214V155.97H536.823C535.813 157.603 534.694 159.235 533.468 160.848C523.657 173.758 510.75 180.45 504.64 175.806Z" fill="#F6D7D8"/>
<path d="M506.256 173.686C500.702 169.463 503.432 156.53 512.351 144.8C516.811 138.938 521.975 134.484 526.718 132.024C529.089 130.795 531.354 130.065 533.376 129.903C534.323 129.818 535.278 129.885 536.203 130.102C536.631 130.207 537.048 130.354 537.447 130.541H536.215V151.228H537.946C536.407 154.356 534.565 157.327 532.447 160.096C523.542 171.823 511.809 177.898 506.256 173.686Z" fill="#F7D8D7"/>
<path d="M507.87 171.548C502.873 167.749 505.328 156.112 513.351 145.556C521.374 135.001 531.938 129.522 536.935 133.324H536.208V151.355H536.395C535.012 154.171 533.356 156.844 531.451 159.337C523.428 169.884 512.869 175.359 507.87 171.548Z" fill="#F8D8D7"/>
<path d="M509.487 169.436C505.044 166.058 507.228 155.713 514.362 146.332C521.497 136.95 530.887 132.081 535.329 135.459C537.551 137.147 538.113 140.58 537.23 144.76C536.348 148.94 534.02 153.873 530.451 158.569C523.317 167.948 513.93 172.815 509.487 169.436Z" fill="#F9D9D7"/>
<path d="M529.44 157.783C535.683 149.572 537.593 140.52 533.706 137.564C529.819 134.609 521.607 138.868 515.363 147.079C509.12 155.289 507.21 164.341 511.097 167.297C514.984 170.253 523.196 165.993 529.44 157.783Z" fill="#FAD9D6"/>
<path d="M530.302 156.752C535.695 149.679 537.353 141.876 534.005 139.323C530.656 136.77 523.57 140.433 518.177 147.506C512.784 154.579 511.127 162.382 514.475 164.935C517.823 167.488 524.909 163.825 530.302 156.752Z" fill="#FBDAD6"/>
<path d="M527.428 156.253C531.888 150.389 533.252 143.924 530.476 141.812C527.7 139.701 521.834 142.744 517.375 148.608C512.916 154.473 511.551 160.938 514.327 163.049C517.104 165.16 522.969 162.117 527.428 156.253Z" fill="#FCDAD5"/>
<path d="M526.425 155.492C529.993 150.8 531.083 145.628 528.861 143.938C526.639 142.249 521.946 144.682 518.379 149.373C514.812 154.064 513.721 159.237 515.943 160.926C518.165 162.616 522.858 160.183 526.425 155.492Z" fill="#FDDBD5"/>
<path d="M525.419 154.724C528.096 151.205 528.914 147.325 527.248 146.058C525.581 144.79 522.061 146.616 519.385 150.135C516.709 153.655 515.89 157.535 517.556 158.802C519.223 160.069 522.743 158.244 525.419 154.724Z" fill="#FDDBD5"/>
<path d="M519.176 156.692C518.065 155.85 518.599 153.262 520.396 150.923C522.193 148.583 524.527 147.36 525.638 148.205C526.749 149.051 526.215 151.635 524.418 153.975C522.62 156.315 520.287 157.538 519.176 156.692Z" fill="#FEDCD4"/>
<path d="M520.792 154.568C520.235 154.147 520.503 152.855 521.4 151.684C522.298 150.512 523.466 149.904 524.023 150.325C524.58 150.746 524.311 152.056 523.411 153.21C522.511 154.364 521.346 154.993 520.792 154.568Z" fill="#FFDCD4"/>
</g>
<path d="M544.874 75.6562H542.398V78.3391H544.874V75.6562Z" fill="#353535"/>
<path d="M391.939 78.3398H394.414V75.657H391.939V78.3398Z" fill="#353535"/>
<path d="M544.874 322.746H542.398V325.429H544.874V322.746Z" fill="#353535"/>
<path d="M391.939 325.426H394.414V322.743H391.939V325.426Z" fill="#353535"/>
<path d="M518.412 52H418.412C408.471 52 400.412 60.0589 400.412 70V332C400.412 341.941 408.471 350 418.412 350H518.412C528.353 350 536.412 341.941 536.412 332V70C536.412 60.0589 528.353 52 518.412 52Z" fill="url(#paint2_linear_179_6411)"/>
<path d="M453.315 226.192C457.024 227.471 458.954 231.5 457.626 235.19C456.299 238.879 452.217 240.833 448.508 239.553C448.023 239.388 447.54 239.212 447.063 239.032C435.347 234.587 426.568 226.044 421.774 215.667C416.981 205.29 416.168 193.067 420.38 181.264C420.552 180.785 420.731 180.304 420.92 179.827C425.715 167.662 435.032 158.384 446.215 153.218C457.4 148.052 470.503 146.974 482.873 151.21C483.359 151.375 483.842 151.551 484.318 151.731C496.035 156.176 504.814 164.719 509.607 175.096C514.401 185.473 515.214 197.696 511.002 209.499C510.831 209.979 510.65 210.459 510.462 210.937C509.032 214.59 504.899 216.43 501.228 215.049C497.559 213.668 495.742 209.587 497.172 205.934C497.312 205.577 497.446 205.219 497.574 204.864C500.478 196.727 499.909 188.285 496.593 181.107C493.277 173.928 487.217 168.023 479.141 164.959C478.788 164.825 478.428 164.695 478.066 164.571C471.762 162.413 465.15 162.237 458.954 163.709L472.196 192.377C473.834 195.924 472.249 200.145 468.656 201.805C465.063 203.464 460.822 201.935 459.183 198.388L445.941 169.719C440.804 173.483 436.651 178.631 434.207 184.83C434.067 185.188 433.932 185.545 433.805 185.9C430.901 194.037 431.47 202.479 434.786 209.657C438.102 216.836 444.16 222.742 452.238 225.805C452.591 225.94 452.95 226.068 453.313 226.193L453.315 226.192Z" fill="white"/>
<defs>
<radialGradient id="paint0_radial_179_6411" cx="0" cy="0" r="1" gradientUnits="userSpaceOnUse" gradientTransform="translate(209.25 303.631) rotate(45.0153) scale(192.769 192.769)">
<stop stop-color="#5BC7CE"/>
<stop offset="0.11" stop-color="#4198C0"/>
<stop offset="0.23" stop-color="#296BB3"/>
<stop offset="0.34" stop-color="#184AAA"/>
<stop offset="0.43" stop-color="#0D37A5"/>
<stop offset="0.49" stop-color="#0A30A3"/>
<stop offset="1" stop-color="#00152A"/>
</radialGradient>
<radialGradient id="paint1_radial_179_6411" cx="0" cy="0" r="1" gradientUnits="userSpaceOnUse" gradientTransform="translate(397.436 553.769) scale(284.796)">
<stop stop-color="#E5C33F"/>
<stop offset="0.03" stop-color="#E6BC3D"/>
<stop offset="0.25" stop-color="#F39332"/>
<stop offset="0.42" stop-color="#FC7A2B"/>
<stop offset="0.53" stop-color="#FF7129"/>
<stop offset="0.99" stop-color="#C73A16"/>
</radialGradient>
<linearGradient id="paint2_linear_179_6411" x1="400.412" y1="52" x2="559.567" y2="64.9274" gradientUnits="userSpaceOnUse">
<stop stop-color="#0A30A3"/>
<stop offset="1" stop-color="#001447"/>
</linearGradient>
</defs>
</svg>
