<svg width="1920" height="1107" viewBox="0 0 1920 1107" fill="none" xmlns="http://www.w3.org/2000/svg">
<g clip-path="url(#clip0_253_4374)">
<rect width="1920" height="1107" fill="url(#paint0_linear_253_4374)"/>
<path style="mix-blend-mode:overlay" d="M568.286 707.703C566.571 705.988 566.571 703.207 568.286 701.492L769.492 500.286C771.207 498.571 773.988 498.571 775.703 500.286C777.418 502.001 777.418 504.782 775.703 506.497L574.497 707.703C572.782 709.418 570.001 709.418 568.286 707.703Z" fill="url(#paint1_linear_253_4374)"/>
<path d="M297.57 158.546L238.692 99.6676C187.732 148.001 107.274 147.217 57.3135 97.2568C7.35308 47.2964 6.58869 -33.1617 54.9027 -84.1217L-3.97571 -143C-84.8061 -59.5432 -84.0025 73.6388 -1.54534 156.116C80.9119 238.573 214.094 239.376 297.57 158.546Z" fill="url(#paint2_radial_253_4374)" fill-opacity="0.2"/>
<g filter="url(#filter0_d_253_4374)">
<rect y="-96" width="1920" height="96" fill="#01164E"/>
</g>
<path d="M584.779 1196.67L647.248 1251.72C695.063 1200.28 775.411 1195.99 828.418 1242.71C881.426 1289.42 887.255 1369.67 842.246 1423.57L904.715 1478.63C980.13 1390.25 970.941 1257.38 883.454 1180.26C795.968 1103.16 663 1110.74 584.779 1196.67Z" fill="url(#paint3_radial_253_4374)" fill-opacity="0.2"/>
</g>
<defs>
<filter id="filter0_d_253_4374" x="-30" y="-122" width="1980" height="156" filterUnits="userSpaceOnUse" color-interpolation-filters="sRGB">
<feFlood flood-opacity="0" result="BackgroundImageFix"/>
<feColorMatrix in="SourceAlpha" type="matrix" values="0 0 0 0 0 0 0 0 0 0 0 0 0 0 0 0 0 0 127 0" result="hardAlpha"/>
<feOffset dy="4"/>
<feGaussianBlur stdDeviation="15"/>
<feComposite in2="hardAlpha" operator="out"/>
<feColorMatrix type="matrix" values="0 0 0 0 0.0588235 0 0 0 0 0.227451 0 0 0 0 0.65098 0 0 0 1 0"/>
<feBlend mode="normal" in2="BackgroundImageFix" result="effect1_dropShadow_253_4374"/>
<feBlend mode="normal" in="SourceGraphic" in2="effect1_dropShadow_253_4374" result="shape"/>
</filter>
<linearGradient id="paint0_linear_253_4374" x1="960" y1="0" x2="960" y2="1107" gradientUnits="userSpaceOnUse">
<stop offset="0.729167" stop-color="#01164E"/>
<stop offset="1" stop-color="#092E9C"/>
</linearGradient>
<linearGradient id="paint1_linear_253_4374" x1="636.727" y1="646.929" x2="771.319" y2="508.459" gradientUnits="userSpaceOnUse">
<stop offset="0.17" stop-color="#0A30A3"/>
<stop offset="1" stop-color="white"/>
</linearGradient>
<radialGradient id="paint2_radial_253_4374" cx="0" cy="0" r="1" gradientUnits="userSpaceOnUse" gradientTransform="translate(-20.8216 -131.278) rotate(-45) scale(1433.13)">
<stop stop-color="#5BC7CE"/>
<stop offset="0.11" stop-color="#4198C0"/>
<stop offset="0.23" stop-color="#296BB3"/>
<stop offset="0.34" stop-color="#184AAA"/>
<stop offset="0.43" stop-color="#0D37A5"/>
<stop offset="0.49" stop-color="#0A30A3"/>
<stop offset="1" stop-color="#00152A"/>
</radialGradient>
<radialGradient id="paint3_radial_253_4374" cx="0" cy="0" r="1" gradientUnits="userSpaceOnUse" gradientTransform="translate(920.789 1465.87) rotate(131.39) scale(1433.13)">
<stop stop-color="#5BC7CE"/>
<stop offset="0.11" stop-color="#4198C0"/>
<stop offset="0.23" stop-color="#296BB3"/>
<stop offset="0.34" stop-color="#184AAA"/>
<stop offset="0.43" stop-color="#0D37A5"/>
<stop offset="0.49" stop-color="#0A30A3"/>
<stop offset="1" stop-color="#00152A"/>
</radialGradient>
<clipPath id="clip0_253_4374">
<rect width="1920" height="1107" fill="white"/>
</clipPath>
</defs>
</svg>
