<svg width="1034" height="1034" viewBox="0 0 1034 1034" fill="none" xmlns="http://www.w3.org/2000/svg">
<path opacity="0.94" d="M517 0C231.461 0 0 231.461 0 517C0 802.539 231.461 1034 517 1034C802.539 1034 1034 802.539 1034 517C1034 231.461 802.539 0 517 0ZM517 829.194C344.585 829.194 204.806 689.415 204.806 517C204.806 344.585 344.585 204.806 517 204.806C689.415 204.806 829.194 344.585 829.194 517C829.194 689.415 689.415 829.194 517 829.194Z" fill="url(#paint0_radial_57_2525)"/>
<path d="M551.139 951.859C549.277 949.997 546.258 949.997 544.396 951.859C542.534 953.721 542.534 956.74 544.396 958.602C546.258 960.464 549.277 960.464 551.139 958.602C553.001 956.74 553.001 953.721 551.139 951.859Z" fill="white" fill-opacity="0.5"/>
<path d="M581.01 921.988C579.148 920.126 576.13 920.126 574.268 921.988C572.406 923.85 572.406 926.869 574.268 928.731C576.13 930.593 579.148 930.593 581.01 928.731C582.872 926.869 582.872 923.85 581.01 921.988Z" fill="white" fill-opacity="0.5"/>
<path d="M610.858 892.117C608.996 890.255 605.977 890.255 604.115 892.117C602.253 893.979 602.253 896.998 604.115 898.86C605.977 900.722 608.996 900.722 610.858 898.86C612.72 896.998 612.72 893.979 610.858 892.117Z" fill="white" fill-opacity="0.5"/>
<path d="M640.729 862.268C638.867 860.406 635.848 860.406 633.986 862.268C632.124 864.13 632.124 867.148 633.986 869.01C635.848 870.872 638.867 870.872 640.729 869.01C642.591 867.148 642.591 864.13 640.729 862.268Z" fill="white" fill-opacity="0.5"/>
<path d="M663.857 839.139C665.719 841.001 668.738 841.001 670.6 839.139C672.462 837.277 672.462 834.258 670.6 832.396C668.738 830.534 665.719 830.534 663.857 832.396C661.995 834.258 661.995 837.277 663.857 839.139Z" fill="white" fill-opacity="0.5"/>
<defs>
<radialGradient id="paint0_radial_57_2525" cx="0" cy="0" r="1" gradientUnits="userSpaceOnUse" gradientTransform="translate(586.924 86.2949) scale(1072.69)">
<stop stop-color="#0A30A3"/>
<stop offset="1" stop-color="#00152A"/>
</radialGradient>
</defs>
</svg>
