<svg width="1920" height="2133" viewBox="0 0 1920 2133" fill="none" xmlns="http://www.w3.org/2000/svg">
<g clip-path="url(#clip0_277_2761)">
<rect width="1920" height="2133" fill="url(#paint0_linear_277_2761)"/>
<path d="M1176.86 624.494C1178.72 626.358 1181.74 626.358 1183.6 624.494C1185.46 622.63 1185.46 619.609 1183.6 617.745C1181.74 615.882 1178.72 615.882 1176.86 617.745C1175 619.609 1175 622.63 1176.86 624.494Z" fill="white" fill-opacity="0.3"/>
<path d="M1146.99 654.393C1148.85 656.256 1151.87 656.256 1153.73 654.393C1155.59 652.529 1155.59 649.508 1153.73 647.644C1151.87 645.78 1148.85 645.78 1146.99 647.644C1145.13 649.508 1145.13 652.529 1146.99 654.393Z" fill="white" fill-opacity="0.3"/>
<path d="M1117.12 684.272C1118.98 686.135 1122 686.135 1123.86 684.272C1125.72 682.408 1125.72 679.387 1123.86 677.523C1122 675.659 1118.98 675.659 1117.12 677.523C1115.26 679.387 1115.26 682.408 1117.12 684.272Z" fill="white" fill-opacity="0.3"/>
<path d="M1087.27 714.17C1089.13 716.034 1092.15 716.034 1094.01 714.17C1095.87 712.306 1095.87 709.285 1094.01 707.421C1092.15 705.558 1089.13 705.558 1087.27 707.421C1085.41 709.285 1085.41 712.306 1087.27 714.17Z" fill="white" fill-opacity="0.3"/>
<path d="M1064.14 737.32C1062.28 735.456 1059.26 735.456 1057.4 737.32C1055.53 739.183 1055.53 742.205 1057.4 744.068C1059.26 745.932 1062.28 745.932 1064.14 744.068C1066 742.205 1066 739.183 1064.14 737.32Z" fill="white" fill-opacity="0.3"/>
<rect width="1920" height="2133" fill="url(#paint1_linear_277_2761)"/>
<path d="M318.649 1704.25C355.219 1667.64 355.219 1608.29 318.649 1571.69C282.079 1535.09 222.786 1535.09 186.216 1571.69C149.646 1608.29 149.646 1667.64 186.216 1704.25C222.786 1740.85 282.079 1740.85 318.649 1704.25Z" fill="url(#paint2_radial_277_2761)" fill-opacity="0.1"/>
<path style="mix-blend-mode:overlay" d="M1336.29 1052.69C1334.57 1050.97 1334.57 1048.19 1336.29 1046.47L1537.49 845.076C1539.21 843.36 1541.99 843.36 1543.7 845.076C1545.42 846.793 1545.42 849.577 1543.7 851.293L1342.5 1052.69C1340.78 1054.4 1338 1054.4 1336.29 1052.69Z" fill="url(#paint3_linear_277_2761)"/>
<path style="mix-blend-mode:overlay" d="M1914.27 2094.68C1917.9 2098.31 1917.9 2104.2 1914.27 2107.83L1488.85 2533.64C1485.23 2537.27 1479.35 2537.27 1475.72 2533.64C1472.09 2530.01 1472.09 2524.13 1475.72 2520.5L1901.14 2094.68C1904.76 2091.05 1910.64 2091.05 1914.27 2094.68Z" fill="url(#paint4_linear_277_2761)"/>
</g>
<defs>
<linearGradient id="paint0_linear_277_2761" x1="960" y1="0" x2="960" y2="2133" gradientUnits="userSpaceOnUse">
<stop offset="0.729167" stop-color="#01164E"/>
<stop offset="1" stop-color="#092E9C"/>
</linearGradient>
<linearGradient id="paint1_linear_277_2761" x1="-15.5" y1="46.7651" x2="2153.59" y2="384.307" gradientUnits="userSpaceOnUse">
<stop stop-color="#0A30A3"/>
<stop offset="0.563541" stop-color="#001447"/>
</linearGradient>
<radialGradient id="paint2_radial_277_2761" cx="0" cy="0" r="1" gradientUnits="userSpaceOnUse" gradientTransform="translate(37.4351 1794.15) rotate(-180) scale(644.191 644.795)">
<stop stop-color="#5BC7CE"/>
<stop offset="0.11" stop-color="#4198C0"/>
<stop offset="0.23" stop-color="#296BB3"/>
<stop offset="0.34" stop-color="#184AAA"/>
<stop offset="0.43" stop-color="#0D37A5"/>
<stop offset="0.49" stop-color="#0A30A3"/>
<stop offset="1" stop-color="#00152A"/>
</radialGradient>
<linearGradient id="paint3_linear_277_2761" x1="1404.73" y1="991.856" x2="1539.45" y2="853.383" gradientUnits="userSpaceOnUse">
<stop offset="0.17" stop-color="#0A30A3"/>
<stop offset="1" stop-color="white"/>
</linearGradient>
<linearGradient id="paint4_linear_277_2761" x1="1769.56" y1="2223.32" x2="1513.03" y2="2535.33" gradientUnits="userSpaceOnUse">
<stop offset="0.17" stop-color="#0A30A3"/>
<stop offset="1" stop-color="white"/>
</linearGradient>
<clipPath id="clip0_277_2761">
<rect width="1920" height="2133" fill="white"/>
</clipPath>
</defs>
</svg>
