<svg width="678" height="700" viewBox="0 0 678 700" fill="none" xmlns="http://www.w3.org/2000/svg">
<g clip-path="url(#clip0_269_6353)">
<rect width="678" height="700" fill="#001447"/>
<path d="M678 0H0V700H678V0Z" fill="url(#paint0_linear_269_6353)"/>
<path d="M849.333 328.117C852.155 330.939 852.155 335.526 849.333 338.368L517.368 670.333C514.545 673.155 509.959 673.155 507.117 670.333C504.294 667.51 504.294 662.924 507.117 660.082L839.082 328.117C841.904 325.294 846.491 325.294 849.333 328.117Z" fill="url(#paint1_linear_269_6353)" style="mix-blend-mode:overlay"/>
<path d="M488.052 222.969L510.76 245.789C530.509 227.15 561.616 227.53 580.884 246.893C600.153 266.257 600.372 297.365 581.644 317.022L604.352 339.842C635.682 307.652 635.498 256.159 603.696 224.193C571.895 192.234 520.404 191.797 488.052 222.969Z" fill="url(#paint2_radial_269_6353)" fill-opacity="0.2"/>
</g>
<defs>
<linearGradient id="paint0_linear_269_6353" x1="136.234" y1="-191.04" x2="722.578" y2="349.589" gradientUnits="userSpaceOnUse">
<stop stop-color="#0A30A3"/>
<stop offset="0.709375" stop-color="#001447"/>
</linearGradient>
<linearGradient id="paint1_linear_269_6353" x1="527.5" y1="672" x2="745.5" y2="459.5" gradientUnits="userSpaceOnUse">
<stop stop-color="#0A30A3" stop-opacity="0.31"/>
<stop offset="1" stop-color="white" stop-opacity="0"/>
</linearGradient>
<radialGradient id="paint2_radial_269_6353" cx="0" cy="0" r="1" gradientUnits="userSpaceOnUse" gradientTransform="translate(610.876 335.326) rotate(135.141) scale(554.088)">
<stop stop-color="#5BC7CE"/>
<stop offset="0.11" stop-color="#4198C0"/>
<stop offset="0.23" stop-color="#296BB3"/>
<stop offset="0.34" stop-color="#184AAA"/>
<stop offset="0.43" stop-color="#0D37A5"/>
<stop offset="0.49" stop-color="#0A30A3"/>
<stop offset="1" stop-color="#00152A"/>
</radialGradient>
<clipPath id="clip0_269_6353">
<rect width="678" height="700" fill="white"/>
</clipPath>
</defs>
</svg>
