<svg width="161" height="153" viewBox="0 0 161 153" fill="none" xmlns="http://www.w3.org/2000/svg">
<path d="M160.63 75.6969L0.25036 75.697C0.25036 75.9464 0.222656 76.1959 0.222656 76.4454C0.222656 76.6948 0.250444 76.9443 0.250444 77.1938L160.63 77.1938C160.63 76.9443 160.658 76.6948 160.658 76.4454C160.658 76.1959 160.63 75.9464 160.63 75.6969Z" fill="#FF9149"/>
<path d="M5.80792 105.785C6.00195 106.284 6.19597 106.783 6.40386 107.296L154.504 107.296C154.712 106.811 154.892 106.298 155.1 105.786L5.80792 105.785Z" fill="#FF9149"/>
<path d="M0.555351 83.2087C0.596929 83.7215 0.624685 84.2204 0.680122 84.7194L160.228 84.7194C160.284 84.2204 160.311 83.7215 160.353 83.2087L0.555351 83.2087Z" fill="#FF9149"/>
<path d="M1.53938 90.7344C1.62254 91.2333 1.70574 91.7322 1.80276 92.245L159.078 92.245C159.189 91.7461 159.258 91.2333 159.341 90.7344L1.51168 90.7343L1.53938 90.7344Z" fill="#FF9149"/>
<path d="M9.21732 113.297C9.46679 113.796 9.73011 114.309 9.99344 114.794L150.887 114.794C151.164 114.295 151.414 113.796 151.663 113.297L9.21732 113.297Z" fill="#FF9149"/>
<path d="M3.27177 98.26C3.41036 98.7589 3.54891 99.2578 3.70136 99.7705L157.207 99.7706C157.345 99.2717 157.484 98.7727 157.636 98.2599L3.27177 98.26Z" fill="#FF9149"/>
<path d="M134.325 17.0168C133.757 16.504 133.175 16.005 132.593 15.5061L28.3431 15.5061C27.7611 16.005 27.179 16.504 26.6108 17.0168L134.353 17.0168H134.325Z" fill="#FF9149"/>
<path d="M140.271 129.845C140.714 129.346 141.144 128.834 141.574 128.348L19.3347 128.348C19.7643 128.861 20.194 129.346 20.6375 129.845L140.271 129.845Z" fill="#FF9149"/>
<path d="M38.6406 7.9804C37.8506 8.46548 37.0606 8.97831 36.2984 9.4911L124.61 9.49119C123.848 8.97839 123.058 8.46556 122.268 7.98048L38.6406 7.9804Z" fill="#FF9149"/>
<path d="M13.6385 120.823C13.9711 121.322 14.3315 121.821 14.678 122.334L146.203 122.334C146.563 121.835 146.896 121.336 147.242 120.823L13.6385 120.823Z" fill="#FF9149"/>
<path d="M54.7452 0.46875C53.3731 0.926107 52.001 1.43892 50.6705 1.96558L110.238 1.96554C108.893 1.42502 107.535 0.926107 106.163 0.46875L54.7452 0.46875Z" fill="#FF9149"/>
<path d="M20.6235 23.0318C20.18 23.5307 19.7504 24.0434 19.3207 24.5285L141.56 24.5285C141.13 24.0157 140.687 23.5168 140.257 23.0317L20.6235 23.0318Z" fill="#FF9149"/>
<path d="M14.6779 30.5572C14.3176 31.0561 13.985 31.5552 13.6385 32.068L147.242 32.068C146.91 31.569 146.549 31.07 146.203 30.5573L14.6779 30.5572Z" fill="#FF9149"/>
<path d="M36.2846 143.386C37.0468 143.899 37.8368 144.411 38.6268 144.896L122.254 144.897C123.044 144.411 123.82 143.913 124.596 143.386L36.2846 143.386Z" fill="#FF9149"/>
<path d="M0.666164 68.1574C0.610727 68.6564 0.583013 69.1553 0.541435 69.6681L160.339 69.6681C160.298 69.1554 160.27 68.6564 160.214 68.1574L0.666164 68.1574Z" fill="#FF9149"/>
<path d="M26.5969 135.86C27.1652 136.373 27.7472 136.872 28.3293 137.371L132.579 137.371C133.161 136.872 133.743 136.373 134.311 135.86H26.5692H26.5969Z" fill="#FF9149"/>
<path d="M106.149 152.408C107.521 151.951 108.893 151.438 110.224 150.911H50.6566C52.001 151.452 53.3592 151.951 54.7313 152.408L106.149 152.408Z" fill="#FF9149"/>
<path d="M1.80268 60.6458C1.6918 61.1447 1.6225 61.6575 1.53935 62.1565L159.369 62.1565C159.286 61.6575 159.203 61.1586 159.106 60.6458L1.83038 60.6458L1.80268 60.6458Z" fill="#FF9149"/>
<path d="M3.7014 53.1202C3.54895 53.6053 3.42413 54.118 3.27168 54.6308L157.636 54.6308C157.498 54.1319 157.359 53.633 157.207 53.1202L3.7014 53.1202Z" fill="#FF9149"/>
<path d="M10.0073 38.0828C9.7301 38.5818 9.48063 39.0807 9.23116 39.5797L151.677 39.5797C151.428 39.0808 151.164 38.5679 150.901 38.0829L10.0073 38.0828Z" fill="#FF9149"/>
<path d="M6.40386 45.5945C6.19597 46.0796 6.01581 46.5924 5.80792 47.1052L155.1 47.1052C154.906 46.6063 154.712 46.1074 154.504 45.5946L6.40386 45.5945Z" fill="#FF9149"/>
</svg>
