<svg width="360" height="298" viewBox="0 0 360 298" fill="none" xmlns="http://www.w3.org/2000/svg">
<mask id="mask0_296_537" style="mask-type:alpha" maskUnits="userSpaceOnUse" x="5" y="0" width="355" height="241">
<path d="M125.595 1.5H212.616C293.174 1.5 358.479 66.8049 358.479 147.363V194.19C358.479 218.767 338.555 238.69 313.979 238.69H125.595C60.0968 238.69 7 185.593 7 120.095C7 54.5968 60.0968 1.5 125.595 1.5Z" fill="#D9D9D9" stroke="white" stroke-width="3"/>
</mask>
<g mask="url(#mask0_296_537)">
<path d="M299.271 232.7C302.178 246.077 295.564 250.545 295.849 263.896C296.116 276.749 292.613 290.154 291.28 303.176C290.72 308.585 291.147 318.276 290.285 323.722C288.898 332.604 286.072 337.197 284.712 345.973C283.174 356.108 280.507 366.226 278.241 376.237C278.241 376.237 276.285 378.831 270.241 379.319C265.797 379.674 258.855 376.796 258.855 376.796C258.17 363.357 257.966 349.722 257.966 336.468C257.966 329.904 258.97 322.762 259.744 316.038C260.256 312.005 260.511 307.943 260.508 303.877C260.197 288.688 254.242 269.936 251.984 253.183C250.759 243.826 250.422 234.374 250.98 224.954C262.73 224.27 286.436 226.766 299.271 232.7Z" fill="#2A354F"/>
<path d="M215.034 225.881C215.034 225.881 211.14 241.239 213.318 261.776C214.02 268.34 214.571 274.345 215.096 279.79C215.62 285.235 216.42 287.785 216.785 292.12C217.211 297.129 217.122 303.587 217.576 307.167C218.118 311.466 217.86 318.857 220.127 326.185C223.202 336.134 222.073 341.863 222.518 348.081C223.407 360.517 225.593 380.006 225.593 380.006C225.593 380.006 227.54 382.609 234.171 382.769C238.988 382.875 244.952 380.441 244.952 380.441C244.952 380.441 249.015 348.561 249.628 339.349C249.948 334.544 250.117 326.274 250.214 319.47C250.294 313.252 250.312 308.215 250.312 308.215C250.312 308.215 254.214 263.952 254.232 251.907C254.25 239.862 252.597 223.598 252.597 223.598L215.034 225.881Z" fill="#2A354F"/>
<path d="M248.606 226.344C248.606 226.344 247.619 236.275 247.619 239.89C247.619 243.505 248.295 247.121 249.637 248.32C250.979 249.519 254.97 250.434 254.97 250.434" stroke="#455977" stroke-miterlimit="10"/>
<path d="M252.952 226.039C252.952 226.039 252.01 257.706 254.152 266.136" stroke="#455977" stroke-miterlimit="10"/>
<path d="M213.459 228.712C213.459 228.712 229.183 231.252 241.974 232.416C251.378 233.304 260.009 231.705 271.048 228.996C281.226 226.5 292.994 227.006 292.994 227.006C292.727 222.983 292.105 213.558 292.105 210.129C292.39 173.71 298.683 135.247 293.963 122.261C292.185 117.393 270.097 110.438 253.325 110.438C236.552 110.438 214.464 117.393 212.695 122.261C207.975 135.247 214.268 173.71 214.544 210.129C214.597 213.558 213.726 224.697 213.459 228.712Z" fill="#B6AE66"/>
<path d="M271.858 113.779C270.329 108.538 257.752 109.089 253.352 109.453C248.952 109.089 236.375 108.565 234.846 113.779C233.068 119.775 238.162 126.268 253.352 126.268C268.543 126.268 273.609 119.775 271.858 113.779Z" fill="#3B8172"/>
<path d="M266.055 110.094C267.024 114.713 263.148 155.085 253.353 155.085C243.558 155.085 239.691 114.713 240.66 110.094" stroke="#FFD400" stroke-linecap="round" stroke-linejoin="round"/>
<path d="M253.317 162.076L253.966 155.219L249.842 165.514L254.89 164.199L254.242 171.057L258.366 160.753L253.317 162.076Z" fill="#FFD400"/>
<path d="M266.081 112.179L262.864 98.7656C259.768 99.6818 256.576 100.23 253.353 100.4C250.129 100.229 246.937 99.6808 243.842 98.7656L240.624 112.179C240.624 112.179 236.18 122.287 253.353 122.287C270.525 122.287 266.081 112.179 266.081 112.179Z" fill="#A96845"/>
<path d="M272.703 84.2721C272.703 96.9834 265.467 107.287 253.352 107.287C241.237 107.287 234.002 96.9834 234.002 84.2721C234.002 71.5608 239.051 61.2656 253.352 61.2656C267.654 61.2656 272.703 71.5608 272.703 84.2721Z" fill="#A96845"/>
<path d="M250.064 84.1276C248.855 83.3054 247.419 82.8829 245.957 82.9195C245.033 82.8613 244.106 82.9513 243.211 83.186C242.766 83.3074 242.336 83.4803 241.931 83.7012C241.523 83.9739 241.131 84.2705 240.758 84.5895C240.713 84.6218 240.682 84.6695 240.671 84.7233C240.659 84.7771 240.668 84.8332 240.696 84.8807C240.724 84.9282 240.768 84.9638 240.82 84.9806C240.873 84.9973 240.93 84.9941 240.98 84.9714C241.377 84.8242 241.793 84.7345 242.215 84.705C242.606 84.6428 242.997 84.5984 243.397 84.5628C244.227 84.471 245.061 84.4324 245.895 84.4474C246.587 84.4725 247.276 84.5467 247.957 84.6694C248.442 84.7224 248.913 84.8671 249.344 85.0958C249.904 85.4333 250.606 84.5895 250.064 84.1542V84.1276Z" fill="#4E3835"/>
<path d="M257.397 85.068C257.815 84.8475 258.27 84.7059 258.739 84.6505C259.434 84.52 260.139 84.4428 260.846 84.4195C261.659 84.4061 262.472 84.4417 263.281 84.5261C263.681 84.5261 264.072 84.615 264.463 84.6683C264.907 84.6965 265.344 84.7892 265.761 84.9436C265.811 84.9663 265.868 84.9695 265.92 84.9528C265.973 84.936 266.017 84.9004 266.045 84.8529C266.072 84.8053 266.081 84.7493 266.07 84.6955C266.059 84.6417 266.028 84.594 265.983 84.5617C265.626 84.2629 265.252 83.9841 264.863 83.7267C264.461 83.5045 264.034 83.3287 263.592 83.2026C262.677 82.9572 261.729 82.8612 260.783 82.9183C259.322 82.8817 257.886 83.3042 256.677 84.1264C256.144 84.5617 256.828 85.4055 257.397 85.068Z" fill="#4E3835"/>
<path d="M228.953 83.7534C227.869 87.8928 230.918 93.1692 234.971 93.9598C239.024 94.7503 238.313 88.6301 236.66 85.3967C235.007 82.1634 230.011 79.5696 228.953 83.7534Z" fill="#A96845"/>
<path d="M274.996 81.6324C270.934 82.4229 267.885 87.6904 268.978 91.8387C270.071 95.987 275.013 93.4198 276.676 90.1865C278.338 86.9532 279.058 80.8418 274.996 81.6324Z" fill="#A96845"/>
<path d="M253.422 86.2422C253.723 87.2466 253.893 88.2855 253.929 89.3334C253.946 89.8837 253.908 90.4343 253.813 90.9767C253.813 91.1188 253.742 91.2787 253.707 91.4297L253.52 91.8916L253.271 92.5223C253.132 92.8812 253.045 93.2581 253.013 93.6416L252.96 94.3344C252.938 94.4279 252.938 94.5252 252.96 94.6187C253.086 94.9619 253.297 95.2675 253.573 95.5069C253.902 95.8445 254.293 96.1732 254.711 96.5551C254.16 96.6928 253.583 96.6928 253.031 96.5551C252.378 96.413 251.799 96.0371 251.405 95.4981C251.17 95.1533 251.035 94.7508 251.013 94.3344C250.996 94.0623 250.996 93.7893 251.013 93.5172C251.037 92.8985 251.195 92.2924 251.476 91.7406C251.6 91.4935 251.743 91.256 251.902 91.03L252.045 90.8079C252.045 90.7191 252.124 90.6392 252.16 90.5415C252.329 90.1062 252.471 89.6613 252.587 89.209C252.836 88.1964 253.084 87.2459 253.422 86.2422Z" fill="#8B3B31"/>
<path d="M247.779 89.732C247.779 90.1642 247.651 90.5867 247.411 90.9461C247.171 91.3054 246.829 91.5855 246.43 91.7509C246.03 91.9163 245.59 91.9595 245.166 91.8752C244.742 91.7909 244.352 91.5828 244.047 91.2772C243.741 90.9716 243.533 90.5822 243.448 90.1584C243.364 89.7345 243.407 89.2951 243.573 88.8958C243.738 88.4965 244.018 88.1553 244.378 87.9151C244.738 87.675 245.16 87.5469 245.593 87.5469C246.173 87.5469 246.729 87.7771 247.139 88.1869C247.549 88.5967 247.779 89.1525 247.779 89.732Z" fill="#331831"/>
<path d="M258.934 89.758C258.915 90.0561 258.957 90.3549 259.058 90.636C259.159 90.9171 259.317 91.1745 259.522 91.3924C259.726 91.6102 259.973 91.7838 260.247 91.9025C260.522 92.0212 260.817 92.0824 261.116 92.0824C261.415 92.0824 261.711 92.0212 261.985 91.9025C262.259 91.7838 262.506 91.6102 262.711 91.3924C262.915 91.1745 263.073 90.9171 263.174 90.636C263.275 90.3549 263.317 90.0561 263.298 89.758C263.317 89.4599 263.275 89.1611 263.174 88.88C263.073 88.5989 262.915 88.3415 262.711 88.1237C262.506 87.9058 262.259 87.7322 261.985 87.6135C261.711 87.4948 261.415 87.4336 261.116 87.4336C260.817 87.4336 260.522 87.4948 260.247 87.6135C259.973 87.7322 259.726 87.9058 259.522 88.1237C259.317 88.3415 259.159 88.5989 259.058 88.88C258.957 89.1611 258.915 89.4599 258.934 89.758Z" fill="#331831"/>
<path d="M274.559 73.7791C274.826 71.9137 271.626 68.183 271.626 68.183C271.626 68.183 271.093 63.1198 268.959 61.5297C266.558 59.5692 263.888 57.9628 261.031 56.7597C258.026 55.6671 254.409 57.8523 252.142 56.7597C249.476 55.4273 245.743 55.1608 244.418 56.4932C243.094 57.8256 242.267 59.9219 241.218 60.4904C240.169 61.0589 237.752 61.814 236.152 62.8799C234.552 63.9459 234.205 66.584 233.752 68.7426C233.299 70.9011 231.139 70.7767 231.139 73.7702C231.139 75.0494 232.152 78.6025 232.685 80.4679C233.219 82.3333 232.792 86.5526 233.939 87.13C235.93 88.1248 237.281 81.0008 238.285 78.6025C239.289 76.2041 244.418 80.7344 247.609 78.336C250.8 75.9376 254.276 78.869 257.475 77.5365C260.675 76.2041 260.409 71.6739 262.542 71.1409C264.675 70.608 263.608 71.4074 266.008 72.7398C268.408 74.0722 266.275 78.336 267.875 80.7344C269.475 83.1327 269.404 89.1464 271.333 87.13C272.435 85.9663 272.915 82.0845 273.199 79.1355C273.439 76.897 274.284 75.6445 274.559 73.7791Z" fill="#4E3835"/>
<path d="M249.236 100.152C249.236 100.152 258.303 102.017 260.436 96.6875" stroke="#8B3B31" stroke-width="1.15" stroke-miterlimit="10"/>
<path d="M243.086 105.18C246.037 106.956 248.419 108.413 253.352 108.413C258.285 108.413 260.676 106.992 263.618 105.18" stroke="#8B3B31" stroke-width="1.15" stroke-miterlimit="10"/>
<path d="M217.727 117.047C217.727 117.047 210.314 117.616 210.03 132.148C209.746 146.68 212.883 183.988 212.065 194.79C211.248 205.591 212.954 226.981 211.781 231.254C210.608 235.526 217.203 240.367 216.634 244.64C216.065 248.913 217.772 250.627 219.479 251.196C221.185 251.764 234.305 246.923 234.589 242.073C234.873 237.223 240.855 197.925 242.287 188.518C243.718 179.112 238.296 143.216 234.873 135.222C231.451 127.227 228.314 118.131 225.185 117.563C222.715 117.208 220.223 117.035 217.727 117.047Z" fill="#483966"/>
<path d="M237.681 111.059C237.681 111.059 236.534 107.354 232.543 109.922C228.552 112.489 229.699 112.48 222.57 113.91C215.442 115.34 215.726 117.898 215.726 117.898C215.726 117.898 221.433 118.183 225.708 124.445C230.283 131.121 233.391 138.689 234.828 146.652C236.514 156.838 237.656 167.106 238.25 177.413C238.534 185.408 234.828 219.296 233.121 225.274C231.414 231.252 233.405 244.363 233.405 244.363C233.405 244.363 238.534 236.368 239.956 227.272C241.378 218.176 246.516 203.626 246.232 191.661C245.947 179.696 238.232 140.381 236.25 133.55C234.268 126.719 237.681 111.059 237.681 111.059Z" fill="#664A86"/>
<path d="M288.986 117.047C288.986 117.047 296.39 117.615 296.674 132.148C296.959 146.68 293.839 183.988 294.728 194.789C295.617 205.591 293.839 226.98 295.012 231.253C296.186 235.526 287.342 237.471 287.901 241.788C288.461 246.105 284.764 246.638 283.057 247.207C281.351 247.775 272.48 246.922 272.195 242.072C271.911 237.222 265.893 197.951 264.507 188.571C263.12 179.191 268.498 143.269 271.92 135.274C275.342 127.28 278.48 118.184 281.617 117.615C284.056 117.247 286.519 117.057 288.986 117.047Z" fill="#483966"/>
<path d="M269.032 111.059C269.032 111.059 270.17 107.354 274.161 109.922C278.152 112.489 277.014 112.48 284.134 113.91C291.253 115.34 290.978 117.898 290.978 117.898C290.978 117.898 285.28 118.183 281.005 124.445C276.431 131.122 273.32 138.69 271.876 146.652C270.194 156.838 269.052 167.106 268.454 177.413C268.17 185.408 271.876 219.296 273.592 225.274C275.307 231.252 273.307 244.363 273.307 244.363C273.307 244.363 268.17 236.368 266.748 227.272C265.325 218.176 260.188 203.626 260.472 191.661C260.757 179.696 268.472 140.381 270.454 133.55C272.436 126.719 269.032 111.059 269.032 111.059Z" fill="#664A86"/>
<path d="M214.892 119.287C211.47 120.993 200.351 132.105 198.075 156.035C195.8 179.965 191.231 192.215 195.791 199.339C200.351 206.463 210.901 208.168 214.892 206.445C218.883 204.722 228.998 185.073 230.892 181.085C232.831 176.722 234.268 172.154 235.176 167.467C235.745 163.763 238.598 161.054 238.598 158.069C238.598 155.085 230.598 146.673 230.598 146.673C230.598 146.673 227.176 144.39 225.745 147.81C224.314 151.23 225.745 136.697 223.47 130.151C221.194 123.604 218.288 117.617 214.892 119.287Z" fill="#483966"/>
<path d="M223.441 130.148C223.441 130.148 225.148 144.672 224.579 147.523" stroke="#70528D" stroke-miterlimit="10"/>
<path d="M205.193 170.602C205.193 170.602 214.891 161.772 218.028 159.489C219.593 158.352 220.908 155.785 222.019 153.334C223.13 150.882 224.01 148.519 224.686 147.808C226.117 146.387 227.352 145.534 229.672 146.671" stroke="#70528D" stroke-miterlimit="10"/>
<path d="M222.873 155.5C222.873 155.5 225.54 163.903 235.699 163.903" stroke="#70528D" stroke-miterlimit="10"/>
<path d="M203.771 165.479C203.771 165.479 209.762 160.345 214.891 161.775" stroke="#70528D" stroke-miterlimit="10"/>
<path d="M215.176 206.497C215.176 206.497 224.58 198.805 228.571 186.84C232.562 174.875 235.984 165.477 235.984 165.477" stroke="#70528D" stroke-miterlimit="10"/>
<path d="M293.99 122.27C293.99 122.27 300.123 122.882 310.38 151.085C320.638 179.288 318.078 192.959 315.518 199.372C313.9 203.414 311.073 219.927 308.674 227.007C307.278 231.155 304.843 232.168 304.683 233.225C304.173 235.95 303.211 238.57 301.838 240.979C300.894 241.917 299.654 242.499 298.33 242.629C297.005 242.758 295.676 242.427 294.567 241.69C292.105 240.216 289.535 238.931 286.879 237.844C286.879 237.844 287.848 125.068 293.99 122.27Z" fill="#483966"/>
<path d="M296.416 140.398C296.416 140.398 294.994 152.648 295.279 159.203C295.563 165.759 295.279 183.986 296.167 191.395C297.056 198.803 296.167 214.49 296.167 221.871C296.167 229.253 291.892 230.426 291.608 233.552C291.323 236.679 290.719 239.824 290.719 239.824" stroke="#70528D" stroke-miterlimit="10"/>
<path d="M291.857 136.41C293.879 143.753 295.028 151.308 295.28 158.919" stroke="#70528D" stroke-miterlimit="10"/>
<path d="M300.693 170.316C300.693 170.316 295.564 179.999 295.564 186.305" stroke="#70528D" stroke-miterlimit="10"/>
<path d="M296.133 227.578C296.133 227.578 301.83 228.147 303.546 232.135" stroke="#70528D" stroke-miterlimit="10"/>
<path d="M262.053 120.109H245.307C244.591 120.109 244.01 120.69 244.01 121.406V150.693C244.01 151.409 244.591 151.99 245.307 151.99H262.053C262.77 151.99 263.351 151.409 263.351 150.693V121.406C263.351 120.69 262.77 120.109 262.053 120.109Z" fill="#292929"/>
<path d="M229.611 147.71C229.611 147.71 232.011 141.386 232.696 139.165C233.38 136.944 238.331 132.858 240.118 131.295C242.752 129.056 246.015 127.687 249.459 127.377C253.619 126.942 255.104 128.266 254.793 129.598C254.481 130.931 251.522 131.019 249.459 131.703C247.397 132.387 245.095 135.008 245.095 135.008C247.206 134.162 249.371 133.456 251.575 132.894C253.689 132.445 255.893 132.76 257.797 133.782C258.061 133.895 258.29 134.077 258.458 134.31C258.627 134.542 258.73 134.816 258.755 135.102C258.781 135.388 258.728 135.676 258.603 135.934C258.478 136.193 258.286 136.413 258.046 136.571C258.046 136.571 259.415 138.108 258.935 139.307C258.455 140.506 257.566 140.666 256.197 141.35C256.197 141.35 257.904 142.238 257.397 143.748C256.89 145.258 254.144 144.948 252.953 145.285C251.762 145.623 249.024 145.8 248.171 147.675C246.856 150.284 244.812 152.456 242.286 153.928C240.261 155.065 238.068 155.875 235.789 156.326C235.256 156.291 229.958 151.157 229.611 147.71Z" fill="#A96845"/>
<path d="M244.135 139.131C244.135 139.131 252.339 136.227 254.063 136.227C255.387 136.265 256.706 136.401 258.01 136.635" stroke="#8B3B31" stroke-width="1.15" stroke-miterlimit="10"/>
<path d="M245.727 143.626C245.727 143.626 250.624 140.961 252.34 140.961C253.663 140.997 254.982 141.131 256.286 141.361" stroke="#8B3B31" stroke-width="1.15" stroke-miterlimit="10"/>
<path d="M242.953 135.826L245.069 135.035" stroke="#8B3B31" stroke-width="1.15" stroke-miterlimit="10"/>
<path d="M291.858 234.699C291.858 234.699 301.547 235.836 301.262 240.393C300.978 244.95 299.271 247.499 297.271 247.801C295.271 248.103 289.858 245.803 287.867 244.097C285.876 242.392 290.427 235.836 291.858 234.699Z" fill="#A96845"/>
<path d="M145.321 305.052C145.321 305.052 141.374 285.287 139.241 275.241C134.406 252.421 131.126 224.2 135.019 221.056C144.547 213.248 167.826 215.957 171.257 220.932C174.333 225.373 177.746 282.96 174.68 304.43C175.497 322.142 165.791 372.952 165.791 372.952C162.42 374.88 158.59 375.862 154.707 375.794C150.861 375.677 147.048 375.038 143.374 373.893C143.374 373.893 140.636 326.006 141.472 320.144C142.307 314.281 145.321 305.052 145.321 305.052Z" fill="#4F4656"/>
<path d="M158.53 266.742C164.307 265.409 170.012 263.781 175.623 261.865C174.938 242.323 173.045 223.465 171.267 220.889C167.836 215.914 144.557 213.205 135.029 221.013C131.135 224.202 134.415 252.422 139.251 275.198C140.14 279.542 142.033 289.188 143.171 293.852C146.806 276.575 151.312 268.243 158.53 266.742Z" fill="#433A4C"/>
<path d="M129.65 312.042C130.681 311.101 134.894 293.699 139.258 278.208C141.374 270.711 145.365 255.059 145.365 255.059C145.365 255.059 148.858 249.179 150.982 244.826C154.538 237.525 156.662 226.732 156.662 226.732L106.442 216.961C106.442 216.961 100.486 227.905 100.326 240.563C100.069 263.187 102.424 307.601 102.424 307.601C102.424 307.601 127.072 314.414 129.65 312.042Z" fill="#4F4656"/>
<path d="M167.39 154.344C167.39 154.344 163.346 194.405 169.808 194.405C176.27 194.405 179.283 189.342 181.043 181.863C182.803 174.383 182.51 163.697 182.51 163.697L167.39 154.344Z" fill="#FFA98B"/>
<path d="M138.165 113.265C145.765 114.225 162.617 116.472 171.106 123.783C174.119 126.385 177.079 128.375 178.617 133.003C180.154 137.631 183.061 143.565 182.172 149.072C181.737 151.737 175.061 150.635 175.061 150.635C175.061 150.635 172.19 174.939 171.63 181.423C171.097 187.712 173.79 198.736 174.35 207.183C174.661 211.891 175.817 214.227 175.239 218.038C174.661 221.849 179.061 224.789 175.826 228.902C173.55 231.789 155.569 237.411 143.827 236.239C134.192 235.271 126.645 234.88 120.041 232.126C109.028 227.534 103.011 230.074 100.664 228.902C98.3177 227.729 100.949 196.924 100.949 189.871C100.949 182.818 99.6243 156.791 98.6021 149.374C97.5799 141.957 98.9932 127.282 105.402 121.757C111.81 116.232 127.863 111.969 138.165 113.265Z" fill="#BD8D88"/>
<path d="M159.383 109.292L158.049 120.84C158.049 120.84 155.792 126.516 146.237 124.508C139.775 123.158 135.312 113.112 135.312 113.112L140.992 100.676L159.383 109.292Z" fill="#FFA98B"/>
<path d="M172.066 74.215C174.395 73.7886 176.573 78.3543 174.857 86.0024C173.231 93.2064 165.258 95.0629 165.258 95.0629C165.258 95.0629 169.764 74.6502 172.066 74.215Z" fill="#C74601"/>
<path d="M135.73 73.5312C135.73 73.5312 132.175 77.7151 132.344 82.0143C132.477 86.4557 133.961 85.5674 135.01 88.7741C136.059 91.9808 135.97 96.4133 136.788 98.3498C138.086 101.592 140.006 102.614 142.423 102.791C146.281 103.12 141.366 76.2316 141.366 76.2316L135.73 73.5312Z" fill="#C74601"/>
<path d="M171.808 83.0363C173.115 94.0244 169.515 109.312 159.658 112.27C149.8 115.228 139.258 109.081 137.881 91.1552C136.503 73.2297 147.863 68.4508 152.458 68.5929C156.067 68.7173 170.493 72.0394 171.808 83.0363Z" fill="#FFA98B"/>
<path d="M141.028 87.4839C140.948 84.0729 135.171 81.266 133.473 84.9346C131.775 88.6032 134.077 93.9684 138.077 95.2475C142.077 96.5266 141.099 90.8594 141.028 87.4839Z" fill="#FFA98B"/>
<path d="M153.703 92.2905C153.738 92.6752 153.886 93.0409 154.129 93.3415C154.372 93.6421 154.698 93.8641 155.067 93.9794C155.436 94.0948 155.83 94.0983 156.201 93.9896C156.572 93.8808 156.902 93.6647 157.15 93.3685C157.398 93.0723 157.553 92.7093 157.595 92.3253C157.637 91.9414 157.563 91.5536 157.385 91.2111C157.206 90.8686 156.93 90.5867 156.591 90.401C156.252 90.2152 155.866 90.134 155.481 90.1675C155.225 90.1899 154.975 90.2626 154.747 90.3814C154.519 90.5003 154.316 90.663 154.151 90.8602C153.986 91.0575 153.861 91.2853 153.785 91.5308C153.708 91.7762 153.68 92.0344 153.703 92.2905Z" fill="#520E03"/>
<path d="M166.511 96.0222C166.555 96.2577 166.649 96.4812 166.786 96.6775C166.923 96.8738 167.101 97.0385 167.307 97.1605C167.513 97.2826 167.743 97.359 167.982 97.3848C168.22 97.4107 168.461 97.3852 168.689 97.3102C169.168 97.135 169.568 96.7916 169.813 96.3438C170.059 95.8961 170.133 95.3746 170.022 94.8763C169.978 94.6408 169.885 94.4174 169.747 94.221C169.61 94.0247 169.432 93.86 169.226 93.738C169.02 93.616 168.79 93.5395 168.551 93.5137C168.313 93.4879 168.072 93.5133 167.844 93.5883C167.365 93.7635 166.965 94.107 166.72 94.5547C166.474 95.0024 166.4 95.5239 166.511 96.0222Z" fill="#520E03"/>
<path d="M172.466 91.5432C172.104 90.9744 171.598 90.5115 170.999 90.2019C170.414 89.8661 169.765 89.6577 169.094 89.5903C168.423 89.523 167.746 89.5982 167.106 89.8111C166.96 89.8547 166.833 89.9438 166.741 90.0653C166.65 90.1868 166.6 90.3343 166.599 90.4861C166.593 90.5792 166.608 90.6726 166.643 90.7589C166.678 90.8452 166.733 90.9221 166.804 90.9836C166.889 91.0719 166.998 91.1351 167.117 91.1664C167.236 91.1978 167.361 91.196 167.479 91.1612C167.648 91.1045 167.82 91.0571 167.995 91.0191L168.208 90.9747H168.341H168.741H168.964C168.964 90.9747 169.221 90.9747 169.061 90.9747C169.314 91.0159 169.564 91.0753 169.808 91.1524L169.995 91.2234C169.995 91.2234 170.208 91.3123 170.057 91.2234L170.368 91.3744C170.556 91.4722 170.737 91.5819 170.91 91.7031L171.106 91.8452L171.292 91.9785L171.568 92.1561C171.772 92.3071 171.63 92.1561 171.568 92.1561C171.657 92.2592 171.782 92.3244 171.917 92.3382C172.053 92.3521 172.189 92.3136 172.297 92.2306C172.405 92.1477 172.477 92.0266 172.498 91.8921C172.52 91.7577 172.489 91.6201 172.412 91.5077L172.466 91.5432Z" fill="#C74601"/>
<path d="M160.237 88.6328C159.466 87.6859 158.375 87.0539 157.17 86.8562C155.829 86.4619 154.415 86.3799 153.037 86.6164C152.89 86.6585 152.76 86.7469 152.667 86.8685C152.574 86.9901 152.523 87.1385 152.521 87.2915C152.521 87.1405 152.521 87.4247 152.521 87.4691C152.549 87.531 152.582 87.5904 152.619 87.6468C152.699 87.7785 152.819 87.8808 152.961 87.9385C153.104 87.9961 153.262 88.006 153.41 87.9666C154.529 87.8062 155.669 87.8727 156.761 88.162C157.292 88.281 157.81 88.4505 158.308 88.6683C158.524 88.7761 158.735 88.8947 158.939 89.0236C159.103 89.1049 159.258 89.2032 159.401 89.3168C159.493 89.4081 159.615 89.4628 159.745 89.4707C159.874 89.4786 160.002 89.4392 160.104 89.3597C160.207 89.2802 160.277 89.1662 160.301 89.039C160.325 88.9117 160.303 88.78 160.237 88.6683V88.6328Z" fill="#C74601"/>
<path d="M157.845 112.552C157.845 112.552 152.743 113.005 149.685 111.53C147.181 110.26 144.873 108.635 142.832 106.707" stroke="#C6715C" stroke-miterlimit="10"/>
<path d="M163.453 104.867C161.44 104.492 159.503 103.787 157.72 102.78C155.444 101.305 153.773 99.0314 152.493 100.115C151.214 101.199 151.382 104.876 155.56 106.795C159.178 108.447 162.929 106.182 163.453 104.867Z" fill="white"/>
<path d="M170.698 67.8177C167.205 64.2152 162.74 61.706 157.845 60.596C154.636 60.0097 149.845 63.5984 149.845 63.5984C148.194 63.0991 146.442 63.0364 144.759 63.4163C143.077 63.7962 141.522 64.6057 140.246 65.7658C135.579 69.7808 133.57 78.5392 133.57 78.5392C135.233 79.8461 136.65 81.4371 137.757 83.2382C139.623 86.2495 139.232 90.8064 140.761 92.7162C142.29 94.626 143.179 87.653 143.179 87.653C143.179 87.653 150.183 80.2003 152.512 75.377C155.818 76.2911 159.062 77.4126 162.227 78.7347C165.685 80.3513 170.538 78.7347 173.071 78.4504C175.604 78.1662 172.067 69.1679 170.698 67.8177Z" fill="#C74601"/>
<path d="M166.031 91.1445C166.449 92.5302 166.698 93.916 166.973 95.2484C167.045 95.5771 167.125 95.8968 167.196 96.1988C167.267 96.5009 167.382 96.7673 167.507 97.0871C167.767 97.7706 167.981 98.471 168.147 99.1835C168.355 100.028 168.324 100.914 168.058 101.742C167.882 102.225 167.574 102.65 167.169 102.968C166.812 103.223 166.416 103.418 165.996 103.545C165.231 103.755 164.428 103.785 163.649 103.634C162.913 103.517 162.208 103.251 161.578 102.852C162.895 102.816 164.194 102.535 165.409 102.026C165.638 101.902 165.853 101.753 166.049 101.582C166.185 101.457 166.283 101.297 166.333 101.12C166.453 100.603 166.453 100.065 166.333 99.5477C166.218 98.9347 166.031 98.3041 165.845 97.629C165.732 97.2631 165.649 96.8888 165.596 96.5097C165.545 96.139 165.524 95.7647 165.534 95.3905C165.513 93.9595 165.681 92.5321 166.031 91.1445Z" fill="#D57961"/>
<path d="M159.81 60.5194C146.957 58.281 136.22 62.7312 133.695 76.3663C140.994 78.9527 148.434 81.1235 155.979 82.8685C167.161 85.338 174.974 86.6882 176.36 84.272C176.36 84.2809 176.511 63.433 159.81 60.5194ZM165.57 81.1542C162.521 80.7367 158.21 79.7063 158.21 79.7063C158.21 79.7063 158.583 71.8361 165.152 72.8754C171.72 73.9147 171.56 77.9741 171.552 81.3052C169.558 81.4544 167.554 81.4039 165.57 81.1542Z" fill="#065C97"/>
<path d="M138.289 77.9719C138.289 77.9719 128.165 79.3132 126.734 75.1916C125.054 70.3327 132.956 69.933 135.685 69.8086C135.694 69.8086 133.845 75.7601 138.289 77.9719Z" fill="#06455E"/>
<path d="M174.734 144.929C174.734 144.929 170.192 142.557 168.032 144.929C165.872 147.301 162.841 150.987 165.65 152.497C168.458 154.007 173.623 146.226 174.734 144.929Z" fill="#FFA98B"/>
<path d="M190.074 146.647C190.074 146.647 193.158 149.507 190.963 151.621C190.531 151.973 190.024 152.222 189.482 152.348C188.939 152.475 188.374 152.475 187.831 152.35C187.288 152.225 186.781 151.977 186.349 151.626C185.916 151.275 185.57 150.83 185.336 150.324C184.661 148.379 187.692 145.137 190.074 146.647Z" fill="#FFA98B"/>
<path d="M194.581 139.531L178.866 139.718C178.498 139.749 178.146 139.88 177.848 140.098C177.55 140.316 177.318 140.612 177.177 140.953L161.4 159.464C161.142 160.139 161.471 160.681 162.147 160.672L177.862 160.477C178.228 160.446 178.579 160.315 178.877 160.099C179.175 159.883 179.408 159.59 179.551 159.251L195.328 140.731C195.585 140.055 195.257 139.522 194.581 139.531Z" fill="#292929"/>
<path d="M184.252 153.29C182.527 153.824 180.724 154.061 178.919 153.992C177.052 153.752 173.106 152.597 172.181 154.223C171.257 155.848 173.808 157.936 173.808 157.936C173.808 157.936 168.928 157.243 168.475 159.33C168.4 159.591 168.384 159.865 168.429 160.133C168.474 160.401 168.579 160.655 168.734 160.877C168.89 161.1 169.094 161.284 169.331 161.418C169.567 161.551 169.83 161.63 170.101 161.649C170.101 161.649 168.244 163.043 169.213 164.9C170.181 166.756 176.874 166.756 179.203 166.294C181.532 165.832 183.381 165.131 183.648 164.438C183.733 163.733 183.654 163.019 183.416 162.35C183.845 162.397 184.276 162.279 184.621 162.02C184.967 161.761 185.2 161.381 185.274 160.956C185.558 160.048 185.558 159.075 185.274 158.167C185.727 157.899 186.11 157.529 186.393 157.086C186.675 156.643 186.849 156.14 186.901 155.617C186.984 154.122 186.828 152.622 186.439 151.176C186.439 151.176 185.176 153.041 184.252 153.29Z" fill="#FFA98B"/>
<path d="M173.844 157.934C173.844 157.934 180.395 159.71 184.714 158.049" stroke="#C6715C" stroke-miterlimit="10"/>
<path d="M170.289 162.109C172.766 162.563 175.268 162.859 177.782 162.998C179.64 163.112 181.504 162.892 183.284 162.349" stroke="#C6715C" stroke-miterlimit="10"/>
<path d="M173.328 166.898C173.328 166.898 180.821 167.334 181.923 165.797" stroke="#C6715C" stroke-miterlimit="10"/>
<path d="M177.248 158.877C176.279 158.139 174.857 158.246 172.804 158.255C171.011 158.236 169.225 158.04 167.471 157.669C167.471 157.669 174.208 156.114 175.524 156.114C176.839 156.114 179.488 153.689 177.506 151.93C175.524 150.172 167.817 151.93 167.817 151.93C167.817 151.93 167.817 150.305 164.075 149.95C160.333 149.594 156.787 149.754 154.387 151.389C151.987 153.023 148.449 157.438 144.921 158.788C143.614 159.294 141.365 161.168 138.53 161.613C135.694 162.057 128.619 163.816 128.619 163.816C128.619 163.816 126.841 158.095 125.952 154.791C125.152 152.097 124.196 149.451 123.09 146.867L112.006 150.021C108.079 151.21 104.399 153.1 101.145 155.599C101.145 155.599 103.198 174.963 107.891 183.18C112.584 191.397 120.086 191.397 125.952 189.789C131.819 188.181 145.827 176.74 150.183 172.84C154.08 173.053 157.985 172.615 161.738 171.544C163.142 171.117 164.351 171.215 165.293 170.309C165.946 169.591 166.541 168.822 167.071 168.008C168.102 167.706 169.027 167.118 169.737 166.312C170.342 165.457 170.801 164.508 171.097 163.505C171.097 163.505 174.066 162.883 174.902 162.545C178.226 161.222 178.226 159.623 177.248 158.877Z" fill="#FFA98B"/>
<path d="M157.898 154.621C161.279 153.149 164.853 152.168 168.511 151.707" stroke="#C6715C" stroke-miterlimit="10"/>
<path d="M161.213 162.892C164.567 163.198 167.934 163.32 171.301 163.257C171.301 163.257 177.292 162.67 177.292 160.29C177.292 157.909 174.919 157.687 173.621 157.9C171.885 157.999 170.145 157.972 168.413 157.82C165.222 158.487 161.302 158.948 161.302 158.948" stroke="#C6715C" stroke-miterlimit="10"/>
<path d="M159.863 167.442C162.119 167.81 164.407 167.938 166.69 167.824C167.845 167.654 168.917 167.119 169.746 166.298C170.576 165.476 171.122 164.411 171.303 163.258" stroke="#C6715C" stroke-miterlimit="10"/>
<path d="M173.115 156.77C173.115 156.77 177.737 156.113 178.182 153.91" stroke="#C6715C" stroke-miterlimit="10"/>
<path d="M120.033 167.333C122.749 165.926 125.545 164.677 128.406 163.594" stroke="#C6715C" stroke-miterlimit="10"/>
<path d="M130.824 226.547C130.824 226.547 144.335 228.324 156.672 226.84C169.009 225.357 173.409 221.262 173.409 221.262" stroke="#976457" stroke-miterlimit="10"/>
<path d="M103.225 222.141C103.225 222.141 114.38 222.141 122.015 225.072" stroke="#976457" stroke-miterlimit="10"/>
<path d="M147.863 223.313C147.863 223.313 170.467 223.606 173.116 206" stroke="#976457" stroke-miterlimit="10"/>
<path d="M121.402 209.516C121.402 209.516 141.082 215.973 155.765 213.957" stroke="#976457" stroke-miterlimit="10"/>
<path d="M131.703 114.141C131.703 114.141 135.339 124.862 144.04 128.229C153.142 131.782 158.138 127.056 159.311 124.116C160.484 121.176 159.311 117.667 159.311 117.667" stroke="#976457" stroke-miterlimit="10"/>
</g>
<path d="M230.985 259.42L195.024 220.623C161.51 250.076 110.453 247.64 79.9291 214.735C49.4053 181.829 50.871 130.71 82.779 99.5248L46.8175 60.727C-6.51842 111.774 -9.20316 196.34 41.1572 250.672C91.5176 305.004 176.044 308.735 230.985 259.42Z" fill="#FF9149"/>
</svg>
