<svg width="480" height="380" viewBox="0 0 480 380" fill="none" xmlns="http://www.w3.org/2000/svg">
<mask id="mask0_290_536" style="mask-type:alpha" maskUnits="userSpaceOnUse" x="0" y="0" width="480" height="325">
<path d="M162.5 1.5H315.644C405.39 1.5 478.144 74.2537 478.144 164V279C478.144 303.577 458.22 323.5 433.644 323.5H162.5C73.5823 323.5 1.5 251.418 1.5 162.5C1.5 73.5822 73.5822 1.5 162.5 1.5Z" fill="#D9D9D9" stroke="white" stroke-width="3"/>
</mask>
<g mask="url(#mask0_290_536)">
<path d="M397.499 314.864C401.431 332.965 392.483 339.011 392.868 357.076C393.229 374.468 388.49 392.605 386.686 410.225C385.929 417.545 386.506 430.658 385.339 438.026C383.463 450.045 379.638 456.259 377.798 468.134C375.718 481.848 372.11 495.538 369.043 509.084C369.043 509.084 366.397 512.593 358.218 513.254C352.205 513.735 342.812 509.841 342.812 509.841C341.886 491.656 341.609 473.206 341.609 455.273C341.609 446.391 342.968 436.728 344.014 427.629C344.707 422.172 345.053 416.676 345.049 411.175C344.628 390.622 336.57 365.249 333.515 342.58C331.857 329.919 331.402 317.13 332.156 304.383C348.055 303.458 380.132 306.835 397.499 314.864Z" fill="#2A354F"/>
<path d="M283.52 305.636C283.52 305.636 278.252 326.417 281.198 354.206C282.148 363.088 282.894 371.213 283.604 378.581C284.313 385.949 285.396 389.398 285.889 395.264C286.466 402.042 286.346 410.781 286.959 415.624C287.693 421.442 287.344 431.442 290.411 441.358C294.572 454.819 293.045 462.572 293.646 470.985C294.849 487.812 297.808 514.182 297.808 514.182C297.808 514.182 300.442 517.704 309.414 517.92C315.932 518.065 324.003 514.771 324.003 514.771C324.003 514.771 329.499 471.634 330.329 459.17C330.762 452.668 330.99 441.478 331.123 432.271C331.231 423.857 331.255 417.043 331.255 417.043C331.255 417.043 336.535 357.15 336.559 340.852C336.583 324.554 334.346 302.547 334.346 302.547L283.52 305.636Z" fill="#2A354F"/>
<path d="M328.944 306.262C328.944 306.262 327.609 319.699 327.609 324.591C327.609 329.483 328.523 334.375 330.34 335.997C332.156 337.62 337.556 338.858 337.556 338.858" stroke="#455977" stroke-miterlimit="10"/>
<path d="M334.826 305.852C334.826 305.852 333.551 348.7 336.45 360.107" stroke="#455977" stroke-miterlimit="10"/>
<path d="M281.39 309.47C281.39 309.47 302.666 312.908 319.973 314.482C332.698 315.684 344.376 313.521 359.313 309.855C373.084 306.478 389.008 307.163 389.008 307.163C388.647 301.718 387.805 288.965 387.805 284.326C388.19 235.047 396.705 183.003 390.319 165.431C387.914 158.845 358.027 149.434 335.331 149.434C312.636 149.434 282.749 158.845 280.356 165.431C273.97 183.003 282.485 235.047 282.857 284.326C282.93 288.965 281.751 304.038 281.39 309.47Z" fill="#B6AE66"/>
<path d="M360.407 153.954C358.339 146.862 341.321 147.608 335.367 148.1C329.414 147.608 312.396 146.899 310.327 153.954C307.921 162.067 314.813 170.853 335.367 170.853C355.921 170.853 362.777 162.067 360.407 153.954Z" fill="#3B8172"/>
<path d="M352.555 148.965C353.866 155.215 348.622 209.843 335.368 209.843C322.114 209.843 316.883 155.215 318.194 148.965" stroke="#FFD400" stroke-linecap="round" stroke-linejoin="round"/>
<path d="M335.32 219.302L336.198 210.023L330.617 223.954L337.449 222.175L336.571 231.454L342.151 217.511L335.32 219.302Z" fill="#FFD400"/>
<path d="M352.59 151.79L348.236 133.641C344.049 134.88 339.729 135.623 335.368 135.852C331.006 135.621 326.687 134.879 322.499 133.641L318.145 151.79C318.145 151.79 312.131 165.468 335.368 165.468C358.604 165.468 352.59 151.79 352.59 151.79Z" fill="#A96845"/>
<path d="M361.551 114.024C361.551 131.224 351.761 145.166 335.368 145.166C318.976 145.166 309.186 131.224 309.186 114.024C309.186 96.8249 316.017 82.8945 335.368 82.8945C354.72 82.8945 361.551 96.8249 361.551 114.024Z" fill="#A96845"/>
<path d="M330.917 113.83C329.282 112.717 327.339 112.146 325.361 112.195C324.111 112.116 322.856 112.238 321.644 112.556C321.042 112.72 320.461 112.954 319.913 113.253C319.36 113.622 318.83 114.023 318.325 114.455C318.265 114.498 318.223 114.563 318.208 114.636C318.192 114.709 318.204 114.784 318.242 114.849C318.279 114.913 318.339 114.961 318.41 114.984C318.481 115.007 318.558 115.002 318.626 114.972C319.163 114.772 319.726 114.651 320.297 114.611C320.827 114.527 321.356 114.467 321.897 114.419C323.019 114.294 324.148 114.242 325.277 114.262C326.213 114.296 327.145 114.397 328.067 114.563C328.723 114.635 329.36 114.83 329.943 115.14C330.701 115.597 331.651 114.455 330.917 113.866V113.83Z" fill="#4E3835"/>
<path d="M340.84 115.106C341.406 114.808 342.021 114.616 342.656 114.541C343.597 114.365 344.55 114.26 345.507 114.229C346.607 114.21 347.708 114.259 348.802 114.373C349.343 114.373 349.873 114.493 350.402 114.565C351.002 114.603 351.594 114.729 352.158 114.938C352.225 114.968 352.302 114.973 352.373 114.95C352.444 114.927 352.504 114.879 352.541 114.815C352.579 114.751 352.591 114.675 352.576 114.602C352.56 114.529 352.519 114.465 352.458 114.421C351.974 114.017 351.469 113.64 350.943 113.291C350.398 112.991 349.821 112.753 349.223 112.582C347.985 112.25 346.702 112.12 345.422 112.197C343.445 112.148 341.501 112.72 339.866 113.832C339.144 114.421 340.07 115.563 340.84 115.106Z" fill="#4E3835"/>
<path d="M302.354 113.329C300.886 118.93 305.012 126.069 310.496 127.139C315.98 128.209 315.018 119.927 312.781 115.552C310.544 111.177 303.785 107.668 302.354 113.329Z" fill="#A96845"/>
<path d="M364.653 110.454C359.156 111.524 355.031 118.651 356.51 124.264C357.99 129.877 364.677 126.404 366.926 122.028C369.175 117.653 370.149 109.384 364.653 110.454Z" fill="#A96845"/>
<path d="M335.463 116.691C335.87 118.05 336.101 119.456 336.149 120.874C336.172 121.619 336.12 122.364 335.992 123.098C335.992 123.29 335.896 123.506 335.848 123.711L335.595 124.336L335.259 125.189C335.07 125.675 334.953 126.185 334.91 126.703L334.838 127.641C334.808 127.767 334.808 127.899 334.838 128.026C335.008 128.49 335.294 128.904 335.668 129.228C336.113 129.684 336.642 130.129 337.207 130.646C336.461 130.832 335.68 130.832 334.934 130.646C334.05 130.454 333.267 129.945 332.733 129.215C332.415 128.749 332.232 128.204 332.204 127.641C332.179 127.273 332.179 126.903 332.204 126.535C332.235 125.698 332.449 124.878 332.829 124.131C332.997 123.797 333.19 123.476 333.406 123.17L333.599 122.869C333.599 122.749 333.707 122.641 333.755 122.509C333.983 121.92 334.176 121.318 334.333 120.706C334.669 119.336 335.006 118.05 335.463 116.691Z" fill="#8B3B31"/>
<path d="M327.827 121.414C327.827 121.999 327.654 122.57 327.329 123.056C327.004 123.543 326.542 123.922 326.001 124.145C325.46 124.369 324.866 124.428 324.292 124.314C323.718 124.2 323.191 123.918 322.777 123.505C322.363 123.091 322.081 122.564 321.967 121.991C321.853 121.417 321.911 120.823 322.135 120.282C322.359 119.742 322.739 119.28 323.225 118.955C323.712 118.63 324.284 118.457 324.869 118.457C325.653 118.457 326.406 118.769 326.961 119.323C327.516 119.878 327.827 120.63 327.827 121.414Z" fill="#331831"/>
<path d="M342.92 121.45C342.894 121.853 342.952 122.258 343.088 122.638C343.225 123.018 343.438 123.367 343.715 123.661C343.992 123.956 344.326 124.191 344.697 124.352C345.068 124.512 345.468 124.595 345.873 124.595C346.277 124.595 346.677 124.512 347.048 124.352C347.419 124.191 347.754 123.956 348.03 123.661C348.307 123.367 348.52 123.018 348.657 122.638C348.794 122.258 348.851 121.853 348.825 121.45C348.851 121.047 348.794 120.642 348.657 120.262C348.52 119.881 348.307 119.533 348.03 119.238C347.754 118.944 347.419 118.709 347.048 118.548C346.677 118.388 346.277 118.305 345.873 118.305C345.468 118.305 345.068 118.388 344.697 118.548C344.326 118.709 343.992 118.944 343.715 119.238C343.438 119.533 343.225 119.881 343.088 120.262C342.952 120.642 342.894 121.047 342.92 121.45Z" fill="#331831"/>
<path d="M364.065 99.8287C364.425 97.3047 360.096 92.2566 360.096 92.2566C360.096 92.2566 359.374 85.4056 356.488 83.2541C353.239 80.6013 349.626 78.4277 345.759 76.7998C341.694 75.3214 336.799 78.2782 333.732 76.7998C330.124 74.9969 325.073 74.6363 323.281 76.4392C321.489 78.2421 320.37 81.0787 318.951 81.8479C317.532 82.6171 314.261 83.6388 312.096 85.0811C309.931 86.5234 309.462 90.0931 308.848 93.0138C308.235 95.9345 305.312 95.7662 305.312 99.8167C305.312 101.547 306.684 106.355 307.405 108.879C308.127 111.403 307.55 117.112 309.101 117.894C311.795 119.24 313.623 109.6 314.982 106.355C316.341 103.11 323.281 109.24 327.599 105.995C331.916 102.749 336.619 106.716 340.949 104.913C345.278 103.11 344.918 96.9802 347.804 96.259C350.691 95.5379 349.247 96.6196 352.495 98.4225C355.742 100.225 352.855 105.995 355.02 109.24C357.185 112.485 357.089 120.622 359.699 117.894C361.19 116.319 361.84 111.067 362.224 107.076C362.549 104.048 363.692 102.353 364.065 99.8287Z" fill="#4E3835"/>
<path d="M329.799 135.516C329.799 135.516 342.066 138.04 344.953 130.828" stroke="#8B3B31" stroke-width="1.15" stroke-miterlimit="10"/>
<path d="M321.477 142.316C325.47 144.72 328.693 146.691 335.368 146.691C342.043 146.691 345.278 144.768 349.259 142.316" stroke="#8B3B31" stroke-width="1.15" stroke-miterlimit="10"/>
<path d="M287.163 158.376C287.163 158.376 277.132 159.145 276.747 178.809C276.363 198.472 280.608 248.953 279.502 263.569C278.395 278.184 280.704 307.126 279.117 312.908C277.529 318.689 286.453 325.239 285.683 331.021C284.914 336.802 287.223 339.122 289.532 339.891C291.841 340.66 309.593 334.11 309.978 327.547C310.363 320.985 318.457 267.811 320.394 255.083C322.33 242.355 314.993 193.785 310.363 182.967C305.733 172.15 301.487 159.842 297.254 159.073C293.912 158.593 290.539 158.36 287.163 158.376Z" fill="#483966"/>
<path d="M314.164 150.272C314.164 150.272 312.612 145.26 307.212 148.734C301.812 152.207 303.364 152.195 293.718 154.13C284.072 156.065 284.457 159.527 284.457 159.527C284.457 159.527 292.179 159.912 297.964 168.385C304.154 177.418 308.36 187.659 310.303 198.433C312.585 212.216 314.131 226.11 314.934 240.056C315.319 250.874 310.303 296.727 307.994 304.816C305.685 312.905 308.379 330.645 308.379 330.645C308.379 330.645 315.319 319.828 317.243 307.52C319.167 295.213 326.119 275.525 325.734 259.335C325.349 243.145 314.91 189.948 312.228 180.705C309.546 171.462 314.164 150.272 314.164 150.272Z" fill="#664A86"/>
<path d="M383.583 158.375C383.583 158.375 393.602 159.144 393.987 178.808C394.372 198.471 390.15 248.952 391.353 263.568C392.555 278.183 390.15 307.126 391.738 312.907C393.325 318.688 381.358 321.32 382.116 327.162C382.874 333.003 377.87 333.724 375.561 334.494C373.252 335.263 361.249 334.109 360.864 327.546C360.479 320.984 352.337 267.847 350.461 255.154C348.585 242.462 355.861 193.856 360.491 183.039C365.122 172.221 369.367 159.913 373.613 159.144C376.913 158.646 380.246 158.389 383.583 158.375Z" fill="#483966"/>
<path d="M356.584 150.272C356.584 150.272 358.123 145.26 363.523 148.734C368.923 152.207 367.384 152.195 377.018 154.13C386.651 156.065 386.279 159.527 386.279 159.527C386.279 159.527 378.569 159.912 372.784 168.385C366.595 177.42 362.386 187.66 360.432 198.433C358.157 212.216 356.611 226.11 355.802 240.056C355.417 250.874 360.432 296.727 362.754 304.816C365.075 312.905 362.369 330.645 362.369 330.645C362.369 330.645 355.417 319.828 353.493 307.52C351.568 295.213 344.617 275.525 345.002 259.335C345.387 243.145 355.826 189.948 358.508 180.705C361.19 171.462 356.584 150.272 356.584 150.272Z" fill="#664A86"/>
<path d="M283.327 161.403C278.697 163.71 263.651 178.746 260.572 211.126C257.493 243.506 251.311 260.081 257.481 269.72C263.651 279.36 277.927 281.668 283.327 279.336C288.727 277.004 302.414 250.417 304.976 245.021C307.6 239.118 309.545 232.937 310.773 226.595C311.543 221.583 315.403 217.917 315.403 213.879C315.403 209.84 304.579 198.458 304.579 198.458C304.579 198.458 299.949 195.369 298.012 199.997C296.076 204.624 298.012 184.96 294.933 176.102C291.854 167.244 287.922 159.143 283.327 161.403Z" fill="#483966"/>
<path d="M294.896 176.105C294.896 176.105 297.206 195.757 296.436 199.615" stroke="#70528D" stroke-miterlimit="10"/>
<path d="M270.205 230.839C270.205 230.839 283.327 218.892 287.572 215.803C289.689 214.264 291.469 210.791 292.972 207.473C294.476 204.156 295.666 200.959 296.58 199.997C298.517 198.074 300.188 196.921 303.328 198.459" stroke="#70528D" stroke-miterlimit="10"/>
<path d="M294.127 210.406C294.127 210.406 297.735 221.776 311.482 221.776" stroke="#70528D" stroke-miterlimit="10"/>
<path d="M268.281 223.903C268.281 223.903 276.387 216.956 283.327 218.891" stroke="#70528D" stroke-miterlimit="10"/>
<path d="M283.711 279.407C283.711 279.407 296.436 268.999 301.836 252.809C307.236 236.619 311.866 223.902 311.866 223.902" stroke="#70528D" stroke-miterlimit="10"/>
<path d="M390.356 165.441C390.356 165.441 398.655 166.271 412.534 204.432C426.413 242.593 422.949 261.091 419.485 269.769C417.297 275.238 413.472 297.581 410.225 307.161C408.336 312.774 405.041 314.144 404.825 315.574C404.134 319.261 402.834 322.808 400.976 326.067C399.698 327.335 398.021 328.124 396.228 328.299C394.436 328.474 392.637 328.025 391.138 327.029C387.806 325.035 384.328 323.295 380.734 321.824C380.734 321.824 382.045 169.227 390.356 165.441Z" fill="#483966"/>
<path d="M393.639 189.973C393.639 189.973 391.715 206.547 392.1 215.417C392.484 224.288 392.1 248.951 393.302 258.975C394.505 268.999 393.302 290.225 393.302 300.213C393.302 310.202 387.517 311.788 387.132 316.019C386.748 320.25 385.93 324.504 385.93 324.504" stroke="#70528D" stroke-miterlimit="10"/>
<path d="M387.469 184.578C390.204 194.513 391.759 204.736 392.099 215.035" stroke="#70528D" stroke-miterlimit="10"/>
<path d="M399.424 230.453C399.424 230.453 392.484 243.554 392.484 252.088" stroke="#70528D" stroke-miterlimit="10"/>
<path d="M393.254 307.93C393.254 307.93 400.963 308.699 403.284 314.096" stroke="#70528D" stroke-miterlimit="10"/>
<path d="M347.141 162.523H324.483C323.513 162.523 322.727 163.309 322.727 164.278V203.906C322.727 204.875 323.513 205.661 324.483 205.661H347.141C348.111 205.661 348.897 204.875 348.897 203.906V164.278C348.897 163.309 348.111 162.523 347.141 162.523Z" fill="#292929"/>
<path d="M303.244 199.865C303.244 199.865 306.491 191.307 307.418 188.302C308.344 185.297 315.043 179.768 317.46 177.653C321.024 174.624 325.44 172.772 330.101 172.353C335.729 171.764 337.738 173.554 337.317 175.357C336.896 177.16 332.891 177.28 330.101 178.206C327.31 179.131 324.195 182.677 324.195 182.677C327.052 181.532 329.981 180.577 332.963 179.817C335.823 179.21 338.806 179.636 341.382 181.018C341.739 181.171 342.049 181.418 342.277 181.733C342.505 182.047 342.644 182.418 342.678 182.805C342.713 183.192 342.642 183.581 342.473 183.931C342.304 184.281 342.043 184.579 341.719 184.793C341.719 184.793 343.571 186.872 342.921 188.494C342.272 190.117 341.069 190.333 339.217 191.259C339.217 191.259 341.526 192.461 340.841 194.504C340.155 196.547 336.439 196.127 334.827 196.583C333.216 197.04 329.511 197.281 328.357 199.817C326.578 203.347 323.812 206.287 320.395 208.278C317.654 209.817 314.686 210.912 311.603 211.523C310.881 211.475 303.713 204.528 303.244 199.865Z" fill="#A96845"/>
<path d="M322.896 188.255C322.896 188.255 333.997 184.324 336.331 184.324C338.122 184.376 339.907 184.561 341.671 184.877" stroke="#8B3B31" stroke-width="1.15" stroke-miterlimit="10"/>
<path d="M325.049 194.336C325.049 194.336 331.676 190.73 333.997 190.73C335.788 190.78 337.573 190.961 339.337 191.271" stroke="#8B3B31" stroke-width="1.15" stroke-miterlimit="10"/>
<path d="M321.297 183.785L324.159 182.715" stroke="#8B3B31" stroke-width="1.15" stroke-miterlimit="10"/>
<path d="M387.47 317.57C387.47 317.57 400.579 319.109 400.194 325.275C399.81 331.441 397.5 334.89 394.794 335.299C392.088 335.707 384.764 332.594 382.07 330.287C379.376 327.979 385.533 319.109 387.47 317.57Z" fill="#A96845"/>
<path d="M189.191 412.762C189.191 412.762 183.851 386.019 180.964 372.425C174.421 341.548 169.983 303.362 175.251 299.108C188.144 288.543 219.643 292.209 224.285 298.939C228.447 304.949 233.065 382.87 228.916 411.921C230.022 435.887 216.889 504.637 216.889 504.637C212.328 507.246 207.146 508.575 201.891 508.483C196.687 508.325 191.528 507.46 186.557 505.911C186.557 505.911 182.852 441.115 183.983 433.183C185.113 425.25 189.191 412.762 189.191 412.762Z" fill="#4F4656"/>
<path d="M207.062 360.924C214.879 359.121 222.599 356.918 230.19 354.326C229.264 327.883 226.703 302.366 224.297 298.881C219.655 292.15 188.156 288.484 175.263 299.049C169.995 303.364 174.433 341.549 180.976 372.367C182.178 378.244 184.74 391.297 186.28 397.607C191.199 374.23 197.296 362.956 207.062 360.924Z" fill="#433A4C"/>
<path d="M167.987 422.221C169.382 420.947 175.083 397.401 180.988 376.439C183.851 366.295 189.251 345.117 189.251 345.117C189.251 345.117 193.978 337.16 196.852 331.271C201.663 321.391 204.537 306.788 204.537 306.788L136.584 293.566C136.584 293.566 128.526 308.374 128.31 325.502C127.961 356.115 131.148 416.211 131.148 416.211C131.148 416.211 164.499 425.43 167.987 422.221Z" fill="#4F4656"/>
<path d="M219.054 208.844C219.054 208.844 213.582 263.051 222.326 263.051C231.069 263.051 235.147 256.2 237.528 246.079C239.909 235.959 239.512 221.5 239.512 221.5L219.054 208.844Z" fill="#FFA98B"/>
<path d="M179.508 153.254C189.792 154.552 212.595 157.593 224.081 167.485C228.158 171.007 232.163 173.699 234.243 179.961C236.324 186.223 240.257 194.252 239.054 201.704C238.465 205.31 229.433 203.819 229.433 203.819C229.433 203.819 225.548 236.704 224.79 245.478C224.069 253.988 227.713 268.904 228.471 280.334C228.891 286.704 230.455 289.866 229.673 295.022C228.891 300.178 234.845 304.156 230.467 309.721C227.388 313.628 203.057 321.236 187.17 319.649C174.132 318.339 163.921 317.81 154.985 314.084C140.084 307.87 131.941 311.308 128.766 309.721C125.591 308.135 129.151 266.452 129.151 256.909C129.151 247.365 127.359 212.149 125.976 202.113C124.593 192.077 126.505 172.221 135.177 164.745C143.848 157.269 165.569 151.5 179.508 153.254Z" fill="#BD8D88"/>
<path d="M208.218 147.881L206.414 163.506C206.414 163.506 203.359 171.187 190.43 168.47C181.686 166.643 175.648 153.05 175.648 153.05L183.334 136.223L208.218 147.881Z" fill="#FFA98B"/>
<path d="M225.381 100.416C228.532 99.8391 231.478 106.017 229.157 116.366C226.956 126.113 216.168 128.625 216.168 128.625C216.168 128.625 222.266 101.005 225.381 100.416Z" fill="#C74601"/>
<path d="M176.213 99.4922C176.213 99.4922 171.402 105.153 171.631 110.971C171.811 116.98 173.82 115.778 175.239 120.117C176.658 124.456 176.538 130.454 177.644 133.074C179.4 137.461 181.998 138.843 185.27 139.084C190.489 139.528 183.838 103.146 183.838 103.146L176.213 99.4922Z" fill="#C74601"/>
<path d="M225.032 112.352C226.8 127.22 221.929 147.905 208.591 151.908C195.253 155.91 180.989 147.593 179.124 123.338C177.26 99.0829 192.631 92.6165 198.849 92.8088C203.732 92.9771 223.252 97.4723 225.032 112.352Z" fill="#FFA98B"/>
<path d="M183.382 118.373C183.273 113.758 175.456 109.96 173.159 114.923C170.862 119.887 173.977 127.147 179.389 128.878C184.801 130.609 183.478 122.94 183.382 118.373Z" fill="#FFA98B"/>
<path d="M200.532 124.879C200.579 125.399 200.78 125.894 201.108 126.301C201.437 126.707 201.878 127.008 202.377 127.164C202.876 127.32 203.411 127.325 203.912 127.178C204.414 127.031 204.861 126.738 205.197 126.337C205.532 125.937 205.741 125.445 205.798 124.926C205.854 124.406 205.756 123.882 205.514 123.418C205.272 122.955 204.898 122.573 204.44 122.322C203.981 122.071 203.459 121.961 202.938 122.006C202.591 122.036 202.253 122.135 201.944 122.295C201.636 122.456 201.362 122.676 201.138 122.943C200.915 123.21 200.746 123.519 200.642 123.851C200.538 124.183 200.501 124.532 200.532 124.879Z" fill="#520E03"/>
<path d="M217.863 129.923C217.922 130.242 218.049 130.544 218.235 130.81C218.42 131.075 218.661 131.298 218.94 131.463C219.219 131.628 219.53 131.732 219.853 131.767C220.175 131.802 220.501 131.767 220.809 131.666C221.458 131.429 221.999 130.964 222.331 130.358C222.663 129.753 222.763 129.047 222.613 128.373C222.554 128.054 222.428 127.752 222.242 127.486C222.056 127.22 221.815 126.997 221.536 126.832C221.257 126.667 220.946 126.564 220.623 126.529C220.301 126.494 219.975 126.528 219.667 126.63C219.018 126.867 218.477 127.332 218.145 127.937C217.813 128.543 217.713 129.249 217.863 129.923Z" fill="#520E03"/>
<path d="M225.922 123.866C225.433 123.097 224.748 122.47 223.938 122.051C223.147 121.597 222.268 121.315 221.361 121.224C220.453 121.133 219.536 121.234 218.67 121.522C218.473 121.582 218.3 121.702 218.177 121.866C218.054 122.031 217.986 122.23 217.985 122.436C217.975 122.562 217.996 122.688 218.044 122.805C218.092 122.922 218.166 123.026 218.261 123.109C218.377 123.228 218.524 123.314 218.685 123.356C218.846 123.399 219.015 123.396 219.175 123.349C219.404 123.273 219.637 123.208 219.873 123.157L220.161 123.097H220.342H220.883H221.184C221.184 123.097 221.532 123.097 221.316 123.097C221.658 123.153 221.996 123.233 222.326 123.337L222.579 123.434C222.579 123.434 222.867 123.554 222.663 123.434L223.084 123.638C223.338 123.77 223.583 123.919 223.818 124.083L224.082 124.275L224.335 124.455L224.708 124.696C224.984 124.9 224.792 124.696 224.708 124.696C224.828 124.835 224.997 124.923 225.181 124.942C225.364 124.961 225.548 124.909 225.694 124.796C225.84 124.684 225.938 124.52 225.967 124.338C225.996 124.156 225.954 123.97 225.85 123.818L225.922 123.866Z" fill="#C74601"/>
<path d="M209.373 119.927C208.33 118.645 206.854 117.79 205.224 117.523C203.409 116.989 201.496 116.878 199.631 117.198C199.432 117.255 199.257 117.375 199.131 117.539C199.005 117.704 198.936 117.905 198.934 118.112C198.934 117.907 198.934 118.292 198.934 118.352C198.971 118.436 199.015 118.516 199.066 118.592C199.173 118.771 199.336 118.909 199.529 118.987C199.722 119.065 199.935 119.078 200.136 119.025C201.65 118.808 203.192 118.898 204.67 119.29C205.388 119.451 206.089 119.68 206.763 119.975C207.056 120.121 207.341 120.281 207.617 120.455C207.839 120.565 208.049 120.698 208.243 120.852C208.367 120.976 208.532 121.05 208.707 121.06C208.882 121.071 209.055 121.018 209.194 120.91C209.332 120.803 209.427 120.648 209.46 120.476C209.493 120.304 209.462 120.126 209.373 119.975V119.927Z" fill="#C74601"/>
<path d="M206.138 152.295C206.138 152.295 199.234 152.908 195.097 150.913C191.709 149.194 188.586 146.996 185.824 144.387" stroke="#C6715C" stroke-miterlimit="10"/>
<path d="M213.727 141.895C211.003 141.387 208.382 140.433 205.97 139.071C202.891 137.076 200.63 133.999 198.898 135.465C197.166 136.931 197.394 141.907 203.047 144.504C207.942 146.739 213.018 143.674 213.727 141.895Z" fill="white"/>
<path d="M223.528 91.7655C218.802 86.891 212.76 83.4958 206.137 81.9938C201.795 81.2006 195.313 86.0564 195.313 86.0564C193.079 85.3809 190.707 85.296 188.431 85.81C186.154 86.324 184.05 87.4194 182.323 88.9891C176.009 94.4218 173.291 106.273 173.291 106.273C175.54 108.041 177.458 110.194 178.956 112.631C181.481 116.706 180.952 122.871 183.021 125.456C185.09 128.04 186.292 118.605 186.292 118.605C186.292 118.605 195.77 108.52 198.921 101.994C203.394 103.231 207.784 104.748 212.066 106.537C216.745 108.725 223.311 106.537 226.739 106.153C230.167 105.768 225.38 93.5924 223.528 91.7655Z" fill="#C74601"/>
<path d="M217.213 123.328C217.778 125.203 218.115 127.078 218.488 128.881C218.584 129.326 218.692 129.758 218.789 130.167C218.885 130.576 219.041 130.936 219.21 131.369C219.562 132.294 219.851 133.242 220.075 134.206C220.357 135.348 220.316 136.547 219.955 137.667C219.717 138.321 219.3 138.896 218.753 139.326C218.27 139.671 217.733 139.935 217.165 140.107C216.13 140.391 215.043 140.432 213.99 140.227C212.993 140.069 212.04 139.709 211.188 139.17C212.97 139.12 214.727 138.741 216.371 138.052C216.681 137.884 216.971 137.682 217.237 137.451C217.421 137.282 217.554 137.066 217.622 136.826C217.784 136.126 217.784 135.398 217.622 134.698C217.466 133.869 217.213 133.016 216.96 132.102C216.808 131.607 216.696 131.101 216.624 130.588C216.555 130.086 216.527 129.58 216.54 129.073C216.512 127.137 216.739 125.206 217.213 123.328Z" fill="#D57961"/>
<path d="M208.794 81.8857C191.403 78.8569 176.875 84.8785 173.459 103.328C183.335 106.828 193.402 109.765 203.611 112.126C218.741 115.468 229.313 117.295 231.189 114.025C231.189 114.037 231.393 85.8281 208.794 81.8857ZM216.588 109.807C212.463 109.242 206.63 107.847 206.63 107.847C206.63 107.847 207.135 97.1983 216.023 98.6045C224.911 100.011 224.694 105.504 224.682 110.011C221.984 110.213 219.272 110.144 216.588 109.807Z" fill="#065C97"/>
<path d="M179.678 105.503C179.678 105.503 165.979 107.318 164.042 101.741C161.769 95.1662 172.461 94.6253 176.154 94.457C176.166 94.457 173.664 102.51 179.678 105.503Z" fill="#06455E"/>
<path d="M228.988 196.102C228.988 196.102 222.842 192.893 219.92 196.102C216.997 199.311 212.896 204.299 216.696 206.343C220.497 208.386 227.485 197.857 228.988 196.102Z" fill="#FFA98B"/>
<path d="M249.747 198.425C249.747 198.425 253.921 202.295 250.95 205.155C250.366 205.632 249.68 205.968 248.946 206.14C248.212 206.311 247.448 206.311 246.713 206.142C245.978 205.973 245.292 205.638 244.707 205.162C244.122 204.687 243.653 204.085 243.337 203.401C242.423 200.768 246.524 196.381 249.747 198.425Z" fill="#FFA98B"/>
<path d="M255.846 188.797L234.582 189.049C234.084 189.091 233.608 189.269 233.204 189.564C232.801 189.859 232.487 190.259 232.297 190.72L210.949 215.768C210.6 216.682 211.045 217.415 211.959 217.403L233.223 217.138C233.719 217.096 234.194 216.92 234.597 216.627C234.999 216.335 235.315 215.938 235.508 215.48L256.856 190.42C257.205 189.506 256.76 188.785 255.846 188.797Z" fill="#292929"/>
<path d="M241.869 207.411C239.535 208.134 237.095 208.455 234.653 208.361C232.127 208.036 226.787 206.474 225.536 208.673C224.286 210.873 227.737 213.697 227.737 213.697C227.737 213.697 221.135 212.76 220.521 215.584C220.42 215.938 220.399 216.309 220.46 216.671C220.521 217.033 220.662 217.377 220.873 217.678C221.084 217.979 221.359 218.228 221.679 218.409C221.999 218.59 222.356 218.696 222.722 218.722C222.722 218.722 220.209 220.609 221.519 223.121C222.83 225.633 231.887 225.633 235.038 225.008C238.189 224.383 240.691 223.433 241.051 222.496C241.167 221.543 241.06 220.576 240.739 219.671C241.319 219.735 241.902 219.575 242.369 219.225C242.836 218.874 243.152 218.359 243.252 217.784C243.637 216.555 243.637 215.239 243.252 214.01C243.865 213.648 244.383 213.148 244.766 212.548C245.148 211.949 245.384 211.268 245.453 210.56C245.565 208.537 245.354 206.508 244.828 204.551C244.828 204.551 243.12 207.075 241.869 207.411Z" fill="#FFA98B"/>
<path d="M227.785 213.699C227.785 213.699 236.649 216.103 242.494 213.855" stroke="#C6715C" stroke-miterlimit="10"/>
<path d="M222.975 219.348C226.326 219.961 229.712 220.362 233.113 220.55C235.628 220.704 238.149 220.407 240.558 219.672" stroke="#C6715C" stroke-miterlimit="10"/>
<path d="M227.088 225.826C227.088 225.826 237.227 226.415 238.718 224.336" stroke="#C6715C" stroke-miterlimit="10"/>
<path d="M232.392 214.973C231.081 213.975 229.156 214.119 226.378 214.131C223.952 214.106 221.535 213.84 219.162 213.338C219.162 213.338 228.278 211.235 230.058 211.235C231.838 211.235 235.422 207.953 232.74 205.574C230.058 203.194 219.631 205.574 219.631 205.574C219.631 205.574 219.631 203.374 214.567 202.893C209.504 202.413 204.705 202.629 201.458 204.84C198.211 207.052 193.424 213.026 188.649 214.853C186.881 215.538 183.838 218.074 180.002 218.675C176.165 219.276 166.592 221.655 166.592 221.655C166.592 221.655 164.186 213.915 162.983 209.444C161.9 205.799 160.607 202.219 159.111 198.723L144.113 202.99C138.799 204.599 133.82 207.157 129.416 210.538C129.416 210.538 132.194 236.74 138.545 247.857C144.895 258.975 155.046 258.975 162.983 256.8C170.921 254.624 189.876 239.143 195.769 233.867C201.042 234.154 206.326 233.561 211.404 232.112C213.305 231.535 214.94 231.668 216.215 230.442C217.099 229.47 217.904 228.429 218.621 227.329C220.016 226.92 221.268 226.124 222.229 225.033C223.046 223.876 223.668 222.593 224.069 221.235C224.069 221.235 228.086 220.393 229.216 219.937C233.715 218.146 233.715 215.982 232.392 214.973Z" fill="#FFA98B"/>
<path d="M206.209 209.216C210.784 207.225 215.619 205.898 220.569 205.273" stroke="#C6715C" stroke-miterlimit="10"/>
<path d="M210.695 220.406C215.233 220.82 219.79 220.984 224.346 220.899C224.346 220.899 232.452 220.105 232.452 216.884C232.452 213.663 229.241 213.363 227.485 213.651C225.136 213.785 222.781 213.749 220.437 213.543C216.12 214.444 210.816 215.069 210.816 215.069" stroke="#C6715C" stroke-miterlimit="10"/>
<path d="M208.867 226.56C211.919 227.058 215.015 227.231 218.104 227.076C219.668 226.847 221.117 226.123 222.24 225.012C223.363 223.9 224.101 222.459 224.346 220.898" stroke="#C6715C" stroke-miterlimit="10"/>
<path d="M226.799 212.124C226.799 212.124 233.053 211.235 233.654 208.254" stroke="#C6715C" stroke-miterlimit="10"/>
<path d="M154.975 226.416C158.65 224.511 162.433 222.822 166.304 221.355" stroke="#C6715C" stroke-miterlimit="10"/>
<path d="M169.574 306.538C169.574 306.538 187.855 308.942 204.549 306.935C221.242 304.928 227.196 299.387 227.196 299.387" stroke="#976457" stroke-miterlimit="10"/>
<path d="M132.23 300.574C132.23 300.574 147.324 300.574 157.656 304.541" stroke="#976457" stroke-miterlimit="10"/>
<path d="M192.631 302.16C192.631 302.16 223.216 302.557 226.8 278.734" stroke="#976457" stroke-miterlimit="10"/>
<path d="M156.826 283.496C156.826 283.496 183.454 292.234 203.323 289.506" stroke="#976457" stroke-miterlimit="10"/>
<path d="M170.766 154.445C170.766 154.445 175.685 168.953 187.459 173.508C199.775 178.316 206.534 171.921 208.122 167.943C209.709 163.965 208.122 159.217 208.122 159.217" stroke="#976457" stroke-miterlimit="10"/>
</g>
<path d="M268.509 341.836L233.277 304.046C200.63 332.907 150.758 330.672 120.854 298.621C90.9493 266.57 92.2362 216.64 123.311 186.093L88.0795 148.303C36.1332 198.308 33.7502 280.908 83.0884 333.829C132.427 386.751 214.99 390.155 268.509 341.836Z" fill="#FF9149"/>
</svg>
