<svg width="589" height="487" viewBox="0 0 589 487" fill="none" xmlns="http://www.w3.org/2000/svg">
<mask id="mask0_281_5934" style="mask-type:alpha" maskUnits="userSpaceOnUse" x="9" y="0" width="580" height="393">
<path d="M205.5 1.5H425C514.746 1.5 587.5 74.2537 587.5 164V347C587.5 371.577 567.577 391.5 543 391.5H205.5C97.8045 391.5 10.5 304.196 10.5 196.5C10.5 88.8045 97.8045 1.5 205.5 1.5Z" fill="#D9D9D9" stroke="white" stroke-width="3"/>
</mask>
<g mask="url(#mask0_281_5934)">
<path d="M489.668 380.744C494.424 402.633 483.603 409.943 484.069 431.788C484.505 452.819 478.775 474.751 476.593 496.058C475.677 504.909 476.375 520.766 474.965 529.675C472.696 544.209 468.071 551.723 465.846 566.083C463.33 582.666 458.967 599.221 455.258 615.601C455.258 615.601 452.059 619.845 442.169 620.644C434.897 621.225 423.539 616.516 423.539 616.516C422.419 594.526 422.085 572.216 422.085 550.532C422.085 539.791 423.728 528.105 424.993 517.103C425.831 510.504 426.249 503.858 426.244 497.206C425.735 472.353 415.991 441.671 412.297 414.26C410.292 398.95 409.741 383.484 410.653 368.071C429.88 366.952 468.667 371.036 489.668 380.744Z" fill="#2A354F"/>
<path d="M351.839 369.583C351.839 369.583 345.469 394.712 349.032 428.315C350.181 439.056 351.083 448.881 351.941 457.79C352.799 466.7 354.108 470.871 354.704 477.964C355.402 486.161 355.257 496.727 355.999 502.584C356.886 509.619 356.464 521.711 360.173 533.702C365.205 549.98 363.358 559.354 364.085 569.528C365.539 589.876 369.117 621.764 369.117 621.764C369.117 621.764 372.302 626.022 383.151 626.284C391.034 626.458 400.792 622.476 400.792 622.476C400.792 622.476 407.439 570.313 408.442 555.241C408.966 547.378 409.242 533.847 409.402 522.714C409.533 512.54 409.562 504.299 409.562 504.299C409.562 504.299 415.947 431.876 415.976 412.168C416.005 392.46 413.3 365.848 413.3 365.848L351.839 369.583Z" fill="#2A354F"/>
<path d="M406.771 370.34C406.771 370.34 405.156 386.589 405.156 392.504C405.156 398.42 406.262 404.335 408.458 406.297C410.654 408.259 417.184 409.756 417.184 409.756" stroke="#455977" stroke-miterlimit="10"/>
<path d="M413.881 369.844C413.881 369.844 412.339 421.658 415.844 435.451" stroke="#455977" stroke-miterlimit="10"/>
<path d="M349.266 374.221C349.266 374.221 374.993 378.377 395.921 380.281C411.308 381.735 425.43 379.119 443.493 374.686C460.145 370.602 479.401 371.43 479.401 371.43C478.965 364.846 477.947 349.425 477.947 343.815C478.412 284.226 488.709 221.293 480.986 200.044C478.078 192.079 441.937 180.699 414.494 180.699C387.05 180.699 350.909 192.079 348.015 200.044C340.293 221.293 350.589 284.226 351.04 343.815C351.128 349.425 349.702 367.651 349.266 374.221Z" fill="#B6AE66"/>
<path d="M444.816 186.162C442.314 177.587 421.735 178.488 414.536 179.084C407.337 178.488 386.758 177.631 384.257 186.162C381.348 195.973 389.681 206.597 414.536 206.597C439.391 206.597 447.681 195.973 444.816 186.162Z" fill="#3B8172"/>
<path d="M435.318 180.133C436.904 187.691 430.563 253.748 414.536 253.748C398.509 253.748 392.182 187.691 393.768 180.133" stroke="#FFD400" stroke-linecap="round" stroke-linejoin="round"/>
<path d="M414.479 265.185L415.541 253.965L408.793 270.81L417.054 268.659L415.992 279.879L422.74 263.02L414.479 265.185Z" fill="#FFD400"/>
<path d="M435.362 183.548L430.097 161.602C425.033 163.101 419.81 163.998 414.535 164.276C409.261 163.997 404.038 163.099 398.974 161.602L393.709 183.548C393.709 183.548 386.437 200.088 414.535 200.088C442.633 200.088 435.362 183.548 435.362 183.548Z" fill="#A96845"/>
<path d="M446.197 137.882C446.197 158.68 434.359 175.539 414.536 175.539C394.713 175.539 382.875 158.68 382.875 137.882C382.875 117.083 391.136 100.238 414.536 100.238C437.937 100.238 446.197 117.083 446.197 137.882Z" fill="#A96845"/>
<path d="M409.154 137.649C407.177 136.304 404.826 135.613 402.435 135.673C400.923 135.577 399.406 135.725 397.941 136.109C397.213 136.307 396.51 136.59 395.847 136.952C395.179 137.398 394.538 137.883 393.927 138.405C393.854 138.458 393.804 138.536 393.785 138.624C393.767 138.712 393.781 138.804 393.827 138.882C393.872 138.959 393.944 139.018 394.03 139.045C394.116 139.072 394.209 139.067 394.291 139.03C394.94 138.789 395.621 138.642 396.312 138.594C396.952 138.492 397.592 138.42 398.246 138.361C399.603 138.211 400.968 138.148 402.333 138.172C403.465 138.214 404.593 138.335 405.707 138.536C406.501 138.623 407.271 138.859 407.976 139.233C408.892 139.786 410.041 138.405 409.154 137.693V137.649Z" fill="#4E3835"/>
<path d="M421.153 139.188C421.837 138.827 422.581 138.596 423.349 138.505C424.487 138.291 425.639 138.165 426.796 138.127C428.127 138.105 429.457 138.163 430.781 138.301C431.435 138.301 432.075 138.447 432.715 138.534C433.441 138.58 434.157 138.732 434.839 138.984C434.921 139.022 435.014 139.027 435.099 138.999C435.185 138.972 435.257 138.914 435.303 138.836C435.348 138.758 435.363 138.666 435.344 138.578C435.326 138.49 435.275 138.412 435.202 138.36C434.617 137.871 434.005 137.415 433.37 136.993C432.711 136.63 432.013 136.342 431.29 136.136C429.793 135.734 428.241 135.577 426.694 135.671C424.303 135.611 421.953 136.302 419.975 137.647C419.103 138.36 420.222 139.74 421.153 139.188Z" fill="#4E3835"/>
<path d="M374.616 137.037C372.841 143.81 377.83 152.443 384.461 153.737C391.093 155.03 389.93 145.016 387.225 139.726C384.52 134.436 376.346 130.192 374.616 137.037Z" fill="#A96845"/>
<path d="M449.951 133.564C443.305 134.857 438.316 143.476 440.105 150.263C441.894 157.051 449.98 152.85 452.7 147.56C455.419 142.269 456.597 132.27 449.951 133.564Z" fill="#A96845"/>
<path d="M414.655 141.109C415.147 142.753 415.426 144.453 415.484 146.167C415.512 147.068 415.449 147.969 415.295 148.856C415.295 149.089 415.178 149.35 415.12 149.597L414.815 150.353L414.407 151.385C414.18 151.972 414.038 152.589 413.986 153.216L413.898 154.35C413.862 154.503 413.862 154.662 413.898 154.815C414.104 155.377 414.45 155.877 414.902 156.268C415.44 156.821 416.08 157.358 416.763 157.983C415.861 158.209 414.917 158.209 414.015 157.983C412.946 157.751 411.999 157.136 411.353 156.254C410.969 155.69 410.748 155.031 410.713 154.35C410.684 153.905 410.684 153.458 410.713 153.013C410.752 152.001 411.01 151.009 411.47 150.106C411.673 149.702 411.906 149.313 412.168 148.943L412.4 148.58C412.4 148.435 412.531 148.304 412.589 148.144C412.865 147.432 413.098 146.704 413.288 145.964C413.695 144.307 414.102 142.752 414.655 141.109Z" fill="#8B3B31"/>
<path d="M405.417 146.821C405.417 147.529 405.207 148.22 404.814 148.808C404.421 149.396 403.862 149.854 403.209 150.125C402.555 150.395 401.835 150.466 401.141 150.328C400.447 150.19 399.81 149.85 399.31 149.35C398.809 148.85 398.469 148.213 398.33 147.519C398.192 146.825 398.263 146.107 398.534 145.453C398.805 144.8 399.263 144.242 399.852 143.849C400.44 143.456 401.132 143.246 401.839 143.246C402.788 143.246 403.698 143.623 404.369 144.293C405.04 144.964 405.417 145.873 405.417 146.821Z" fill="#331831"/>
<path d="M423.671 146.862C423.64 147.35 423.709 147.838 423.875 148.298C424.04 148.758 424.298 149.18 424.633 149.536C424.967 149.892 425.371 150.176 425.82 150.371C426.269 150.565 426.753 150.665 427.242 150.665C427.731 150.665 428.215 150.565 428.663 150.371C429.112 150.176 429.516 149.892 429.851 149.536C430.186 149.18 430.443 148.758 430.609 148.298C430.774 147.838 430.843 147.35 430.812 146.862C430.843 146.374 430.774 145.885 430.609 145.425C430.443 144.965 430.186 144.544 429.851 144.188C429.516 143.831 429.112 143.547 428.663 143.353C428.215 143.159 427.731 143.059 427.242 143.059C426.753 143.059 426.269 143.159 425.82 143.353C425.371 143.547 424.967 143.831 424.633 144.188C424.298 144.544 424.04 144.965 423.875 145.425C423.709 145.885 423.64 146.374 423.671 146.862Z" fill="#331831"/>
<path d="M449.236 120.717C449.673 117.664 444.437 111.56 444.437 111.56C444.437 111.56 443.564 103.276 440.074 100.674C436.145 97.4662 431.776 94.8379 427.101 92.8693C422.185 91.0816 416.266 94.657 412.558 92.8693C408.195 90.6892 402.086 90.2532 399.919 92.4333C397.752 94.6134 396.4 98.0435 394.684 98.9737C392.968 99.9038 389.012 101.139 386.394 102.883C383.776 104.627 383.209 108.944 382.467 112.476C381.725 116.008 378.191 115.804 378.191 120.702C378.191 122.795 379.849 128.609 380.722 131.661C381.595 134.713 380.896 141.617 382.773 142.561C386.03 144.189 388.241 132.533 389.884 128.609C391.528 124.684 399.919 132.097 405.14 128.173C410.362 124.248 416.048 129.045 421.284 126.865C426.519 124.684 426.083 117.272 429.573 116.4C433.064 115.528 431.319 116.836 435.245 119.016C439.172 121.196 435.682 128.173 438.3 132.097C440.917 136.021 440.801 145.861 443.957 142.561C445.76 140.657 446.546 134.306 447.011 129.481C447.404 125.818 448.785 123.769 449.236 120.717Z" fill="#4E3835"/>
<path d="M407.805 163.868C407.805 163.868 422.639 166.92 426.129 158.199" stroke="#8B3B31" stroke-width="1.15" stroke-miterlimit="10"/>
<path d="M397.738 172.094C402.567 175.001 406.464 177.384 414.536 177.384C422.608 177.384 426.52 175.059 431.334 172.094" stroke="#8B3B31" stroke-width="1.15" stroke-miterlimit="10"/>
<path d="M356.246 191.513C356.246 191.513 344.116 192.443 343.651 216.221C343.186 239.998 348.319 301.042 346.981 318.715C345.643 336.388 348.436 371.387 346.516 378.377C344.596 385.368 355.388 393.289 354.457 400.28C353.526 407.271 356.318 410.076 359.111 411.006C361.903 411.937 383.369 404.016 383.835 396.08C384.3 388.144 394.088 323.846 396.429 308.454C398.771 293.062 389.899 234.33 384.3 221.249C378.701 208.169 373.567 193.286 368.448 192.356C364.407 191.775 360.328 191.493 356.246 191.513Z" fill="#483966"/>
<path d="M388.898 181.718C388.898 181.718 387.021 175.657 380.491 179.857C373.961 184.058 375.838 184.043 364.174 186.383C352.51 188.723 352.975 192.909 352.975 192.909C352.975 192.909 362.312 193.374 369.308 203.621C376.793 214.543 381.879 226.927 384.229 239.956C386.988 256.622 388.857 273.423 389.828 290.287C390.294 303.368 384.229 358.816 381.437 368.597C378.644 378.378 381.902 399.831 381.902 399.831C381.902 399.831 390.294 386.75 392.621 371.867C394.948 356.984 403.354 333.177 402.888 313.6C402.423 294.023 389.799 229.695 386.556 218.518C383.313 207.341 388.898 181.718 388.898 181.718Z" fill="#664A86"/>
<path d="M472.841 191.512C472.841 191.512 484.955 192.442 485.421 216.22C485.886 239.997 480.781 301.041 482.236 318.714C483.69 336.387 480.781 371.386 482.701 378.376C484.621 385.367 470.15 388.55 471.066 395.614C471.982 402.677 465.932 403.549 463.14 404.48C460.348 405.41 445.833 404.015 445.368 396.079C444.903 388.143 435.057 323.888 432.788 308.54C430.519 293.192 439.318 234.416 444.917 221.336C450.516 208.255 455.65 193.372 460.784 192.442C464.775 191.839 468.804 191.528 472.841 191.512Z" fill="#483966"/>
<path d="M440.192 181.718C440.192 181.718 442.053 175.657 448.583 179.857C455.114 184.058 453.252 184.043 464.901 186.383C476.551 188.723 476.1 192.909 476.1 192.909C476.1 192.909 466.777 193.374 459.782 203.621C452.298 214.546 447.208 226.928 444.846 239.956C442.094 256.623 440.225 273.423 439.247 290.287C438.781 303.368 444.846 358.816 447.653 368.597C450.46 378.378 447.187 399.831 447.187 399.831C447.187 399.831 438.781 386.75 436.454 371.867C434.127 356.984 425.721 333.177 426.187 313.6C426.652 294.023 439.276 229.695 442.519 218.518C445.762 207.341 440.192 181.718 440.192 181.718Z" fill="#664A86"/>
<path d="M351.607 195.174C346.008 197.965 327.814 216.147 324.091 255.302C320.368 294.457 312.892 314.499 320.353 326.155C327.814 337.812 345.077 340.602 351.607 337.783C358.137 334.963 374.688 302.814 377.785 296.288C380.958 289.15 383.31 281.675 384.795 274.007C385.726 267.946 390.395 263.513 390.395 258.63C390.395 253.747 377.305 239.983 377.305 239.983C377.305 239.983 371.706 236.248 369.365 241.843C367.023 247.439 369.365 223.661 365.642 212.949C361.918 202.238 357.163 192.442 351.607 195.174Z" fill="#483966"/>
<path d="M365.598 212.949C365.598 212.949 368.39 236.712 367.459 241.378" stroke="#70528D" stroke-miterlimit="10"/>
<path d="M335.742 279.138C335.742 279.138 351.609 264.691 356.743 260.956C359.303 259.095 361.455 254.895 363.273 250.884C365.091 246.872 366.531 243.006 367.636 241.844C369.977 239.518 371.999 238.123 375.795 239.983" stroke="#70528D" stroke-miterlimit="10"/>
<path d="M364.668 254.43C364.668 254.43 369.031 268.179 385.654 268.179" stroke="#70528D" stroke-miterlimit="10"/>
<path d="M333.414 270.754C333.414 270.754 343.216 262.353 351.608 264.693" stroke="#70528D" stroke-miterlimit="10"/>
<path d="M352.074 337.868C352.074 337.868 367.461 325.282 373.991 305.704C380.521 286.127 386.12 270.75 386.12 270.75" stroke="#70528D" stroke-miterlimit="10"/>
<path d="M481.029 200.059C481.029 200.059 491.064 201.061 507.847 247.207C524.631 293.353 520.442 315.721 516.254 326.214C513.607 332.827 508.982 359.846 505.055 371.43C502.772 378.217 498.787 379.874 498.525 381.604C497.691 386.062 496.118 390.351 493.871 394.292C492.326 395.826 490.298 396.779 488.13 396.991C485.962 397.203 483.788 396.66 481.975 395.455C477.946 393.044 473.74 390.94 469.395 389.162C469.395 389.162 470.98 204.637 481.029 200.059Z" fill="#483966"/>
<path d="M484.998 229.723C484.998 229.723 482.671 249.765 483.137 260.491C483.602 271.217 483.137 301.041 484.591 313.163C486.045 325.284 484.591 350.951 484.591 363.029C484.591 375.107 477.596 377.026 477.13 382.142C476.665 387.258 475.676 392.403 475.676 392.403" stroke="#70528D" stroke-miterlimit="10"/>
<path d="M477.539 223.195C480.847 235.209 482.726 247.571 483.138 260.025" stroke="#70528D" stroke-miterlimit="10"/>
<path d="M491.993 278.672C491.993 278.672 483.602 294.514 483.602 304.833" stroke="#70528D" stroke-miterlimit="10"/>
<path d="M484.535 372.359C484.535 372.359 493.858 373.29 496.664 379.815" stroke="#70528D" stroke-miterlimit="10"/>
<path d="M428.773 196.527H401.373C400.201 196.527 399.25 197.477 399.25 198.649V246.568C399.25 247.74 400.201 248.69 401.373 248.69H428.773C429.946 248.69 430.897 247.74 430.897 246.568V198.649C430.897 197.477 429.946 196.527 428.773 196.527Z" fill="#292929"/>
<path d="M375.691 241.684C375.691 241.684 379.618 231.336 380.738 227.702C381.858 224.069 389.959 217.383 392.882 214.825C397.192 211.162 402.532 208.923 408.167 208.416C414.973 207.703 417.402 209.869 416.893 212.049C416.384 214.229 411.541 214.374 408.167 215.494C404.793 216.613 401.026 220.9 401.026 220.9C404.48 219.516 408.022 218.361 411.628 217.441C415.087 216.707 418.694 217.222 421.809 218.895C422.241 219.08 422.615 219.378 422.891 219.759C423.167 220.139 423.335 220.587 423.376 221.055C423.418 221.523 423.332 221.993 423.128 222.417C422.924 222.84 422.609 223.2 422.216 223.458C422.216 223.458 424.456 225.973 423.67 227.935C422.885 229.897 421.431 230.159 419.191 231.278C419.191 231.278 421.983 232.731 421.154 235.202C420.325 237.673 415.831 237.164 413.883 237.716C411.934 238.269 407.454 238.559 406.058 241.626C403.907 245.896 400.563 249.45 396.43 251.858C393.116 253.718 389.528 255.043 385.799 255.782C384.927 255.724 376.259 247.323 375.691 241.684Z" fill="#A96845"/>
<path d="M399.453 227.643C399.453 227.643 412.877 222.891 415.698 222.891C417.864 222.953 420.023 223.176 422.155 223.559" stroke="#8B3B31" stroke-width="1.15" stroke-miterlimit="10"/>
<path d="M402.059 234.997C402.059 234.997 410.072 230.637 412.879 230.637C415.044 230.696 417.203 230.915 419.336 231.291" stroke="#8B3B31" stroke-width="1.15" stroke-miterlimit="10"/>
<path d="M397.52 222.239L400.981 220.945" stroke="#8B3B31" stroke-width="1.15" stroke-miterlimit="10"/>
<path d="M477.537 384.016C477.537 384.016 493.389 385.876 492.924 393.332C492.459 400.788 489.666 404.959 486.394 405.453C483.122 405.948 474.265 402.183 471.007 399.393C467.749 396.602 475.195 385.876 477.537 384.016Z" fill="#A96845"/>
<path d="M237.776 499.125C237.776 499.125 231.318 466.787 227.828 450.349C219.916 413.011 214.55 366.836 220.92 361.691C236.51 348.916 274.6 353.349 280.214 361.488C285.246 368.755 290.83 462.979 285.813 498.108C287.151 527.089 271.269 610.224 271.269 610.224C265.754 613.379 259.488 614.986 253.134 614.875C246.84 614.683 240.602 613.637 234.591 611.765C234.591 611.765 230.111 533.411 231.478 523.819C232.845 514.226 237.776 499.125 237.776 499.125Z" fill="#4F4656"/>
<path d="M259.388 436.442C268.841 434.261 278.175 431.598 287.355 428.463C286.236 396.488 283.138 365.632 280.229 361.417C274.615 353.278 236.526 348.845 220.935 361.621C214.565 366.839 219.932 413.013 227.844 450.279C229.298 457.386 232.396 473.17 234.257 480.8C240.206 452.532 247.579 438.899 259.388 436.442Z" fill="#433A4C"/>
<path d="M212.136 510.565C213.823 509.024 220.717 480.552 227.858 455.205C231.319 442.938 237.849 417.329 237.849 417.329C237.849 417.329 243.565 407.707 247.04 400.586C252.858 388.639 256.334 370.98 256.334 370.98L174.163 354.992C174.163 354.992 164.419 372.898 164.157 393.609C163.735 430.628 167.59 503.298 167.59 503.298C167.59 503.298 207.919 514.446 212.136 510.565Z" fill="#4F4656"/>
<path d="M273.889 252.539C273.889 252.539 267.271 318.088 277.844 318.088C288.418 318.088 293.348 309.803 296.227 297.566C299.107 285.328 298.627 267.843 298.627 267.843L273.889 252.539Z" fill="#FFA98B"/>
<path d="M226.07 185.321C238.504 186.89 266.079 190.567 279.968 202.529C284.898 206.787 289.741 210.043 292.257 217.615C294.773 225.188 299.529 234.896 298.074 243.908C297.362 248.268 286.44 246.466 286.44 246.466C286.44 246.466 281.742 286.231 280.826 296.841C279.953 307.131 284.36 325.168 285.276 338.99C285.785 346.693 287.676 350.515 286.731 356.75C285.785 362.985 292.984 367.796 287.69 374.525C283.967 379.249 254.546 388.449 235.334 386.531C219.569 384.946 207.221 384.307 196.416 379.801C178.396 372.287 168.55 376.444 164.711 374.525C160.871 372.607 165.176 322.203 165.176 310.663C165.176 299.123 163.009 256.538 161.337 244.402C159.664 232.266 161.977 208.255 172.463 199.215C182.948 190.175 209.214 183.199 226.07 185.321Z" fill="#BD8D88"/>
<path d="M260.782 178.825L258.601 197.719C258.601 197.719 254.907 207.006 239.272 203.722C228.699 201.512 221.398 185.074 221.398 185.074L230.692 164.727L260.782 178.825Z" fill="#FFA98B"/>
<path d="M281.535 121.428C285.345 120.73 288.908 128.201 286.101 140.714C283.44 152.502 270.395 155.539 270.395 155.539C270.395 155.539 277.768 122.14 281.535 121.428Z" fill="#C74601"/>
<path d="M222.082 120.309C222.082 120.309 216.264 127.154 216.541 134.189C216.759 141.456 219.188 140.002 220.904 145.249C222.62 150.496 222.475 157.748 223.813 160.917C225.936 166.222 229.077 167.893 233.033 168.184C239.345 168.722 231.302 124.727 231.302 124.727L222.082 120.309Z" fill="#C74601"/>
<path d="M281.115 135.86C283.253 153.839 277.363 178.852 261.234 183.692C245.105 188.532 227.857 178.474 225.602 149.144C223.348 119.814 241.935 111.995 249.454 112.228C255.358 112.431 278.962 117.867 281.115 135.86Z" fill="#FFA98B"/>
<path d="M230.751 143.142C230.62 137.561 221.167 132.969 218.389 138.971C215.611 144.974 219.378 153.752 225.922 155.845C232.467 157.938 230.867 148.665 230.751 143.142Z" fill="#FFA98B"/>
<path d="M251.49 151.005C251.547 151.635 251.789 152.233 252.186 152.725C252.583 153.217 253.117 153.58 253.721 153.769C254.324 153.957 254.97 153.963 255.577 153.785C256.184 153.607 256.724 153.254 257.13 152.769C257.536 152.284 257.789 151.69 257.857 151.062C257.925 150.434 257.806 149.8 257.513 149.239C257.221 148.679 256.769 148.217 256.215 147.914C255.66 147.61 255.028 147.477 254.398 147.532C253.979 147.568 253.571 147.687 253.197 147.882C252.824 148.076 252.493 148.342 252.222 148.665C251.952 148.988 251.748 149.361 251.623 149.762C251.497 150.164 251.452 150.586 251.49 151.005Z" fill="#520E03"/>
<path d="M272.445 157.109C272.517 157.494 272.67 157.86 272.895 158.181C273.12 158.502 273.41 158.772 273.748 158.971C274.085 159.171 274.462 159.296 274.852 159.338C275.242 159.381 275.636 159.339 276.008 159.216C276.793 158.929 277.447 158.368 277.849 157.635C278.25 156.902 278.371 156.049 278.19 155.234C278.118 154.848 277.965 154.483 277.74 154.162C277.516 153.84 277.225 153.571 276.887 153.371C276.55 153.172 276.174 153.047 275.784 153.004C275.394 152.962 274.999 153.004 274.627 153.126C273.842 153.413 273.188 153.975 272.787 154.708C272.385 155.44 272.264 156.293 272.445 157.109Z" fill="#520E03"/>
<path d="M282.191 149.785C281.599 148.854 280.771 148.097 279.791 147.591C278.835 147.041 277.773 146.7 276.675 146.59C275.577 146.48 274.468 146.603 273.421 146.951C273.183 147.023 272.974 147.168 272.825 147.367C272.676 147.566 272.594 147.807 272.592 148.056C272.581 148.208 272.606 148.361 272.664 148.502C272.722 148.643 272.812 148.769 272.927 148.87C273.067 149.014 273.244 149.118 273.439 149.169C273.634 149.22 273.839 149.217 274.032 149.16C274.309 149.067 274.59 148.99 274.876 148.928L275.225 148.855H275.443H276.097H276.461C276.461 148.855 276.883 148.855 276.621 148.855C277.035 148.922 277.443 149.02 277.843 149.146L278.148 149.262C278.148 149.262 278.497 149.407 278.25 149.262L278.759 149.509C279.066 149.669 279.362 149.849 279.646 150.047L279.966 150.279L280.271 150.497L280.722 150.788C281.057 151.035 280.824 150.788 280.722 150.788C280.868 150.957 281.072 151.063 281.294 151.086C281.516 151.109 281.738 151.046 281.915 150.91C282.091 150.774 282.209 150.576 282.245 150.356C282.28 150.136 282.229 149.911 282.104 149.727L282.191 149.785Z" fill="#C74601"/>
<path d="M262.178 145.019C260.918 143.47 259.133 142.436 257.161 142.112C254.966 141.467 252.653 141.333 250.398 141.72C250.157 141.789 249.945 141.933 249.793 142.132C249.641 142.331 249.558 142.574 249.555 142.825C249.555 142.577 249.555 143.043 249.555 143.115C249.6 143.216 249.653 143.314 249.715 143.406C249.845 143.621 250.041 143.789 250.275 143.883C250.508 143.977 250.766 143.994 251.009 143.929C252.84 143.667 254.704 143.775 256.492 144.249C257.36 144.444 258.207 144.721 259.022 145.077C259.376 145.254 259.721 145.448 260.055 145.659C260.323 145.792 260.577 145.952 260.811 146.138C260.962 146.288 261.162 146.377 261.373 146.39C261.585 146.403 261.794 146.339 261.962 146.209C262.129 146.079 262.244 145.892 262.284 145.684C262.323 145.476 262.286 145.26 262.178 145.077V145.019Z" fill="#C74601"/>
<path d="M258.267 184.157C258.267 184.157 249.919 184.898 244.916 182.486C240.819 180.407 237.042 177.749 233.703 174.594" stroke="#C6715C" stroke-miterlimit="10"/>
<path d="M267.445 171.587C264.151 170.972 260.982 169.818 258.064 168.171C254.341 165.758 251.607 162.038 249.513 163.811C247.418 165.584 247.695 171.601 254.53 174.741C260.449 177.444 266.587 173.738 267.445 171.587Z" fill="white"/>
<path d="M279.295 110.965C273.581 105.071 266.274 100.965 258.265 99.1489C253.015 98.1896 245.176 104.061 245.176 104.061C242.475 103.245 239.607 103.142 236.854 103.763C234.101 104.385 231.557 105.71 229.469 107.608C221.834 114.177 218.547 128.508 218.547 128.508C221.267 130.646 223.586 133.249 225.397 136.196C228.451 141.123 227.811 148.579 230.313 151.704C232.814 154.829 234.268 143.42 234.268 143.42C234.268 143.42 245.729 131.226 249.539 123.334C254.948 124.829 260.257 126.664 265.435 128.827C271.092 131.473 279.033 128.827 283.178 128.362C287.323 127.897 281.535 113.174 279.295 110.965Z" fill="#C74601"/>
<path d="M271.661 149.129C272.345 151.396 272.752 153.664 273.203 155.844C273.319 156.381 273.45 156.905 273.566 157.399C273.683 157.893 273.872 158.329 274.075 158.852C274.502 159.971 274.852 161.117 275.123 162.282C275.463 163.664 275.413 165.113 274.977 166.468C274.689 167.259 274.185 167.954 273.523 168.474C272.939 168.892 272.29 169.211 271.603 169.418C270.352 169.762 269.038 169.812 267.764 169.564C266.559 169.373 265.405 168.938 264.375 168.285C266.53 168.225 268.655 167.767 270.643 166.933C271.018 166.73 271.369 166.486 271.69 166.206C271.913 166.002 272.074 165.741 272.156 165.451C272.352 164.604 272.352 163.724 272.156 162.878C271.967 161.875 271.661 160.843 271.356 159.739C271.172 159.14 271.036 158.528 270.949 157.907C270.865 157.301 270.831 156.688 270.847 156.076C270.814 153.735 271.087 151.399 271.661 149.129Z" fill="#D57961"/>
<path d="M261.483 99.0182C240.453 95.3556 222.884 102.637 218.754 124.947C230.697 129.179 242.87 132.731 255.214 135.586C273.51 139.626 286.294 141.836 288.563 137.882C288.563 137.897 288.81 103.785 261.483 99.0182ZM270.907 132.781C265.918 132.098 258.865 130.412 258.865 130.412C258.865 130.412 259.476 117.535 270.223 119.235C280.971 120.936 280.709 127.578 280.695 133.028C277.432 133.272 274.153 133.189 270.907 132.781Z" fill="#065C97"/>
<path d="M226.27 127.576C226.27 127.576 209.705 129.77 207.364 123.026C204.615 115.076 217.544 114.422 222.009 114.219C222.024 114.219 218.999 123.957 226.27 127.576Z" fill="#06455E"/>
<path d="M285.899 237.135C285.899 237.135 278.467 233.254 274.933 237.135C271.399 241.015 266.439 247.047 271.035 249.518C275.631 251.989 284.081 239.257 285.899 237.135Z" fill="#FFA98B"/>
<path d="M311.002 239.941C311.002 239.941 316.049 244.621 312.457 248.08C311.75 248.656 310.922 249.063 310.034 249.27C309.146 249.477 308.222 249.478 307.333 249.273C306.445 249.068 305.615 248.663 304.908 248.089C304.2 247.514 303.633 246.785 303.251 245.958C302.145 242.775 307.105 237.47 311.002 239.941Z" fill="#FFA98B"/>
<path d="M318.376 228.297L292.663 228.602C292.061 228.653 291.485 228.868 290.997 229.224C290.51 229.581 290.13 230.065 289.9 230.623L264.085 260.912C263.663 262.016 264.201 262.903 265.307 262.888L291.019 262.568C291.619 262.518 292.194 262.304 292.681 261.95C293.168 261.597 293.549 261.117 293.783 260.563L319.597 230.259C320.019 229.155 319.481 228.283 318.376 228.297Z" fill="#292929"/>
<path d="M301.477 250.811C298.654 251.684 295.704 252.073 292.751 251.959C289.697 251.566 283.239 249.677 281.727 252.337C280.214 254.997 284.388 258.412 284.388 258.412C284.388 258.412 276.404 257.278 275.662 260.694C275.54 261.121 275.514 261.57 275.588 262.008C275.661 262.446 275.832 262.862 276.087 263.225C276.342 263.589 276.676 263.891 277.062 264.109C277.449 264.328 277.88 264.457 278.324 264.487C278.324 264.487 275.284 266.769 276.869 269.807C278.455 272.844 289.406 272.844 293.216 272.089C297.027 271.333 300.052 270.185 300.488 269.051C300.628 267.899 300.499 266.729 300.11 265.635C300.812 265.712 301.517 265.519 302.081 265.096C302.646 264.672 303.028 264.049 303.149 263.354C303.614 261.868 303.614 260.276 303.149 258.79C303.89 258.353 304.517 257.747 304.98 257.022C305.442 256.298 305.727 255.474 305.811 254.619C305.946 252.171 305.691 249.718 305.055 247.352C305.055 247.352 302.989 250.404 301.477 250.811Z" fill="#FFA98B"/>
<path d="M284.445 258.414C284.445 258.414 295.164 261.321 302.232 258.603" stroke="#C6715C" stroke-miterlimit="10"/>
<path d="M278.629 265.242C282.681 265.984 286.776 266.469 290.889 266.696C293.929 266.883 296.978 266.523 299.891 265.635" stroke="#C6715C" stroke-miterlimit="10"/>
<path d="M283.602 273.076C283.602 273.076 295.862 273.788 297.665 271.273" stroke="#C6715C" stroke-miterlimit="10"/>
<path d="M290.017 259.955C288.432 258.748 286.105 258.923 282.746 258.937C279.812 258.906 276.889 258.585 274.019 257.978C274.019 257.978 285.043 255.435 287.196 255.435C289.348 255.435 293.682 251.467 290.439 248.589C287.196 245.711 274.587 248.589 274.587 248.589C274.587 248.589 274.587 245.929 268.464 245.348C262.341 244.767 256.538 245.028 252.611 247.703C248.685 250.377 242.896 257.6 237.123 259.809C234.985 260.638 231.305 263.705 226.666 264.431C222.027 265.158 210.45 268.036 210.45 268.036C210.45 268.036 207.541 258.676 206.087 253.269C204.777 248.861 203.214 244.532 201.404 240.305L183.268 245.464C176.842 247.411 170.821 250.503 165.496 254.592C165.496 254.592 168.856 286.276 176.535 299.72C184.214 313.164 196.488 313.164 206.087 310.533C215.686 307.903 238.606 289.183 245.732 282.802C252.109 283.15 258.499 282.433 264.639 280.68C266.937 279.983 268.915 280.143 270.456 278.66C271.525 277.485 272.498 276.227 273.365 274.896C275.053 274.402 276.566 273.439 277.728 272.12C278.717 270.721 279.468 269.169 279.953 267.527C279.953 267.527 284.811 266.51 286.178 265.957C291.617 263.792 291.617 261.176 290.017 259.955Z" fill="#FFA98B"/>
<path d="M258.355 252.99C263.887 250.583 269.734 248.977 275.72 248.223" stroke="#C6715C" stroke-miterlimit="10"/>
<path d="M263.777 266.522C269.265 267.022 274.775 267.221 280.284 267.118C280.284 267.118 290.086 266.158 290.086 262.263C290.086 258.368 286.203 258.005 284.08 258.353C281.24 258.515 278.392 258.471 275.558 258.223C270.336 259.313 263.923 260.068 263.923 260.068" stroke="#C6715C" stroke-miterlimit="10"/>
<path d="M261.57 273.963C265.261 274.565 269.005 274.775 272.74 274.588C274.631 274.31 276.383 273.435 277.741 272.091C279.099 270.747 279.992 269.004 280.288 267.117" stroke="#C6715C" stroke-miterlimit="10"/>
<path d="M283.254 256.508C283.254 256.508 290.817 255.433 291.544 251.828" stroke="#C6715C" stroke-miterlimit="10"/>
<path d="M196.398 273.791C200.843 271.488 205.417 269.445 210.098 267.672" stroke="#C6715C" stroke-miterlimit="10"/>
<path d="M214.055 370.675C214.055 370.675 236.161 373.582 256.347 371.155C276.533 368.728 283.732 362.027 283.732 362.027" stroke="#976457" stroke-miterlimit="10"/>
<path d="M168.898 363.465C168.898 363.465 187.15 363.465 199.643 368.261" stroke="#976457" stroke-miterlimit="10"/>
<path d="M241.934 365.382C241.934 365.382 278.918 365.861 283.252 337.055" stroke="#976457" stroke-miterlimit="10"/>
<path d="M198.641 342.812C198.641 342.812 230.84 353.379 254.866 350.08" stroke="#976457" stroke-miterlimit="10"/>
<path d="M215.496 186.758C215.496 186.758 221.444 204.3 235.682 209.809C250.575 215.623 258.748 207.89 260.668 203.08C262.588 198.269 260.668 192.528 260.668 192.528" stroke="#976457" stroke-miterlimit="10"/>
</g>
<path d="M377.939 424.47L319.099 360.989C264.264 409.181 180.724 405.195 130.78 351.355C80.8372 297.515 83.2354 213.873 135.443 162.848L76.6031 99.3668C-10.6655 182.889 -15.0583 321.257 67.3416 410.156C149.741 499.055 288.044 505.159 377.939 424.47Z" fill="#FF9149"/>
</svg>
